<svg width="182" height="106" viewBox="0 0 182 106" fill="none" xmlns="http://www.w3.org/2000/svg">
<g clip-path="url(#clip0)">
<path d="M158.802 3.5896C158.169 3.5896 157.747 3.5896 157.115 3.5896C158.169 3.5896 158.802 3.80075 159.013 4.22307H159.224C159.013 4.01191 158.802 3.80075 158.802 3.5896Z" fill="black"/>
<path d="M150.999 3.37851C153.108 3.37851 155.006 3.37851 157.115 3.37851C155.428 3.16736 152.897 3.37851 150.999 3.37851Z" fill="black"/>
<path d="M86.8876 3.80079C85.6222 3.80079 84.146 4.01194 82.8806 4.01194C84.146 4.01194 85.6222 4.01194 86.8876 4.01194C99.5411 4.01194 112.406 3.37848 125.059 3.37848C132.862 3.37848 140.454 3.58963 148.257 3.58963C148.679 3.58963 149.733 3.37848 151.21 3.37848C129.699 3.16732 107.977 2.11154 86.8876 3.80079Z" fill="black"/>
<path d="M54.832 3.8009C64.1113 4.43437 73.6014 4.64553 82.6698 4.22321C73.3905 4.01206 64.1113 4.01206 54.832 3.8009Z" fill="black"/>
<path d="M11.1772 55.745C11.3881 57.4343 12.2317 59.1235 12.6535 60.8128C12.2317 59.1235 11.599 57.4343 11.1772 55.745C11.1772 55.5339 11.1772 55.5339 11.1772 55.745Z" fill="black"/>
<path d="M21.7219 44.7649C21.7219 45.3984 21.9328 46.0319 21.9328 46.8765C21.9328 46.0319 21.9328 45.3984 21.7219 44.7649C21.9328 44.5538 21.7219 44.5538 21.7219 44.7649Z" fill="black"/>
<path d="M18.9805 59.5458C18.3478 61.4462 17.5042 63.3466 16.6606 65.0358C17.5042 63.3466 18.7696 61.4462 18.9805 59.5458Z" fill="black"/>
<path d="M18.9803 58.9123C18.9803 59.1234 18.9803 59.3346 18.9803 59.5457C18.9803 59.3346 18.9803 59.1234 18.9803 58.9123C19.1912 58.7011 18.7694 58.7011 18.9803 58.9123Z" fill="black"/>
<path d="M28.2596 104.522C27.2051 99.6653 24.6744 75.1713 22.3546 51.3107C22.1437 49.8326 22.1437 48.3545 21.9328 46.8764C21.9328 47.0876 21.9328 47.2988 21.9328 47.2988C19.8239 27.0278 17.9259 8.23501 16.8714 4.22306C16.8714 3.80075 16.6605 3.58959 16.6605 3.37844C17.715 2.95612 18.7694 2.74497 20.0348 2.53381C18.9803 2.74497 17.715 2.95612 16.4496 3.37844C16.4496 3.37844 16.4496 3.37844 16.2387 3.37844C16.2387 3.80075 16.2387 4.0119 16.4496 4.43421L15.3952 4.85652C15.3952 5.48999 15.3952 6.12345 15.3952 6.54577C15.817 5.9123 16.0278 5.27883 16.6605 4.64537C17.5041 11.1912 18.5586 17.5258 19.4021 24.0717C17.715 32.0956 17.2932 40.1195 15.6061 47.9322C14.5516 52.5776 13.708 57.4342 13.0754 62.0796C12.8645 61.6573 12.8645 61.235 12.6536 61.0239C12.8645 61.4462 12.8645 61.8685 13.0754 62.2908C12.8645 64.6135 12.4427 66.9362 12.2318 69.2589C12.4427 67.1474 12.8645 65.0358 13.2863 62.9243C13.9189 65.6693 14.1298 68.6255 14.7625 71.5816C14.7625 74.9601 13.4971 78.3386 12.0209 81.5059C13.4971 78.5498 14.7625 75.1713 14.7625 71.7928C14.7625 72.2151 14.9734 72.8486 14.9734 73.2709H15.1843C14.9734 72.6374 14.9734 71.7928 14.7625 71.1593C14.9734 69.0478 15.6061 67.1474 16.4496 65.247C16.4496 65.4581 16.2387 65.4581 16.2387 65.6693C15.3952 67.3585 14.7625 69.0478 14.5516 70.9482C14.1298 68.6254 13.9189 66.5139 13.2863 64.1912C13.2863 63.7689 13.0754 63.5577 13.0754 63.1354C15.1843 50.6772 18.3477 38.6414 19.1912 25.7609C19.4021 27.6613 19.613 29.5617 19.8239 31.4621C20.6675 39.2749 20.6675 47.0876 21.3002 54.9003V69.0478C21.3002 69.2589 21.511 69.2589 21.511 69.0478V57.0119C21.511 57.6454 21.7219 58.49 21.7219 59.1235C22.7764 67.5697 24.2526 75.8047 25.0962 84.251C25.3071 86.996 25.518 89.741 25.7289 92.486C24.6744 92.0637 22.7764 92.2749 21.7219 92.2749C18.1368 91.8525 14.7625 92.486 11.1773 92.486C10.9664 92.486 10.9664 92.6972 10.9664 92.6972C10.1229 92.6972 9.2793 93.1195 8.64662 93.3306C5.48324 94.5976 3.37432 93.9641 0.843611 96.2868C2.10896 86.3625 5.27235 76.8605 6.74859 66.9362C7.80305 60.1792 7.38127 53.6334 8.22484 46.8764C8.85752 40.3306 9.91197 33.996 10.9664 27.6613C10.7555 28.0836 10.7555 28.7171 10.5447 29.1394C9.06841 36.3187 8.43573 42.4422 7.59216 49.6215C6.74859 57.2231 7.38127 64.6135 5.48324 72.2151C3.37432 80.239 2.10896 88.4741 0.632719 96.498C0.632719 96.498 0.632719 96.498 0.421827 96.7091C0.210935 96.9203 0.421827 97.1314 0.632719 97.1314C2.95253 97.9761 6.11592 97.1314 8.43573 97.1314H14.1298C14.5516 97.1314 15.6061 96.9203 16.4496 96.9203C15.817 97.1314 15.1843 97.5537 14.5516 97.5537C13.9189 97.7649 13.4971 97.5537 13.0754 97.7649C12.2318 97.976 11.5991 98.1872 10.7555 98.1872C10.5447 98.1872 10.5447 98.6095 10.7555 98.6095C11.81 98.6095 13.0754 98.3984 14.1298 98.1872C14.5516 98.1872 15.1843 97.976 15.6061 97.7649C16.2387 97.5537 16.6605 97.1314 17.2932 96.9203C17.5041 96.9203 17.5041 96.9203 17.715 97.1314C20.2457 99.243 23.8309 100.932 26.1507 103.255C25.7289 103.255 25.3071 103.255 25.0962 103.466C25.0962 103.466 25.0962 103.677 25.0962 103.466C25.518 103.255 25.9398 103.255 26.1507 103.044C26.7833 103.677 27.2051 104.311 27.6269 104.944C27.6269 105.155 27.8378 104.944 27.8378 104.944L27.6269 104.733C28.0487 104.733 28.2596 104.522 28.2596 104.522ZM17.0823 96.498C15.1843 96.9203 13.0754 96.7091 11.1773 96.7091C9.49019 96.7091 8.01395 96.7091 6.32681 96.9203C6.5377 96.9203 6.5377 96.7091 6.74859 96.7091C7.38127 96.2868 8.43573 95.8645 8.85751 95.231C9.06841 95.0199 8.85752 94.8087 8.64662 95.0199C8.01395 95.4422 7.59216 95.8645 6.95949 96.0757C6.5377 96.2868 6.11592 96.9203 5.69413 96.9203C5.06146 96.9203 4.42878 97.1314 3.58521 97.1314C4.42878 96.498 5.69413 96.0756 6.32681 95.231C6.32681 95.0199 6.32681 94.8087 6.11592 95.0199C5.06146 95.4422 4.00699 96.2868 3.16343 96.9203C3.16343 96.9203 3.16343 96.9203 3.16343 97.1314C2.53075 97.1314 1.89807 97.1314 1.47629 97.1314C5.69413 92.6972 12.8645 92.9083 17.0823 96.498ZM26.7834 103.255C26.9942 103.255 26.9942 103.044 26.7834 103.255C26.7834 103.044 26.7834 103.044 26.7834 103.255C23.62 99.243 17.5041 96.7091 13.708 93.3306C13.708 93.1195 13.2863 92.9083 13.0754 92.9083C15.3952 92.9083 17.715 92.6972 20.2457 92.6972C21.9328 92.6972 24.2526 92.6972 26.1507 92.9083C26.3616 96.9203 26.7834 100.932 27.8378 104.733C27.416 104.1 27.2051 103.677 26.7834 103.255Z" fill="black"/>
<path d="M20.0349 2.53388C22.5656 2.32273 25.0963 2.53388 27.627 2.53388C30.5795 2.53388 33.7429 2.32273 36.6954 2.32273C31.2122 2.11157 24.8854 1.90042 20.0349 2.53388Z" fill="black"/>
<path d="M36.6953 2.53387C39.226 2.74503 41.7567 2.95619 43.6548 3.16734C47.4508 3.58965 51.036 3.80081 54.832 3.80081C51.036 3.58965 47.2399 3.16734 43.6548 2.74503C41.5458 2.53387 39.0151 2.32272 36.6953 2.53387Z" fill="black"/>
<path d="M13.2862 15.6255C12.6535 19.6374 11.8099 23.6494 11.1772 27.6613C12.8644 21.1155 14.9733 13.5139 15.3951 6.75696C14.1297 9.50198 13.708 13.3028 13.2862 15.6255Z" fill="black"/>
<path d="M181.367 93.3305C181.157 92.4859 180.946 91.8524 180.735 91.0078C181.157 90.7966 181.578 92.0636 182 92.9082C181.789 92.2747 181.367 90.7966 180.735 88.2628C179.68 84.0397 178.415 79.8166 177.36 75.5935C175.041 67.7807 173.143 59.968 170.823 52.1552C170.612 50.8883 170.19 49.6213 169.979 48.3544C168.925 43.2867 167.449 38.219 166.183 33.1512C165.761 31.462 165.34 29.5616 165.129 27.8723C164.496 24.9162 163.652 22.1711 162.598 19.4261C161.754 14.5696 161.544 9.71298 159.856 4.85641V4.64525C159.856 4.4341 159.856 4.4341 159.646 4.22294C159.646 4.01179 159.224 4.01179 159.435 4.22294C159.435 4.22294 159.224 4.22294 159.013 4.22294C159.013 4.4341 159.013 4.4341 159.224 4.64525V4.4341C159.224 4.22294 159.435 4.85641 159.435 4.85641V5.06756C159.435 5.06756 159.435 5.27872 159.646 5.27872C160.489 8.86836 160.911 12.458 161.544 16.2588C160.7 13.7249 160.067 10.9799 159.435 8.44605C159.435 8.23489 159.224 8.44605 159.224 8.44605C160.911 21.96 165.761 35.0516 168.292 48.3544C169.979 56.8006 173.354 64.8245 174.83 73.2708C176.095 79.8166 177.571 87.207 179.891 93.5417C179.469 93.5417 179.048 93.5417 178.415 93.5417C173.986 92.697 169.136 93.1194 164.496 93.7528C159.224 93.964 153.951 94.3863 148.468 94.8086C145.305 95.0198 141.931 95.2309 138.767 95.6532C128.433 96.4978 118.311 97.5536 107.977 97.9759C94.9016 98.3982 80.9827 99.454 68.3292 101.566C59.8935 103.044 51.6687 104.733 43.0221 103.888C38.1716 103.466 32.4775 103.255 27.8379 104.944C27.627 105.155 27.627 105.578 27.8379 105.578C27.8379 105.789 27.8379 106 28.0487 105.789C34.1646 105.155 40.4914 105.789 46.6073 105.578C52.934 106.211 59.4717 104.733 65.5876 103.466C67.0638 103.255 68.751 102.832 70.4381 102.621C71.0708 102.621 71.4926 102.41 72.1252 102.41C75.9213 101.988 79.7174 101.777 83.7243 101.566C91.9491 101.143 100.174 101.143 107.977 100.51C114.093 99.8763 179.68 95.0198 179.68 95.0198C179.68 96.2867 181.367 96.2867 181.578 95.2309C181.789 95.0197 181.789 94.8086 181.789 94.5974C181.789 94.3863 181.789 94.3863 181.789 94.1751C181.789 93.5417 181.578 93.3305 181.367 93.3305ZM29.3141 104.944C32.8993 104.099 36.9062 104.311 40.7023 104.733C36.9062 104.522 33.1102 104.311 29.3141 104.944Z" fill="black"/>
<path d="M20.8782 1.90035C20.8782 1.47804 21.2999 0.211105 22.1435 0.633416C22.7762 0.844571 23.198 2.1115 23.4089 2.53381C23.4089 2.74497 25.096 5.70115 24.0415 5.9123C23.8306 5.9123 23.8306 6.33461 24.0415 6.33461C25.9396 6.12346 23.8306 2.53381 23.4089 1.68919C23.198 1.26688 22.3544 -0.422361 21.5108 -5.00455e-05C20.8782 0.211105 20.6673 1.05573 20.8782 1.90035Z" fill="black"/>
<path d="M24.6743 1.90035C24.6743 1.47804 25.0961 0.211105 25.9396 0.633416C26.5723 0.844571 26.9941 2.1115 27.205 2.53381C27.205 2.74497 28.8921 5.70115 27.8377 5.9123C27.4159 5.9123 27.4159 6.33461 27.6268 6.33461C29.5248 6.12346 27.4159 2.53381 26.9941 1.68919C26.7832 1.26688 25.9396 -0.422361 25.0961 -5.00455e-05C24.6743 0.211105 24.4634 1.05573 24.6743 1.90035C24.4634 1.90035 24.6743 1.90035 24.6743 1.90035Z" fill="black"/>
<path d="M28.2595 1.90035C28.2595 1.47804 28.6813 0.211105 29.5249 0.633416C30.1576 0.844571 30.5793 2.1115 30.7902 2.53381C30.7902 2.74497 32.4774 5.70115 31.4229 5.9123C31.212 5.9123 31.212 6.33461 31.4229 6.33461C33.3209 6.12346 31.212 2.53381 30.7902 1.68919C30.5793 1.26688 29.7358 -0.422361 28.8922 -5.00455e-05C28.4704 0.211105 28.2595 1.05573 28.2595 1.90035Z" fill="black"/>
<path d="M32.0556 1.90035C32.0556 1.47804 32.4774 0.211105 33.321 0.633416C33.9537 0.844571 34.3755 2.1115 34.5863 2.53381C34.5863 2.74497 36.2735 5.70115 35.219 5.9123C35.0081 5.9123 35.0081 6.33461 35.219 6.33461C37.1171 6.12346 35.0081 2.53381 34.5863 1.68919C34.3755 1.26688 33.5319 -0.422361 32.6883 -5.00455e-05C32.0556 0.211105 31.8448 1.05573 32.0556 1.90035C31.8448 1.90035 32.0556 1.90035 32.0556 1.90035Z" fill="black"/>
<path d="M35.6406 1.90035C35.6406 1.47804 36.0624 0.211105 36.906 0.633416C37.5387 0.844571 37.9604 1.90035 37.9604 2.53381C37.9604 2.74497 39.6476 5.70115 38.5931 5.9123C38.3822 5.9123 38.3822 6.33461 38.5931 6.33461C40.4911 6.12346 38.3822 2.53381 37.9604 1.68919C37.7495 1.26688 36.906 -0.422361 36.0624 -5.00455e-05C35.8515 0.211105 35.6406 1.05573 35.6406 1.90035Z" fill="black"/>
<path d="M39.4367 1.90035C39.4367 1.47804 39.8585 0.211105 40.7021 0.633416C41.3348 0.844571 41.7566 2.1115 41.9674 2.53381C41.9674 2.74497 43.6546 5.70115 42.6001 5.9123C42.3892 5.9123 42.3892 6.33461 42.6001 6.33461C44.4982 6.12346 42.3892 2.53381 41.9674 1.68919C41.7566 1.26688 40.913 -0.422361 40.0694 -5.00455e-05C39.4367 0.211105 39.2259 1.05573 39.4367 1.90035C39.2259 1.90035 39.4367 1.90035 39.4367 1.90035Z" fill="black"/>
<path d="M43.2329 1.90035C43.2329 1.47804 43.6547 0.211105 44.4982 0.633416C45.1309 0.844571 45.5527 2.1115 45.7636 2.53381C45.7636 2.74497 47.4507 5.70115 46.3963 5.9123C46.1854 5.9123 46.1854 6.33461 46.3963 6.33461C48.2943 6.12346 46.1854 2.53381 45.7636 1.68919C45.5527 1.26688 44.7091 -0.422361 43.8656 -5.00455e-05C43.2329 0.211105 43.022 1.05573 43.2329 1.90035C43.022 1.90035 43.022 1.90035 43.2329 1.90035Z" fill="black"/>
<path d="M46.8181 1.90035C46.8181 1.47804 47.2399 0.211105 48.0835 0.633416C48.7161 0.844571 49.1379 2.1115 49.3488 2.53381C49.3488 2.74497 51.036 5.70115 49.9815 5.9123C49.7706 5.9123 49.7706 6.33461 49.9815 6.33461C51.8795 6.12346 49.7706 2.53381 49.3488 1.68919C49.1379 1.26688 48.2944 -0.422361 47.4508 -5.00455e-05C46.8181 0.211105 46.8181 1.05573 46.8181 1.90035Z" fill="black"/>
<path d="M50.614 1.90035C50.614 1.47804 51.0358 0.211105 51.8793 0.633416C52.512 0.844571 52.9338 2.1115 53.1447 2.53381C53.1447 2.74497 54.8318 5.70115 53.7774 5.9123C53.5665 5.9123 53.5665 6.33461 53.7774 6.33461C55.6754 6.12346 53.5665 2.53381 53.1447 1.68919C52.9338 1.26688 52.0902 -0.422361 51.2467 -5.00455e-05C50.614 0.211105 50.4031 1.05573 50.614 1.90035C50.4031 1.90035 50.614 1.90035 50.614 1.90035Z" fill="black"/>
<path d="M54.1992 1.90035C54.1992 1.47804 54.621 0.211105 55.4646 0.633416C56.0972 0.844571 56.519 2.1115 56.7299 2.53381C56.7299 2.74497 58.4171 5.70115 57.3626 5.9123C57.1517 5.9123 57.1517 6.33461 57.3626 6.33461C59.2606 6.12346 57.1517 2.53381 56.7299 1.68919C56.519 1.26688 55.6755 -0.422361 54.8319 -5.00455e-05C54.4101 0.211105 54.1992 1.05573 54.1992 1.90035Z" fill="black"/>
<path d="M57.9953 1.90035C57.9953 1.47804 58.4171 0.211105 59.2607 0.633416C59.8934 0.844571 60.3152 2.1115 60.526 2.53381C60.526 2.74497 62.2132 5.70115 61.1587 5.9123C60.9478 5.9123 60.9478 6.33461 61.1587 6.33461C63.0568 6.12346 60.9478 2.53381 60.526 1.68919C60.3152 1.26688 59.4716 -0.422361 58.628 -5.00455e-05C57.9953 0.211105 57.7844 1.05573 57.9953 1.90035C57.7844 1.90035 57.9953 1.90035 57.9953 1.90035Z" fill="black"/>
<path d="M61.5806 1.90035C61.5806 1.47804 62.0023 0.211105 62.8459 0.633416C63.4786 0.844571 63.9004 2.1115 64.1113 2.53381C64.1113 2.74497 65.7984 5.70115 64.744 5.9123C64.5331 5.9123 64.5331 6.33461 64.744 6.33461C66.642 6.12346 64.5331 2.53381 64.1113 1.68919C63.9004 1.26688 63.0568 -0.422361 62.2132 -5.00455e-05C61.7915 0.211105 61.5806 1.05573 61.5806 1.90035Z" fill="black"/>
<path d="M65.3765 1.90035C65.3765 1.47804 65.7983 0.211105 66.6418 0.633416C67.2745 0.844571 67.6963 2.1115 67.9072 2.53381C67.9072 2.74497 69.5943 5.70115 68.5398 5.9123C68.329 5.9123 68.329 6.33461 68.5398 6.33461C70.4379 6.12346 68.329 2.53381 67.9072 1.68919C67.6963 1.26688 66.8527 -0.422361 66.0091 -5.00455e-05C65.3765 0.211105 65.3765 1.05573 65.3765 1.90035Z" fill="black"/>
<path d="M69.1726 1.90035C69.1726 1.47804 69.5944 0.211105 70.4379 0.633416C71.0706 0.844571 71.4924 2.1115 71.7033 2.53381C71.7033 2.74497 73.3904 5.70115 72.336 5.9123C72.1251 5.9123 72.1251 6.33461 72.336 6.33461C74.234 6.12346 72.1251 2.53381 71.7033 1.68919C71.4924 1.26688 70.6488 -0.422361 69.8053 -5.00455e-05C69.1726 0.211105 68.9617 1.05573 69.1726 1.90035C68.9617 1.90035 69.1726 1.90035 69.1726 1.90035Z" fill="black"/>
<path d="M72.7578 1.90035C72.7578 1.47804 73.1796 0.211105 74.0232 0.633416C74.6558 0.844571 75.0776 2.1115 75.2885 2.53381C75.2885 2.74497 76.9757 5.70115 75.9212 5.9123C75.7103 5.9123 75.7103 6.33461 75.9212 6.33461C77.8192 6.12346 75.7103 2.53381 75.2885 1.68919C75.0776 1.26688 74.2341 -0.422361 73.3905 -5.00455e-05C72.9687 0.211105 72.7578 1.05573 72.7578 1.90035Z" fill="black"/>
<path d="M76.5539 1.90035C76.5539 1.47804 76.9757 0.211105 77.8193 0.633416C78.452 0.844571 78.8737 2.1115 79.0846 2.53381C79.0846 2.74497 80.7718 5.70115 79.7173 5.9123C79.5064 5.9123 79.5064 6.33461 79.7173 6.33461C81.6153 6.12346 79.5064 2.53381 79.0846 1.68919C78.8737 1.26688 78.0302 -0.422361 77.1866 -5.00455e-05C76.5539 0.211105 76.343 1.05573 76.5539 1.90035C76.343 1.90035 76.5539 1.90035 76.5539 1.90035Z" fill="black"/>
<path d="M80.1389 1.90035C80.1389 1.47804 80.5607 0.211105 81.4043 0.633416C82.0369 0.844571 82.4587 2.1115 82.6696 2.53381C82.6696 2.74497 84.3568 5.70115 83.3023 5.9123C83.0914 5.9123 83.0914 6.33461 83.3023 6.33461C85.2003 6.12346 83.0914 2.53381 82.6696 1.68919C82.4587 1.26688 81.6152 -0.422361 80.7716 -5.00455e-05C80.3498 0.211105 80.1389 1.05573 80.1389 1.90035Z" fill="black"/>
<path d="M83.935 1.90035C83.935 1.47804 84.3568 0.211105 85.2004 0.633416C85.8331 0.844571 86.2549 2.1115 86.4658 2.53381C86.4658 2.74497 88.1529 5.70115 87.0984 5.9123C86.8875 5.9123 86.8875 6.33461 87.0984 6.33461C88.9965 6.12346 86.8875 2.53381 86.4658 1.68919C86.2549 1.26688 85.4113 -0.422361 84.5677 -5.00455e-05C83.935 0.211105 83.7241 1.05573 83.935 1.90035Z" fill="black"/>
<path d="M87.7312 1.90035C87.7312 1.47804 88.153 0.211105 88.9965 0.633416C89.6292 0.844571 90.051 2.1115 90.2619 2.53381C90.2619 2.74497 91.949 5.70115 90.8946 5.9123C90.6837 5.9123 90.6837 6.33461 90.8946 6.33461C92.7926 6.12346 90.6837 2.53381 90.2619 1.68919C90.051 1.26688 89.2074 -0.422361 88.3639 -5.00455e-05C87.7312 0.211105 87.5203 1.05573 87.7312 1.90035C87.5203 1.90035 87.7312 1.90035 87.7312 1.90035Z" fill="black"/>
<path d="M91.3164 1.90035C91.3164 1.47804 91.7382 0.211105 92.5818 0.633416C93.2144 0.844571 93.6362 2.1115 93.8471 2.53381C93.8471 2.74497 95.5342 5.70115 94.4798 5.9123C94.2689 5.9123 94.2689 6.33461 94.4798 6.33461C96.3778 6.12346 94.2689 2.53381 93.8471 1.68919C93.6362 1.26688 92.7926 -0.422361 91.9491 -5.00455e-05C91.5273 0.211105 91.3164 1.05573 91.3164 1.90035Z" fill="black"/>
<path d="M95.1123 1.90035C95.1123 1.47804 95.5341 0.211105 96.3776 0.633416C97.0103 0.844571 97.4321 2.1115 97.643 2.53381C97.643 2.74497 99.3301 5.70115 98.2757 5.9123C98.0648 5.9123 98.0648 6.33461 98.2757 6.33461C100.174 6.12346 98.0648 2.53381 97.643 1.68919C97.4321 1.26688 96.5885 -0.422361 95.745 -5.00455e-05C95.1123 0.211105 94.9014 1.05573 95.1123 1.90035C94.9014 1.90035 95.1123 1.90035 95.1123 1.90035Z" fill="black"/>
<path d="M98.6975 1.90035C98.6975 1.47804 99.1193 0.211105 99.9629 0.633416C100.596 0.844571 101.017 2.1115 101.228 2.53381C101.228 2.74497 102.915 5.70115 101.861 5.9123C101.65 5.9123 101.65 6.33461 101.861 6.33461C103.759 6.12346 101.65 2.53381 101.228 1.68919C101.017 1.26688 100.174 -0.422361 99.3302 -5.00455e-05C98.9084 0.211105 98.6975 1.05573 98.6975 1.90035Z" fill="black"/>
<path d="M102.494 1.90035C102.494 1.47804 102.915 0.211105 103.759 0.633416C104.392 0.844571 104.813 2.1115 105.024 2.53381C105.024 2.74497 106.711 5.70115 105.657 5.9123C105.446 5.9123 105.446 6.33461 105.657 6.33461C107.555 6.12346 105.446 2.53381 105.024 1.68919C104.813 1.26688 103.97 -0.422361 103.126 -5.00455e-05C102.494 0.211105 102.283 1.05573 102.494 1.90035C102.283 1.90035 102.494 1.90035 102.494 1.90035Z" fill="black"/>
<path d="M106.29 1.90035C106.29 1.47804 106.712 0.211105 107.555 0.633416C108.188 0.844571 108.61 2.1115 108.82 2.53381C108.82 2.74497 110.508 5.70115 109.453 5.9123C109.242 5.9123 109.242 6.33461 109.453 6.33461C111.351 6.12346 109.242 2.53381 108.82 1.68919C108.61 1.26688 107.766 -0.422361 106.922 -5.00455e-05C106.29 0.211105 106.079 1.05573 106.29 1.90035C106.079 1.90035 106.079 1.90035 106.29 1.90035Z" fill="black"/>
<path d="M109.875 1.90035C109.875 1.47804 110.297 0.211105 111.14 0.633416C111.773 0.844571 112.195 2.1115 112.405 2.53381C112.405 2.74497 114.093 5.70115 113.038 5.9123C112.827 5.9123 112.827 6.33461 113.038 6.33461C114.936 6.12346 112.827 2.53381 112.405 1.68919C112.195 1.26688 111.351 -0.422361 110.507 -5.00455e-05C109.875 0.211105 109.875 1.05573 109.875 1.90035Z" fill="black"/>
<path d="M113.671 1.90035C113.671 1.47804 114.093 0.211105 114.936 0.633416C115.569 0.844571 115.991 2.1115 116.202 2.53381C116.202 2.74497 117.889 5.70115 116.834 5.9123C116.623 5.9123 116.623 6.33461 116.834 6.33461C118.732 6.12346 116.623 2.53381 116.202 1.68919C115.991 1.26688 115.147 -0.422361 114.304 -5.00455e-05C113.671 0.211105 113.46 1.05573 113.671 1.90035C113.46 1.90035 113.671 1.90035 113.671 1.90035Z" fill="black"/>
<path d="M117.256 1.90035C117.256 1.47804 117.678 0.211105 118.521 0.633416C119.154 0.844571 119.576 2.1115 119.787 2.53381C119.787 2.74497 121.474 5.70115 120.419 5.9123C120.209 5.9123 120.209 6.33461 120.419 6.33461C122.318 6.12346 120.209 2.53381 119.998 1.68919C119.787 1.26688 118.943 -0.422361 118.1 -5.00455e-05C117.467 0.211105 117.256 1.05573 117.256 1.90035Z" fill="black"/>
<path d="M121.052 1.90035C121.052 1.47804 121.474 0.211105 122.318 0.633416C122.95 0.844571 123.372 2.1115 123.583 2.53381C123.583 2.74497 125.27 5.70115 124.216 5.9123C124.005 5.9123 124.005 6.33461 124.216 6.33461C126.114 6.12346 124.005 2.53381 123.583 1.68919C123.372 1.26688 122.528 -0.422361 121.685 -5.00455e-05C121.052 0.211105 120.841 1.05573 121.052 1.90035C120.841 1.90035 121.052 1.90035 121.052 1.90035Z" fill="black"/>
<path d="M124.637 1.90035C124.637 1.47804 125.059 0.211105 125.903 0.633416C126.535 0.844571 126.957 2.1115 127.168 2.53381C127.168 2.74497 128.855 5.70115 127.801 5.9123C127.59 5.9123 127.59 6.33461 127.801 6.33461C129.699 6.12346 127.59 2.53381 127.168 1.68919C126.957 1.26688 126.113 -0.422361 125.27 -5.00455e-05C124.848 0.211105 124.637 1.05573 124.637 1.90035Z" fill="black"/>
<path d="M128.433 1.90035C128.433 1.47804 128.855 0.211105 129.699 0.633416C130.331 0.844571 130.753 2.1115 130.964 2.53381C130.964 2.74497 132.651 5.70115 131.597 5.9123C131.386 5.9123 131.386 6.33461 131.597 6.33461C133.495 6.12346 131.386 2.53381 130.964 1.68919C130.753 1.26688 129.91 -0.422361 129.066 -5.00455e-05C128.433 0.211105 128.433 1.05573 128.433 1.90035Z" fill="black"/>
<path d="M132.229 1.90035C132.229 1.47804 132.651 0.211105 133.495 0.633416C134.128 0.844571 134.549 2.1115 134.76 2.53381C134.76 2.74497 136.447 5.70115 135.393 5.9123C134.971 5.9123 134.971 6.33461 135.182 6.33461C137.08 6.12346 134.971 2.53381 134.549 1.68919C134.338 1.26688 133.495 -0.422361 132.651 -5.00455e-05C132.229 0.211105 132.019 1.05573 132.229 1.90035C132.019 1.90035 132.229 1.90035 132.229 1.90035Z" fill="black"/>
<path d="M135.814 1.90035C135.814 1.47804 136.236 0.211105 137.08 0.633416C137.712 0.844571 138.134 2.1115 138.345 2.53381C138.345 2.74497 140.032 5.70115 138.978 5.9123C138.767 5.9123 138.767 6.33461 138.978 6.33461C140.876 6.12346 138.767 2.53381 138.345 1.68919C138.134 1.26688 137.291 -0.422361 136.447 -5.00455e-05C136.025 0.211105 135.814 1.05573 135.814 1.90035Z" fill="black"/>
<path d="M139.611 1.90035C139.611 1.47804 140.032 0.211105 140.876 0.633416C141.509 0.844571 141.93 2.1115 142.141 2.53381C142.141 2.74497 143.828 5.70115 142.774 5.9123C142.563 5.9123 142.563 6.33461 142.774 6.33461C144.672 6.12346 142.563 2.53381 142.141 1.68919C141.93 1.26688 141.087 -0.422361 140.243 -5.00455e-05C139.611 0.211105 139.4 1.05573 139.611 1.90035C139.4 1.90035 139.611 1.90035 139.611 1.90035Z" fill="black"/>
<path d="M143.196 1.90035C143.196 1.47804 143.618 0.211105 144.461 0.633416C145.094 0.844571 145.516 2.1115 145.726 2.53381C145.726 2.74497 147.414 5.70115 146.359 5.9123C146.148 5.9123 146.148 6.33461 146.359 6.33461C148.257 6.12346 146.148 2.53381 145.726 1.68919C145.516 1.26688 144.672 -0.422361 143.828 -5.00455e-05C143.407 0.211105 143.196 1.05573 143.196 1.90035Z" fill="black"/>
<path d="M146.992 1.90035C146.992 1.47804 147.414 0.211105 148.257 0.633416C148.89 0.844571 149.312 2.1115 149.523 2.53381C149.523 2.74497 151.21 5.70115 150.155 5.9123C149.944 5.9123 149.944 6.33461 150.155 6.33461C152.053 6.12346 149.944 2.53381 149.523 1.68919C149.312 1.26688 148.468 -0.422361 147.625 -5.00455e-05C146.992 0.211105 146.781 1.05573 146.992 1.90035Z" fill="black"/>
<path d="M150.788 1.90035C150.788 1.47804 151.21 0.211105 152.053 0.633416C152.686 0.844571 153.108 2.1115 153.319 2.53381C153.319 2.74497 155.006 5.70115 153.951 5.9123C153.74 5.9123 153.74 6.33461 153.951 6.33461C155.849 6.12346 153.74 2.53381 153.319 1.68919C153.108 1.26688 152.264 -0.422361 151.421 -5.00455e-05C150.788 0.211105 150.577 1.05573 150.788 1.90035C150.577 1.90035 150.788 1.90035 150.788 1.90035Z" fill="black"/>
<path d="M154.373 1.90035C154.373 1.47804 154.795 0.211105 155.638 0.633416C156.271 0.844571 156.693 2.1115 156.904 2.53381C156.904 2.74497 158.591 5.70115 157.536 5.9123C157.326 5.9123 157.326 6.33461 157.536 6.33461C159.434 6.12346 157.326 2.53381 156.904 1.68919C156.693 1.26688 155.849 -0.422361 155.006 -5.00455e-05C154.584 0.211105 154.373 1.05573 154.373 1.90035Z" fill="black"/>
<path d="M41.5458 22.5936C41.5458 22.3824 41.124 22.5936 41.124 22.5936C46.6072 46.6653 47.029 71.1593 53.9884 95.0199C53.9884 95.2311 54.4102 95.0199 54.4102 95.0199C47.8726 70.9482 47.4508 46.4542 41.5458 22.5936Z" fill="black"/>
<path d="M81.8262 94.3863C97.854 93.3305 114.093 91.4301 130.121 89.7408C119.576 90.5855 109.031 91.4301 98.6976 92.4859C93.4252 93.1193 87.7312 93.7528 81.8262 94.3863Z" fill="black"/>
<path d="M54.6211 95.0198C54.6211 95.0198 54.6211 95.231 54.6211 95.0198C63.4786 95.8644 72.7578 95.231 81.8262 94.3864C72.7578 95.0198 63.6895 95.231 54.6211 95.0198Z" fill="black"/>
<path d="M161.332 87.6294C161.122 87.6294 160.911 87.6294 160.911 87.6294C158.38 76.4381 151.842 66.3027 149.101 55.3226C146.148 43.0756 145.937 31.2509 140.243 19.4262H140.454C140.876 19.4262 140.876 18.7927 140.454 18.7927C140.243 18.7927 140.032 18.7927 140.032 18.7927C140.032 18.7927 140.032 18.7927 140.032 18.5815C135.815 18.7927 132.018 19.0039 128.012 19.0039C128.012 18.7927 127.59 18.7927 127.59 19.0039C111.562 19.4262 95.5341 19.4262 79.5063 20.2708C69.8053 20.6931 60.1042 21.3266 50.4032 21.96C47.2398 22.1712 44.0764 21.5377 41.3348 22.5935C41.1239 22.8046 41.1239 23.0158 41.5457 23.0158H41.7566C42.1784 23.0158 42.1784 22.5935 41.7566 22.5935C46.3962 22.5935 51.0359 22.3823 55.6755 22.3823C55.6755 23.227 55.8864 24.0716 56.0973 24.9162C51.6685 25.1274 47.2398 25.5497 42.8111 25.7608C42.3893 25.7608 42.3893 25.972 42.3893 26.1831C42.3893 26.3943 42.6002 26.6054 43.022 26.6054C52.5121 26.6054 61.7914 25.972 71.2815 25.3385C71.4924 25.5497 71.9142 25.5497 71.9142 25.3385C75.9211 25.1274 80.139 24.705 84.1459 24.4939C84.1459 24.705 84.3568 24.705 84.5677 24.9162C84.9895 25.1274 85.4113 24.705 84.9895 24.4939C89.84 24.2827 94.9014 24.0716 99.752 23.8604C99.752 23.8604 99.752 23.8604 99.752 24.0716C99.9628 24.2827 100.174 24.2827 100.385 24.0716L100.596 23.8604C101.228 23.8604 101.861 23.8604 102.283 23.8604C105.868 23.8604 109.664 23.8604 113.46 24.0716C113.46 24.2827 113.671 24.2827 113.882 24.4939C114.093 24.705 114.514 24.4939 114.304 24.2827C114.304 24.2827 114.304 24.2827 114.304 24.0716C120.419 24.2827 126.535 24.2827 132.651 23.8604C132.862 24.0716 133.284 24.2827 133.495 24.4939C134.127 24.705 134.76 24.2827 135.182 23.6493C136.869 23.4381 138.767 23.227 140.454 22.8047C143.407 33.3624 145.305 43.9202 148.046 54.478C150.999 65.8804 156.693 76.6493 160.067 88.0517C150.155 88.474 140.243 89.3186 130.12 90.3744C140.243 89.7409 150.155 89.1074 160.278 88.6851C160.278 88.6851 160.278 88.6851 160.278 88.8963C160.278 89.1074 160.7 89.1074 160.7 88.8963C160.911 88.8963 160.911 88.8963 161.122 88.8963C161.754 88.2628 161.754 87.6294 161.332 87.6294ZM56.7299 24.705C56.7299 24.4939 56.5191 24.2827 56.5191 24.0716V23.8604C56.0973 23.4381 55.8864 22.8047 55.8864 22.1712C60.7369 21.96 65.7983 21.96 70.6488 21.7489C70.6488 22.3823 70.6488 23.0158 70.8597 23.8604C66.0092 24.0716 61.3696 24.4939 56.7299 24.705ZM71.7033 23.8604C71.7033 23.227 71.4924 22.5935 71.2815 21.7489C75.2885 21.5377 79.0845 21.5377 83.0915 21.3266C83.5133 21.96 83.7242 22.5935 83.7242 23.227C79.7172 23.4381 75.7102 23.6493 71.7033 23.8604ZM99.3302 22.8047C98.9084 22.8047 98.6975 22.8047 98.2757 22.8047C94.6905 22.8047 91.3163 23.0158 87.7311 23.227C88.5747 22.3823 89.6291 22.5935 90.6836 22.5935C90.6836 22.5935 90.8945 22.5935 90.8945 22.3823C91.1054 21.96 92.1598 22.8047 92.3707 22.8047C93.0034 22.8047 93.847 22.1712 94.2688 21.7489C94.2688 21.7489 94.2688 21.5377 94.0579 21.5377C93.4252 21.96 91.949 23.0158 91.5272 21.96C91.5272 21.96 91.5272 21.7489 91.3163 21.7489C90.6836 21.7489 90.2618 22.1712 89.6291 21.96C88.7856 21.96 88.3638 21.96 87.942 22.1712V21.96C87.5202 21.96 87.3093 22.3823 87.3093 22.8047C87.3093 22.8047 87.3093 23.0158 87.5202 23.0158C86.6766 23.0158 85.6222 23.0158 84.7786 23.0158C84.7786 22.8046 84.7786 22.8046 84.7786 22.5935C84.5677 22.1712 84.3568 21.5377 84.1459 21.1154C89.2074 20.9043 94.4797 20.6931 99.5411 20.4819C99.5411 20.9043 99.5411 21.3266 99.5411 21.96C99.3302 22.3823 99.3302 22.5935 99.3302 22.8047ZM113.249 23.0158C108.82 23.0158 104.602 22.8047 100.385 22.8047C100.385 22.5935 100.385 22.3823 100.385 22.1712C100.385 21.7489 100.174 21.3266 99.9629 20.6931C104.392 20.4819 108.609 20.2708 113.038 20.2708C113.038 20.9043 113.249 21.7489 113.249 22.3823C113.249 22.5935 113.249 22.8046 113.249 23.0158ZM114.093 23.0158C114.093 22.5935 114.093 22.1712 114.093 21.7489C114.093 21.3266 113.882 20.6931 113.671 20.2708C118.31 20.0596 122.739 19.8485 127.379 19.8485C127.379 20.9043 127.379 21.96 128.012 23.0158C123.583 23.227 118.943 23.0158 114.093 23.0158ZM140.243 21.5377C138.767 21.7489 137.502 21.96 136.025 22.1712C136.236 21.96 136.236 21.7489 136.236 21.5377C136.236 21.3266 136.025 21.3266 136.025 21.3266C135.604 21.5377 135.182 21.96 134.76 22.3823C134.338 22.3823 133.917 22.3823 133.284 22.5935C133.284 22.1712 133.284 21.7489 133.495 21.5377C133.495 20.9043 133.495 20.0596 132.862 19.8485C132.018 19.6373 131.386 20.0596 130.753 20.4819C130.331 20.6931 130.753 21.5377 131.175 21.1154C131.597 20.9043 132.862 20.0596 132.651 21.3266C132.651 21.7489 132.44 22.1712 132.44 22.5935C131.386 22.5935 130.12 22.8047 129.066 22.8047C129.066 22.3823 128.855 22.1712 128.855 21.7489C128.855 21.1154 128.644 20.4819 128.433 19.6373C132.229 19.4262 136.236 19.4262 140.032 19.215C140.243 19.8485 140.454 20.6931 140.665 21.5377C140.454 21.5377 140.243 21.5377 140.243 21.5377Z" fill="black"/>
<path d="M137.924 25.1274C137.924 24.9162 137.291 24.9162 137.291 25.1274C137.291 26.1831 136.447 27.0278 135.393 27.6612C135.182 27.6612 135.393 27.8724 135.604 27.8724C136.447 27.4501 137.08 27.0278 137.502 26.6055C137.502 27.2389 137.502 28.0835 137.502 28.717C137.502 29.1393 138.345 28.9282 138.134 28.717C137.924 27.4501 137.924 26.3943 137.924 25.1274Z" fill="black"/>
<path d="M55.4647 45.1872C54.832 45.1872 51.6686 45.1872 53.1449 44.3426C53.5666 44.1314 54.1993 43.9203 54.4102 43.498C55.0429 42.6533 55.6756 41.8087 54.832 40.7529C53.7775 39.6972 51.2468 41.3864 52.934 41.8087C53.1449 41.8087 53.3557 41.5976 53.1449 41.5976C52.934 41.1752 53.1449 40.9641 53.9884 41.1752C54.1993 41.3864 54.1993 41.5976 54.1993 42.0199C54.1993 42.4422 53.5666 43.0756 53.1449 43.498C52.5122 43.9203 51.8795 44.3426 51.4577 44.976C50.825 46.4541 54.6211 45.8207 55.4647 45.8207C55.8864 45.6095 55.8864 45.1872 55.4647 45.1872Z" fill="black"/>
<path d="M71.0706 41.1751C70.6488 40.964 70.0162 40.7528 69.5944 40.964C70.227 40.3305 70.8597 39.4859 69.8053 39.2747C68.9617 38.8524 67.6963 39.2747 67.2746 39.9082C68.7508 38.4301 69.3835 39.9082 68.9617 40.5417C68.7508 40.964 68.329 41.1751 68.1181 41.5974C67.9072 41.8086 68.329 42.0197 68.5399 41.8086C70.4379 40.7528 71.2815 42.4421 70.0162 43.2867C69.3835 43.709 67.4854 44.3425 66.6419 43.709C66.8528 43.4978 66.431 43.0755 66.0092 43.4978C66.0092 43.4978 65.7983 43.4978 65.7983 43.709C65.5874 43.709 65.5874 43.9201 65.7983 44.1313C67.0637 45.6094 70.227 43.9201 71.0706 42.8644C71.7033 42.2309 71.7033 41.5974 71.0706 41.1751Z" fill="black"/>
<path d="M85.6221 39.9083C85.2003 40.3307 84.7785 40.9641 84.5676 41.5976C83.5132 42.0199 82.8805 41.8087 82.8805 40.9641C82.8805 40.3307 82.6696 39.6972 82.4587 39.0637C82.2478 40.1195 80.9825 41.5976 82.4587 42.4422C83.0914 42.8645 83.7241 42.6534 84.3568 42.2311C84.3568 42.6534 84.1459 43.2868 84.3568 43.498C84.3568 43.7091 84.7785 43.7091 84.9894 43.498C85.833 42.6534 84.9894 41.3864 85.6221 39.9083C85.833 39.9083 85.833 39.9083 85.6221 39.9083Z" fill="black"/>
<path d="M98.9084 39.6972C98.4866 39.6972 98.0648 39.6972 97.643 39.6972C96.7994 39.9083 96.5885 40.1195 96.5885 39.2749C96.5885 39.0637 96.5885 38.8526 96.5885 38.8526C96.5885 38.8526 96.7994 38.8526 96.5885 38.6414C96.1668 38.4302 98.0648 38.4302 98.0648 38.4302C98.6975 38.4302 99.3302 38.4302 99.9628 38.4302C100.385 38.4302 100.385 38.0079 99.9628 38.0079C99.1193 38.0079 97.2212 38.0079 96.5885 38.4302V38.2191H96.3777C96.3777 38.8526 95.9559 39.486 96.1668 40.1195L96.3777 40.3306C96.5885 40.3306 96.7994 40.3306 97.2212 40.3306C98.0648 40.1195 99.7519 40.3306 98.9084 41.1753C98.2757 41.8087 96.5886 41.8087 95.745 41.5976H95.5341C95.3232 41.5976 95.3232 41.8087 95.3232 41.8087C95.1123 42.0199 95.3232 42.231 95.5341 42.231C97.0103 42.6534 100.174 42.4422 100.174 40.9641C100.174 40.5418 99.7519 39.6972 98.9084 39.6972Z" fill="black"/>
<path d="M114.725 40.753C114.093 40.3306 112.616 40.3306 111.562 40.5418V40.3306C111.984 39.2749 111.984 38.4302 114.093 38.2191C114.093 38.2191 114.093 38.2191 114.093 38.0079C111.562 38.0079 110.507 39.486 110.086 40.9641C109.664 42.4422 111.14 43.0757 113.038 42.6534C114.725 42.6534 115.78 41.5976 114.725 40.753ZM113.46 42.231C113.038 42.231 112.616 42.4422 112.195 42.231C111.773 42.231 111.562 42.0199 111.562 41.5976C111.562 41.5976 111.562 41.5976 111.773 41.5976C112.195 41.1753 113.249 40.9641 114.093 41.1753C115.78 41.1753 113.46 42.0199 113.46 42.231Z" fill="black"/>
<path d="M129.699 39.275C129.277 39.275 128.855 39.275 128.433 39.275C128.433 39.0638 128.433 39.0638 128.644 38.8526C128.855 38.4303 129.277 37.5857 128.855 37.1634C128.433 36.7411 127.801 36.7411 127.168 36.7411C125.903 36.9522 124.848 37.1634 123.583 37.3746C123.372 37.3746 123.372 37.5857 123.583 37.7969C124.215 37.7969 125.059 38.008 125.692 37.7969C126.535 37.5857 127.801 37.3746 127.379 38.2192C127.168 38.6415 126.957 39.0638 126.746 39.4861C125.903 39.4861 125.27 39.6973 124.426 39.6973C124.215 39.6973 124.215 39.9084 124.426 39.9084C125.059 39.9084 125.903 39.9084 126.535 39.9084C126.324 40.5419 126.113 41.1753 126.535 41.8088C126.535 42.02 126.957 42.02 126.957 41.8088C127.379 41.1753 127.59 40.5419 127.801 39.6973C128.222 39.6973 128.855 39.6973 129.277 39.4861C130.12 39.4861 129.909 39.275 129.699 39.275Z" fill="black"/>
<path d="M139.189 37.7969C139.611 37.3746 140.876 36.7411 140.032 37.5857C139.611 38.008 139.189 38.4303 138.767 38.6415C138.767 38.4303 138.556 38.2192 138.556 38.008C138.556 37.7969 138.134 37.7969 138.134 38.008C137.924 38.4303 138.134 38.6415 138.345 39.0638C137.713 39.4861 136.447 40.3307 136.658 40.9642C137.08 41.8088 138.978 41.5977 139.822 40.9642C140.243 40.7531 140.243 40.5419 140.032 40.1196C140.032 39.9084 139.611 39.6973 139.4 39.4861C139.4 39.4861 139.4 39.275 139.189 39.275C139.822 38.6415 140.665 38.2192 141.087 37.5857C142.352 35.8965 137.713 36.1076 139.189 37.7969Z" fill="black"/>
<path d="M56.3081 53.2112C57.1517 53.2112 57.7843 53.2112 58.6279 53.2112C58.6279 53.2112 58.8388 53.2112 58.6279 53.2112C56.519 52.7888 53.3556 52.7888 53.9883 54.9004C54.1992 55.5339 55.2536 55.5339 55.8863 55.3227C56.3081 55.3227 56.7299 55.1116 56.9408 54.9004C56.7299 55.3227 56.519 55.745 56.0972 55.9562C55.6754 56.3785 55.2536 56.3785 54.6209 56.5896C54.4101 56.5896 52.7229 56.5896 53.7774 56.3785C53.9883 56.3785 53.9883 56.1673 53.7774 56.1673C51.4576 55.9562 51.8793 57.6454 53.9883 57.4343C56.9408 57.2231 57.7843 55.3227 57.7843 53.6335C57.7843 53.4223 57.1517 53.4223 57.1517 53.6335C56.9408 54.4781 56.3081 54.9004 55.0427 54.9004C54.8318 54.6892 54.8318 54.4781 54.6209 54.2669C54.8318 53.6335 55.4645 53.2112 56.3081 53.2112Z" fill="black"/>
<path d="M70.0163 51.3107C70.0163 51.0996 69.5945 51.0996 69.3836 51.3107C69.1727 52.3665 67.9073 53.8446 68.54 54.9004C68.54 55.1115 68.9618 55.1115 69.1727 54.9004C69.8054 53.8446 70.0163 52.3665 70.0163 51.3107Z" fill="black"/>
<path d="M74.8668 51.7331C73.6014 50.6773 72.3361 51.7331 71.9143 52.5777C71.2816 53.2112 70.8598 54.2669 71.2816 54.9004C71.9143 55.745 74.2341 55.3227 74.6559 54.4781C75.4994 53.6335 75.9212 52.5777 74.8668 51.7331ZM74.445 53.4223C74.2341 54.0558 72.1252 55.3227 72.3361 53.8446C72.3361 53.4223 72.5469 53 72.7578 52.7889C72.9687 52.5777 73.1796 52.3665 73.3905 52.1554C73.8123 51.9442 74.2341 52.1554 74.445 52.3665C74.6559 52.5777 74.445 53.2112 74.445 53.4223Z" fill="black"/>
<path d="M84.7787 50.2549H84.5678C83.9352 51.3107 83.3025 52.7888 83.9352 53.8445C84.1461 54.0557 84.3569 54.0557 84.5678 53.8445C85.2005 52.9999 85.2005 51.3107 84.7787 50.2549Z" fill="black"/>
<path d="M87.5203 50.8885C86.8876 51.9442 86.4658 53.2112 86.4658 54.2669C86.4658 54.4781 86.8876 54.4781 87.0985 54.4781C88.153 53.4223 87.7312 52.1554 88.153 51.0996C88.153 50.6773 87.7312 50.6773 87.5203 50.8885Z" fill="black"/>
<path d="M99.5411 49.6215C99.5411 49.6215 99.3302 49.6215 99.5411 49.6215C98.6975 50.6772 97.2213 52.5776 98.0649 53.6334C98.2758 53.8446 98.6975 53.8446 98.9084 53.6334C99.3302 52.9999 99.3302 52.1553 99.752 51.5219C99.752 50.8884 99.752 50.2549 99.5411 49.6215Z" fill="black"/>
<path d="M104.603 52.7888C103.97 53 100.596 53.4223 101.65 52.1554C102.283 51.3107 103.548 50.8884 103.97 50.0438C104.813 48.7769 103.548 48.3546 102.283 49.1992C102.283 49.1992 102.283 49.4103 102.283 49.1992C103.759 48.988 104.181 49.1992 103.548 49.8327C103.337 50.255 102.915 50.4661 102.494 50.6773C102.072 50.8884 101.439 51.3107 101.228 51.5219C100.596 52.1554 99.9629 52.5777 100.806 53.2111C101.439 53.8446 105.235 53.6335 105.235 52.5777C105.024 52.7888 104.813 52.7888 104.603 52.7888Z" fill="black"/>
<path d="M114.093 48.7769C113.46 49.8327 112.406 51.3108 112.827 52.3665C112.827 52.5777 113.46 52.5777 113.671 52.3665C114.304 51.0996 114.304 50.0438 114.514 48.7769C114.304 48.5657 114.093 48.5657 114.093 48.7769Z" fill="black"/>
<path d="M118.732 49.6214C118.521 49.4102 118.1 49.6214 117.678 49.6214C118.1 49.1991 118.521 48.7768 118.31 48.3544C118.1 47.721 117.045 47.9321 116.412 48.1433C116.202 48.1433 116.412 48.5656 116.623 48.3544L117.678 49.1991C117.256 49.4102 117.045 49.6214 116.623 49.8325C116.412 50.0437 116.202 50.2548 115.991 50.466C115.78 50.6771 115.991 51.0995 116.412 50.8883C117.256 50.466 117.889 50.466 118.521 51.3106C118.31 51.5218 118.1 51.5218 117.889 51.7329C117.045 52.1552 116.202 52.1552 115.147 52.1552C114.304 52.1552 114.304 53.211 115.147 52.9999C117.045 52.7887 118.943 52.1552 119.576 50.8883C119.787 50.2548 119.154 49.6214 118.732 49.6214Z" fill="black"/>
<path d="M128.012 47.7211C128.012 47.51 128.012 47.51 128.012 47.7211C127.379 48.7769 125.692 51.0996 126.957 52.1554C127.168 52.3665 127.379 52.1554 127.59 52.1554C128.223 51.7331 128.223 51.0996 128.223 50.4661C128.223 49.1992 128.644 48.5657 128.012 47.7211Z" fill="black"/>
<path d="M133.284 48.9881C133.495 48.7769 133.495 48.3546 133.495 48.1434C133.495 47.9323 133.073 47.7211 132.651 47.9323C132.019 48.1434 131.597 48.7769 131.175 49.4104C130.964 49.4104 130.542 49.4104 130.331 49.1992C130.12 48.7769 130.331 48.3546 130.12 47.9323C130.12 47.7211 129.699 47.7211 129.699 47.9323C129.488 48.9881 129.277 50.0438 130.964 50.0438C130.753 50.8885 130.964 51.7331 131.597 52.1554C131.808 52.1554 131.808 52.1554 132.019 52.1554C132.229 52.1554 132.229 52.1554 132.44 52.1554C132.862 52.1554 133.073 51.9442 133.073 51.7331C133.495 50.8885 133.073 50.0438 133.284 48.9881Z" fill="black"/>
<path d="M140.243 47.0875C139.4 47.721 139.189 48.5656 138.978 49.4102C138.767 49.8325 138.978 50.2549 138.978 50.6772C138.978 51.0995 138.767 51.5218 138.556 52.1553C138.556 52.3664 138.978 52.5776 139.189 52.1553C139.4 51.3106 139.611 50.8883 139.611 50.0437C139.611 49.6214 139.822 49.1991 139.822 48.7768C139.822 48.7768 140.454 46.8764 140.454 47.2987C140.243 47.2987 140.243 47.2987 140.243 47.0875Z" fill="black"/>
<path d="M144.883 47.0875C142.985 47.5098 141.72 47.9321 141.087 49.4102C140.665 50.466 141.509 51.3106 142.985 51.0995C143.618 51.0995 145.305 50.2549 144.25 49.8325C143.618 49.6214 141.72 49.1991 141.72 50.0437V49.8325C141.72 48.7768 143.196 47.0875 144.883 47.2987C145.305 47.2987 145.305 47.0875 144.883 47.0875Z" fill="black"/>
<path d="M55.6755 63.98C55.2537 64.6134 55.2537 65.4581 55.0428 66.0915C54.621 66.9362 54.1992 67.7808 54.621 68.6254C54.621 68.8366 55.0428 68.8366 55.2537 68.6254C55.6755 67.7808 55.4646 66.9362 55.6755 66.3027C55.8864 65.4581 55.4646 64.6134 55.6755 63.98C55.8864 63.98 55.6755 63.98 55.6755 63.98Z" fill="black"/>
<path d="M61.7914 65.6693C61.3696 65.6693 60.9478 65.8804 60.7369 65.8804C60.9478 65.0358 61.1587 64.4024 60.526 63.7689C59.6825 62.9243 57.9953 63.3466 56.73 63.7689C56.73 63.7689 56.73 63.7689 56.73 63.98C56.73 63.98 56.73 63.98 56.73 64.1912H56.9409C56.9409 63.98 57.1518 64.1912 57.3627 64.1912C57.5736 64.1912 57.9953 64.1912 58.2062 63.98C60.3152 63.5577 59.6825 64.8247 59.4716 65.4581C59.2607 65.6693 59.2607 65.8804 59.0498 66.3028C58.4171 66.3028 57.7844 66.5139 57.1518 66.5139V66.7251C57.7844 66.7251 58.4171 66.7251 59.0498 66.7251C58.8389 67.1474 58.8389 67.5697 59.2607 67.7808C59.4716 67.992 59.6825 67.992 59.8934 67.7808C60.1043 67.5697 60.526 66.9362 60.7369 66.5139C61.3696 66.5139 61.7914 66.3028 62.2132 66.0916C62.2132 65.8804 62.2132 65.6693 61.7914 65.6693Z" fill="black"/>
<path d="M72.1252 63.3465C72.1252 63.1353 71.9143 63.1353 71.7034 63.3465C71.4925 64.6134 70.4381 66.0915 71.0707 67.3584C71.2816 67.5696 71.4925 67.5696 71.7034 67.3584C72.547 66.0915 72.3361 64.4023 72.1252 63.3465Z" fill="black"/>
<path d="M76.9756 63.9799C77.6083 62.2907 75.4993 62.2907 74.4449 63.5576C74.234 63.7688 74.6558 63.7688 74.8667 63.7688C75.7102 62.9242 76.9756 63.5576 75.9211 64.1911C75.7102 64.4022 75.4993 64.4022 75.4993 64.6134C75.2884 64.4022 75.0775 64.1911 74.8667 63.9799C74.8667 63.7688 74.4449 63.7688 74.4449 63.9799C74.234 64.4022 74.4449 64.6134 74.8667 65.0357C74.6558 65.2469 74.234 65.458 74.0231 65.6692C73.3904 66.3026 73.1795 67.1473 74.234 67.5696C75.0775 67.7807 75.9211 67.3584 76.3429 66.9361C76.5538 66.725 76.5538 66.3026 76.3429 66.0915C76.132 65.8803 75.9211 65.6692 75.7102 65.458C75.7102 65.458 75.9211 65.458 75.9211 65.2469C76.3429 64.6134 76.7647 64.1911 76.9756 63.9799Z" fill="black"/>
<path d="M86.0441 62.0796C86.255 62.2908 85.8332 63.5577 85.6223 63.98C85.4114 64.8246 84.9897 65.6693 85.2005 66.3027C85.2005 66.5139 85.6223 66.5139 85.6223 66.3027C86.6768 65.4581 86.4659 64.4023 86.4659 63.3465C86.6768 62.9242 86.8877 61.8685 86.0441 62.0796Z" fill="black"/>
<path d="M91.5272 62.0796C91.5272 61.8685 91.3163 61.8685 91.5272 62.0796C91.3163 61.8685 91.3163 61.8685 91.5272 62.0796C89.8401 61.235 88.5747 61.8685 88.1529 62.9242C87.5202 63.98 89.4183 64.6135 90.4727 63.7689C90.6836 63.5577 90.4727 63.5577 90.2618 63.5577C88.5747 62.9242 88.9965 62.2908 91.3163 62.0796H91.1054C91.1054 63.1354 91.3163 64.6135 89.4183 65.247C88.7856 65.4581 88.1529 65.247 87.7311 65.4581C87.3093 65.4581 87.3093 66.0916 87.7311 66.0916C89.2074 66.0916 90.4727 65.8804 91.5272 65.0358C92.1599 64.1912 91.7381 62.7131 91.5272 62.0796Z" fill="black"/>
<path d="M102.072 64.4023C101.228 64.4023 98.9085 65.0358 99.5412 63.98C100.174 63.1354 100.807 62.7131 101.017 61.8684C101.228 61.0238 100.174 60.3904 99.1194 61.0238C99.1194 61.0238 99.1194 61.235 99.1194 61.0238C99.5412 61.235 99.963 61.4461 100.385 61.8684C100.385 62.2908 100.174 62.5019 99.7521 62.7131C99.3303 63.1354 98.9085 63.3465 98.4868 63.7688C98.2759 64.1912 97.6432 64.6135 98.065 64.8246C98.9085 65.6692 100.807 65.0358 101.861 64.6135C102.494 64.6135 102.283 64.4023 102.072 64.4023Z" fill="black"/>
<path d="M101.861 62.0796C101.861 62.2908 102.283 62.2908 102.283 62.2908C102.704 61.8684 103.337 61.6573 103.97 61.8684C104.602 61.8684 104.813 62.0796 105.235 62.5019C105.235 62.7131 105.235 62.9242 105.024 63.1354C103.337 63.1354 102.704 62.9242 103.337 62.0796C103.337 61.8684 103.126 61.8684 103.126 62.0796C102.494 62.9242 102.283 63.5577 103.548 64.1912C104.602 64.6135 105.657 63.5577 105.868 62.9242C106.079 61.235 102.072 60.3904 101.861 62.0796Z" fill="black"/>
<path d="M119.365 60.1793C118.943 60.8128 118.521 61.6574 118.311 62.502C117.467 62.7132 116.623 62.7132 115.569 62.9243C114.725 63.1355 114.304 63.1355 114.725 62.502C114.936 62.0797 115.358 61.8685 115.569 61.6574H115.78C115.991 61.4462 116.202 61.2351 116.412 61.0239C116.412 61.0239 116.412 61.0239 116.412 60.8128C116.623 60.3904 116.412 59.9681 115.78 59.757C114.936 59.3347 113.882 59.9681 113.671 60.6016C113.671 60.6016 113.671 60.8128 113.882 60.8128H114.093C114.304 60.8128 114.304 60.8128 114.304 60.6016C114.725 60.3904 115.147 60.3904 115.569 60.8128C115.569 61.0239 115.358 61.2351 115.358 61.2351C114.093 62.0797 111.984 63.3466 113.882 63.7689C114.936 63.9801 115.991 63.7689 117.045 63.5578C117.467 63.5578 117.889 63.3466 118.311 63.3466C118.311 63.5578 118.732 63.7689 119.154 63.5578C119.998 62.7132 119.576 61.4462 119.787 60.3904C119.998 60.1793 119.576 60.1793 119.365 60.1793Z" fill="black"/>
<path d="M130.964 62.2908C130.542 62.2908 130.12 62.2908 129.488 62.5019C129.066 62.5019 128.644 62.7131 128.222 62.7131C127.59 62.7131 128.433 62.5019 128.644 62.5019C129.699 61.6573 130.542 61.0239 130.753 59.9681C130.964 59.5458 130.542 58.49 129.488 58.49C128.011 58.7011 128.011 59.1235 128.011 59.9681C128.011 60.1792 128.644 60.1792 128.644 59.9681C128.433 59.5458 128.855 59.5458 129.488 59.7569C129.488 59.9681 129.277 60.1792 129.066 60.3904C128.644 60.8127 128.222 61.235 127.59 61.6573C127.168 62.0796 126.113 62.7131 126.535 63.1354C127.168 63.98 130.12 63.3466 130.753 62.9243C131.597 62.7131 131.597 62.2908 130.964 62.2908Z" fill="black"/>
<path d="M135.393 61.2351C135.182 61.2351 133.495 61.2351 133.495 61.0239C133.706 60.6016 134.338 60.1793 134.549 59.757C134.76 59.3347 134.971 58.49 134.338 58.2789C133.706 58.0677 132.229 58.2789 132.44 58.9124H132.651C133.073 58.9124 133.284 58.9124 133.706 58.9124C133.706 59.1235 133.706 59.1235 133.495 59.3347C133.284 59.757 132.651 60.1793 132.229 60.6016C132.019 60.8128 131.808 61.4462 132.019 61.6574C132.44 62.7132 134.338 62.2908 134.971 61.6574C135.604 61.4462 135.604 61.2351 135.393 61.2351Z" fill="black"/>
<path d="M144.039 61.235C143.618 61.235 142.141 61.4462 142.563 60.8127C142.774 60.3904 143.196 59.9681 143.407 59.5458C143.618 59.1235 143.828 58.49 143.407 58.0677C142.774 57.2231 140.876 57.4342 140.876 58.49C141.087 57.2231 142.774 58.0677 142.774 58.7011C142.774 59.1235 142.563 59.3346 142.352 59.7569C142.141 60.1792 141.298 60.6015 141.298 61.235C141.298 62.0796 142.985 62.0796 143.828 61.8685C144.461 61.6573 144.461 61.4462 144.039 61.235Z" fill="black"/>
<path d="M147.414 58.7011C147.625 58.49 147.835 58.0677 147.625 57.6454C147.414 57.0119 146.359 57.0119 145.937 57.4342C145.727 57.4342 145.937 57.6454 146.148 57.6454C147.203 58.2788 147.203 58.9123 146.148 59.1235C145.727 59.3346 146.148 59.7569 146.57 59.5458C147.414 59.3346 148.257 60.1792 147.203 60.3904C146.781 60.3904 146.57 60.6015 146.148 60.8127C145.727 61.235 146.148 61.8685 146.992 61.6573C147.835 61.4462 149.734 60.6015 149.523 59.7569C148.89 58.9123 148.046 58.7011 147.414 58.7011Z" fill="black"/>
<path d="M60.9478 79.3944C60.7369 79.3944 58.628 79.6056 58.8389 79.1833C59.0498 78.761 59.6824 78.5498 59.8933 78.1275C60.7369 77.2829 61.1587 76.6494 60.9478 75.8048C60.7369 74.9602 58.628 75.1713 58.628 76.0159H58.8389C58.8389 76.0159 59.0498 76.0159 58.8389 76.0159C59.0498 75.5936 59.4716 75.3825 60.1042 75.8048C60.1042 76.2271 60.1042 76.6494 59.6824 76.8606C59.4716 77.2829 58.8389 77.7052 58.4171 77.9163C57.9953 78.1275 57.1517 78.761 57.3626 79.1833C57.7844 80.239 60.3151 80.239 60.9478 79.3944C61.5805 79.3944 61.1587 79.3944 60.9478 79.3944Z" fill="black"/>
<path d="M64.9548 76.4382C64.9548 76.4382 64.7439 76.4382 64.9548 76.4382C64.7439 76.4382 64.7439 76.2271 64.9548 76.4382C64.9548 76.2271 64.9548 76.2271 64.7439 76.2271C64.7439 76.2271 64.7439 76.2271 64.533 76.2271C64.3221 76.2271 64.1112 76.2271 64.1112 76.2271C63.9003 76.4382 63.4785 77.0717 63.0567 77.9163C62.6349 77.9163 62.6349 76.6494 62.6349 76.4382C62.6349 76.4382 62.6349 76.4382 62.424 76.4382C61.7914 76.8605 61.1587 78.3386 62.2131 78.5498C62.424 78.5498 62.6349 78.5498 62.6349 78.5498C62.424 79.3944 62.6349 80.239 63.9003 80.239C64.9548 80.239 64.533 78.9721 64.533 78.5498C64.533 78.1275 64.533 77.7051 64.533 77.0717C64.9548 76.8605 64.9548 76.6494 64.9548 76.4382Z" fill="black"/>
<path d="M81.6152 74.1154C82.037 73.9043 82.037 73.6931 81.6152 73.6931C80.3498 73.4819 78.03 73.6931 77.1864 74.5377C77.1864 74.5377 77.1864 74.7489 77.3973 74.7489C77.3973 74.7489 77.8191 74.7489 78.03 74.7489C77.6082 75.1712 77.8191 76.227 78.6627 76.227C78.8736 76.227 79.928 76.227 79.928 76.4381C80.1389 77.2827 78.8736 77.4939 78.2409 77.7051C77.8191 77.9162 77.8191 77.9162 77.8191 77.9162C77.6082 77.9162 77.6082 77.9162 77.3973 77.9162C77.1864 77.9162 77.1864 78.1274 77.1864 78.1274C76.9755 78.1274 76.7646 78.1274 76.5538 78.1274C75.0775 78.3385 76.5538 77.2827 76.7647 77.2827C77.3973 76.6493 77.6082 76.0158 77.1864 75.3823C76.3429 74.3266 74.0231 73.9043 74.2339 75.5935C74.2339 75.8047 74.6557 75.8047 74.6557 75.5935C75.0775 75.3823 75.4993 75.3823 76.132 75.1712C76.5538 75.5935 76.5538 76.227 76.132 76.6493C75.9211 76.8604 75.4993 77.0716 75.2884 77.2827C74.8666 77.4939 74.4448 77.9162 74.6557 78.3385C75.0775 79.1831 76.9755 78.7608 77.8191 78.5497C79.5063 78.5497 81.1934 77.7051 81.6152 76.6493C81.6152 76.227 81.6152 75.8047 81.1934 75.5935C80.5607 75.1712 78.4518 75.5935 79.0845 74.7489V74.5377C79.2954 74.5377 79.2954 74.5377 79.5063 74.5377C79.928 74.3266 80.7716 74.3266 81.6152 74.1154Z" fill="black"/>
<path d="M88.9965 76.8605C89.6292 76.4382 90.6837 75.8047 91.1054 75.5936C91.949 74.9601 92.3708 74.1155 91.5272 73.482C90.4728 72.4262 87.942 73.0597 88.1529 74.3266H88.3638C88.3638 73.482 90.051 73.0597 90.8945 73.6932C91.7381 74.3266 90.051 75.1713 89.4183 75.5936C88.7856 76.0159 87.5203 76.4382 87.5203 77.0717C87.5203 77.2828 87.7312 77.494 87.9421 77.494C88.9965 77.494 90.051 77.494 91.1054 77.0717C91.3163 77.0717 91.3163 76.8605 91.1054 76.8605C90.2619 76.6494 89.6292 76.8605 88.9965 76.8605Z" fill="black"/>
<path d="M95.3234 74.749C95.1125 74.5379 94.4798 74.5379 94.058 74.749V74.5379C94.2689 73.9044 94.2689 73.2709 95.3234 73.0598C95.5343 73.0598 95.5343 72.8486 95.3234 72.8486C93.8471 72.8486 93.0035 73.9044 93.0035 74.9602C92.5818 75.1713 92.3709 75.3825 92.5818 75.8048C92.5818 75.8048 92.7926 76.016 93.0035 76.016C93.0035 76.016 93.0035 76.016 93.2144 76.016C93.4253 76.6494 94.2689 77.0717 95.3234 76.6494C96.1669 76.016 96.7996 75.1713 95.3234 74.749Z" fill="black"/>
<path d="M104.603 76.2271C104.181 76.2271 102.705 76.016 102.494 76.4383C102.705 76.016 103.126 75.8048 103.548 75.3825C104.181 74.749 105.024 73.6933 104.603 73.0598C104.392 72.4263 103.97 72.004 102.915 71.7929C102.283 71.5817 101.65 72.004 101.65 72.4263C101.65 72.6375 101.861 72.6375 101.861 72.4263C102.915 72.004 103.548 72.2152 103.759 73.0598C103.759 73.4821 103.548 73.9044 103.337 74.3267C103.126 74.749 102.705 74.9602 102.283 75.1713C101.861 75.3825 101.228 76.016 101.228 76.4383C101.228 77.4941 104.181 77.0717 105.024 76.6494C105.024 76.4383 105.024 76.016 104.603 76.2271Z" fill="black"/>
<path d="M110.508 74.3267C110.297 74.3267 110.086 74.3267 109.875 74.3267C109.875 73.9044 109.875 73.6932 109.875 73.482C109.664 73.0597 109.453 72.6374 109.031 72.2151C108.188 71.7928 107.344 72.2151 106.501 72.4263C106.29 72.4263 106.29 72.6374 106.501 72.6374C109.031 72.4263 109.031 73.482 108.61 74.5378C107.766 74.5378 106.922 74.5378 106.29 74.749C105.868 74.749 105.868 75.3824 106.29 75.3824C106.922 75.3824 107.766 75.3824 108.399 75.3824C108.188 76.0159 107.766 76.6494 107.977 77.0717C107.977 77.2828 108.399 77.2828 108.61 77.2828C109.453 76.8605 109.875 76.2271 110.086 75.3824C110.508 75.3824 110.718 75.1713 111.14 75.1713C110.718 74.749 110.718 74.3267 110.508 74.3267Z" fill="black"/>
<path d="M119.787 74.5378C119.154 74.3266 119.154 74.3266 118.521 74.3266C117.467 74.3266 118.31 73.6932 118.732 73.482C119.365 73.0597 119.787 72.6374 119.787 72.0039C119.998 71.1593 118.732 70.9481 117.889 71.3705C118.1 71.7928 118.31 72.2151 118.521 72.6374C118.31 72.8486 118.1 73.0597 117.889 73.0597C117.678 73.2709 117.467 73.482 117.256 73.6932C117.045 73.9043 116.623 74.3266 116.623 74.5378C116.623 75.5936 118.732 75.3824 119.576 74.9601C120.208 74.9601 120.208 74.7489 119.787 74.5378Z" fill="black"/>
<path d="M125.059 70.1035C124.005 69.6812 122.739 70.3147 122.107 70.9482C122.107 70.9482 122.107 70.9482 122.107 71.1593C121.896 71.1593 121.685 71.1593 121.685 71.3705C121.474 71.7928 121.685 71.7928 121.896 72.2151C121.896 72.2151 122.107 72.4262 122.317 72.4262C121.896 72.6374 121.474 73.0597 121.052 73.2709C120.419 73.6932 120.419 74.5378 121.685 74.749C122.317 74.9601 124.005 74.5378 124.215 73.9043C124.426 73.482 124.215 73.0597 123.794 72.6374C123.794 72.6374 123.794 72.6374 123.583 72.4262C124.005 72.2151 124.637 71.7928 125.059 71.3705C125.481 71.1593 126.113 70.5258 125.059 70.1035Z" fill="black"/>
<path d="M134.127 72.6374C134.76 72.2151 135.182 71.5816 135.393 70.9481C135.815 69.6812 133.284 70.1035 132.44 70.5258C132.44 70.5258 132.44 70.737 132.44 70.5258C132.862 70.3147 133.284 70.1035 133.916 70.1035C134.549 70.5258 134.76 70.9481 134.338 71.3704C134.127 71.5816 133.706 72.0039 133.284 72.2151C132.651 72.6374 132.018 73.0597 131.808 73.482C131.597 73.9043 131.808 74.1155 132.229 74.3266C133.284 74.7489 134.338 74.5378 135.182 73.9043C135.393 73.6931 135.182 73.482 134.76 73.482C134.338 73.482 132.229 73.9043 133.073 73.0597C133.284 73.0597 133.706 72.8485 134.127 72.6374Z" fill="black"/>
<path d="M138.978 70.737C139.189 70.3147 139.189 70.3147 138.978 70.1035C138.978 70.1035 138.978 69.8924 138.767 69.8924C137.924 69.8924 137.291 69.6812 136.869 70.1035C136.447 70.5259 136.026 70.9482 136.026 71.3705C135.815 72.4263 136.869 72.4263 138.134 72.2151C138.345 72.2151 138.345 72.0039 138.134 72.0039C136.236 71.7928 137.291 70.3147 138.767 70.1035C138.556 70.5259 138.556 70.9482 138.556 71.1593C138.556 72.0039 138.345 72.8486 137.291 73.2709C136.658 73.482 136.236 73.482 135.604 73.6932C135.393 73.9044 135.393 74.1155 135.604 74.1155C136.658 74.5378 138.134 73.9044 138.767 73.2709C139.189 72.8486 139.4 72.2151 139.4 71.7928C139.189 71.5816 138.978 71.1593 138.978 70.737Z" fill="black"/>
<path d="M147.625 70.7371C147.625 70.5259 147.835 70.5259 147.835 70.3147C148.046 70.1036 148.046 69.8924 148.046 69.6813C148.046 69.259 147.625 69.0478 146.992 68.8367C145.937 68.6255 144.883 69.4701 145.094 70.1036C145.094 70.3148 145.727 70.3148 145.727 70.1036C146.148 69.6813 146.359 69.4701 146.781 69.8924C146.781 70.1036 146.359 70.5259 146.359 70.7371C146.148 70.9482 146.148 71.1594 146.359 71.3705C146.57 71.5817 146.781 71.7928 147.203 71.7928C148.046 71.7928 147.835 72.004 146.781 72.8486C146.359 72.8486 146.148 72.8486 145.727 72.8486C145.516 72.8486 145.305 72.8486 145.094 72.6375C144.25 72.6375 144.039 73.4821 144.672 73.6932C145.937 74.1156 148.257 73.6932 149.101 72.8486C149.523 71.7928 148.89 70.7371 147.625 70.7371Z" fill="black"/>
<path d="M150.999 68.4143C149.523 67.992 148.679 69.2589 148.89 70.1036C148.89 70.3147 149.101 70.3147 149.523 70.3147C149.523 70.3147 149.523 70.3147 149.734 70.3147C149.523 71.1593 149.734 72.4263 151.21 72.4263C152.686 72.6374 153.108 71.5817 153.108 70.737C152.897 69.6813 152.475 68.8366 150.999 68.4143ZM151.632 71.5817C150.366 71.5817 149.944 71.3705 149.944 70.5259C149.944 70.3147 149.944 70.1036 149.944 69.8924C150.577 69.2589 151.421 69.2589 151.842 70.1036C152.053 70.5259 151.842 71.1593 151.632 71.5817Z" fill="black"/>
<path d="M63.6895 89.1076C63.2677 88.6853 62.635 88.4741 62.0023 88.6853C62.4241 88.0518 62.8459 87.2072 62.0023 86.996C60.9479 86.5737 60.3152 87.6295 60.3152 88.263H60.5261C60.737 86.996 61.7914 88.0518 61.3696 88.4741C61.1587 88.6853 60.9479 88.8964 60.737 89.3187C60.5261 89.5299 60.9479 89.9522 61.3696 89.7411C63.0568 89.3187 63.4786 90.1634 62.4241 91.008C62.0023 91.4303 60.9479 91.6415 60.1043 91.4303C60.1043 91.2191 60.1043 91.2191 59.8934 91.008C59.4716 90.7968 59.0498 90.7968 58.628 91.008C57.9954 91.008 57.7845 91.6415 58.2063 91.8526C59.6825 93.3307 62.635 92.4861 63.6895 91.2191C64.1112 90.3745 64.3221 89.5299 63.6895 89.1076Z" fill="black"/>
<path d="M66.6418 88.6853C66.6418 88.4741 66.0091 86.996 66.22 86.7849C66.22 86.7849 66.22 86.5737 66.0091 86.5737C65.3764 86.7849 65.3764 87.6295 65.3764 88.0518C65.3764 89.3188 64.7438 90.5857 65.5873 91.6415C65.7982 91.8526 66.22 91.8526 66.22 91.6415C66.8527 90.5857 66.8527 89.7411 66.6418 88.6853Z" fill="black"/>
<path d="M92.3707 50.0437C92.1599 48.988 92.3707 47.9322 91.3163 47.0876C90.8945 46.6652 89.84 46.8764 89.4183 46.8764C87.7311 47.0876 86.044 46.8764 84.3568 47.0876C83.0915 47.0876 80.3499 46.8764 79.5063 47.5099C79.0845 47.5099 78.6628 47.721 78.8736 48.1433C78.6628 50.0437 78.6628 51.9441 78.6628 54.0557C78.6628 54.6891 78.0301 57.223 79.9281 57.223C80.5608 57.223 80.9826 57.223 81.6152 57.223C81.8261 57.4342 82.037 57.4342 82.2479 57.4342C83.9351 57.4342 85.6222 57.223 87.5202 57.223C89.2074 57.0119 90.8945 57.223 92.5816 56.8007C93.2143 56.5895 93.2143 56.3784 93.2143 55.9561L93.4252 55.7449C93.4252 53.8445 92.7925 51.733 92.3707 50.0437ZM80.7717 52.3664C80.7717 51.0995 80.5608 50.0437 80.3499 48.7768C81.1935 48.988 82.4588 48.7768 83.3024 48.7768C85.4113 48.5656 87.3093 48.5656 89.4183 48.5656C90.0509 50.466 89.6291 52.7887 89.84 54.6891C89.84 54.9003 89.84 55.1115 89.84 55.3226C89.2074 55.3226 88.7856 55.5338 88.1529 55.5338C86.044 55.7449 83.7242 55.7449 81.6152 55.7449C80.5608 55.7449 80.9826 56.5895 80.7717 55.5338C80.9826 54.2668 80.7717 53.4222 80.7717 52.3664Z" fill="black"/>
<path d="M84.5679 14.1473C84.1461 14.3585 83.9352 14.3585 83.5134 14.3585C83.9352 14.5696 84.357 14.3585 84.5679 14.1473Z" fill="black"/>
<path d="M87.3093 14.7809C86.4657 15.2032 84.5677 15.6255 84.5677 14.3586C84.5677 14.1474 84.5677 14.1474 84.5677 13.9362C84.7786 13.7251 85.2004 13.5139 85.2004 12.8805V12.6693C84.7786 12.6693 84.5677 13.0916 84.3568 13.9362V14.1474C84.1459 15.4143 84.7786 16.8924 87.3093 15.2032C87.7311 14.992 87.5202 14.7809 87.3093 14.7809Z" fill="black"/>
<path d="M82.248 13.5139C81.6153 14.1474 81.8262 13.7251 81.4044 14.3585C80.3499 16.0478 78.241 16.2589 76.5539 15.8366C76.7648 15.2032 76.9757 14.5697 77.1865 13.7251C77.1865 13.0916 77.3974 12.4581 77.3974 11.8247C77.6083 10.5577 78.8737 11.1912 78.6628 12.247C78.6628 12.247 78.8737 12.4581 78.8737 12.247C79.0846 11.4024 80.139 10.1354 79.5064 9.07966C79.2955 8.8685 78.241 8.65735 78.0301 8.65735C75.9212 10.3466 77.1865 13.3028 76.1321 15.4143C75.2885 15.2032 74.445 15.2032 73.6014 15.4143C72.9687 16.0478 71.7033 16.8924 72.7578 17.737C73.8123 18.5817 75.9212 17.737 76.5539 16.4701C77.1865 16.6813 77.8192 16.6813 78.4519 16.6813C79.9281 16.8924 80.7717 16.0478 81.6153 14.992C82.248 14.3585 82.8806 14.3585 83.7242 14.3585C83.3024 14.3585 82.8806 13.9362 82.248 13.5139C82.4589 13.5139 82.4589 13.5139 82.248 13.5139ZM74.2341 17.3147C74.2341 16.8924 74.2341 16.4701 74.2341 16.0478C74.6558 16.0478 75.0776 16.0478 75.2885 16.0478C75.4994 16.0478 75.4994 16.0478 75.7103 16.0478C75.4994 16.6813 74.8667 17.1036 74.2341 17.3147Z" fill="black"/>
<path d="M103.759 14.1474C101.439 14.1474 99.1193 14.7808 97.0104 14.992C97.0104 14.7808 97.2212 14.5697 97.0104 14.3585C97.0104 13.3028 95.5341 14.3585 95.5341 15.2032V15.4143C95.1123 15.4143 94.6905 15.4143 94.2688 15.4143C93.0034 15.4143 92.7925 14.3585 91.9489 14.3585C90.8945 14.3585 88.9964 16.0478 88.5747 13.5139H88.3638C88.3638 16.6812 90.8945 14.3585 92.5816 15.4143C93.4252 15.8366 95.1123 16.2589 96.1668 15.8366C98.0648 16.0478 103.126 14.7808 103.548 14.5697C103.97 14.3585 103.97 14.1474 103.759 14.1474Z" fill="black"/>
<path d="M8.85724 97.7648C8.64635 97.7648 8.22456 97.7648 8.01367 97.7648C8.22456 97.9759 8.43546 97.7648 8.85724 97.7648Z" fill="black"/>
<path d="M11.8099 97.3425C11.1772 97.3425 10.7554 97.5537 10.1227 97.5537C9.70095 97.5537 9.27916 97.7648 8.64648 97.976C8.85738 97.976 9.27916 97.976 9.49005 97.976C10.3336 97.5537 10.9663 97.5537 11.8099 97.3425C12.0208 97.3425 11.8099 97.3425 11.8099 97.3425Z" fill="black"/>
<path d="M7.38107 97.9759C7.59196 97.9759 7.80285 97.9759 8.01375 97.7648C7.80285 97.7648 7.59196 97.7648 7.38107 97.9759C7.17018 97.7648 7.17018 97.9759 7.38107 97.9759Z" fill="black"/>
<path d="M25.0961 102.833C23.8307 102.199 22.9872 100.932 21.7218 100.51C22.7763 101.143 23.6198 101.988 24.4634 102.621C23.8307 102.621 23.4089 102.833 22.7763 103.044C22.5654 103.044 22.3545 103.044 22.3545 103.044C22.1436 103.044 22.1436 103.044 22.3545 103.255C21.5109 103.466 20.6673 103.888 20.0347 104.311C20.0347 104.311 20.0347 104.522 20.0347 104.311C21.7218 103.677 23.4089 103.466 24.8852 103.044C24.8852 102.833 25.0961 102.833 25.0961 102.833C25.0961 102.833 25.307 102.833 25.0961 102.833Z" fill="black"/>
<path d="M4.85045 97.976C4.63956 97.7649 4.42867 97.7649 4.21777 97.5537C4.42867 97.7649 4.63956 97.976 4.85045 97.976Z" fill="black"/>
<path d="M3.79611 97.5538C4.007 97.5538 4.21789 97.5538 4.21789 97.5538C4.007 97.5538 4.007 97.5538 3.79611 97.5538C3.58522 97.3426 3.58522 97.7649 3.79611 97.5538Z" fill="black"/>
<path d="M13.2862 101.355C11.5991 100.721 9.91196 99.8765 8.43572 99.243C7.38126 98.8207 6.3268 98.3984 5.27233 98.1872C5.27233 98.1872 5.06144 98.1872 5.06144 97.9761C5.06144 97.9761 5.27233 97.9761 5.27233 98.1872C5.06144 98.1872 5.06144 98.1872 4.85055 98.1872C3.79609 98.1872 2.53073 98.1872 1.26538 98.3984C2.31984 98.1872 3.5852 98.3984 4.85055 98.1872C5.06144 98.1872 5.27233 98.1872 5.48323 98.3984C5.69412 98.6095 5.90501 98.8207 6.1159 98.8207C6.74858 99.243 7.38126 99.6653 8.22483 99.6653C8.43572 99.6653 8.43572 99.4542 8.22483 99.4542C7.38126 99.0318 6.53769 98.8207 5.69412 98.3984C6.95947 98.8207 8.43572 99.4542 9.49018 99.8765C10.5446 100.51 11.81 100.932 13.2862 101.355C13.2862 101.566 13.2862 101.355 13.2862 101.355Z" fill="black"/>
<path d="M9.27905 96.9203C9.48995 96.7092 9.91173 96.498 10.1226 96.2869C9.91173 96.498 9.48995 96.7092 9.27905 96.9203Z" fill="black"/>
<path d="M12.8643 96.0756C12.4425 96.0756 12.0208 96.0756 11.3881 96.2868C10.9663 96.2868 10.7554 96.2868 10.3336 96.2868C10.7554 96.0756 11.1772 95.8645 11.3881 95.6533C9.70094 95.6533 7.80291 95.6533 6.11578 95.6533C7.80291 95.6533 9.49005 95.8645 11.1772 95.6533C10.9663 95.8645 10.7554 96.0756 10.3336 96.2868C7.80291 96.2868 5.4831 96.4979 2.95239 96.4979C5.4831 96.4979 8.01381 96.4979 10.3336 96.4979C10.3336 96.4979 10.3336 96.7091 10.5445 96.7091C10.7554 96.7091 10.7554 96.4979 10.9663 96.4979C11.1772 96.4979 11.3881 96.4979 11.3881 96.4979C11.3881 96.4979 11.3881 96.4979 11.3881 96.2868C12.0208 96.2868 12.4425 96.2868 12.8643 96.0756C12.8643 96.2868 12.8643 96.0756 12.8643 96.0756Z" fill="black"/>
<path d="M24.8852 103.466C24.0416 103.044 23.4089 102.833 22.5654 102.41C22.3545 102.41 22.3545 102.41 22.1436 102.199C22.3545 102.199 22.3545 102.199 22.5654 102.199C22.7763 102.199 22.7763 101.988 22.5654 101.988C22.3545 101.988 22.1436 101.988 21.9327 102.199C21.7218 102.199 21.5109 101.988 21.3 101.988C21.7218 101.777 22.1436 101.566 22.7763 101.566C22.9872 101.566 22.7763 101.355 22.7763 101.355C22.1436 101.355 21.5109 101.566 20.8782 101.777C20.6673 101.566 20.4565 101.566 20.2456 101.355C20.8782 101.355 21.5109 101.143 21.9327 101.143C22.1436 101.143 22.1436 100.932 21.9327 100.932H21.7218C20.8782 100.51 20.0347 100.088 19.1911 99.6654C19.402 99.6654 19.402 99.6654 19.6129 99.6654C19.8238 99.6654 19.8238 99.4542 19.6129 99.4542C18.9802 99.243 18.7693 99.243 18.5584 99.243C18.1366 99.0319 17.7149 98.8207 17.2931 98.8207C17.504 98.8207 17.9258 98.8207 18.1366 98.6096C18.7693 98.8207 19.402 99.0319 20.0347 99.243C20.4565 99.4542 20.6673 99.6654 21.0891 99.8765C21.0891 99.8765 21.3 99.8765 21.0891 99.6654C20.8782 99.4542 20.6673 99.4542 20.4565 99.243C20.6673 99.243 20.6673 99.0319 20.4565 99.0319C19.6129 98.8207 18.7693 98.3984 17.9258 97.9761C17.504 97.765 17.0822 97.5538 16.6604 97.3426C15.8168 96.9203 15.1842 96.7092 14.3406 96.2869C14.3406 96.2869 14.1297 96.2869 14.3406 96.2869C15.395 96.9203 16.4495 97.5538 17.7149 98.1873C17.2931 98.1873 17.0822 98.1873 16.6604 98.3984C16.2386 98.1873 15.6059 97.9761 15.1842 97.9761C15.395 97.9761 15.395 97.9761 15.6059 97.765C15.8168 97.765 15.6059 97.5538 15.6059 97.5538C15.395 97.5538 14.9733 97.765 14.7624 97.765C14.5515 97.5538 14.1297 97.5538 13.9188 97.3426C13.9188 97.3426 13.7079 97.3426 13.9188 97.5538C14.1297 97.5538 14.3406 97.765 14.5515 97.765C14.1297 97.9761 13.497 98.1873 13.0752 98.1873C12.0208 97.765 11.1772 97.3426 10.1227 96.9203C10.9663 97.3426 11.8099 97.765 12.6534 98.1873C12.2317 98.3984 12.0208 98.3984 11.599 98.3984C10.3336 97.9761 8.85738 97.3426 7.59203 96.9203C8.22471 96.9203 9.06828 96.7092 9.70095 96.7092C9.91185 96.7092 9.91185 96.498 9.70095 96.498C9.49006 96.498 9.06828 96.498 8.85738 96.498C9.06828 96.498 9.06828 96.2869 9.27917 96.2869C9.06828 96.9203 8.85738 97.1315 8.64649 97.1315C7.59203 97.3426 6.53757 97.5538 5.27222 97.5538C5.27222 97.5538 5.27222 97.5538 5.48311 97.5538C6.95935 98.3984 8.22471 99.0319 9.70095 99.6654C9.91185 99.6654 10.1227 99.4542 9.91185 99.4542C8.64649 98.6096 7.17025 98.1873 5.694 97.5538C6.32668 97.5538 6.95935 97.5538 7.59203 97.5538V97.765C8.64649 97.765 10.1227 98.6096 11.1772 99.243C10.7554 99.243 10.3336 99.4542 9.91185 99.6654C10.5445 99.4542 10.9663 99.243 11.3881 99.243C11.599 99.4542 11.8099 99.4542 12.0208 99.6654C12.2317 99.8765 12.6534 99.8765 13.0752 100.088C12.8643 100.088 12.8643 100.088 12.6534 100.299C12.6534 100.299 12.6534 100.51 12.6534 100.299C12.8643 100.299 13.0752 100.299 13.2861 100.088C14.1297 100.51 15.1842 100.721 16.0277 100.932C16.2386 100.932 16.4495 101.143 16.4495 101.143H16.2386H16.4495C17.2931 101.566 18.1366 101.777 18.9802 101.988C18.3475 102.199 17.7149 102.41 17.0822 102.622C15.8168 101.777 14.3406 101.355 12.6534 100.51C14.1297 101.355 15.395 101.988 17.0822 102.622C16.6604 102.833 16.0277 103.044 15.6059 103.044C16.2386 103.044 16.8713 102.833 17.504 102.622C18.1366 102.833 18.7693 103.044 19.6129 103.255C19.8238 103.255 19.8238 103.044 19.6129 103.044C19.1911 102.833 18.5584 102.622 18.1366 102.41C18.5584 102.199 18.9802 102.199 19.402 101.988C19.6129 101.988 20.0347 101.777 20.2456 101.777C20.2456 101.777 20.2456 101.777 20.4565 101.777C20.6673 101.777 20.8782 101.777 21.0891 101.566C21.3 101.566 21.5109 101.777 21.5109 101.777C21.3 101.777 21.3 101.988 21.5109 101.988C21.7218 101.988 21.7218 101.988 21.9327 101.988C22.9872 102.622 23.8307 103.255 24.8852 103.466C25.0961 103.677 25.0961 103.466 24.8852 103.466ZM13.497 98.6096C13.9188 98.3984 14.5515 98.3984 14.9733 98.1873C15.395 98.3984 15.8168 98.6096 16.2386 98.8207C16.0277 98.8207 15.8168 99.0319 15.6059 99.0319C15.395 99.0319 15.1842 99.243 14.7624 99.243C14.3406 99.0319 13.9188 98.8207 13.497 98.6096ZM16.4495 99.8765C16.2386 99.8765 16.2386 99.8765 16.0277 99.6654C15.6059 99.4542 15.1842 99.243 14.9733 99.243C15.395 99.0319 16.0277 99.0319 16.6604 98.8207C17.0822 99.0319 17.504 99.243 17.9258 99.4542C17.504 99.6654 17.0822 99.6654 16.4495 99.8765ZM16.6604 99.8765C17.0822 99.6654 17.7149 99.6654 18.1366 99.4542C18.5584 99.6654 18.9802 99.8765 19.402 100.088C18.9802 100.088 18.3475 100.299 17.9258 100.299C17.504 100.299 17.0822 100.088 16.6604 99.8765ZM18.9802 100.721C19.1911 100.932 19.6129 100.932 19.8238 101.143C19.6129 101.143 19.6129 101.143 19.402 101.143C18.9802 100.932 18.5584 100.721 18.1366 100.51C18.7693 100.299 19.1911 100.299 19.8238 100.299C20.2456 100.51 20.6673 100.721 21.0891 100.932C20.6673 100.932 20.2456 101.143 19.8238 101.143C19.6129 100.932 19.1911 100.721 18.9802 100.721C18.9802 100.299 18.7693 100.51 18.9802 100.721Z" fill="black"/>
<path d="M5.06128 98.3983C5.06128 98.3983 5.06128 98.6095 5.06128 98.3983C5.27217 98.6095 5.27217 98.3983 5.06128 98.3983Z" fill="black"/>
<path d="M21.722 95.8645C20.8785 95.231 20.2458 94.5975 19.4022 93.9641H19.6131C20.2458 93.9641 20.8785 93.7529 21.5111 93.7529V93.5417C20.8785 93.7529 20.2458 93.9641 19.4022 93.9641C19.1913 93.7529 19.1913 93.7529 18.9804 93.5417L19.1913 93.7529C19.1913 93.7529 19.1913 93.7529 18.9804 93.7529H18.7695C18.9804 93.7529 19.1913 93.7529 19.1913 93.7529C19.824 94.3864 20.4567 95.0198 21.0893 95.6533C21.9329 96.4979 22.7765 97.1314 23.6201 97.976C23.6201 97.976 23.8309 97.976 23.8309 97.7649C23.4092 97.1314 22.5656 96.4979 21.722 95.8645Z" fill="black"/>
<path d="M18.5585 94.8088C18.3476 94.5976 18.3476 94.5976 18.1367 94.3865C18.3476 94.5976 18.5585 94.8088 18.5585 94.8088C19.1912 95.2311 19.613 96.0757 20.0347 96.7092C20.0347 96.7092 20.2456 96.7092 20.0347 96.7092C19.613 96.0757 19.1912 95.4423 18.5585 94.8088Z" fill="black"/>
<path d="M17.2932 93.7529C17.5041 93.7529 17.5041 93.7529 17.715 93.9641C17.5041 93.7529 17.2932 93.7529 17.2932 93.7529C17.0823 93.5418 17.0823 93.7529 17.2932 93.7529Z" fill="black"/>
<path d="M17.9259 94.1752C17.9259 93.9641 18.1368 93.9641 18.1368 93.9641C18.1368 93.9641 18.1368 93.9641 17.9259 94.1752C17.715 93.9641 17.5042 93.9641 17.5042 93.7529C17.715 93.9641 17.715 93.9641 17.9259 94.1752C17.715 94.1752 17.9259 94.3864 17.9259 94.1752C18.1368 94.3864 18.1368 94.3864 17.9259 94.1752C18.1368 94.3864 18.1368 94.3864 17.9259 94.1752Z" fill="black"/>
<path d="M18.9803 93.7529C18.7694 93.7529 18.3477 93.7529 18.3477 93.9641C18.5585 93.9641 18.7694 93.9641 18.9803 93.7529Z" fill="black"/>
<path d="M22.7763 94.3864C22.3545 94.5975 21.7218 94.5975 21.0891 94.8087C21.7218 94.8087 22.3545 94.8087 22.7763 94.3864C22.9871 94.5975 22.9871 94.3864 22.7763 94.3864Z" fill="black"/>
<path d="M19.4021 95.0198C19.613 95.0198 19.8239 95.0198 20.0347 94.8086C19.8239 94.8086 19.613 94.8086 19.4021 95.0198C19.1912 94.8086 19.1912 95.0198 19.4021 95.0198Z" fill="black"/>
<path d="M16.2387 5.91223C16.2387 5.91223 16.0279 5.91223 16.2387 5.91223C17.5041 8.02379 15.817 16.6812 15.6061 19.0039C14.7625 26.3943 13.4972 34.2071 11.5991 41.1752C13.708 33.9959 14.9734 26.3943 15.817 19.0039C16.4496 15.2031 17.5041 9.92418 16.2387 5.91223Z" fill="black"/>
<path d="M21.0892 45.8207C19.6129 50.0438 17.7149 54.2669 16.2386 58.2789C15.606 54.4781 14.7624 50.8884 13.497 47.2988C13.9188 44.5538 14.3406 42.0199 14.5515 39.2749C15.606 42.8645 16.6604 46.243 17.504 49.8326H17.7149C17.2931 45.8207 16.0277 42.2311 14.7624 38.4303C14.9733 36.3187 15.3951 34.2072 15.606 32.0956C16.6604 36.1075 17.7149 40.5418 18.9802 44.5538C18.9802 44.7649 19.1911 44.5538 19.1911 44.5538C18.3476 41.1753 18.3476 37.3745 16.8713 33.996C16.4495 33.1514 16.0277 32.0956 15.606 31.251C15.606 30.8287 15.606 30.4064 15.8169 30.1952C15.8169 30.6175 15.606 30.8287 15.606 31.251C14.5515 28.7171 13.2861 25.9721 13.0753 23.4382C13.2861 26.3944 14.7624 29.1394 15.606 32.0956C15.1842 33.996 14.7624 36.1075 14.3406 38.0079C13.7079 36.1075 13.0753 34.4183 12.6535 32.5179C13.0753 34.6295 13.7079 36.741 14.3406 38.6414C13.9188 41.3864 13.497 43.9203 13.2862 46.6653C12.8644 45.6095 12.6535 44.7649 12.2317 43.7091C12.6535 44.7649 12.8644 45.8207 13.2862 46.8765C13.0753 48.5657 13.0753 50.0438 12.8644 51.733C13.0753 50.255 13.2862 48.988 13.497 47.5099C14.5515 51.0996 15.3951 54.6892 16.0277 58.49C14.9733 61.4462 13.9188 64.1912 12.8644 67.1474C13.9188 64.4024 14.9733 61.6573 16.2386 58.9123C16.4495 59.5458 16.4495 60.3904 16.6604 61.0239C16.4495 60.1793 16.4495 59.3346 16.2386 58.49C17.9258 54.4781 19.6129 50.255 21.0892 45.8207Z" fill="black"/>
<path d="M21.7218 43.2868C21.5109 44.1315 21.3 44.9761 21.0891 45.8207C21.3 44.9761 21.5109 44.1315 21.7218 43.2868C21.9327 43.2868 21.7218 43.0757 21.7218 43.2868Z" fill="black"/>
<path d="M16.2387 61.6573C14.5516 65.247 12.6535 69.0478 11.1773 72.8486C11.81 70.9482 12.2317 69.0478 12.8644 67.1474C12.0209 69.4701 11.1773 71.7928 10.5446 74.1155C9.70104 76.4382 9.27925 78.7609 9.06836 81.0836H9.27925C9.49014 74.749 13.4971 67.5697 16.2387 61.6573Z" fill="black"/>
<path d="M12.8645 53.6333C12.8645 52.9998 12.8645 52.3664 12.8645 51.7329C12.6536 52.3664 12.6536 52.9998 12.8645 53.6333C12.4427 53.8445 12.8645 53.8445 12.8645 53.6333Z" fill="black"/>
<path d="M18.3476 29.5617C17.9258 28.0836 17.2931 26.3943 16.6604 24.9163C17.0822 22.8047 17.2931 20.9043 17.2931 19.0039C17.7149 22.5935 17.9258 26.3943 18.9802 29.984H19.1911C18.3476 25.972 18.1367 21.7489 17.504 17.737C17.504 17.5258 17.2931 17.1035 17.2931 16.8923V16.6812C17.2931 16.8923 17.504 16.8923 17.504 16.6812V16.47C17.504 16.2589 17.504 16.0477 17.504 15.8366H17.2931C17.2931 16.0477 17.2931 16.47 17.2931 16.6812C16.8713 14.3585 15.8169 12.2469 15.3951 10.1354C15.606 12.8804 16.6604 15.6254 17.0822 18.5816C16.8713 20.482 16.6604 22.3824 16.4495 24.4939C15.606 22.3824 14.7624 20.0597 14.5515 17.9481C14.7624 20.482 15.606 22.8047 16.4495 25.1274C16.2387 26.8166 16.0278 28.717 15.8169 30.4063C16.0278 28.717 16.4495 27.239 16.6604 25.5497C16.8713 26.1832 17.0822 26.8167 17.2931 27.6613C18.5585 31.4621 19.1911 35.2629 19.8238 39.2748H20.0347C19.8238 35.6852 19.1911 32.729 18.3476 29.5617Z" fill="black"/>
<path d="M22.3544 64.4025C21.7217 65.4582 21.089 66.3029 20.4563 67.5698V56.1674C20.4563 55.9562 20.2454 55.9562 20.2454 56.1674V67.9921C19.6128 69.259 18.9801 70.7371 18.3474 72.2152C18.9801 70.9483 19.6128 69.6813 20.2454 68.4144V74.5379C20.2454 74.7491 20.4563 74.7491 20.4563 74.5379V68.2032C21.089 66.7252 21.7217 65.4582 22.3544 64.4025Z" fill="black"/>
<path d="M17.7148 74.3267C17.9257 73.4821 18.3475 72.8487 18.5584 72.004C18.1366 72.6375 17.7148 73.4821 17.7148 74.3267C17.5039 74.3267 17.5039 74.3267 17.7148 74.3267Z" fill="black"/>
<path d="M23.1981 62.9244C22.9872 63.3467 22.7763 63.7691 22.5654 64.1914C22.7763 63.9802 22.9872 63.5579 23.1981 62.9244C23.409 62.9244 23.1981 62.9244 23.1981 62.9244Z" fill="black"/>
<path d="M13.2863 81.2948C12.2318 83.4064 10.5447 85.9402 10.5447 88.2629C10.7556 85.9402 12.2318 83.4064 13.2863 81.2948C13.4972 81.2948 13.2863 81.2948 13.2863 81.2948Z" fill="black"/>
<path d="M21.3 73.6931C21.5109 73.482 21.7218 73.2708 21.9327 72.8485C22.1436 72.6373 21.9327 72.6373 21.7218 72.6373C21.5109 73.0597 21.3 73.482 21.3 73.6931C19.8238 70.1035 19.1911 66.5138 17.7148 62.9242C18.9802 66.0915 19.8238 69.47 20.8782 72.6373C20.8782 73.0597 21.0891 73.482 21.3 73.6931C21.0891 73.6931 21.0891 73.6931 21.3 73.6931C21.0891 73.6931 21.0891 73.6931 21.3 73.6931C22.1436 76.227 23.198 78.5497 23.198 81.2947C23.198 78.5497 22.3545 76.227 21.3 73.6931Z" fill="black"/>
<path d="M14.7625 86.9959C14.9733 85.5178 15.1842 84.0398 15.8169 82.7728C15.1842 84.0398 14.7625 85.3067 14.7625 86.9959Z" fill="black"/>
<path d="M20.6674 74.7489C20.8783 74.5377 21.0892 74.1154 21.3001 73.9043C20.8783 74.1154 20.6674 74.3266 20.6674 74.7489C19.613 72.6373 18.3476 70.7369 17.7149 68.6254C18.3476 70.7369 19.4021 72.6373 20.6674 74.7489C18.5585 77.0716 16.8714 79.8166 15.8169 82.7728C16.8714 79.8166 18.7694 77.4939 20.6674 74.7489C21.9328 77.2827 23.1981 79.8166 23.1981 82.7728H23.409C23.1981 79.8166 21.9328 77.2827 20.6674 74.7489Z" fill="black"/>
<path d="M13.2861 68.6256C13.7079 69.4702 14.1297 70.3148 14.5515 71.3706C14.1297 70.526 13.7079 69.4702 13.2861 68.6256C13.497 68.4144 13.2861 68.6256 13.2861 68.6256Z" fill="black"/>
<path d="M28.4704 105.155C28.4704 104.944 28.2595 104.733 28.2595 104.522C28.0486 104.1 27.6268 104.1 27.4159 104.311C29.314 97.9761 25.0961 85.3068 24.8852 78.9721C24.6743 70.5259 22.9872 62.0797 22.9872 53.6335C22.9872 37.1634 20.4565 19.6375 17.7149 3.3785C18.3476 2.53388 21.0892 3.16735 21.9327 3.16735C22.5654 3.16735 22.5654 2.11157 21.9327 2.11157C21.3001 2.11157 17.0822 2.11157 17.0822 3.3785C17.7149 12.6693 18.3476 22.1713 19.402 31.6733C20.2456 39.2749 19.402 47.7211 21.3001 55.1116C23.6199 64.1912 22.7763 74.1156 22.9872 83.8287C22.3545 83.1952 21.9327 82.3506 21.511 81.7171L21.7218 81.506C21.511 81.2948 21.3001 81.2948 21.3001 81.0837C20.4565 79.1833 20.0347 77.0717 19.402 75.1713C18.5585 72.6375 17.504 69.8924 16.2387 67.3586C17.7149 70.5259 19.1911 74.1156 20.0347 77.494C20.4565 78.761 20.6674 79.8167 21.0892 80.8725C20.4565 80.6614 20.0347 81.2948 18.9803 81.2948C18.9803 81.506 18.7694 81.7171 18.7694 81.9283C17.504 78.3387 16.0278 74.9602 14.5515 71.3705C15.8169 74.9602 17.2931 78.5498 18.7694 81.9283C17.7149 83.8287 16.4495 85.7291 16.2387 88.0518C14.7624 83.8287 13.4971 79.8167 12.0208 75.5936C13.4971 79.8167 14.7624 84.0399 16.2387 88.263H16.4495C16.4495 85.9403 17.7149 84.0399 18.7694 81.9283C19.1911 82.7729 19.402 83.4064 19.8238 84.251C18.9802 85.5179 18.3476 86.996 17.7149 88.263C17.7149 88.263 17.7149 88.4741 17.9258 88.263C18.5585 86.996 19.1911 85.5179 20.0347 84.251C20.6674 85.9403 21.3001 87.8407 22.1436 89.5299H22.3545C21.7218 87.8407 20.8783 85.9403 20.2456 84.251C20.6674 83.6175 21.0892 82.9841 21.511 82.3506C21.7218 82.5618 21.9327 82.7729 22.1436 82.9841C23.1981 84.0399 22.7763 85.5179 22.3545 86.7849C22.3545 86.7849 22.3545 86.996 22.3545 86.7849C22.7763 85.9402 23.1981 84.6733 22.7763 83.6175C22.5654 82.9841 22.1436 82.5618 21.511 82.1395C21.7218 81.9283 21.9327 81.7171 22.1436 81.2948C22.5654 82.1395 22.9872 82.9841 23.6199 83.6175C23.6199 85.9402 23.8308 88.263 24.0417 90.5857C19.8238 90.3745 15.606 90.3745 11.3881 90.7968C11.3881 90.7968 11.3881 90.7968 11.1772 90.7968C8.01386 90.1634 2.31977 93.9642 0.843525 95.2311C-0.421829 96.2869 -4.4141e-05 97.5538 0.843525 97.1315C3.37423 96.2869 5.69404 95.2311 8.22475 94.5976C8.85743 94.3865 9.4901 94.1753 10.1228 93.9642C10.3337 93.9642 12.8644 96.498 13.2862 96.9203C16.6604 100.51 22.5654 102.199 25.9397 105.578C26.3615 106 26.7833 106 26.9942 105.789C27.6268 106.422 28.6813 105.789 28.4704 105.155ZM20.6674 82.5618C20.2456 83.1952 19.8238 83.8287 19.6129 84.251C19.402 83.4064 18.9802 82.5618 18.7694 81.9283C18.7694 81.7171 18.9803 81.506 18.9803 81.2948C19.6129 81.7171 20.2456 82.1395 20.6674 82.5618C20.8783 82.5618 20.6674 82.5618 20.6674 82.5618ZM21.3001 81.9283C21.0892 81.9283 20.8783 82.1395 20.8783 82.3506C20.2456 81.9283 19.6129 81.506 19.1911 81.2948C19.6129 81.2948 19.8238 81.0837 20.2456 80.8725C20.6674 80.6614 21.0892 80.6614 21.3001 80.8725C21.3001 81.0837 21.511 81.0837 21.511 81.2948C21.511 81.7171 21.3001 81.7171 21.3001 81.9283ZM20.4565 99.0319C17.504 97.1315 14.7624 95.0199 12.4426 92.4861C16.0278 92.6972 19.8238 92.6972 23.6199 92.6972C24.0417 96.498 24.8852 100.088 26.1506 103.466C25.0961 102.199 21.3001 99.6654 20.4565 99.0319Z" fill="black"/>
<path d="M51.6686 23.2271C50.825 23.4382 50.4032 23.8605 49.7706 24.494C49.3488 24.9163 49.1379 24.494 48.927 24.0717C48.5052 23.6494 48.7161 23.8605 48.0834 23.6494C47.4507 23.2271 46.6072 23.4382 45.9745 23.8605C45.3418 24.0717 44.4982 25.7609 44.2874 24.0717C44.2874 24.9163 44.2874 25.3386 45.1309 25.1274C45.5527 25.1274 45.7636 24.0717 46.1854 23.8605C46.8181 23.6494 48.0834 23.6494 48.5052 24.2828C48.7161 24.494 48.927 24.7051 49.1379 24.9163C49.9814 25.1275 50.825 23.6494 51.6686 23.4382C51.8795 23.4382 51.8795 23.2271 51.6686 23.2271Z" fill="black"/>
<path d="M64.322 23.227C63.6894 23.227 62.424 23.6493 62.0022 23.0158C62.0022 23.0158 61.7913 22.8047 61.7913 23.0158C61.1586 23.6493 60.1042 23.4382 59.2606 23.4382C59.0497 23.4382 58.8388 23.4382 58.8388 23.4382C58.8388 23.227 58.8388 23.227 59.0497 23.227C58.8388 23.227 58.8388 23.227 58.6279 23.227C58.6279 23.4382 58.6279 23.4382 58.6279 23.6493V23.8605C59.2606 23.8605 59.8933 24.0716 60.526 24.0716C60.7369 24.0716 61.7913 23.8605 61.7913 23.6493C62.2131 24.2828 63.6894 24.0716 64.322 23.8605C64.5329 23.4382 64.5329 23.227 64.322 23.227Z" fill="black"/>
<path d="M79.0846 21.96C78.241 21.7489 77.6083 21.96 76.7648 22.1712C76.5539 22.1712 75.4994 23.227 75.2885 22.8046C75.2885 22.8046 75.2885 22.5935 75.0776 22.5935C74.4449 22.5935 74.234 22.3823 73.8123 23.0158C73.8123 23.227 74.0231 23.4381 74.0231 23.227C74.4449 22.5935 75.0776 23.4381 75.7103 23.4381C75.9212 23.4381 75.9212 23.4381 75.9212 23.227C76.343 22.1712 78.0301 22.5935 78.8737 22.3823C79.2955 22.3823 79.2955 22.1712 79.0846 21.96Z" fill="black"/>
<path d="M109.453 22.1713C109.242 22.3824 107.766 21.5378 107.344 21.5378C106.29 21.749 105.446 21.5378 104.392 21.5378C103.759 21.3267 102.704 21.3267 102.915 22.3824C102.915 22.5936 103.126 22.3824 103.126 22.3824C102.915 21.3267 105.868 22.1713 106.711 22.1713C107.344 22.1713 107.977 21.9601 108.399 22.3824C108.609 22.5936 108.82 22.8048 109.031 22.8048C109.453 23.0159 109.664 22.8048 109.875 22.3824C109.875 22.1713 109.664 21.9601 109.453 22.1713Z" fill="black"/>
<path d="M118.943 22.8048C118.31 22.3825 118.732 21.9602 118.31 21.5379C117.889 21.1156 117.256 21.1156 116.834 20.9044H116.623C116.623 21.749 117.256 22.3825 117.889 21.749C118.1 21.9602 118.1 22.1714 118.31 22.3825C118.31 22.8048 118.521 23.016 118.943 23.2271C118.943 23.016 118.943 22.8048 118.943 22.8048Z" fill="black"/>
<path d="M124.426 22.1712C123.161 22.1712 121.896 21.9601 120.63 21.7489C121.896 21.9601 123.161 22.1712 124.426 22.1712C124.426 22.3824 124.426 22.1712 124.426 22.1712Z" fill="black"/>
<path d="M76.9622 45.8821C79.9934 47.6309 82.8781 49.6387 85.7042 51.7004C87.7579 53.1987 89.5602 54.8662 91.1922 56.8096C92.3706 58.2128 93.3282 59.8004 94.6211 61.0932" stroke="#FF6B00" stroke-width="3" stroke-linecap="round" stroke-linejoin="round"/>
<path d="M92.6978 47.106C90.6264 48.8991 88.7453 50.8992 86.6901 52.7154C84.7773 54.4058 82.7745 56.0295 80.7892 57.6352C80.1168 58.1791 79.4608 58.7522 78.7591 59.2574C78.586 59.382 78.2786 59.5967 78.186 59.7819" stroke="#FF6B00" stroke-width="3" stroke-linecap="round" stroke-linejoin="round"/>
</g>
<defs>
<clipPath id="clip0">
<rect width="182" height="106" fill="white"/>
</clipPath>
</defs>
</svg>
