<svg width="132" height="122" viewBox="0 0 132 122" fill="none" xmlns="http://www.w3.org/2000/svg">
<path fill-rule="evenodd" clip-rule="evenodd" d="M71.4548 1.18805C59.4759 -1.1749 47.7756 -0.479912 34.1252 7.5819C33.986 7.7209 33.986 7.7209 33.986 7.85989C33.8467 7.99889 33.7074 7.99889 33.5681 8.13789C17.6891 17.5897 12.6747 29.8214 8.77459 42.4701C6.12809 55.3968 5.84951 69.0185 9.61032 83.7521C19.6392 103.212 33.1502 109.467 46.3827 116.972C46.8006 116.972 47.0792 116.972 47.3577 117.389C63.0974 121.559 79.9514 121.698 99.8698 110.578C102.934 108.216 105.859 105.575 108.645 103.073C111.57 100.571 113.52 97.6518 115.888 95.4278C117.977 90.146 121.32 85.0031 123.131 79.7212C125.22 66.7945 128.563 53.5898 122.853 39.1342C118.117 27.0414 108.924 18.9796 100.288 13.0028C92.0696 7.16491 81.7622 3.273 71.4548 1.18805Z" fill="#4C4443"/>
<path fill-rule="evenodd" clip-rule="evenodd" d="M122.713 48.7249C121.042 49.2809 118.813 47.057 116.724 46.918C114.774 45.667 112.684 45.389 110.595 44.555C106.416 43.582 102.377 41.6361 98.3376 39.6901C92.0696 36.9102 86.3587 33.9913 80.0907 32.1843C61.7045 26.9024 40.5325 30.5163 22.8428 20.7866C28.2751 15.6437 35.936 9.11085 43.7362 6.46991C55.9936 11.8908 67.2761 21.0646 80.23 23.7055C86.9159 24.4005 93.4625 25.6515 99.7305 27.8754C105.859 30.5163 111.431 34.8252 117.977 35.9372C120.902 40.5241 121.46 44.416 122.713 48.7249Z" fill="white"/>
<path fill-rule="evenodd" clip-rule="evenodd" d="M45.2686 5.91403C59.3368 0.215159 72.43 3.82907 84.2696 8.41597C96.527 13.0029 108.088 20.3697 116.863 33.5744C115.888 34.5474 113.52 33.1574 111.988 32.4624C110.177 31.6284 108.227 30.7944 106.834 29.9605C103.491 27.8755 99.87 26.9025 96.3877 25.6516C89.284 23.4276 81.4838 23.5666 74.38 21.3427C64.6298 17.3118 55.4367 11.1959 45.965 6.33102C45.6864 6.33102 45.4078 6.19202 45.2686 5.91403Z" fill="white"/>
<path fill-rule="evenodd" clip-rule="evenodd" d="M22.2857 21.4816C22.425 21.4816 22.5643 21.6206 22.7036 21.4816C38.5826 30.5164 57.2473 28.9875 74.6585 31.9064C83.2944 33.5743 91.2339 37.8832 99.452 41.3582C103.491 43.4431 107.531 44.9721 111.849 46.0841C113.938 47.057 116.027 47.613 118.117 48.725C119.649 49.698 123.41 49.42 122.992 52.0609C122.435 53.1729 119.928 51.2269 118.535 51.6439C117.002 50.9489 115.331 50.8099 113.659 50.532C110.456 49.976 107.113 49.559 103.77 49.559C96.6662 50.6709 89.9803 50.393 83.2944 49.698C70.8977 47.057 59.1974 39.2732 48.3328 33.0184C39.4183 29.4044 29.8073 27.8755 21.1714 23.2886C21.7285 22.7326 21.8678 22.0376 22.2857 21.4816ZM48.6114 31.6284C57.8045 34.9643 66.1618 41.4972 75.3549 44.8331C79.9515 46.64 84.6873 47.891 89.7017 48.169C92.2089 48.169 94.8554 47.752 97.2234 48.03C99.3127 48.308 102.656 49.42 104.606 47.057C103.631 43.0261 99.0341 42.4701 96.3876 40.9412C86.6374 37.7443 76.7478 35.1033 66.8583 31.9064C61.7046 31.2114 56.2723 31.0724 51.1186 30.3774C50.1436 30.9334 49.4471 30.2384 48.3328 31.0724C48.4721 31.2114 48.3328 31.6284 48.6114 31.6284Z" fill="white"/>
<path fill-rule="evenodd" clip-rule="evenodd" d="M20.4749 24.4006C20.6142 24.2616 20.7535 24.2616 20.8927 24.1226C23.9571 25.5125 27.1608 26.6245 30.2251 28.1535C37.886 30.5164 45.8255 32.1844 53.0686 36.4933C60.1723 40.6632 67.1368 45.3891 74.7977 48.447C82.3193 51.2269 90.3981 52.1999 99.0341 51.3659C107.67 50.2539 115.331 52.6169 123.27 53.8679C123.549 57.4818 123.27 60.9567 122.992 64.4316C110.038 57.8988 94.2982 61.3737 81.205 55.1188C67.9725 49.42 54.3222 45.5281 40.6718 41.9141C32.7323 38.7172 25.6286 33.0183 17.5498 30.5164C18.6641 28.5705 19.4999 26.4855 20.4749 24.4006Z" fill="white"/>
<path fill-rule="evenodd" clip-rule="evenodd" d="M122.574 66.0995C122.435 74.9953 119.51 83.3351 114.774 91.119C105.999 88.617 97.2233 85.4201 88.866 81.3892C80.5086 77.3583 72.4298 72.2154 63.7939 69.1575C55.2972 65.4046 46.1041 64.0146 37.8861 59.4277C29.5287 55.1188 20.8928 52.0609 12.5354 47.752C13.5104 42.3311 14.6247 36.0763 17.2712 31.6284C26.1858 33.9913 33.8467 41.0801 42.7612 43.5821C51.5364 46.501 60.5902 48.586 69.2262 52.0609C77.8621 55.3968 86.3587 59.7057 95.6911 60.2617C104.884 61.0957 114.634 62.6246 122.574 66.0995Z" fill="white"/>
<path fill-rule="evenodd" clip-rule="evenodd" d="M113.659 92.9259C110.874 92.9259 108.506 90.8409 105.859 90.5629C97.7805 88.617 90.9553 83.7521 83.0158 81.5281C78.0014 80.1382 72.987 80.6942 67.8333 80.1382C62.8189 79.7212 57.9437 78.6092 52.9293 78.3312C43.3184 75.2733 34.4038 69.9914 24.9322 65.9605C20.7535 64.8485 16.2962 64.2925 12.3961 61.5126C12.6747 60.8176 12.1175 59.8447 12.5354 59.1497C12.9533 58.7327 14.3462 59.1497 15.1819 59.4277C17.9677 60.2616 21.3106 62.3466 23.9571 63.4586C27.8572 65.4045 31.7573 66.9335 35.6574 69.0184C38.5825 69.7134 41.5076 70.4084 44.572 71.1034C48.4721 72.9103 52.5114 74.1613 56.4115 75.4123C60.3116 75.2733 64.9082 78.8872 68.669 75.5513C67.5547 72.9103 64.4903 72.0764 62.1224 71.1034C55.1579 68.3235 47.497 66.3775 40.3933 63.5976C30.9216 59.8447 22.0071 53.8678 12.2568 50.9489C12.3961 50.2539 12.1175 49.5589 12.3961 48.8639C12.5354 48.7249 12.6747 48.8639 12.6747 49.0029C12.814 49.0029 12.9533 49.1419 13.0926 49.0029C21.3106 53.7288 29.9466 56.2307 38.1646 60.9566C46.522 64.8485 55.2972 66.6555 63.9332 69.8524C72.4298 73.1883 80.3693 78.4702 88.5874 82.5011C92.7661 84.5861 96.9447 86.254 101.263 87.783C103.491 88.478 105.581 89.173 107.67 90.007C109.62 91.1189 112.545 91.3969 113.659 92.9259Z" fill="white"/>
<path fill-rule="evenodd" clip-rule="evenodd" d="M66.9974 75.1343C56.5507 75.8293 46.8005 69.4355 36.3538 68.3235C28.4143 64.8486 20.7534 60.4007 12.6746 57.7598C12.396 56.0918 12.5353 54.4238 12.396 52.7559C12.6746 52.4779 12.8139 52.7559 13.0924 52.6169C22.4248 55.2578 30.7822 61.2347 39.836 64.8486C48.7505 68.4625 58.2222 70.5475 66.9974 75.1343Z" fill="white"/>
<path fill-rule="evenodd" clip-rule="evenodd" d="M52.2329 31.7673C56.9687 32.4623 61.8439 32.4623 66.5797 33.1573C74.6585 35.5202 82.7373 38.3002 90.9553 40.1071C94.9947 42.4701 99.5913 42.7481 103.213 46.64C100.148 47.752 97.6412 46.64 94.9947 46.501C78.8372 48.5859 66.3011 37.1882 52.2329 31.7673Z" fill="white"/>
<path fill-rule="evenodd" clip-rule="evenodd" d="M15.8784 73.1884C16.0177 73.0494 16.157 73.1884 16.157 73.3274C22.5643 77.0803 29.5288 79.0262 36.4932 81.3892C43.4577 83.3351 49.7257 87.644 56.2723 91.5359C69.6441 96.5398 83.9909 100.849 96.8055 106.27C95.4126 107.104 94.159 107.382 92.6268 108.216C83.4337 105.575 75.0764 100.293 65.4654 99.4588C62.1225 98.0688 59.0581 96.1228 55.9937 93.7599C50.84 90.98 44.9899 91.258 39.4183 90.007C33.8467 88.061 29.1109 84.8641 23.4 82.9181C21.7286 82.3622 19.0821 82.2232 18.3856 79.8602C23.4 81.1112 27.9966 83.6131 32.8717 85.2811C35.2396 86.1151 37.7468 86.9491 40.254 87.783C42.622 88.2 45.2685 90.146 47.6364 88.2C46.2435 85.1421 42.4827 85.4201 40.1148 83.8911C37.329 83.0571 34.6825 81.9452 31.8967 80.9722C28.1359 80.1382 23.9572 78.0533 19.6392 76.1073C18.3856 75.2733 16.0177 75.1343 15.8784 73.1884Z" fill="white"/>
<path fill-rule="evenodd" clip-rule="evenodd" d="M16.8535 76.3853C26.6038 80.8331 36.9112 83.3351 46.5221 87.922C36.4933 86.81 27.5788 81.5281 17.9678 78.7482C17.55 77.9142 17.55 77.2192 16.8535 76.3853Z" fill="white"/>
<path fill-rule="evenodd" clip-rule="evenodd" d="M90.3982 108.772C86.4981 110.44 82.8765 110.996 79.1157 112.386C70.3405 109.606 61.8439 105.436 53.3472 101.544C44.9898 97.2349 35.1003 98.3468 26.8822 93.3429C24.6536 89.868 22.2857 87.0881 20.1963 83.0572C19.9178 82.7792 20.1963 82.6402 20.3356 82.7792C26.8822 84.3082 32.5931 88.4781 38.8611 90.841C44.1541 92.092 49.865 92.092 54.8794 94.1769C57.9438 96.5399 61.0081 98.4858 64.2118 100.154C73.2656 101.266 82.3194 105.714 90.3982 108.772Z" fill="white"/>
<path fill-rule="evenodd" clip-rule="evenodd" d="M95.6912 109.744C95.9697 109.05 97.5019 108.633 98.1984 108.077C97.9198 108.772 96.3876 109.189 95.6912 109.744Z" fill="white"/>
<path fill-rule="evenodd" clip-rule="evenodd" d="M95.1338 109.606C63.6545 125.729 38.0252 114.331 16.9925 89.59C9.88877 78.8872 10.8638 70.2694 10.3066 61.3737C11.9781 70.8254 18.2461 85.2811 26.7428 97.0958C36.9109 107.66 48.7505 111.134 60.8687 114.47C71.3154 116.416 82.4585 115.582 95.1338 109.606Z" fill="white"/>
<path fill-rule="evenodd" clip-rule="evenodd" d="M28.4143 95.4279C34.9609 98.4858 42.2039 98.7638 48.8898 101.266C55.715 103.351 61.983 107.243 68.5296 110.023C71.1761 110.995 73.8226 111.551 76.4691 112.663C76.4691 112.802 76.6084 112.802 76.7477 112.802C59.4758 113.636 42.4825 108.494 28.4143 95.4279Z" fill="white"/>
<path fill-rule="evenodd" clip-rule="evenodd" d="M12.9534 63.5976C13.0927 63.4586 13.2319 63.5976 13.2319 63.7366C16.7142 65.1266 20.1964 66.2386 23.8179 67.0725C32.7325 70.9644 41.5077 75.5513 50.4222 79.1652C60.3117 80.4162 70.3406 81.5282 80.3694 82.2232C91.234 86.2541 101.82 90.563 112.685 94.7329C111.71 95.9838 110.874 97.2348 109.481 98.2078C97.3627 94.4549 85.8017 88.617 72.8478 87.922C68.8084 87.0881 65.3262 84.4471 61.0082 84.8641C61.8439 85.1421 63.9333 85.5591 65.3262 85.8371C66.8583 86.9491 68.6691 87.0881 70.2013 88.2C80.2301 89.451 89.8411 92.3699 99.3128 95.7059C102.099 97.2348 105.999 97.5128 108.227 99.4588C105.999 100.849 104.188 102.517 101.541 103.768C94.4376 102.239 87.7517 99.1808 80.9266 97.0958C74.2407 94.4549 67.2762 92.5089 61.2868 87.0881C61.0082 88.061 62.2618 88.339 62.5404 89.312C74.1014 96.9568 87.891 99.8758 99.7306 104.741C97.7806 105.575 95.8305 104.602 94.159 104.046C89.0053 102.378 83.7123 99.7368 78.2801 98.0688C71.1763 95.5669 63.9333 93.8989 57.1081 90.563C50.5615 86.3931 43.8756 82.2232 36.6326 80.1382C29.5288 77.6363 22.1465 76.2463 15.5999 71.9374C13.9284 69.0185 13.7891 66.3775 12.9534 63.5976Z" fill="white"/>
<path fill-rule="evenodd" clip-rule="evenodd" d="M126.474 18.2846C126.335 14.9487 128.842 13.6977 128.146 10.6398C125.917 9.24981 122.713 9.5278 119.788 9.3888C107.809 8.55482 96.1091 10.2228 86.916 12.5857C84.966 11.8907 83.7124 10.6398 81.3444 10.5008C75.6336 11.1958 71.1763 13.2807 64.769 13.2807C59.476 15.2267 54.6009 17.7286 50.1436 20.5085C47.4971 23.9835 44.7113 27.1804 41.5077 29.9603C40.3934 33.5742 36.2147 35.1032 37.1897 40.2461C38.1647 41.636 39.8362 42.192 42.3434 41.914C38.7219 48.1689 34.6825 54.4238 31.6181 61.6516C28.6931 68.7404 26.3252 76.5242 21.7286 82.3621C21.45 82.5011 21.1714 82.6401 21.0322 83.0571C17.2713 84.447 13.7891 86.115 10.0283 87.505C6.82465 89.5899 2.36739 90.2849 0.835205 93.8988C1.81023 97.5127 3.34241 100.988 5.15317 103.907C7.24251 107.521 10.0283 110.439 12.3962 113.775C13.5105 115.443 14.7641 116.694 16.2963 118.501C17.4106 120.03 19.0821 122.254 21.45 121.976C23.1215 121.698 24.5144 118.501 25.768 116.694C29.5288 110.717 33.1503 103.351 35.2397 97.2347C40.1148 93.7598 46.3828 92.9258 52.3723 90.9799C58.3617 89.0339 64.9083 87.227 71.8728 86.949C88.3089 84.447 101.263 78.4702 111.57 69.8524C117.978 64.4315 122.435 56.6477 124.803 46.7789C126.613 39.4121 128.285 31.4893 130.096 24.9564C130.792 22.7325 132.046 19.9526 130.792 17.7286C129.121 16.3386 127.867 18.8406 126.474 18.2846Z" fill="#4C4443"/>
<path fill-rule="evenodd" clip-rule="evenodd" d="M84.4088 13.1417C83.2945 14.2537 80.5087 12.7247 80.3694 12.3077C81.9016 11.7517 83.4337 12.7247 84.4088 13.1417Z" fill="white"/>
<path fill-rule="evenodd" clip-rule="evenodd" d="M81.6229 13.9757C79.6729 16.0607 77.0264 13.8367 74.3799 13.5588C76.6085 12.5858 79.5336 13.6977 81.6229 13.9757Z" fill="white"/>
<path fill-rule="evenodd" clip-rule="evenodd" d="M73.1265 15.0876C74.2408 14.8097 76.1908 15.6436 77.5837 15.7826C76.1908 17.3116 74.6586 15.3656 73.1265 15.0876Z" fill="white"/>
<path fill-rule="evenodd" clip-rule="evenodd" d="M70.8977 18.7016C70.3406 19.3966 69.3656 19.6746 68.5298 19.9526C66.5798 18.5626 65.744 16.1997 62.9583 15.6437C65.744 14.2537 68.5298 17.8677 70.8977 18.7016Z" fill="white"/>
<path fill-rule="evenodd" clip-rule="evenodd" d="M61.2866 16.6167C63.9331 16.4777 66.4403 19.3966 67.2761 20.9256C64.7689 20.9256 64.0724 17.1727 61.2866 16.6167Z" fill="white"/>
<path fill-rule="evenodd" clip-rule="evenodd" d="M64.9083 22.1766C63.3761 23.2886 62.4011 21.0646 61.2868 20.5086C60.7296 19.2576 58.6403 18.4237 58.501 17.4507C61.4261 17.3117 64.2118 20.0916 64.9083 22.1766Z" fill="white"/>
<path fill-rule="evenodd" clip-rule="evenodd" d="M62.4011 23.7055C59.7546 22.7325 58.0831 20.7865 55.2974 19.8135C58.0831 17.0336 60.7296 21.8985 62.4011 23.7055Z" fill="white"/>
<path fill-rule="evenodd" clip-rule="evenodd" d="M106.834 20.2306C109.063 19.6746 111.71 20.5086 113.102 21.4816C111.71 22.7325 110.874 24.5395 109.899 26.2074C108.227 24.8175 107.949 22.0375 106.834 20.2306Z" fill="white"/>
<path fill-rule="evenodd" clip-rule="evenodd" d="M105.859 20.2306C106.834 21.7596 107.113 23.8445 107.809 25.5125C105.999 24.6785 104.745 23.2885 103.073 22.3155C103.491 21.0646 104.884 20.9256 105.859 20.2306Z" fill="white"/>
<path fill-rule="evenodd" clip-rule="evenodd" d="M61.1475 24.2615C58.3617 24.2615 54.6009 21.2036 51.1187 22.7326C52.6508 18.5627 58.501 22.5936 61.1475 24.2615Z" fill="white"/>
<path fill-rule="evenodd" clip-rule="evenodd" d="M113.659 22.4545C114.913 23.1495 115.331 24.6785 115.749 26.0684C113.799 25.9294 112.406 26.3464 111.013 26.7634C111.57 24.9565 112.824 23.8445 113.659 22.4545Z" fill="white"/>
<path fill-rule="evenodd" clip-rule="evenodd" d="M91.5127 22.5936C91.652 22.7326 91.7913 22.8716 92.2091 22.8716C93.602 24.4005 94.7163 26.0685 95.8307 27.7364C96.6664 29.2654 98.7557 30.9334 98.895 32.6013C96.945 32.6013 96.3878 29.5434 94.8556 28.5704C93.7413 26.9025 92.7663 25.0955 91.7913 23.1496C91.652 23.0106 91.5127 22.8716 91.5127 22.5936Z" fill="white"/>
<path fill-rule="evenodd" clip-rule="evenodd" d="M102.516 22.8715C104.049 24.4005 106.277 25.5125 107.67 27.1804C105.442 27.8754 103.631 28.9874 101.82 30.2383C99.7307 28.1534 101.263 24.5395 102.516 22.8715Z" fill="white"/>
<path fill-rule="evenodd" clip-rule="evenodd" d="M59.1974 25.3734C56.9688 27.8754 53.208 23.5665 49.3079 25.0954C50.2829 22.4545 56.4116 24.4004 59.1974 25.3734Z" fill="white"/>
<path fill-rule="evenodd" clip-rule="evenodd" d="M76.7478 24.1225C79.3943 26.4854 81.7622 30.3774 83.1551 33.1573C82.7372 33.1573 82.598 33.2963 82.4587 33.5743C80.0907 30.7943 78.0014 28.0144 76.7478 24.1225Z" fill="white"/>
<path fill-rule="evenodd" clip-rule="evenodd" d="M116.027 27.0414C116.863 29.5434 115.331 31.2113 113.66 31.9063C112.685 30.5164 111.71 29.1264 110.595 27.8754C111.988 27.3194 114.077 27.1804 116.027 27.0414Z" fill="white"/>
<path fill-rule="evenodd" clip-rule="evenodd" d="M108.506 28.0144C108.645 29.8214 107.809 31.7673 108.506 33.2963C106.138 33.9913 104.327 32.3233 102.934 31.3503C104.606 29.9604 106.417 28.9874 108.506 28.0144Z" fill="white"/>
<path fill-rule="evenodd" clip-rule="evenodd" d="M53.7651 29.2654C53.6258 30.6554 51.8151 30.7944 50.5614 30.3774C47.2185 30.5164 45.1292 31.9063 42.4827 32.6013C43.3184 31.0724 44.4327 29.9604 45.547 28.7094C47.4971 29.6824 51.1186 28.9874 53.7651 29.2654Z" fill="white"/>
<path fill-rule="evenodd" clip-rule="evenodd" d="M109.62 28.8483C111.152 29.6823 111.57 31.4893 112.824 32.7402C112.267 33.5742 111.152 33.7132 109.76 33.8522C109.342 32.4622 109.62 30.3773 109.62 28.8483Z" fill="white"/>
<path fill-rule="evenodd" clip-rule="evenodd" d="M51.3972 31.7673C48.6114 34.1302 44.1541 34.6862 40.3933 36.2152C40.5326 34.4082 43.1791 33.8522 44.8506 33.1572C46.9399 32.6013 49.1685 31.6283 51.3972 31.7673Z" fill="white"/>
<path fill-rule="evenodd" clip-rule="evenodd" d="M102.656 32.6013C104.606 34.1303 107.113 34.9643 110.595 34.9643C107.67 36.0762 103.77 34.8253 102.656 32.6013Z" fill="white"/>
<path fill-rule="evenodd" clip-rule="evenodd" d="M90.3982 33.1573C89.9803 35.7982 89.2838 38.3002 88.7267 40.6631C87.6124 38.5782 87.0552 36.0762 86.2195 33.7133C87.7517 33.7133 88.866 32.4623 90.3982 33.1573Z" fill="white"/>
<path fill-rule="evenodd" clip-rule="evenodd" d="M91.7912 33.5743C92.9055 33.9913 94.9949 34.5473 94.577 35.9372C94.9949 36.4932 96.1092 36.3542 96.2485 37.1882C94.2984 38.4392 92.0698 39.2731 89.9805 40.3851C90.1198 37.6052 91.5127 36.0762 91.7912 33.5743Z" fill="white"/>
<path fill-rule="evenodd" clip-rule="evenodd" d="M109.341 46.64C106.974 46.084 105.441 42.8871 104.048 40.8022C102.238 38.8562 100.845 36.3543 99.1733 34.4083C99.1733 34.1303 99.1733 33.9913 99.4519 33.9913C99.5912 33.8523 99.8698 33.7133 100.288 33.7133C102.934 38.3002 106.277 42.1921 109.341 46.64Z" fill="white"/>
<path fill-rule="evenodd" clip-rule="evenodd" d="M62.9583 34.8253C63.2368 34.8253 63.3761 34.8253 63.3761 35.1033C65.4655 37.4663 67.1369 40.2462 69.2263 42.6091C70.6192 45.2501 73.6835 47.474 74.1014 50.254C72.5692 50.393 71.7335 48.169 70.8977 47.057C69.7834 45.9451 68.8084 44.6941 68.112 43.1651C66.1619 40.6632 64.2119 38.1612 62.9583 34.8253Z" fill="white"/>
<path fill-rule="evenodd" clip-rule="evenodd" d="M87.1946 40.8022C84.6874 40.3852 82.598 39.4122 80.3694 38.8562C81.0658 36.9103 83.0159 36.0763 84.4088 34.8253C86.0802 36.0763 86.2195 38.8562 87.1946 40.8022Z" fill="white"/>
<path fill-rule="evenodd" clip-rule="evenodd" d="M97.084 38.7172C96.9447 40.2461 97.5018 41.0801 97.5018 42.3311C95.1339 42.6091 92.766 42.3311 90.2588 42.0531C92.2088 40.6631 94.5768 39.5511 97.084 38.7172Z" fill="white"/>
<path fill-rule="evenodd" clip-rule="evenodd" d="M79.8123 39.9681C82.5981 40.3851 84.6874 41.6361 87.4732 42.0531C86.6374 43.1651 84.966 43.0261 83.5731 43.3041C82.1802 43.7211 81.0659 44.416 79.673 44.555C79.5337 43.0261 79.3944 41.4971 79.8123 39.9681Z" fill="white"/>
<path fill-rule="evenodd" clip-rule="evenodd" d="M55.7151 41.636C57.5258 43.86 59.058 46.2229 60.5902 48.7249C58.3616 46.9179 56.9687 44.416 55.7151 41.636Z" fill="white"/>
<path fill-rule="evenodd" clip-rule="evenodd" d="M117.977 42.8871C119.37 46.64 119.928 54.9798 117.56 58.0377C116.167 54.5628 118.117 49.2809 117.977 44.972C117.977 44.4161 117.977 43.5821 117.977 42.8871Z" fill="white"/>
<path fill-rule="evenodd" clip-rule="evenodd" d="M91.3733 43.3041C93.0448 43.7211 95.2734 43.4431 97.3627 43.5821C97.3627 45.528 96.8056 46.918 96.1091 48.308C94.1591 46.918 92.7662 45.111 91.3733 43.3041Z" fill="white"/>
<path fill-rule="evenodd" clip-rule="evenodd" d="M88.309 43.582C89.5626 45.667 90.1197 49.5589 90.3983 51.9218C87.7518 52.1998 84.966 51.3659 83.1553 50.2539C84.8267 47.8909 86.4982 45.667 88.309 43.582Z" fill="white"/>
<path fill-rule="evenodd" clip-rule="evenodd" d="M77.5835 43.86C79.255 49.2809 81.9015 53.4508 88.7266 53.7288C81.4836 54.7018 77.7228 50.5319 77.5835 43.86Z" fill="white"/>
<path fill-rule="evenodd" clip-rule="evenodd" d="M89.5625 43.86C91.5126 45.389 92.9054 47.613 95.1341 49.0029C94.2983 50.3929 93.0447 51.2269 91.234 51.5049C90.5375 49.1419 89.9804 46.501 89.5625 43.86Z" fill="white"/>
<path fill-rule="evenodd" clip-rule="evenodd" d="M85.5231 44.277C84.2695 45.945 83.1552 47.613 81.623 49.0029C81.2051 47.752 80.2301 47.196 80.0908 45.528C82.3194 45.528 83.2945 44.277 85.5231 44.277Z" fill="white"/>
<path fill-rule="evenodd" clip-rule="evenodd" d="M43.8755 49.4199C45.1291 50.9489 46.2434 52.7558 47.3577 54.2848C48.472 55.9528 50.0042 57.3427 49.8649 59.4277C47.497 56.5088 45.547 53.1728 43.8755 49.4199Z" fill="white"/>
<path fill-rule="evenodd" clip-rule="evenodd" d="M63.3762 50.2539C63.2369 52.8948 62.8191 55.1188 62.6798 57.7597C60.869 56.0918 59.0583 53.1728 58.3618 51.0879C60.3119 50.9489 61.4262 50.1149 63.3762 50.2539Z" fill="white"/>
<path fill-rule="evenodd" clip-rule="evenodd" d="M64.4905 50.6709C66.3012 50.9489 67.5548 51.6439 68.9477 52.3389C67.5548 54.4238 65.4655 55.5358 64.0726 57.4817C63.794 55.6748 64.769 53.1728 64.4905 50.6709Z" fill="white"/>
<path fill-rule="evenodd" clip-rule="evenodd" d="M75.0764 50.8099C79.3944 57.4817 85.6624 62.2076 90.5376 68.3235C87.3339 66.9335 84.2695 63.4586 81.7623 60.6786C79.1158 57.7597 76.4693 54.8408 74.5193 51.2269C74.7979 51.2269 74.9372 51.0879 75.0764 50.8099Z" fill="white"/>
<path fill-rule="evenodd" clip-rule="evenodd" d="M96.5271 51.2269C99.7307 54.7018 103.631 57.4817 105.999 61.9296C101.959 59.2887 98.895 55.8138 95.9699 52.0608C95.8306 51.6439 96.3878 51.7829 96.5271 51.2269Z" fill="white"/>
<path fill-rule="evenodd" clip-rule="evenodd" d="M70.0619 53.4508C71.4548 54.8408 72.2906 56.9257 72.8477 59.2887C69.9226 59.2887 66.9976 59.1497 64.6296 59.7057C65.4654 56.5087 68.3905 55.5358 70.0619 53.4508Z" fill="white"/>
<path fill-rule="evenodd" clip-rule="evenodd" d="M54.0438 54.2847C56.1331 55.5357 58.2224 56.7867 60.0332 58.3156C57.3867 59.1496 55.2974 60.5396 52.9295 61.7906C51.8151 59.1496 52.6509 56.0917 54.0438 54.2847Z" fill="white"/>
<path fill-rule="evenodd" clip-rule="evenodd" d="M60.8688 59.5667C61.2866 62.2076 57.5258 64.4315 56.8294 67.2115C55.2972 66.2385 54.74 64.5705 53.6257 63.1806C55.1579 61.2346 58.083 60.5396 60.8688 59.5667Z" fill="white"/>
<path fill-rule="evenodd" clip-rule="evenodd" d="M65.3262 60.1227C68.112 60.1227 71.037 59.9837 73.2657 60.5397C73.1264 62.7636 72.4299 64.1536 71.7335 65.8216C69.3656 64.2926 67.2762 62.2076 65.3262 60.1227Z" fill="white"/>
<path fill-rule="evenodd" clip-rule="evenodd" d="M51.3972 60.6786C52.9294 64.8486 54.7402 68.7405 58.501 70.6864C54.3223 69.9914 51.6758 66.0995 51.3972 60.6786Z" fill="white"/>
<path fill-rule="evenodd" clip-rule="evenodd" d="M62.1225 60.9566C62.819 63.1806 61.5654 67.4895 61.2868 70.1304C59.476 70.2694 58.6403 69.2964 57.6653 68.6014C58.6403 65.5435 60.7297 63.4585 62.1225 60.9566Z" fill="white"/>
<path fill-rule="evenodd" clip-rule="evenodd" d="M63.2368 61.0956C65.0476 63.7366 66.3012 66.6555 67.5548 69.8524C65.6048 69.7134 64.769 70.5474 62.6797 70.2694C63.0976 67.4895 62.9583 64.1536 63.2368 61.0956Z" fill="white"/>
<path fill-rule="evenodd" clip-rule="evenodd" d="M65.1868 61.9296C67.4154 63.3195 68.9476 65.4045 71.0369 66.7945C70.4798 67.7674 69.7833 68.6014 68.669 68.8794C67.694 66.3775 66.0225 64.5705 65.1868 61.9296Z" fill="white"/>
<path fill-rule="evenodd" clip-rule="evenodd" d="M41.3684 73.3273C39.9755 71.7984 38.4433 70.4084 37.4683 68.4625C38.7219 67.9065 39.6969 66.9335 40.9505 66.3775C42.4827 67.7675 41.0898 70.6864 41.3684 73.3273Z" fill="white"/>
<path fill-rule="evenodd" clip-rule="evenodd" d="M42.9006 66.5165C45.2686 66.5165 46.6614 67.6285 47.2186 69.5745C44.8507 70.1304 44.4328 72.4934 42.4828 73.4664C42.2042 70.6864 42.9006 68.8795 42.9006 66.5165Z" fill="white"/>
<path fill-rule="evenodd" clip-rule="evenodd" d="M73.1264 66.9335C76.0514 69.5745 78.6979 72.4934 81.3444 75.5513C78.0015 73.4664 75.4943 70.5475 72.7085 67.9065C72.7085 67.3505 73.2657 67.4895 73.1264 66.9335Z" fill="white"/>
<path fill-rule="evenodd" clip-rule="evenodd" d="M36.2146 69.7134C37.6075 71.2423 39.0004 72.6323 40.1147 74.4393C38.0254 74.4393 36.4932 75.1343 34.8217 75.5512C33.986 73.0493 35.2396 71.1033 36.2146 69.7134Z" fill="white"/>
<path fill-rule="evenodd" clip-rule="evenodd" d="M47.6363 69.8524C48.4721 71.3814 49.3078 72.3544 49.7257 74.5783C47.6363 73.8833 45.2684 74.7173 43.0398 74.8563C44.572 73.1883 46.2434 71.7984 47.6363 69.8524Z" fill="white"/>
<path fill-rule="evenodd" clip-rule="evenodd" d="M61.9832 73.3273C61.9832 73.1883 62.2617 73.1883 62.401 73.0493C64.4904 73.6053 65.6047 75.5513 66.8583 76.9412C68.2512 78.3312 69.7834 79.5822 70.7584 81.2501C67.2762 79.9991 64.6297 76.1072 61.9832 73.3273Z" fill="white"/>
<path fill-rule="evenodd" clip-rule="evenodd" d="M40.1149 75.4123C40.1149 76.9413 37.8862 78.3312 37.3291 80.1382C36.3541 79.1652 35.5183 78.0532 35.2397 76.5243C36.9112 76.2463 38.4434 75.8293 40.1149 75.4123Z" fill="white"/>
<path fill-rule="evenodd" clip-rule="evenodd" d="M49.8649 75.6903C50.0042 78.0533 48.8899 79.0263 47.9149 80.1382C46.6613 78.7483 44.2934 77.2193 43.8755 75.6903C45.8255 75.6903 48.1935 75.1344 49.8649 75.6903Z" fill="white"/>
<path fill-rule="evenodd" clip-rule="evenodd" d="M41.0897 75.8293C41.7862 77.3582 41.5076 79.9992 41.7862 82.0841C40.254 82.2231 39.279 81.6672 38.304 81.2502C38.7218 78.8872 40.3933 77.7752 41.0897 75.8293Z" fill="white"/>
<path fill-rule="evenodd" clip-rule="evenodd" d="M42.6221 77.2192C44.2935 78.3312 45.5471 79.7211 46.6615 81.2501C45.4079 81.6671 44.4328 82.2231 43.0399 82.3621C43.0399 80.4161 42.6221 79.0261 42.6221 77.2192Z" fill="white"/>
<path fill-rule="evenodd" clip-rule="evenodd" d="M18.6642 88.478C17.2713 90.9799 14.0676 91.6749 11.839 93.2039C9.4711 94.7328 7.10318 95.9838 4.73526 97.5127C4.45669 96.9568 4.03882 96.6788 4.03882 95.9838C9.33181 93.8988 13.3712 90.7019 18.6642 88.478Z" fill="white"/>
<path fill-rule="evenodd" clip-rule="evenodd" d="M6.4068 100.71C5.84964 100.293 5.43177 99.4588 5.29248 98.6248C9.47116 96.2618 13.7891 94.0379 17.6892 91.397C18.1071 91.258 18.1071 91.5359 18.1071 91.8139C14.3463 94.8719 10.1676 97.5128 6.4068 100.71Z" fill="white"/>
<path fill-rule="evenodd" clip-rule="evenodd" d="M18.6642 93.4818C18.8035 96.2617 15.4605 97.2347 13.9283 99.0417C12.2569 100.849 10.0282 102.239 8.63535 104.185C7.38175 104.046 7.52104 102.656 6.6853 102.1C10.4461 99.0417 14.3462 95.9838 18.6642 93.4818Z" fill="white"/>
<path fill-rule="evenodd" clip-rule="evenodd" d="M19.6393 95.8448C19.9179 97.0958 18.1072 97.9298 17.9679 99.3198C15.1821 101.683 12.6749 104.463 9.7498 106.826C9.47122 106.409 9.47122 105.714 8.91406 105.575C12.3963 102.1 16.4357 99.3198 19.6393 95.8448Z" fill="white"/>
<path fill-rule="evenodd" clip-rule="evenodd" d="M21.0321 97.5128C21.3107 97.6518 21.3107 97.9298 21.7286 97.9298C18.9428 102.1 14.6248 104.88 12.1176 109.327C11.5605 108.91 11.1426 108.494 10.864 107.799C13.9284 104.185 17.9678 101.405 21.0321 97.5128Z" fill="white"/>
<path fill-rule="evenodd" clip-rule="evenodd" d="M22.7036 99.1807C23.1215 99.0417 23.1215 99.3197 23.1215 99.5977C21.3108 101.266 19.7786 103.49 17.9678 105.158C17.4107 106.409 16.1571 106.826 15.5999 108.215C14.4856 108.632 14.207 110.856 12.8141 110.3C11.9784 109.188 14.3463 107.937 15.182 107.104C15.8785 105.853 16.9928 104.88 18.2464 104.046C19.5 102.239 21.3108 100.988 22.7036 99.1807Z" fill="white"/>
<path fill-rule="evenodd" clip-rule="evenodd" d="M23.9572 100.293C21.7285 104.463 17.5498 108.494 14.3462 112.246C14.3462 109.467 17.6891 108.355 18.8035 105.992C20.6142 104.185 22.2857 102.239 23.9572 100.293Z" fill="white"/>
<path fill-rule="evenodd" clip-rule="evenodd" d="M27.0216 101.544C24.0965 106.409 21.0322 110.995 17.5499 115.304C16.2963 114.331 18.3857 112.802 19.0821 111.829C19.7786 110.578 20.7536 109.606 21.5893 108.355C23.5394 106.27 24.9323 103.629 27.0216 101.544Z" fill="white"/>
<path fill-rule="evenodd" clip-rule="evenodd" d="M26.3252 97.5127C25.3502 95.2888 21.5894 94.0378 21.0322 90.8409C22.5644 85.837 26.3252 82.0841 28.5539 77.3582C30.7825 72.6323 31.8968 67.2115 34.8219 62.6246C38.8613 52.7558 44.4328 44.416 50.5616 36.4932C67.6942 20.2306 91.0948 9.24981 126.474 11.8908C125.917 13.6977 123.549 16.4776 124.803 20.0916C126.196 20.6475 128.564 21.0645 129.678 19.6746C128.146 24.6785 125.778 30.7943 124.524 36.7712C123.271 36.0762 121.042 36.2152 120.067 35.2422C118.813 34.8252 116.306 34.4082 116.585 33.1573C117.42 31.7673 118.813 34.9642 120.903 34.4082C120.485 32.7403 118.117 33.0183 117.42 31.3503C119.37 23.1495 113.799 17.5896 106.974 18.1456C101.402 18.4236 97.7806 24.5395 99.4521 30.3773C96.6663 28.4314 95.552 22.8715 91.234 21.7595C90.5376 26.4854 95.552 30.3773 96.8056 33.9912C95.552 35.1032 94.9949 32.7403 93.602 32.7403C92.7662 31.7673 91.234 31.4893 89.9804 31.0723C87.4732 30.9333 86.0803 31.6283 84.1303 32.1843C81.7624 28.9874 80.0909 25.0954 76.6087 23.0105C74.38 24.1225 76.748 27.5974 77.723 28.8484C78.698 30.7943 79.8123 32.6013 81.3445 33.9912C78.4194 36.7712 76.0515 40.1071 76.1908 45.945C76.0515 47.1959 77.1658 48.4469 76.4694 49.0029C74.6586 49.2809 74.1015 46.5009 72.8479 45.528C71.8728 44.138 70.8978 42.609 69.6442 41.4971C67.5549 38.7171 66.0227 35.3812 62.5404 33.8522C61.0083 35.5202 63.2369 37.3272 64.0726 38.7171C65.0477 40.2461 65.8834 42.192 67.137 43.165C67.8334 44.972 69.3656 46.084 70.2014 47.8909C70.7585 49.2809 73.5443 50.8098 72.1514 52.1998C70.8978 52.6168 70.2014 51.0878 69.087 50.5318C67.2763 49.5589 65.0477 48.8639 62.2619 48.8639C61.0083 47.1959 59.7547 45.528 58.6403 43.999C57.3867 42.331 56.551 40.2461 54.601 39.5511C53.7652 43.582 57.3867 46.6399 59.0582 49.4199C54.7402 50.3928 52.233 53.0338 50.8401 56.9257C47.7758 54.7018 46.94 50.2539 43.3185 48.5859C43.4578 54.2848 47.4972 58.0377 50.0044 62.0686C50.1437 64.5705 50.8401 66.5165 51.9545 68.0454C51.3973 68.8794 50.5616 69.5744 49.8651 70.1304C47.9151 67.3505 45.8257 64.5705 40.672 64.9875C36.7719 67.2115 32.454 68.8794 31.2003 73.7443C30.9218 78.8872 33.1504 81.5281 36.3541 83.1961C34.9612 84.5861 33.0111 85.42 32.7325 87.922C34.2647 87.227 35.379 84.3081 37.8862 83.8911C45.965 87.922 55.4367 79.5822 50.283 71.6594C50.7009 70.5474 51.9545 70.1304 52.6509 69.2964C54.601 71.6594 56.9689 73.4663 61.0083 73.6053C62.5404 75.4123 64.0726 77.6362 65.8834 79.4432C67.2763 80.8331 69.2263 82.7791 71.7335 82.5011C70.6192 78.1922 66.5798 76.8022 64.6298 73.3273C68.2513 72.7713 70.4799 70.6864 72.8479 68.8794C73.9622 71.5204 76.0515 72.9103 77.5837 75.1343C79.1159 75.9683 80.9266 78.7482 83.4338 77.2192C81.6231 72.3543 76.748 70.2694 74.2408 66.0995C74.5193 65.1265 74.7979 64.4315 75.0765 63.5975C75.0765 62.4856 75.0765 61.5126 75.0765 60.4006C74.7979 59.1496 74.2407 57.7597 73.8229 56.5087C73.405 55.2577 72.2907 54.0068 73.1264 53.3118C74.9372 53.7288 76.0515 56.5087 77.4444 58.1767C78.8373 59.9836 80.5088 61.5126 81.7624 63.3195C83.2946 64.8485 84.966 66.5165 86.4982 68.0454C88.1697 68.8794 90.1197 72.2153 92.4877 70.1304C88.309 62.9026 80.3695 58.3157 77.3051 50.6708C78.2801 50.5318 78.8373 52.4778 79.3945 53.1728C80.7873 54.4238 82.4588 55.5357 84.2696 56.3697C85.8018 56.2307 87.1947 56.3697 88.5876 56.6477C91.3733 56.0917 93.3234 54.7018 95.4127 53.4508C96.8056 55.5357 98.6164 57.7597 100.566 59.7056C102.238 61.3736 104.467 64.4315 107.392 63.3195C105.859 57.6207 100.984 55.2577 97.7807 51.0878C98.7557 49.2809 100.009 47.3349 100.149 44.833C100.288 41.0801 98.0592 38.0221 97.3628 35.6592C99.1735 35.1032 99.4521 37.7441 100.566 38.4391C101.263 39.8291 102.377 40.8021 103.074 42.053C105.163 44.138 106.138 47.3349 109.342 48.4469C110.038 48.3079 110.456 48.0299 110.595 47.6129C108.924 43.165 105.581 40.2461 103.074 36.4932C105.581 37.8831 112.824 38.5781 114.913 35.6592C117.281 37.7441 119.649 39.9681 123.967 40.1071C123.549 43.582 122.574 46.5009 121.878 49.6979C121.042 46.7789 121.599 42.47 118.813 41.3581C117.838 41.3581 117.003 41.6361 116.306 42.053C116.445 46.5009 115.192 53.1728 115.47 57.0647C114.635 59.0106 112.824 59.9836 111.57 61.5126C102.377 68.3234 94.0198 76.1073 81.3445 79.4432C96.527 77.7752 105.024 66.2385 116.306 60.6786C109.481 68.3234 100.706 74.9953 89.5626 79.1652C78.4194 83.1961 64.3512 83.6131 52.5116 87.505C45.5471 90.7019 36.6326 91.8139 31.0611 96.2618C29.8075 97.2348 28.9717 98.6247 27.5788 99.4587C25.7681 98.4857 23.5394 97.7907 22.7037 95.8448C22.2858 95.7058 21.1715 94.4548 22.0073 95.0108C23.2609 95.9838 24.2359 97.3737 26.3252 97.5127ZM103.074 13.8367C97.9199 14.2537 93.7413 15.6437 89.284 16.8946C85.2446 18.0066 81.2052 18.9796 78.5587 21.3425C85.6625 19.2576 93.0448 16.4776 101.681 16.0607C104.049 15.9217 106.138 16.4776 106.834 14.8097C106.417 13.8367 104.327 13.4197 103.074 13.8367ZM116.167 15.5047C113.938 21.6205 125.081 19.3966 120.624 16.1996C119.649 16.1996 119.928 17.3116 119.092 17.4506C118.535 17.1726 117.838 17.0336 117.978 16.1996C118.535 15.9217 119.37 15.9217 119.928 15.5047C119.788 13.2807 116.724 14.1147 116.167 15.5047ZM126.056 22.1765C124.524 21.7595 123.967 20.0916 122.435 19.6746C121.599 22.3155 125.36 25.0954 126.056 22.1765ZM49.4472 41.914C52.0937 40.5241 53.6259 37.8831 55.7153 35.9372C58.0832 34.1302 61.0083 32.7403 63.3762 31.0723C66.162 29.8213 70.0621 28.7094 70.0621 25.2344C62.4012 29.8213 53.9045 33.8522 49.4472 41.914ZM123.967 32.0453C125.221 30.6553 126.474 27.1804 125.917 25.3734C124.803 27.0414 123.41 29.5433 123.967 32.0453ZM120.485 28.0144C121.042 28.0144 121.46 27.5974 121.321 26.9024C121.042 26.9024 120.903 26.6244 120.485 26.6244C120.206 27.1804 119.928 27.4584 120.485 28.0144ZM70.0621 30.3773C70.6192 30.7943 71.8728 30.6553 71.7335 29.6823C71.455 28.5704 69.3656 29.1263 70.0621 30.3773ZM67.2763 31.6283C68.112 32.1843 69.6442 31.7673 69.2263 30.3773C68.2513 29.6823 66.9977 30.2383 67.2763 31.6283ZM103.77 46.6399C103.492 45.528 103.492 43.999 102.238 43.86C101.681 45.111 102.516 46.5009 103.77 46.6399ZM106.974 51.6438C106.417 50.6708 105.859 49.8369 104.884 49.2809C104.884 49.4199 104.745 49.5589 104.467 49.5589C104.327 51.0878 105.72 52.7558 106.974 51.6438ZM101.82 47.8909C100.566 49.6979 102.656 52.7558 104.884 51.9218C104.188 51.0878 102.516 49.4199 101.82 47.8909ZM107.809 50.6708C108.227 49.8369 107.392 48.5859 106.277 48.5859C106.277 49.6979 106.556 50.6708 107.809 50.6708ZM42.9007 54.4238C42.9007 54.1458 42.9007 53.8678 42.9007 53.5898C42.6221 53.4508 42.3435 53.3118 41.7863 53.3118C41.7863 54.1458 42.0649 54.5628 42.9007 54.4238ZM110.177 56.6477C109.899 55.5357 109.202 54.7017 107.809 54.5628C107.113 55.9527 108.924 56.5087 110.177 56.6477ZM43.3185 60.2616C43.0399 58.8717 42.2042 57.8987 41.2292 57.2037C41.0899 59.1496 41.647 60.1226 43.3185 60.2616ZM44.99 59.5666C45.2686 58.7327 44.015 57.6207 43.3185 57.2037C42.7614 58.4547 43.4578 59.8446 44.99 59.5666ZM46.6615 63.3195C46.3829 62.2076 45.6864 61.2346 44.5721 60.9566C44.1543 61.9296 45.4079 63.8755 46.6615 63.3195ZM55.2974 83.7521C54.601 82.5011 54.1831 81.1111 52.5116 80.9721C52.0937 82.3621 53.7652 84.4471 55.2974 83.7521ZM30.2253 87.505C29.111 85.698 28.8324 83.0571 26.7431 82.0841C26.1859 84.725 27.8574 86.949 30.2253 87.505ZM26.1859 88.478C26.4645 88.061 26.0466 86.81 25.0716 86.949C25.0716 87.922 25.2109 88.617 26.1859 88.478ZM26.3252 92.0919C25.6288 90.5629 25.0716 89.034 23.5394 88.478C23.1216 90.2849 24.2359 92.2309 26.3252 92.0919ZM29.3896 92.0919C29.2503 90.9799 28.4146 90.5629 27.4395 90.4239C27.5788 91.5359 28.4146 91.9529 29.3896 92.0919ZM36.3541 92.3699C35.9362 91.3969 34.6826 91.3969 33.5683 91.1189C33.5683 92.3699 35.379 92.9259 36.3541 92.3699Z" fill="white"/>
<path fill-rule="evenodd" clip-rule="evenodd" d="M74.1012 17.3116C73.6834 17.8676 72.9869 18.1456 72.1512 18.4236C70.3404 17.1726 68.669 15.7827 66.5796 14.8097C66.0225 14.3927 67.8332 14.8097 67.8332 15.2267C68.669 15.0877 68.8083 15.6437 69.5047 15.5047C70.8976 16.1997 72.7084 16.4776 74.1012 17.3116Z" fill="white"/>
<path fill-rule="evenodd" clip-rule="evenodd" d="M56.1331 27.4585C54.3223 28.8484 48.4722 27.0415 46.1042 28.2925C46.94 25.5125 53.4866 26.0685 56.1331 27.4585Z" fill="white"/>
<path fill-rule="evenodd" clip-rule="evenodd" d="M47.6363 35.2423C47.7756 38.4392 41.9254 37.3273 40.1147 39.2732C39.9754 38.8562 39.2789 39.1342 39.4182 38.4392C41.5076 36.7713 45.2684 36.7713 47.6363 35.2423Z" fill="white"/>
<path fill-rule="evenodd" clip-rule="evenodd" d="M54.6008 53.5898C55.0187 52.6168 55.7151 51.9219 56.9687 51.6439C58.6402 53.3118 59.476 55.8138 61.0081 57.4817C59.1974 56.7867 57.2473 54.4238 54.6008 53.5898Z" fill="white"/>
<path fill-rule="evenodd" clip-rule="evenodd" d="M34.2646 70.9644C33.1503 73.3273 33.5681 77.9142 35.5182 79.7212C33.1503 79.1652 31.7574 73.1883 34.2646 70.9644Z" fill="white"/>
<path fill-rule="evenodd" clip-rule="evenodd" d="M21.0322 84.7251C21.3107 84.8641 20.8929 85.0031 21.0322 85.4201C15.3213 88.617 9.33186 92.9259 3.20312 95.0109C3.34241 93.0649 5.43175 92.2309 6.82465 91.5359C11.1426 89.034 16.4356 86.949 21.0322 84.7251Z" fill="white"/>
<path fill-rule="evenodd" clip-rule="evenodd" d="M21.4499 94.3159C20.8927 93.6209 22.0071 94.8719 21.4499 94.3159V94.3159Z" fill="white"/>
<path fill-rule="evenodd" clip-rule="evenodd" d="M28.9716 101.544C26.8822 105.019 24.5143 109.745 21.8678 113.497C21.0321 114.748 20.1963 115.999 19.082 116.694C21.45 111.69 25.9072 106.826 28.9716 101.544Z" fill="white"/>
<path fill-rule="evenodd" clip-rule="evenodd" d="M29.9468 103.49C27.8574 108.633 24.5145 114.47 20.4751 118.501C20.7537 115.721 23.9573 113.775 24.9324 110.995C26.7431 108.494 28.2753 105.992 29.9468 103.49Z" fill="white"/>
<path fill-rule="evenodd" clip-rule="evenodd" d="M18.3857 109.744C17.9678 110.717 16.8535 112.802 15.3213 113.636C16.157 111.968 17.5499 111.134 18.3857 109.744Z" fill="white"/>
</svg>
