<svg width="107" height="142" viewBox="0 0 107 142" fill="none" xmlns="http://www.w3.org/2000/svg">
<path fill-rule="evenodd" clip-rule="evenodd" d="M44.5992 33.2443C45.3116 33.2443 45.0267 34.0958 45.1691 34.6634C45.4541 35.9406 45.8815 37.5016 45.8815 38.6369C44.0293 39.0626 44.1718 35.6568 44.0293 33.67C44.3143 33.5281 44.1718 33.1024 44.5992 33.2443Z" fill="#403736"/>
<path fill-rule="evenodd" clip-rule="evenodd" d="M31.2061 36.2243C31.4911 37.5015 31.2061 38.9206 31.6335 40.0559C31.9185 40.7654 32.6309 41.1911 31.9185 41.9007C30.0662 41.7588 30.0662 38.4949 30.2087 36.5081C30.6362 36.0824 30.9211 35.9405 31.2061 36.2243Z" fill="#403736"/>
<path fill-rule="evenodd" clip-rule="evenodd" d="M16.103 36.7919C16.9579 36.65 17.5278 36.9338 17.5278 37.7853C17.6703 38.9206 15.6756 39.772 14.8207 40.3397C13.9658 41.0492 12.8259 42.1845 12.256 43.0359C10.8312 45.0227 9.12143 48.8542 9.40639 52.8276C9.54887 53.9629 9.97632 55.8077 10.4038 56.943C10.8312 58.2202 12.3985 60.4907 10.8312 60.9165C9.12143 61.4841 8.40902 58.6459 8.12406 57.6525C7.26917 54.9563 6.55677 52.4019 7.12669 49.2799C8.26654 44.1712 11.4011 38.7787 15.9605 36.65C15.9605 36.7919 16.103 36.7919 16.103 36.7919Z" fill="#403736"/>
<path fill-rule="evenodd" clip-rule="evenodd" d="M48.1614 42.1845C48.019 42.3264 48.019 42.4683 48.019 42.6103C47.5915 42.8941 47.0216 42.8941 46.7366 42.6103C46.3092 41.475 48.019 41.475 48.1614 42.1845Z" fill="#403736"/>
<path fill-rule="evenodd" clip-rule="evenodd" d="M45.0268 43.1779C44.4569 43.7456 43.4595 43.1779 43.1746 42.7522C43.1746 41.3331 45.4543 42.0426 45.0268 43.1779Z" fill="#403736"/>
<path fill-rule="evenodd" clip-rule="evenodd" d="M41.7498 44.0294C41.8923 43.7456 40.7525 43.6037 41.0374 42.7522C41.1799 42.6103 41.3224 42.7522 41.4649 42.4684C42.3197 42.6103 43.0321 43.036 43.4596 43.6037C43.4596 44.1713 43.1746 44.3132 42.6047 44.3132C42.8897 44.4551 43.0321 44.7389 43.0321 45.3066C42.8897 45.3066 42.7472 45.4485 42.7472 45.5904C41.1799 45.3066 40.04 44.597 38.6152 44.1713C38.6152 43.8875 38.6152 43.7456 38.6152 43.4617C39.4701 42.8941 40.8949 43.7456 41.7498 44.0294Z" fill="#403736"/>
<path fill-rule="evenodd" clip-rule="evenodd" d="M41.0372 46.158C40.8947 46.2999 40.8947 46.4419 40.8947 46.5838C39.4699 47.0095 38.0451 45.5904 36.6203 45.4485C36.6203 45.3066 36.6203 45.1647 36.4778 45.1647C36.6203 43.4618 40.4673 45.5904 41.0372 46.158Z" fill="#403736"/>
<path fill-rule="evenodd" clip-rule="evenodd" d="M39.6123 49.28C38.7574 49.7057 38.33 48.8542 37.9026 48.4285C36.4778 47.4351 34.1981 47.2932 32.4883 46.5837C32.4883 46.158 32.4883 45.8741 32.9157 45.7322C34.483 45.7322 36.0503 46.158 37.4751 46.8675C38.33 47.4352 39.8973 48.0028 39.6123 49.28Z" fill="#403736"/>
<path fill-rule="evenodd" clip-rule="evenodd" d="M74.663 49.28C74.948 50.1314 73.9506 50.2733 73.5232 49.8476C73.3807 49.1381 74.2356 48.8543 74.663 49.28Z" fill="#403736"/>
<path fill-rule="evenodd" clip-rule="evenodd" d="M77.085 52.402C76.2301 52.9696 75.2328 52.1182 74.6628 51.5505C74.8053 50.1315 77.2275 51.2667 77.085 52.402Z" fill="#403736"/>
<path fill-rule="evenodd" clip-rule="evenodd" d="M79.792 60.207C78.9371 59.6394 77.7973 59.2136 76.6574 58.646C75.6601 58.2203 74.2353 57.9364 74.0928 56.8012C75.8026 56.2335 77.2274 57.7945 78.6522 58.3622C78.9371 58.0784 79.0796 57.6526 79.3646 57.2269C79.3646 56.9431 79.0796 57.085 79.0796 56.9431C78.5097 56.6593 78.3672 57.7945 77.6548 57.2269C77.3698 56.8012 77.3698 56.5174 77.6548 56.0916C76.515 55.3821 74.6627 55.3821 73.8078 54.2468C74.2353 53.1115 75.8026 54.2468 76.515 54.3887C75.945 53.8211 73.6653 53.6792 74.8052 52.5439C75.8026 52.5439 76.23 53.1115 77.0849 53.2535C77.5123 52.8277 77.0849 51.4086 77.9398 51.4086C78.7947 51.5505 78.5097 52.9696 78.3672 53.6792C78.7947 53.5373 78.6522 52.6858 79.5071 52.8277C80.2195 53.3954 79.5071 54.8144 79.2221 55.524C79.2221 55.8078 79.792 55.6659 79.792 55.9497C80.3619 55.524 79.3646 53.8211 80.5044 53.8211C82.0717 54.9564 80.6469 57.7945 79.9345 58.7879C80.077 58.7879 80.2195 58.9298 80.3619 59.0717C81.3593 58.0784 81.7868 56.3754 82.2142 54.8144C82.4992 54.8144 82.6416 54.8144 82.9266 54.8144C83.639 56.6593 82.0717 58.2203 81.6443 59.6394C83.2116 59.3555 82.6416 56.8012 84.0665 56.3754C85.4913 57.5107 83.0691 59.3555 83.0691 61.0584C82.4992 61.4842 82.0717 62.1937 81.9292 62.9033C83.0691 63.329 83.639 58.7879 84.7789 58.9298C86.0612 58.9298 84.7789 61.0584 84.4939 61.4842C83.924 62.6194 83.3541 62.9033 83.2116 64.0385C84.6364 63.1871 84.4939 60.6327 86.4886 60.207C87.0586 60.7746 86.3462 61.6261 86.0612 62.1937C85.6337 62.7613 85.3488 63.4709 84.9213 64.0385C84.6364 64.4643 83.4965 66.1672 82.9266 66.3091C82.2142 66.451 80.5044 65.1738 79.3646 64.4643C77.0849 63.1871 75.6601 61.768 72.668 61.3423C72.668 61.0584 72.668 60.9165 72.668 60.6327C76.515 59.9232 78.3672 63.329 81.5018 64.0385C80.9319 63.0452 79.6495 62.4775 78.5097 61.768C77.5123 61.0584 76.23 60.3489 75.0901 60.0651C74.5202 59.9232 73.8078 60.3489 73.5229 59.6394C73.5229 58.7879 74.5202 58.9298 75.0901 58.9298C76.6574 59.0717 78.5097 60.4908 79.6495 61.0584C79.792 61.768 79.3646 60.4908 79.792 60.207ZM79.9345 61.6261C80.3619 61.6261 80.3619 62.0518 80.9319 62.0518C80.9319 61.4842 81.3593 61.3423 81.3593 60.7746C80.6469 60.7746 80.6469 61.6261 79.9345 61.6261ZM82.4992 65.1738C82.4992 65.0319 82.6416 64.89 82.7841 64.7481C82.2142 64.4643 82.0717 65.0319 82.4992 65.1738Z" fill="#403736"/>
<path fill-rule="evenodd" clip-rule="evenodd" d="M87.3436 62.7613C87.6286 63.4708 87.0587 64.0385 86.7737 64.6061C87.9135 65.5995 86.4887 67.1605 85.6338 67.7281C85.2064 67.7281 85.0639 67.5862 85.0639 67.1605C84.779 67.3024 84.209 67.3024 83.9241 67.0185C84.209 65.0318 85.7763 64.3223 86.4887 62.7613C86.7737 62.6194 87.0587 62.6194 87.3436 62.7613Z" fill="#403736"/>
<path fill-rule="evenodd" clip-rule="evenodd" d="M75.0901 76.5265C75.3751 78.5132 76.3725 82.2028 75.5176 84.3315C74.3777 84.6153 74.8052 83.3381 74.6627 82.4867C74.5202 80.9257 74.0928 78.0875 74.0928 76.9522C74.3777 76.8103 74.5202 76.3846 75.0901 76.5265Z" fill="#403736"/>
<path fill-rule="evenodd" clip-rule="evenodd" d="M76.0877 98.0967C75.5178 98.8062 74.093 98.8062 72.9532 98.8062C71.5284 98.9481 69.9611 98.8062 68.3938 98.8062C66.969 98.8062 65.2592 99.0901 64.4043 98.3805C64.8317 97.2452 66.684 97.671 68.1088 97.671C70.1035 97.671 72.0983 97.671 73.8081 97.5291C74.8054 97.5291 75.9453 96.9614 76.0877 98.0967Z" fill="#403736"/>
<path fill-rule="evenodd" clip-rule="evenodd" d="M73.523 101.36C73.0956 102.212 71.9557 101.786 71.1008 101.786C69.8185 101.786 68.3937 102.07 66.9689 102.212C65.829 102.212 64.4042 102.496 63.5493 101.786C63.8343 100.509 66.3989 100.935 67.5388 100.793C68.3937 100.793 69.391 100.793 70.2459 100.651C71.6707 100.651 73.3805 100.225 73.523 101.36Z" fill="#403736"/>
<path fill-rule="evenodd" clip-rule="evenodd" d="M72.0983 104.341C71.9558 105.476 69.9611 105.476 68.8212 105.618C67.5389 105.76 65.8291 106.327 65.1167 105.476C65.5441 104.483 67.3964 104.624 68.5362 104.341C69.8186 104.199 71.3859 103.631 72.0983 104.341Z" fill="#403736"/>
<path fill-rule="evenodd" clip-rule="evenodd" d="M72.5256 107.179C72.3831 108.456 69.9609 108.74 68.3936 109.024C67.3962 109.166 65.9714 109.166 65.259 108.74C65.4015 107.463 66.9688 108.03 67.9662 107.888C69.5335 107.605 71.3857 106.753 72.5256 107.179Z" fill="#403736"/>
<path fill-rule="evenodd" clip-rule="evenodd" d="M73.6655 109.733C73.9505 111.294 71.6708 111.152 70.1035 111.436C68.5362 111.578 66.399 112.146 65.4016 111.436C65.2591 110.301 66.399 110.727 67.1114 110.585C69.2486 110.301 71.8132 110.017 73.6655 109.733Z" fill="#403736"/>
<path fill-rule="evenodd" clip-rule="evenodd" d="M72.8105 114.132C72.5255 114.7 71.2432 114.7 70.2458 114.842C69.6759 114.842 68.9635 114.984 68.3936 114.984C67.1112 114.984 65.5439 115.268 64.8315 114.558C65.1165 113.423 66.8263 113.849 68.1086 113.849C69.9609 113.707 72.383 112.855 72.8105 114.132Z" fill="#403736"/>
<path fill-rule="evenodd" clip-rule="evenodd" d="M72.668 116.119C72.9529 117.254 70.9582 116.971 69.8183 117.112C68.536 117.254 67.3962 117.822 66.9687 117.254C66.5413 116.119 68.536 116.119 69.6759 115.977C70.8157 115.835 72.2405 115.551 72.668 116.119Z" fill="#403736"/>
<path fill-rule="evenodd" clip-rule="evenodd" d="M66.6838 119.951C66.6838 119.667 66.6838 119.525 66.6838 119.241C67.6812 119.099 70.3883 118.248 71.3857 118.39C71.6707 118.39 72.2406 118.673 72.2406 119.099C71.9556 120.093 67.5387 120.234 66.6838 119.951Z" fill="#403736"/>
<path fill-rule="evenodd" clip-rule="evenodd" d="M73.8081 121.228C73.6656 122.363 70.9585 122.363 70.2461 121.654C70.2461 120.518 73.3807 120.66 73.8081 121.228Z" fill="#403736"/>
<path fill-rule="evenodd" clip-rule="evenodd" d="M61.8394 132.864C63.1218 132.297 64.4041 129.458 66.2564 129.742C67.3962 129.884 67.3962 131.303 67.9661 132.297C69.2485 131.729 73.0955 129.6 73.0955 132.155C73.0955 133.006 71.6706 134.283 71.1007 134.993C70.2458 135.986 69.5334 136.838 68.9635 137.689C71.2432 138.966 69.5334 141.521 67.1112 141.805C61.697 142.514 55.5703 141.095 50.7259 140.669C48.1613 140.527 45.7391 141.237 44.5992 139.818C44.5992 138.399 45.0267 137.122 46.4515 137.122C46.1665 135.844 45.4541 135.135 44.8842 133.858C44.1718 132.013 42.8894 128.891 46.1665 129.742C47.5913 130.026 49.0161 131.445 50.156 132.155C51.0109 131.303 52.0082 127.756 54.003 129.033C54.8579 129.6 54.7154 131.871 55.8552 132.013C56.9951 132.155 57.9925 129.458 59.4173 129.458C60.9846 129.458 61.127 131.729 61.8394 132.864ZM51.4383 134.425C49.5861 135.419 48.4462 133.574 47.0214 133.006C47.5913 134.283 48.1613 135.844 48.8737 136.98C54.8579 136.554 60.2722 137.689 66.2564 137.689C66.5413 136.412 67.3962 135.702 67.9661 134.567C66.5413 134.425 65.8289 133.716 65.4015 132.58C64.2616 133.148 63.8342 134.709 62.6943 135.135C60.8421 135.702 59.5597 134.141 59.1323 132.439C58.1349 132.864 57.565 134.283 56.2827 134.425C54.2879 134.851 53.5755 133.574 52.5782 132.439C52.2932 133.148 51.8658 133.858 51.4383 134.425Z" fill="#403736"/>
<path fill-rule="evenodd" clip-rule="evenodd" d="M79.6492 10.1133C81.5015 9.82949 82.6413 8.97804 84.3511 8.83613C89.053 8.26849 93.6124 10.8229 94.1823 14.5125C94.6097 17.3507 93.7549 20.0469 91.6176 21.466C93.1849 24.4461 93.6124 31.5416 91.3327 33.3864C89.3379 34.9474 85.0635 36.5084 82.9263 34.5216C80.9315 35.515 78.0819 36.2246 75.2323 35.9407C77.6545 38.7789 75.2323 43.1781 73.95 45.7324C76.9421 47.8611 80.6466 49.2802 83.7812 51.9764C87.3432 55.2403 90.1928 60.2072 92.4725 64.7482C94.1823 68.1541 96.6045 72.4113 97.0319 76.9524C97.1744 78.3715 96.7469 78.7972 96.6045 79.9325C96.3195 81.3516 96.462 82.3449 94.6097 82.6288C95.8921 84.8993 95.7496 88.447 96.6045 91.0014C101.164 90.8595 105.296 92.2786 106.436 95.8263C107.006 97.3873 107.006 98.8064 106.008 100.225C104.298 103.064 101.021 105.476 96.8894 105.76C96.0345 109.308 95.6071 114.558 94.4673 118.106C93.7548 120.377 91.3327 121.086 88.3406 121.796C82.7838 123.073 77.227 125.485 71.5278 126.195C67.6808 126.621 63.6913 127.472 59.5594 127.898C55.7124 128.323 51.5804 127.898 47.591 127.614C45.7387 127.472 43.8864 127.614 42.1767 127.33C38.8996 126.904 35.6225 125.911 32.6304 125.201C29.3534 124.492 26.2188 123.64 23.5116 122.647C21.5169 121.938 18.9522 120.377 18.0974 118.674C16.6725 116.119 16.3876 113.139 15.2477 110.301C10.4034 109.591 3.27931 109.166 2.99435 104.057C2.70939 98.6645 6.98382 96.3939 12.5406 96.252C12.6831 92.1367 12.968 87.7375 13.3955 84.3317C13.538 83.764 13.6804 82.7707 13.9654 82.203C14.2504 81.7773 14.9628 81.4935 15.3902 80.9259C15.8177 80.3582 15.9601 79.7906 16.5301 79.3649C17.8124 78.3715 19.9496 77.662 21.9443 76.8105C27.6436 74.54 33.9128 73.1209 41.3218 72.5532C45.8812 72.1275 50.5831 72.6951 54.8575 71.9856C50.0131 69.7151 44.5989 67.4445 39.4695 64.4644C35.765 62.3358 32.0605 60.3491 28.2135 58.5042C25.2214 56.9433 20.2346 55.5242 20.8045 50.5574C20.947 49.564 21.5169 48.5706 22.0868 47.8611C19.5222 47.4354 18.3823 45.5905 17.8124 43.0362C16.9575 43.32 16.2451 44.1715 15.3902 45.0229C14.8203 45.7324 14.1079 47.2934 13.1105 47.2934C10.8308 47.4354 12.5406 44.7391 13.253 44.0295C13.9654 43.1781 14.5353 42.6105 15.1053 42.0428C16.815 40.6237 17.9549 39.2046 19.9496 39.0627C21.2319 40.3399 19.0947 43.7457 21.0895 45.1648C21.5169 45.4486 22.7992 45.3067 23.6541 45.7324C24.0816 45.8744 23.9391 46.1582 24.224 46.1582C24.6515 46.1582 24.9364 45.4486 25.3639 45.4486C24.6515 44.0295 24.224 42.3266 24.224 39.7723C24.224 38.3532 23.9391 35.0893 24.6515 34.9474C25.7913 34.6636 25.3639 38.637 25.3639 39.4885C25.5064 41.6171 25.6489 43.6038 26.5037 44.7391C27.0737 44.5972 27.5011 44.3134 27.9286 44.0295C27.2161 42.8943 27.0737 40.198 27.0737 37.7855C27.0737 36.7922 26.9312 35.515 28.2135 35.6569C28.641 37.6436 27.7861 41.759 29.2109 43.1781C30.9207 42.6105 32.3455 41.9009 33.9128 41.3333C33.4853 40.0561 32.9154 37.7855 32.7729 35.9407C32.6304 34.5216 32.3455 32.6768 33.3428 31.9673C34.4827 32.6768 33.9128 34.3797 33.9128 35.7988C34.0552 37.6436 34.4827 39.7723 35.0526 40.9075C35.765 40.9075 36.1925 40.4818 36.9049 40.4818C36.1925 38.637 35.9075 36.2246 35.9075 33.2445C35.9075 32.2511 35.6225 30.832 36.3349 30.2644C37.4748 30.5482 37.0473 32.1092 37.0473 32.9606C37.0473 35.6569 37.1898 38.3532 38.1872 39.9142C38.6146 40.0561 38.7571 39.7723 39.1846 39.7723C39.327 38.637 39.0421 37.2179 38.7571 35.7988C38.6146 34.5216 37.9022 32.6768 39.327 32.393C39.897 33.2445 39.7545 34.6636 39.897 35.9407C40.0395 37.2179 40.1819 38.3532 40.4669 39.3465C41.0368 39.3465 41.3218 39.2046 42.0342 39.2046C42.0342 38.637 41.7492 37.7855 41.6067 36.9341C41.3218 35.515 40.8943 33.3864 42.0342 32.9606C42.7466 33.5283 42.6041 34.9474 42.7466 35.9407C42.8891 37.076 42.8891 38.2113 43.3165 39.0627C44.4564 39.3465 46.0237 39.0627 47.306 39.2046C47.591 37.7855 46.1661 35.3731 46.8785 34.2378C48.1609 34.3797 48.1609 36.6503 48.4458 37.9275C48.5883 38.3532 48.1609 39.2046 48.7308 39.2046C49.7282 38.9208 47.591 35.7988 49.4432 35.515C50.4406 36.0826 49.7282 38.3532 50.4406 39.2046C50.868 39.4885 51.5804 39.2046 52.2928 39.3465C52.2928 38.3532 51.2955 36.6503 52.1504 35.9407C53.5752 36.2246 52.8628 38.637 53.7176 39.4885C54.1451 39.6304 54.715 39.6304 55.1425 39.9142C55.1425 39.4885 54.2876 37.2179 55.2849 37.076C56.2823 36.9341 56.4248 39.2046 55.7124 40.0561C56.1398 40.0561 56.4248 40.198 56.8522 40.3399C56.5673 39.2046 57.8496 39.0627 57.7071 38.0694C57.5646 37.076 55.9973 37.2179 56.2823 35.9407C56.4248 35.2312 57.2797 35.2312 57.8496 34.8055C58.7045 34.3797 60.4143 33.3864 60.6992 32.5349C61.1267 30.9739 60.1293 29.5548 59.5594 28.5615C59.1319 27.8519 57.9921 27.1424 57.8496 26.5747C57.7071 26.0071 57.9921 25.2976 57.8496 24.8718C57.2797 22.6013 52.2928 21.466 49.0158 22.1756C48.4458 22.3175 47.7334 22.8851 47.1635 22.6013C46.0237 22.3175 46.5936 21.0403 46.0237 20.0469C45.0263 18.6278 42.1767 18.0602 39.7545 18.2021C39.0421 18.2021 38.4722 18.6278 37.9022 18.344C37.0473 17.9183 37.7598 16.9249 37.7598 15.7897C38.0447 12.2419 34.7677 8.97804 31.6331 8.69422C29.2109 8.4104 25.9338 8.97804 23.7966 10.1133C22.0868 11.1067 20.0921 12.6677 20.3771 15.7897C20.5195 17.0668 21.8019 19.7631 19.5222 19.3374C18.6673 19.1955 18.2398 17.7764 17.6699 17.3507C14.5353 14.6544 7.26879 17.4926 4.70413 20.1888C0.857135 24.0204 2.99435 32.1092 7.12631 34.5216C7.83871 34.5216 8.40864 33.3864 9.406 32.6768C10.2609 32.1092 12.968 30.2644 12.968 32.393C12.968 33.5283 10.9733 34.3797 10.4034 34.9474C9.12104 35.9407 7.98119 37.5017 7.12631 38.9208C5.84398 41.3333 4.41916 44.881 4.1342 47.5773C3.4218 54.1051 6.55638 60.491 9.69097 64.4644C10.6883 65.7416 12.2556 67.1607 13.6804 67.7283C14.6778 68.1541 16.2451 68.1541 15.2477 69.857C12.6831 70.7084 9.406 67.8702 8.12367 66.3092C5.55901 63.3292 2.28195 57.2271 1.8545 52.2603C1.28458 45.4486 3.56428 40.9075 5.84398 36.6503C0.714654 33.3864 -1.85001 23.027 3.27931 18.2021C5.84398 15.7897 12.8256 12.5258 18.2398 14.5125C18.2398 11.8162 19.3797 10.6809 20.947 9.26186C21.5169 8.69422 22.0868 7.98468 22.7992 7.70086C25.5064 6.13986 29.4958 5.71413 32.7729 5.99795C37.1898 6.42368 40.1819 10.8229 40.3244 15.3639C44.4564 15.3639 47.4485 16.4992 48.7308 19.3374C49.5857 19.1955 50.5831 19.1955 51.5804 19.1955C49.8707 14.2287 51.2955 7.41704 57.4222 7.98468C57.8496 3.01786 63.8338 1.17305 68.8206 0.889231C73.95 0.605413 78.5094 4.29504 79.3643 7.98468C79.6492 8.69422 79.6492 9.40377 79.6492 10.1133ZM82.4988 27.4262C82.2139 29.1291 81.644 31.1158 80.9315 32.5349C82.0714 32.1092 81.2165 29.5548 83.4962 30.1225C83.4962 29.271 83.9237 28.7034 84.2086 27.71C84.3511 27.0005 84.2086 25.4395 85.206 25.5814C86.3458 25.8652 85.206 28.4196 84.921 29.271C84.4936 30.6901 83.6387 32.1092 84.921 32.6768C85.3485 31.6835 85.7759 30.4063 86.0609 29.271C86.3458 28.1357 86.3458 26.2909 87.9131 26.2909C88.1981 28.4196 86.6308 30.6901 86.2034 32.8187C86.9158 32.8187 87.3432 32.5349 87.9131 32.5349C88.1981 31.1158 88.0556 28.4196 89.7654 28.1357C90.3353 29.1291 89.1955 30.5482 89.1955 31.6835C89.6229 31.6835 90.1928 30.9739 90.3353 30.5482C90.6203 29.5548 90.6203 24.8718 89.9079 23.3108C89.4804 22.4594 88.1981 21.7498 88.3406 20.7565C88.6255 19.4793 91.6176 19.1955 91.6176 17.6345C92.1876 13.3772 90.0503 11.5324 86.4883 11.1067C83.9237 10.8229 82.4988 11.5324 80.7891 12.2419C79.6492 12.6677 78.3669 13.5191 77.512 13.3772C75.6597 12.9515 77.3695 10.539 77.3695 9.82949C77.3695 9.54568 77.3695 8.83613 77.0846 8.26849C76.2297 5.99795 73.2376 3.5855 70.3879 3.30168C66.6834 3.01786 62.2665 4.43695 60.6992 5.99795C60.2718 6.42368 59.7019 7.27513 59.7019 7.84277C59.7019 8.55231 60.5567 9.11995 60.4143 9.82949C60.1293 11.3905 58.847 10.539 57.9921 10.3971C56.7098 10.2552 55 10.2552 54.1451 11.2486C52.4353 13.3772 52.4353 17.9183 54.4301 19.6212C57.4222 20.4727 60.1293 21.6079 60.1293 25.2976C61.4116 26.5747 62.124 28.2777 62.8364 29.9806C63.4064 28.8453 64.1188 27.71 64.6887 26.4328C65.2586 25.2976 65.2586 23.4527 66.541 22.8851C67.3958 24.3042 66.256 25.7233 65.6861 27.0005C65.1161 28.4196 64.6887 29.9806 63.6913 30.832C63.4064 30.9739 62.9789 30.4063 63.1214 30.9739C66.541 31.6835 67.5383 28.4196 68.6782 26.149C69.3906 24.8718 69.5331 23.3108 70.8154 22.8851C71.5278 24.1623 70.2455 25.4395 69.6755 26.5747C68.9631 27.8519 68.3932 29.1291 67.8233 30.2644C68.5357 30.6901 68.2507 32.1092 68.9631 32.5349C70.6729 30.9739 71.6703 28.5615 72.2402 26.149C72.3827 25.4395 72.3827 24.1623 73.2376 23.7366C74.3774 24.3042 73.665 25.8652 73.3801 26.7167C72.6676 29.271 71.5278 31.2577 70.5304 32.9606C71.5278 32.9606 72.2402 32.9606 72.8101 33.3864C73.665 31.9673 74.8049 29.6967 75.3748 27.8519C75.5173 27.2843 75.2323 24.588 76.3721 24.7299C76.9421 24.8718 76.7996 25.5814 76.7996 26.149C76.7996 29.1291 74.9473 31.1158 74.3774 33.3864C74.9473 33.3864 75.3748 33.6702 76.0872 33.6702C77.0846 31.2577 78.3669 28.5615 78.9368 25.8652C79.0793 25.2976 78.6518 24.1623 79.7917 24.1623C80.3616 24.588 80.2191 25.4395 80.2191 26.0071C79.9342 28.7034 78.2244 31.2577 77.6545 33.6702C78.2244 33.5283 78.7943 33.5283 79.3643 33.2445C79.7917 32.1092 80.5041 30.832 80.9315 29.4129C81.359 27.9938 81.2165 25.8652 82.4988 25.4395C83.3537 25.7233 82.6413 26.7167 82.4988 27.4262ZM63.1214 33.3864C62.2665 34.5216 60.9842 35.2312 59.8443 36.0826C60.4143 36.6503 60.1293 37.9275 60.2718 38.9208C59.9868 39.4885 59.1319 39.9142 59.2744 40.3399C61.1267 40.6237 62.5515 41.4752 64.4037 41.759C65.971 39.6304 64.6887 34.8055 67.5383 33.8121C66.6834 32.1092 64.9737 34.0959 63.1214 33.3864ZM72.3827 41.759C71.8128 41.1914 70.9579 41.1914 70.8154 40.198C70.8154 40.0561 70.9579 39.9142 71.2428 39.7723C72.3827 39.6304 72.6676 40.9075 73.5225 40.7656C73.2376 39.6304 70.103 38.3532 72.3827 37.5017C72.9526 37.9275 73.0951 38.7789 73.95 39.0627C73.8075 36.5084 70.6729 35.2312 68.2507 36.3665C67.6808 38.4951 67.8233 41.1914 66.8259 42.7524C68.6782 43.32 70.2455 44.0295 71.9552 44.5972C71.9552 43.7457 70.6729 43.8876 70.5304 43.1781C70.3879 42.6105 70.9579 42.6105 70.9579 42.3266C70.5304 42.1847 70.3879 41.9009 70.5304 41.1914C70.6729 41.1914 70.8154 41.0495 70.9579 40.9075C71.3853 41.0495 71.9552 41.9009 72.3827 41.759ZM86.2034 58.7881C85.0635 57.2271 83.9237 55.3823 82.6413 54.1051C80.9315 52.4022 78.5094 50.9831 76.0872 49.7059C73.665 48.4287 71.3853 47.0096 68.8206 45.8744C66.1135 44.7391 63.2639 44.0295 60.4143 43.1781C56.9947 42.0428 53.2902 41.4752 49.7282 41.1914C44.4564 40.7656 40.4669 41.6171 36.7624 42.8943C33.0579 44.1715 29.7808 45.3067 27.2161 47.2934C32.6304 47.4354 37.1898 50.4154 42.0342 51.9764C44.5989 52.8279 47.021 53.3955 49.4432 54.3889C51.7229 55.2403 54.1451 56.2337 56.4248 57.0852C66.256 60.9167 77.6545 64.3225 85.9184 69.4312C85.7759 68.7217 86.4883 68.1541 86.7733 67.5864C87.0582 67.1607 87.2007 66.1673 88.0556 66.3092C88.9105 67.5864 87.2007 68.8636 86.4883 69.7151C87.2007 69.9989 88.0556 71.2761 88.6255 70.8503C88.768 69.857 87.6282 70.1408 87.4857 69.4312C87.6282 68.8636 87.7706 68.296 88.483 68.296C89.3379 69.0055 90.3353 70.5665 89.6229 71.9856C90.4778 72.6951 91.7601 73.4047 92.615 74.1142C93.1849 74.54 93.7549 75.8171 94.1823 75.6752C92.4725 69.2893 89.4804 63.613 86.2034 58.7881ZM25.6489 49.9897C26.9312 51.4088 26.3613 55.6661 28.4985 55.9499C27.6436 53.9632 27.2161 51.6926 26.5037 49.7059C26.2188 49.7059 25.9338 49.7059 25.5064 49.7059C25.5064 49.7059 25.6489 49.8478 25.6489 49.9897ZM30.0658 56.8013C30.4932 57.0852 30.9207 57.2271 31.3481 57.5109C30.6357 54.6727 29.3534 52.4022 28.641 49.7059C28.2135 49.8478 28.2135 49.564 27.7861 49.564C28.4985 51.9764 29.2109 54.5308 30.0658 56.8013ZM23.6541 49.9897C23.9391 51.6926 25.3639 52.8279 25.2214 54.6727C25.5064 54.6727 25.7913 55.0984 26.0763 54.8146C25.5064 53.1117 25.0789 51.125 24.224 49.8478C24.0816 49.9897 23.6541 49.8478 23.6541 49.9897ZM33.2004 58.5042C33.6278 58.7881 34.1977 59.2138 34.7677 59.3557C33.6278 56.3756 32.488 53.2536 31.3481 50.2735C30.9207 50.1316 30.4932 50.1316 30.0658 49.8478C31.0631 52.8279 32.0605 55.6661 33.2004 58.5042ZM36.3349 60.0653C37.1898 60.491 37.7598 61.0586 38.7571 61.3424C37.4748 57.9366 35.6225 54.9565 34.4827 51.4088C33.9128 51.2669 33.2004 51.125 32.7729 50.8412C33.9128 53.9632 35.0526 57.0852 36.3349 60.0653ZM40.4669 62.4777C40.8943 62.7615 41.4643 63.0453 42.0342 63.3292C41.1793 59.4976 39.612 56.0918 38.0447 52.8279C37.3323 52.5441 36.7624 52.2603 36.05 51.9764C37.3323 55.6661 39.1846 58.6462 40.4669 62.4777ZM43.6015 64.0387C44.1714 64.3225 44.7413 64.6063 45.3113 65.0321C44.3139 61.2005 42.8891 57.9366 41.8917 54.247C41.1793 54.1051 40.7519 53.6793 40.0395 53.6793C41.1793 56.9433 42.6041 60.3491 43.6015 64.0387ZM46.5936 65.7416C47.1635 66.0254 47.591 66.3092 48.3034 66.4511C47.021 63.0453 45.7387 59.4976 44.5989 55.9499C44.5989 55.5242 44.5989 55.2403 44.7413 54.8146C44.1714 54.8146 43.459 54.3889 42.8891 54.5308C44.4564 58.0785 45.5962 61.9101 46.5936 65.7416ZM49.8707 67.0188C50.5831 67.4445 51.438 67.7283 52.2928 68.1541C51.5804 65.5997 50.4406 62.7615 49.7282 60.0653C49.5857 59.3557 48.8733 57.7947 50.0131 57.5109C50.868 58.0785 50.868 59.3557 51.153 60.2072C52.0079 63.1872 53.1477 66.0254 54.0026 68.8636C54.715 69.1474 55.2849 69.5731 55.9973 69.857C54.5725 66.1673 53.5752 61.9101 52.4353 57.9366C50.4406 57.0852 48.0184 56.0918 45.8812 55.6661C47.021 59.3557 48.4458 63.1872 49.8707 67.0188ZM57.1372 69.7151C57.2797 70.1408 56.9947 70.1408 56.9947 70.4246C57.7071 70.8503 58.562 70.9922 59.4169 71.418C58.1346 67.4445 56.9947 63.4711 55.8549 59.3557C55.1425 59.2138 54.5725 58.7881 53.8601 58.6462C54.715 62.4777 55.7124 66.3092 57.1372 69.7151ZM60.8417 71.8437C61.4116 71.9856 61.8391 72.1275 62.5515 72.1275C61.9816 68.296 59.9868 64.7482 59.2744 60.7748C58.7045 60.3491 58.1346 60.0652 57.4222 59.9233C58.277 63.8968 59.5594 67.8702 60.8417 71.8437ZM63.9763 72.1275C64.5462 72.2694 64.6887 71.9856 65.1161 71.9856C64.4037 68.296 63.1214 65.0321 61.9816 61.6262C61.4116 61.4843 60.9842 61.2005 60.4143 61.0586C61.5541 64.8902 62.9789 68.296 63.9763 72.1275ZM66.541 72.1275C66.9684 72.1275 67.6808 72.4113 68.1082 72.1275C67.5383 70.7084 67.2534 69.4312 66.8259 68.0121C66.256 66.3092 65.1161 64.6063 65.2586 62.7615C64.6887 62.6196 63.9763 62.3358 63.4064 62.1939C64.6887 65.3159 65.5436 68.8636 66.541 72.1275ZM69.3906 72.5532C70.103 72.5532 70.6729 72.6951 71.2428 72.8371C70.3879 69.7151 68.8206 67.3026 68.1082 64.1806C67.5383 63.7549 66.9684 63.4711 66.256 63.3292C67.3958 66.1673 68.5357 69.2893 69.3906 72.5532ZM69.6755 64.7482C70.3879 66.8769 71.5278 69.1474 72.2402 71.1341C72.5252 71.7018 72.2402 73.1209 73.3801 72.979C72.9526 69.7151 72.3827 65.5997 69.5331 64.3225C69.5331 64.6063 69.5331 64.7482 69.6755 64.7482ZM73.95 69.7151C74.2349 70.8503 74.2349 72.979 75.5173 73.1209C74.8049 70.5665 74.2349 68.0121 73.2376 65.5997C72.9526 65.7416 72.6676 65.174 72.5252 65.5997C73.2376 66.5931 73.5225 68.1541 73.95 69.7151ZM76.7996 73.2628C77.227 73.1209 77.3695 73.4047 77.797 73.4047C77.3695 72.1275 77.0846 70.8503 76.6571 69.7151C76.2297 68.5798 75.8022 67.3026 75.0898 66.4511C74.9473 66.4511 74.9473 66.3092 74.8049 66.4511C75.6597 68.5798 76.2297 70.9922 76.7996 73.2628ZM79.0793 73.6885C79.5067 73.6885 79.7917 73.9723 80.2191 73.9723C78.9368 71.8437 79.2218 68.4379 76.9421 67.3026C77.512 69.4312 78.5094 71.2761 79.0793 73.6885ZM79.9342 69.4312C80.2191 70.2827 80.3616 71.418 80.7891 72.2694C81.074 73.1209 81.359 74.2561 82.0714 74.6819C81.359 72.8371 81.2165 70.5665 80.0767 69.2893C80.0767 69.1474 79.9342 69.1474 79.7917 69.1474C79.7917 69.1474 79.7917 69.4312 79.9342 69.4312ZM82.0714 70.2827C82.0714 70.1408 81.9289 70.1408 82.0714 70.2827C82.6413 71.9856 82.7838 74.1142 83.9237 75.3914C83.3537 73.5466 82.9263 71.7018 82.0714 70.2827ZM85.4909 72.2694C86.2034 73.8304 86.3458 75.8171 87.4857 76.8105C87.0582 75.1076 86.3458 73.5466 85.4909 72.2694ZM66.1135 74.8238C62.5515 74.54 58.9894 73.6885 55.4274 74.1142C55.2849 74.1142 55.2849 74.2561 55 74.2561C45.0263 74.8238 34.6252 74.6819 26.7887 77.662C27.5011 77.662 27.2161 77.9458 27.3586 78.3715C27.7861 80.2163 27.6436 82.6288 27.7861 84.8993C27.9286 87.1699 28.071 89.4404 28.641 91.1433C29.2109 90.5757 31.2056 90.1499 31.4906 89.2985C31.6331 88.7309 31.2056 87.3118 31.0631 86.1765C30.6357 83.9059 30.3507 81.9192 30.0658 79.7906C29.9233 78.9391 29.3534 77.3781 30.4932 77.0943C31.3481 77.662 31.0631 78.9391 31.2056 79.7906C31.6331 82.9126 32.203 86.0346 32.6304 88.8728C34.9101 88.3051 37.3323 87.1699 39.897 86.4603C46.0237 84.8993 53.8601 85.325 61.2691 85.8927C67.2534 86.3184 73.2376 86.1765 77.797 87.7375C77.6545 83.3383 77.512 79.223 76.6571 75.6752C73.3801 74.9657 69.818 75.2495 66.1135 74.8238ZM85.4909 75.9591C85.3485 75.3914 85.206 74.8238 84.921 74.398C85.0635 74.9657 84.921 75.6752 85.4909 75.9591ZM79.0793 87.8794C79.5067 88.3051 80.3616 88.3051 80.9315 88.5889C80.9315 84.6155 81.074 80.5001 80.5041 76.9524C79.6492 76.8105 78.6519 75.959 77.9394 76.101C78.9368 79.5068 78.9368 83.6221 79.0793 87.8794ZM82.2139 89.2985C83.4962 90.008 84.921 91.8529 86.9158 91.0014C87.2007 87.3118 87.2007 83.1964 87.0582 79.3649C86.6308 79.081 86.0609 78.7972 85.4909 78.6553C85.4909 81.6354 86.2034 86.3184 85.7759 89.2985C85.6334 89.8661 85.6334 90.7176 84.7785 90.7176C84.0661 90.2918 84.4936 89.2985 84.4936 88.5889C84.6361 85.325 84.3511 81.3516 84.2086 78.0877C83.4962 77.9458 82.4988 77.3781 81.7864 77.5201C82.3564 80.9259 82.0714 85.325 82.2139 89.2985ZM23.7966 78.5134C23.7966 82.9126 24.0816 87.1699 24.9365 90.5757C25.6489 90.8595 26.5037 91.0014 27.3586 91.1433C26.9312 87.5956 26.0763 82.6288 26.0763 78.9391C26.0763 78.3715 26.3613 77.8039 26.0763 77.662C25.2214 77.8039 24.6515 78.3715 23.7966 78.5134ZM20.947 79.7906C20.947 83.3383 21.2319 86.886 21.8019 89.8661C22.3718 90.008 22.7992 90.1499 23.5116 90.1499C22.7992 86.7441 22.7992 82.6288 22.3718 78.9391C22.0868 79.3649 21.2319 79.3649 20.947 79.7906ZM91.9026 79.7906C92.1876 79.7906 92.4725 80.5001 92.615 80.0744C92.33 79.9325 92.4725 79.3649 92.1876 79.223C92.1876 79.6487 91.9026 79.5068 91.9026 79.7906ZM88.0556 90.1499C88.6255 90.1499 88.9105 89.5823 89.4804 89.5823C89.7654 86.7441 89.6229 83.3383 89.4804 80.5001C89.053 80.2163 88.6255 79.9325 88.1981 79.7906C88.3406 83.1964 88.3406 87.0279 88.0556 90.1499ZM18.8098 80.784C19.3797 83.6221 18.5248 88.3051 20.662 89.4404C20.0921 86.6022 20.2346 83.0545 19.8071 80.0744C19.3797 80.3582 19.0947 80.5001 18.8098 80.784ZM90.7627 88.5889C91.3327 88.447 91.3327 87.4537 91.3327 86.7441C91.4752 85.325 91.1902 83.6221 91.3327 82.203C91.0477 82.0611 91.0477 81.7773 90.7627 81.7773C90.7627 84.0479 90.7627 86.3184 90.7627 88.5889ZM17.1 82.6288C17.2425 84.7574 16.815 87.7375 18.2398 88.447C18.0974 86.3184 18.0974 83.9059 17.5274 82.203C17.2425 82.3449 17.2425 82.4869 17.1 82.6288ZM92.615 86.1765C92.7575 85.8927 92.9 84.7574 92.4725 84.6155C92.615 85.0412 92.33 85.8927 92.615 86.1765ZM47.7334 87.5956C43.744 87.8794 40.0395 89.0147 36.3349 89.7242C35.1951 90.008 33.6278 90.1499 33.0579 91.0014C38.7571 89.4404 45.7387 89.1566 52.8628 88.5889C56.4248 88.3051 59.9868 88.0213 63.4064 88.3051C66.9684 88.5889 70.3879 88.8728 73.8075 89.0147C65.8285 87.4537 56.4248 86.886 47.7334 87.5956ZM84.2086 118.674C84.7785 118.39 85.7759 117.68 86.0609 117.396C86.7733 116.545 85.4909 117.68 84.921 117.822C84.3511 117.964 84.4936 117.396 83.9237 117.396C82.6413 117.68 81.2165 118.106 79.6492 118.532C78.3669 118.816 76.3721 119.809 75.6597 118.532C76.9421 117.68 78.9368 117.538 80.6466 117.113C82.4988 116.687 84.6361 116.403 85.9184 115.835C86.3458 115.694 86.7733 114.984 87.0582 114.7C87.4857 114.274 88.0556 113.991 87.9131 113.565C86.9158 113.849 85.9184 114.274 85.0635 114.842C84.4936 114.842 84.4936 114.274 84.0661 114.416C82.6413 114.842 81.074 115.126 79.2218 115.552C78.2244 115.694 74.3774 116.687 74.3774 115.552C74.3774 114.842 75.9447 114.842 76.9421 114.7C79.9342 114.274 82.7838 113.565 85.3485 112.997C85.9184 112.288 86.6308 111.72 87.0582 111.011C86.0609 111.152 85.3485 111.436 84.6361 111.72C82.9263 111.862 81.2165 112.146 79.2218 112.43C77.797 112.713 76.0872 113.423 75.0898 112.43C75.0898 111.436 76.2297 111.862 76.7996 111.72C78.9368 111.436 81.7864 111.011 83.7812 110.443C84.4936 110.301 85.3485 110.159 85.206 109.45C83.2113 110.159 79.9342 110.585 77.3695 110.727C76.6571 110.727 75.5173 111.011 75.0898 110.301C75.2323 109.308 76.6571 109.591 77.3695 109.591C79.5067 109.45 81.9289 109.024 83.6387 108.598C83.6387 107.605 84.6361 107.463 84.921 106.753C82.7838 107.179 80.0767 107.605 77.9394 107.889C77.227 108.03 76.0872 108.456 75.6597 107.463C75.9447 106.469 77.3695 106.753 78.2244 106.611C81.074 106.186 84.2086 105.618 86.6308 104.908C87.6282 103.915 88.4831 102.922 89.3379 101.786C90.1928 100.793 91.0477 99.5159 92.33 98.9483C92.33 99.2321 92.7575 99.0902 92.7575 99.374C91.9026 101.786 89.4804 102.638 88.768 105.192C88.483 105.476 87.9131 105.618 87.4857 105.76C87.0582 106.469 85.4909 107.463 85.6334 108.03C88.0556 107.747 88.9105 105.76 90.3353 104.341C89.9079 101.786 92.0451 101.503 94.1823 101.786C94.3248 97.813 94.6097 92.8462 93.7548 89.4404C92.9 90.008 91.6176 91.1433 90.3353 91.569C91.1902 92.9881 89.3379 93.2719 89.053 94.2653C90.0503 94.1234 90.1928 93.13 91.0477 92.8462C91.7601 94.1234 93.8973 91.2852 94.1823 92.8462C94.3248 93.4139 93.0424 93.9815 92.33 94.2653C90.9052 94.9749 89.6229 95.1168 89.6229 96.1101C91.0477 95.8263 92.0451 95.2587 93.3274 94.9749C93.3274 95.1168 93.4699 95.1168 93.6124 95.2587C93.3274 96.6778 91.7601 96.6778 91.7601 98.5226C90.4778 99.2321 89.6229 100.367 88.768 101.503C86.9158 102.354 86.3458 104.625 84.0661 105.192C84.0661 105.05 83.9237 105.05 83.7812 104.908C83.7812 103.773 84.921 103.773 85.206 102.922C83.0688 103.064 80.6466 104.057 78.5094 104.483C77.6545 104.625 75.9447 105.05 75.5173 104.057C76.0872 103.064 77.3695 103.489 78.3669 103.347C79.7917 103.064 81.359 102.354 82.6413 102.212C82.0714 101.786 82.9263 100.935 82.4988 100.935C81.5015 101.077 79.9342 101.503 78.5094 101.645C77.227 101.786 75.5173 102.496 74.9473 101.361C76.0872 100.509 77.9394 100.651 79.6492 100.225C81.9289 99.7998 84.921 99.6578 85.0635 98.3807C83.2113 98.8064 80.5041 99.5159 78.3669 99.6578C77.6545 99.6578 76.2297 99.9417 76.0872 98.9483C78.0819 97.9549 81.5015 98.5226 83.2112 97.2454C82.3564 97.1035 80.6466 98.0968 80.5041 96.9616C81.644 95.6844 83.9237 96.252 85.3485 95.5425C85.9184 95.2587 86.6308 94.5491 87.2007 94.1234C87.7706 93.6977 88.483 92.8462 88.3406 92.5624C80.5041 96.252 69.6755 96.252 58.9894 96.6778C53.5752 96.9616 48.5883 96.252 44.1714 95.9682C33.0579 95.2587 21.9443 93.5558 14.9628 89.2985C14.8203 90.2918 14.6778 91.1433 14.6778 92.4205C15.8177 92.7043 16.6725 93.13 17.9549 93.5558C18.8098 93.8396 21.0895 94.1234 21.0895 94.9749C21.0895 96.252 18.5248 94.8329 18.0974 94.691C16.6725 94.1234 15.8177 93.9815 14.6778 93.5558C14.6778 94.2653 14.6778 94.8329 14.6778 95.5425C15.8177 95.8263 16.815 96.1101 18.2398 96.5359C19.2372 96.6778 21.6594 96.8197 21.5169 97.6711C21.5169 98.8064 18.8098 97.813 18.2398 97.6711C16.6725 97.3873 15.8177 97.1035 14.6778 96.6778C14.5353 97.2454 14.8203 97.5292 14.8203 97.9549C15.9601 98.3807 17.2425 98.5226 18.5248 98.8064C19.6646 99.0902 21.2319 99.2321 21.5169 100.367C20.662 100.935 19.3797 100.367 18.2398 100.084C17.1 99.7998 15.9601 99.374 14.8203 99.2321C14.8203 99.9417 15.1053 100.367 15.1053 101.077C16.2451 101.361 17.5274 101.786 18.6673 102.212C19.8071 102.496 21.5169 102.496 21.9443 103.631C21.0895 104.483 19.8071 103.631 18.6673 103.347C17.5274 103.064 16.3876 102.78 15.3902 102.354C15.2477 102.78 15.5327 103.064 15.5327 103.489C17.2425 103.915 18.9522 104.341 20.5195 104.908C21.9443 104.199 24.509 104.199 24.794 105.618C25.3639 107.889 22.9417 108.74 21.3744 109.45C22.2293 109.875 24.0816 109.45 24.3665 110.443C23.6541 111.578 22.0868 110.869 20.947 110.727C19.6646 110.443 18.5248 109.875 17.3849 110.159C17.3849 110.727 17.6699 111.011 17.6699 111.578C19.0947 112.146 21.2319 112.855 22.6568 113.281C23.3692 113.423 24.3665 113.281 24.3665 114.274C22.6567 115.552 19.6646 112.288 18.5248 114.558C18.6673 114.7 18.8098 114.842 18.8098 114.984C20.0921 115.268 21.5169 115.835 22.7992 116.261C23.9391 116.687 26.0763 116.829 26.0763 118.248C23.7966 118.532 21.5169 116.403 19.0947 116.403C20.0921 118.39 21.8019 119.667 23.9391 120.377C26.5037 121.37 29.6383 122.079 32.9154 122.931C36.4774 123.782 40.3244 124.918 44.3139 125.06C49.1582 125.201 54.5725 125.769 59.1319 125.343C67.5383 124.492 75.0898 122.647 82.0714 120.802C83.6387 120.377 85.3485 120.093 86.6308 119.099C84.4936 119.383 81.644 120.235 79.3643 120.377C78.6519 120.377 76.6571 120.802 76.7996 119.525C78.9368 119.241 82.2139 119.525 84.2086 118.674ZM59.5594 90.008C63.9763 90.8595 70.103 90.5757 74.5199 91.1433C70.103 90.008 64.6887 89.2985 59.5594 90.008ZM40.6094 91.8529C42.6041 91.8529 44.4564 91.569 45.5962 90.5757C43.459 90.5757 41.8917 91.1433 40.6094 91.8529ZM83.6387 91.7109C82.3564 91.4271 80.9315 90.7176 79.7917 90.5757C81.074 91.0014 82.0714 92.8462 83.6387 91.7109ZM30.9207 91.4271C31.3481 91.4271 31.7755 91.569 31.7755 91.1433C31.3481 91.1433 31.0631 91.2852 30.9207 91.4271ZM46.8785 92.4205C52.7203 93.2719 60.4143 93.13 66.541 92.7043C59.7019 92.5624 53.1477 91.1433 46.8785 92.4205ZM36.4774 92.9881C36.6199 93.13 37.4748 93.2719 37.3323 92.7043C37.0473 92.7043 36.6199 92.7043 36.4774 92.9881ZM47.8759 93.8396C46.0237 93.5558 44.4564 92.5624 42.6041 92.8462C41.3218 92.7043 40.6094 93.13 39.327 93.13C41.1793 93.6977 43.459 93.6977 45.5962 93.8396C50.0131 94.1234 54.8575 94.9749 59.5594 94.2653C55.4274 94.1234 51.4379 94.4072 47.8759 93.8396ZM70.3879 92.9881C70.103 93.8396 68.3932 93.4138 67.8233 94.1234C69.5331 93.6977 71.9552 93.9815 73.665 93.5558C72.6676 93.2719 71.3853 93.2719 70.3879 92.9881ZM62.8364 94.1234C62.409 94.2653 64.6887 94.4072 64.6887 93.9815C63.9763 93.8396 63.5488 94.1234 62.8364 94.1234ZM96.6045 101.645C99.0266 101.077 102.161 100.651 102.589 98.3807C103.016 96.1101 101.021 94.8329 99.5966 94.4072C98.5992 94.1234 97.4594 94.2653 96.6045 93.9815C96.6045 96.5358 96.6045 99.0902 96.6045 101.645ZM85.7759 97.1035C86.7733 97.1035 87.4857 96.8197 87.7706 96.1101C87.0582 96.3939 86.2034 96.5359 85.7759 97.1035ZM86.7733 98.8064C87.7706 98.2388 90.6203 98.2388 90.3353 97.2454C89.053 97.6711 87.3432 97.6711 86.7733 98.8064ZM8.55112 102.07C8.26616 103.064 8.55112 104.341 8.83608 104.767C9.54849 106.186 12.1131 105.902 13.9654 106.328C13.3955 104.199 13.253 101.645 12.6831 99.5159C11.4007 100.367 8.97856 100.509 8.55112 102.07ZM85.206 100.367C84.6361 100.651 83.4962 101.786 83.6387 102.07C84.6361 101.786 86.2034 101.503 87.2007 100.935C87.7706 100.651 88.3406 99.7998 88.3406 99.5159C87.6282 100.225 86.2034 99.9417 85.206 100.367ZM16.5301 106.328C17.5274 106.328 18.8098 106.469 19.0947 105.902C17.9549 105.902 17.1 105.192 16.1026 105.476C16.3876 105.618 16.2451 106.186 16.5301 106.328ZM89.6229 106.895C90.3353 106.611 91.1902 106.469 91.4752 105.76C91.1902 105.76 91.0477 105.476 90.9052 105.476C90.6203 105.902 90.0503 106.328 89.6229 106.895ZM91.4752 111.862C90.3353 112.713 89.4804 113.707 88.483 114.842C89.7654 114.416 89.9079 112.572 91.6176 112.43C91.6176 112.713 91.9026 112.572 91.9026 112.855C91.9026 113.565 91.1902 113.565 91.0477 114.133C91.4752 114.133 91.1902 114.7 91.3327 115.126C89.4804 115.835 88.1981 116.829 86.9158 118.106C89.1955 117.964 90.1928 116.829 91.4752 115.694C91.6176 115.835 91.9026 115.835 91.9026 115.977C92.0451 117.255 90.1928 117.964 90.4778 118.532C92.615 118.106 92.7575 114.274 93.1849 112.004C93.6124 109.591 94.1823 107.463 94.1823 105.76C92.1876 105.76 91.6176 107.605 90.9052 108.456C91.0477 108.172 91.7601 108.314 91.7601 108.598C91.9026 110.017 90.4778 110.017 89.3379 110.159C88.6255 110.727 88.0556 111.436 87.4857 112.146C88.3406 112.004 89.053 111.578 90.0503 111.436C91.1902 110.585 91.3327 108.882 93.1849 108.74C93.3274 110.443 91.6176 110.727 91.4752 111.862ZM86.9158 109.591C87.9131 109.591 89.3379 108.74 88.9105 108.314C88.1981 108.74 87.3432 108.882 86.9158 109.591Z" fill="#403736"/>
</svg>
