<svg width="31" height="31" viewBox="0 0 31 31" fill="none" xmlns="http://www.w3.org/2000/svg">
<path d="M17.9992 30.7981C17.87 30.8191 17.7404 30.8385 17.6104 30.8563C17.7404 30.8385 17.87 30.8191 17.9992 30.7981Z" fill="#C4C4C4"/>
<path d="M18.3092 30.7451C18.2475 30.7565 18.1858 30.7669 18.124 30.7775C18.1858 30.7669 18.2475 30.7565 18.3092 30.7451Z" fill="#C4C4C4"/>
<path d="M17.2641 30.8994C17.113 30.9164 16.9609 30.9316 16.8083 30.9444C16.9609 30.9316 17.113 30.9164 17.2641 30.8994Z" fill="#C4C4C4"/>
<path d="M17.5618 30.863C17.4892 30.8727 17.4161 30.8817 17.3433 30.8902C17.4161 30.8817 17.4892 30.8727 17.5618 30.863Z" fill="#C4C4C4"/>
<path d="M18.7313 30.6616C18.6769 30.6732 18.6223 30.6848 18.5676 30.6959C18.6223 30.6848 18.6769 30.6732 18.7313 30.6616Z" fill="#C4C4C4"/>
<path d="M19.7785 30.4014C19.7345 30.4139 19.6905 30.4257 19.6465 30.438C19.6905 30.4257 19.7345 30.4139 19.7785 30.4014Z" fill="#C4C4C4"/>
<path d="M19.4619 30.4878C19.4141 30.5003 19.3661 30.5131 19.3181 30.5252C19.3661 30.5131 19.4141 30.5006 19.4619 30.4878Z" fill="#C4C4C4"/>
<path d="M19.0473 30.5916C18.9967 30.6034 18.9456 30.6145 18.8945 30.6258C18.9456 30.6145 18.9967 30.6034 19.0473 30.5916Z" fill="#C4C4C4"/>
<path d="M16.8034 30.9448C16.7218 30.9517 16.6402 30.9578 16.5583 30.9633C16.6402 30.9578 16.7218 30.9517 16.8034 30.9448Z" fill="#C4C4C4"/>
<path d="M31 15.5C31 6.9409 24.0591 0 15.5 0C6.9409 0 0 6.9409 0 15.5C0 24.0591 6.9409 31 15.5 31C15.5911 31 15.6816 30.9981 15.7725 30.9965V18.9304H12.4424V15.0494H15.7725V12.1936C15.7725 8.88147 17.7944 7.07878 20.7489 7.07878C22.1637 7.07878 23.3798 7.18427 23.7344 7.23133V10.6929H21.6971C20.0897 10.6929 19.7785 11.4568 19.7785 12.5777V15.0494H23.6218L23.1209 18.9304H19.7785V30.4012C26.2572 28.5438 31 22.575 31 15.5Z" fill="#39579b"/>
<path d="M16.5241 30.9656C16.3628 30.976 16.2008 30.9843 16.0383 30.9897C16.2008 30.9843 16.3628 30.976 16.5241 30.9656Z" fill="#C4C4C4"/>
<path d="M16.03 30.9902C15.9444 30.9931 15.8586 30.9952 15.7727 30.9966C15.8586 30.9952 15.9444 30.9931 16.03 30.9902Z" fill="#C4C4C4"/>
</svg>
