<svg width="169" height="102" viewBox="0 0 169 102" fill="none" xmlns="http://www.w3.org/2000/svg">
<g clip-path="url(#clip0)">
<path opacity="0.2" d="M118.693 49.8139C118.269 50.7192 118.693 50.7796 119.604 51.4435C120.271 51.9263 120.878 52.5298 121.303 53.1937C121.545 53.5558 121.788 53.9782 121.97 54.4007C122.759 55.3663 123.123 56.6337 122.395 58.4443C122.334 58.9875 121.849 59.1685 121.424 59.1082C121.424 59.1685 121.363 59.1685 121.363 59.2289C119.664 62.3672 116.084 62.4879 112.929 62.85C112.686 63.031 112.504 63.2121 112.322 63.4535C112.989 63.7553 113.596 64.1174 114.021 64.5399C114.324 64.4795 114.628 64.4795 114.931 64.7209C118.329 67.5575 115.841 70.0922 112.747 71.8424C112.322 72.2649 111.836 72.627 111.351 72.9891C111.29 73.1098 111.169 73.2909 110.987 73.3513C105.101 77.3948 92.3575 79.2054 88.8986 71.1786C88.838 71.0579 88.838 70.9372 88.838 70.8165C87.867 71.2993 86.7748 71.601 85.6825 71.601C86.6534 74.5583 86.4714 77.3948 82.163 77.8777C76.7016 78.4812 70.3907 76.4896 66.3251 72.8081C64.3833 75.4032 60.803 77.5759 57.769 77.0327C57.7083 77.0327 57.6476 76.9724 57.6476 76.9724C54.7349 77.8173 51.6401 77.938 48.424 77.3345C45.4506 76.731 40.0499 74.4979 41.6276 70.8165C41.3849 70.6958 41.2029 70.6354 40.9601 70.5751C39.2611 72.0235 37.0765 72.0839 34.9527 72.2649C34.7706 73.3512 35.2561 74.4979 36.6517 74.7393C38.6542 75.1015 40.7781 77.2138 42.5985 78.1191C44.9044 79.2054 47.271 79.9296 49.8197 80.2314C52.429 80.5331 54.9776 80.4124 57.5262 79.8693C60.0749 79.3261 62.7449 77.757 65.4148 78.1191C67.9028 78.4812 70.148 79.99 72.5753 80.5331C75.2453 81.1367 78.0366 81.197 80.7673 80.8349C83.8621 80.4124 87.2602 79.3865 89.3234 77.1534C95.1488 79.8693 101.702 79.3261 107.771 76.912C111.472 75.4032 118.633 72.1442 118.936 67.6178C123.184 66.4108 127.128 63.6346 127.735 58.9875C128.281 53.6161 124.033 48.0637 118.693 49.8139Z" fill="#211915"/>
<path opacity="0.2" d="M79.6142 62.9103C79.7355 61.5826 79.2501 60.5566 78.2185 59.2892C77.8544 58.8667 77.4903 58.3839 77.3689 57.7804C77.3689 57.6597 77.3083 57.4787 77.3083 57.3579C77.3083 57.3579 77.3083 57.3579 77.2476 57.3579C77.2476 57.3579 77.2476 57.2976 77.3083 57.2976C77.3083 56.4527 77.733 55.7284 78.0364 54.9439C78.5826 53.4351 78.7039 51.8056 78.4005 50.2364C77.6723 49.8139 76.5801 49.8139 75.9126 50.3571C75.9126 50.4175 75.9733 50.5382 75.9733 50.5985C75.9733 52.5298 75.063 54.0386 73.8494 55.487C73.3639 56.0906 72.8785 56.6941 72.5144 57.2372C72.2717 58.6857 72.5144 60.0738 73.1212 61.5222C73.546 61.824 74.0921 62.0051 74.6383 62.1258C75.6092 62.4275 76.5194 62.5482 77.1869 62.9707C77.733 62.7896 78.2792 62.7896 78.7646 62.6086C79.068 62.6086 79.4321 62.7293 79.6142 62.9103Z" fill="#211915"/>
<path opacity="0.2" d="M57.2834 63.3329C56.6766 61.9448 56.4338 60.2549 56.3731 58.9875C56.3731 58.7461 56.4338 58.5651 56.4945 58.4444C56.0091 56.3924 56.1911 54.3404 57.4047 52.5299C57.7081 52.0471 58.2543 52.0471 58.6184 52.2281C58.4363 51.8056 58.1329 51.3832 57.7081 51.0814C57.6475 51.2021 57.5868 51.3832 57.4654 51.5039C54.4313 54.099 49.7588 53.9783 46.3 52.2885C45.9966 52.1678 45.8752 51.9263 45.8145 51.7453C45.5718 51.7453 45.3291 51.6849 45.147 51.6849C43.0839 51.5039 42.8411 54.3404 44.2975 55.2457C46.7854 56.8149 49.5768 57.2977 52.3682 57.0563C52.4288 59.9532 53.5211 62.8501 55.7663 63.9364C56.3125 63.695 56.7979 63.5139 57.2834 63.3329Z" fill="#211915"/>
<path opacity="0.2" d="M38.3508 56.6338C37.2585 56.7545 35.8628 55.2457 34.8312 54.9439H34.7705C33.6783 55.6078 32.2219 56.3924 30.6442 56.9959C30.5228 57.1166 30.4015 57.1769 30.1587 57.2373C30.0981 57.2373 30.0374 57.2373 29.9767 57.2373C27.064 58.3236 24.0906 58.8064 23.059 57.1769C22.8163 57.2373 22.5735 57.2373 22.3308 57.1166C20.6924 56.0303 20.6924 54.2197 21.906 53.4351C20.6317 53.3144 19.4788 54.28 19.4788 55.6078C19.5394 59.8324 25.2435 61.7637 28.8237 61.5826C30.7049 61.4619 32.6467 60.0135 34.4064 60.1945C36.3483 60.3756 37.3192 61.0395 39.261 60.1342C40.9601 59.3496 40.1712 56.3924 38.3508 56.6338Z" fill="#211915"/>
<path opacity="0.2" d="M81.6775 36.959C82.4057 36.5969 83.0732 36.1744 83.6193 35.5106C84.6509 34.2432 85.1364 32.5533 85.2577 30.8031C85.0757 30.7428 84.833 30.7428 84.6509 30.7428C84.6509 31.0445 84.5902 31.3463 84.5295 31.648C84.6509 32.0101 84.6509 32.3723 84.3475 32.674C80.8886 35.6916 75.7914 33.1568 72.818 30.5013C71.3616 32.8551 70.5728 35.5106 70.5728 38.2868C70.5728 39.1317 69.6019 39.3731 69.0557 39.011C68.9344 39.1317 68.7523 39.192 68.5096 39.192C67.7814 39.2524 67.1139 39.6749 66.3857 39.7956C65.7789 39.9163 65.2328 39.5542 65.2328 38.8903C65.2328 38.4678 65.3541 37.8643 65.3541 37.3211C65.2328 37.1401 65.1721 36.8987 65.1721 36.6573C65.0507 36.7176 64.8687 36.778 64.7473 36.8383C64.3832 38.9506 64.4439 41.244 65.3541 42.9942C66.9319 44.503 69.2378 45.3479 70.9369 44.503C72.7573 43.5374 72.6966 41.7268 72.5753 39.9766C72.4539 38.1057 72.8787 36.5969 73.4855 34.9674C75.67 36.1744 78.8862 37.0194 81.6775 36.959Z" fill="#211915"/>
<path opacity="0.2" d="M90.537 53.1937C90.537 53.1334 90.537 53.1334 90.4763 53.073C90.2335 52.4091 89.8088 51.9263 89.3233 51.3832C88.5951 50.7796 87.6242 50.2968 86.9567 49.6329C86.5926 49.2708 86.6533 48.788 86.896 48.4863C87.8063 45.6497 87.5029 42.8132 87.3208 39.9163C87.2601 39.9163 87.1995 39.9163 87.1388 39.9163C87.0174 40.7008 86.7747 41.4854 86.1679 42.2096C86.4713 42.3907 86.6533 42.7528 86.532 43.1753C85.9251 45.529 85.0756 47.762 83.4979 49.6329C83.4372 49.7536 83.3158 49.814 83.1945 49.8743C83.1338 49.9347 83.1338 49.9951 83.0731 50.0554C82.9517 50.2968 82.7697 50.4779 82.5876 50.4779C82.6483 50.5986 82.6483 50.7193 82.709 50.9003C83.3158 52.4695 84.6508 53.1937 86.1679 53.7369C86.5926 53.8576 86.9567 54.0386 87.3815 54.1593C87.5029 54.099 87.6242 54.099 87.7456 54.099C88.6558 54.1593 89.7481 54.1593 90.5976 53.7972C90.6583 53.6162 90.5976 53.3748 90.537 53.1937Z" fill="#211915"/>
<path opacity="0.2" d="M109.894 43.7184C109.652 43.7788 109.348 43.7184 109.166 43.5374C109.106 43.7184 109.045 43.9598 108.863 44.0805C109.166 44.8651 109.348 45.71 109.53 46.6153C109.53 46.6757 109.53 46.736 109.53 46.7964C109.834 47.6413 110.258 48.4259 110.744 49.0897C111.047 48.9087 111.472 48.9087 111.836 49.2104C112.382 49.6329 112.504 49.814 112.686 50.4175V50.4778V50.4175C112.807 50.2364 112.868 50.0554 112.989 49.9347C112.989 49.8743 112.989 49.814 113.05 49.7536C113.171 49.3915 113.232 49.0897 113.353 48.7276C113.96 46.0118 113.414 42.7528 109.894 43.7184Z" fill="#211915"/>
<path opacity="0.2" d="M110.38 39.2524C110.076 38.8903 109.894 38.5885 109.834 38.5885C109.53 38.3471 109.105 38.166 108.741 37.985C107.892 37.5625 106.982 37.2004 106.132 36.7779C106.071 36.7176 106.011 36.7176 105.95 36.6572C105.404 36.8986 104.797 37.0797 104.13 37.0797C104.918 37.3815 105.647 37.8643 106.253 38.4074C106.557 38.2867 106.921 38.3471 107.164 38.6488C107.77 39.4334 108.195 40.0973 108.317 40.9422C105.829 39.192 101.338 41.0629 99.2143 42.7528C96.5443 44.9255 94.5418 48.3655 94.1777 51.8056C94.6632 51.9263 95.088 52.1677 95.3914 52.5902C95.452 52.5298 95.452 52.4091 95.5127 52.3488C95.8161 53.8576 97.758 57.5994 98.6682 56.5734C98.7895 56.3923 98.9109 56.2113 98.9109 55.9699C98.7895 55.9095 98.6075 55.7888 98.5468 55.6681C97.6973 54.4611 96.605 53.1937 96.2409 51.7452C96.1802 51.7452 96.0589 51.6849 95.9375 51.6849C95.8768 51.6849 95.8768 51.6849 95.8161 51.6849C96.6657 49.5726 97.4545 47.3999 99.0929 45.7704C99.0929 45.71 99.1536 45.5893 99.1536 45.529C100.731 42.1493 105.586 41.5457 108.681 42.9338C108.681 42.9338 108.681 42.9338 108.741 42.9338C109.105 42.7528 109.348 42.3303 109.227 41.9682C109.712 41.0026 110.137 40.218 110.38 39.2524Z" fill="#211915"/>
<path opacity="0.2" d="M82.5271 24.6472C82.1023 24.2851 81.6775 23.9833 81.1314 23.7419C80.9493 23.5609 80.7066 23.4401 80.4639 23.3194C78.0366 20.7847 74.6991 19.3362 70.9369 20.4225C68.3883 21.1468 66.0824 23.9833 67.1746 26.6992C67.5994 27.8458 68.813 28.389 70.148 28.5097C67.9028 31.648 66.6892 35.6313 67.3567 39.1317C67.478 39.6145 68.3276 39.7352 68.5096 39.2524C69.7839 36.1141 70.9369 32.8551 73.1214 30.2599C73.6676 31.0445 74.5171 31.648 75.3666 32.1308C76.823 32.9758 78.8862 34.6656 80.5853 34.4846C80.828 34.4242 81.0707 34.3639 81.3134 34.3035C82.4664 34.9674 84.2868 34.6656 84.5296 33.0361C85.015 30.0789 84.9543 26.6992 82.5271 24.6472Z" fill="#979391"/>
<path opacity="0.2" d="M42.9627 53.1937C43.2054 50.6589 42.2345 48.1241 39.6859 46.917C36.8338 45.5289 31.2511 45.2272 29.552 48.3051C29.4914 48.4258 29.4307 48.5466 29.4307 48.6673C29.3093 48.7276 29.1879 48.7276 29.1273 48.788C27.3675 49.5122 27.6709 51.9866 29.1273 52.3487C28.8845 52.5298 28.6418 52.7108 28.3991 52.8919C28.3384 52.9523 28.3384 52.9523 28.2777 53.0126C26.882 53.1937 25.4257 53.3747 23.9086 53.5558C23.6659 53.6161 23.4232 53.6765 23.2411 53.8575C22.7557 54.0386 22.3916 54.5214 22.3916 55.0646C22.4523 55.7888 22.9984 56.332 23.6659 56.332C23.7873 56.332 23.848 56.332 23.9693 56.2716C27.6709 57.9011 31.9793 56.9958 35.6202 55.1249C36.1663 55.6077 36.9552 56.0906 37.8047 56.513C37.9868 56.5734 38.1081 56.6941 38.2902 56.6941C40.3534 57.4183 42.5986 57.358 42.9627 54.8232C43.084 54.1593 43.0234 53.6765 42.9627 53.1937Z" fill="#979391"/>
<path opacity="0.2" d="M78.2792 61.824C77.9151 60.9791 77.551 60.3152 76.398 59.8324C74.8203 59.1685 73.364 58.6253 71.9076 57.8408C73.3033 55.9698 75.7912 54.5214 76.4587 52.228C77.0048 50.4175 76.0339 48.8483 74.1528 48.5465C71.7255 48.1844 69.2376 50.0553 68.1453 52.1073C67.4778 53.3747 66.9924 54.461 65.8394 55.4267C65.5967 55.6681 65.354 55.9095 65.0506 56.0905C64.6865 55.7284 64.3831 55.4267 64.019 55.1249C63.2908 54.4007 62.4413 53.7368 61.5917 53.3144C60.8029 52.5298 59.832 51.9263 58.5576 52.4694C56.9192 53.1333 56.6765 54.6421 56.6765 56.2113C56.7372 60.798 58.0722 65.4451 62.8054 66.9539C64.0797 67.3764 65.354 67.6178 66.689 67.7988C68.3881 68.8852 70.9367 68.5231 72.9392 67.4971C74.1528 67.1953 75.3058 66.7729 76.4587 66.109C76.5194 66.0486 76.5801 65.9883 76.6408 65.9883C77.6723 66.0486 78.7646 65.4451 78.886 64.4191C79.1894 63.3328 78.9467 62.4879 78.2792 61.824Z" fill="#979391"/>
<path opacity="0.2" d="M109.348 55.3663C109.287 55.2456 109.227 55.1853 109.105 55.1249C108.741 54.4007 108.074 53.7972 107.103 53.9179C104.312 54.28 100.853 54.7628 98.6682 56.7544C97.5759 55.306 96.605 53.5558 96.1802 52.9523C94.9059 51.3831 93.5102 50.7192 91.5684 51.3227C89.8694 51.8056 89.748 54.5818 91.6291 54.8835H91.6898C91.9932 56.2716 92.7821 57.358 93.753 58.565C94.1171 59.0478 94.4205 59.5306 94.7239 60.0134C94.4205 60.1945 94.1171 60.4359 93.8743 60.6773C92.3573 62.3672 93.5709 64.4191 93.0248 66.3504C91.0223 70.4543 98.4255 71.4803 101.035 71.2389C103.159 71.0579 104.858 70.1526 106.193 68.8248C110.926 66.109 112.746 60.2548 109.348 55.3663Z" fill="#979391"/>
<path opacity="0.2" d="M120.332 41.0025C119.725 39.4334 118.39 38.2263 117.055 37.14C116.751 36.7779 116.387 36.4158 115.963 36.114C113.596 34.3638 110.076 34.907 107.649 36.114C106.618 36.6572 106.739 38.166 107.71 38.7092C108.317 39.0713 108.923 39.373 109.47 39.7955C109.409 39.8558 109.409 39.8558 109.348 39.9162C108.195 41.1232 109.106 43.2959 110.805 43.2356C111.593 43.1752 112.261 42.9942 112.807 43.0545C113.05 43.2356 113.293 43.5373 113.596 43.7787C113.657 43.8994 113.657 44.0201 113.657 44.2012C113.778 45.4686 113.293 46.9774 113.05 48.1844C113.05 48.1844 113.05 48.1844 113.111 48.1844C112.989 48.6672 113.111 49.0897 113.353 49.5122C113.353 49.5122 113.293 49.5122 113.293 49.5725C111.836 50.7796 113.717 52.7712 115.234 52.047C115.538 51.9263 115.781 51.7452 116.084 51.5641C116.873 51.4434 117.54 50.9606 118.026 50.2364C118.086 50.176 118.086 50.1157 118.147 50.0553C119.239 49.0294 120.089 47.762 120.332 46.1325C120.453 45.4686 120.453 44.8047 120.332 44.2012C120.574 43.1752 120.696 42.0889 120.332 41.0025Z" fill="#979391"/>
<path d="M93.1462 67.9195C97.576 69.7301 101.642 69.1266 105.283 66.0486C108.013 63.7552 111.351 59.7116 109.652 55.9698C109.53 55.7888 109.288 55.9095 109.288 56.0905C109.166 58.0218 109.166 59.772 108.195 61.5222C107.285 63.2121 105.829 64.5398 104.312 65.7469C100.731 68.523 97.4546 68.4023 93.2069 67.5574C92.9642 67.4971 92.9035 67.7988 93.1462 67.9195Z" fill="#211915"/>
<path d="M145.937 58.2653C145.573 52.4715 142.721 47.1002 138.595 43.0566C133.679 38.2888 127.308 35.3919 120.876 33.2796C113.108 30.7448 104.916 29.2963 96.7243 29.2963C93.8116 25.3735 89.3212 23.5629 84.5273 25.6752C81.3112 19.8814 68.6894 17.2259 65.6553 24.1664C61.8324 21.6316 56.0676 19.459 52.002 22.7783C51.1524 23.4422 50.4849 24.3475 49.9388 25.3735C44.8416 25.2527 39.3802 26.7616 34.5257 27.9686C29.4284 29.236 24.3918 30.9258 19.598 33.2192C11.6487 37.0214 4.0635 42.8755 1.0901 51.4455C-2.30807 61.2829 2.48578 70.2754 10.0103 76.6123C16.5032 82.1044 25.6055 87.0532 34.2223 88.2603C34.2829 88.3206 34.3436 88.381 34.465 88.381C40.9579 90.433 47.6936 90.7951 54.4292 91.2175C62.1965 91.7607 70.0244 92.0021 77.8524 91.8814C88.5323 91.7607 98.6055 90.5536 108.982 87.9585C120.026 85.1823 131.556 81.2594 139.687 72.9309C143.692 68.9476 146.301 63.9988 145.937 58.2653ZM94.2971 27.6668C96.1175 29.3567 96.8457 31.469 98.1807 33.521C100.729 37.5042 107.344 36.5386 108.557 41.1857C108.497 41.3064 108.436 41.4271 108.436 41.5478C108.436 41.6082 108.497 41.6685 108.557 41.6082C108.618 41.5478 108.618 41.5478 108.618 41.4874C108.679 41.6082 108.861 41.6685 108.982 41.6685C108.8 41.8496 108.679 41.9703 108.497 42.1513C106.98 40.9443 104.674 41.065 102.914 41.7289C99.7584 42.9963 97.2098 45.7121 95.9962 48.8504C95.6321 48.1865 95.2073 47.4623 94.7825 46.7984C95.6321 45.7121 95.9355 44.1429 95.6321 42.8152C95.6321 42.6945 95.3893 42.6945 95.3893 42.8152C95.2073 44.0222 94.8432 45.1689 94.4791 46.3156C93.8723 45.2896 93.2655 44.2033 92.7194 43.117C93.8723 40.4615 95.0253 36.5386 93.4475 33.8831C93.3869 33.7624 93.0834 33.8227 93.1441 33.9434C93.2048 35.5126 93.4475 36.961 93.2655 38.5905C93.0834 39.9183 92.78 41.246 92.4766 42.6341C92.4159 42.4531 92.2946 42.272 92.2339 42.091C91.3237 39.7372 91.0203 37.2628 90.2921 34.8487C90.2314 34.6677 89.9887 34.728 89.928 34.9091C89.746 37.2025 90.3528 39.9786 91.445 42.5738C90.7775 42.091 90.11 41.6685 89.3212 41.5478C89.1391 41.4874 89.0178 41.7289 89.1391 41.8496C89.8066 42.6341 90.8989 43.117 91.8698 43.5394C92.9014 45.8328 94.2971 47.8848 95.8748 49.3936C95.5714 50.3592 95.3894 51.3248 95.3287 52.3508C93.9937 50.9627 92.2339 50.0574 90.3528 51.5662C90.0494 51.8076 89.8066 52.1094 89.6246 52.3508C88.593 51.9283 87.5007 51.6869 86.4691 51.2041C85.8623 50.9024 85.4376 50.5403 84.9521 50.1178C86.4085 47.8244 87.0153 44.5654 86.9546 42.3324C88.7144 39.4355 87.8648 35.5729 84.2846 33.4606H84.2239C85.6803 31.5897 85.6803 28.4514 84.8307 26.4598C84.7701 26.3391 84.7094 26.2787 84.7094 26.158C88.1682 25.3131 91.5057 25.0717 94.2971 27.6668ZM121.058 44.8068C122.029 45.4707 123.06 46.1346 124.092 46.8588C123.182 48.609 122.029 50.5403 121.482 52.4715C120.694 51.5662 119.601 50.9024 118.388 50.6006C119.844 49.2125 120.815 47.0398 121.058 44.8068ZM38.7127 73.8965C39.1982 73.5344 39.5623 73.0516 39.9263 72.5687C40.2297 72.2066 40.5332 71.8445 40.8366 71.5428C40.7152 74.0775 42.1109 75.8881 45.327 76.9141C50.1815 78.5436 56.0677 78.5436 60.9222 76.8537C61.7717 76.552 62.6213 76.1899 63.4101 75.6467C63.046 76.1295 62.7426 76.552 62.3785 76.9744C62.0145 77.3969 61.4076 77.8797 61.4076 78.4229C61.4076 78.5436 61.4683 78.6039 61.5897 78.6039C62.1965 78.5436 62.6213 77.8194 62.9247 77.3969C63.4101 76.733 63.8349 76.0088 64.199 75.2846C64.2597 75.2242 64.2597 75.1035 64.199 75.0432C64.9272 74.5 65.534 73.8965 66.0801 73.2326C66.5656 73.6551 67.051 74.0775 67.5972 74.5C67.2331 75.4656 66.5049 76.3106 66.1408 77.2762C66.0801 77.4573 66.2622 77.5176 66.3835 77.4573C67.3544 77.0348 67.8399 75.8881 68.0826 74.8621C69.2356 75.6467 70.5706 76.3106 71.9662 76.7934C71.8449 77.0348 71.7235 77.2159 71.6021 77.4573C71.4201 77.759 71.2381 78.1211 71.2987 78.4832C71.2987 78.604 71.4808 78.6643 71.5415 78.6039C71.8449 78.4229 71.9662 78.0608 72.0876 77.6987C72.209 77.4573 72.3303 77.2159 72.4517 77.0348C73.726 77.4573 75.0003 77.759 76.3353 78.0004C76.0926 78.4229 75.9105 78.8454 75.9712 79.2678C75.9712 79.3885 76.0926 79.3885 76.214 79.3282C76.6387 79.0868 76.8208 78.5436 77.0028 78.0608C80.2189 78.4229 83.4351 78.0608 85.8623 76.552C85.9837 76.4916 85.9837 76.3106 85.8623 76.2502C86.0444 75.8881 86.1657 75.526 86.2264 75.1639C86.2871 75.1639 86.3478 75.2242 86.4085 75.1639C87.5007 74.5604 88.0469 73.0516 88.411 71.8445C88.9571 72.8102 89.5639 73.5947 90.2921 74.2586C90.1707 74.2586 90.0494 74.3793 90.0494 74.5C89.928 74.9225 89.746 75.3449 89.5032 75.7674C89.3212 76.1295 89.0785 76.4313 88.9571 76.8537C88.8964 76.9744 89.0785 77.1555 89.1998 77.0951C90.11 76.733 90.5348 75.526 90.7169 74.6811V74.6207C91.9912 75.6467 93.5689 76.3106 95.2073 76.6727C94.9039 76.9141 94.2364 77.8194 94.7219 78.1211C94.9039 78.2418 95.0859 78.1211 95.1466 77.9401C95.3287 77.6383 95.3893 77.3366 95.6928 77.0951C95.8141 76.9744 95.8141 76.9141 95.7534 76.7934C100.244 77.6383 105.523 76.4313 109.285 74.8018C112.016 73.6551 116.203 70.7582 116.871 67.6199C117.113 66.5939 116.871 65.8093 116.325 65.1454C116.992 64.723 117.113 63.5763 117.113 62.8521V62.7917C119.419 62.3089 121.422 61.1019 122.453 58.8085C123.364 56.8169 122.939 54.5838 121.725 52.894C122.939 51.2041 123.667 49.0918 124.395 47.1605C127.065 49.2729 129.371 51.868 129.614 55.4288C130.039 60.6794 125.973 65.3265 122.211 68.5252C114.383 75.1639 104.128 77.9401 94.1757 79.4489C73.3619 82.6475 51.5772 82.8889 32.7052 72.448C34.9504 72.5687 37.1957 72.3877 39.1982 71.9652C38.7734 72.448 38.4093 73.0516 38.2879 73.6551C38.47 73.8361 38.5913 74.0172 38.7127 73.8965ZM56.5531 52.5319C54.672 55.9116 55.1574 59.7741 57.0992 62.9728H57.0386C53.7617 63.697 50.1815 62.8521 47.0868 61.645C45.6911 61.1019 45.3877 60.9208 45.2663 59.2913C45.2056 58.6274 45.2663 57.9636 45.327 57.2997C45.4484 55.6702 45.9338 54.1614 46.4193 52.6526C49.6961 53.92 53.8831 54.4028 56.5531 52.5319ZM61.8931 39.1941C61.9538 39.3148 62.1358 39.3751 62.1965 39.1941C62.3785 37.7456 62.3179 36.2972 62.5606 34.8487C62.864 33.2796 63.4101 31.7708 64.0776 30.3827C64.9272 29.417 65.8374 28.5118 66.8083 27.6065C67.2938 28.1496 67.9613 28.6325 68.6287 28.8135C65.9588 32.0725 64.1383 36.2972 65.1699 40.2201C65.0485 40.5218 64.9879 40.8236 65.1092 41.1857C65.1699 41.3064 65.3519 41.3667 65.4733 41.246L65.534 41.1857C65.6553 42.7548 67.9613 43.0566 69.1142 42.5738C70.0851 42.2117 71.7235 40.2804 70.2672 39.5562C70.7526 36.6593 71.6628 33.8831 73.2406 31.4087C73.6046 31.7104 73.9687 32.0122 74.3935 32.3139C74.3328 32.7968 74.3328 33.3399 74.3935 33.8831C73.3012 35.3315 72.2696 37.2025 72.0269 39.013C72.0269 39.1337 72.209 39.1941 72.2696 39.0734C73.1192 37.806 73.7867 36.2972 74.4542 34.9091C74.4542 35.0901 74.5149 35.2712 74.5149 35.4522C74.4542 35.5126 74.3935 35.5729 74.5149 35.6937L74.5756 35.754C75.1824 38.6509 76.6387 41.7289 78.7626 43.117C78.9446 43.2377 79.066 42.9963 79.0053 42.8755C78.0951 41.065 76.6994 39.6165 75.9712 37.6249C75.8499 37.2628 75.7285 36.961 75.6071 36.5989C76.4567 37.2025 77.3062 37.6853 78.2164 38.1681C79.4908 38.832 80.8864 39.6165 82.3428 39.8579C82.5248 39.9183 82.6462 39.6769 82.4642 39.5562C81.3112 38.7113 79.8549 38.1681 78.5805 37.5042C77.4883 36.961 76.4567 36.2972 75.3644 35.754C75.1217 34.7884 75.0003 33.7624 74.8183 32.7364C77.1242 34.3056 80.2189 35.6333 82.5248 34.6677C83.0103 34.4866 83.4351 34.1849 83.7385 33.8227C83.7385 33.8227 83.7385 33.8831 83.7992 33.8831C85.1948 35.3315 86.8332 36.961 86.8939 39.1337C86.9546 42.091 84.406 43.6601 81.918 44.4447C78.8839 45.4103 75.6071 45.0482 72.4517 44.8672C67.9613 44.5654 63.2281 44.324 59.5872 47.1605C59.4051 44.8672 58.677 42.4531 57.5847 40.4011C58.9197 38.2284 59.8299 35.8144 61.2863 33.702C61.711 33.0985 62.1965 32.495 62.6213 31.8915C61.5897 34.1849 60.9829 36.9007 61.8931 39.1941ZM69.1749 28.1496C68.9322 28.0893 68.7501 27.9686 68.5681 27.9082C69.7817 26.7012 70.9347 25.6752 72.5124 25.0717L72.5731 25.132C71.4201 25.9166 70.2672 27.003 69.1749 28.1496ZM68.4467 27.8479C67.9613 27.6668 67.5972 27.3651 67.2331 27.003C67.9006 26.6408 68.4467 26.0373 69.0535 25.6149C69.6603 25.1924 70.3278 24.8303 71.056 24.5285C71.4201 24.5889 71.7842 24.7096 72.1483 24.8906C70.6919 25.3735 69.1749 26.3994 68.4467 27.8479ZM68.9322 25.2528C68.3253 25.6752 67.5365 26.158 67.1117 26.8219C66.869 26.5201 66.6869 26.2184 66.5049 25.8563C66.8083 25.5545 66.9903 25.132 67.4151 24.8906C67.9613 24.5285 68.6287 24.4682 69.2356 24.4682C69.6603 24.4682 70.0851 24.4078 70.5099 24.4682C69.9637 24.6492 69.4176 24.951 68.9322 25.2528ZM70.0244 40.039C70.0244 40.3408 70.0244 40.6425 69.9031 40.8839C69.6603 41.4271 69.0535 41.7892 68.5074 41.9703C67.3544 42.272 66.5656 41.8496 65.8374 41.065C65.8374 41.0046 65.8374 40.8839 65.8374 40.8236C66.1408 40.4011 66.4442 40.039 66.9903 39.8579C67.5365 39.5562 69.5997 39.2544 70.0244 40.039ZM78.2164 32.9778C79.248 31.8915 79.4301 30.0206 79.248 28.5118C79.5514 28.6928 79.8549 28.8739 80.0976 29.1153C80.0369 29.1153 80.0369 29.1756 80.0369 29.236C80.0369 30.1413 80.0976 31.0465 79.9762 31.8915C79.8549 32.5553 79.6728 33.1589 79.5514 33.8227C77.9737 33.521 76.3353 32.6761 74.879 31.8311C74.879 31.8311 74.879 31.8311 74.9396 31.8311C75.4251 31.288 75.7892 30.5034 76.1533 29.8395C76.4567 29.236 76.7601 28.6325 77.0635 28.0289C77.6703 27.9082 78.3378 28.0289 79.066 28.3307C79.066 29.1153 79.0053 29.8999 78.8233 30.6241C78.6412 31.4087 78.2771 32.0725 78.1558 32.8571C78.0344 32.9778 78.1558 33.0382 78.2164 32.9778ZM80.2189 29.2963C81.4326 30.443 81.7967 32.0725 81.8573 33.7624V33.8227C81.6146 33.8831 81.3719 33.9434 81.0685 33.9434C80.6437 33.9434 80.2796 33.9434 79.8549 33.8831C80.6437 32.6157 80.583 30.6844 80.2189 29.2963ZM75.6678 29.8395C75.3037 30.443 74.9396 31.1069 74.7576 31.7708V31.8311C74.2721 31.5294 73.8474 31.288 73.4226 30.9862L73.4833 30.9258C74.2721 29.7188 75.3037 28.5721 76.578 28.21C76.2746 28.6928 75.9712 29.236 75.6678 29.8395ZM85.923 51.6869C86.9546 52.1698 88.3503 52.7733 89.5032 52.4715C88.593 54.5838 91.6878 57.0583 93.8723 59.5327C93.5082 59.7741 93.2048 60.0155 92.9621 60.3173C92.9014 60.438 92.78 60.5587 92.7194 60.619C91.3844 56.7565 87.7435 53.1957 83.6778 51.3852C83.9205 51.1438 84.2239 50.9024 84.4667 50.6006C84.7701 51.0834 85.3769 51.4455 85.923 51.6869ZM99.1516 45.4707C101.579 43.0566 106.615 39.6165 108.921 44.4447C108.921 44.5654 108.982 44.6861 109.043 44.7465C109.771 46.4363 109.467 49.3936 111.955 49.3936C111.955 49.3936 112.016 49.4539 112.077 49.3936C112.077 49.3936 112.077 49.3936 112.137 49.3936C112.198 49.3936 112.259 49.3936 112.32 49.3936C112.502 49.3936 112.562 49.2125 112.502 49.0918C112.562 49.0315 112.623 48.9711 112.684 48.9107C112.562 49.816 112.32 50.7213 112.016 51.5662C111.955 51.7473 112.077 51.9887 112.259 52.0491C114.565 52.7733 116.507 52.2905 117.963 51.0834C119.48 51.868 121.118 52.8336 121.907 54.4028C123.06 56.5755 122.211 59.2913 120.39 60.8605C118.145 62.7917 115.111 62.5503 112.32 62.9728C112.259 62.9728 112.259 63.0331 112.259 63.0935C111.955 63.0331 111.713 62.9124 111.409 62.8521C111.955 59.8345 111.227 56.6358 109.407 53.8596C109.285 53.7389 109.103 53.6786 108.982 53.7993C107.89 52.7129 105.705 53.2561 104.188 53.6182C105.402 52.4715 106.615 51.3248 108.011 50.3592C109.407 50.1781 110.802 50.0574 112.198 49.816C112.32 49.816 112.32 49.5746 112.198 49.5746C110.802 49.3332 109.285 49.3332 107.768 49.5746C105.584 48.79 102.671 48.1865 100.547 49.0918C100.426 49.1522 100.487 49.3936 100.608 49.3936C102.368 49.2729 104.067 49.635 105.766 49.9367C103.217 50.5403 100.79 51.5662 98.8482 52.8336C98.7268 52.894 98.7875 53.1354 98.9696 53.075C101.093 52.2905 103.278 51.5059 105.463 50.9024C105.827 50.842 106.13 50.7213 106.494 50.661C106.069 50.9627 105.645 51.3248 105.28 51.6869C104.492 52.3508 103.763 53.075 103.096 53.92C101.458 54.3424 99.3943 54.946 98.6055 56.4548C98.4841 56.6358 98.6662 56.8169 98.8482 56.6962C99.1516 56.5755 99.3943 56.4548 99.6371 56.2737C99.9405 56.6358 100.244 56.9979 100.487 57.4204C100.608 57.6618 100.729 57.9032 100.851 58.1446C100.729 58.0843 100.608 58.0843 100.487 58.0239C98.3628 57.2393 97.3312 54.946 96.0568 53.1957C95.8748 52.9543 95.6927 52.7129 95.5107 52.5319C95.9355 49.6953 97.2098 47.4623 99.1516 45.4707ZM108.679 38.9527C108.557 38.7716 108.375 38.5905 108.254 38.4095C108.497 38.5302 108.679 38.7113 108.861 38.832C108.739 38.832 108.679 38.832 108.679 38.9527ZM109.043 39.7372C109.103 39.4958 108.982 39.1941 108.921 38.9527C109.164 39.1941 109.346 39.4958 109.467 39.9183C109.467 39.9786 109.467 40.039 109.528 40.0994C109.467 40.039 109.346 39.9786 109.225 40.0994C109.103 39.9786 109.103 39.8579 109.043 39.7372ZM109.467 40.2804C109.467 40.6425 109.407 41.065 109.164 41.4271C109.225 41.1857 109.225 40.9443 109.225 40.7029C109.346 40.5218 109.407 40.4011 109.467 40.2804ZM111.045 47.1002C111.895 46.6777 112.502 45.4707 112.744 44.4447C112.866 44.6861 112.866 44.9275 112.926 45.2293C112.866 45.8328 112.259 46.4967 112.016 46.9795C111.834 47.3416 111.591 47.7037 111.409 48.0658C110.802 47.2812 110.56 46.4363 110.378 45.531C110.438 45.4103 110.499 45.35 110.56 45.2293C110.802 44.8068 111.106 44.3843 111.349 43.9015C111.47 43.7205 111.167 43.5998 111.106 43.7205C110.863 44.1429 110.56 44.5051 110.317 44.9275C110.317 44.9275 110.317 44.9275 110.317 44.9879C110.256 44.7465 110.196 44.5051 110.135 44.324C110.924 43.7205 111.834 43.2377 112.562 43.9619C112.32 44.4447 112.137 44.9879 111.895 45.4707C111.652 45.9535 111.227 46.4363 111.045 46.9795C110.924 47.1002 110.985 47.1605 111.045 47.1002ZM112.866 46.8588C112.866 47.1605 112.805 47.4019 112.805 47.7037C112.623 48.0658 112.38 48.4279 112.198 48.8504C112.016 48.7297 111.895 48.609 111.713 48.4883C112.198 47.9451 112.502 47.2209 112.805 46.557C112.805 46.4967 112.866 46.4363 112.866 46.4363C112.866 46.557 112.866 46.6777 112.866 46.8588ZM116.203 64.8437C115.354 64.0591 114.079 63.5159 112.866 63.1538C114.14 63.2142 115.475 63.2142 116.749 62.9728C116.628 63.3349 116.507 63.697 116.385 64.0591C116.325 64.3609 116.264 64.6023 116.203 64.8437ZM89.0178 71.6635C90.3528 71.241 91.3237 70.3961 92.0519 69.2494C95.268 73.7154 103.521 72.267 107.283 69.4908C109.467 67.8613 110.802 65.6886 111.349 63.3952C112.077 63.7574 112.805 63.9988 113.533 64.3609C116.749 65.8697 116.264 68.1027 114.201 70.3357C111.895 72.9309 109.225 74.2586 105.948 75.2242C99.8191 76.9141 93.3262 76.9141 89.0178 71.6635ZM86.1657 71.9652C86.8332 72.0256 87.4401 72.0256 87.9862 71.9652C87.7435 72.448 87.5007 72.8705 87.258 73.293C87.0153 73.7154 86.7119 74.0775 86.5298 74.5C86.5298 73.6551 86.4085 72.8102 86.1657 71.9652ZM75.5465 76.733C72.1483 76.1295 69.3569 74.6207 66.4442 72.9309C67.1724 71.8445 67.5365 70.6375 67.2938 69.2494C67.2938 69.189 67.2331 69.1287 67.2331 69.1287C68.3253 69.2494 69.4783 69.3097 70.6312 69.2494C70.9347 69.5511 71.2381 69.7926 71.5415 70.0943C72.3303 72.5084 74.3328 75.1035 76.9421 75.6467C77.0635 75.7071 77.1849 75.526 77.0635 75.4053C76.1533 74.5604 75.1217 73.8965 74.2721 72.9912C73.6046 72.3273 73.0585 71.6031 72.5124 70.8185C75.3644 72.9912 79.1874 74.6811 82.5855 74.1983C82.8283 74.1379 82.7676 73.8361 82.5855 73.7758C80.4617 72.9912 78.2164 72.7498 76.1533 71.8445C75.061 71.3617 74.0294 70.8185 73.0585 70.215C75.1217 70.5771 77.4883 70.6375 79.4908 70.3357C79.6728 70.3357 79.6121 70.0943 79.4908 70.034C77.3062 69.5511 74.5755 69.4908 72.3303 69.7322C72.0269 69.5511 71.6628 69.3097 71.3594 69.1287C75.0003 68.8269 78.5199 67.5595 79.9762 64.7833C79.9762 64.8437 79.9762 64.904 80.0369 64.9644C83.0103 68.3441 86.6512 71.241 85.741 76.2502C82.2214 76.6123 79.1267 77.3969 75.5465 76.733ZM74.6969 55.127C74.6969 55.1874 74.7576 55.1874 74.8183 55.1874C76.1533 55.5495 77.5489 56.0323 78.8233 56.5755C79.248 59.0499 81.3719 62.1882 83.9205 62.5503C84.0419 62.5503 84.1632 62.3693 84.0419 62.3089C82.7676 61.464 81.6753 60.5587 80.8258 59.2913C80.3403 58.5067 79.9762 57.6618 79.4908 56.8772C80.583 57.36 81.6753 57.9032 82.7069 58.5671C84.9521 59.9552 86.5905 61.9468 88.6537 63.5763C88.8357 63.697 89.0178 63.4556 88.9571 63.2745C87.3794 59.9552 83.6778 57.4807 79.8549 56.0926C81.9787 56.2737 84.1026 56.3944 86.2264 56.4548C86.4085 56.4548 86.4085 56.2133 86.2871 56.2133C84.1632 55.3684 81.4933 55.2477 79.3087 55.8512C77.8524 55.3684 76.3353 55.0063 75.0003 54.8252C75.3644 54.4028 75.6678 53.9803 75.9105 53.6182C76.6994 52.5319 77.0635 51.4455 77.0028 50.4799C77.2455 50.4799 77.4276 50.4195 77.6703 50.4195C83.253 51.2645 90.0494 55.3684 91.8698 60.8605C92.5373 62.8521 92.6587 65.2058 92.0519 67.2578C91.9912 67.5595 91.8698 67.8613 91.7485 68.1027C91.6878 68.163 91.6271 68.2837 91.6271 68.4045C90.5348 70.5168 88.411 70.9996 85.9837 71.3617C84.8914 68.5252 82.4035 65.749 80.3403 64.6023C80.2189 64.5419 80.1583 64.5419 80.0976 64.6023C80.3403 64.0591 80.5223 63.5159 80.6437 62.9124C80.6437 62.8521 80.6437 62.7917 80.583 62.7314C80.7651 62.4296 80.6437 61.9468 80.1583 62.0071C80.0369 62.0071 79.9762 62.0071 79.8549 62.0071C79.3694 60.9208 78.2164 60.3173 77.2455 59.7138C75.9712 58.9292 74.6969 58.0843 73.1799 57.7221C73.544 56.8169 74.1508 55.9116 74.6969 55.127ZM93.6296 60.619C93.933 61.1622 94.2364 61.7054 94.5398 62.3089C94.8432 62.7917 95.0859 63.3952 95.5107 63.7573C95.5714 63.8177 95.6928 63.7574 95.6928 63.697C95.5714 63.1538 95.2073 62.6107 94.9039 62.1278C94.5398 61.5847 94.1757 60.9812 93.8723 60.438C93.9937 60.2569 94.1757 60.1362 94.2971 59.9552C95.7534 61.7054 96.6637 63.3952 95.268 65.0247C95.0253 64.5419 94.6005 64.1798 94.2971 63.7573C93.8723 63.2142 93.5082 62.671 93.1441 62.0675C93.1441 62.0071 93.1441 61.9468 93.0834 61.8864C93.0834 61.7657 93.0228 61.5847 92.9621 61.464C93.1441 61.2226 93.3262 60.9812 93.5082 60.7397C93.5082 60.7397 93.5689 60.6794 93.6296 60.619ZM93.2655 64.9644C93.4475 65.1454 93.6296 65.3869 93.7509 65.5679C93.8723 65.6886 93.933 65.8093 94.0544 65.93C93.7509 66.1111 93.4475 66.2921 93.0228 66.4732C93.2048 65.9904 93.2655 65.5076 93.2655 64.9644ZM94.3578 65.749C94.2971 65.6283 94.1757 65.5076 94.0544 65.3869C93.8116 65.1454 93.5689 64.904 93.3868 64.6023C93.3262 64.5419 93.3262 64.5419 93.2655 64.5419C93.2655 63.9988 93.2655 63.4556 93.2048 62.9124C93.3869 63.2745 93.6296 63.6366 93.8723 63.9988C94.1757 64.4212 94.5398 64.9644 94.9646 65.2058C94.7825 65.3869 94.6005 65.5679 94.3578 65.749ZM72.9978 58.205C73.1799 58.3257 73.3619 58.386 73.4833 58.5067C73.3619 59.0499 73.1192 59.4724 72.9371 59.9552C72.7551 59.3517 72.7551 58.7481 72.9978 58.205ZM73.8474 58.6878C74.0901 58.8085 74.2721 58.9292 74.5149 59.0499V59.1102C74.4542 59.6534 74.3328 60.1966 74.1508 60.7397C74.0901 60.9208 74.0294 61.0415 73.9687 61.2226C73.6046 60.9812 73.3619 60.7397 73.1799 60.438C73.6046 59.9552 73.7867 59.2913 73.8474 58.6878ZM74.8183 59.2309C75.061 59.3517 75.3037 59.5327 75.5465 59.6534C75.4858 59.6534 75.4251 59.7138 75.4251 59.7741C75.4251 60.1966 75.3037 60.5587 75.1824 60.9812C75.1217 61.2226 75.0003 61.464 75.0003 61.7054C74.7576 61.645 74.5755 61.5243 74.3935 61.464C74.7576 60.8001 74.8183 59.8948 74.8183 59.2309ZM75.7892 59.7741C76.0926 59.9552 76.3353 60.1362 76.6387 60.3173C76.578 60.3173 76.5174 60.3776 76.5174 60.4983C76.5174 61.0415 76.3353 61.464 76.214 61.9468C75.9712 61.8864 75.6678 61.8864 75.4251 61.8261C75.8499 61.2829 75.8499 60.438 75.7892 59.7741ZM76.9421 60.4983C77.2455 60.6794 77.549 60.8605 77.7917 61.1019C77.7917 61.3433 77.731 61.5243 77.6703 61.7054C77.6096 61.8261 77.549 61.9468 77.549 62.0675C77.2455 62.0675 77.0028 62.0675 76.6994 62.0071C77.0028 61.5847 77.0028 60.9812 76.9421 60.4983ZM78.2164 61.4036C78.4592 61.5847 78.7626 61.8261 79.0053 62.0675C78.7019 62.0675 78.3378 62.0675 78.0344 62.0675C78.0951 61.8261 78.1558 61.645 78.2164 61.4036ZM101.518 58.1446C101.397 57.7221 101.154 57.2997 100.911 56.9979C100.669 56.6358 100.365 56.2737 100.001 55.9719C100.487 55.7305 100.911 55.4891 101.397 55.3081C101.579 55.7305 101.822 56.2133 102.004 56.6358C102.246 57.0583 102.428 57.6618 102.914 57.9032C102.975 57.9636 103.035 57.9032 103.035 57.8428C103.035 57.36 102.732 56.8772 102.489 56.5151C102.246 56.0926 101.943 55.6098 101.64 55.1874C101.882 55.0667 102.064 55.0063 102.307 54.946C102.368 55.0063 102.428 55.0063 102.55 54.946C102.61 54.8856 102.671 54.8252 102.732 54.7649C102.853 54.7045 102.914 54.7045 103.035 54.6442C103.278 55.1874 103.581 55.7305 103.824 56.334C104.067 56.8169 104.249 57.4807 104.674 57.8428H104.734C103.824 58.2653 102.732 58.386 101.518 58.1446ZM104.37 56.2133C104.067 55.6702 103.763 55.127 103.399 54.5838C103.824 54.4631 104.31 54.3424 104.795 54.2217C104.795 54.2217 104.795 54.2217 104.795 54.2821C105.098 54.7649 105.402 55.2477 105.645 55.7909C105.887 56.2133 106.069 56.6962 106.433 56.9376H106.494C106.009 57.36 105.402 57.6618 104.856 57.9032L104.916 57.8428C104.977 57.2393 104.613 56.6962 104.37 56.2133ZM106.069 55.4891C105.766 55.0063 105.463 54.5838 105.159 54.101C105.463 54.0407 105.766 53.9803 106.069 53.9803C106.433 54.7045 106.676 55.5495 107.222 56.153C107.283 56.2133 107.344 56.2133 107.344 56.153C107.101 56.3944 106.858 56.6358 106.615 56.8169V56.7565C106.676 56.334 106.312 55.9116 106.069 55.4891ZM106.555 53.9803C107.04 53.92 107.526 53.9803 107.95 54.0407C108.072 54.2217 108.132 54.4028 108.193 54.6442C108.254 54.8252 108.254 55.0063 108.315 55.1874C108.072 55.5495 107.768 55.9116 107.465 56.2133V56.153C107.404 55.3081 106.98 54.5838 106.555 53.9803ZM108.618 54.5838C108.557 54.4631 108.557 54.2821 108.436 54.1614C108.557 54.2217 108.679 54.2217 108.739 54.2821C108.739 54.2821 108.739 54.2821 108.8 54.2821C108.739 54.3424 108.679 54.4631 108.618 54.5838ZM101.336 58.9292C104.674 59.4724 108.011 57.6014 109.103 54.4631C109.953 56.5755 110.802 58.5671 110.742 60.9208C110.62 64.0591 108.861 67.0164 106.312 68.8269C101.7 71.9652 96.8457 71.1806 92.5373 68.4045C92.7194 67.982 92.8407 67.5595 92.9621 67.1371C93.0228 67.1371 93.0228 67.1371 93.0834 67.1371C96.1175 66.6542 97.3312 64.4816 96.1175 61.7054C95.5107 60.2569 94.4791 59.0499 93.4475 57.9032C92.3553 56.6962 87.6828 51.3852 92.8407 51.8076C96.5423 51.9887 97.2098 58.2653 101.336 58.9292ZM82.9496 51.1438C81.6146 50.6006 80.2189 50.2385 78.8839 50.1178C80.2796 49.635 81.5539 48.8504 82.7069 48.0658C83.6778 47.4019 84.8307 46.4967 85.6803 45.4707C85.5589 45.9535 85.4376 46.376 85.2555 46.8588C84.7094 48.4279 83.7385 49.6953 82.9496 51.1438ZM59.6479 47.583C67.051 43.0566 75.7892 48.1865 83.6171 44.9275C84.7094 44.4447 85.6196 43.8412 86.2871 43.0566C86.2264 43.2377 86.2264 43.4187 86.1657 43.5998C84.7094 44.8068 83.6778 46.4363 82.1001 47.5227C80.4617 48.6693 78.6412 49.2125 76.8814 49.9367C76.578 48.9107 75.7285 48.0055 74.1508 47.4623C71.4808 46.557 69.721 48.5486 68.386 50.6006C67.4151 52.1094 66.6869 53.9803 65.1699 55.0667C65.2306 55.0063 65.2913 54.8856 65.2306 54.8252C64.6238 53.7993 63.2888 53.075 62.2572 52.4715C61.2256 51.9284 60.194 51.5059 59.1017 51.2645C59.5265 50.1781 59.7086 48.9107 59.6479 47.583ZM61.0435 52.894C60.376 53.2561 59.5872 53.8596 59.3445 54.6442C59.1624 54.4631 59.041 54.2217 58.9197 53.9803C59.1624 53.6786 59.3445 53.3164 59.5872 53.0147C59.7692 52.7733 60.012 52.5319 60.2547 52.3508C60.8008 52.5922 61.347 52.894 61.8324 53.1354C61.9538 53.1957 62.0751 53.2561 62.1965 53.3768C62.1965 53.3768 62.1358 53.3768 62.1358 53.4372C61.5897 53.9803 60.7401 54.7649 60.6188 55.5495C60.6188 55.6098 60.6188 55.6702 60.6795 55.6702C60.2547 55.4891 59.8299 55.1874 59.5265 54.8252C59.7692 54.5838 60.012 54.2821 60.2547 54.0407C60.5581 53.7389 60.8615 53.4372 61.2256 53.1957C61.347 53.075 61.2256 52.7733 61.0435 52.894ZM58.3736 51.9284C58.4342 51.9887 58.5556 51.9887 58.6163 51.9887C58.5556 52.1094 58.4949 52.1698 58.4342 52.2905C58.3736 52.1698 58.3736 52.0491 58.3736 51.9284ZM58.7376 52.5319C58.859 52.2905 58.9804 52.1094 59.1624 51.868C59.4051 51.9887 59.6479 52.0491 59.8906 52.1698C59.3445 52.5319 58.9197 53.1354 58.7983 53.7389C58.677 53.4975 58.6163 53.2561 58.4949 52.9543C58.6163 52.8336 58.677 52.7129 58.7376 52.5319ZM60.8008 55.6702C61.1042 55.4288 61.2863 55.127 61.529 54.8252C61.8324 54.4631 62.0751 54.0407 62.3785 53.6786C62.4392 53.6182 62.4392 53.6182 62.4392 53.5579C62.8033 53.7993 63.1067 54.0407 63.4101 54.2821C63.1067 54.5235 62.864 54.7649 62.6213 55.0667C62.4392 55.3081 62.1358 55.6702 62.1965 56.0323C61.6504 56.0323 61.1649 55.9116 60.8008 55.6702C60.7401 55.7305 60.8008 55.6702 60.8008 55.6702ZM62.9854 55.3684C63.2281 55.0667 63.4708 54.7649 63.7135 54.5235C63.8956 54.6442 64.0169 54.7649 64.199 54.8252C63.8956 55.127 63.6529 55.4288 63.5315 55.7909C63.5315 55.8512 63.5315 55.8512 63.5315 55.8512C63.1674 55.9719 62.864 55.9719 62.4999 56.0323C62.6819 55.8512 62.8033 55.5495 62.9854 55.3684ZM64.5024 55.0063C64.6238 55.0667 64.6844 55.127 64.8058 55.1874C64.8665 55.2477 64.9878 55.1874 65.0485 55.127C64.8665 55.2477 64.7451 55.3684 64.5631 55.4288C64.3204 55.5495 64.0169 55.6702 63.7742 55.7305C64.0776 55.6098 64.3204 55.3081 64.5024 55.0063ZM58.0701 51.3852C58.0701 51.3852 58.0701 51.4455 58.1308 51.4455C56.9779 54.5838 59.5265 56.9979 62.7426 56.8169C67.1117 56.5151 67.7792 52.1698 70.3278 49.4539C71.8449 47.8244 76.578 47.5227 76.0926 51.4455C75.9712 52.6526 74.4542 53.92 73.726 54.8856C72.6944 56.2737 71.6628 58.0239 71.9056 59.7741C72.391 63.2745 77.1242 63.0935 79.8549 62.9728C76.2746 68.2234 69.6603 69.5511 63.7742 67.2578C56.6138 64.5419 54.9147 57.7825 58.0701 51.3852ZM51.9413 63.8781C53.7617 64.3005 55.6429 64.5419 57.2206 63.4556C57.2813 63.4556 57.2813 63.3952 57.2813 63.3349C57.7061 63.9384 58.1308 64.4816 58.6163 65.0247C58.0701 65.2661 57.4633 65.5679 56.9172 65.8697C56.9172 65.8093 56.8565 65.8093 56.7958 65.8093C53.2763 64.8437 48.7252 66.1111 46.1159 68.5252C45.9945 68.6459 46.1159 68.8269 46.2372 68.7666C47.8149 68.1027 49.332 67.3785 51.0311 66.8957C52.7908 66.4128 54.6113 66.3525 56.4317 66.1111C53.519 67.8009 50.7884 70.0943 49.3927 73.0516C49.332 73.2326 49.514 73.4137 49.6354 73.2326C51.0311 71.8445 52.184 70.2754 53.7011 69.008C54.6113 68.2234 55.5215 67.4992 56.4924 66.8957C56.6745 67.6802 56.8565 68.4648 56.9779 69.2494C57.0386 69.9736 56.9779 70.7582 57.1599 71.4824C57.2206 71.6635 57.524 71.7238 57.5847 71.5428C58.3129 70.1547 57.8881 67.8613 57.0386 66.5335C57.6454 66.1111 58.3129 65.749 58.9804 65.3869C58.9804 65.3869 59.0411 65.3869 59.0411 65.3265C60.1333 66.4128 61.4076 67.3181 62.864 67.9216C63.9563 68.4045 65.4126 68.7666 66.9903 69.008C66.9297 69.008 66.8083 69.0683 66.8083 69.189C65.5947 73.2326 63.4101 75.2846 59.2231 76.3709C56.007 77.2159 52.5481 77.2159 49.2713 76.7934C45.0843 76.2502 40.7152 74.6811 42.2322 69.4908C43.3245 65.8093 46.1159 63.8781 49.6961 63.2142C50.4243 63.5159 51.1524 63.697 51.9413 63.8781ZM119.177 48.1865C118.63 49.3332 117.902 50.3592 116.81 51.0231C116.203 51.3852 113.351 52.2301 112.866 51.3852C112.623 51.0231 113.533 48.3676 113.594 47.8244C113.715 46.6174 113.897 45.1086 113.351 43.9015C112.562 42.0306 110.924 42.5738 109.65 43.5998C109.467 43.298 109.285 42.9962 109.043 42.6945C110.014 42.3927 110.378 40.5218 110.196 39.7976C109.892 38.3491 108.375 37.3232 106.919 37.4439C106.737 37.3232 106.555 37.2025 106.373 37.1421C106.191 37.0214 106.009 36.961 105.766 36.9007C110.802 34.1849 118.084 35.0901 119.783 41.4874C120.451 43.5998 120.087 46.1346 119.177 48.1865ZM73.9687 21.0885C76.8815 21.1488 80.0369 21.9937 82.1608 24.0457C84.1632 25.977 86.0444 32.1932 82.4642 33.6417C84.1632 30.3223 79.5514 26.158 76.2746 27.1237C74.2721 27.7272 72.9371 30.0809 72.0269 31.8311C70.8133 34.2452 70.0851 36.7196 70.0244 39.4355C69.1749 38.4698 66.9297 38.6509 65.7767 39.4958C65.6553 36.9007 66.0801 34.4263 67.4758 32.0122C68.9928 29.417 71.1774 27.6065 73.1799 25.4338C73.2406 25.3735 73.2406 25.3131 73.2406 25.1924C73.2406 25.132 73.2406 25.132 73.2406 25.0717C72.4517 22.7783 68.1433 23.0197 66.4442 24.2871C68.5074 22.1748 70.6919 21.0281 73.9687 21.0885ZM54.0045 22.5973C58.0701 20.8471 61.7717 23.0801 65.4733 24.5285C65.4126 24.6492 65.4126 24.7699 65.3519 24.8906C65.2913 25.0717 65.5947 25.2528 65.716 25.132C65.7767 25.0717 65.8374 25.0113 65.8981 24.8906C65.8374 24.951 65.7767 25.0717 65.7767 25.132C65.7767 25.132 65.7767 25.132 65.7767 25.1924V25.2528C65.7767 25.4338 65.7767 25.5545 65.8374 25.7356C65.9588 26.2787 66.2015 26.8219 66.5656 27.3047C65.5947 27.9686 64.6844 28.7532 63.7135 29.5981C60.6188 28.6928 56.8565 29.4774 54.4292 31.5897C54.3079 31.7104 54.4899 31.8915 54.6113 31.8311C56.1283 31.1672 57.5847 30.5034 59.1624 30.2016C60.5581 29.8999 61.9538 29.8999 63.3494 29.8999C60.4974 32.6761 58.0701 36.2972 57.2813 39.8579C56.7352 38.9527 56.1283 38.1077 55.5215 37.4439C53.9438 35.8144 51.9413 34.4866 49.6961 33.5813C49.5747 29.4774 49.4534 24.5889 54.0045 22.5973ZM137.26 74.0775C129.007 81.4405 118.024 84.8806 107.465 87.4153C98.4234 89.588 89.5639 90.7951 80.2189 91.0365C72.391 91.2175 64.5631 91.0365 56.7958 90.5536C49.514 90.1312 42.1716 89.8294 35.1932 87.7171C31.2489 86.1479 27.1832 85.1823 23.2996 83.4925C18.9912 81.5612 14.8648 79.1471 11.2239 76.1295C3.03191 69.4304 -1.8833 59.6534 3.03191 49.3332C10.9812 32.7968 33.3727 28.5118 49.7568 25.7356C48.6645 28.0893 48.4824 30.9862 49.2106 33.3399C45.8125 32.0122 41.9288 31.5897 38.5913 32.0122C38.47 31.8311 38.1666 31.8915 38.1666 32.1329C38.0452 32.2536 38.1059 32.5553 38.2879 32.5553C39.1375 34.9694 40.5938 37.2628 42.3536 39.3751C42.2322 42.272 44.4168 46.4363 46.5406 48.0055C46.7227 48.1262 46.844 47.8848 46.7834 47.7641C46.0552 46.2553 44.9629 44.9275 44.2347 43.4187C43.81 42.5134 43.5672 41.4874 43.2638 40.4615C45.9945 43.5394 49.332 46.1949 52.3054 48.3072C52.4268 48.3676 52.6088 48.2469 52.4874 48.1262C50.5456 45.35 47.6936 43.2377 45.2056 40.8839C44.5381 40.2804 43.9313 39.6165 43.3245 38.9527C46.7227 40.2804 50.4243 41.1857 53.2763 43.5394C53.3977 43.6601 53.6404 43.4791 53.5797 43.3584C51.6379 40.1597 46.48 39.3751 43.2031 38.5302C43.1425 38.5302 43.0818 38.5302 43.0211 38.5905C41.3827 36.78 40.0477 34.7884 38.8341 32.6157C44.0527 32.5553 49.7568 34.0038 53.8224 37.3835C57.524 40.4615 59.3445 46.4967 58.2522 51.2041C58.2522 51.2041 58.2522 51.2041 58.1915 51.2041C58.1308 51.2041 58.0701 51.2041 58.0701 51.2041C58.0701 51.2041 58.0701 51.1438 58.1308 51.1438C58.2522 50.9024 57.9488 50.661 57.7667 50.842C57.524 51.1438 57.2813 51.3852 57.0992 51.6869H57.0386C54.7327 52.0491 52.7908 52.894 50.3636 52.6526C48.179 52.4715 46.2372 51.6266 44.2347 50.9024C43.81 49.3936 42.7784 47.9451 41.322 47.0398C40.2904 46.376 39.0161 45.9535 37.6811 45.7724C35.6179 41.065 36.6495 37.0214 37.9845 32.3139C38.0452 32.0725 37.6811 32.0122 37.6204 32.1932C35.9214 36.2368 34.2829 41.6082 36.7709 45.6517C32.948 45.2896 28.7002 46.557 26.273 48.9711C26.1516 48.9711 26.0302 49.0918 26.0909 49.2125C26.0909 49.3332 26.1516 49.4539 26.273 49.4539C26.6977 50.0574 27.1832 50.5403 27.8507 50.842C28.1541 51.0231 28.5789 51.2041 29.0036 51.3248C28.3968 51.4455 27.7293 51.5059 27.1225 51.5662C26.8798 51.1438 26.3943 50.9024 26.0302 50.661C25.4234 50.2988 24.8166 49.9971 24.1491 49.816C24.0278 49.816 23.9671 49.9367 24.0278 49.9971C24.5132 50.4195 25.0593 50.7817 25.6055 51.1438C25.7875 51.2645 26.0302 51.4455 26.273 51.6266C25.6055 51.6869 25.0593 51.6869 24.7559 51.7473C22.7534 51.9283 19.7194 52.7129 20.0228 55.3684C20.2655 57.6014 23.4209 58.205 25.1807 58.386C27.0618 58.5671 29.1857 58.3257 31.1275 57.6618C31.3095 57.9032 31.5523 58.1446 31.795 58.386C31.2489 61.464 31.977 65.3869 34.2829 67.6802C34.4043 67.8009 34.5864 67.6802 34.5257 67.5595C33.9795 66.1714 33.312 64.8437 32.8873 63.4556C32.4625 62.0071 32.3411 60.438 32.2805 58.9292C33.0693 59.6534 33.9189 60.3776 34.5864 61.1622C35.982 62.6107 37.1957 64.4212 38.7734 65.6283C38.8341 65.6886 39.0161 65.6283 39.0161 65.5076C38.3486 63.7574 36.9529 62.3089 35.6786 60.9208C35.0718 60.2569 34.465 59.5931 33.7368 58.9292C34.5864 59.0499 35.4359 59.2309 36.2248 59.5327C37.6204 59.9552 38.8341 60.6794 40.1691 61.1622C40.3511 61.2226 40.4725 60.9812 40.3511 60.8001C38.5913 58.9292 35.4359 58.0239 32.8266 58.1446C32.5232 57.9032 32.1591 57.6014 31.8557 57.4204C33.0693 56.8772 34.1616 56.2133 35.0111 55.3684C36.2248 56.8169 39.0768 58.8688 40.8972 57.9032C41.0186 57.8428 41.0186 57.6618 40.8972 57.6014C40.7152 57.5411 40.5938 57.4807 40.4118 57.4204C40.7759 56.2737 39.987 54.8252 39.1375 54.1614C37.9845 53.3164 36.4675 53.4372 35.4359 54.3424C35.3752 54.3424 35.3145 54.3424 35.2539 54.4028C31.795 56.9979 27.1832 58.8085 22.8748 57.2997C20.6296 56.5151 20.0228 53.92 22.6321 52.894C23.603 52.5319 24.7559 52.5319 25.7875 52.5319C27.3046 52.4715 29.0643 52.5922 30.46 51.868C31.4916 51.3248 33.4334 49.5746 32.1591 48.3676C31.4309 47.7037 30.0959 47.7641 28.8823 48.1262C31.3095 47.1002 33.8582 46.6777 36.5888 46.9191C39.1375 47.1002 41.2613 47.9451 42.657 50.1178C43.5066 51.4455 43.81 53.6786 43.1425 55.1874C42.7784 56.0323 41.6861 56.7565 41.0186 57.36C40.8366 57.5411 41.0793 57.7825 41.2613 57.6618C43.7493 56.5151 44.7202 54.1614 44.3561 51.8076C44.8415 52.1094 45.3877 52.3508 45.9338 52.5922C44.9629 54.1614 44.4775 55.9719 44.3561 57.7825C44.2954 59.0499 44.1134 61.1622 45.2056 62.0071C45.8731 62.5503 47.2081 62.671 48.0577 62.9124C48.1184 62.9124 48.179 62.9124 48.179 62.9728C45.2056 63.3952 42.7177 65.6886 41.5647 68.4648C41.2613 69.2494 41.0186 70.034 40.8972 70.7582C40.8972 70.7582 40.8366 70.7582 40.8366 70.8185C40.5938 70.9996 40.3511 71.1806 40.1084 71.3617C33.5548 70.8789 26.8191 71.9652 21.0544 67.9216C18.1416 65.8697 16.0178 62.49 16.1998 58.8688C16.3819 55.0063 18.9912 51.9887 21.5398 49.3936C21.6612 49.4539 21.8432 49.3332 21.7825 49.1522C20.933 45.5914 21.2971 42.6945 23.1782 39.4355C23.9671 38.1077 24.8773 36.78 26.273 36.1161C27.9114 35.3315 27.0618 36.0558 26.5157 36.961C26.0909 37.6249 25.5448 38.2284 25.0593 38.8923C23.1175 41.6082 21.3578 45.8931 24.5132 48.4279C24.6953 48.609 25.0593 48.3676 24.8773 48.1262C21.2364 42.7548 26.6371 39.6769 28.3361 35.0901C28.4575 34.7884 28.1541 34.6073 27.9114 34.6677C22.7534 35.8747 18.6271 44.2033 21.3578 48.9107C15.6537 52.7129 13.3478 60.438 17.7775 65.9904C20.933 69.9736 26.9405 72.0859 32.6445 72.448C32.5232 72.5084 32.4625 72.7498 32.6445 72.8705C48.179 82.8889 67.7792 83.3718 85.6196 81.5612C94.6612 80.5956 103.885 79.3282 112.32 75.7674C119.116 72.8705 126.64 68.0423 129.735 60.9812C133.073 53.3768 127.672 47.5227 121.361 43.8412C121.3 43.7808 121.24 43.7808 121.179 43.7808C121.179 42.9963 121.118 42.1513 120.997 41.4271C119.601 34.8487 110.378 31.7708 105.523 36.5989L105.463 36.6593C104.492 36.2972 103.399 36.1161 102.428 35.754C99.5157 34.547 98.9696 32.7364 97.4525 30.3223C97.3312 30.1413 97.2098 29.9602 97.0884 29.7792C109.771 30.7448 123.606 33.2192 134.165 40.7029C139.869 44.7465 144.299 50.7213 144.906 57.7825C145.452 64.3609 142.054 69.7926 137.26 74.0775ZM30.3386 50.9627C30.642 50.7213 30.9455 50.3592 31.0668 50.0574C31.2489 49.6953 31.4309 49.2729 31.4916 48.9107C31.5523 48.9711 31.5523 49.0315 31.613 49.0918C32.0984 49.9971 31.4309 50.6006 30.3386 50.9627ZM30.7634 49.8764C30.5814 50.2385 30.2173 50.4799 29.9746 50.7817C29.7925 50.661 29.6105 50.6006 29.3677 50.6006C29.8532 50.1178 30.1566 49.2125 30.2173 48.609C30.2173 48.5486 30.2173 48.5486 30.1566 48.4883C30.5207 48.4883 30.8848 48.5486 31.1882 48.6693C31.1275 49.0918 31.0061 49.4539 30.7634 49.8764ZM29.9139 48.5486C29.7925 48.9711 29.6711 49.4539 29.4284 49.816C29.3071 50.0574 29.125 50.2385 29.0036 50.4799C28.8823 50.4799 28.7609 50.4195 28.6396 50.3592C28.5182 50.2988 28.3968 50.2385 28.2755 50.2385C28.6396 49.8764 28.8216 49.2125 28.943 48.79C28.943 48.7297 28.943 48.7297 28.943 48.6693C29.3071 48.5486 29.6711 48.4883 29.9139 48.5486C29.9746 48.4883 29.9139 48.4883 29.9139 48.5486ZM26.8191 49.3936C27.0618 49.2729 27.3652 49.1522 27.7293 49.0315C27.608 49.2729 27.4866 49.5746 27.4866 49.8764C27.2439 49.7557 27.0618 49.5746 26.8191 49.3936ZM28.0934 48.9107C28.2755 48.8504 28.4575 48.79 28.6396 48.7297C28.5182 49.0315 28.3968 49.2729 28.2755 49.5746C28.1541 49.7557 28.0327 49.9367 27.9721 50.1178C27.8507 50.0574 27.79 50.0574 27.6686 49.9971C27.9114 49.6953 28.0327 49.2729 28.0934 48.9107C28.0934 48.9711 28.0934 48.9711 28.0934 48.9107ZM36.7709 54.3424C36.7102 54.4631 36.6495 54.5838 36.5888 54.6442C36.4675 54.8856 36.2854 55.0667 36.2854 55.3684C36.2854 55.4288 36.3461 55.4891 36.4068 55.4288C36.8316 55.3081 37.0743 54.7045 37.1957 54.2217C37.4384 54.2217 37.6811 54.2217 37.9845 54.2821C37.8025 54.8856 37.4991 55.4891 37.317 56.0926C36.7102 55.6702 36.1641 55.1874 35.4966 54.8856C35.5573 54.8252 35.6179 54.7649 35.6179 54.7045C35.9214 54.5838 36.3461 54.4028 36.7709 54.3424ZM39.0161 55.0667C39.6229 55.7305 39.6229 56.4548 39.805 57.179C39.3195 57.0583 38.8341 56.9979 38.3486 56.8169C38.8341 56.3944 39.0161 55.6098 39.0161 55.0667ZM38.7127 55.0063C38.652 55.3684 38.5307 55.7305 38.3486 56.0323C38.2273 56.2133 38.1059 56.4548 37.9845 56.6358C37.9238 56.5755 37.8025 56.5755 37.7418 56.5151C37.6204 56.4548 37.4991 56.334 37.3777 56.2737C37.8632 55.8512 38.1059 55.127 38.2273 54.4631C38.47 54.5838 38.652 54.7045 38.8341 54.8856C38.8341 54.8856 38.7127 54.8856 38.7127 55.0063Z" fill="#211915"/>
<path d="M77.733 28.2683C77.551 29.0529 77.4296 29.7771 77.2476 30.5013C77.0655 31.1652 76.7014 31.7687 76.5801 32.4326C76.5801 32.4929 76.7014 32.5533 76.7621 32.4929C77.733 31.5877 78.0364 29.5357 77.9758 28.2683C77.9758 28.2079 77.733 28.1476 77.733 28.2683Z" fill="#211915"/>
<path d="M40.0498 75.3429C40.4138 75.0411 40.5959 74.4979 40.7779 74.1358C40.8993 73.8341 40.4745 73.5927 40.3532 73.8944C40.1711 74.3169 39.807 74.7997 39.8677 75.2825C39.807 75.3429 39.9284 75.4636 40.0498 75.3429Z" fill="#211915"/>
<path d="M118.997 66.7125C119.967 65.6261 120.21 63.8156 120.574 62.4275C120.696 62.005 120.028 61.824 119.907 62.2464C119.664 63.031 119.421 63.7552 119.118 64.4795C118.875 65.1433 118.572 65.8072 118.572 66.5314C118.632 66.7125 118.875 66.8332 118.997 66.7125Z" fill="#211915"/>
<path d="M119.786 50.84C120.21 50.5382 120.332 50.0554 120.453 49.5726C120.635 49.0294 120.878 48.4259 120.817 47.8827C120.817 47.762 120.635 47.6413 120.514 47.762C120.15 48.1241 119.968 48.6673 119.786 49.1501C119.603 49.6329 119.361 50.1761 119.482 50.6589C119.543 50.7796 119.725 50.9003 119.786 50.84Z" fill="#211915"/>
<path d="M123.548 57.4787C124.883 55.0646 125.914 52.4694 127.189 49.995C127.31 49.6932 126.946 49.5122 126.764 49.7536C125.186 51.9866 123.73 54.6421 123.244 57.3579C123.244 57.539 123.426 57.6597 123.548 57.4787Z" fill="#211915"/>
</g>
<path opacity="0.2" d="M37.3411 21.7916C39.7474 18.4238 38.9144 14.5403 36.9092 11.2636C36.5389 10.5354 36.0453 9.86791 35.49 9.23077C35.1815 8.86669 34.7496 8.83635 34.3486 8.92737C34.0092 8.56328 33.6081 8.22954 33.1454 7.95648C32.9911 7.77444 32.7752 7.62274 32.4667 7.56206C32.3433 7.53172 32.2199 7.53172 32.0965 7.53172C31.7262 7.4407 31.356 7.34968 30.9241 7.31934C30.6156 7.289 30.3688 7.38002 30.1529 7.53172C29.9986 7.56206 29.8444 7.56206 29.6901 7.5924C29.0731 7.68342 28.7954 8.25988 28.7954 8.80601C28.7029 8.56328 28.5795 8.32056 28.3635 8.13852C28.5486 7.41036 28.0242 6.43947 27.1603 6.53049C23.9827 6.86424 21.3296 8.38124 19.4785 10.9298C18.553 12.2041 20.7434 13.3874 21.6689 12.1131C21.6998 12.0827 21.7306 12.0221 21.7615 11.9917C21.6998 12.1738 21.6381 12.3558 21.5764 12.5378C21.1753 13.8121 22.8413 14.3886 23.7051 13.6908L24.4455 13.084C24.137 14.2066 25.6487 15.1471 26.5433 14.2369C26.5433 14.2369 26.5433 14.2369 26.5742 14.2066C26.5742 14.3886 26.605 14.5706 26.6667 14.7527C26.7593 15.0864 26.9752 15.3291 27.222 15.4808C27.654 16.6034 27.9625 17.7867 28.1784 18.97C28.3944 20.3049 28.1167 21.9129 28.5486 23.1872C29.0114 24.5222 29.8444 24.6739 30.739 24.3402C30.9858 24.7346 31.4486 24.9773 32.0348 24.7346C32.1273 24.7042 32.2507 24.6436 32.3433 24.6132C32.6826 24.8256 33.1145 24.8559 33.5464 24.5829C33.5773 24.5829 33.6081 24.5525 33.6081 24.5222C33.8858 24.6739 34.1943 24.7346 34.5028 24.6132C35.7368 24.1581 36.5389 23.1872 37.0634 22.0646L37.0943 22.0343C37.2177 21.9736 37.2794 21.8826 37.3411 21.7916ZM30.1837 10.8085C30.122 10.8388 30.0603 10.8995 30.0295 10.9298C30.0295 10.8085 30.0603 10.7174 30.0603 10.5961C30.0912 10.6871 30.1529 10.7478 30.1837 10.8085Z" fill="#979391"/>
<path opacity="0.2" d="M24.3838 23.5817C24.353 23.6424 24.3221 23.7031 24.2913 23.7638C24.0445 24.3402 23.6434 24.7953 23.2115 25.2201C22.5328 26.0393 21.7615 26.7371 20.7126 27.1922C19.6945 27.9507 18.5531 28.4969 17.2265 28.6486C14.6042 29.0126 11.2723 28.5272 8.98936 27.1315C8.18724 26.6461 7.47767 27.1619 7.26172 27.8597C7.69363 28.5879 8.37234 29.2554 8.92765 29.8925C11.6117 31.1365 15.0052 31.4702 17.8126 31.0455C21.1754 30.56 23.6434 28.2541 25.6487 25.6752C26.4508 24.6436 25.3402 23.2783 24.3838 23.5817Z" fill="#979391"/>
<path opacity="0.2" d="M33.3616 23.9155C32.2818 24.0368 30.5542 24.0975 29.7829 23.1873C28.9808 22.2164 29.3202 20.396 29.1968 19.2127C29.0734 18.2115 28.7648 17.2406 28.2712 16.3C27.6851 15.5415 26.9755 14.874 26.2042 14.3582C24.1989 12.9929 21.7309 12.4468 19.4479 13.0536C19.1394 13.1446 18.8309 13.266 18.5224 13.4177C18.5224 13.6301 18.4916 13.8121 18.4916 14.0245C18.8001 13.8728 19.1086 13.7211 19.4479 13.6604C19.6022 13.6301 19.7564 13.6604 19.849 13.7211C22.1011 13.2963 24.3223 13.5997 25.7415 15.8146C27.3766 18.3328 26.3893 20.487 25.217 22.7929C25.217 22.8839 25.2479 22.9446 25.2479 23.0356C25.2787 23.1873 25.3096 23.3693 25.3713 23.521C25.3713 23.521 25.3713 23.5514 25.3404 23.5514C24.8777 24.8257 24.5691 25.9483 23.6436 27.0102C22.8724 27.8597 21.9777 28.5272 20.9905 29.0733C18.9543 30.2566 16.6405 30.8634 14.265 30.8938C12.6608 30.9241 11.0257 30.6814 9.48315 30.1959C9.66826 30.378 9.85336 30.56 10.0385 30.7724C10.0693 30.8027 10.0693 30.8331 10.1002 30.8331C10.1619 30.8331 10.1927 30.8331 10.2544 30.8331C10.347 30.8027 10.4704 30.8331 10.5629 30.8634C11.5502 31.3185 12.5374 31.7736 13.5246 32.2287C13.5863 32.1377 13.648 32.077 13.7714 32.0467C14.5735 31.804 15.3139 32.077 16.0852 32.3198C17.2575 32.077 18.4607 31.9557 19.6022 31.6523H19.633C20.4043 31.1668 21.2064 30.7724 22.0702 30.4387C22.2553 30.3476 22.4404 30.2263 22.5947 30.1049C22.6873 30.0139 22.8107 29.8925 22.9032 29.8015C23.366 29.3161 23.7979 28.8306 24.3223 28.4058C24.9702 27.2833 25.4947 26.1 25.7723 24.856C25.8957 24.3706 26.5127 24.4616 26.667 24.8257C27.7159 25.1898 28.734 25.4325 29.7212 25.5539C29.7829 25.4628 29.8446 25.4021 29.9989 25.3718C30.4308 25.3111 30.801 25.2808 31.2329 25.3718C31.3255 25.4021 31.418 25.4325 31.4489 25.4932C31.8191 25.4628 32.1893 25.4021 32.5595 25.3718C33.4233 25.1594 34.318 24.7953 35.2126 24.2189C35.6137 23.9762 35.9531 23.7031 36.2924 23.3997C36.6009 22.9446 36.9094 22.4895 37.1871 22.0344C36.169 23.0659 34.8424 23.7334 33.3616 23.9155Z" fill="#211915"/>
<path d="M41.2283 9.68593C39.3155 8.92742 37.2177 8.50266 35.1198 8.533V8.50266C34.873 8.01721 34.1943 7.77449 33.7316 7.56211C33.2997 7.38006 32.8677 7.19802 32.405 7.13734C32.6209 6.83394 32.8677 6.53053 33.1146 6.25747C33.855 5.3776 34.9347 4.58875 35.3975 3.52684C35.4901 3.3448 35.3049 3.13241 35.089 3.22343C33.6082 3.98194 31.7263 5.16522 30.5231 6.65189C31.0784 4.61909 31.2018 2.37391 31.2327 0.371442C31.2327 0.15906 30.9859 0.0680387 30.8316 0.21974C29.9678 1.00859 29.9986 2.70765 29.7827 3.73922C29.5359 5.01352 29.2582 6.28781 29.104 7.56211C28.8572 4.92249 28.0242 2.58629 26.2348 0.462463C26.1423 0.341102 25.8955 0.462463 25.9572 0.614165C26.9444 3.13241 27.8082 5.65066 28.271 8.29027C28.271 8.32061 28.271 8.32061 28.3018 8.32061C27.9625 8.16891 27.5923 7.98687 27.2529 7.83517C27.0987 7.77449 26.9444 7.98687 27.0987 8.07789C27.9008 8.533 28.7029 8.92742 29.505 9.38253C30.1529 9.74661 30.7699 10.2927 31.4178 10.6568C31.4486 10.6872 31.4795 10.7175 31.5412 10.7175C31.6029 10.7478 31.6646 10.7782 31.7263 10.8085C31.8188 10.8389 31.9114 10.7782 31.8805 10.6568C33.3922 10.3231 34.873 10.2017 36.3847 10.141C36.3847 10.141 36.3847 10.1714 36.4156 10.1714C38.7911 13.2358 39.624 17.9082 37.5262 21.3366C35.1198 25.2505 30.3688 26.1001 26.3891 24.1583C26.9444 22.3682 27.2221 20.4871 26.9136 18.7577C26.9136 18.697 26.8827 18.6667 26.8519 18.6363C26.7902 17.5137 26.4508 16.4215 25.7412 15.4809C24.5689 13.9032 22.6562 13.0234 20.6509 13.1144C19.9722 13.1447 19.3551 13.3268 18.7998 13.5998C18.769 11.294 19.8488 9.38253 21.854 8.16891C23.5817 7.107 25.5561 7.01598 27.4997 6.71258C27.5614 6.71258 27.5614 6.62155 27.4997 6.62155C23.2732 5.98441 17.4424 8.92742 18.3062 13.7515C18.3062 13.7819 18.3371 13.8122 18.3371 13.8426C17.103 14.4797 15.9924 15.3596 14.5733 15.663C12.2595 16.1484 9.72973 15.2382 7.47763 16.1484C5.84254 16.8159 4.94787 18.4846 4.63936 20.123C4.30001 21.7917 4.54681 23.3087 5.22553 24.6134C5.62659 25.7967 6.39785 26.8282 7.16912 27.8295C8.15634 29.1038 9.17441 30.4084 10.5935 31.2276C13.2159 32.7446 16.7328 32.9873 19.5402 31.9557C22.0392 31.0455 24.0444 29.2555 25.1859 26.8889C25.5253 26.1911 25.8338 25.4629 26.1114 24.6741C29.8135 27.0103 34.9039 25.5539 37.3719 22.1558C38.6368 20.3961 39.223 18.3026 39.007 16.1484C38.8219 14.0853 38.3283 11.6277 36.6624 10.2017C38.1124 10.1714 39.5932 10.2321 41.1049 10.2321C41.4751 10.2017 41.5059 9.80729 41.2283 9.68593ZM8.58825 16.3305C10.5935 15.936 12.6914 16.5125 14.6967 16.0271C16.8562 15.5113 18.2754 13.6605 20.5892 13.5392C23.6125 13.3571 26.2965 15.7237 26.3891 18.7274C26.4817 21.3366 25.0625 23.3998 23.4891 25.3415C23.4583 25.3719 23.4583 25.4022 23.4583 25.4326C19.7254 28.3452 14.9743 29.5285 10.3467 28.0722C7.94039 27.3137 5.84254 25.6753 5.22553 23.157C4.57766 20.5174 5.56488 16.9373 8.58825 16.3305ZM19.4168 31.4096C16.6711 32.4109 13.1542 32.1681 10.6552 30.6511C9.05101 29.6802 7.66273 28.0722 6.55211 26.4035C7.57018 27.4047 8.89676 28.1632 10.4084 28.6183C14.8201 29.8926 20.3424 29.0127 23.5508 25.6146C23.5817 25.6146 23.6125 25.6146 23.6434 25.5843C24.6923 24.7044 25.5561 23.5515 26.0806 22.2772C25.4019 26.2214 23.6125 29.8623 19.4168 31.4096ZM33.6082 7.95653C33.9475 8.13857 34.2869 8.41163 34.6571 8.56334C33.3305 8.62402 32.0039 8.86674 30.739 9.32185C31.2635 8.6847 31.7263 8.01721 32.2199 7.34972C32.6826 7.56211 33.1454 7.71381 33.6082 7.95653ZM30.0295 4.74045C30.2146 3.86058 30.2763 2.2222 30.7082 1.22097C30.5539 3.73922 29.9986 6.07543 29.4433 8.56334C29.4125 8.6847 29.3816 8.77572 29.3508 8.89708C29.2582 8.86674 29.1965 8.80606 29.104 8.77572C29.1348 8.74538 29.1348 8.71504 29.1348 8.6847C29.1348 8.65436 29.1348 8.65436 29.1348 8.62402C29.505 7.31938 29.7518 6.01475 30.0295 4.74045ZM26.6668 1.58506C27.438 2.64697 28.1167 3.92126 28.3018 5.13488C28.4869 6.28781 28.6103 7.44074 28.7955 8.59368C28.6412 8.50266 28.4561 8.44198 28.3018 8.35095C28.3635 8.35095 28.4252 8.35095 28.4252 8.29027C28.2401 5.95407 27.4689 3.73922 26.6668 1.58506ZM29.5667 8.9881L29.5976 8.95776C29.6901 8.77572 29.7827 8.59368 29.8752 8.44198C30.955 6.53053 32.6518 5.04386 34.5954 3.98194C33.9784 4.86181 32.9911 5.62032 32.3433 6.40917C31.6029 7.31938 30.739 8.29027 30.2454 9.35219C30.1529 9.2915 30.0295 9.23082 29.9369 9.17014C29.8444 9.10946 29.721 9.04878 29.5667 8.9881ZM35.5209 9.62525C34.1943 9.62525 32.7752 9.68593 31.6337 10.3534C31.4178 10.0804 31.1401 9.83763 30.8316 9.65559C33.7933 9.01844 36.6315 8.86674 39.5006 9.65559C38.1432 9.62525 36.8166 9.62525 35.5209 9.62525Z" fill="black"/>
<path d="M11.1178 27.1923C12.938 27.6778 16.6401 27.9812 17.9975 26.2214C18.6454 27.0103 19.9719 26.7979 20.8666 26.4641C22.5017 25.8573 23.9825 24.31 24.3219 22.6413C24.723 20.6995 24.1985 18.1509 22.4709 16.9676C20.2804 15.4809 17.9358 17.5744 15.6528 16.6946C15.6528 16.6946 15.622 16.6946 15.5911 16.6642H15.5603C15.4369 16.6035 15.3443 16.7249 15.3443 16.8159C15.3443 16.8463 15.3443 16.9069 15.3752 16.9373C15.8071 17.4834 16.3624 17.9689 17.1028 17.9992C17.4422 18.0295 19.7868 17.6654 19.3549 18.424V18.4543C19.1698 18.7577 19.0156 19.1218 19.3858 19.3948C19.7868 19.7286 20.3421 19.4859 20.7741 19.3342C21.1134 19.2128 21.7613 19.0611 21.6379 19.6072C21.5762 19.85 21.4219 20.0927 21.3602 20.3354C21.2368 20.8512 21.4219 21.5794 21.9772 21.7311C22.0081 21.7311 22.0698 21.7311 22.1006 21.7311C22.224 21.7311 22.3166 21.7311 22.44 21.7311C22.44 21.7311 22.5326 21.7311 22.5017 21.7311V21.7614C22.5017 21.8221 22.5326 21.8524 22.5326 21.9131C22.5326 22.1558 22.5634 22.2772 22.3474 22.3985C22.1932 22.5199 22.0081 22.5806 21.8538 22.6716C21.5762 22.8233 21.3294 23.0053 21.2368 23.3088C21.0826 23.5515 21.1134 23.8245 21.0517 24.0976C20.9592 24.4617 20.8666 24.8258 20.4347 24.9471C20.1879 25.0078 19.8794 24.9471 19.6017 24.9168C18.9847 24.8864 18.4603 25.1292 18.1826 25.6146C18.1209 25.5236 17.9666 25.4933 17.8432 25.6146C17.3188 25.0988 16.856 25.0078 16.1465 25.3112C15.622 25.5236 15.1284 25.8573 14.6348 25.4022C14.3571 25.1292 14.2337 24.6437 13.8018 24.5527C13.8018 24.5527 13.8018 24.5527 13.7709 24.5527C13.7709 24.5527 13.7709 24.5527 13.7401 24.5527C13.7092 24.5527 13.7092 24.5527 13.6784 24.5527C13.3082 24.5527 13.0305 24.6741 12.6912 24.7651C12.4444 24.8258 12.1667 24.9471 11.9199 24.9775C11.1486 25.0382 11.3029 23.8245 11.0252 23.2784C11.0252 23.2481 10.9944 23.1874 10.9635 23.1571C10.7167 22.9447 10.3774 22.8536 10.0997 22.6716C9.69865 22.3985 9.94545 22.0345 10.1614 21.7311L10.1923 21.7007C10.3774 21.3366 10.5933 21.0029 10.5008 20.5781C10.3774 20.032 10.1923 19.6679 10.9018 19.4555C10.9635 19.4252 10.9944 19.3948 11.0252 19.3342C11.1795 19.3038 11.3029 19.2431 11.4571 19.1825H11.488C13.2773 18.0599 11.8582 17.0283 10.1923 17.3014C7.8476 17.6654 6.73698 20.3961 6.95293 22.4896C7.29229 24.7044 8.92738 26.5855 11.1178 27.1923ZM20.1262 25.3719C20.4347 25.3719 20.7124 25.3416 20.9592 25.1595C21.3602 24.8561 21.607 24.0673 21.5145 23.5515C21.5145 23.5515 21.5453 23.5211 21.5453 23.4908C21.6687 23.1267 22.1623 23.0053 22.4709 22.8536C22.8719 22.6413 22.9953 22.3985 22.9953 21.9738C22.9953 21.7311 22.9336 21.4276 22.6251 21.367C22.44 21.3063 22.2857 21.367 22.1006 21.367C21.5762 21.2153 21.7613 20.4568 21.9155 20.123C22.0081 19.9106 22.1315 19.6982 22.1006 19.4859C22.0389 18.7274 21.206 18.8487 20.6815 19.0004C20.4347 19.0914 20.0645 19.2735 19.7868 19.2128C19.4783 19.1521 19.6017 18.9094 19.6943 18.7274L19.7251 18.697C20.0645 17.9385 19.3549 17.6654 18.6454 17.6048C18.2443 17.5744 17.8432 17.6654 17.4422 17.6958C17.0103 17.7261 16.6709 17.5744 16.3624 17.362C16.8252 17.4834 17.3188 17.4531 17.8432 17.3924C18.7071 17.271 19.6017 16.8463 20.4964 16.9069C21.9464 16.998 22.9336 17.8778 23.4581 19.1521C24.2293 21.0636 24.0442 23.2784 22.5943 24.7954C21.7304 25.7056 19.4166 27.1316 18.2752 25.918C18.7996 25.2202 19.3549 25.3416 20.1262 25.3719ZM7.63165 20.6388C7.8476 19.85 8.21781 19.0914 8.83483 18.515C9.35929 17.9992 10.0072 17.7261 10.7784 17.6654C12.105 18.0599 12.321 18.4846 11.4263 18.8791C11.272 18.9701 11.1178 19.0611 10.9635 19.1521H10.9327C10.4391 19.2735 10.038 19.5162 10.0997 20.0927C10.1306 20.3051 10.1923 20.4871 10.254 20.6995C10.3157 21.0029 10.1306 21.2759 9.9763 21.549C9.7295 21.8828 9.39014 22.4289 9.76035 22.8233C10.038 23.1267 10.5008 23.1874 10.8093 23.4605C11.1795 24.0976 10.7784 24.9471 11.6422 25.3112C11.889 25.4022 12.105 25.3719 12.3518 25.2809C12.5678 25.2202 12.7529 25.2202 12.938 25.1595C13.2465 25.0988 13.4624 24.9471 13.7709 24.9775C14.2029 25.0988 14.2646 25.736 14.6039 25.9484C14.8199 26.0697 15.2518 26.0394 15.4677 26.009C16.3624 25.827 16.8252 25.1292 17.6581 25.9484C16.5167 27.1316 14.3263 27.0406 12.8146 26.9193C11.1795 26.7979 9.7295 26.3428 8.64972 25.0382C7.6008 23.8245 7.23059 22.1862 7.63165 20.6388Z" fill="black"/>
<path d="M11.6117 20.5781C11.766 20.5477 11.9819 20.5174 12.0436 20.3353C12.0745 20.2443 11.9819 20.1836 11.8894 20.214C11.8894 20.1836 11.8894 20.1229 11.8277 20.0926C11.6426 20.0015 11.4266 19.9105 11.2415 20.0319C11.1181 20.1229 11.0256 20.305 11.0873 20.4264C11.1798 20.6388 11.4575 20.6084 11.6117 20.5781ZM11.5192 20.305C11.6117 20.2746 11.6734 20.305 11.766 20.305C11.7043 20.3353 11.6426 20.3353 11.5809 20.3353C11.55 20.3353 11.5192 20.3353 11.4575 20.3353C11.4883 20.3353 11.5192 20.305 11.5192 20.305Z" fill="black"/>
<path d="M11.1487 22.2469C11.2721 22.4289 11.5498 22.3986 11.7349 22.3683C11.9508 22.3379 12.1051 22.2469 12.2285 22.0952C12.2593 22.0345 12.2593 21.9738 12.2285 21.9132C12.2285 21.9132 12.2285 21.9132 12.2285 21.8828C12.2285 21.8525 12.1976 21.8525 12.1668 21.8221C12.1668 21.7918 12.1359 21.7918 12.1051 21.7615C11.8583 21.7008 11.6423 21.6401 11.3955 21.7615C11.1796 21.8525 10.9945 22.0649 11.1487 22.2469Z" fill="black"/>
<path d="M12.167 24.0367C12.3212 24.2491 12.5989 24.2188 12.784 24.0671C12.9999 23.9154 13.2159 23.612 13.2159 23.3693C13.2159 23.3086 13.1851 23.2783 13.1542 23.2479C13.1542 23.2479 13.1542 23.2479 13.1851 23.2479C13.2776 23.1873 13.1851 23.0659 13.0925 23.0659C12.7223 23.0356 11.8276 23.5817 12.167 24.0367ZM12.5063 23.7637C12.5989 23.6423 12.7223 23.5513 12.8457 23.4603C12.784 23.5513 12.7531 23.6423 12.6914 23.7333C12.6606 23.794 12.5989 23.8547 12.5372 23.885C12.4446 23.885 12.4755 23.8244 12.5063 23.7637Z" fill="black"/>
<path d="M15.0669 25.1291C15.3754 25.1897 15.4988 24.856 15.5605 24.6133C15.6222 24.3706 15.7456 24.0065 15.4371 23.9155C15.4062 23.9155 15.3754 23.9155 15.3445 23.9459C15.3445 23.9459 15.3445 23.9762 15.3137 23.9762C15.0669 24.0672 14.8818 24.2492 14.8201 24.492C14.7275 24.765 14.7584 25.0684 15.0669 25.1291ZM15.1903 24.6133C15.1903 24.583 15.2211 24.583 15.2211 24.5526C15.2211 24.5526 15.1903 24.583 15.1903 24.6133Z" fill="black"/>
<path d="M17.7818 18.788C17.6584 18.7576 17.5967 18.6969 17.5041 18.6363C17.4116 18.6059 17.2882 18.6969 17.3499 18.788C17.5041 19.1824 18.152 19.1521 18.4296 18.9397C18.5839 18.8183 18.6456 18.5756 18.3988 18.4846C18.152 18.3935 17.8126 18.5149 17.5658 18.5452C17.5041 18.5452 17.5041 18.6363 17.5658 18.6666C17.7201 18.6969 17.8743 18.7273 18.0594 18.7576C18.0594 18.7576 18.0903 18.7576 18.1211 18.7576C17.9669 18.788 17.8743 18.8183 17.7818 18.788Z" fill="black"/>
<path d="M20.435 19.8803C20.1265 19.941 19.8488 20.0624 19.602 20.2444C19.4786 20.2747 19.3552 20.4568 19.4786 20.5478C19.6637 20.6995 20.0031 20.6388 20.219 20.5781C20.435 20.5174 20.7744 20.3961 20.8052 20.1534C20.8669 19.941 20.6201 19.85 20.435 19.8803Z" fill="black"/>
<path d="M20.0031 22.1256C20.219 22.2469 20.4658 22.338 20.7126 22.3683C20.8977 22.3986 21.1754 22.4593 21.2988 22.2469C21.5148 21.7614 20.6201 21.6704 20.3424 21.7311C20.2807 21.7311 20.2807 21.8221 20.3116 21.8828C20.2807 21.8525 20.2499 21.8525 20.219 21.8221C19.9722 21.7008 19.818 22.0042 20.0031 22.1256Z" fill="black"/>
<path d="M18.9228 23.7942C18.8303 23.7335 18.7377 23.4604 18.5835 23.5211C18.3984 23.6122 18.5526 23.8852 18.6452 23.9763C18.8611 24.1583 19.6632 24.5831 19.7558 24.0976C19.8792 23.6122 19.0771 23.3694 18.7377 23.2481C18.676 23.1874 18.5835 23.3694 18.676 23.4301C18.7994 23.5211 18.9228 23.6122 19.0462 23.7032C19.1696 23.7639 19.293 23.8246 19.3856 23.9156C19.4164 23.9459 19.4164 23.9763 19.4473 24.0066C19.4164 24.0066 19.3856 24.0066 19.3547 23.9763C19.2005 23.9459 19.0462 23.8852 18.9228 23.7942Z" fill="black"/>
<path opacity="0.2" d="M117.292 21.2574C117.367 21.2452 117.412 21.2773 117.487 21.2651C117.81 21.1336 118.028 21.0587 118.403 20.9977L118.441 20.9916C118.103 21.0465 117.796 21.057 117.451 21.0736C117.181 21.0781 117.002 20.9493 116.883 20.7317C116.052 20.63 115.25 20.4839 114.442 20.2996C112.076 19.8553 109.788 19.0036 107.644 17.8916C103.521 15.7197 100.117 12.444 97.2571 8.76425C97.1531 8.62325 97.117 8.43176 97.1329 8.31076C96.7907 7.93218 96.4788 7.50919 96.1063 7.17501C95.7613 7.19162 95.409 7.16994 95.0943 7.14215C94.9139 7.21095 94.7335 7.27977 94.5603 7.38687C95.0138 8.97104 95.6275 10.1739 96.8259 11.4001C97.7861 12.3888 98.814 13.3269 99.8045 14.2712C100.981 15.3825 102.113 16.4617 103.374 17.4015C103.418 17.4337 103.463 17.4659 103.501 17.4598C105.188 18.4091 106.899 19.2758 108.656 19.977C111.441 20.5901 114.044 21.4696 116.87 21.4838C116.924 21.3567 117.097 21.2496 117.292 21.2574Z" fill="#211915"/>
<path opacity="0.2" d="M123.072 21.6613C123.979 21.3142 124.923 20.961 125.829 20.614C125.973 20.5507 126.079 20.4936 126.177 20.3979C126.84 20.4092 127.532 20.575 128.195 20.5862C128.466 20.5818 128.7 20.5835 128.971 20.579C129.914 20.4252 130.804 20.2002 131.74 20.0077C132.851 19.5078 133.983 19.1238 135.213 18.8434C135.403 18.6134 135.593 18.3833 135.731 18.082C135.96 17.6465 136.083 17.268 136.402 16.8974C136.299 16.5558 136.234 16.2081 136.206 15.8543C136.08 15.5962 135.954 15.338 135.835 15.1185C135.684 15.1432 135.541 15.2064 135.404 15.3083C134.428 15.9056 133.43 16.387 132.411 16.7525C132.402 16.9132 132.318 17.0862 132.144 17.1942C130.888 17.9567 129.487 18.9817 127.906 18.8416C126.679 18.7233 125.894 17.856 125.034 17.0009C124.982 16.9298 124.929 16.8587 124.915 16.7814C124.51 16.4891 124.105 16.1968 123.724 15.8211C123.387 15.4779 123.126 15.1223 122.82 14.7343C122.633 14.5657 122.438 14.3585 122.259 14.2286C121.944 14.0013 121.659 13.7291 121.375 13.457C120.532 13.3158 119.804 13.9921 119.671 14.7306C119.754 14.7569 119.844 14.8219 119.934 14.8868C120.263 15.1914 120.517 15.5084 120.771 15.8253C120.823 15.8964 120.875 15.9675 120.89 16.0448C120.98 16.1097 121.077 16.2133 121.129 16.2844C121.667 16.8735 120.758 17.6192 120.257 17.024C120.212 16.9915 120.16 16.9204 120.115 16.8879C119.685 17.0777 119.247 17.2288 118.771 17.3861C118.662 17.8418 118.726 18.3888 118.964 18.8278C119.385 18.9981 119.805 19.1683 120.235 19.1779C120.912 19.2664 120.935 20.2182 120.302 20.3615C119.479 20.5355 118.65 20.6709 117.805 20.7291C117.565 21.724 118.437 23.0549 119.643 22.858C120.82 22.7058 121.99 22.3157 123.072 21.6613Z" fill="#979391"/>
<path d="M126.039 20.4956C126.168 20.3552 126.034 20.0588 125.823 20.1729C124.81 20.7757 123.827 21.3337 122.702 21.7558C121.977 22.0331 121.252 22.3105 120.498 22.4334C120.121 22.4949 116.628 22.3089 117.169 21.465C117.872 21.0719 118.919 21.0603 119.682 20.7768C120.482 20.4872 121.275 20.159 121.956 19.6501C121.994 19.644 122.031 19.6378 122.069 19.6317C122.25 19.5624 122.147 19.2212 121.959 19.2519C120.39 19.5873 119.198 18.8272 117.886 18.0469C119.018 17.6633 120.157 17.5175 121.296 17.1726C121.341 17.205 121.341 17.205 121.386 17.2374C121.513 17.2962 121.635 17.1172 121.538 17.0137C120.633 16.1272 120.001 15.0372 119.096 14.1507C119.405 14.1401 119.676 14.1356 120.015 14.0803C121.394 13.9747 122.007 14.5508 122.927 15.5145C123.974 16.537 124.96 17.6489 126.075 18.6204C126.044 18.6651 126.059 18.7423 126.104 18.7748C128.596 19.8399 131.014 18.65 132.983 17.1357C133.528 16.7286 135.524 14.5338 135.82 17.3491C135.855 17.7411 135.717 18.042 135.459 18.3227C135.242 18.1991 135.024 18.0755 134.875 17.901C134.621 17.5844 134.504 17.1661 134.552 16.8003C134.567 16.6784 134.395 16.5872 134.341 16.7153C134.082 17.1951 134.146 17.7415 134.459 18.1677C134.616 18.3808 134.81 18.5878 135.065 18.7052C134.377 19.1755 133.411 19.4125 132.867 19.6205C130.61 20.4262 128.727 20.5345 126.364 20.3631C126.206 20.3491 126.166 20.5543 126.294 20.6131C128.456 21.573 131.036 20.8339 133.068 20.0651C134.774 19.4289 136.531 19.0627 136.268 16.8385C136.148 15.7843 135.573 15.003 134.486 15.419C133.542 15.7718 132.774 16.8516 131.949 17.4236C130.262 18.5739 128.503 19.1391 126.481 18.7133C126.481 18.7133 126.481 18.7133 126.474 18.6747C125.264 17.2015 123.814 15.688 122.37 14.4122C121.113 13.3047 120.069 13.9522 118.594 13.7552C118.391 13.7088 118.291 14.0035 118.471 14.1333C115.815 13.8506 113.214 14.2748 110.551 13.9535C107.963 13.6199 105.453 12.8758 103.067 11.7537C101.701 11.1015 100.389 10.3212 99.1749 9.44525C98.231 8.76397 97.3797 7.74938 96.4126 7.15143C95.7079 6.70955 94.7684 6.46506 94.4003 7.4001C93.8554 8.84126 95.958 10.7256 96.9672 11.7542C97.0194 11.8252 97.0717 11.8963 97.1543 11.9225C97.1615 11.9611 97.1992 11.955 97.2065 11.9936C98.948 13.8175 100.75 15.5519 102.811 17.0057C106.88 19.8421 111.582 21.5013 116.414 21.787C116.534 21.8072 116.602 21.7563 116.663 21.6668C116.663 21.6668 116.701 21.6607 116.694 21.6221C116.733 22.4509 118.574 22.9461 119.056 23.0266C121.306 23.2165 124.41 21.9545 126.039 20.4956ZM116.666 21.2686C116.614 21.1976 116.569 21.1652 116.531 21.1713C116.112 20.8022 115.98 20.3066 115.69 19.7971C115.638 19.7261 115.517 19.706 115.457 19.7954C115.273 20.2629 115.518 20.74 115.892 21.0767C115.26 21.0207 114.665 20.9586 114.026 20.864C114.019 20.8254 114.019 20.8254 113.974 20.793C113.644 20.4887 113.452 20.0827 113.259 19.6766C113.206 19.6056 113.086 19.5855 113.063 19.6688C112.985 20.0793 113.133 20.4529 113.417 20.7247C112.853 20.6178 112.289 20.511 111.718 20.3655C111.71 20.3269 111.71 20.3269 111.703 20.2883C111.442 19.9332 111.31 19.4376 111.193 19.0193C111.178 18.9421 111.058 18.922 110.997 19.0115C110.813 19.479 110.968 19.8912 111.274 20.2788C110.62 20.107 109.959 19.8966 109.291 19.6477C109.283 19.6091 109.276 19.5705 109.231 19.5381C108.79 19.0532 108.493 18.5051 108.196 17.957C108.143 17.8859 107.985 17.8719 107.969 17.9938C107.958 18.5525 108.158 18.9972 108.539 19.3725C107.788 19.0972 107.068 18.7773 106.34 18.4187C106.37 18.374 106.386 18.2521 106.334 18.181C106.08 17.8645 106.083 17.4663 105.898 17.0988C105.845 17.0278 105.718 16.9691 105.702 17.091C105.534 17.4366 105.644 17.8163 105.86 18.139C105.305 17.8717 104.78 17.5595 104.248 17.2088C104.219 17.0545 104.152 16.9063 104.085 16.758C104.004 16.5327 103.923 16.3073 103.705 16.1836C103.615 16.1188 103.472 16.182 103.456 16.3039C103.41 16.4705 103.484 16.6573 103.558 16.8441C102.801 16.3312 102.036 15.7797 101.34 15.1773C101.237 14.8361 101.179 14.5274 101.039 14.1924C101.024 14.1152 100.866 14.1012 100.843 14.1846C100.804 14.3898 100.802 14.5889 100.839 14.7818C100.33 14.3478 99.8513 13.869 99.3423 13.435C99.2683 13.2482 99.1944 13.0614 99.1508 12.8299C99.1146 12.6369 99.0783 12.444 98.9739 12.3019C98.9217 12.2309 98.8013 12.2107 98.7781 12.2941C98.6941 12.4669 98.6927 12.666 98.7289 12.8589C98.5419 12.6906 98.3925 12.516 98.2055 12.3477C97.8763 12.0434 97.5776 11.6944 97.2484 11.3901C97.1904 11.0814 97.1323 10.7727 97.1497 10.4517C97.1656 10.3298 97.0003 10.2772 96.9394 10.3667C96.8481 10.5009 96.7641 10.6737 96.7554 10.8342C96.4639 10.5238 96.1725 10.2133 95.9114 9.85819C95.6055 9.4706 93.7769 7.1836 96.0865 7.48305C96.4025 7.51104 96.9318 8.25994 97.1638 8.46074C100.045 10.9738 103.489 12.7587 107.096 13.7613C110.982 14.798 114.606 14.4455 118.47 14.3323C118.508 14.3262 118.508 14.3262 118.538 14.2815C119.234 14.8839 119.831 15.5819 120.361 16.3308C120.57 16.6149 120.726 16.828 120.913 16.9963C119.649 16.8844 118.26 17.3495 117.142 17.8102C116.923 17.8857 117.012 18.1497 117.185 18.2409C118.265 18.8204 119.523 19.7287 120.788 19.8407C120.169 20.061 119.55 20.2813 118.93 20.5016C118.267 20.6894 117.453 20.7027 116.87 21.116C116.795 21.1283 116.757 21.1344 116.696 21.2239C116.666 21.2686 116.643 21.352 116.612 21.3967C116.711 21.3011 116.673 21.3072 116.666 21.2686Z" fill="#211915"/>
<path opacity="0.2" d="M107.752 98.201C108.098 98.7883 108.737 99.2243 109.473 98.9694C111.336 98.3564 113.198 97.5956 114.962 96.7867C115.109 96.785 115.256 96.7833 115.452 96.781C116.335 96.6229 117.169 96.4654 118.052 96.3566C118.348 96.7966 118.791 97.0378 119.429 96.9811C125.562 96.2692 131.547 95.4604 137.132 92.6854C137.527 93.4199 137.873 93.9579 137.971 94.1045C138.464 94.5423 139.152 94.8792 139.839 94.7234C140.722 94.516 140.767 93.6285 141.404 93.2762C142.678 92.6701 141.737 90.5131 140.414 91.0212C139.777 91.275 139.273 88.0781 139.12 86.4047C140.004 86.4929 140.539 85.3042 139.653 84.7725C138.718 84.1428 137.193 83.2244 136.164 83.4827C136.114 83.4833 136.114 83.4833 136.065 83.4839C136.065 83.4839 136.065 83.4839 136.016 83.4844C135.967 83.485 135.967 83.485 135.918 83.5349C133.811 84.397 131.555 84.8175 129.448 85.7782C127.978 86.4358 126.508 87.192 125.039 87.9482C123.421 88.4598 121.853 89.02 120.284 89.6295C120.137 89.6805 119.99 89.7808 119.892 89.8805C119.5 89.9836 119.108 90.0374 118.715 90.1405C118.667 90.3382 118.471 90.4883 118.226 90.5897C115.873 91.3562 113.719 92.6131 111.366 93.4781L111.317 93.4786C111.268 93.5285 111.268 93.5285 111.219 93.5783C109.016 94.9836 106.419 96.2456 103.871 97.2608C103.579 98.0525 104.27 99.0299 105.251 98.8214C106.182 98.5149 106.967 98.358 107.752 98.201Z" fill="#979391"/>
<path opacity="0.2" d="M104.169 100.633C104.561 100.579 104.905 100.575 105.298 100.521C105.347 100.471 105.396 100.47 105.445 100.47C107.308 99.8061 109.224 99.7349 111.188 99.6137C112.857 99.5453 114.477 99.2303 116.146 99.063C118.795 98.341 121.495 98.1126 124.197 98.2795C126.553 97.8573 128.959 97.6817 131.265 97.2106C134.062 96.6846 136.81 96.0602 139.558 95.5347C139.705 95.4342 139.803 95.2849 139.901 95.1849C138.571 94.2116 137.436 92.8902 136.595 91.4171C135.908 91.672 135.271 91.9758 134.584 92.2801C133.064 92.8905 131.495 93.4026 129.876 93.7669C126.147 94.699 122.367 95.1868 118.587 95.6746C114.66 96.1641 110.733 96.5547 106.756 96.946C105.922 97.0049 105.087 97.0638 104.203 97.0739C104.105 97.1244 104.007 97.1749 103.909 97.176C102.537 98.0812 101.117 98.987 99.6462 99.6956C99.5003 100.043 99.4524 100.34 99.6012 100.685C101.124 100.667 102.646 100.65 104.169 100.633Z" fill="#211915"/>
<path d="M137.807 95.2662C137.807 95.2164 137.757 95.217 137.757 95.2668C137.758 95.3166 137.807 95.3161 137.807 95.2662Z" fill="#010001"/>
<path d="M101.658 100.952C105.875 100.608 110.044 100.166 114.26 99.6236C122.008 98.6958 130.345 98.0584 137.843 95.8466C140.1 96.1678 142.545 93.864 142.389 91.5398C151.168 90.9469 159.99 88.9678 168.369 86.3503C168.712 86.2475 168.612 85.7537 168.269 85.7081C164.294 85.4555 160.322 85.7473 156.399 86.286C154.781 86.502 153.114 86.7186 151.447 86.9352C157.278 85.1874 162.911 82.9965 168.198 79.8692C168.492 79.7174 168.343 79.2242 168.048 79.2275C161.476 79.5483 154.96 81.947 148.641 84.3436C153.733 81.8123 158.626 78.3429 162.93 74.7316C163.125 74.5315 162.928 74.2368 162.683 74.289C158.615 75.3242 154.894 77.1968 151.222 79.2669C147.795 81.1857 144.073 82.9099 140.746 85.1246C139.905 83.3029 136.562 81.4596 134.802 82.9145C128.971 84.7612 123.341 87.7439 117.807 90.3296C111.685 93.1693 105.614 96.157 99.6405 99.3415C99.5422 99.2931 99.3462 99.3448 99.2975 99.4443C98.2737 101.138 100.579 101.014 101.658 100.952ZM161.558 75.1924C158.33 77.8018 154.954 80.116 151.38 82.185C147.66 84.305 143.741 85.8335 139.823 87.6093C139.578 87.711 139.776 88.0553 139.972 88.0036C140.56 87.8486 141.148 87.644 141.687 87.4401C141.736 87.489 141.785 87.4884 141.834 87.4384C149.82 84.8253 158.047 81.0218 166.482 80.1358C158.257 84.6816 149.19 86.8119 140.172 89.1891C139.78 89.2924 139.93 89.8846 140.322 89.7813C142.332 89.3629 144.341 88.8951 146.35 88.3778C153.019 87.6599 159.538 86.1025 166.309 86.2743C157.782 88.646 149.202 90.0285 140.425 91.0668C139.932 90.3795 139.488 89.7906 139.288 88.902C139.088 87.9145 139.281 87.071 139.474 86.1286C147.165 83.0733 153.62 77.607 161.558 75.1924ZM99.7894 99.7852C105.665 96.7503 111.639 93.7637 117.613 90.9256C123.196 88.3394 129.124 86.2441 134.608 83.461C134.559 83.511 134.51 83.5611 134.461 83.6111C134.412 83.6611 134.461 83.7596 134.51 83.7095C134.657 83.6089 134.804 83.5578 134.902 83.4577C134.951 83.4077 134.901 83.3587 134.852 83.3593C134.852 83.3593 134.852 83.3593 134.901 83.3587C135.882 83.2983 136.764 83.041 137.747 83.3765C138.877 83.7598 139.615 84.5433 140.452 85.3258C140.159 85.527 139.865 85.7283 139.571 85.9295C139.571 85.7811 139.62 85.6815 139.619 85.5331C139.619 85.3846 139.471 85.2873 139.373 85.4368C138.447 86.9319 138.556 89.801 139.885 91.1718C139.542 91.2252 139.544 91.7695 139.888 91.7162C140.574 91.7085 141.31 91.6508 141.996 91.5937C141.657 92.5872 141.268 93.5814 140.437 94.2835C140.094 94.5842 139.703 94.7866 139.262 94.94C138.671 94.4517 138.13 93.9628 137.686 93.2749C137.242 92.6365 136.944 91.7985 136.452 91.2597C136.353 91.1618 136.207 91.2624 136.207 91.4109C136.358 92.3495 136.999 93.2331 137.541 93.9694C137.886 94.4109 138.28 94.8025 138.772 95.1434C138.331 95.2968 137.841 95.4012 137.351 95.5057C137.351 95.5057 137.302 95.5062 137.302 95.5557C136.861 95.6101 136.419 95.6151 135.929 95.67C135.732 95.4248 135.486 95.2296 135.289 95.0338C134.993 94.7402 134.747 94.4955 134.403 94.3014C134.255 94.204 134.06 94.3547 134.109 94.5026C134.307 94.9953 134.701 95.4363 135.095 95.7783C134.409 95.885 133.673 95.9427 132.987 96.0493C132.495 95.7579 132.053 95.5154 131.659 95.1238C131.413 94.8791 131.215 94.5844 131.067 94.2891C130.919 94.0433 130.869 93.7965 130.623 93.6012C130.524 93.5034 130.377 93.5545 130.329 93.7035C130.135 94.349 130.825 95.1332 131.268 95.5736C131.514 95.8183 131.809 96.0624 132.104 96.2076C131.516 96.3132 130.928 96.3692 130.339 96.4748C130.339 96.4253 130.339 96.3758 130.29 96.3269C129.896 95.9848 129.55 95.4443 129.059 95.2518C128.912 95.204 128.814 95.3041 128.815 95.4525C128.915 95.9463 129.358 96.3373 129.8 96.5798C128.819 96.7392 127.79 96.8992 126.81 97.1081C126.367 96.8656 125.974 96.573 125.629 96.2304C125.284 95.8879 125.135 95.3452 124.741 95.0526C124.643 95.0042 124.496 95.0554 124.448 95.1549C124.302 95.7009 124.845 96.3877 125.189 96.7302C125.386 96.926 125.632 97.1212 125.878 97.2669C124.996 97.4252 124.064 97.5841 123.182 97.7424C123.034 97.5956 122.886 97.4488 122.739 97.302C122.541 97.0567 122.393 96.8109 122.148 96.6652C122.049 96.6168 121.951 96.6674 121.903 96.8164C121.855 97.2624 122.151 97.6055 122.545 97.898C121.564 98.0574 120.584 98.2168 119.652 98.3262C119.405 98.032 119.061 97.7884 118.766 97.5443C118.47 97.2507 118.223 96.7585 117.879 96.5644C117.781 96.516 117.634 96.5672 117.634 96.7156C117.587 97.211 118.08 97.6509 118.375 97.9941C118.572 98.1403 118.769 98.3361 118.966 98.4824C117.985 98.5923 116.955 98.7522 115.926 98.8627C115.729 98.7659 115.532 98.6197 115.385 98.5223C115.139 98.3271 114.941 98.0324 114.744 97.8366C114.646 97.7388 114.499 97.7899 114.499 97.9384C114.501 98.3343 114.748 98.7274 115.092 98.971C114.258 99.0793 113.425 99.1876 112.64 99.2458C111.903 98.9076 111.41 98.2698 110.966 97.6314C110.868 97.5335 110.721 97.5351 110.721 97.6836C110.773 98.4254 111.217 99.0143 111.807 99.3541C111.169 99.4107 110.532 99.5168 109.943 99.5729C108.963 99.6828 107.933 99.7933 106.952 99.9032C106.804 99.7564 106.706 99.609 106.558 99.4127C106.41 99.2164 106.213 99.0701 106.016 98.9239C105.918 98.8755 105.82 98.9261 105.82 99.025C105.822 99.3715 106.019 99.7157 106.265 99.9604C105.873 100.014 105.481 100.019 105.089 100.072C104.647 99.929 100.087 100.574 99.7894 99.7852Z" fill="#010001"/>
<defs>
<clipPath id="clip0">
<rect y="20" width="146" height="72" fill="white"/>
</clipPath>
</defs>
</svg>
