<svg width="199" height="103" viewBox="0 0 199 103" fill="none" xmlns="http://www.w3.org/2000/svg">
<g clip-path="url(#clip0)">
<path opacity="0.2" d="M28.6644 68.0265C28.5591 67.7633 28.4139 67.5922 28.2212 67.3789C28.1209 67.2052 27.8151 66.5945 27.891 67.1286C27.6995 66.1524 26.9787 65.3862 25.9445 65.4457C25.6297 65.4638 25.3201 65.5714 25.0606 65.7658C24.6328 65.3866 24.115 65.0125 23.6024 64.7279C22.7621 64.2377 21.5764 64.7996 21.1705 65.5858C20.7299 66.5535 21.1887 67.4694 22.0315 68.0043C23.8096 69.1135 24.1619 72.0998 26.5926 72.0048C27.989 71.9693 29.0514 70.8312 29.0166 69.4422C28.9883 68.9502 28.87 68.4634 28.6644 68.0265Z" fill="#979391"/>
<path opacity="0.2" d="M37.4639 57.8724C37.5679 57.3279 37.442 56.7069 36.9165 56.1987C35.5803 54.9294 34.2043 53.7521 32.7434 52.6694C31.1875 51.5025 28.8971 53.2497 29.9892 54.9818C29.9944 55.0713 30.0445 55.1581 30.0972 55.2897C30.9851 57.3925 33.7028 63.0697 36.7743 60.7839C37.8547 59.9589 37.9252 58.833 37.4639 57.8724Z" fill="#979391"/>
<path opacity="0.2" d="M45.6554 44.2083C45.103 44.0157 44.4683 43.9625 43.8786 43.9067C42.3009 43.1449 40.5691 42.8406 38.8103 42.8521C37.0516 42.8635 36.4917 45.6779 38.1516 46.3004C38.5666 46.456 38.934 46.5695 39.3464 46.6804C39.4466 46.8541 39.5468 47.0278 39.7344 47.1516C41.0655 48.3315 42.5752 50.2639 44.3649 50.7892C46.1969 51.2671 47.9684 49.9087 47.8128 47.9881C47.8076 47.8987 47.8025 47.8092 47.7973 47.7198C48.1145 46.1759 47.2652 44.7439 45.6554 44.2083Z" fill="#979391"/>
<path opacity="0.2" d="M53.6437 45.05C53.0295 43.784 52.9279 42.8027 51.6174 41.9806C50.402 41.2428 49.1648 40.9101 47.9892 40.0803C46.9087 39.3348 45.8256 38.5445 44.5037 38.3064C42.9067 37.9945 41.8109 38.5511 40.3926 38.9917C38.8844 39.4375 37.3723 39.0309 35.8512 39.253C34.51 39.4648 33.4142 40.0215 32.4764 40.9729C31.7082 41.7351 31.1007 42.9367 30.2849 43.6568C30.4777 43.87 30.5432 44.2252 30.2439 44.5117C29.2239 45.6025 29.1406 48.0753 28.5935 49.5427C27.8896 51.423 26.9031 53.0952 26.5667 55.089C26.4601 55.5888 25.9706 55.7067 25.6006 55.5485C25.4709 55.6457 25.3411 55.7429 25.1613 55.7532C24.8465 55.7713 24.5742 55.7421 24.3018 55.7129L24.3044 55.7577C24.3493 55.7551 24.3493 55.7551 24.3943 55.7525C25.0341 55.8952 25.6662 55.9037 26.2559 55.9595C26.8622 55.5207 27.3709 54.953 27.9773 54.5142C28.0646 54.4643 28.152 54.4145 28.2419 54.4093C28.5091 54.349 28.7815 54.3782 28.9344 54.6835C29.0346 54.8573 29.1348 55.031 29.2351 55.2047C29.9955 54.3084 30.7007 53.2357 31.2235 52.1287C32.7665 53.072 34.5267 53.8682 35.3387 55.4369C35.8925 56.4371 35.9543 57.5105 36.7278 58.4084C37.1608 58.877 37.631 59.209 38.2336 59.4884C38.3183 59.3938 38.3582 59.3018 38.4455 59.2519C38.8219 58.7366 39.612 59.1399 39.6429 59.6766C39.81 61.0131 40.1968 62.2473 40.0492 63.602C39.9876 64.0992 39.5431 64.2145 39.2206 64.0984C39.2939 64.5878 39.3672 65.0772 39.5304 65.5614C39.75 65.4591 40.0198 65.4435 40.2575 65.6542C42.1642 67.4292 44.1876 67.3128 46.4422 66.51C45.8357 65.3781 44.3852 64.4744 44.1333 63.2324C43.632 60.7932 44.2587 57.5712 42.0347 55.7696C41.657 55.4772 40.9722 55.3371 40.6844 55.0396C40.3465 54.6552 40.2758 54.2105 40.0702 53.7736C39.5511 52.5919 38.7699 51.5599 37.7767 50.7644C36.3082 49.5476 34.2204 48.5459 32.2586 48.1651C32.2753 47.6706 32.247 47.1786 32.1763 46.7339C32.1712 46.6445 32.1236 46.6023 32.1185 46.5129C32.7403 46.3425 33.2644 46.0431 33.8258 45.6069C34.8612 44.7845 35.2247 44.0456 36.2486 43.8072C36.201 43.7651 36.1959 43.6756 36.1933 43.6309C36.043 43.3703 36.0648 42.9652 36.3667 42.7235C36.454 42.6736 36.4938 42.5815 36.5812 42.5316C36.711 42.4344 36.8882 42.3794 37.0257 42.4163C37.8697 42.1883 38.8243 42.3128 39.7287 42.3505C39.7711 42.3032 39.8161 42.3006 39.906 42.2955C42.4972 41.0694 45.483 42.7823 47.4051 44.8256C47.495 44.8204 47.5426 44.8626 47.6351 44.9021C49.3477 45.6562 49.5457 47.5295 50.5273 48.9089C50.5723 48.9064 50.6198 48.9485 50.6674 48.9906C52.9209 50.5213 54.9043 48.9263 56.4908 47.4889C55.7019 46.3227 54.1577 46.1423 53.6437 45.05Z" fill="#211915"/>
<path opacity="0.2" d="M25.83 47.7722C25.6848 47.6011 24.4309 47.7629 24.2459 47.6838C23.5355 48.6671 22.8856 49.916 22.5953 51.1443C22.6879 51.1839 22.9897 50.9421 23.1246 50.9344C23.1696 50.9318 23.3738 50.561 23.4188 50.5584C23.3738 50.561 23.3738 50.561 23.3263 50.5189C23.5087 50.5533 23.6912 50.5877 23.871 50.5773C23.9108 50.4853 23.993 50.3459 24.0329 50.2539C24.142 49.7989 24.2962 49.3413 24.6854 49.0496C24.9873 48.8079 25.3894 48.7399 25.7491 48.7192C25.7414 48.585 25.7337 48.4508 25.7709 48.3141C25.6733 48.1851 25.9726 47.8986 25.83 47.7722Z" fill="#211915"/>
<path opacity="0.2" d="M37.317 68.6504C35.9746 69.6251 34.8787 68.6112 34.285 67.7031C33.4434 66.4053 32.7908 66.039 31.7449 65.1119C30.9368 64.3956 30.5179 63.3876 29.5774 62.7237C28.4468 61.8913 27.067 61.4322 25.6949 61.1073C20.9812 59.9426 14.2083 61.4092 11.8101 65.9897C11.6483 66.3131 11.6239 66.6735 11.7318 66.9814C11.692 67.0734 11.6522 67.1655 11.6574 67.2549C11.1938 69.3907 10.5901 71.4447 9.38909 73.3087C8.68387 74.3814 7.79366 75.3749 7.04091 76.4055C7.67813 76.5034 8.31021 76.5119 8.91913 76.1179C9.83251 75.5269 10.4452 74.4147 10.9809 73.5312C12.1292 71.5356 13.0476 69.4635 13.596 67.2331C13.5857 67.0542 13.6204 66.8727 13.7475 66.7308C13.9569 66.4495 14.2138 66.2104 14.4733 66.0159C15.2364 65.1643 16.3193 64.384 17.3985 64.3219C18.4301 64.2177 19.2331 64.8446 19.9063 65.5687C20.7555 65.4301 21.6099 65.381 22.5194 65.5081C23.7014 65.6645 25.1609 65.9395 26.1514 66.6902C26.7643 67.1486 26.9802 67.7644 27.4658 68.3647C27.9014 68.8781 28.459 69.1601 28.9369 69.6262C28.9845 69.6683 29.032 69.7105 29.0796 69.7526C29.2363 69.3397 29.348 68.9295 29.2773 68.4848C29.0961 67.6875 30.1546 67.2676 30.5029 67.8309C30.6853 67.8653 30.8253 67.947 30.9255 68.1207C31.0733 68.3366 31.2185 68.5077 31.4061 68.6315C31.6438 68.8422 31.7016 69.0633 31.6245 69.2921C31.9753 69.9001 32.2786 70.466 32.7115 70.9347C33.0366 71.0955 33.3616 71.2563 33.7291 71.3698C33.8216 71.4093 33.8665 71.4067 33.959 71.4463C34.4909 71.2811 34.9457 71.3446 35.4455 71.4056C36.1417 70.9617 36.8354 70.4731 37.5317 70.0292C38.2125 69.3169 38.6608 68.4834 39.1091 67.6499C38.7044 67.6731 38.0981 68.1119 37.317 68.6504Z" fill="#211915"/>
<path opacity="0.2" d="M44.5691 50.4185C44.5614 50.2844 44.5267 50.4658 44.5216 50.3764C44.474 50.3343 44.2017 50.3051 44.1991 50.2603C41.2198 49.4445 38.871 46.2591 37.5257 44.0479C37.5232 44.0032 37.5232 44.0032 37.5206 43.9585C37.4281 43.9189 37.3382 43.9241 37.2457 43.8845C37.1082 43.8476 36.8859 43.9052 36.8962 44.0841C36.8128 44.9864 38.0361 47.4289 39.0369 48.3586C40.4734 49.8016 42.5239 50.9401 44.5306 51.3182C44.6681 51.3552 44.758 51.35 44.848 51.3448C44.6951 51.0395 44.5871 50.7316 44.5691 50.4185Z" fill="#211915"/>
<path opacity="0.2" d="M37.0067 60.9053C37.0015 60.8158 37.0439 60.7685 37.0388 60.6791C33.8631 61.9388 31.3422 58.8978 29.9763 56.3289C29.8363 56.2472 29.6962 56.1655 29.5588 56.1285C29.3738 56.0494 29.1066 56.1097 29.0269 56.2937C28.4425 57.8979 30.1539 59.4149 31.2023 60.3867C32.7235 61.7351 34.7162 62.6525 36.7036 61.9099C36.7935 61.9048 36.8359 61.8575 36.8783 61.8101C36.9977 61.534 36.9797 61.221 37.0067 60.9053Z" fill="#211915"/>
<path d="M70.5324 13.204C66.2311 12.1502 62.7435 16.6138 60.2848 19.3579C56.3 23.8053 52.648 28.5476 49.1361 33.3716C48.3806 32.7869 47.4157 32.4834 46.4612 32.3588C44.917 32.1784 42.706 32.171 41.456 33.1853C41.4136 33.2326 41.4162 33.2773 41.5061 33.2722C44.5933 32.8253 47.4504 32.3019 49.8055 34.8139C49.9006 34.8982 49.9905 34.893 50.0779 34.8431C50.4609 36.7955 50.7411 38.5294 49.9024 40.4175C49.2627 41.8454 48.2376 42.8467 47.2228 44.0269C46.7217 43.1583 45.5718 42.7757 44.7367 42.375C43.6241 41.8557 42.4691 41.3837 41.2024 41.3219C42.1619 39.9654 42.5138 38.24 42.5535 36.5774C42.5392 35.5461 42.5764 33.8388 41.5511 33.2696C41.5485 33.2248 41.5485 33.2248 41.501 33.1827C39.0432 32.0228 35.1687 33.6817 33.7608 35.8717C31.5845 35.6828 29.2607 38.4192 29.5615 40.5109C29.5191 40.5582 29.5217 40.603 29.5243 40.6477C29.2725 40.9763 29.1633 41.4313 29.0888 41.7048C29.0516 41.8416 29.0144 41.9783 28.9347 42.1624C26.9486 42.1421 24.3471 43.1892 22.9353 44.5269C22.8004 44.5347 22.7182 44.674 22.7683 44.7609L22.7709 44.8056C19.017 45.4255 15.1298 48.4313 14.1743 52.2107C13.5167 54.8961 15.228 54.8425 16.8929 53.9839C16.8954 54.0286 16.943 54.0707 16.988 54.0681C18.5952 54.559 20.0481 53.9369 21.2531 52.9253C22.5428 51.819 24.0446 50.4761 24.7664 48.9089C24.8987 48.8564 25.0311 48.8039 25.1184 48.754C24.6099 50.8923 24.6538 53.2232 25.4466 55.2418C24.2749 55.2643 23.1136 55.4657 22.2297 55.7858C22.1822 55.7437 22.0897 55.7041 21.9972 55.6646C21.992 55.5751 21.897 55.4909 21.807 55.496C19.5408 55.3123 17.2194 56.5228 15.8783 58.3052C15.8758 58.2605 15.8282 58.2183 15.7383 58.2235C15.6933 58.2261 15.6484 58.2287 15.5584 58.2339C15.5135 58.2364 15.5135 58.2364 15.5109 58.1917C15.4659 58.1943 15.421 58.1969 15.376 58.1995C14.117 58.2719 13.0893 59.2285 12.3789 60.2117C11.5864 61.3343 10.6397 62.9144 10.7246 64.3904C7.7801 64.9637 6.05113 67.8453 5.12123 70.5014C4.61904 71.9663 4.51123 73.2289 5.13573 74.6738C5.44927 75.4186 6.16369 76.8583 7.20303 76.8883C8.28733 76.9156 9.46142 75.3673 10.0999 74.7023C11.2868 73.3776 12.1937 71.8894 12.868 70.2801C13.3035 69.2229 13.9855 67.7477 13.6462 66.5557C14.3875 66.1092 14.9334 65.4047 15.6747 64.9582C16.4609 64.5091 17.3524 64.3231 18.1412 63.9188C18.1412 63.9188 18.1412 63.9188 18.1836 63.8715C18.271 63.8216 18.3583 63.7717 18.3506 63.6375C19.0649 63.5066 19.819 63.2838 20.541 63.2871C21.2155 63.2483 21.9529 63.52 22.6274 63.4812C22.63 63.5259 22.6325 63.5706 22.6801 63.6127C22.6852 63.7022 22.7751 63.697 22.8175 63.6497C23.4175 63.8844 24.0072 63.9402 24.6894 64.0356C25.4615 64.1258 25.9819 64.5446 26.6718 64.7741C26.632 64.8662 26.727 64.9505 26.8144 64.9006C26.8594 64.898 26.9467 64.8481 26.9917 64.8455C27.6649 65.5696 28.4679 66.1965 29.1438 66.9653C29.2864 67.0917 29.3892 67.3102 29.4894 67.4839C29.3969 67.4444 29.2222 67.5442 29.1849 67.6809C29.1568 68.7595 28.5068 70.0085 27.596 70.6442C26.3358 71.4796 24.7157 70.7651 23.7122 69.7907C22.8989 68.9849 22.3374 67.8505 21.6115 66.9949C20.5952 65.7969 19.6187 64.5069 18.104 64.0555C17.9665 64.0186 17.8869 64.2026 18.0269 64.2843C19.4222 65.0118 20.5361 66.3388 21.5178 67.7182C15.8078 74.329 10.0606 81.0766 4.72837 87.9798C4.68598 88.0271 4.68598 88.0271 4.64359 88.0744C4.60377 88.1664 4.69884 88.2507 4.73866 88.1587C8.00158 85.2785 10.9163 81.8351 13.8914 78.6574C16.8241 75.527 19.7093 72.3545 22.4994 69.0977C22.7448 69.4425 22.9902 69.7874 23.2331 70.0876C23.819 70.8616 24.4974 71.6751 25.5444 71.8392C27.7259 72.1176 30.0703 69.739 29.6346 67.6551C29.8826 68.0446 30.1755 68.4317 30.5006 68.5924C30.7331 68.7137 31.0055 68.7429 31.2752 68.7274C31.4796 69.9272 31.8549 71.7454 33.2142 71.8467C34.8933 72.0193 36.8074 70.7873 37.9648 69.7335C39.0349 68.7296 39.7966 67.0704 39.8414 65.4972C39.8941 65.6288 39.9918 65.7578 40.0894 65.8868C41.2059 67.2585 43.6392 67.2083 45.2001 66.8941C46.761 66.5799 47.9865 65.926 48.3885 64.2875C48.7507 62.7409 48.6271 60.5941 47.6481 59.2594C48.0167 58.6099 48.2004 57.8814 48.0564 56.9474C47.843 54.8057 46.8574 52.5739 45.1537 51.1911C45.1062 51.149 45.0612 51.1515 45.0163 51.1541C44.9584 50.9331 44.9032 50.7568 44.7554 50.5409C45.9798 50.65 47.118 50.046 47.8668 48.1631C48.3793 46.8772 48.41 45.8433 48.0489 45.0564C48.0965 45.0985 48.144 45.1406 48.144 45.1406C48.4793 45.4803 48.8198 45.9095 49.1128 46.2965C49.1603 46.3386 49.2079 46.3808 49.2554 46.4229C49.4726 47.8463 49.9648 49.3437 51.5643 49.7004C53.2114 50.0993 55.1435 49.1804 56.2508 48.0397C58.5528 45.7084 58.6487 40.3181 55.2286 38.8995C55.1667 36.2555 53.0545 34.0436 50.2873 34.5618C50.2873 34.5618 50.2847 34.5171 50.2397 34.5197C54.0664 29.6776 57.8431 24.7486 62.0475 20.1988C64.3816 17.6414 67.7767 13.1382 71.6259 15.7437C73.2692 16.8608 73.3735 19.4574 72.5193 21.0771C71.5431 22.9282 69.6571 23.0816 67.7506 22.8772C67.7056 22.8798 67.6607 22.8824 67.6183 22.9297C67.441 22.9848 67.319 23.2161 67.5091 23.3847C70.3537 25.7788 73.8428 23.6934 74.8343 20.5401C75.8734 17.4289 73.7366 14.0069 70.5324 13.204ZM13.6165 78.5834C13.1476 79.0592 12.7237 79.5323 12.2548 80.008C15.5035 76.0966 18.6096 72.0588 21.7709 68.1973C21.9662 68.4553 22.1165 68.7159 22.3118 68.9739C19.4768 72.2332 16.5916 75.4057 13.6165 78.5834ZM38.9761 57.5147C38.9787 57.5594 38.9838 57.6489 38.9864 57.6936C38.7489 59.0535 37.9563 60.176 36.5406 60.6613C34.6829 61.3067 33.1952 60.5397 32.0285 59.0811C30.7167 57.4514 29.7517 55.5774 28.4424 53.9924C29.3725 52.9068 30.1522 51.5606 30.6621 50.23C31.4073 50.6358 32.1499 50.997 32.8552 51.4949C33.4205 51.9111 33.8163 52.5165 34.334 52.8906C34.6167 53.0987 34.8942 53.2173 35.2115 53.244C35.8372 53.9259 36.5477 54.5133 37.0437 55.2925C37.3893 55.8111 37.5731 56.6531 38.0935 57.0719C38.4237 57.3221 38.7012 57.4408 38.9761 57.5147ZM28.2331 54.2737C28.4939 54.8869 28.7972 55.4528 29.1454 56.0161C28.4079 55.7445 27.5407 55.57 26.6787 55.485C27.2478 55.183 27.7642 54.7494 28.2331 54.2737ZM34.5678 52.2489C33.2124 51.4294 32.4234 50.2632 30.8265 49.9513C31.0603 49.3096 31.2491 48.6705 31.3929 48.034C31.6086 47.0792 31.7743 46.0376 31.4505 45.1139C31.8526 45.0459 32.2392 44.7096 32.5411 44.4678C32.7133 44.3233 32.9304 44.1762 33.055 43.9895C33.5727 44.3636 34.3744 44.1828 34.9435 43.8809C35.0732 43.7836 35.2929 43.6813 35.51 43.5342C35.88 43.6924 36.2449 43.7611 36.6149 43.9193C36.8898 43.9932 37.1249 44.1592 37.3999 44.2331C38.0012 45.2755 39.0252 46.6076 40.1765 47.7979C39.6961 48.8576 39.3056 49.9121 38.5451 50.8085C37.5676 51.8519 35.9232 53.0684 34.5678 52.2489ZM37.2135 43.3464C37.1686 43.349 37.1262 43.3963 37.0838 43.4436C37.0388 43.4462 37.0414 43.4909 36.999 43.5382C36.9065 43.4987 36.814 43.4591 36.7215 43.4196C36.444 43.3009 36.169 43.227 35.8967 43.1978C36.1986 42.9561 36.4953 42.6249 36.5672 42.3066C37.7299 42.9128 39.8754 42.565 40.8131 41.6136C40.8157 41.6583 40.8607 41.6557 40.9082 41.6979C42.0529 41.991 43.3852 42.4079 44.5929 43.0115C42.0812 42.483 38.8964 42.8008 37.2135 43.3464ZM37.4825 33.9075C38.7209 33.4773 39.8579 33.6362 41.1169 33.5638C42.3504 36.1852 41.68 38.6469 40.7951 41.3005C40.0885 41.5655 39.4796 41.9596 38.6728 42.0508C38.0009 42.1344 37.3162 41.9943 36.6366 41.9436C37.343 40.1081 35.801 36.8313 33.8739 36.2691C33.8739 36.2691 33.9189 36.2665 33.9163 36.2218C35.0789 35.2574 36.0642 34.3481 37.4825 33.9075ZM31.0785 37.8659C31.7992 37.0615 32.6882 36.8309 33.5643 36.3766C34.1978 37.1928 35.0881 37.7698 35.6393 38.7253C36.2432 39.8124 36.1675 40.8488 36.4117 41.9566C36.4117 41.9566 36.3668 41.9592 36.3693 42.0039C35.9274 42.1639 35.5562 42.7686 35.2119 43.0577C34.5632 43.5438 33.9838 43.6668 33.2592 43.6188C33.254 43.5293 33.2964 43.482 33.2463 43.3952C33.2438 43.3504 33.1988 43.353 33.1988 43.353C33.1602 42.6821 32.5242 41.8213 32.1413 41.4394C31.6633 40.9733 30.6381 40.4041 29.8788 40.5375C30.1396 39.5802 30.3579 38.6702 31.0785 37.8659ZM29.6284 41.6738C29.7081 41.4897 29.8751 41.2557 29.9971 41.0243C30.1795 41.0587 30.3619 41.0931 30.4994 41.1301C30.9594 41.2831 31.4244 41.5256 31.7598 41.8653C32.0951 42.2049 32.3881 42.5919 32.5513 43.0762C32.6065 43.2525 32.6168 43.4314 32.6721 43.6077C32.4999 43.7522 32.3329 43.9862 32.1608 44.1307C31.9039 44.3699 31.5095 44.5721 31.2526 44.8112C31.1999 44.6796 31.1498 44.5927 31.0521 44.4637C30.6088 43.8162 29.933 43.0473 29.1442 43.4517C29.1442 43.4517 29.1417 43.407 29.1391 43.3622C29.1262 43.1386 29.2829 42.7257 29.3176 42.5442C29.4345 42.2234 29.5539 41.9473 29.6284 41.6738ZM17.3425 53.958C18.3034 53.4091 19.1616 52.6417 19.5752 51.9897C19.6176 51.9424 19.5225 51.8581 19.4801 51.9054C18.5719 52.5859 16.8685 54.3442 15.6043 54.3272C12.9411 54.301 15.3458 50.6176 16.1037 49.6766C17.8263 47.4684 20.19 46.2106 22.8493 45.3844C22.9573 45.6923 23.1076 45.9529 23.2155 46.2608C20.3495 47.413 16.8013 50.0403 15.707 52.9751C15.6672 53.0672 15.8098 53.1936 15.8946 53.099C17.0893 51.9084 18.0013 50.5097 19.3334 49.3561C20.5782 48.2524 21.9759 47.454 23.4186 46.653C23.7822 47.4847 24.1009 48.3189 24.2873 49.2057C22.2499 51.432 20.4978 53.9111 17.3425 53.958ZM24.6714 48.8246C24.6264 48.8272 24.5365 48.8324 24.4941 48.8797C24.3693 47.4958 23.9247 46.0405 23.0484 44.9243C23.9695 44.4674 24.8405 43.9237 25.8117 43.5537C26.7829 43.1837 27.767 43.0373 28.7434 42.7568C28.7087 42.9383 28.674 43.1198 28.7293 43.2961C27.0913 43.839 26.056 46.232 25.5089 47.6995C25.392 48.0203 25.3201 48.3385 25.2032 48.6594C25.0233 48.6697 24.8461 48.7248 24.6714 48.8246ZM25.5643 49.4463C25.9932 47.4921 27.0053 44.6966 28.9297 43.6435C28.9773 43.6857 29.1147 43.7226 29.1571 43.6753C29.1571 43.6753 29.1571 43.6753 29.2021 43.6727L29.2496 43.7149C29.2972 43.757 29.3447 43.7991 29.4346 43.794C27.2843 47.1934 26.0192 51.0805 26.2508 55.1057C26.256 55.1952 26.4384 55.2296 26.4333 55.1401C26.8363 51.1681 27.752 47.4806 29.5747 43.8757C29.9023 44.0812 30.1849 44.2893 30.3802 44.5473C29.1843 46.5008 28.0425 49.3935 28.3986 51.6615C28.4063 51.7957 28.5887 51.8301 28.626 51.6933C28.9586 50.4177 29.1113 49.1525 29.5339 47.8717C29.882 46.8645 30.3251 45.9415 30.6732 44.9343C32.5594 47.922 28.4694 53.6768 26.0941 55.5186C26.0042 55.5238 25.9143 55.529 25.8243 55.5341C25.2961 53.4106 25.0557 51.5846 25.5643 49.4463ZM13.1197 68.3809C12.9887 69.241 12.5879 70.1167 12.2296 70.945C11.5103 72.557 10.4095 74.5947 8.89489 75.714C6.73158 77.3193 5.49166 75.3713 5.2885 73.4086C5.16891 72.1141 5.68139 70.8282 6.2016 69.6764C7.2022 67.4649 8.64607 65.901 10.8506 65.0114C10.8955 65.0088 10.8981 65.0535 10.9431 65.0509C11.0857 65.1773 11.2257 65.259 11.3658 65.3407C8.85302 67.1456 5.89471 71.3993 6.07999 74.6195C6.08771 74.7537 6.27014 74.788 6.35492 74.6934C7.17187 73.2105 7.4338 71.4902 8.20578 70.0098C9.10236 68.3428 10.3343 67.0155 11.5585 65.554C12.6737 66.118 13.3392 66.708 13.1197 68.3809ZM13.5935 66.4241C13.1849 65.595 12.2946 65.018 11.4197 64.7094C11.4621 64.6621 11.4569 64.5726 11.367 64.5778C11.277 64.583 11.1871 64.5881 11.1422 64.5907L11.0972 64.5933C11.765 62.0869 12.8851 59.5993 15.597 58.9047C16.2202 59.542 16.7958 60.1371 17.1594 60.9687C17.5732 61.8873 17.7197 62.8661 17.8213 63.8474C17.8239 63.8922 17.8239 63.8922 17.8239 63.8922C16.43 63.9724 14.2885 65.1725 13.5935 66.4241ZM20.8827 62.9533C20.0258 62.9577 19.1342 63.1437 18.3454 63.548C18.2027 61.8511 17.6642 59.5486 16.0364 58.7C17.7552 57.21 19.5255 56.6145 21.766 56.351C21.811 56.3484 21.811 56.3484 21.8559 56.3458C22.7772 57.4595 23.2115 58.7359 23.2515 60.2144C23.2708 61.3351 22.9228 62.3423 22.8021 63.3814C22.3241 62.9152 21.4698 62.9644 20.8827 62.9533ZM23.0848 63.5895C24.1162 61.9147 24.2392 57.7793 22.5779 56.3491C23.9269 56.2715 25.2707 56.1045 26.68 56.2926C27.7245 56.412 28.6945 56.8049 29.739 56.9243C30.1823 57.5719 30.6705 58.2169 31.1112 58.8198C30.817 59.1957 30.7105 59.6955 30.5114 60.1556C30.2301 60.7552 29.9462 61.31 29.5724 61.87C28.8248 62.99 27.7842 63.7229 26.9364 64.6692C26.2772 63.4058 24.3039 63.6091 23.0848 63.5895ZM27.2666 64.9194C28.365 64.4075 29.2899 63.2324 29.9155 62.3438C30.4588 61.5946 31.3362 60.3774 31.4543 59.2937C31.5018 59.3358 31.5044 59.3805 31.5519 59.4227C32.4282 60.539 33.2441 61.3895 34.7408 61.5277C35.4204 61.5784 36.1372 61.4923 36.8438 61.2272C36.2287 63.8653 35.2847 67.0607 32.3184 68.0391C30.5006 68.5924 29.0242 65.6709 27.2666 64.9194ZM37.8415 69.1573C37.1234 70.0063 35.8786 71.11 34.7172 71.3115C32.5718 71.6593 32.307 70.1937 31.6029 68.9329C32.2272 68.8072 32.8387 68.4579 33.2755 68.2084C35.1973 67.1106 36.9623 64.8552 37.2332 62.5062C37.2358 62.5509 37.2833 62.593 37.3308 62.6352C39.5523 64.392 39.7015 66.9861 37.8415 69.1573ZM39.4738 63.8132C39.1603 63.0684 38.5847 62.4733 37.6623 62.1225C37.5222 62.0408 37.3475 62.1406 37.2627 62.2352C37.2871 61.8748 37.2691 61.5617 37.2035 61.2065C37.201 61.1618 37.1534 61.1197 37.1059 61.0775C37.9396 60.6706 38.6731 60.0899 39.124 59.3011C39.1343 59.48 39.1472 59.7036 39.1125 59.8851C39.0855 60.2008 38.9841 60.79 39.0921 61.0979C39.2103 61.5847 39.4056 61.8427 39.8257 62.0877C39.6767 62.6348 39.5303 63.2266 39.4738 63.8132ZM45.579 66.4235C44.4254 66.7592 42.894 66.8024 41.7493 66.5093C39.6873 65.9548 39.9338 63.9662 40.1533 62.2933C41.7708 62.963 44.2451 62.0578 45.5529 61.2646C46.2517 60.8654 46.8131 60.4293 47.2345 59.9114C47.8706 62.3428 48.8601 65.427 45.579 66.4235ZM45.5143 60.5937C44.0369 61.5762 40.5067 62.946 39.7998 60.0699C39.5711 59.2305 39.7496 58.4125 39.5208 57.5731C40.2428 57.5764 40.9546 57.4008 41.5262 57.1436C43.3761 56.364 45.1566 54.3769 45.1281 52.3144C46.9886 54.8549 48.9057 58.3793 45.5143 60.5937ZM44.3662 50.8325C44.5487 52.4375 44.4461 53.7896 43.3015 55.067C42.4113 56.0606 40.5049 57.4267 39.075 56.8808C38.1975 56.5274 37.8055 55.2038 37.2723 54.5613C36.8342 54.0032 36.3588 53.5818 35.7537 53.2576C35.8886 53.2499 36.0659 53.1948 36.1982 53.1423C38.2331 52.4419 40.0906 50.226 40.4193 48.098C41.6656 49.3725 43.1238 50.4104 44.4458 50.6485C44.406 50.7405 44.3636 50.7878 44.3662 50.8325ZM47.0806 48.6122C44.0375 52.9605 39.9426 46.869 37.7544 44.123C37.7043 44.0361 37.6542 43.9493 37.5591 43.865C39.0777 43.5981 40.591 43.2418 42.1725 43.2854C44.9732 43.3487 49.6253 45.0105 47.0806 48.6122ZM56.9842 45.8884C55.7704 49.0994 50.8797 51.1309 49.7128 46.5312C52.6573 45.9579 55.0273 42.4561 55.2249 39.6177C56.6022 41.6026 57.959 43.2297 56.9842 45.8884ZM54.047 41.8842C52.9911 43.9194 51.5215 45.036 49.5971 46.0891C49.1487 45.3521 48.4305 44.6305 47.6853 44.2247C50.3278 42.3226 52.0168 37.9624 50.4928 34.9987C53.9141 35.6545 55.7952 38.5528 54.047 41.8842ZM74.0879 20.8971C73.1798 23.1482 71.0036 24.5298 68.8285 23.578C70.9946 23.588 72.8419 22.7637 73.5175 20.3915C74.2624 17.6562 72.5406 14.3898 69.438 14.5683C65.4811 14.796 62.4907 19.2759 60.1617 21.9228C56.6034 25.9417 53.3779 30.2557 50.0573 34.4853C49.907 34.2247 49.7566 33.9641 49.5639 33.7509C53.7541 28.1698 57.9945 22.6757 62.8001 17.5977C65.3513 14.8932 69.2836 11.8848 72.759 15.0503C74.2879 16.5329 74.874 18.8775 74.0879 20.8971Z" fill="#211915"/>
<path d="M41.2783 44.1909C41.3298 45.0854 41.1012 45.8166 40.8803 46.6819C40.8405 46.7739 40.9779 46.8109 41.0203 46.7635C41.6588 46.0986 41.6869 45.02 41.4132 44.1832C41.3631 44.0963 41.2732 44.1015 41.2783 44.1909Z" fill="#211915"/>
<path d="M44.4376 44.9963C44.2989 45.7223 44.1628 46.493 43.8866 47.182C43.658 47.9131 43.2418 48.5204 42.9682 49.2541C42.9284 49.3461 43.071 49.4726 43.1558 49.3779C44.2233 48.3293 44.7473 46.4593 44.7099 45.0256C44.7022 44.8914 44.4748 44.8596 44.4376 44.9963Z" fill="#211915"/>
<path d="M32.1794 53.0608C32.2656 53.7739 32.1693 54.4525 31.9381 55.1389C31.7891 55.686 31.5027 56.196 31.4911 56.7801C31.4963 56.8695 31.6338 56.9065 31.6761 56.8592C32.5715 55.9551 32.7409 54.1952 32.4916 52.998C32.4363 52.8217 32.1691 52.8819 32.1794 53.0608Z" fill="#211915"/>
<path d="M34.7374 54.3945C34.5949 55.8386 34.0825 57.1246 33.6175 58.4526C33.5777 58.5447 33.7203 58.6711 33.8051 58.5765C34.8225 57.441 35.1397 55.897 35.0547 54.4211C35.047 54.2869 34.7721 54.213 34.7374 54.3945Z" fill="#211915"/>
<path d="M36.6466 56.2142C36.6325 56.7535 36.5311 57.3427 36.3346 57.8476C36.1779 58.2605 35.9737 58.6312 35.8144 58.9994C35.7771 59.1361 35.9172 59.2178 36.0495 59.1653C36.9153 58.5322 37.1529 57.1723 36.9614 56.1961C36.9511 56.0172 36.6813 56.0327 36.6466 56.2142Z" fill="#211915"/>
<path d="M12.2701 66.1428C10.378 68.5402 9.00872 71.4011 8.55163 74.4339C8.51439 74.5707 8.69682 74.605 8.73664 74.513C10.0686 71.7888 10.6606 68.7483 12.4102 66.2244C12.4076 66.1797 12.3125 66.0954 12.2701 66.1428Z" fill="#211915"/>
<path d="M23.6964 67.1456C24.3105 66.841 24.4787 65.8441 24.5352 65.2575C24.5673 65.0313 24.1998 64.9178 24.1703 65.1887C24.101 65.5517 24.0291 65.87 23.8672 66.1934C23.7478 66.4695 23.5358 66.7061 23.5089 67.0217C23.4716 67.1585 23.6091 67.1955 23.6964 67.1456Z" fill="#211915"/>
<path d="M25.9231 70.5624C27.2232 69.635 27.7407 66.8679 26.5895 65.6777C26.4468 65.5513 26.2773 65.7406 26.3749 65.8696C27.0842 67.2198 26.2031 69.1552 25.7779 70.3912C25.7381 70.4833 25.8358 70.6123 25.9231 70.5624Z" fill="#211915"/>
</g>
<g clip-path="url(#clip1)">
<path opacity="0.2" d="M112.284 40.1148C112.14 40.1148 111.997 40.0669 111.854 40.0669C111.043 39.971 110.28 39.9231 109.469 39.8751C109.946 40.2107 110.041 41.0256 109.325 41.1694C106.558 41.6967 104.029 40.7859 101.31 40.5941C99.3058 40.4503 97.2064 40.7859 95.2979 40.2107C84.2285 41.457 73.35 44.7645 62.9963 48.6952C62.1375 49.0307 62.1375 50.0374 62.71 50.4688C62.5669 50.5167 62.4238 50.5647 62.3283 50.6605C62.2806 50.6605 62.2806 50.7085 62.2329 50.7085C62.2806 50.7085 62.2806 50.7564 62.3283 50.7564C62.5669 50.9002 62.8532 50.9961 63.0917 51.1399C63.1872 51.1399 63.2826 51.1878 63.4257 51.2358C64.2368 51.6672 65.0957 52.0507 65.9545 52.4341C66.1454 52.2903 66.4316 52.2424 66.7179 52.4341C67.1473 52.7697 67.6245 53.1052 68.0539 53.4408C69.4375 54.1598 70.7258 54.9747 71.7755 56.0293C71.9186 55.9813 72.0617 55.9813 72.2049 55.9334C72.1095 56.0293 72.0617 56.1251 71.9663 56.221C72.014 56.2689 72.0617 56.3169 72.1572 56.4128C73.2069 57.2756 74.018 58.3302 74.686 59.5285C74.7337 59.5765 74.7814 59.6244 74.8291 59.6723C74.9722 59.8161 75.0677 60.0079 75.0677 60.1517C75.5925 60.8707 76.0696 61.5897 76.5467 62.3567C76.5945 62.4046 76.5945 62.4526 76.5945 62.5005C77.0716 63.2675 77.501 64.0824 77.835 64.9931C77.8827 65.089 77.8827 65.1849 77.8827 65.2808C77.9304 65.3287 77.9304 65.4246 77.9781 65.4725C78.4075 65.9039 79.0755 66.0957 79.6481 65.7601C79.7912 66.8626 80.3161 67.7734 81.2703 68.3965C81.318 68.4445 81.3657 68.4924 81.3657 68.5883C81.0318 68.9238 80.7455 69.3073 80.4115 69.6908C80.4115 69.7387 80.4592 69.7387 80.4592 69.7867C80.6023 69.8825 80.7455 69.9784 80.8409 70.2181C80.9363 70.5057 81.0318 70.7933 81.1749 71.0809C81.2703 71.1288 81.3657 71.1768 81.4135 71.2247C81.7952 70.9371 82.4154 70.985 82.5586 71.5603C83.0357 73.1901 83.1311 74.7719 82.7971 76.4496C83.2265 76.1141 83.6082 75.7786 84.0377 75.3951C84.5625 75.9703 85.5168 76.21 86.2802 75.5389C91.7671 70.6495 97.0633 65.5204 102.121 60.1517C105.89 56.1731 109.278 51.811 111.329 46.7298C111.377 46.7298 111.377 46.6819 111.425 46.6819C112.14 46.1546 112.284 45.4356 112.093 44.8124C112.284 44.3331 112.236 43.8537 112.045 43.4703C113.62 43.1347 114.24 40.3545 112.284 40.1148ZM67.3382 50.8523C67.195 50.325 66.8133 49.9415 66.2885 49.8456C67.7199 49.4622 69.199 49.1266 70.6304 48.7431C69.4853 49.3663 68.3879 50.0374 67.3382 50.8523ZM80.1252 50.6605C80.1252 50.6126 80.1252 50.6126 80.1252 50.5647C80.8409 50.3729 81.5089 50.1812 82.2246 49.9894C81.5566 50.2291 80.8409 50.4688 80.1252 50.6605ZM86.0416 49.4622C85.9462 49.3183 85.7553 49.2225 85.6122 49.1745C85.7553 49.1266 85.9462 49.0307 86.0893 48.9828C86.6142 48.839 87.0913 48.7431 87.6161 48.5993C87.5207 48.7431 87.4253 48.8869 87.3298 48.9828C86.9481 49.1266 86.5187 49.3183 86.0416 49.4622ZM87.2344 53.8722C87.6161 53.6325 87.9978 53.3928 88.3318 53.1532C88.4272 53.1532 88.4749 53.2011 88.5704 53.2011C88.141 53.4408 87.6638 53.6804 87.2344 53.8722Z" fill="#979391"/>
<path opacity="0.2" d="M104.984 82.0101C105.318 82.1539 105.652 82.2977 105.986 82.3935C106.463 82.5853 106.558 83.0646 106.415 83.4002C106.701 83.4481 106.94 83.5919 107.083 83.8316C107.178 83.7837 107.226 83.7357 107.322 83.6878C107.131 83.4002 106.988 83.1126 106.892 82.7291C106.844 82.6332 106.844 82.4894 106.892 82.3935C106.463 82.1539 106.033 81.9621 105.604 81.7225C105.556 81.7225 105.556 81.6745 105.508 81.6266C105.27 81.7225 105.031 81.7704 104.793 81.8663C104.84 81.9142 104.936 81.9621 104.984 82.0101Z" fill="#211915"/>
<path opacity="0.2" d="M108.419 80.6199C108.562 80.7158 108.658 80.7637 108.801 80.8596C108.992 80.9075 109.135 81.0034 109.325 81.0993C109.373 81.1472 109.421 81.1472 109.516 81.1951C109.755 81.291 109.85 81.4828 109.898 81.6745C110.184 81.9142 110.423 82.1059 110.661 82.3935C110.805 82.5373 110.9 82.777 110.852 82.9688C110.9 82.9208 110.948 82.8249 110.995 82.777C111.186 82.6332 111.329 82.4894 111.52 82.2977C111.473 82.2497 111.377 82.2497 111.329 82.1539C111.234 82.058 111.139 81.9621 111.043 81.9142C110.995 81.8662 110.948 81.8183 110.9 81.7704C110.709 81.6266 110.518 81.5307 110.327 81.3869C110.28 81.339 110.232 81.291 110.184 81.2431C109.803 81.0034 109.469 80.7158 109.135 80.3802C108.992 80.4282 108.848 80.5241 108.705 80.572C108.61 80.5241 108.514 80.572 108.419 80.6199Z" fill="#211915"/>
<path opacity="0.2" d="M120.299 75.347C120.204 75.4909 120.109 75.5867 120.013 75.7305C119.918 75.8264 119.822 75.9223 119.727 76.0181C119.918 75.9702 120.061 75.9223 120.252 75.8743C120.299 75.8264 120.347 75.8264 120.443 75.7785C120.633 75.7305 120.776 75.7305 120.92 75.7785C121.206 75.6347 121.492 75.6826 121.731 75.8743C121.778 75.7785 121.874 75.6826 121.922 75.5867C121.588 75.7785 121.254 75.6826 121.015 75.4429H120.967C120.633 75.347 120.443 75.347 120.299 75.347Z" fill="#211915"/>
<path opacity="0.2" d="M116.291 78.2232C116.244 77.8876 116.291 77.648 116.387 77.4083C116.291 77.4083 116.196 77.4083 116.148 77.4083C116.291 77.3124 116.435 77.2165 116.578 77.1207C116.769 76.8331 117.055 76.6413 117.389 76.4975C118.009 76.0182 118.534 75.4909 119.011 74.9636C118.534 74.7239 118.486 73.957 118.963 73.6693C119.202 73.5255 119.488 73.3817 119.727 73.2859C119.918 73.1421 120.061 73.0462 120.299 72.9983C120.395 72.8065 120.49 72.5668 120.538 72.3751C120.538 72.3272 120.586 72.2792 120.586 72.1834C120.49 72.0395 120.49 71.8478 120.538 71.6561C120.729 71.1767 120.824 70.6974 120.92 70.218C121.015 68.2047 120.49 66.0956 119.584 64.2261C119.488 64.1303 119.44 63.9864 119.345 63.8906C117.771 61.5897 115.528 60.5351 113.333 58.9533C112.904 58.9053 112.474 58.8574 112.045 58.8094C112.665 59.0012 113.19 59.2888 113.715 59.6243C113.763 59.6243 113.763 59.6243 113.81 59.6243C117.15 60.5831 119.25 64.5137 117.723 67.7254C117.532 68.1089 117.246 68.1568 116.959 68.0609C116.578 69.2593 115.862 70.3139 114.812 71.0329C113.953 72.1834 112.236 72.9503 111.043 73.4297C108.61 74.4842 106.367 74.3404 103.791 74.4363C101.978 74.5322 101.31 76.5934 102.455 77.8876C103.552 79.134 105.031 79.805 106.701 79.9968C106.892 79.853 107.131 79.853 107.417 79.9968C107.465 80.0447 107.512 80.0447 107.56 80.0927C108.037 80.0927 108.467 80.0927 108.944 80.0447C108.705 79.4695 109.373 78.7984 109.993 79.1339C110.423 79.3736 110.852 79.6133 111.234 79.9009C111.282 79.9009 111.377 79.9009 111.425 79.9009C111.616 79.853 111.759 79.853 111.95 79.9488C111.997 79.9488 112.045 79.9968 112.045 79.9968C112.618 80.1406 113.142 80.3803 113.619 80.6679C113.619 80.6679 113.667 80.6679 113.667 80.7158C113.763 80.4761 113.906 80.2844 114.001 80.0447C113.381 79.6612 112.808 79.2778 112.236 78.8463C111.425 78.3191 112.14 77.2165 112.952 77.6C114.192 78.1273 115.433 78.6546 116.435 79.5654C116.673 79.7571 116.721 80.1885 116.53 80.4761C116.435 80.6199 116.339 80.7637 116.196 80.9076C115.91 81.2431 115.433 81.1472 115.146 80.8596C115.146 80.9075 115.146 80.9076 115.099 80.9555C115.146 81.1472 115.146 81.339 115.051 81.5307C114.526 82.5373 113.715 83.2564 112.999 84.1192C112.904 84.263 112.761 84.3109 112.665 84.3589C112.427 84.6944 112.14 84.982 111.806 85.2217C111.186 85.7011 110.518 84.7903 110.804 84.2151V84.1671C110.852 84.0233 110.9 83.8316 110.948 83.6878C110.757 83.544 110.661 83.3522 110.661 83.1126C110.566 83.3522 110.327 83.496 110.041 83.496H109.993C109.993 83.544 109.946 83.6399 109.946 83.6878C109.946 83.7357 109.898 83.7357 109.898 83.7837C109.564 84.8382 108.944 85.6052 108.228 86.4201C110.9 85.8449 113.429 84.8862 115.862 83.6878C116.578 82.5853 117.437 81.5786 118.152 80.4761C118.343 80.2365 118.582 80.1406 118.82 80.1406C118.916 79.9968 119.011 79.853 119.059 79.7092C117.914 79.805 116.435 79.5654 116.291 78.2232Z" fill="#211915"/>
<path opacity="0.2" d="M122.733 79.038C122.685 78.9901 122.637 78.9901 122.637 78.9422C122.446 78.8463 122.255 78.7025 122.16 78.5108C122.112 78.4628 122.112 78.4149 122.065 78.367C122.017 78.319 122.017 78.2711 121.969 78.2231C121.826 78.5587 121.731 78.8463 121.587 79.1818C121.587 79.2777 121.54 79.4215 121.492 79.5174C121.444 79.6133 121.397 79.7571 121.349 79.8529C121.253 80.0926 121.206 80.2844 121.11 80.524C121.54 80.2364 121.921 79.9009 122.303 79.5653C122.494 79.4215 122.637 79.2777 122.828 79.086C122.828 79.086 122.78 79.086 122.733 79.038Z" fill="#211915"/>
<path opacity="0.2" d="M125.214 73.1421C125.118 72.9504 125.023 72.8066 124.975 72.6148C124.784 72.6148 124.641 72.519 124.546 72.4231C124.164 71.9917 124.021 71.4164 124.021 70.8892C123.735 71.033 123.401 71.0809 123.067 71.0809C122.781 71.1768 122.494 71.1288 122.303 70.985C122.208 71.3685 122.113 71.752 121.969 72.1355C121.922 72.3272 121.779 72.4231 121.683 72.519C121.969 72.4231 122.303 72.3272 122.637 72.2793C122.828 72.2313 123.019 72.2793 123.162 72.3751C123.305 72.3272 123.448 72.3272 123.592 72.2793C124.116 72.1834 124.641 72.6148 124.498 73.19C124.45 73.3338 124.403 73.4777 124.403 73.6694C124.45 74.4364 124.45 75.1554 124.355 75.8744C124.355 75.9223 124.355 75.9703 124.355 76.0182C124.307 76.3538 124.307 76.7372 124.26 77.0728C124.26 77.2166 124.212 77.3604 124.116 77.4563V77.5042C124.116 77.5521 124.116 77.6001 124.069 77.648V77.6959C124.069 77.7439 124.069 77.7439 124.069 77.7918C124.975 76.4496 125.357 75.0595 125.643 73.4777C125.452 73.4297 125.309 73.3338 125.214 73.1421Z" fill="#211915"/>
<path opacity="0.2" d="M124.594 58.6656C124.737 58.6656 124.88 58.6656 125.023 58.6656C124.975 58.8094 124.928 59.0012 124.88 59.145C125.262 58.8094 125.691 58.5218 126.12 58.2342C126.216 57.7069 126.359 57.1796 126.645 56.7482L126.693 56.7003C125.929 56.94 125.118 56.892 124.212 56.892C123.544 56.892 123.305 56.1251 123.687 55.6457C124.021 55.2143 124.355 54.8788 124.737 54.5432C124.498 54.6391 124.26 54.735 124.021 54.8308C121.969 55.5499 122.303 58.5698 124.594 58.6656Z" fill="#211915"/>
<path opacity="0.2" d="M129.222 53.249C129.508 53.7283 129.794 54.2077 130.176 54.6391C130.224 54.6871 130.271 54.735 130.319 54.8309C130.176 54.5432 130.08 54.2556 129.937 53.9201C129.699 53.3449 129.269 53.0573 128.792 52.9135C128.983 52.9614 129.126 53.0573 129.222 53.249Z" fill="#211915"/>
<path opacity="0.2" d="M130.367 57.5152C130.462 57.659 130.462 57.8508 130.462 57.9946C130.748 58.9533 131.416 59.7202 131.989 60.5351C131.75 59.3368 131.464 58.0904 131.082 56.94C130.653 56.8441 130.271 56.6524 129.89 56.4127C130.033 56.7483 130.176 57.1317 130.367 57.5152Z" fill="#211915"/>
<path opacity="0.2" d="M131.082 62.5005C131.178 62.9798 131.273 63.4112 131.416 63.8906C131.75 63.7947 132.132 63.9385 132.275 64.3699C132.323 64.5617 132.418 64.7534 132.466 64.9452C132.514 64.9931 132.609 64.9931 132.657 65.041C132.514 64.1782 132.418 63.3633 132.275 62.5005C132.084 62.6443 131.846 62.7401 131.607 62.6443C131.369 62.5484 131.178 62.4525 130.987 62.3087C131.082 62.3567 131.082 62.4046 131.082 62.5005Z" fill="#211915"/>
<path opacity="0.2" d="M129.556 65.1848C129.46 65.1368 129.412 65.0889 129.317 65.041C129.222 65.1368 129.126 65.2327 128.983 65.3286C128.315 65.76 127.313 65.3286 127.313 64.4657C127.313 63.7467 127.743 62.9797 128.124 62.4045C128.554 61.8293 129.126 61.3979 129.842 61.4458C129.794 61.302 129.746 61.2062 129.699 61.0623C129.603 60.7747 129.746 60.4392 130.033 60.2474C129.651 59.6722 129.269 59.0491 129.078 58.378C129.031 58.2342 129.031 58.1383 129.031 58.0424C128.792 57.5631 128.554 57.0358 128.411 56.5085C128.267 55.9812 128.697 55.6457 129.126 55.5977C128.888 55.3581 128.697 55.0704 128.506 54.7828C128.363 54.8787 128.22 55.0225 128.077 55.1184C128.22 55.3581 128.172 55.6936 127.933 55.9333C127.743 56.125 127.552 56.2688 127.361 56.4126C127.838 56.4606 128.315 56.9399 127.981 57.4672C127.79 57.7548 127.695 58.0424 127.599 58.33C127.695 58.5218 127.695 58.7615 127.552 58.9532C127.504 59.097 127.409 59.1929 127.361 59.3367C127.218 60.0078 127.075 60.6789 126.693 61.2541C126.55 61.4938 126.216 61.5896 125.929 61.5896C125.357 61.7814 124.737 61.9252 124.116 61.9731H124.069C123.735 63.0277 123.448 64.0823 123.114 65.1368C123.21 65.041 123.305 64.9451 123.448 64.8972C123.448 64.8492 123.496 64.8013 123.496 64.8013C124.116 63.7946 125.071 62.8839 126.216 62.5004C126.931 62.2607 127.361 63.2194 126.931 63.7467C126.788 63.9385 126.597 64.1302 126.454 64.3219C126.55 64.4657 126.55 64.6095 126.502 64.8492C126.454 64.993 126.407 65.1368 126.359 65.2806C126.454 65.4724 126.454 65.7121 126.359 65.9517C126.311 66.0476 126.263 66.0955 126.216 66.1914C126.502 66.5749 126.454 67.198 125.834 67.3419C125.261 67.4857 124.498 67.6295 124.021 67.198C123.878 67.198 123.687 67.198 123.544 67.1022C123.353 67.0063 123.21 66.8146 123.114 66.6708C122.971 66.527 122.876 66.3352 122.876 66.1435C122.733 66.5749 122.59 67.0063 122.494 67.4377C122.59 68.1088 122.637 68.7799 122.637 69.451C122.78 69.3551 122.924 69.3072 123.067 69.2113C123.258 69.0196 123.496 68.8278 123.735 68.684C123.878 68.6361 123.973 68.5882 124.116 68.5882C124.212 68.4923 124.355 68.4444 124.45 68.3485C124.689 68.2047 124.927 68.2047 125.118 68.3006C125.166 68.3006 125.261 68.3006 125.309 68.3485C125.309 68.3006 125.309 68.3006 125.309 68.2526C125.357 67.2939 126.788 67.2939 126.788 68.2526C126.788 68.4923 126.788 68.7799 126.788 69.0196C127.075 68.0609 127.313 67.1501 127.599 66.1914C127.647 66.4311 127.647 66.6708 127.695 66.8625L128.029 69.3072C127.981 67.7253 129.317 66.9584 129.937 65.6162C130.033 65.4724 130.128 65.3765 130.224 65.2806C129.89 65.2806 129.699 65.2327 129.556 65.1848Z" fill="#211915"/>
<path opacity="0.2" d="M133.325 69.5948C133.277 69.1634 133.182 68.6841 133.134 68.2526C132.896 68.2526 132.705 68.2047 132.514 68.013C132.275 68.013 132.037 67.9171 131.941 67.6295C131.846 67.6295 131.75 67.6295 131.703 67.5815H131.655C132.18 68.3485 132.752 68.9717 133.325 69.5948Z" fill="#211915"/>
<path opacity="0.2" d="M130.176 73.4776C130.271 73.3338 130.367 73.2379 130.462 73.19C130.414 73.0941 130.414 73.0462 130.414 72.9503C130.367 72.9983 130.367 72.9983 130.319 73.0462C129.937 73.7173 129.317 74.1008 128.601 74.1966C128.697 74.7239 128.744 75.2512 128.744 75.7305C129.222 75.0115 129.746 74.2446 130.176 73.4776Z" fill="#211915"/>
<path opacity="0.2" d="M132.752 77.3124C132.705 77.2644 132.705 77.2165 132.657 77.1686C131.894 76.4975 131.512 75.6346 131.13 74.7239C131.082 74.7718 131.035 74.8197 131.035 74.9156C131.082 75.1074 131.082 75.2991 131.035 75.4908C130.558 76.6413 130.033 77.7438 129.412 78.8463C129.317 78.9901 129.222 79.086 129.126 79.1339C130.128 80.572 132.371 80.8596 133.516 78.9901C133.85 78.4149 134.041 77.8397 134.136 77.2644C133.897 77.6479 133.134 77.8876 132.752 77.3124Z" fill="#211915"/>
<path opacity="0.2" d="M133.85 73.3817C133.802 73.0461 133.754 72.7106 133.707 72.3751C133.707 72.3751 133.659 72.3751 133.659 72.3271C133.564 72.3751 133.42 72.3751 133.325 72.3271C133.23 72.3271 133.134 72.2792 133.039 72.2312C132.896 72.1354 132.752 72.0395 132.657 71.8957C132.609 71.7998 132.562 71.656 132.562 71.5602C131.703 70.9849 131.083 70.218 130.462 69.4031C130.319 69.5469 130.176 69.6428 129.985 69.6907C129.603 69.9783 129.126 70.1221 128.601 70.0742C128.22 70.0262 127.981 69.8345 127.886 69.4989L128.172 71.7998C128.649 71.1767 129.317 70.6015 129.747 70.0742C130.367 69.3551 131.369 70.4097 130.796 71.1287C130.749 71.1767 130.701 71.2246 130.653 71.3205C130.892 71.3205 131.083 71.4164 131.273 71.656C132.275 73.0941 132.943 74.7239 133.802 76.2099C133.993 76.3537 134.088 76.5454 134.088 76.7851C134.088 76.833 134.136 76.881 134.136 76.9289C134.232 75.7305 133.993 74.5321 133.85 73.3817Z" fill="#211915"/>
<path opacity="0.2" d="M127.886 53.3927L127.933 53.3448C128.076 53.0572 128.41 52.8175 128.744 52.8655C128.172 52.7696 127.552 52.9134 127.074 53.2489C127.122 53.2489 127.17 53.201 127.218 53.201C127.456 53.201 127.695 53.2489 127.886 53.3927Z" fill="#211915"/>
<path opacity="0.2" d="M106.797 85.797C106.558 85.9408 106.272 86.0846 106.033 86.1805C105.747 86.3243 105.461 86.2763 105.222 86.0846C105.079 86.2284 104.936 86.3243 104.793 86.4681C104.506 86.7078 104.172 86.7078 103.934 86.5639C103.886 86.6119 103.838 86.6119 103.838 86.6598C103.314 86.9954 102.598 86.4201 102.789 85.8449C102.884 85.6052 102.98 85.3656 103.075 85.1259C103.027 85.1259 102.98 85.078 102.932 85.03C102.884 85.078 102.884 85.1259 102.836 85.1738C102.407 85.7011 101.93 86.0846 101.405 86.4201C101.405 86.6119 101.31 86.8516 101.071 86.9954C101.023 87.0433 100.976 87.0433 100.976 87.0912C101.262 87.235 101.596 87.3309 101.978 87.283C103.695 87.235 105.365 86.9954 107.035 86.7078C106.797 86.516 106.606 86.1325 106.797 85.797Z" fill="#211915"/>
<path opacity="0.2" d="M131.416 42.7033C131.321 42.7512 131.273 42.7512 131.178 42.7991C130.748 42.9429 130.271 43.0867 129.842 43.1826C130.081 42.6074 130.128 41.8884 129.89 41.2173C127.552 40.4024 124.784 40.1627 122.446 39.923C121.445 39.971 120.443 40.0189 119.441 40.0189C119.297 40.0189 119.154 39.971 119.059 39.923C118.82 39.971 118.582 40.0189 118.343 40.0189C117.914 38.3891 118.009 36.0403 117.914 34.6502C117.818 32.9724 117.914 31.4385 117.055 29.9046C116.244 28.4186 113.667 28.3227 112.952 30.0004C111.329 33.7873 109.946 37.6701 110.709 41.7925C110.709 41.8404 110.709 41.8404 110.709 41.8884C111.043 41.8884 111.329 41.8404 111.663 41.8404C111.902 41.8404 112.093 41.9363 112.236 42.0801C112.284 42.0801 112.331 42.0801 112.379 42.0801C112.427 41.9842 112.474 41.9363 112.522 41.8884C112.856 41.3131 113.62 41.5049 113.81 41.9842C113.81 41.9363 113.858 41.8884 113.858 41.8884C113.954 42.2239 114.049 42.5595 114.192 42.8471C114.049 42.7991 113.906 42.7512 113.715 42.7033C112.045 45.4356 109.803 47.9282 107.751 50.4688C107.703 50.5646 107.608 50.6605 107.56 50.7564C105.842 53.0093 104.077 55.2623 102.264 57.4673C98.7332 61.7815 96.443 65.041 92.6737 69.1155C89.9063 72.0875 86.7573 75.2512 83.0357 77.3604C82.2723 78.4629 79.7912 81.1952 78.503 81.4828C78.2167 81.5307 77.9781 81.4349 77.835 81.2911C77.501 81.339 77.167 81.339 76.7853 81.339C76.499 81.3869 76.1651 81.3869 75.8311 81.4349C75.5448 81.4349 75.3062 81.4349 75.0199 81.3869C73.8271 81.4349 72.8729 81.1952 71.7755 80.8117C71.6801 80.8117 71.6323 80.8117 71.5369 80.7638C71.1075 80.62 70.6304 80.4762 70.2487 80.2365C68.2447 79.3737 66.4794 78.1753 64.8571 76.5934C64.5231 76.6414 64.2369 76.8331 63.9983 77.1207C67.195 81.339 71.7755 83.4481 77.0239 84.3589H77.0716C82.0814 84.263 86.805 82.1539 90.8129 79.0381C91.4809 78.367 92.1011 77.6959 92.7214 77.0248C94.2959 75.395 95.8227 73.7173 97.3018 72.0396C97.779 71.4164 98.2561 70.7933 98.7332 70.1222C98.7332 70.0742 98.7809 70.0263 98.8286 70.0263C98.8763 69.9784 98.8763 69.9304 98.9241 69.9304C103.982 62.9798 114.097 48.839 115.29 48.839C121.874 48.7431 128.172 49.0307 133.707 45.2438C132.991 44.3331 132.228 43.5182 131.416 42.7033ZM116.005 45.2438C116.005 45.0521 116.005 44.8603 115.958 44.6686C117.437 45.2918 119.202 44.6207 120.681 44.4769C121.969 44.3331 123.305 44.2851 124.594 44.2851C121.778 44.6686 118.868 44.9083 116.005 45.2438Z" fill="#211915"/>
<path opacity="0.2" d="M67.1474 52.7696C67.5768 53.0093 68.0062 53.2969 68.3879 53.6324C68.3879 53.6324 68.4356 53.6324 68.4356 53.6804C68.197 53.3928 67.9585 53.1052 67.7199 52.8175C67.5291 52.6258 67.3382 52.4341 67.1474 52.2903C67.0996 52.2423 67.0519 52.1944 67.0042 52.0985C66.9088 52.2903 66.8611 52.4341 66.8611 52.6258C66.9565 52.6258 67.0519 52.7217 67.1474 52.7696Z" fill="#211915"/>
<path d="M63.7597 62.3087C63.7597 62.3566 63.7119 62.3566 63.7597 62.3087C61.8034 62.7401 62.9963 66.4311 63.7597 67.3898C65.0479 69.0196 68.4355 70.17 70.2963 68.8758L70.344 68.9237C70.8212 69.7386 71.6323 70.4576 72.3003 71.1287C73.1114 71.9916 73.9225 73.142 74.9722 73.7172C75.2584 73.861 75.5447 73.5734 75.4016 73.2858C74.8767 72.2792 73.8271 71.5122 73.0159 70.6973C72.348 70.0262 71.68 69.1634 70.8212 68.6361C72.348 66.8625 71.8231 63.7947 70.1532 62.2607C68.4832 60.7268 65.859 60.7268 64.0937 62.0211C63.4257 61.1103 62.6623 60.2475 61.9466 59.3846C61.2309 58.5218 60.5152 57.2275 59.5132 56.7482C59.4178 56.7003 59.2747 56.7961 59.2747 56.9399C59.5609 57.9466 60.5629 58.7615 61.2309 59.5284C62.1374 60.4392 62.9008 61.4458 63.7597 62.3087ZM69.6283 62.788C71.2506 64.2261 71.1551 66.3832 70.4395 68.2047C69.7715 68.2047 69.1512 68.4923 68.4355 68.5882C67.4813 68.684 66.4793 68.5402 65.6205 68.0609C64.8571 67.6774 64.2368 67.0542 63.8551 66.2873C63.4734 65.5683 62.71 62.9318 64.1414 62.7401C64.1891 62.7401 64.1891 62.6921 64.1891 62.6921C64.1891 62.6442 64.1891 62.6442 64.1414 62.5963C65.8113 61.4938 68.1015 61.3979 69.6283 62.788Z" fill="#211915"/>
<path d="M70.4872 46.0108C74.9722 47.6405 78.5507 49.558 82.0814 52.8175C85.2305 55.7416 88.4272 59.0012 90.4789 62.788C90.5266 62.9319 90.7652 62.8839 90.7652 62.6922C90.5743 60.7748 89.4292 59.3847 88.1887 57.9945C86.3279 55.8854 84.4194 53.8242 82.32 51.9547C79.0755 49.0307 75.0199 46.0587 70.5349 45.7231C70.3441 45.6752 70.2964 45.9628 70.4872 46.0108Z" fill="#211915"/>
<path d="M98.8763 72.423C102.359 74.5321 106.749 77.7917 110.995 76.3057C114.097 75.2032 116.625 72.0395 117.723 68.8279C118.057 68.2047 118.343 67.5336 118.439 66.7667C119.488 60.0557 111.759 56.6044 106.367 59.0491C106.224 59.145 106.319 59.3367 106.463 59.3367C106.51 59.3367 106.558 59.3367 106.653 59.2888C105.222 61.0624 104.077 63.1236 102.884 65.041C101.453 67.2939 99.926 69.5469 98.7331 71.9436C98.6854 72.0395 98.7331 72.0875 98.7809 72.1833C98.7809 72.2792 98.7809 72.3751 98.8763 72.423ZM114.812 60.2475C117.103 61.7814 118.295 64.9451 117.341 67.5815C117.055 68.0609 116.816 68.5403 116.578 68.9717C113.095 73.6214 105.222 72.3271 100.308 71.9436C100.021 71.9436 99.9737 72.3271 100.26 72.423C103.982 73.7652 111.282 73.909 115.433 71.1288C114.335 73.0941 112.999 74.8198 110.423 75.5867C106.606 76.7372 102.407 73.7173 99.1148 72.0395C99.4965 71.5602 99.8305 71.0808 100.165 70.6015C104.888 72.5668 112.665 72.1354 115.337 67.1022C118.295 61.5417 111.377 58.9532 106.94 60.0078C107.035 59.7681 107.178 59.5284 107.274 59.2888C107.321 59.2408 107.321 59.145 107.274 59.097C109.898 58.7135 112.522 58.7135 114.812 60.2475ZM103.838 65.041C105.747 65.6162 107.703 65.9997 109.659 66.2873C111.138 66.479 113.047 66.9105 114.574 66.6708C114.001 67.8212 112.999 68.8279 111.95 69.451C110.995 70.0262 109.993 70.3618 108.991 70.5535C108.514 69.6428 107.369 68.8279 106.653 68.1568C105.651 67.1981 104.697 66.1435 103.648 65.2327C103.743 65.1848 103.791 65.1369 103.838 65.041ZM106.606 60.7268C108.371 60.7748 110.232 60.4871 111.95 60.9186C110.709 60.9665 109.325 61.5897 108.18 61.9731C107.035 62.3566 105.938 62.788 104.936 63.4591C105.508 62.5484 106.081 61.6376 106.606 60.7268ZM104.506 64.0343C104.554 64.0343 104.554 64.0343 104.506 64.0343C106.033 63.3633 107.512 62.836 109.087 62.3566C110.184 62.0211 111.425 61.8773 112.331 61.1582C112.379 61.1103 112.379 61.1103 112.379 61.0624C112.761 61.2062 113.142 61.35 113.476 61.5897C115.289 62.7401 115.48 64.5137 114.86 66.1435C113.429 65.6162 111.568 65.76 110.089 65.5683C108.085 65.3286 106.033 65.0889 104.077 64.7054C104.22 64.5137 104.363 64.274 104.506 64.0343ZM103.075 66.1914C103.218 65.9518 103.361 65.76 103.504 65.5203C104.22 66.6228 105.174 67.5336 106.081 68.4444C106.606 68.9717 107.131 69.499 107.655 70.0262C107.894 70.2659 108.085 70.4577 108.276 70.6494C105.651 71.0329 102.932 70.6015 100.308 70.3139C101.262 69.0196 102.168 67.6295 103.075 66.1914Z" fill="#211915"/>
<path d="M144.347 58.2844C142.295 53.1554 138.192 49.1768 133.421 46.5883C133.946 46.3486 134.28 46.013 134.327 45.5816C134.566 43.5683 130.319 41.4592 128.936 40.884C125.644 39.5418 121.492 39.2542 117.962 40.117C118.964 37.7682 118.868 34.988 118.296 32.5433C117.914 30.9614 116.673 26.7431 114.765 26.4076C113.19 26.12 112.188 29.0919 111.855 30.1465C110.9 32.8309 110.328 35.707 109.803 38.5831C106.845 37.4326 103.171 37.3368 100.022 37.193C96.5387 37.0492 93.0079 37.2409 89.5726 37.7203C82.5588 38.7269 75.7359 41.0278 69.6287 44.575C69.4855 44.6229 69.5333 44.7667 69.6287 44.8626C65.7162 46.1568 61.9469 47.6908 58.273 49.5602C57.8913 49.6561 57.4619 49.7999 57.0802 49.9437C56.9371 49.9917 56.8417 50.1355 56.8894 50.2793C56.8894 50.2793 56.8894 50.2793 56.8417 50.2793C56.7462 50.3272 56.7462 50.3751 56.7462 50.4231C54.456 51.5735 53.5972 54.0182 53.4541 56.7026C46.5834 65.283 46.3448 77.4585 52.0704 86.71C58.5116 97.064 71.0601 100.899 82.5111 102.193C95.0119 103.583 108.849 103.152 120.538 98.1185C130.033 94.044 139.957 86.8058 144.061 76.9791C146.494 71.2749 146.637 64.0846 144.347 58.2844ZM113.477 28.3729C115.672 26.12 117.151 31.3928 117.485 32.735C118.057 35.2276 117.675 37.4326 117.341 39.9253C117.341 40.0211 117.389 40.1649 117.437 40.2129C117.198 40.2608 116.96 40.3567 116.769 40.4046C116.53 40.5005 116.578 40.884 116.817 40.884C120.109 40.836 123.258 40.2129 126.55 40.9798C127.981 41.3154 129.413 41.8906 130.653 42.7055C131.274 43.089 132.228 43.6642 132.61 44.2874C132.944 44.4791 132.991 44.7667 132.848 45.1502C132.991 45.8213 132.657 46.061 131.894 45.9172C130.367 46.5403 128.172 46.4445 126.55 46.5883C125.214 46.6841 123.83 46.78 122.447 46.78C119.489 46.8279 116.53 46.5403 113.572 46.2048C114.336 44.8147 114.765 43.2328 114.526 41.603C114.479 41.3633 114.336 41.1237 114.049 41.1237C112.618 41.1716 111.234 41.1716 109.851 41.1237C110.423 38.9186 110.948 36.6657 111.473 34.4607C111.855 32.735 112.141 29.763 113.477 28.3729ZM90.0498 38.3913C93.3419 37.9599 96.6818 37.8161 99.974 37.9599C103.218 38.1037 106.415 38.8707 109.66 39.0145C109.517 39.7335 109.373 40.4526 109.278 41.1716C105.795 41.0278 102.36 40.6443 98.8289 40.5484C93.9622 40.4526 89.1432 40.6922 84.3242 41.4113C79.5529 42.0824 74.8771 43.1849 70.2967 44.6229C76.4993 41.5071 83.1314 39.3021 90.0498 38.3913ZM83.3223 42.4658C89.4295 44.0477 93.7714 50.9504 97.159 55.8397C97.2544 55.9835 97.493 55.8877 97.4452 55.7439C96.3478 52.2446 93.5328 49.4164 91.004 46.8279C89.2386 45.0064 87.2824 42.8973 84.7536 42.2741C86.0896 42.0824 87.4256 41.9385 88.7615 41.8427C91.1472 41.6509 93.5805 41.5071 95.9661 41.5071C97.9224 42.37 99.7832 43.2807 101.405 44.7667C103.028 46.2048 104.077 48.0742 105.461 49.704C105.604 49.8478 105.843 49.704 105.795 49.5123C104.984 46.061 101.501 42.9452 97.9224 41.5071C100.213 41.5551 102.503 41.6509 104.745 41.8906C106.224 42.0344 107.656 42.1303 109.087 42.1782C109.135 42.37 109.421 42.4179 109.517 42.1782C110.519 42.2262 111.568 42.2262 112.618 42.2741C114.288 42.322 113.477 43.9039 113.047 45.0543C112.856 45.4858 112.666 45.8692 112.427 46.2527C112.427 45.9172 112.379 45.5816 112.284 45.294C112.236 45.1981 112.093 45.1981 112.045 45.294C111.95 45.9172 111.902 46.5883 111.807 47.2114C111.664 47.4511 111.473 47.6908 111.33 47.9304C110.662 48.7453 109.994 49.5602 109.373 50.4231C109.421 49.8478 109.373 49.2726 109.183 48.6974C109.135 48.6015 108.944 48.5536 108.944 48.6974C108.801 49.5602 108.753 50.471 108.658 51.3818C108.037 52.2446 107.465 53.1554 106.845 54.0182C106.892 53.5389 106.892 53.0595 106.749 52.5802C106.702 52.4843 106.558 52.4843 106.511 52.5802C106.272 53.395 106.177 54.2579 106.034 55.1207C105.747 55.5521 105.413 55.9835 105.127 56.367C104.602 57.0381 104.077 57.7092 103.552 58.3803C104.077 57.1819 104.268 55.5521 103.409 54.4496C103.362 54.3538 103.218 54.4496 103.218 54.5455C103.266 55.1686 103.409 55.8397 103.409 56.4629C103.409 57.1819 103.266 57.901 103.028 58.572C102.98 58.6679 103.075 58.7638 103.171 58.7638C102.36 59.7704 101.549 60.7771 100.785 61.7837C101.071 60.7771 101.167 59.7225 100.785 58.7159C100.737 58.62 100.594 58.62 100.594 58.7638C100.547 60.106 100.451 61.4002 100.022 62.6945C99.4969 63.3176 98.972 63.9408 98.4949 64.5639C98.5426 64.1325 98.5426 63.6532 98.4472 63.2697C98.3995 63.1259 98.2086 63.1259 98.2086 63.2697C98.0655 63.8928 98.0178 64.516 97.8269 65.1392C97.7792 65.283 97.7792 65.3788 97.7315 65.5226C97.5407 65.7144 97.3975 65.9541 97.2067 66.1458C96.5387 66.9607 95.823 67.7756 95.155 68.5905C95.3459 67.9194 95.3936 67.2483 95.2027 66.5293C95.155 66.4334 95.0119 66.4334 95.0119 66.5772C94.9165 67.5839 94.7733 68.4946 94.4393 69.4054C93.7236 70.2203 92.9602 71.0352 92.1968 71.8501C92.4354 70.8914 92.5308 69.8847 92.2445 69.0219C92.1968 68.926 92.0537 68.926 92.0537 69.0219C91.8628 70.2682 91.8151 71.4187 91.5289 72.617C90.8132 73.3361 90.0975 74.0551 89.3341 74.7741C89.4772 74.2468 89.5249 73.6716 89.4295 73.0964C89.3818 72.9526 89.1909 72.9526 89.1432 73.0964C88.9524 73.9113 88.8092 74.6783 88.5707 75.4452C87.6641 76.2601 86.7099 77.0271 85.7556 77.7461C86.0896 77.0271 86.185 76.1642 85.9465 75.3493C85.8987 75.2055 85.7556 75.2535 85.7079 75.3973C85.6602 76.4519 85.4693 77.4106 84.9445 78.3213C83.9902 78.9924 83.036 79.6156 81.9863 80.2387C82.4157 79.7594 82.7497 79.1842 83.036 78.5131C84.0857 75.8766 83.2268 73.0485 81.9863 70.6517C80.1255 67.0086 77.7399 63.5094 75.2588 60.2498C71.9189 55.8877 66.0025 49.0809 59.7521 49.2726C67.4339 46.013 75.2588 43.6642 83.3223 42.4658ZM57.6528 50.4231C65.6685 49.5602 71.5849 56.4629 75.9268 62.4548C77.9784 65.283 80.0301 68.3029 81.5569 71.4666C83.704 75.8766 82.6066 81.0536 77.0719 81.3892C69.3424 81.8685 63.092 75.9246 58.8456 70.1723C56.7462 67.3442 54.0266 61.9275 53.9312 57.3257C53.9789 57.2299 54.0266 57.1819 54.122 57.0861C54.2652 56.8943 54.1697 56.6546 53.9789 56.5588C54.0743 53.9703 55.124 51.7653 57.6528 50.4231ZM143.774 75.1576C140.53 84.7446 131.512 91.6952 122.781 96.0573C112.284 101.33 100.26 102.145 88.7138 101.714C77.549 101.282 64.3326 99.0293 56.2214 90.5927C47.7285 81.7247 46.6311 68.1591 53.4063 58.1406C53.5018 60.3936 54.0266 62.6465 54.5992 64.2763C56.0783 68.3029 58.8933 72.5212 62.2809 75.7808V75.8287C62.9489 81.1495 67.4339 84.457 71.9189 86.7579C76.9765 89.3464 83.6085 91.3597 89.3341 90.2092C89.5249 90.1613 89.4772 89.9216 89.2864 89.8737C83.6085 89.2026 78.3601 88.915 73.1117 86.4224C68.6744 84.3612 63.8554 81.1016 62.6149 76.0204C64.3803 77.6502 66.2888 79.0883 68.245 80.0949C71.3941 81.7247 76.881 83.3066 80.4118 81.5809C80.4595 81.5809 80.4595 81.5809 80.5072 81.5809C87.521 78.9924 92.674 73.1443 97.3498 67.5839C100.117 64.3243 102.789 61.0647 105.413 57.6613C107.56 54.881 110.089 51.957 111.759 48.7933C111.807 48.8412 111.902 48.8412 111.95 48.7453C111.998 48.6015 112.093 48.4577 112.141 48.3139C112.57 47.8346 112.952 47.3073 113.286 46.7321C117.58 47.7387 122.065 47.9304 126.502 47.547C127.457 47.4511 130.892 47.499 132.896 46.8279C137.238 49.5602 141.15 53.2992 143.202 58.0448C145.492 63.1738 145.587 69.8368 143.774 75.1576Z" fill="#211915"/>
<path d="M67.8629 66.8146C68.8172 66.7187 69.008 65.4245 68.6741 64.6575C68.3878 64.0344 67.3381 63.1715 66.6701 63.6988L66.6224 63.7468C66.0021 64.0823 65.6681 64.8972 65.859 65.5683C66.0976 66.4311 67.0041 66.9105 67.8629 66.8146ZM66.9087 63.9864C67.3381 64.0823 67.7198 64.0823 68.0538 64.4178C68.3401 64.7534 68.4832 65.2327 68.3878 65.6642C68.2924 66.1435 68.0061 66.3832 67.4812 66.3353C66.9087 66.2873 66.3838 65.9038 66.2884 65.3286C66.193 64.7534 66.4316 64.274 66.9087 63.9864Z" fill="#211915"/>
<path d="M132.18 63.5072C132.132 63.4592 132.084 63.3634 131.989 63.3154C132.466 63.4592 132.943 63.4113 133.182 62.884C133.563 62.165 132.8 61.0145 132.466 60.4393C131.846 59.2889 131.082 58.2343 130.319 57.1797C130.891 57.5153 131.559 57.8029 132.275 57.9946C132.466 58.0426 132.752 57.8988 132.705 57.6591C132.514 55.0226 129.699 53.0573 127.695 51.6192V51.5713C127.599 51.2837 127.218 51.4275 127.265 51.6672C127.361 52.0986 127.456 52.53 127.552 52.9614C126.025 53.4887 122.017 54.8788 122.589 56.8442C122.923 58.0905 124.88 57.8029 126.311 57.4194C124.737 58.6657 122.255 60.6311 122.828 62.165C123.162 62.9799 123.973 62.9799 124.88 62.6443C123.496 63.7948 122.065 65.1849 122.494 66.575C122.733 67.342 123.544 67.5337 124.355 67.5337C122.876 68.2527 121.11 69.1635 121.11 70.5057C121.11 71.2247 121.635 71.5123 122.255 71.6561C120.252 72.0876 117.58 72.8545 117.723 74.5322C117.77 75.0595 118.057 75.3471 118.534 75.5389C117.15 75.8265 115.862 76.3538 115.576 77.4563C115.146 78.9423 117.055 79.4216 118.295 79.4696C118.248 79.5175 118.2 79.5654 118.2 79.6134C118.152 79.5654 118.104 79.5175 118.009 79.5654C114.765 80.4762 111.663 81.6746 108.419 82.6333C108.228 82.6812 108.037 82.7292 107.798 82.825C107.798 82.7771 107.751 82.7771 107.703 82.7771C106.701 82.2498 103.266 80.1886 106.797 80.4762C107.989 80.5721 109.23 81.339 110.28 81.9143C110.566 82.0581 110.852 81.6746 110.614 81.4828C110.232 81.1952 109.468 80.62 109.373 80.1407C109.039 78.7505 110.423 79.3258 111.186 79.6134C112.093 79.9489 112.904 80.4283 113.763 80.8118C114.097 80.9556 114.335 80.5241 114.049 80.3324C113.238 79.7092 110.47 76.8811 113.619 78.4629C114.574 78.9423 115.433 79.5654 116.387 80.0927C116.53 80.1886 116.721 79.9489 116.578 79.8051C115.099 78.5588 113.476 77.6001 111.616 77.0728C111.425 77.0249 111.186 77.2166 111.282 77.4084C111.568 78.1753 111.95 78.8464 112.427 79.4696C111.186 78.8464 109.85 78.3671 108.562 78.8464C108.419 78.8943 108.323 79.0382 108.371 79.182C108.61 79.7572 108.848 80.2365 109.182 80.7159C107.703 80.0927 106.272 79.6613 104.554 79.901C104.363 79.9489 104.315 80.1886 104.363 80.3324C104.649 80.8597 104.936 81.2911 105.317 81.6746C104.029 81.1473 102.598 80.7638 101.739 81.2432C101.31 81.4828 101.166 81.7705 101.119 82.0101C100.785 81.6746 100.451 81.387 100.117 81.0514C99.401 80.2845 98.8762 79.4216 98.2082 78.6067C98.1128 78.5109 97.9697 78.6067 98.0174 78.7026C98.5422 80.2365 99.7827 81.6266 101.119 82.6812C99.7827 82.2019 98.3514 82.0101 97.6834 83.0647C96.9677 84.2151 98.3514 85.03 99.401 85.1739C99.1625 85.2218 98.9716 85.3177 98.7331 85.3656C98.5422 85.4135 98.6376 85.6532 98.8285 85.6532C99.1625 85.6053 99.4487 85.5573 99.7827 85.5094C98.9239 86.2284 97.5879 87.6665 98.5899 88.3376C99.5919 89.0566 101.119 87.6185 102.264 86.3243C102.168 86.9954 102.312 87.5706 103.075 87.8103C104.268 88.1458 105.413 87.0913 106.319 85.8929C106.272 86.564 106.51 87.1871 107.369 87.283C108.276 87.3789 109.087 86.6598 109.755 85.7011C108.753 88.3376 106.797 90.3988 104.983 92.5079C104.888 92.6038 105.031 92.7476 105.127 92.6517C107.512 90.5426 109.755 88.0979 110.423 84.9342C110.566 85.1259 110.757 85.2697 111.043 85.3177C112.761 85.797 114.765 82.2498 115.433 81.1473C115.433 81.0994 115.433 81.0994 115.48 81.0994C116.291 80.7638 117.102 80.4283 117.866 80.0927C116.339 81.8663 114.669 83.4961 113.238 85.3177C113.142 85.4615 113.285 85.7011 113.476 85.6053C114.192 85.1739 114.908 84.5986 115.623 84.0234C115.051 85.3177 114.765 86.6598 115.767 86.9475C117.102 87.3309 118.057 85.5094 118.725 83.5441C118.82 84.0713 119.106 84.4548 119.631 84.5028C120.538 84.5986 121.349 83.0168 121.635 82.3457C122.017 81.387 122.208 80.3324 122.208 79.2778C122.303 79.4216 122.399 79.5654 122.542 79.6613C122.828 81.6266 122.542 83.4482 121.969 85.3177C121.921 85.4615 122.112 85.5094 122.208 85.4135C123.305 83.7837 123.496 81.7225 123.019 79.8051C123.162 79.8051 123.305 79.8051 123.496 79.7092C124.403 79.3737 124.784 77.5522 124.927 76.7852C125.071 75.9224 125.118 75.0595 125.071 74.1967C125.261 74.2926 125.548 74.2926 125.882 74.1488C126.884 73.6694 127.17 71.9917 127.17 70.314C127.552 70.8412 128.315 70.7454 129.031 70.5536C127.933 71.9917 127.17 73.5735 126.74 75.3471C126.693 75.5868 126.884 75.8265 127.122 75.7306C127.742 75.4909 128.267 75.2513 128.744 74.9157C127.599 76.9769 126.12 80.0927 127.742 80.4283C129.078 80.7159 130.176 78.5588 130.844 76.7852C130.557 79.3258 129.89 81.4349 128.554 83.7358C128.506 83.8317 128.649 83.9275 128.697 83.8796C130.701 81.8663 131.75 78.7026 131.225 75.8744C131.225 75.8265 131.178 75.7786 131.178 75.7786C131.178 75.7306 131.225 75.6348 131.225 75.5868C131.989 77.1207 133.42 79.134 134.422 78.0315C134.995 77.4084 134.279 75.7306 134.041 75.1554C133.611 74.005 132.943 72.9025 132.18 71.9437C132.943 72.6628 133.897 73.1901 134.947 73.5735C135.138 73.6215 135.329 73.4777 135.329 73.2859C135.233 71.5123 134.47 70.1222 133.42 68.8759C133.897 69.0197 134.327 68.9718 134.613 68.4924C134.804 68.2048 134.852 67.8693 134.804 67.5337C135.042 68.061 135.329 68.6362 135.567 69.2114C135.615 69.3553 135.854 69.2594 135.806 69.1635C135.376 67.0064 133.993 64.8014 132.18 63.5072ZM103.695 81.9143C104.793 82.1539 105.89 82.6333 106.94 83.0647C105.842 83.3523 104.793 83.6399 103.695 83.9275C103.409 83.7358 103.027 83.5441 102.836 83.3044C101.882 82.106 102.264 81.5787 103.695 81.9143ZM99.8304 84.8383C99.067 84.6945 98.7331 84.0713 98.8762 83.0647C99.5919 82.9688 100.308 83.0647 100.928 83.3044C101.596 83.4961 102.216 83.8317 102.836 84.1672C101.834 84.4548 100.88 84.6945 99.8782 84.9821C99.9259 84.8862 99.8782 84.8383 99.8304 84.8383ZM100.88 86.7078C100.164 87.3789 99.0193 87.9541 99.3056 86.564C99.401 86.1326 100.021 85.6532 100.355 85.3177C101.071 85.2218 101.787 85.078 102.502 84.9342C101.978 85.6053 101.453 86.1805 100.88 86.7078ZM105.222 85.9888C104.506 86.7078 104.459 87.0433 103.552 86.4202C102.693 85.797 102.932 85.6053 103.409 84.7904C104.554 84.5507 105.699 84.2631 106.844 83.9755C106.367 84.6466 105.842 85.3656 105.222 85.9888ZM106.844 86.0367C106.558 85.6532 107.417 84.2631 107.56 83.9755C107.608 83.8796 107.608 83.7837 107.56 83.6879C108.61 83.4002 109.612 83.0647 110.661 82.7292C110.28 83.4961 109.85 84.2151 109.325 84.9342C108.944 85.5573 107.798 87.3309 106.844 86.0367ZM113.285 83.3044C112.951 83.7358 112.522 84.1672 112.045 84.5028C111.282 84.311 110.9 84.0234 110.9 83.6399C111.043 83.3044 111.186 83.0168 111.329 82.825C111.377 82.7771 111.377 82.6812 111.329 82.6333C112.474 82.2498 113.572 81.8663 114.669 81.4349C114.192 82.0101 113.81 82.6812 113.285 83.3044ZM132.275 62.3567C131.607 62.884 130.939 62.117 130.319 61.5418C130.224 61.446 130.128 61.446 130.033 61.4939C129.794 59.8641 129.46 58.2822 129.078 56.7004C129.842 57.707 130.557 58.7136 131.225 59.7203C131.655 60.2955 132.991 61.7815 132.275 62.3567ZM129.317 65.0411C126.74 66.6229 127.981 64.1303 128.363 63.2196C128.601 62.5964 128.935 62.0691 129.222 61.4939C129.365 62.4526 129.508 63.4592 129.651 64.4179C129.699 64.6576 129.699 64.8973 129.746 65.137C129.651 64.9932 129.508 64.9452 129.317 65.0411ZM130.462 54.783C130.605 54.9268 132.323 56.7483 131.798 57.1318C131.273 57.5632 129.269 55.5979 128.697 54.9747C128.601 54.6871 128.554 54.3995 128.458 54.1598C128.458 53.7284 128.458 53.297 128.41 52.9135C129.126 53.5367 129.842 54.1119 130.462 54.783ZM128.076 52.53V52.5779C128.076 52.6259 128.076 52.6738 128.076 52.7218C128.029 52.6259 128.029 52.53 127.981 52.3862C128.029 52.4821 128.029 52.53 128.076 52.53ZM124.641 57.0839C123.735 57.1318 123.591 57.3715 123.687 56.3169C123.83 54.9268 126.263 53.8722 127.647 53.249C127.742 53.6325 127.838 54.0639 127.933 54.4474C127.838 55.1664 127.742 55.8855 127.647 56.6045C127.599 56.5566 127.504 56.5566 127.408 56.5566C126.931 56.6524 126.454 56.7962 125.977 56.8921C125.548 56.988 125.071 57.0839 124.641 57.0839ZM124.403 62.117C123.257 61.7815 123.973 60.679 124.403 60.1517C125.357 59.0492 126.502 58.1864 127.552 57.1318C127.361 58.426 127.122 59.6723 126.884 60.9187C126.454 61.1583 126.072 61.398 125.643 61.5898C125.405 61.7815 124.641 62.2129 124.403 62.117ZM124.069 66.9106C123.067 66.5271 123.162 65.9519 123.448 65.2328C123.735 64.7535 124.069 64.3221 124.45 63.9865C125.118 63.3154 125.882 62.7881 126.55 62.165C126.168 63.7468 125.739 65.3287 125.214 66.9106C124.832 66.9585 124.307 67.0064 124.069 66.9106ZM123.305 68.9238C123.735 68.5404 124.259 68.3007 124.832 68.0131C124.498 68.9238 124.116 69.8346 123.687 70.7454C123.639 70.8892 123.544 71.033 123.496 71.1768C122.16 71.033 121.158 70.7454 123.305 68.9238ZM119.536 73.3339C120.395 72.6628 121.731 72.4231 122.971 72.1834C122.494 73.1421 121.969 74.1008 121.397 75.0116C120.156 75.0595 117.436 74.9637 119.536 73.3339ZM116.959 78.6547C116.912 78.0794 116.912 77.4563 116.864 76.8811C117.293 76.6414 117.77 76.4976 118.248 76.3538C119.106 76.1141 120.013 75.9703 120.872 75.7786C120.395 76.5455 119.87 77.3125 119.345 78.0315C119.106 78.3671 118.868 78.7026 118.582 79.0382C118.104 78.9902 117.246 78.9423 116.959 78.6547ZM115.719 85.3177C115.671 85.03 115.957 84.5028 116.053 84.2631C116.196 83.8796 116.387 83.4482 116.53 83.0168C117.341 82.2498 118.104 81.387 118.82 80.4762C118.725 80.9076 118.629 81.387 118.534 81.8663C118.248 83.1126 117.818 84.4069 117.15 85.2697C116.768 85.797 116.053 86.516 115.719 85.3177ZM119.679 83.5441C118.868 83.4482 119.154 82.4895 119.25 81.7225C119.297 81.0514 119.44 80.3803 119.584 79.7092C119.584 79.6613 119.584 79.6134 119.584 79.5654C120.252 78.6547 120.872 77.7439 121.444 76.8331C121.444 76.9769 121.492 77.1687 121.492 77.3604C121.587 79.4216 121.492 83.7837 119.679 83.5441ZM124.116 77.3604C123.782 78.4629 122.971 79.6613 122.208 78.1753C122.112 77.9356 122.017 77.648 121.969 77.3604C121.921 77.0249 121.921 76.7373 121.874 76.4017C121.874 76.3058 121.778 76.21 121.731 76.162C122.589 74.7719 123.305 73.3339 123.973 71.9437C124.021 72.3272 124.069 72.9504 124.259 73.4297C124.498 74.7719 124.498 76.1141 124.116 77.3604ZM126.311 70.0743C126.311 70.7454 126.216 71.3685 126.072 72.0396C126.025 73.238 125.5 73.1901 124.593 71.9437C124.593 71.8958 124.593 71.8958 124.593 71.8479C124.593 71.752 124.546 71.7041 124.45 71.7041C124.498 71.5603 124.498 71.3685 124.355 71.3206C124.45 71.1768 124.498 70.985 124.593 70.8412C125.071 69.7387 125.548 68.6362 125.977 67.5337C126.072 67.4858 126.12 67.4378 126.216 67.3899C126.263 68.2527 126.359 69.1635 126.311 70.0743ZM126.884 68.6362C126.836 68.2527 126.788 67.8693 126.74 67.5337C126.979 67.5337 127.17 67.2461 126.979 67.0544C126.836 66.8147 126.693 66.575 126.55 66.3353C126.502 66.2395 126.454 66.1915 126.406 66.1436C127.408 63.1237 128.124 59.96 128.41 56.7962C128.697 58.1384 128.935 59.4327 129.174 60.7749C127.838 62.117 127.265 64.0344 127.027 65.9039C126.979 66.0957 127.122 66.3353 127.361 66.3353C127.742 66.3353 128.029 66.2874 128.363 66.2395C127.742 66.9106 127.17 67.8213 126.884 68.6362ZM128.172 67.7734C128.554 66.9585 129.126 66.2395 129.746 65.5684C129.746 65.5684 129.794 65.5204 129.794 65.4725C129.937 66.8147 129.985 68.2048 130.033 69.547C129.937 69.4991 129.89 69.4991 129.746 69.4991C128.315 69.8825 127.408 69.3553 128.172 67.7734ZM127.79 79.2778C127.027 78.3671 129.508 74.5322 130.128 73.5256C130.319 73.238 129.89 72.8545 129.651 73.1421C129.222 73.7174 128.697 74.1967 128.076 74.5802C127.265 74.9637 127.122 74.7719 127.647 73.957C127.79 72.6628 129.269 71.033 130.128 70.1222C130.224 71.9438 130.271 73.8132 130.462 75.6348C130.271 76.21 130.033 76.7852 129.699 77.3604C129.269 78.0794 128.41 79.9969 127.79 79.2778ZM132.8 77.2645C132.418 76.929 132.084 76.4976 131.798 76.0182C131.559 75.6348 131.369 75.2033 131.13 74.7719C131.13 74.724 131.082 74.6761 131.082 74.6761C131.082 74.6281 131.035 74.6281 131.035 74.5802C131.082 73.6694 131.13 72.7586 131.13 71.7999C132.132 73.1901 133.229 74.6281 133.563 76.3058C133.707 77.0728 133.85 78.1274 132.8 77.2645ZM133.85 70.8892C134.565 72.2314 134.041 72.9983 132.609 71.752C131.989 71.2247 131.512 70.6495 131.035 69.9784C130.987 69.0676 130.891 68.2048 130.796 67.294C131.941 68.3965 133.134 69.4991 133.85 70.8892ZM131.225 66.9106C131.082 66.7668 130.891 66.8626 130.796 66.9585C130.701 65.9519 130.557 64.8973 130.414 63.9386C130.319 63.3634 130.271 62.7402 130.176 62.165C131.273 63.3634 132.418 64.6576 133.182 66.0957C134.613 68.8759 132.466 67.9172 131.225 66.9106Z" fill="#211915"/>
</g>
<g clip-path="url(#clip2)">
<path opacity="0.2" d="M143.157 22.4105C143.622 21.5372 143.717 20.7429 143.562 19.679C143.498 19.2088 143.274 18.9018 142.952 18.7447C142.698 17.6697 142.174 16.6847 141.181 15.9287C139.121 14.3681 136.516 14.698 134.096 15.1496C133.788 15.2154 133.529 15.3673 133.332 15.5061C133.295 15.4818 133.258 15.4574 133.258 15.4574C132.96 15.2629 132.528 15.355 132.308 15.6924C132.111 15.9923 132.2 16.4249 132.535 16.6438C132.647 16.7168 132.783 16.7523 132.906 16.7259C132.961 17.6176 133.682 18.4637 134.793 18.2268C134.855 18.2136 134.855 18.2136 134.917 18.2004C135.041 18.3352 135.178 18.5318 135.229 18.779C134.739 19.5287 134.211 20.2541 133.535 20.8822C133.24 21.1709 132.871 21.411 132.477 21.6886C132.464 21.6268 132.414 21.5406 132.327 21.4302C132.671 21.0665 132.816 20.5194 132.579 19.9894C131.865 18.3996 130.259 16.226 128.552 18.1063C127.95 18.783 127.512 19.9411 127.628 20.8195C127.708 21.8348 128.663 22.4054 128.965 23.4054C129.23 24.3812 128.867 25.749 128.947 26.9253C128.718 27.8453 128.723 28.8119 129.087 29.7988C129.865 31.8588 131.91 33.0354 134.095 32.5372C136.464 31.9996 139.233 29.9574 140.755 28.1166C142.093 26.4764 142.712 24.4734 143.157 22.4105Z" fill="#979391"/>
<path opacity="0.2" d="M157.139 38.8803C157.847 37.3099 158.476 34.8854 158.096 33.1923C157.753 31.5234 156.377 30.7846 154.842 30.37C154.529 29.6303 154.277 28.7163 153.57 28.2542C153.433 28.0576 153.259 27.8367 153.06 27.6533C152.352 27.0301 151.463 27.0907 150.911 27.8536C149.366 29.893 148.96 32.4634 147.216 34.4805C145.645 36.2351 143.675 37.6229 141.805 39.0219C141.608 39.1607 141.485 39.3481 141.4 39.5599C140.499 39.7198 139.775 40.584 140.423 41.5426C140.51 41.653 140.56 41.7391 140.647 41.8496L140.684 41.8739C141.791 43.1862 143.681 43.1378 144.726 44.3022C144.852 44.7591 144.954 45.2536 145.536 45.581C147.569 46.6958 150.673 44.8725 151.837 43.1725C151.862 43.135 151.886 43.0975 151.911 43.06C152.367 42.9304 152.786 42.7764 153.206 42.6225C154.981 41.8568 156.346 40.6624 157.139 38.8803Z" fill="#979391"/>
<path opacity="0.2" d="M172.91 50.5811C172.421 49.2983 171.907 48.053 170.901 47.0741C170.504 46.7072 169.847 46.4923 169.512 46.1123C168.729 45.2793 169.156 44.3817 168.842 43.4809C168.24 41.8029 166.15 41.5068 165.443 43.2383C165.333 43.4875 165.383 43.7347 165.545 43.8938C165.262 44.0832 165.053 44.3213 164.894 44.6455C163.372 48.6799 160.176 51.6198 156.043 52.8239C155.192 53.0699 154.481 54.157 155.042 55.0052C155.814 56.0985 156.645 56.5343 157.675 57.3147C158.978 58.327 159.259 60.009 160.144 61.3364C160.518 61.9019 161.15 62.3154 161.878 62.0956C164.975 61.3382 167.931 59.5787 170.229 57.282C172.245 55.336 174.001 53.3807 172.91 50.5811Z" fill="#979391"/>
<path opacity="0.2" d="M145.344 24.4281C145.229 23.7107 144.953 22.9954 144.406 22.3701C144.194 22.1249 144.23 21.827 144.315 21.6153C144.214 21.2819 144.113 20.9486 144.198 20.5757C144.21 20.4764 144.234 20.4389 144.283 20.364C144.009 19.9708 143.76 19.5401 143.51 19.1095C143.543 22.7155 141.757 26.0963 138.879 28.3878C137.132 29.7604 135.098 30.6781 132.95 31.0395C131.925 31.2258 130.911 31.1517 129.922 31.0401C129.836 31.0907 129.75 31.1414 129.688 31.1545C129.787 31.1657 129.824 31.19 129.899 31.2387C131.376 32.472 132.809 32.3921 134.649 32.2576C134.872 32.2425 135.182 32.4989 135.257 32.7086C135.356 32.7198 135.492 32.7552 135.591 32.7664C138.321 32.5712 140.703 32.0954 142.892 30.2091C143.101 29.971 143.285 29.7704 143.457 29.5081C144.426 28.269 145.49 26.2357 145.344 24.4281Z" fill="#211915"/>
<path opacity="0.2" d="M161.14 34.059C160.918 34.0741 160.72 34.0518 160.522 34.0295C160.485 34.0052 160.423 34.0183 160.386 33.994C160.324 34.0072 160.3 34.0446 160.238 34.0578C160.152 34.1085 160.09 34.1216 159.991 34.1105C159.72 34.2006 159.226 34.3059 158.99 34.0982C158.879 34.0252 158.704 33.6432 158.9 33.3433C159.009 33.0941 159.157 32.8692 159.304 32.6442C159.315 32.545 159.352 32.4082 159.326 32.2846C159.104 32.2997 158.931 32.2399 158.745 32.1183C158.26 31.641 157.788 31.2255 157.205 30.8982C157.546 34.2773 157.145 37.8143 154.862 40.495C153.904 41.6347 152.76 42.4917 151.516 43.1764C151.085 43.4297 150.629 43.7204 150.211 44.0354C148.795 44.9826 147.452 45.6562 145.972 46.1332C146.307 46.5132 146.668 46.8557 147.101 46.9247C147.162 46.9115 147.224 46.8983 147.323 46.9095C147.693 46.8305 148.088 46.7141 148.508 46.7212C148.805 46.7547 149.041 46.9624 149.092 47.2097C152.015 46.2313 154.874 44.944 157.173 42.8085C159.557 40.4612 161.183 37.2435 161.14 34.059Z" fill="#211915"/>
<path opacity="0.2" d="M172.6 48.1311C172.402 48.1088 172.229 48.049 172.129 47.8767C172.154 48.0003 172.193 48.1858 172.255 48.3337C172.38 48.6296 172.444 48.9386 172.483 49.2851C172.644 49.2831 172.78 49.3186 172.891 49.3916C173.052 49.3896 173.25 49.4119 173.361 49.4849C173.075 49.0299 172.825 48.5992 172.6 48.1311Z" fill="#211915"/>
<path opacity="0.2" d="M169.063 60.8535C168.678 60.5484 168.65 59.9415 169.143 59.6751C170.979 58.7351 170.896 57.2366 171.914 55.7615C172.281 55.1992 172.627 55.1577 173.007 54.6573C174.185 53.1802 174.073 52.9461 174.027 51.4719C174.026 51.3108 174.063 51.174 174.112 51.099C173.961 50.6795 173.786 50.2975 173.549 49.9287C173.562 49.9905 173.562 49.9905 173.575 50.0523C173.563 50.1516 173.538 50.1891 173.526 50.2884C173.811 50.4211 173.961 50.6795 173.815 51.0655C173.229 52.2874 172.531 53.4363 171.709 54.4504C170.704 55.9873 169.265 57.2941 167.838 58.3405C165.463 60.1052 162.334 61.8049 159.29 61.0993C159.327 61.1236 159.303 61.1611 159.34 61.1854C159.49 61.4438 159.627 61.6404 159.764 61.8369C161.275 62.4502 162.859 62.9509 164.474 62.3483C165.313 62.0404 166.062 61.1388 166.864 60.9676C167.728 60.7834 168.115 61.4106 168.415 62.0885C168.822 61.8727 169.215 61.5952 169.548 61.3308C169.448 61.1585 169.262 61.0369 169.063 60.8535Z" fill="#211915"/>
<path opacity="0.2" d="M165.504 45.4187C165.869 44.3731 166.159 43.1178 166.091 42.0033C166.09 41.8421 166.052 41.6567 166.026 41.5331C165.569 41.5016 165.344 41.0335 165.428 40.6607C165.561 40.0517 165.582 39.3698 165.479 38.7143C165.378 38.3809 165.339 38.0344 165.263 37.6636C165.251 37.6017 165.238 37.5399 165.201 37.5156C165.164 37.6524 165.104 37.8267 165.067 37.9634C165.003 39.6869 164.679 41.4012 163.971 42.9716C163.194 45.4599 161.847 47.6827 159.633 49.4453C157.369 51.283 152.895 53.3341 150.007 51.6598C149.97 51.7966 149.909 51.9709 149.91 52.132C151.038 52.7624 153.141 53.1203 154.165 52.7729C154.732 52.5552 155.241 52.995 155.108 53.6039C155.06 53.84 155.025 54.1379 154.977 54.3739C155.532 54.2555 156.112 54.0995 156.704 53.8443C158.516 53.1029 160.166 52.0413 161.666 50.7213C163.326 49.2382 164.799 47.4724 165.504 45.4187Z" fill="#211915"/>
<path opacity="0.2" d="M149.236 33.1787C150.275 31.1829 150.783 29.268 151.266 27.2295C150.835 27.4827 150.154 27.1442 150.237 26.6102C150.356 25.7784 150.29 24.9861 150.224 24.1937C148.208 30.527 147.583 31.5634 144.868 34.3362C143.455 35.7666 141.618 36.5455 139.857 37.5342C139.512 37.7367 139.191 37.9018 138.809 38.0801C138.97 38.0781 139.155 38.0386 139.316 38.0366C139.699 38.0195 139.973 38.4126 139.974 38.7348C140.029 39.6265 139.713 40.5971 140.138 41.4097C142.565 40.2145 144.754 38.3282 146.61 36.5452C147.36 35.8047 148.011 35.053 148.6 34.3144C148.783 33.9528 149.028 33.5779 149.236 33.1787Z" fill="#211915"/>
<path opacity="0.2" d="M134.121 19.4993C134.158 19.5236 134.158 19.5236 134.195 19.5479C134.465 19.1356 134.635 18.7121 134.572 18.403C134.546 18.2794 134.558 18.1801 134.607 18.1052C134.434 18.0454 134.273 18.0474 134.051 18.0625C133.755 18.1901 133.41 18.3927 133.127 18.5822C133.413 18.876 133.736 19.1942 134.121 19.4993Z" fill="#211915"/>
<path opacity="0.2" d="M132.243 19.6094C131.9 20.1342 131.607 20.7451 131.437 21.3297C131.255 21.8525 131.034 22.1898 131.513 21.7005C131.722 21.4625 131.943 21.2862 132.227 21.0968C132.522 20.9691 132.831 20.9033 133.103 20.9743C133.214 20.8862 133.312 20.7362 133.423 20.6481C132.939 20.3319 132.603 19.9519 132.243 19.6094Z" fill="#211915"/>
<path d="M183.337 76.7135C183.3 76.6891 183.25 76.603 183.212 76.5787C178.732 70.9213 173.66 65.5191 168.762 60.1768C169.378 59.884 169.994 59.5913 170.449 59.1395C171.505 58.0109 171.261 56.3533 172.541 55.3706C173.094 54.93 173.613 54.7872 173.955 54.1013C175.03 51.9686 173.487 49.943 172.674 48.1809C172.135 46.9731 171.665 46.8798 170.722 46.0488C169.691 45.1074 169.882 44.002 169.295 42.8692C168.458 41.3057 167.109 40.8516 165.543 41.3792C166.193 38.4339 165.547 35.6039 162.339 34.2559C162.302 34.2316 162.24 34.2447 162.203 34.2204C161.386 33.8464 160.36 33.8716 159.25 34.2696C159.36 34.0204 159.494 33.7337 159.53 33.4358C159.612 32.7407 159.386 32.1115 158.902 31.6342C158.367 31.0708 157.588 30.8822 156.906 30.5437C155.593 29.9528 155.121 29.5373 154.57 28.2677C154.445 27.9718 154.406 27.6253 154.195 27.3801C153.298 26.1519 151.706 26.556 150.511 27.1657C151.004 24.7057 150.448 22.4695 147.736 21.4995C146.842 20.7546 145.543 20.3866 144.495 20.9326C144.418 20.4007 144.193 19.9325 143.881 19.3539C142.484 16.9423 140.594 14.9581 137.776 14.7206C135.649 14.5613 133.152 14.3198 131.28 15.5576C128.718 12.4913 126.056 9.41376 123.076 6.82356C120.567 4.48775 117.185 2.9188 114.083 5.22543C111.708 6.99009 111.048 10.3569 112.495 12.8547C113.918 15.3899 116.989 16.5414 119.349 14.3927C119.534 14.1921 119.421 13.958 119.248 13.8982C119.211 13.8739 119.149 13.8871 119.112 13.8628C117.297 14.1209 115.517 14.0811 114.42 12.3473C113.697 11.179 113.513 9.34708 114.161 8.11207C116.105 4.40705 119.886 6.50393 122.122 8.60769C124.88 11.2131 127.416 13.9947 129.904 16.8513C128.29 17.7761 126.694 19.5682 127.335 21.5927C127.511 22.1358 127.921 22.5645 128.122 23.0701C128.673 24.3397 128.492 25.1847 128.302 26.4512C128.135 27.5191 128.041 28.4746 128.418 29.5233C129.51 32.6451 132.157 33.145 134.923 32.652C134.457 33.3642 134.485 33.9711 134.785 34.4879C134.76 34.5254 134.711 34.6004 134.724 34.6622C135.002 38.0545 137.095 38.8339 139.552 38.4067C139.387 39.9579 138.864 41.3277 140.217 42.4262C141.297 43.2927 142.842 43.4469 143.922 44.3133C144.84 45.0207 145.082 46.195 146.074 46.7899C147.065 47.3848 147.942 47.2624 148.867 46.9038C148.842 46.9413 148.855 47.0031 148.831 47.0406C147.792 49.1976 148.003 51.4753 150.443 52.5355C151.892 53.1619 153.487 53.2411 155.005 52.9495C154.258 54.1734 154.412 55.2373 155.555 56.2517C156.822 57.4008 157.886 57.7222 158.563 59.4488C158.864 60.2878 159.042 61.1531 159.664 61.827C160.907 63.1747 162.922 63.2611 164.587 62.7446C165.734 62.3709 166.497 61.6922 167.42 61.0114C169.993 63.8174 172.653 66.5727 175.362 69.253C177.983 71.8229 180.483 74.5802 183.313 76.912C183.3 76.8502 183.411 76.7621 183.337 76.7135ZM163.535 40.388C163.039 42.2036 161.998 43.8773 160.919 45.3655C159.742 47.0037 158.303 48.3105 156.566 49.2617C154.275 50.4924 148.238 51.5219 149.423 46.9465C149.435 46.8472 149.41 46.7236 149.372 46.6992C149.607 46.5848 149.841 46.4703 150.099 46.3184C150.678 46.0013 151.257 45.6843 151.861 45.3297C151.861 45.3297 151.836 45.3672 151.812 45.4047C151.309 46.0926 151.524 46.9822 152.096 47.57C152.829 48.3168 153.904 48.3778 154.879 48.1054L154.941 48.0922C158.369 46.7482 161.512 43.2389 162.32 39.6472C162.766 37.5843 161.501 34.5638 159.098 35.7215C159.109 35.4611 159.144 35.1633 159.228 34.7904C159.24 34.6911 159.277 34.5543 159.326 34.4794C163.322 33.2398 164.334 37.3789 163.535 40.388ZM153.807 44.1405C153.783 44.3391 153.784 44.5002 153.797 44.7231C153.787 44.9835 153.776 45.2439 153.925 45.5023C153.975 45.5884 154.062 45.5378 154.086 45.5003C154.22 45.2136 154.17 44.9663 154.143 44.6816C154.13 44.4587 154.116 44.2358 154.078 44.0504C154.509 43.7971 154.94 43.5439 155.433 43.2775C155.495 43.4254 155.534 43.6109 155.633 43.7831C155.759 44.079 155.934 44.461 156.28 44.5806C156.355 44.6293 156.404 44.5543 156.453 44.4793C156.513 44.144 156.251 43.8126 156.102 43.5542C156.002 43.3819 155.939 43.234 155.839 43.0617C156.16 42.8966 156.467 42.6697 156.788 42.5046C156.912 42.6394 156.999 42.7498 157.124 42.8846C157.285 43.0437 157.385 43.216 157.62 43.2626C157.719 43.2738 157.768 43.1988 157.755 43.137C157.742 42.9141 157.58 42.755 157.48 42.5827C157.393 42.4723 157.306 42.3618 157.219 42.2514C157.674 41.9607 158.031 41.6588 158.338 41.2708C158.45 41.3437 158.561 41.4167 158.673 41.4897C158.859 41.6113 159.082 41.7572 159.279 41.6184C159.341 41.6053 159.328 41.5435 159.352 41.506C159.339 41.2831 159.128 41.1989 158.942 41.0773C158.831 41.0044 158.756 40.9557 158.62 40.9202C159.086 40.208 159.304 39.3873 159.348 38.5069C159.496 38.4431 159.657 38.4411 159.805 38.3772C160.076 38.2871 160.36 38.2588 160.581 38.0825C160.63 38.0075 160.642 37.9083 160.543 37.8971C160.258 37.7643 159.925 37.8676 159.678 37.9203C159.555 37.9466 159.432 37.9729 159.345 38.0236C159.344 37.8625 159.344 37.7014 159.281 37.5534C159.178 36.8979 159.065 36.5027 159.025 35.9951C162.642 35.256 161.824 39.2692 161.276 40.6764C160.947 41.5852 160.458 42.496 159.881 43.2964C158.619 45.1463 156.849 46.8787 154.679 47.5997C154.679 47.5997 154.679 47.5997 154.654 47.6372C153.272 47.9643 151.686 47.3024 152.085 45.6368C152.146 45.4625 151.96 45.3409 151.812 45.4047C152.452 44.9134 153.141 44.5082 153.807 44.1405ZM128.821 28.6631C128.49 27.0561 129.346 25.4219 128.979 23.7906C128.814 23.1482 128.392 22.6578 128.203 22.0529C127.474 19.9179 128.355 18.4073 130.215 17.2688L130.239 17.2313C131.16 18.2608 132.018 19.3036 132.877 20.3463C132.926 20.4324 132.988 20.4192 133.05 20.4061C132.903 20.631 132.769 20.9177 132.497 21.0079C132.263 21.1223 132.102 20.9632 131.856 21.177C131.807 21.2519 131.819 21.3137 131.894 21.3624C132.203 21.4577 132.636 21.5266 132.932 21.399C133.104 21.2977 133.215 21.2096 133.3 20.9978C133.557 20.5237 133.654 20.2127 134.147 19.9462C134.529 19.768 134.763 19.6535 134.872 19.2432C134.968 18.771 134.731 18.2411 134.432 17.8854C134.382 17.7993 134.234 17.8631 134.223 17.9624C134.238 18.5075 134.636 19.0354 134.083 19.4761C133.775 19.703 133.491 19.7314 133.233 20.0444C133.209 20.0819 133.184 20.1194 133.16 20.1569C133.16 20.1569 133.147 20.095 133.11 20.0707C130.099 16.3903 126.977 12.798 123.585 9.45697C121.647 7.5478 118.973 4.56958 115.829 5.72418C113.474 6.64586 112.661 9.43207 113.452 11.7149C114.231 13.936 115.977 14.5959 118.053 14.508C115.082 15.8835 112.087 12.7482 112.341 9.59717C112.786 5.17964 117.361 3.62301 120.821 5.7239C123.4 7.30286 125.465 9.83011 127.492 12.0108C129.692 14.4125 131.745 16.8779 133.835 19.3677C134.084 19.6372 134.465 19.2978 134.241 18.9908C133.382 17.9481 132.511 16.8436 131.615 15.7765C133.228 14.6906 135.416 14.8368 137.295 15.0489C140.065 15.3613 143.49 17.9212 143.828 20.9781C143.984 22.3642 143.176 23.6012 143.184 25.0511C143.226 28.0745 141.862 29.43 139.223 30.5411C135.907 31.9581 129.85 33.8306 128.821 28.6631ZM135.379 32.5224C135.972 32.4282 136.576 32.2348 137.119 32.0545C136.479 34.7394 141.471 32.5456 142.308 31.9155C144.486 30.2896 147.541 26.3476 146.462 23.4487C146.486 23.4112 146.474 23.3494 146.437 23.3251C146.012 22.5124 145.242 21.9024 144.318 22.422C144.232 22.4726 144.295 22.6206 144.381 22.5699C145.121 22.2509 145.742 22.9248 145.968 23.554C145.968 23.554 146.005 23.5783 145.981 23.6158C146.684 25.6271 145.054 28.0393 143.827 29.5914C143.116 30.5174 137.952 35.1672 137.218 32.0657L137.18 32.0414C137.637 31.9118 138.081 31.7203 138.5 31.5664C138.477 31.9261 138.554 32.2969 138.813 32.3061C139.035 32.2909 139.046 32.0305 139.045 31.8694C139.045 31.7083 139.006 31.5229 139.006 31.3618C139.301 31.2342 139.597 31.1065 139.869 31.0164C139.955 30.9658 140.016 30.9526 140.103 30.9019C140.153 30.9881 140.141 31.0874 140.191 31.1735C140.229 31.3589 140.254 31.4825 140.403 31.5798C140.477 31.6285 140.539 31.6153 140.588 31.5403C140.735 31.3154 140.635 30.9821 140.546 30.7105C141.273 30.3297 141.901 29.9376 142.381 29.4483C142.455 29.497 142.505 29.5831 142.579 29.6317C142.741 29.7908 142.865 29.9256 143.125 29.9348C143.186 29.9216 143.211 29.8841 143.235 29.8466C143.37 29.5599 143.108 29.2286 142.749 29.0471C143.203 28.4342 143.545 27.7483 143.651 26.8547C143.75 26.8659 143.812 26.8527 143.911 26.8638C144.071 26.8618 144.232 26.8598 144.343 26.7717C144.367 26.7342 144.416 26.6593 144.342 26.6106C144.18 26.4515 143.921 26.4424 143.698 26.4575C143.686 26.3957 143.71 26.3582 143.698 26.2964C143.719 25.7756 143.679 25.268 143.677 24.7847C143.714 24.809 143.714 24.809 143.776 24.7959C144.072 24.8293 144.356 24.801 144.653 24.8345C144.814 24.8325 145.172 24.8528 145.183 24.5924C145.194 24.332 144.873 24.336 144.712 24.338C144.391 24.342 144.107 24.3704 143.786 24.3744C143.724 24.3875 143.724 24.3875 143.662 24.4007C143.685 24.041 143.708 23.6813 143.829 23.3328C143.987 22.8475 144.281 22.3977 144.365 21.8637C144.388 21.6651 144.412 21.4666 144.436 21.268C146.261 20.5884 147.814 22.1925 148.071 23.912C148.162 24.6668 147.895 25.5625 147.689 26.2838C147.289 27.7884 146.581 29.1977 145.611 30.4367C144.52 31.8631 143.031 33.0838 141.455 34.033C140.741 34.4756 139.915 34.8453 139.101 35.1157C138.064 35.4013 133.828 35.7887 135.269 32.7716C135.429 32.6085 135.416 32.5467 135.379 32.5224ZM135.319 35.0513C136.039 35.5753 137.066 35.8723 137.993 35.836C140.896 35.7006 143.812 33.4335 145.641 31.3658C147.471 29.2981 149.208 26.1534 148.846 23.295C148.808 23.1096 148.77 22.9242 148.694 22.7144C151.53 26.0129 149.048 30.7037 146.383 33.7236C143.903 36.543 136.748 40.9079 135.319 35.0513ZM145.234 44.7431C144.128 43.592 143.088 43.2331 141.613 42.4831C140.101 41.7088 140.054 39.9124 140.181 38.3369L140.169 38.2751C142.526 37.6756 145.038 36.1075 146.34 34.7652C147.777 33.2973 149.701 30.4352 150.39 27.6754C152.054 26.8367 153.007 27.085 154.203 28.83C154.514 29.2475 154.404 29.4967 154.777 29.901C155.71 30.9924 157.526 30.8954 158.434 32.0242C159.306 33.1287 158.106 35.1266 158.286 36.4752C158.389 37.1308 158.503 37.6871 158.556 38.2565C158.531 38.294 158.569 38.3183 158.544 38.3558C158.598 39.0863 158.478 39.757 157.939 40.5817C157.044 41.8694 155.71 41.9604 154.54 42.6938C153.062 43.6541 151.783 44.6367 150.181 45.4622C149.774 45.678 149.356 45.993 148.912 46.1845C147.026 47.0383 146.502 46.0534 145.234 44.7431ZM150.625 52.0127C149.015 51.2272 148.662 49.9799 148.827 48.5898C149.354 50.058 151.165 51.188 152.696 51.1193C155.884 50.9557 159.009 48.6116 160.96 46.1953C162.961 43.7042 164.956 40.4075 164.27 37.0698C164.282 36.9706 164.232 36.8844 164.22 36.8226C166.205 40.5282 163.764 45.8877 160.913 48.7861C159.267 50.4921 157.125 51.9812 154.755 52.3578C153.421 52.6099 151.877 52.6167 150.625 52.0127ZM159.294 59.7123C158.917 58.6636 158.678 57.8115 157.808 57.0291C156.318 55.734 154.499 55.3477 155.659 52.8422C155.684 52.8047 155.671 52.7429 155.671 52.7429C157.102 52.3409 158.47 51.6298 159.614 50.7728C161.842 49.072 164.576 45.2951 165.507 41.6771C168.987 40.7414 168.534 43.709 169.533 45.5927C170.257 46.9222 171.741 47.0896 172.244 48.7564C172.358 49.1515 172.421 49.4606 172.559 49.8183C173.292 50.5651 173.644 51.4902 173.65 52.6179C173.644 53.6838 173.215 54.4203 172.365 54.8275C171.493 55.7555 171.272 56.0929 170.846 57.3127C170.324 58.8436 168.709 59.6073 167.33 60.4177C167.268 60.4308 167.243 60.4683 167.219 60.5058C166.96 60.6578 166.763 60.7965 166.542 60.9728C163.957 62.8144 160.536 63.0926 159.294 59.7123ZM175.358 68.6086C172.736 66.0387 170.164 63.3939 167.702 60.6609C167.96 60.509 168.195 60.3945 168.49 60.2669C171.152 63.3444 173.74 66.5344 176.476 69.6605C176.054 69.3312 175.694 68.9886 175.358 68.6086Z" fill="#211915"/>
<path d="M166.917 43.9882C166.817 43.816 166.521 43.9436 166.621 44.1159C167.247 45.4341 166.5 46.658 166.111 47.9022C166.099 48.0014 166.211 48.0744 166.284 47.962C167.18 46.8354 167.542 45.3065 166.917 43.9882Z" fill="#211915"/>
<path d="M169.472 49.9919C169.267 51.0354 168.678 51.774 167.929 52.5145C167.818 52.6027 167.942 52.7374 168.066 52.7111C169.138 52.2888 169.676 51.1419 169.781 50.0872C169.767 49.8642 169.495 49.7933 169.472 49.9919Z" fill="#211915"/>
<path d="M162.512 51.7022C161.901 52.9615 160.705 53.4102 159.647 54.2166C159.561 54.2672 159.623 54.4152 159.747 54.3888C161.054 54.0131 162.26 53.143 162.735 51.8481C162.796 51.6739 162.548 51.5654 162.512 51.7022Z" fill="#211915"/>
<path d="M165.104 55.5365C164.797 55.9245 164.453 56.2882 164.059 56.5658C163.727 56.8302 163.283 57.0216 162.926 57.3235C162.816 57.4116 162.903 57.5221 163.026 57.4958C163.965 57.3601 164.837 56.4322 165.401 55.7311C165.585 55.5305 165.251 55.3116 165.104 55.5365Z" fill="#211915"/>
<path d="M168.46 56.8207C167.893 57.1996 167.451 57.7132 166.898 58.1539C166.787 58.242 166.911 58.3768 167.059 58.313C167.626 57.9341 168.216 57.5178 168.621 56.9798C168.633 56.8806 168.546 56.7701 168.46 56.8207Z" fill="#211915"/>
<path d="M152.222 30.1547C152.273 30.5631 152.288 30.9471 152.216 31.3817C152.156 31.7171 151.973 32.0788 151.975 32.401C152 32.5246 152.112 32.5976 152.222 32.5094C152.862 32.0181 152.793 30.7425 152.691 30.0869C152.627 29.7779 152.134 29.8832 152.222 30.1547Z" fill="#211915"/>
<path d="M155.436 32.6305C155.302 33.0783 155.033 33.4906 154.998 33.9496C154.986 34.0489 155.098 34.1219 155.209 34.0337C155.59 33.6944 155.748 33.2091 155.943 32.7481C156.053 32.4989 155.533 32.3194 155.436 32.6305Z" fill="#211915"/>
<path d="M154.256 40.3662C154.207 40.4412 154.269 40.5891 154.38 40.501C155.033 40.0715 155.35 39.423 155.581 38.6642C155.678 38.3531 155.158 38.1737 155.061 38.4848C154.879 39.1687 154.549 39.7553 154.256 40.3662Z" fill="#211915"/>
<path d="M150.192 38.4587C150.119 38.5712 150.267 38.6685 150.354 38.6178C151.093 38.2988 151.446 37.3525 151.615 36.6068C151.688 36.3332 151.267 36.165 151.17 36.476C151.061 36.8864 150.914 37.2724 150.694 37.6097C150.56 37.8965 150.351 38.1345 150.192 38.4587Z" fill="#211915"/>
<path d="M146.014 38.1886C145.113 38.5097 144.326 39.0648 143.363 39.2379C143.116 39.2906 143.192 39.6614 143.439 39.6088C144.402 39.4356 145.537 39.1612 146.212 38.372C146.286 38.2596 146.137 38.1623 146.014 38.1886Z" fill="#211915"/>
<path d="M149.631 41.9978C148.743 42.3806 147.956 42.9358 146.993 43.1089C146.746 43.1615 146.847 43.4949 147.069 43.4797C148.069 43.3309 149.167 43.0322 149.793 42.1569C149.866 42.0444 149.717 41.9471 149.631 41.9978Z" fill="#211915"/>
<path d="M137.137 17.5655C136.987 17.3071 136.643 17.5097 136.731 17.7813C137.006 18.3355 137.144 18.8543 137.148 19.4987C137.151 19.982 137.03 20.4916 137.057 20.9375C137.083 21.0611 137.243 21.0591 137.292 20.9841C138.041 20.0825 137.612 18.4643 137.137 17.5655Z" fill="#211915"/>
<path d="M141.128 19.7465C141.183 20.6381 140.902 21.3109 140.684 22.1315C140.648 22.2683 140.797 22.3656 140.908 22.2775C141.522 21.6625 141.689 20.5946 141.647 19.7648C141.646 19.4426 141.127 19.4243 141.128 19.7465Z" fill="#211915"/>
<path d="M133.369 24.3048C133.023 24.3463 132.703 24.5114 132.357 24.5529C131.95 24.6075 131.591 24.5872 131.245 24.4676C130.972 24.3967 130.802 24.8202 131.111 24.9154C131.866 25.1415 132.979 25.2268 133.519 24.5632C133.592 24.4507 133.554 24.2653 133.369 24.3048Z" fill="#211915"/>
<path d="M134.936 28.3255C134.158 28.4591 133.369 28.692 132.541 28.7395C132.257 28.7678 132.247 29.1893 132.507 29.1985C133.372 29.1753 134.273 29.0154 135.011 28.5352C135.06 28.4602 135.022 28.2748 134.936 28.3255Z" fill="#211915"/>
<path d="M138.788 27.633C139.341 27.1923 139.881 26.5287 139.889 25.785C139.889 25.6239 139.691 25.6016 139.617 25.7141C139.25 26.2763 138.944 26.8255 138.452 27.253C138.243 27.491 138.542 27.8467 138.788 27.633Z" fill="#211915"/>
<path d="M137.839 23.6417C137.655 24.0034 137.435 24.3408 137.35 24.7136C137.338 24.8129 137.438 24.9852 137.549 24.8971C137.918 24.657 138.126 24.2578 138.31 23.8961C138.456 23.5101 137.997 23.3175 137.839 23.6417Z" fill="#211915"/>
</g>
<defs>
<clipPath id="clip0">
<rect x="0.555664" y="17.0074" width="74.3595" height="71.4995" transform="rotate(-3.29302 0.555664 17.0074)" fill="white"/>
</clipPath>
<clipPath id="clip1">
<rect x="48.0144" y="26.3573" width="97.9544" height="76.5045" fill="white"/>
</clipPath>
<clipPath id="clip2">
<rect x="116.997" y="0.119019" width="97.4826" height="28.393" transform="rotate(33.1728 116.997 0.119019)" fill="white"/>
</clipPath>
</defs>
</svg>
