<svg width="197" height="111" viewBox="0 0 197 111" fill="none" xmlns="http://www.w3.org/2000/svg">
<path opacity="0.2" d="M78.9784 81.037C79.0022 81.065 79.0022 81.065 79.0539 81.0697C79.6069 81.3266 80.2039 81.3556 80.805 81.3334C82.5007 81.3087 84.2049 80.8467 85.8412 80.5846C87.1352 80.3684 88.417 80.3057 89.7303 80.5035C90.1163 80.5647 90.9279 80.8453 91.3301 80.7018C91.7323 80.5584 91.5299 80.1534 91.6099 79.8C91.7215 79.7072 91.7575 79.5817 91.7656 79.4794C91.7737 79.377 91.7818 79.2747 91.766 79.1445C92.1322 79.1265 92.4985 79.1086 92.8606 79.1418C96.7335 79.2653 99.9707 81.4947 103.101 83.4308C106.43 85.4882 109.822 87.7318 113.454 89.2502C116.506 90.535 122.961 91.6168 125.833 89.5616C126.439 89.1534 126.725 89.154 126.757 89.4145C125.656 90.8079 124.29 91.9449 122.899 93.054C121.633 93.5819 120.295 94.0259 118.973 94.2653C117.743 94.3328 116.473 94.242 115.192 93.9699C114.81 93.8575 114.452 93.7731 114.042 93.684C113.99 93.6793 113.938 93.6745 113.914 93.6466C111.364 92.9488 108.854 91.7394 106.559 90.4467C105.044 89.1741 103.636 88.1947 101.89 87.21C99.1215 85.6421 95.805 83.0963 92.4892 83.1785C92.3061 83.1874 92.1707 83.2523 92.083 83.3731C92.0551 83.3963 92.0312 83.3683 92.0033 83.3915C91.5894 83.3536 91.1674 83.4179 90.7692 83.5102C90.6379 83.5239 90.5344 83.5144 90.403 83.5281C90.5627 83.1563 90.7224 82.7845 90.9298 82.4686C91.0495 82.2735 91.0459 81.9897 90.8789 81.7941C90.6405 81.5145 90.326 81.5372 90.0313 81.639C88.9169 81.5625 87.7345 81.6859 86.5679 81.9395C86.4446 81.8509 86.3173 81.8135 86.158 81.8504C84.4502 82.0286 82.786 82.3139 81.0701 82.5944C80.9945 82.5617 80.9189 82.529 80.8154 82.5195C80.2224 82.4394 79.6177 82.1778 78.9969 82.1208C78.9213 82.0881 78.8736 82.0322 78.8218 82.0274C78.6747 81.9109 78.4759 81.7896 78.3287 81.673C78.3049 81.6451 78.281 81.6171 78.2572 81.5892C78.1897 81.4542 78.0705 81.3144 78.003 81.1794C78.1901 81.1193 77.6268 79.6763 77.786 79.6394C78.4574 80.7058 78.8231 81.0228 78.9784 81.037Z" fill="#211915"/>
<path d="M80.2207 73.7748C81.7674 73.0143 83.3191 74.4974 84.4813 75.3002C85.5917 76.0983 86.73 76.8731 87.9642 77.4247C89.0989 77.9155 90.2818 78.1272 91.4606 78.3901C91.4291 78.1293 91.4255 77.8454 91.4178 77.6126C91.0355 77.5002 91.1598 76.9186 91.5222 76.9518C91.5781 76.9054 91.6578 76.8869 91.7055 76.9428C95.115 77.3588 98.1443 75.9866 101.305 74.9358C104.198 73.9636 107.139 73.0474 110.132 72.4711C115.216 71.4937 122.348 71.0135 126.118 75.4333C129.651 79.5734 129.501 87.0629 125.951 91.0688C122.256 95.242 115.744 94.825 110.974 92.8145C107.617 91.3979 104.577 89.2882 101.412 87.425C98.972 85.9635 96.1063 83.9473 93.1669 83.5229C93.0075 83.5598 92.8202 83.62 92.6888 83.6337C92.5852 83.6242 92.5654 83.5451 92.5735 83.4427C91.8724 83.4041 91.1632 83.468 90.446 83.6342C90.2866 83.6712 90.2231 83.4849 90.3347 83.392C90.2312 83.3825 90.1357 83.2706 90.2235 83.1497C90.4909 82.7359 90.7066 82.3174 90.8984 81.8709C88.2652 81.8613 85.7311 82.2476 83.0736 82.5453C81.4959 82.7099 79.2247 83.0688 78.0314 81.6701C76.6711 80.0756 77.8768 78.0204 79.5504 77.6325C78.6715 76.5463 78.8096 74.4704 80.2207 73.7748ZM90.4982 83.3038C91.3631 82.9191 92.2317 82.8183 93.1358 82.927C93.2993 82.8389 93.411 82.746 93.5744 82.6579C93.9612 82.3839 94.3759 82.0868 94.7388 81.7849C94.9621 81.5991 95.1967 81.93 95.0252 82.1206C94.7419 82.404 94.3989 82.7851 94.008 83.1102C94.5457 83.2369 95.1072 83.3915 95.6367 83.6206C96.3026 83.1144 97.0798 82.8506 97.6543 82.1813C97.8258 81.9908 98.1482 82.2009 98.0006 82.4194C97.5377 82.9957 96.9114 83.6602 96.1424 83.8217C96.9745 84.1817 97.8025 84.5928 98.6306 85.004C99.424 84.5353 100.205 84.2202 100.859 83.5325C101.059 83.3188 101.397 83.6592 101.225 83.8497C100.683 84.4446 99.981 85.0763 99.1601 85.2331C99.809 85.602 100.434 85.943 101.055 86.3351C101.565 86.1499 102.091 86.095 102.577 85.8818C103.143 85.6501 103.666 85.3112 104.092 84.8605C104.236 84.6932 104.503 84.9497 104.359 85.117C103.776 85.8887 102.692 86.7431 101.652 86.6993C102.201 87.0076 102.747 87.367 103.268 87.6985C103.642 87.9133 103.989 88.1513 104.387 88.3941C104.845 88.2041 105.347 88.1213 105.782 87.9033C106.296 87.6668 106.79 87.3512 107.185 86.9749C107.352 86.8356 107.619 87.0921 107.452 87.2314C106.849 87.9239 105.88 88.6343 104.884 88.6976C105.804 89.2719 106.751 89.8229 107.675 90.346C108.587 90.0172 109.381 89.5485 109.991 88.7536C110.135 88.5863 110.382 88.7637 110.262 88.9589C109.783 89.7401 109.053 90.3951 108.2 90.6262C109.175 91.154 110.155 91.6307 111.138 92.0561C112.171 91.532 113.191 91.1615 114.017 90.2832C114.16 90.1159 114.427 90.3725 114.283 90.5398C113.621 91.3299 112.728 92.073 111.668 92.2851C112.452 92.5892 113.189 92.8372 113.981 93.0389C115.074 92.4171 116.13 91.921 117.063 91.0011C117.203 90.885 117.422 91.0856 117.282 91.2017C116.596 91.9638 115.75 92.7629 114.75 93.2125C115.467 93.3814 116.192 93.448 116.917 93.5145C118.395 92.954 119.727 92.2768 120.911 91.1479C120.995 91.0782 121.09 91.1901 121.059 91.2645C120.384 92.2082 119.407 93.021 118.295 93.5636C119.131 93.5372 120.028 93.4132 120.881 93.182C127.775 91.4166 130.014 81.9016 125.938 76.3966C122.12 71.2505 113.869 72.3756 108.501 73.6365C105.205 74.417 101.985 75.5654 98.7928 76.6907C96.6207 77.4454 94.3171 78.2138 92.0072 77.744C92.1536 78.531 92.0528 79.4757 91.9204 80.1598C91.8322 80.6158 91.6881 81.1182 91.4963 81.5648C91.5202 81.5927 91.5481 81.5695 91.572 81.5975C91.7512 81.6397 91.6792 81.8909 91.5238 81.8767C91.472 81.8719 91.4203 81.8672 91.3923 81.8904C91.1447 82.3834 90.8732 82.8483 90.4982 83.3038ZM78.256 80.4789C78.7951 82.5653 82.0028 81.9056 83.5288 81.7362C86.003 81.4475 88.5772 80.8844 91.0623 81.4476C91.2302 80.9731 91.3743 80.4706 91.4665 79.9634C91.5228 79.5818 91.4994 79.2187 91.5039 78.8323C88.958 79.0371 86.5179 77.5756 84.4601 76.2265C83.3696 75.5076 81.4162 73.4978 80.1915 74.8035C79.0825 75.9652 80.0926 77.3728 81.3349 77.822C81.538 77.8922 81.5137 78.1994 81.3025 78.2316C81.0395 78.259 80.8045 78.2632 80.5974 78.2442C79.2826 78.3814 77.816 78.7883 78.256 80.4789Z" fill="black"/>
<path opacity="0.2" d="M143.348 70.8473C143.503 70.1825 144.176 69.4666 144.9 69.3643C154.315 68.1371 163.523 66.0916 172.887 64.4041C174.542 64.0972 176.146 63.995 177.698 64.6597C179.25 65.3245 180.388 66.603 182.199 65.6825C183.595 65.0177 183.699 63.3302 185.044 62.6143C186.441 61.8472 188.613 62.1029 190.217 62.1029C190.424 61.7449 190.734 61.5404 191.097 61.4892C191.976 60.7733 193.683 61.4381 193.735 62.7677C193.89 66.2961 194.2 69.8246 194.718 73.353C195.235 74.836 195.856 76.2678 196.477 77.6997C196.994 78.8758 196.27 79.9497 195.028 80.052C193.942 80.1543 192.752 80.1031 191.562 80.052C191.355 80.4611 190.993 80.7679 190.424 80.9213C188.51 81.2793 185.354 82.5577 183.285 81.8418C182.457 81.8418 181.94 81.3304 181.785 80.6145C180.854 79.3361 180.491 78.0065 178.577 77.5974C176.146 77.0349 174.128 78.1599 173.456 80.3588C172.473 83.427 170.3 83.0179 167.403 83.2736C163.368 83.6316 159.333 84.2963 155.402 85.2168C154.108 85.5236 152.867 84.5009 152.867 83.1713C152.867 81.2281 152.505 79.2338 151.211 77.7508C150.021 76.3701 148.728 76.2167 147.073 75.8587C144.486 75.3985 142.727 73.5576 143.348 70.8473ZM172.783 74.6826C172.68 74.5803 172.576 74.5292 172.525 74.4269C172.37 74.5292 172.163 74.6315 171.956 74.7337C171.956 74.8871 172.007 75.0406 172.007 75.194C172.266 74.9894 172.525 74.836 172.783 74.6826Z" fill="#979391"/>
<path opacity="0.2" d="M180.853 66.7564C180.078 66.0916 179.302 65.478 178.422 64.9155C178.267 64.6598 177.956 64.4552 177.543 64.5064C171.283 65.3245 165.179 66.9609 158.971 68.1882C153.591 69.2621 148.159 70.0291 142.727 70.8984C142.52 70.3359 142.365 69.7734 142.158 69.2109C147.59 67.5746 153.125 67.0121 158.712 65.8359C164.868 64.5575 171.18 63.9439 177.232 62.4098C177.646 62.3075 177.801 62.0007 177.801 61.6427C178.215 61.5916 178.629 61.5404 178.991 61.4382C179.095 60.7734 179.302 60.1086 179.871 59.6484C180.44 59.137 181.164 58.8302 181.94 58.8302C182.664 58.8302 183.44 59.1881 183.957 59.6995C184.164 59.9041 184.371 60.2109 184.526 60.5177C184.733 60.4666 184.94 60.4666 185.199 60.4154C185.251 60.8245 185.613 61.2336 186.182 61.1313C187.734 60.8245 189.389 60.7222 190.993 60.7222C191.924 60.7222 192.855 60.6711 193.735 60.3132C193.786 60.3643 193.89 60.4154 193.942 60.4666C193.838 60.5688 193.786 60.6711 193.735 60.8245C193.683 61.2336 193.631 61.5916 193.683 62.0007C192.752 62.2563 191.769 62.4609 190.786 62.6654C189.441 62.87 188.096 63.0745 186.751 63.1768C186.699 63.1768 186.647 63.1768 186.596 63.2279C186.13 63.0234 185.458 63.2279 185.509 63.8927C185.613 64.6598 185.147 65.4268 184.578 65.9893C183.388 66.1939 182.25 66.4496 181.06 66.6541C181.009 66.7052 180.905 66.7052 180.853 66.7564Z" fill="#211915"/>
<path opacity="0.2" d="M183.595 48.6537C183.854 48.6537 184.061 48.7048 184.32 48.8071C184.578 48.7048 184.889 48.6537 185.199 48.6537C185.82 48.6537 186.492 48.9605 186.906 49.3696C187.32 49.7787 187.631 50.4947 187.579 51.0572C187.475 52.3867 186.492 53.4095 185.096 53.4095C184.734 53.4095 184.423 53.3072 184.061 53.1538C183.906 53.205 183.699 53.205 183.492 53.205C182.923 53.205 182.25 52.8981 181.888 52.489C181.474 52.0799 181.216 51.4151 181.268 50.8526C181.319 49.6765 182.302 48.6537 183.595 48.6537Z" fill="#211915"/>
<path opacity="0.2" d="M173.818 56.3244C174.956 57.5005 172.732 58.4721 171.749 58.9323C170.766 58.4721 170.352 57.296 170.507 56.2733C171.49 55.9665 173.094 55.5574 173.818 56.3244Z" fill="#211915"/>
<path opacity="0.2" d="M189.493 71.7678C192.7 71.7678 192.597 76.6771 189.39 76.6771C186.182 76.7282 186.286 71.7678 189.493 71.7678Z" fill="#211915"/>
<path opacity="0.2" d="M161.972 71.1541C165.593 71.1541 165.49 76.6769 161.869 76.6769C158.247 76.6769 158.351 71.1541 161.972 71.1541Z" fill="#211915"/>
<path opacity="0.2" d="M159.023 59.9038C159.643 59.9038 160.213 60.2618 160.368 60.8754C160.523 61.5402 160.006 62.205 159.385 62.4096C159.126 62.563 158.816 62.6141 158.505 62.6141C157.988 62.563 157.471 62.205 157.316 61.6936C156.85 60.6197 158.04 59.9038 159.023 59.9038Z" fill="#211915"/>
<path opacity="0.2" d="M150.487 64.5575C151.315 64.5575 151.315 65.8358 150.487 65.8358C149.608 65.887 149.659 64.5575 150.487 64.5575Z" fill="#211915"/>
<path opacity="0.2" d="M148.573 71.103C148.832 70.6427 149.349 70.387 149.866 70.5916C150.177 70.6938 150.384 70.9495 150.384 71.3075C150.59 71.5632 150.487 72.0235 150.177 72.1258C150.125 72.2281 150.021 72.3304 149.97 72.4326C149.711 72.6372 149.297 72.7395 149.039 72.5349C148.521 72.1769 148.263 71.6655 148.573 71.103Z" fill="#211915"/>
<path opacity="0.2" d="M171.542 68.7509C172.37 68.7509 172.37 70.0292 171.542 70.0292C170.663 70.0292 170.663 68.7509 171.542 68.7509Z" fill="#211915"/>
<path opacity="0.2" d="M165.179 60.5176C165.955 60.5176 165.955 61.7448 165.179 61.7448C164.403 61.7448 164.403 60.5176 165.179 60.5176Z" fill="#211915"/>
<path opacity="0.2" d="M178.94 52.6423C180.233 52.6423 180.181 54.6367 178.888 54.6367C177.595 54.6367 177.647 52.6423 178.94 52.6423Z" fill="#211915"/>
<path opacity="0.2" d="M188.614 56.171C188.665 56.171 188.665 56.171 188.614 56.171C188.872 56.3244 188.976 56.5802 188.924 56.7847V56.8359C188.821 57.4496 187.941 57.3984 187.734 56.887C187.527 56.3244 188.096 55.9153 188.614 56.171Z" fill="#211915"/>
<path opacity="0.2" d="M168.697 78.0576C169.111 78.0576 169.473 78.4667 169.473 78.8759C169.473 79.3361 169.111 79.643 168.645 79.643C168.231 79.643 167.869 79.2338 167.869 78.8247C167.921 78.4156 168.283 78.0576 168.697 78.0576Z" fill="#211915"/>
<path opacity="0.2" d="M156.333 80.2053C157.264 80.2053 157.264 81.6883 156.281 81.6883C155.35 81.6883 155.35 80.2053 156.333 80.2053Z" fill="#211915"/>
<path opacity="0.2" d="M180.75 71.7678C181.164 71.7678 181.474 72.1258 181.474 72.4837C181.474 72.8928 181.112 73.1997 180.75 73.1997C180.336 73.1997 180.026 72.8417 180.026 72.4837C180.026 72.0746 180.388 71.7678 180.75 71.7678Z" fill="#211915"/>
<path d="M186.803 53.2561C185.303 53.9209 183.027 53.5118 181.992 52.2334C181.319 51.4152 180.906 48.9095 182.613 49.0629C182.664 49.0629 182.716 49.1141 182.768 49.1141C184.268 48.2448 186.596 47.9891 187.838 49.5743C188.769 50.8016 188.2 52.6425 186.803 53.2561ZM186.596 49.4209C185.51 48.8584 183.958 48.9095 182.82 49.3698C182.82 49.4209 182.82 49.472 182.768 49.472C180.388 51.5686 184.889 53.6652 186.751 52.5402C188.045 51.7732 187.786 50.0345 186.596 49.4209Z" fill="#211915"/>
<path d="M141.641 68.3416C144.021 65.8359 147.228 64.0972 150.125 62.2563C153.488 60.1596 156.954 57.705 160.575 56.0686C160.627 55.9664 160.73 55.8641 160.885 55.9152C161.403 56.2221 161.765 56.6312 162.23 56.938C163.058 57.3982 164.041 57.6539 164.972 57.5005C167.093 57.1425 167.818 55.3016 167.042 53.4607C166.886 53.3584 166.783 53.0516 167.042 52.8981C172.318 49.9833 178.009 47.0685 183.647 44.8184C183.492 44.7162 183.699 44.5116 183.854 44.5628C183.906 44.6139 183.958 44.6139 184.061 44.665C184.113 44.665 184.165 44.7162 184.217 44.7673C189.545 47.7844 193.477 54.4323 194.046 60.3642C194.046 60.4153 194.046 60.4664 194.046 60.4664C194.149 60.4664 194.253 60.5176 194.201 60.6199C193.89 64.0461 193.839 67.4723 194.563 70.8473C195.184 73.711 196.58 76.319 196.994 79.1827C197.046 79.4384 196.736 79.5918 196.477 79.4895C191.769 80.5123 187.165 81.7907 182.458 82.7623C182.147 82.8134 181.992 82.5066 182.096 82.3021C182.096 82.3021 182.096 82.3021 182.096 82.2509C181.32 80.1032 179.975 78.2622 177.44 78.2622C174.75 78.2622 173.146 80.3588 173.042 82.8646C173.042 83.2225 172.68 83.2737 172.473 83.0691C168.852 83.3759 165.334 84.3987 161.713 84.8589C158.661 85.2169 155.557 85.2169 152.453 85.3192C152.246 85.3192 152.143 85.2169 152.143 85.0635C152.143 85.0123 152.091 84.9612 152.143 84.8589C153.488 80.1543 149.97 74.7337 144.59 76.5747C144.435 76.6258 144.228 76.5235 144.228 76.3701C143.607 73.8133 142.624 71.4098 141.745 68.9041C141.693 68.8018 141.745 68.7507 141.796 68.6995C141.589 68.6484 141.486 68.495 141.641 68.3416ZM183.958 45.1253C178.836 48.2446 173.094 51.0061 167.559 53.4607C168.645 54.9948 167.766 57.1425 166.11 57.9096C164.558 58.6255 161.299 58.2164 160.627 56.4266C157.833 58.7278 154.471 60.5687 151.367 62.4608C148.108 64.4552 145.055 66.6029 141.9 68.7507L141.952 68.8018C142.003 68.853 142.003 68.9041 142.003 68.9552C147.901 67.2677 154.16 66.3984 160.161 65.1711C165.903 63.9949 171.801 62.5119 177.647 62.2563C177.75 61.1312 178.267 60.1085 179.199 59.3926C180.699 58.2164 183.389 58.4721 184.837 59.7505C184.993 59.6994 185.148 59.6994 185.251 59.8528C185.51 60.313 185.717 60.8244 185.872 61.3358C188.252 60.6199 191.045 60.5176 193.477 60.313C192.804 57.2448 191.873 54.3811 190.166 51.722C188.562 49.0117 186.338 47.1708 183.958 45.1253ZM184.682 60.1596C183.234 59.2903 181.061 58.9323 179.716 59.9551C178.164 61.1312 178.009 63.4324 178.992 64.9665C179.975 66.5518 182.251 67.1143 183.854 66.0915C185.975 64.7108 185.562 62.0517 184.682 60.1596ZM144.538 75.3474C145.107 75.961 146.504 75.5008 147.332 75.6031C148.004 75.7054 148.677 75.8588 149.298 76.1656C152.608 77.6997 153.591 81.3816 152.815 84.6544C156.333 84.501 159.903 84.5521 163.369 83.9896C166.369 83.4782 169.266 82.66 172.318 82.7623C171.646 76.319 182.406 75.8588 182.354 82.1998C186.907 80.9725 191.562 79.7452 196.322 79.3872C195.856 75.961 194.097 72.8417 193.58 69.3643C193.166 66.4495 193.218 63.5347 193.89 60.671C193.787 60.671 193.735 60.671 193.683 60.5687C191.252 61.1312 188.614 61.8472 186.131 61.8472C186.441 63.5858 186.027 65.4268 184.527 66.5007C182.665 67.8302 179.975 67.2677 178.681 65.4779C178.06 64.6597 177.802 63.5858 177.802 62.5631C171.904 64.1483 165.697 64.8643 159.747 66.0915C154.057 67.2166 148.315 68.8018 142.521 69.5177C142.883 70.1825 143.193 70.8984 143.504 71.6655C143.659 72.3814 143.969 74.7849 144.538 75.3474Z" fill="#211915"/>
<path d="M174.336 57.3982C173.767 59.6993 169.37 59.2391 170.352 56.6822C170.766 55.5572 172.215 54.7902 173.405 55.1481C174.129 55.4038 175.319 56.7845 174.336 57.3982ZM173.249 55.8129C172.37 55.4038 171.232 55.9152 170.766 56.7334C170.508 57.1936 170.508 57.8073 170.922 58.2164C171.284 58.5743 171.904 58.5743 172.37 58.472C173.094 58.3186 173.715 57.9607 174.077 57.347C173.819 56.7334 173.922 56.1197 173.249 55.8129Z" fill="#211915"/>
<path d="M159.334 63.0745C158.454 63.3813 157.161 63.1767 156.747 62.2051C156.385 61.2846 157.161 59.9551 158.196 60.0573C158.196 60.0573 158.196 60.0573 158.247 60.0573C158.247 60.0573 158.247 60.0573 158.299 60.0573C159.23 59.6994 160.523 59.4437 160.886 60.671C161.196 61.7449 160.368 62.7165 159.334 63.0745ZM160.368 60.8244C160.11 60.0573 159.023 60.1596 158.351 60.313C158.351 60.3642 158.299 60.3642 158.299 60.4153C158.04 60.6198 157.678 60.671 157.42 60.9267C157.057 61.2846 156.954 61.8983 157.316 62.3074C157.73 62.8188 158.609 62.8188 159.178 62.6654C159.954 62.3585 160.627 61.6426 160.368 60.8244Z" fill="#211915"/>
<path d="M160.73 71.1541C160.885 71.1029 161.04 71.2563 161.04 71.4098C162.437 70.8473 164.041 71.4609 164.713 72.8416C165.334 74.12 165.076 76.0121 163.627 76.5234C162.075 77.1371 160.109 76.4723 159.333 74.9893C158.609 73.6086 159.075 71.512 160.73 71.1541ZM159.799 74.5291C160.316 75.7052 161.765 76.37 163.006 76.0632C164.3 75.7564 164.713 74.4268 164.3 73.2507C163.834 71.9211 162.334 71.4098 160.989 71.5632C160.937 71.5632 160.885 71.5632 160.885 71.512C159.902 72.3302 159.23 73.2507 159.799 74.5291Z" fill="#211915"/>
<path d="M191.2 72.0745C191.252 72.0233 191.355 71.9722 191.459 72.0233C193.114 72.8416 193.114 75.6541 192.079 76.9326C191.045 78.211 189.027 78.7735 187.63 77.7508C186.13 76.6769 185.975 74.1711 187.01 72.7393C187.941 71.4608 189.907 71.0517 191.2 72.0745ZM188.251 77.3417C189.441 78.0065 191.096 77.3417 191.717 76.2678C192.597 74.8359 191.769 73.762 191.2 72.4836C189.907 71.8188 188.199 72.1256 187.423 73.4552C186.751 74.6314 186.958 76.6257 188.251 77.3417Z" fill="#211915"/>
<path d="M171.128 67.9835C171.387 67.8813 171.852 67.8301 171.956 68.1881C171.956 68.1881 171.956 68.1881 171.956 68.2392H172.007C172.525 68.4949 172.628 69.1597 172.421 69.6711C172.163 70.2336 171.49 70.387 170.973 70.1313C170.404 69.8756 170.145 69.2108 170.456 68.6483C170.559 68.3415 170.818 68.0858 171.128 67.9835ZM171.076 69.7734C171.49 69.9779 172.007 69.9268 172.163 69.4665C172.318 69.0574 172.163 68.5972 171.852 68.3415V68.2904C171.749 68.3926 171.594 68.3415 171.438 68.3415C171.231 68.3415 171.025 68.4438 170.869 68.5972C170.507 69.0063 170.662 69.5688 171.076 69.7734Z" fill="#211915"/>
<path d="M156.85 79.7452C156.902 79.7963 156.954 79.8986 156.902 79.9497C156.799 80.3077 156.385 79.9497 156.178 79.9497C155.557 79.9497 155.35 80.7168 155.712 81.1259C156.023 81.4839 156.592 81.535 156.902 81.1771C157.161 80.9214 157.213 80.3589 157.057 80.052C157.057 80.0009 157.109 79.9497 157.161 80.0009C157.626 80.3589 157.575 80.9725 157.213 81.4328C156.85 81.893 156.126 81.9442 155.661 81.6373C155.143 81.2793 154.988 80.6145 155.298 80.1032C155.557 79.4895 156.385 79.2849 156.85 79.7452Z" fill="#211915"/>
<path d="M148.831 70.4894C149.09 70.2849 149.452 70.1826 149.763 70.2849C150.021 70.336 150.383 70.5406 150.332 70.8474C150.332 70.8985 150.28 70.9497 150.228 70.9497C149.918 71.0008 149.607 70.7451 149.297 70.8985C148.831 71.0519 148.78 71.7167 148.987 72.0747C149.194 72.4327 149.763 72.6372 150.125 72.3815C150.487 72.177 150.59 71.6656 150.435 71.3076C150.383 71.2565 150.487 71.1542 150.539 71.2054C150.952 71.6656 150.849 72.3815 150.383 72.7395C149.814 73.1486 149.038 72.944 148.625 72.4327C148.211 71.819 148.262 70.9497 148.831 70.4894Z" fill="#211915"/>
<path d="M181.578 72.1257C181.733 72.2791 181.837 72.7393 181.474 72.7393C181.319 72.7393 181.216 72.5348 181.112 72.4325C180.957 72.2791 180.647 72.1768 180.44 72.228C179.923 72.3302 179.716 73.0973 180.078 73.5064C180.543 74.0177 181.578 73.6598 181.474 72.9439C181.474 72.8927 181.578 72.8416 181.578 72.9439C181.733 73.7109 180.957 74.2223 180.285 74.0177C179.56 73.8132 179.25 72.995 179.612 72.3302C179.974 71.5121 181.061 71.4609 181.578 72.1257Z" fill="#211915"/>
<path d="M187.941 57.5004C187.475 57.1425 187.217 56.4265 187.579 55.864C187.889 55.4038 188.924 55.2504 189.027 55.9663C189.338 56.0174 189.545 56.1708 189.648 56.5288C189.752 56.8356 189.648 57.1424 189.493 57.347C189.131 57.9095 188.406 57.9095 187.941 57.5004ZM188.872 56.1708C188.872 56.1708 188.872 56.1197 188.872 56.1708C188.51 56.0174 188.148 55.8129 187.889 56.1708C187.63 56.4777 187.889 56.9379 188.148 57.1424C188.406 57.347 188.769 57.3981 189.027 57.1424C189.286 56.8356 189.131 56.4265 188.872 56.1708Z" fill="#211915"/>
<path d="M178.008 54.2789C177.543 53.9209 177.491 53.205 178.008 52.847C178.215 52.6936 178.525 52.6425 178.784 52.7447C178.991 52.7959 179.25 53.0004 179.198 53.205C179.56 53.3584 179.715 53.8187 179.508 54.1766C179.198 54.688 178.422 54.5857 178.008 54.2789ZM179.043 53.3584C179.043 53.3584 178.991 53.3584 179.043 53.3584C178.784 53.3073 178.629 53.1027 178.422 53.1539C178.06 53.205 178.008 53.6652 178.215 53.8698C178.422 54.0743 178.888 54.2278 179.146 54.0232C179.301 53.8698 179.301 53.4607 179.043 53.3584Z" fill="#211915"/>
<path d="M164.61 61.7962C164.145 61.2848 164.455 60.4155 165.128 60.2621C165.231 60.2621 165.334 60.2621 165.386 60.3132C166.059 60.1087 166.421 61.1314 166.162 61.5916C165.904 62.2053 165.024 62.2564 164.61 61.7962ZM165.386 60.6712L165.335 60.7223C165.179 60.7734 165.076 60.8246 164.972 60.978C164.869 61.1314 164.817 61.2848 164.921 61.4382C165.076 61.745 165.593 61.745 165.748 61.4894C165.904 61.1314 165.645 60.8246 165.386 60.6712Z" fill="#211915"/>
<path d="M150.642 66.0404C150.125 66.0404 149.556 65.6824 149.452 65.171C149.401 64.8131 149.659 64.046 150.125 64.2506C150.177 64.2506 150.228 64.3528 150.177 64.404C150.021 64.6085 149.763 64.7108 149.763 65.0176C149.763 65.4267 150.228 65.6824 150.59 65.6824C150.953 65.6313 151.211 65.3245 151.004 64.9665C150.849 64.7619 150.539 64.6597 150.332 64.5574C150.177 64.5062 150.28 64.2506 150.435 64.2506C150.901 64.2506 151.522 64.5062 151.573 65.0688C151.677 65.5801 151.159 66.0404 150.642 66.0404Z" fill="#211915"/>
<path d="M168.231 77.8532C168.334 77.8532 168.438 77.9044 168.438 78.0067C168.489 78.2112 168.231 78.2623 168.127 78.3646C167.869 78.6203 168.127 79.0806 168.386 79.234C168.696 79.4385 169.11 79.3874 169.317 79.0294C169.524 78.6203 169.162 78.2112 168.748 78.0578C168.645 78.0066 168.645 77.8021 168.8 77.8532C169.317 77.9044 169.834 78.2112 169.834 78.8249C169.834 79.3363 169.369 79.7965 168.852 79.8476C168.283 79.8988 167.765 79.4897 167.61 78.9272C167.507 78.518 167.713 77.8532 168.231 77.8532Z" fill="#211915"/>
<g clip-path="url(#clip0)">
<path opacity="0.2" d="M102.506 28.2179C102.01 26.1445 101.514 24.0711 100.968 22.0483C100.869 21.5932 100.72 21.1381 100.571 20.683C100.671 20.1267 100.671 19.5704 100.423 19.0142C99.1326 15.98 97.0488 13.6032 94.3696 11.8332C93.8734 10.9736 93.4765 10.1139 92.9307 9.25418C90.7973 6.01772 87.7212 3.23638 84.0993 2.0227C80.4774 0.859595 76.2105 0.707886 72.4397 0.707886C68.8178 0.707886 65.2455 1.26415 62.0205 3.0341C60.284 3.99492 58.6963 5.2086 56.8606 6.06829C54.9752 6.92797 52.9906 7.43367 51.0556 8.09108C51.006 8.09108 51.006 8.14165 50.9564 8.14165C49.1702 7.83823 47.3841 7.33253 45.598 7.58538C43.4149 7.83823 41.2814 8.84962 39.6442 10.3667C37.9076 11.985 36.6672 14.21 36.2207 16.5868C35.6253 19.621 36.6672 22.4023 36.8657 25.386C36.9153 26.5491 37.7588 27.257 38.8999 27.3582C41.3311 27.5605 44.2584 26.903 46.3918 28.3696C48.1283 29.5832 48.426 31.3026 49.0214 33.1737C50.2618 37.0676 53.586 37.9778 57.1087 39.1915C61.0779 40.5569 65.0967 40.8603 69.2644 41.0626C74.077 41.3154 78.8897 41.5177 83.7023 41.4672C87.5723 41.4166 91.6407 41.1637 95.3123 39.8489C98.1403 38.8375 101.911 37.0676 103.052 34.0334C103.747 32.0612 103.003 30.1395 102.506 28.2179ZM43.1172 12.3895C42.8691 12.6424 42.5714 12.8952 42.3234 13.1986C42.2241 13.1986 42.1745 13.1986 42.0753 13.1986C42.373 12.8952 42.7203 12.6424 43.1172 12.3895ZM86.8281 36.9159C87.3739 36.8147 87.9196 36.7136 88.4654 36.6124C90.4996 36.2585 92.8811 35.9045 94.9153 35.0954C92.4346 36.2585 89.6561 36.7136 86.8281 36.9159ZM98.3884 33.022C98.0411 33.4771 97.148 33.9828 96.5526 34.2862C97.148 33.8817 97.7434 33.4771 98.1899 32.9209C98.438 32.668 98.5869 32.4152 98.7853 32.1117C98.7853 32.3646 98.6365 32.668 98.3884 33.022Z" fill="#979391"/>
<path opacity="0.2" d="M104.987 34.8425C104.441 35.1459 103.598 34.7414 103.846 34.0334V33.9828C103.648 33.8311 103.499 33.5783 103.648 33.2243C103.697 33.1231 103.697 33.0726 103.697 32.9714C103.449 33.0726 103.251 33.1737 103.003 33.3254C101.316 34.4885 100.224 36.2585 98.4876 37.371C96.6022 38.5847 94.4192 39.141 92.2361 39.4949C87.0761 40.3546 81.6185 40.1523 76.4089 40.2535C73.7793 40.3041 71.1993 40.3041 68.5697 40.2029C66.2378 40.1018 63.2609 40.4052 61.0282 39.5455C59.2421 38.8375 57.7536 37.5227 55.9675 36.7642C54.3798 36.8147 52.6433 36.4608 51.3037 35.6011C51.006 35.6011 50.7083 35.6011 50.4106 35.6516C50.3114 35.8539 50.1129 36.0056 49.8152 36.0056C49.6664 36.2585 49.4679 36.4608 49.1206 36.4608C46.6399 36.5113 42.4226 37.8261 39.6937 39.8489C39.148 40.3041 38.6022 40.8098 38.1061 41.366C37.9572 41.5683 37.8084 41.8212 37.6099 42.0234C37.6099 42.074 37.5603 42.074 37.5603 42.1246C37.5107 42.1751 37.4611 42.2257 37.4115 42.2763C37.4115 42.3268 37.3618 42.3269 37.3618 42.3774C37.3122 42.428 37.2626 42.4786 37.213 42.5291C37.1138 42.6808 36.9153 42.782 36.7665 42.8325C36.7665 42.8325 36.7665 42.8325 36.7665 42.8831C36.7665 42.8831 36.7168 42.8831 36.7168 42.8325C36.6672 42.8325 36.568 42.8325 36.5184 42.782C36.2703 42.6808 36.0222 42.6303 35.7742 42.5291C35.6749 42.5291 35.5757 42.4786 35.4765 42.4786C35.4765 42.4786 35.4765 42.4786 35.4268 42.4786C33.9384 41.9729 32.698 40.2535 32.1026 38.9892C31.6065 37.8767 31.2592 36.4102 31.2592 34.9942C31.0607 34.8931 30.8623 34.8425 30.6142 34.792C30.4653 36.8653 30.7134 38.9387 31.2096 41.012C31.408 41.6189 31.7553 42.2257 32.2019 42.8325C32.5492 43.1865 32.9461 43.5405 33.2934 43.8439C34.7322 44.7036 36.4688 44.7542 37.858 45.6139C37.9572 45.6645 38.0068 45.715 38.1061 45.7656C38.3045 45.5633 38.6022 45.5127 38.8503 45.5633C38.9991 45.6139 39.0984 45.6645 39.1976 45.7656C39.2968 45.8162 39.3464 45.9173 39.3961 46.0184C39.3961 45.361 39.5449 44.7036 39.793 43.9957C39.793 43.9451 39.8426 43.8945 39.8922 43.8439C41.083 40.4052 44.4072 37.9778 48.0787 37.725C48.2772 37.725 48.3764 37.7756 48.5252 37.8261C48.9221 37.7756 49.3687 37.725 49.7656 37.6744C49.8648 37.5733 50.0137 37.5733 50.2121 37.5733C50.5098 37.6239 50.8571 37.6744 51.1548 37.725C51.2541 37.725 51.3533 37.7756 51.4525 37.8261C51.7006 37.8767 51.8494 38.0284 51.9487 38.1801C53.1394 38.3824 54.231 38.787 55.2233 39.5961C56.6621 40.8098 57.5056 42.4786 57.8529 44.2991C58.1009 44.4508 58.2994 44.6025 58.5475 44.7542C58.349 44.8553 58.1506 45.007 57.9521 45.2093C57.9521 45.4116 58.0017 45.5633 58.0017 45.7656C58.0017 46.069 57.9025 46.2713 57.7536 46.3724C57.7536 46.6253 57.7536 46.8781 57.704 47.131C57.704 47.3838 57.704 47.6872 57.6544 47.9907C57.6048 48.2941 57.4559 48.5469 57.2079 48.6481C57.1086 48.8504 57.0094 49.0526 56.8606 49.2549C56.8606 49.3055 56.8606 49.3055 56.8109 49.3561C56.5629 49.8112 56.2652 50.2157 55.9179 50.5697C55.4217 51.3283 54.6775 51.9351 53.8837 52.3397C53.0898 52.9971 52.1967 53.5028 51.1052 53.7556C51.0556 53.7556 50.9564 53.7556 50.9067 53.7556C50.8075 53.8062 50.6587 53.8568 50.5594 53.9579C50.4602 54.1096 50.3114 54.2613 50.0633 54.2613C49.8648 54.3119 49.6664 54.3119 49.4679 54.3625C48.8229 54.5647 48.1283 54.7164 47.4337 54.7164C47.1856 54.9693 46.8879 55.2221 46.6895 55.5256C48.7733 55.8796 50.8075 56.183 52.9906 55.7278C53.3875 55.6267 53.7844 55.5256 54.1813 55.4244C54.5286 55.2727 54.8263 55.121 55.1736 54.9693C55.2729 54.9187 55.3721 54.8682 55.4217 54.8176C58.1009 52.9465 60.7801 49.9629 60.0359 46.423C59.8871 45.8162 60.4825 45.4116 60.929 45.4622C60.9786 45.4622 60.9786 45.4622 61.0282 45.4622C61.2267 45.4116 61.4251 45.361 61.6236 45.4622C64.154 45.4622 66.6843 45.6139 69.1651 45.8667C69.3139 45.8162 69.5124 45.8667 69.6612 45.9173C71.2985 46.069 72.9358 46.2713 74.5731 46.4736C74.722 46.2207 74.9204 45.9679 75.1685 45.8162C75.6647 45.5127 76.3097 45.6139 76.7066 46.0184C76.905 46.2207 77.0043 46.4736 77.0539 46.777C77.55 46.8276 78.0462 46.9287 78.4927 46.9793C78.592 46.9793 78.6912 46.9793 78.7904 46.9793C79.4354 46.9793 80.0804 47.0298 80.7254 47.0298C80.8742 46.5241 81.2216 46.1702 81.7673 46.1702C82.4123 46.1702 82.9085 46.6253 83.2558 47.131C84.3969 47.131 85.5381 47.131 86.6792 47.131C86.7288 46.2713 87.2746 45.715 88.118 45.6645C88.4654 45.6645 88.763 45.9173 88.8623 46.2207C88.9615 46.5241 88.9615 46.777 88.9615 47.0804C90.3507 46.9793 91.6903 46.8781 93.0299 46.6253C93.0299 46.5747 93.0796 46.5747 93.0796 46.5241C93.3276 46.2207 93.7742 46.2713 94.0719 46.4736C94.6176 46.3724 95.1634 46.2713 95.7092 46.1196C97.4953 45.6645 99.728 44.8553 101.762 43.7428C101.812 43.6922 101.812 43.6417 101.861 43.5911C103.052 42.2763 104.044 40.8603 104.64 39.2927C105.186 37.8767 105.235 36.4102 104.987 34.8425Z" fill="#211915"/>
<path opacity="0.2" d="M107.766 43.2877C107.22 43.5911 106.773 43.9957 106.426 44.6531C106.376 44.7037 106.376 44.7542 106.327 44.8048C106.178 45.3105 106.029 45.8162 105.88 46.3219C105.88 46.423 105.88 46.5242 105.93 46.6253C105.98 46.9287 105.88 47.2322 105.682 47.3839C105.831 47.6367 105.98 47.8896 106.079 48.1424C106.128 47.8896 106.228 47.6367 106.277 47.3839C106.277 46.8782 106.327 46.3725 106.426 45.9173C106.575 44.7037 106.922 43.3889 107.964 43.6417C107.865 43.49 107.815 43.3889 107.766 43.2877Z" fill="#211915"/>
<path opacity="0.2" d="M108.609 46.7264C108.311 47.5861 107.915 48.3447 107.666 48.7998C107.567 48.9515 107.468 49.0527 107.319 49.1538C107.22 49.4066 107.17 49.6595 107.071 49.9629C107.17 50.0641 107.22 50.1652 107.319 50.2663C107.716 50.6203 108.113 50.9237 108.46 51.2777C108.51 51.1766 108.559 51.126 108.609 51.0249C109.304 50.2158 109.75 49.1032 109.949 48.0918C109.998 47.8895 110.048 47.6873 110.098 47.485C109.601 47.2321 109.105 46.9793 108.609 46.7264Z" fill="#211915"/>
<path opacity="0.2" d="M129.249 48.3447C130.192 46.6759 130.638 44.906 130.886 43.0349C128.753 45.968 124.883 47.7885 121.559 48.6987C121.063 48.8504 120.566 48.9516 120.07 49.0527C117.242 49.7607 114.513 49.3056 111.983 48.193C111.785 48.1425 111.636 48.0413 111.437 47.9908C111.338 48.4459 111.288 48.9516 111.14 49.3561C110.941 49.963 110.693 50.5192 110.395 51.0249C110.495 51.0755 110.643 51.1767 110.743 51.2272C112.43 50.7215 118.483 49.5584 118.334 52.4915C118.235 54.666 114.464 54.2108 112.281 53.4017C111.586 53.25 110.941 52.9972 110.346 52.6937C111.338 53.4523 112.43 54.0086 113.868 54.3625C117.143 55.0705 120.021 54.4637 123.047 53.0983C123.295 52.9972 123.543 52.9972 123.742 53.1489C125.181 52.4915 126.619 51.7329 127.909 50.7721C128.406 49.963 128.852 49.0527 129.249 48.3447Z" fill="#211915"/>
<path opacity="0.2" d="M133.814 23.2621C132.375 26.802 127.909 29.5327 124.784 30.5441C121.707 31.505 118.433 31.8084 115.258 32.1118C112.082 32.4152 109.006 32.3141 106.029 31.1004C106.029 31.2015 106.029 31.3027 105.979 31.4038C106.029 31.5555 106.079 31.7072 106.128 31.8589C107.269 33.6795 109.254 34.9943 111.437 35.854C115.406 33.2749 120.814 32.9209 124.883 35.3988C125.081 35.3483 125.28 35.2977 125.429 35.2471C125.478 35.146 125.577 35.0954 125.677 35.0448C126.967 34.438 128.306 33.9829 129.547 33.2243C129.695 33.1232 129.795 33.0726 129.944 32.9715C130.39 32.4658 130.837 32.0612 131.432 31.7072C132.325 30.8476 133.119 29.9373 133.863 28.9765C134.012 27.8134 134.161 26.7008 134.161 25.5377C134.111 24.7792 134.012 23.9701 133.814 23.2621Z" fill="#211915"/>
<path opacity="0.2" d="M33.8889 28.8753C34.1866 28.9765 34.4843 29.027 34.7324 29.0776C35.3774 28.673 36.072 28.2685 36.8162 27.9651C36.8658 27.9145 36.9651 27.8639 37.0147 27.8133C37.4116 26.802 37.4612 25.6894 37.4612 24.6275C36.6177 22.8575 36.0224 21.037 36.1712 18.9636C36.1216 18.7108 36.1216 18.4074 36.1216 18.1545C35.9231 18.0534 35.6751 18.0028 35.427 18.0028C35.3278 18.0028 35.2285 18.0028 35.1789 18.0028C34.4843 20.5819 33.8889 22.9081 33.9385 25.5377C33.9881 26.1445 34.0874 26.7008 34.137 27.3076C34.137 27.3582 34.137 27.3582 34.1866 27.4088C34.2362 27.4594 34.2858 27.5605 34.3355 27.6616C34.3851 27.8133 34.4347 27.9145 34.4843 28.0662C34.5835 28.4202 34.2858 28.7742 33.8889 28.8753Z" fill="#211915"/>
<path opacity="0.2" d="M115.506 15.7272C115.654 15.2721 115.803 14.8675 115.952 14.463C116.002 14.3112 116.051 14.1595 116.151 14.0078C116.2 13.8055 116.25 13.6538 116.25 13.4516C116.151 13.3504 116.101 13.1987 116.101 13.047C115.952 11.4793 115.109 10.0634 114.513 8.59686C114.414 8.49572 114.364 8.34401 114.265 8.24287C113.422 7.88888 112.628 7.28204 111.933 6.62463C113.868 10.3162 114.613 14.2101 111.189 17.6489C108.51 20.3291 105.136 21.7956 101.613 21.745C101.316 21.8461 101.018 22.0484 100.869 22.2507C100.968 22.6047 101.117 23.0093 101.216 23.3632C101.365 24.0712 101.415 24.7792 101.514 25.4872C102.953 26.448 104.491 26.5997 106.079 26.3469C106.674 24.5769 107.617 23.1104 108.857 21.745C109.453 20.8853 110.147 20.1773 110.991 19.6716C111.338 19.3682 111.685 19.1154 112.033 18.8625C113.174 18.0534 114.513 17.1432 115.903 16.5363C115.605 16.3846 115.406 16.0812 115.506 15.7272Z" fill="#211915"/>
<path opacity="0.2" d="M64.8487 46.5242C64.6998 46.3219 64.5014 46.2714 64.3029 46.2714C64.1045 46.3219 63.9556 46.4736 63.8068 46.6253L63.7572 46.6759C63.1618 46.9288 62.8145 47.6873 62.4672 48.2436C62.0702 48.901 61.4253 49.609 61.2764 50.3675C61.2268 50.7215 61.5245 51.1261 61.9214 50.9743C62.7152 50.7215 63.3106 49.7607 63.7572 49.0527C64.0052 48.6481 64.2533 48.193 64.3525 47.6873C64.6502 47.6367 64.8983 47.3333 64.8983 47.0299C64.9479 46.8782 64.9975 46.6759 64.8487 46.5242Z" fill="#979391"/>
<path opacity="0.2" d="M63.4594 58.7621C63.0128 58.0541 62.7151 56.9921 62.0205 56.4358C61.9213 55.5762 61.7724 54.767 61.3259 54.0591C61.0778 53.6545 60.3832 53.5534 60.1848 54.0591C59.5894 55.5762 59.8871 57.599 60.1352 59.2172C60.3832 60.7343 61.1771 61.948 62.4671 62.7065C63.1617 63.1111 63.9555 62.6559 64.2036 61.948C64.5509 60.7849 64.1044 59.7229 63.4594 58.7621Z" fill="#979391"/>
<path opacity="0.2" d="M70.0085 59.5712C69.8101 58.762 69.4628 57.9529 69.0162 57.2955C68.7186 56.8404 68.1728 56.6887 67.7263 56.7898C67.4286 55.9301 66.982 55.2221 66.1386 55.0704C65.7913 55.0199 65.5432 55.2727 65.4936 55.5761C65.444 56.3347 65.7913 57.0427 65.9401 57.8012C66.1386 58.7115 66.1386 59.6217 66.337 60.4814C66.5851 61.5939 66.8332 63.2122 68.1232 63.465C69.2147 63.6673 70.6039 63.2627 71.0008 62.0996C71.3482 61.1388 70.6039 60.3803 70.0085 59.5712Z" fill="#979391"/>
<path opacity="0.2" d="M71.2488 46.8782C71.1992 46.3725 70.9015 45.8162 70.3558 45.7656C68.9169 45.5634 67.6766 46.3219 67.0812 47.6873C66.7835 48.3447 66.6842 49.0021 66.5354 49.7101C66.3866 50.4686 66.1385 51.0755 66.0889 51.8846C66.0889 52.0869 66.2873 52.188 66.4362 52.0869C67.3292 51.6317 67.6269 50.9238 68.0239 50.0135C68.0239 49.9629 68.0735 49.9124 68.0735 49.9124C68.2223 50.0135 68.3712 50.0641 68.52 50.0641C69.9092 50.0135 71.3481 48.193 71.2488 46.8782Z" fill="#979391"/>
<path opacity="0.2" d="M76.4586 46.3724C76.0617 45.9679 75.3174 45.9679 74.9701 46.423C74.474 46.9793 74.3251 47.485 74.1267 48.1424C73.829 49.1538 73.3328 49.8618 72.6382 50.6709C71.7948 51.6317 70.1575 52.6431 70.1575 54.0085C70.1575 54.1602 70.2567 54.2613 70.4055 54.3119C72.1421 54.7165 74.2259 52.0868 75.119 50.8732C75.8136 49.9123 75.9624 48.9009 76.5082 47.8895C76.8059 47.3333 76.9547 46.8781 76.4586 46.3724Z" fill="#979391"/>
<path opacity="0.2" d="M76.7067 60.3803C76.2105 59.4194 75.3175 57.7506 74.3252 57.2955C74.0275 57.1438 73.7298 57.1438 73.4817 57.2449C73.0352 56.6886 72.4398 56.2841 71.6956 56.2335C71.4475 56.2335 71.249 56.4864 71.249 56.6887C71.249 57.7 71.894 58.5092 72.4398 59.3689C72.4894 60.3297 73.0352 61.2399 73.5313 62.0491C74.1763 63.0099 75.0694 64.3753 76.3098 64.2741C76.6571 64.2741 77.1036 63.9201 77.054 63.5156C77.1036 63.465 77.1532 63.4144 77.2028 63.3639C77.8478 62.4536 77.2028 61.2905 76.7067 60.3803Z" fill="#979391"/>
<path opacity="0.2" d="M82.958 45.9679C82.6107 45.7151 81.9657 45.7151 81.6184 46.0185C80.4277 46.9288 80.4277 48.3447 79.5842 49.5078C78.84 50.5698 77.6492 51.7329 77.5996 53.0983C77.5996 53.3511 77.7981 53.5028 78.0461 53.5028C79.8323 53.5028 81.5688 51.2272 82.4619 49.8618C82.71 49.4572 82.8588 49.0527 83.0077 48.6481C83.1069 48.4458 83.1069 48.3447 83.1069 48.2941C83.2557 48.193 83.4046 48.0413 83.5038 47.839C83.9007 47.131 83.603 46.4231 82.958 45.9679Z" fill="#979391"/>
<path opacity="0.2" d="M83.752 63.2628C83.5039 62.2008 82.9581 61.1388 82.0651 60.6331C81.8666 60.178 81.6185 59.7735 81.3705 59.3689C80.7255 58.3575 79.7332 57.1438 78.4432 57.0933C78.1951 57.0933 77.947 57.3461 77.947 57.599C77.9966 59.0655 79.3362 60.4309 79.9316 61.7457C80.4774 62.9594 80.527 65.2856 82.1147 65.6396C83.6031 66.0441 84.0001 64.3753 83.752 63.2628Z" fill="#979391"/>
<path opacity="0.2" d="M88.7631 46.8276C88.5151 45.6139 86.977 45.9173 86.6297 46.8782C86.1831 48.0918 85.9351 49.4067 85.4389 50.6203C85.0916 51.48 84.397 52.4914 84.7443 53.4522C84.7939 53.6545 85.042 53.8062 85.2405 53.7557C86.4312 53.5028 87.0762 51.7834 87.5724 50.772C88.2174 49.5078 89.0608 48.193 88.7631 46.8276Z" fill="#979391"/>
<path opacity="0.2" d="M88.4654 60.6838C88.4158 60.6838 88.4158 60.6838 88.3662 60.7343C88.2173 60.4309 88.0685 60.1781 87.87 59.8746C87.1754 58.7115 86.1831 56.891 84.6947 56.8405C84.4466 56.8405 84.1489 57.0427 84.0993 57.3462C83.8016 58.661 84.9427 60.1781 85.4885 61.3412C86.0839 62.656 86.9273 64.4259 88.4654 64.8305C89.6562 65.1339 91.1446 64.2742 91.095 62.9594C91.1446 61.6952 89.6066 60.6332 88.4654 60.6838Z" fill="#979391"/>
<path opacity="0.2" d="M96.9495 60.4309C95.7587 59.7229 94.6672 58.8126 93.4765 58.1046C92.5338 57.5484 91.4423 56.891 90.3011 57.2955C89.9538 57.3967 89.8546 57.8012 90.1026 58.1046C90.9957 59.116 92.0872 59.9757 93.1292 60.7848C94.1711 61.594 95.0145 62.6054 96.3541 62.7065C97.6441 62.7571 97.8922 60.9871 96.9495 60.4309Z" fill="#979391"/>
<path opacity="0.2" d="M92.4842 47.1816C91.6904 50.0641 89.2593 51.8846 88.3662 54.666C88.267 54.9694 88.6639 55.2728 88.912 55.0705C91.3431 53.1489 93.675 50.7721 94.5185 47.6368C94.8658 46.3219 92.8315 45.8163 92.4842 47.1816Z" fill="#979391"/>
<path opacity="0.2" d="M98.3884 45.7151C97.7434 47.1311 97.0984 48.5976 96.4038 50.0136C95.7588 51.2272 94.6673 52.2892 94.3696 53.604C94.32 53.8063 94.4688 54.0591 94.7169 54.0591C96.1061 53.9074 96.9496 52.6432 97.7434 51.5812C98.7853 50.0641 99.5296 48.3953 100.323 46.7771C100.919 45.4623 98.9838 44.4003 98.3884 45.7151Z" fill="#979391"/>
<path opacity="0.2" d="M102.407 60.077C102.407 60.0264 102.358 60.0264 102.358 59.9758C102.358 59.8241 102.308 59.6724 102.209 59.5713C101.961 59.015 101.465 58.4587 100.82 58.4587C100.82 58.4587 100.82 58.4587 100.77 58.4587C99.6784 57.4979 98.5373 56.5371 97.2969 55.9302C96.7015 55.6774 94.32 55.2223 94.6177 56.5876C94.8161 57.599 96.3542 58.1047 97.0488 58.661C98.0907 59.4701 98.9342 60.4815 100.125 61.1389C100.373 61.2906 100.671 61.3412 100.919 61.2401C100.968 61.2906 101.068 61.3412 101.167 61.3918C101.564 61.5435 102.01 61.5435 102.308 61.1895C102.556 60.9366 102.606 60.4309 102.407 60.077Z" fill="#979391"/>
<path opacity="0.2" d="M102.457 45.0576C101.713 46.4736 101.365 48.0918 100.82 49.6089C100.324 50.9743 99.232 52.2891 99.0335 53.705C98.9839 54.1602 99.3312 54.5647 99.7778 54.4636C101.217 54.1096 101.961 52.4914 102.556 51.1765C103.35 49.5077 103.995 47.6367 104.491 45.8667C104.789 44.653 103.052 43.9956 102.457 45.0576Z" fill="#979391"/>
<path opacity="0.2" d="M106.724 44.8554C106.575 45.9174 106.327 46.9794 106.079 47.9908C105.831 48.9516 105.533 49.7607 105.583 50.7721C105.583 50.9744 105.781 51.0755 105.93 50.9744C107.766 50.0136 108.361 47.2828 108.708 45.3611C108.956 44.0463 106.922 43.5406 106.724 44.8554Z" fill="#979391"/>
<path opacity="0.2" d="M111.04 45.5128C110.346 46.3725 110.147 47.485 109.8 48.4964C109.502 49.255 108.907 50.2158 109.403 50.9743C109.453 51.0755 109.601 51.1766 109.75 51.1766C110.693 51.0755 111.09 50.0135 111.487 49.255C111.983 48.2941 112.578 47.1816 112.529 46.0691C112.429 45.3611 111.487 44.906 111.04 45.5128Z" fill="#979391"/>
<path opacity="0.2" d="M117.242 51.6318C114.811 51.7329 112.826 50.2664 110.395 51.2272C109.899 51.4295 109.8 52.0363 110.296 52.3397C111.338 52.9466 112.429 53.1489 113.571 53.5534C114.861 53.958 115.952 54.3625 117.292 54.2614C118.929 54.1603 118.929 51.5812 117.242 51.6318Z" fill="#979391"/>
<path opacity="0.2" d="M113.72 56.5876C111.338 55.5762 108.709 53.1994 105.98 53.4523C105.632 53.5029 105.335 53.8569 105.583 54.2108C106.327 55.2728 107.518 55.8291 108.609 56.4865C109.899 57.2956 111.189 58.1553 112.578 58.7621C113.968 59.4701 115.158 57.1945 113.72 56.5876Z" fill="#979391"/>
<path opacity="0.2" d="M108.609 58.4586C106.724 56.7898 104.243 55.9806 101.911 55.2221C101.365 55.0704 100.919 55.8795 101.365 56.2335C103.201 57.7 104.987 59.5205 107.121 60.5825C108.312 61.1893 109.75 59.47 108.609 58.4586Z" fill="#979391"/>
<path d="M43.4646 17.8511C46.8385 18.3568 50.1627 19.166 53.3876 20.2279C51.8496 21.5427 50.4107 22.9587 49.2696 24.5264C49.1704 24.6781 49.3688 24.9309 49.5177 24.7792C51.2046 23.515 52.693 21.9473 54.2311 20.4808C58.1011 21.7956 61.9214 23.3633 65.6922 25.0321C66.2379 25.2849 66.7837 25.5378 67.3295 25.7906C65.2953 27.6617 62.9633 29.5833 61.3757 31.859C61.2764 32.0107 61.4749 32.1624 61.5741 32.0613C63.7572 30.6453 65.5433 28.5719 67.4287 26.802C67.6768 26.5997 67.8752 26.3469 68.1233 26.1446C70.4056 27.2066 72.6879 28.3697 74.871 29.6339C76.4586 30.5442 77.9471 31.6061 79.3859 32.6681C78.1456 33.8818 77.054 35.146 76.161 36.562C76.0617 36.7137 76.2602 36.8654 76.409 36.7642C77.7486 35.6517 78.989 34.4886 80.2294 33.3255C81.4202 34.2358 82.6605 35.1966 83.9009 36.1068C84.149 36.2586 84.3971 35.9046 84.1986 35.7023C83.2063 34.6403 82.1148 33.6289 80.924 32.6681C82.7598 30.8982 84.5955 29.1788 86.6793 27.6111C86.9274 27.4088 87.1755 27.2571 87.4236 27.0548C88.1182 27.51 88.8128 27.9651 89.5074 28.3697C89.6562 28.4708 89.8051 28.2685 89.7059 28.1168C89.2097 27.5605 88.7136 27.0548 88.1182 26.5491C90.202 25.0826 92.3851 23.7678 94.6178 22.453C94.9651 22.6553 95.3124 22.9081 95.6597 23.1104C95.8581 23.2115 96.007 22.9587 95.8581 22.807C95.6597 22.5541 95.4612 22.3013 95.2131 22.099C96.007 21.6439 96.8008 21.1382 97.5947 20.6831C97.6939 20.6325 97.6443 20.3796 97.4954 20.4302C96.6024 20.7842 95.6597 21.1888 94.7666 21.6439C92.9805 19.8739 90.7974 18.4074 88.8624 16.8903C87.5228 15.8789 86.1336 14.8675 84.6947 13.9573C86.1336 13.1987 87.622 12.4907 89.1601 11.8839C89.4082 11.7828 89.3089 11.3276 89.0609 11.4288C87.374 12.0356 85.7367 12.7436 84.149 13.5527C82.859 12.693 81.569 11.9345 80.2294 11.1759C77.9967 9.91169 75.6648 8.79915 73.2833 7.83832C75.764 6.62465 78.344 5.51211 80.8744 4.29844C81.0232 4.24787 80.924 3.99502 80.7752 4.04559C77.8479 4.85471 74.9702 6.01781 72.1917 7.3832C69.1652 6.32123 65.9899 5.51211 62.7153 5.15813C62.5168 5.15813 62.4672 5.46154 62.6657 5.51211C65.6426 6.06838 68.5202 6.82693 71.3483 7.88889C68.6195 9.30485 65.9899 10.8725 63.4595 12.5413C63.0626 12.7942 62.7153 13.047 62.368 13.2999C59.5895 12.4907 56.7615 11.8333 53.9334 11.3276C53.8342 11.3276 53.7846 11.4794 53.8838 11.4794C56.563 12.0862 59.1926 12.7942 61.8222 13.6539C59.8872 15.0192 58.0018 16.4352 56.1661 17.9523C55.4715 18.5591 54.7272 19.1154 53.983 19.7222C50.5596 18.6097 47.1361 18.0029 43.5142 17.5983C43.3654 17.5983 43.3158 17.8006 43.4646 17.8511ZM85.6374 27.51C83.8017 28.9259 81.8667 30.3925 80.1302 32.0613C76.6571 29.4822 72.6383 27.4594 68.7683 25.6895C70.356 24.2229 71.9933 22.7564 73.6802 21.391C74.4244 20.7842 75.1687 20.2279 75.9129 19.6717C77.7486 20.6325 79.5844 21.6944 81.3209 22.807C83.2063 23.9701 84.9428 25.386 86.7786 26.7009C86.3817 26.9031 85.9847 27.2066 85.6374 27.51ZM88.1182 17.3454C90.1028 18.812 91.9882 20.5819 94.0224 22.0484C91.7897 23.2115 89.6066 24.5769 87.5724 26.094C85.8359 24.6781 83.9009 23.4644 82.1148 22.3013C80.3286 21.1887 78.4929 20.1268 76.6571 19.1154C78.989 17.396 81.4202 15.8284 83.9505 14.4124C85.3397 15.3227 86.7786 16.3341 88.1182 17.3454ZM64.1541 12.8953C66.8333 11.1759 69.5622 9.65884 72.3902 8.29345C75.2183 9.40599 77.9967 10.7714 80.6263 12.339C81.5194 12.8953 82.4125 13.4516 83.3055 14.0078C80.7255 15.3732 78.2448 16.9409 75.8633 18.7108C74.9206 18.2051 73.9283 17.75 72.9856 17.2949C69.8102 15.8284 66.5356 14.5641 63.2114 13.6033C63.5091 13.2999 63.8068 13.0976 64.1541 12.8953ZM55.9676 18.9637C58.1011 17.1432 60.3338 15.4744 62.616 13.9067C66.1387 15.0698 69.6118 16.4858 72.9856 18.104C73.7298 18.458 74.4244 18.812 75.1687 19.2165C74.8213 19.4694 74.5237 19.7222 74.1764 19.9751C72.0429 21.6439 69.9591 23.4644 67.9249 25.3355C67.2799 25.0321 66.6349 24.7792 65.9899 24.4758C62.5664 23.0093 59.0438 21.6439 55.5211 20.2785C55.273 20.1774 55.0249 20.1268 54.8265 20.0256C55.1738 19.6717 55.5707 19.3177 55.9676 18.9637Z" fill="#010001"/>
<path d="M45.2506 34.1345C45.7964 33.9828 46.243 33.4266 46.243 32.8197C46.243 32.3646 45.8956 31.606 45.3499 31.8589C45.3003 31.9095 45.3003 31.96 45.3003 32.0106C45.4491 32.2634 45.6972 32.4152 45.6972 32.7691C45.7468 33.1737 45.3995 33.5783 45.0026 33.6288C44.556 33.6794 44.2087 33.3254 44.2087 32.8703C44.2087 32.4657 44.4568 32.0612 44.6057 31.7072C44.6553 31.5555 44.4568 31.3532 44.3576 31.5049C43.9607 32.0106 43.5141 32.7186 43.8118 33.4266C44.0103 33.9828 44.6553 34.2862 45.2506 34.1345Z" fill="#010001"/>
<path d="M40.1404 28.0662C40.1901 27.965 40.0412 27.8133 39.942 27.9145C37.6597 30.6958 37.7093 35.0448 40.3389 37.5733C40.3885 37.6239 40.5374 37.5733 40.4878 37.4722C38.5031 34.3874 38.2551 31.3026 40.1404 28.0662Z" fill="#010001"/>
<path d="M109.403 25.9928C109.701 25.9928 109.701 25.5377 109.403 25.5377C109.105 25.5377 109.105 25.9928 109.403 25.9928Z" fill="#010001"/>
<path d="M109.552 29.381C109.105 29.1282 109.105 30.0384 109.552 29.7856C109.601 29.735 109.651 29.735 109.701 29.6339C109.701 29.5833 109.701 29.5327 109.701 29.4822C109.651 29.4316 109.601 29.381 109.552 29.381Z" fill="#010001"/>
<path d="M114.811 30.6958C114.563 30.6958 114.563 31.0498 114.811 31.0498C115.059 31.0498 115.059 30.6958 114.811 30.6958Z" fill="#010001"/>
<path d="M112.628 27.1053C112.231 27.1053 112.231 27.7628 112.628 27.7628C113.025 27.7628 113.025 27.1053 112.628 27.1053Z" fill="#010001"/>
<path d="M111.288 39.3938C110.891 39.3938 110.891 40.0512 111.288 40.0512C111.685 40.0512 111.685 39.3938 111.288 39.3938Z" fill="#010001"/>
<path d="M109.998 42.428C109.998 42.428 109.949 42.428 109.949 42.4786C109.502 42.7315 110.147 43.3889 110.395 42.9337C110.395 42.9337 110.395 42.8832 110.445 42.8832C110.544 42.5798 110.246 42.2763 109.998 42.428Z" fill="#010001"/>
<path d="M115.208 44.552C115.109 44.3497 114.811 44.3497 114.712 44.552C114.613 44.7037 114.712 45.0071 114.96 45.0071C115.01 45.0071 115.01 45.0071 115.059 45.0071C115.208 45.0071 115.357 44.8048 115.258 44.6531C115.258 44.6025 115.258 44.552 115.208 44.552Z" fill="#010001"/>
<path d="M124.139 49.4573C124.288 49.4067 124.337 49.3055 124.387 49.1538C124.387 49.1033 124.387 49.0527 124.337 49.0021C124.188 48.901 124.089 48.901 123.94 48.9516C123.543 48.9516 123.742 49.6595 124.139 49.4573Z" fill="#010001"/>
<path d="M128.654 43.7934C128.951 43.7934 128.951 43.3383 128.654 43.3383C128.356 43.3383 128.356 43.7934 128.654 43.7934Z" fill="#010001"/>
<path d="M119.177 49.2044C119.574 49.2044 119.574 48.5975 119.177 48.5975C118.83 48.5975 118.83 49.2044 119.177 49.2044Z" fill="#010001"/>
<path d="M128.207 29.9373C128.009 29.9373 128.009 30.2912 128.207 30.2912C128.455 30.2407 128.455 29.9373 128.207 29.9373Z" fill="#010001"/>
<path d="M131.432 23.5655C131.085 23.5655 130.986 24.1218 131.333 24.2229C131.829 24.3241 131.879 23.5149 131.432 23.5655Z" fill="#010001"/>
<path d="M129.249 19.8739C128.852 19.8739 128.852 20.5313 129.249 20.5313C129.646 20.5313 129.646 19.8739 129.249 19.8739Z" fill="#010001"/>
<path d="M130.241 26.6503C129.894 26.6503 129.894 27.2065 130.241 27.2065C130.589 27.156 130.589 26.6503 130.241 26.6503Z" fill="#010001"/>
<path d="M108.113 18.4579C108.212 18.4073 108.262 18.3062 108.311 18.2556C108.46 18.0028 108.212 17.8005 108.014 17.8511C107.914 17.8511 107.815 17.9016 107.716 17.9522C107.319 18.1039 107.766 18.7613 108.113 18.4579Z" fill="#010001"/>
<path d="M112.181 14.4123C112.578 14.4123 112.578 13.7549 112.181 13.7549C111.785 13.7549 111.785 14.4123 112.181 14.4123Z" fill="#010001"/>
<path d="M110.246 9.25424C110.693 9.25424 110.693 8.54626 110.246 8.54626C109.849 8.59683 109.849 9.25424 110.246 9.25424Z" fill="#010001"/>
<path d="M109.403 13.5527C109.8 13.5527 109.8 12.8953 109.403 12.8953C109.006 12.8953 109.006 13.5527 109.403 13.5527Z" fill="#010001"/>
<path d="M113.025 12.3895C113.372 12.3895 113.372 11.8333 113.025 11.8333C112.678 11.8333 112.678 12.3895 113.025 12.3895Z" fill="#010001"/>
<path d="M104.342 21.0876C104.193 20.8348 103.747 20.9865 103.846 21.2899C103.945 21.6945 104.541 21.4416 104.342 21.0876Z" fill="#010001"/>
<path d="M94.4192 6.77631C94.3696 6.72574 94.2703 6.67517 94.2207 6.67517C94.1215 6.67517 94.0222 6.72574 93.9726 6.87745C93.923 7.02916 94.0222 7.23144 94.1711 7.23144C94.3199 7.28201 94.4688 7.1303 94.4688 6.97859C94.4688 6.92802 94.4688 6.82688 94.4192 6.77631Z" fill="#010001"/>
<path d="M97.4456 11.1759C97.5449 11.1759 97.5449 10.9736 97.4456 10.9736C97.2968 10.9736 97.2968 11.1759 97.4456 11.1759Z" fill="#010001"/>
<path d="M113.869 7.99059C112.281 6.01837 110.147 4.40014 108.411 3.43931C103.697 0.860253 94.3202 0.607404 90.8967 5.61381C89.6564 4.04615 88.2175 2.68077 86.2329 1.87165C83.7026 0.809683 80.6264 0.657973 77.9472 0.354554C74.7222 0.0511356 71.398 -0.201713 68.173 0.202845C65.6923 0.506264 63.2115 1.16367 60.9292 2.32678C57.9523 3.84387 55.8189 6.57464 52.3954 6.9792C49.1705 7.33319 46.1439 6.82749 43.0678 7.99059C40.7855 8.85028 38.8505 10.3674 37.5605 12.4407C36.9652 13.351 36.5682 14.3624 36.2706 15.3232C36.2209 15.3232 36.2209 15.3738 36.1713 15.4244C36.0721 15.7278 35.9232 16.0312 35.7744 16.3346C24.1149 23.5661 23.6187 39.799 30.416 50.7221C34.1371 56.7399 39.9917 61.7463 46.392 64.5782C53.5862 67.7641 62.12 69.0789 69.8103 70.0397C84.8933 71.9108 101.068 71.2534 115.307 65.5896C126.917 60.9877 140.413 51.0761 141.851 37.3716C143.439 22.7064 127.265 8.95142 113.869 7.99059ZM106.625 3.48988C111.388 5.15869 116.994 10.9742 114.662 16.3852C111.735 17.8011 109.105 19.9251 107.319 22.5041C106.525 22.7064 105.781 23.0098 104.938 23.111C103.896 23.2627 102.904 23.2627 101.812 23.2627C101.465 21.3916 101.217 19.5205 100.671 17.7506C99.9763 15.6266 98.7359 14.413 97.049 13.0981C94.5683 11.1259 93.0302 8.29401 91.0952 5.86666C95.5109 2.32678 101.217 1.56823 106.625 3.48988ZM118.036 53.0483C117.143 53.6551 113.869 53.3517 113.422 53.2506C111.934 52.9471 110.594 52.3909 109.205 51.8852C109.552 51.7335 109.85 51.5312 110.197 51.3795C111.04 51.3289 111.834 51.2783 112.678 51.2783C114.017 51.2278 116.796 50.8738 117.838 51.9357C118.284 52.3909 118.383 52.7449 118.185 52.9471C118.135 52.9471 118.086 52.9977 118.036 53.0483ZM105.186 53.5034C106.575 53.7563 116.2 56.5882 115.01 58.257C113.67 60.0775 107.667 54.5148 104.938 53.554C104.987 53.554 105.087 53.554 105.186 53.5034ZM100.175 54.7677C102.159 55.4251 104.243 55.6273 106.129 56.6893C106.873 57.0939 107.567 57.6501 108.163 58.3075C108.907 59.1672 108.907 60.4315 107.419 60.5832C106.922 60.6338 106.426 60.3303 106.029 60.1281C103.797 58.8638 102.358 56.0319 100.076 54.8182C100.125 54.8182 100.175 54.8182 100.175 54.7677ZM99.9267 53.9585C99.7778 54.0091 99.629 54.0091 99.4801 54.0597C99.3313 54.0597 99.1824 54.0091 99.0336 54.0091C98.984 54.0091 98.984 54.0091 98.984 54.0091C100.919 51.8852 101.068 48.9521 102.308 46.2719C102.407 46.0191 102.656 45.2605 102.953 45.1088C104.392 44.6031 104.045 46.3731 103.946 46.8282C103.797 47.5867 103.598 48.2947 103.35 49.0027C102.606 51.1266 101.415 52.492 99.9267 53.9585ZM98.8848 54.1608H98.8352C98.8848 54.1102 98.8848 54.1102 98.9344 54.0597C98.8848 54.1102 98.8848 54.1608 98.8848 54.1608ZM103.946 49.4073C104.342 48.2441 105.484 45.4628 104.144 44.4514C102.904 43.5412 101.961 45.3111 101.564 46.2719C101.167 47.3339 100.969 48.4464 100.621 49.559C100.076 51.3795 99.1328 52.9471 97.9421 54.3631C96.5032 54.6159 95.0644 54.8182 93.6256 54.9699C95.759 53.9585 97.694 52.3909 98.984 50.3681C99.6786 49.2555 101.564 46.3731 100.324 45.0077C99.0336 43.5917 97.6444 45.8674 97.1482 46.8788C95.6102 50.0141 94.8163 52.8966 91.9387 55.1216C90.996 55.1722 90.0533 55.2734 89.1106 55.2734C90.8471 54.262 92.286 52.6943 93.4271 51.1266C94.2209 50.0647 96.1559 47.435 94.9652 46.0696C93.7248 44.6031 92.1867 46.8282 91.641 47.789C91.0456 48.7498 90.6487 49.8118 90.1029 50.8232C89.1602 52.5932 88.0687 53.9585 86.7291 55.3239C86.2825 55.3239 85.836 55.3239 85.3895 55.3239C84.6949 55.3239 84.0002 55.3239 83.3056 55.3239C85.5879 54.3125 87.6221 52.1886 88.5648 49.8624C89.0114 48.7498 89.9044 46.2719 88.5648 45.4122C88.416 45.3111 88.2671 45.2605 88.1679 45.21C89.5571 45.1594 90.9464 45.0077 92.3356 44.856C95.0148 44.5526 98.0413 44.148 100.522 42.7826H100.572C101.465 42.2769 102.259 41.6195 102.904 40.8104C104.839 38.4842 105.285 35.0454 104.342 32.163C104.342 30.2919 102.953 28.1679 102.457 26.6003C102.159 25.69 101.961 24.7292 101.812 23.8189C102.755 24.0212 103.797 23.9706 104.789 23.8189C105.335 23.7178 105.98 23.6672 106.525 23.5155C106.525 23.5155 106.525 23.5661 106.476 23.5661C105.136 25.8417 104.194 29.1793 105.781 31.5561C107.121 33.5283 109.85 34.3375 112.281 34.742C111.884 34.8937 111.487 35.0454 111.14 35.2477C106.525 37.4728 102.854 42.5803 105.583 47.6879C105.583 47.7385 105.632 47.7385 105.632 47.7385C105.335 49.6095 104.739 51.3795 103.648 52.8966C102.854 53.1494 102.011 53.4023 101.217 53.6045C102.606 52.5426 103.4 50.9244 103.946 49.4073ZM94.3202 53.8068C96.1559 51.784 96.7017 48.7498 98.1405 46.3731C98.4382 45.8674 99.4305 44.2491 100.125 46.1202C100.224 46.4742 99.8771 47.2328 99.7282 47.5867C99.3809 48.5476 98.8352 49.559 98.2398 50.3681C97.1979 51.9357 95.759 52.846 94.3202 53.8068ZM87.5725 55.3239C90.1525 53.6045 90.9464 49.7612 92.6829 47.3339C93.0798 46.7776 94.4194 45.0583 94.7171 47.4856C94.7667 47.8902 94.3202 48.5981 94.1713 48.9016C93.824 49.6095 93.3775 50.2669 92.8813 50.9244C91.4921 52.7954 89.8548 54.1608 87.8702 55.2734C87.8206 55.2734 87.7214 55.3239 87.5725 55.3239ZM86.9275 43.3389C86.8779 43.2377 86.7291 43.2377 86.6795 43.3389C86.481 43.7434 86.3818 44.148 86.2329 44.5526C85.4391 44.5526 84.6452 44.5526 83.8514 44.5526C83.6529 44.5526 83.4049 44.5526 83.2064 44.5526C83.4049 44.0974 83.5537 43.5412 83.3552 43.1366C83.3056 43.0355 83.1568 43.0355 83.1072 43.1366C82.9583 43.3895 82.9583 43.6423 82.9583 43.9457C82.9087 44.148 82.8591 44.3503 82.8095 44.5526C82.1149 44.5526 81.4203 44.5526 80.7257 44.5526C80.7753 44.2997 80.7256 44.0469 80.6264 43.8446C80.5768 43.7434 80.428 43.7434 80.3783 43.8446C80.2791 44.0469 80.1799 44.2997 80.1303 44.5526C79.5349 44.5526 78.9395 44.5526 78.3441 44.502C78.4434 44.0974 78.493 43.6929 78.2449 43.3895C78.1953 43.3389 78.0464 43.2883 77.9968 43.3895C77.848 43.6929 77.848 44.0974 77.848 44.4514C76.7564 44.4008 75.6649 44.4008 74.5238 44.2997C74.6726 44.0469 74.7222 43.7434 74.5238 43.4906C74.4742 43.3895 74.3253 43.3895 74.2261 43.4906C74.1268 43.6423 74.0772 43.8446 74.0276 44.0469C74.0276 44.148 73.978 44.1986 73.9284 44.2997C72.8865 44.2491 71.8446 44.148 70.8026 44.0469C70.8523 43.794 70.8523 43.4906 70.8026 43.2883C70.753 43.1872 70.6042 43.1366 70.5049 43.1872C70.3561 43.3389 70.2569 43.5917 70.2073 43.8446C70.2073 43.8951 70.2073 43.9457 70.1576 43.9963C70.108 43.9963 70.0584 43.9963 70.0088 43.9963C69.0165 43.8951 68.0738 43.794 67.0815 43.7434C67.28 43.3895 67.3792 42.9343 67.2304 42.5298C67.1807 42.4286 67.0319 42.3781 66.9327 42.4792C66.7342 42.8332 66.635 43.2883 66.5357 43.6929C65.5434 43.6423 64.5015 43.6423 63.5092 43.6929C63.6085 43.3389 63.6085 43.0355 63.3604 42.732C63.3108 42.6309 63.1123 42.6309 63.0627 42.732C62.9138 43.0355 62.9138 43.3895 62.9138 43.7434C62.12 43.794 61.3758 43.8951 60.6315 44.0974C60.7804 43.6929 60.83 43.2377 60.6812 42.8332C60.6315 42.732 60.4827 42.6815 60.4331 42.7826C60.185 43.2377 60.1354 43.7434 60.0362 44.2491C59.4904 44.4008 58.9446 44.5526 58.3989 44.8054C58.25 43.6423 57.9027 42.5298 57.2081 41.5184C55.5212 38.8887 52.6435 37.1188 49.7162 36.9671C49.7658 36.5625 49.8155 36.158 49.8651 35.7534C50.6093 36.4108 51.7505 36.6637 52.7924 36.9165C55.67 37.6751 58.6469 38.1302 61.6239 38.383C68.2723 38.9899 75.0695 38.8382 81.7676 38.8887C87.5229 38.9393 93.576 38.9899 99.0336 36.8154C100.572 36.2085 102.904 35.3489 103.846 33.7812C103.995 35.7534 103.697 37.5234 102.953 39.0404C102.953 38.7876 102.904 38.5347 102.804 38.2819C102.755 38.1808 102.606 38.2313 102.556 38.3325C102.407 38.6865 102.457 39.0405 102.407 39.3944C102.407 39.6473 102.358 39.8496 102.308 40.1024C102.011 40.507 101.663 40.861 101.316 41.215C101.316 40.9115 101.316 40.6081 101.167 40.3553C101.117 40.2541 100.969 40.3047 100.969 40.4058C100.869 40.861 100.77 41.3161 100.671 41.7712C99.9763 42.2769 99.1328 42.732 98.1902 43.0355C98.4878 42.5803 98.5375 41.9735 98.339 41.5689C98.2894 41.4678 98.1405 41.5184 98.1405 41.6195C98.0413 41.9229 97.9917 42.2263 97.9421 42.4792C97.8925 42.732 97.7932 42.9849 97.7436 43.2377C97.694 43.2377 97.6444 43.2883 97.5948 43.2883C96.9994 43.44 96.404 43.5917 95.8086 43.7434C96.0071 43.3895 96.1063 42.9343 95.9575 42.5298C95.9079 42.4286 95.759 42.4286 95.759 42.5298C95.6598 42.9343 95.5606 43.3389 95.3621 43.6423C95.3125 43.6929 95.3125 43.7434 95.3125 43.794C94.5186 43.9457 93.6752 44.0974 92.8813 44.1986C93.0302 43.8446 93.0798 43.3389 92.8813 43.0355C92.8317 42.9343 92.6333 42.8838 92.5836 43.0355C92.4844 43.2377 92.4348 43.4906 92.3852 43.6929C92.3356 43.8951 92.286 44.0469 92.286 44.2491C91.3433 44.3503 90.4502 44.4008 89.5075 44.4514C89.6564 44.148 89.6564 43.794 89.5571 43.4906C89.5075 43.3895 89.3587 43.3389 89.3091 43.44C89.1602 43.7434 88.9617 44.0974 88.8625 44.4514C88.1183 44.502 87.4237 44.502 86.6795 44.502C87.0764 44.1986 87.126 43.794 86.9275 43.3389ZM39.049 45.21C31.1106 45.1088 28.5802 35.7028 33.889 30.1907C35.3775 28.6231 37.114 27.7634 38.8505 27.46C38.9994 27.6622 39.2475 27.5611 39.2971 27.3588C44.4074 26.7014 49.617 30.8987 49.5178 36.9671C48.2774 36.9671 47.0866 37.2705 45.8959 37.9279C45.8959 37.7762 45.747 37.6751 45.5982 37.7256C42.3732 39.2933 39.7932 42.0746 39.049 45.21ZM34.7821 23.8189C34.6829 24.0212 34.5836 24.2235 34.534 24.4258C34.534 23.6672 34.534 22.8581 34.6829 21.9984C34.9309 20.4813 35.3279 19.0148 35.824 17.5483C35.5263 20.7848 36.5186 24.0718 38.404 26.8026C37.4117 27.0048 36.469 27.3588 35.5759 27.8645C35.6256 27.5611 35.6256 27.2577 35.6752 26.9543C35.7248 26.5497 35.7744 26.1957 35.7248 25.7912C35.7248 25.69 35.5759 25.6395 35.5263 25.7406C35.0798 26.3474 35.0798 27.3083 35.3279 28.0162C35.179 28.1174 35.0798 28.1679 34.9309 28.2691C34.8317 27.4094 34.6829 26.5497 34.6333 25.69C34.8317 25.0832 35.0302 24.4763 35.0302 23.8695C35.0302 23.7684 34.8813 23.7178 34.7821 23.8189ZM54.5289 51.4806C54.38 51.6323 54.2808 51.7335 54.132 51.8852C53.9831 51.8852 53.8839 51.9357 53.7351 51.9357C54.4297 47.2328 51.3535 41.8724 47.4339 39.1416C49.6666 39.7484 51.7008 40.6081 53.487 42.3275C56.5135 45.1594 56.1662 48.1936 54.5289 51.4806ZM51.4528 52.138C48.8232 51.7335 46.4913 49.2555 45.3501 47.0305C43.9113 44.2997 43.9113 41.8724 45.2509 39.3439C45.3501 44.2491 49.0216 49.1038 52.5939 52.0369C52.197 52.0875 51.8497 52.138 51.4528 52.138ZM44.6059 39.3439C42.8694 41.6701 43.812 45.2605 45.1516 47.6373C45.9951 49.1038 47.7316 51.1772 49.617 52.138C47.682 52.0369 45.8959 51.43 44.3082 49.8118C41.3313 46.7271 41.4801 42.0746 44.6059 39.3439ZM51.2047 44.502C52.5443 46.9293 52.842 49.3061 53.3877 51.9863C53.3381 51.9863 53.2885 51.9863 53.2389 51.9863L53.1893 51.9357C49.4185 48.5476 46.0447 43.9963 45.6974 38.6865C45.747 38.6865 45.7966 38.6865 45.8463 38.737C48.0293 40.3553 49.8651 42.0746 51.2047 44.502ZM40.2398 43.44C40.984 41.7206 42.2244 40.6081 43.6136 39.5967C41.1824 42.0746 40.7855 46.0191 42.8694 49.0533C45.0028 52.1886 49.3689 53.8068 52.9908 52.7954C49.3193 55.4251 44.5067 55.7285 41.3313 51.5818C39.4955 49.2555 39.049 46.1708 40.2398 43.44ZM55.1739 51.5818C55.2235 51.5312 55.2235 51.4806 55.2235 51.43C59.9866 45.6145 52.3954 38.5348 46.1439 38.3325C46.0447 38.2819 45.9455 38.2313 45.8463 38.1808C47.037 38.0291 48.2774 37.6751 49.5178 37.6245C49.5674 37.7256 49.7658 37.7256 49.8155 37.6245C50.3116 37.6245 50.8078 37.6751 51.3039 37.8268C53.1893 38.3325 55.025 39.9001 56.2158 41.4172C58.9943 44.8054 58.1012 49.1038 55.025 51.7335C55.1243 51.6829 55.1243 51.6323 55.1739 51.5818ZM83.901 54.5148C85.5383 52.5932 85.836 49.7612 86.7291 47.3845C87.1756 46.1708 88.6144 45.0583 88.7633 47.1316C88.8625 48.0419 88.3664 49.1544 88.0191 49.9635C87.0764 51.9863 85.4887 53.1494 83.901 54.5148ZM106.575 49.6095C106.178 50.2164 105.732 50.8232 105.285 51.3795C105.781 50.3175 106.129 49.205 106.327 48.0419C106.327 47.8902 106.377 47.7385 106.377 47.6373C106.377 47.5867 106.426 47.5362 106.426 47.435C106.525 46.8282 106.575 46.2214 106.674 45.6145C106.774 45.21 106.823 44.2997 107.121 44.0469C107.815 43.3895 108.659 43.9457 108.758 44.7043C108.857 46.3731 107.419 48.3453 106.575 49.6095ZM105.186 52.4414C106.029 51.7335 106.724 50.6209 107.319 49.6601C107.766 50.0647 108.212 50.4187 108.709 50.7726C108.659 50.9244 108.56 51.0761 108.51 51.1772C107.369 51.6323 106.277 52.0369 105.186 52.4414ZM109.254 50.8738C109.949 49.3567 109.899 47.2833 110.941 46.0191C111.537 45.3111 112.132 45.3617 111.934 46.3225C111.834 46.9293 111.586 47.5362 111.338 48.0924C110.892 49.0533 110.346 49.913 109.701 50.7221C109.552 50.7726 109.403 50.8232 109.254 50.8738ZM111.09 50.8738C111.487 50.6209 111.884 50.4187 112.231 50.1658C112.38 50.0647 112.281 49.7107 112.082 49.8118C111.586 50.0141 111.14 50.1658 110.693 50.3681C111.983 48.9016 113.323 45.7662 112.182 45.0077C111.189 44.3503 110.247 45.9179 109.999 46.6259C109.502 47.789 109.304 49.1038 108.857 50.3175C108.411 49.9635 107.964 49.559 107.617 49.1038C107.716 48.9016 107.815 48.7498 107.915 48.5476C108.609 47.3339 109.949 45.0583 108.957 43.6929C108.113 42.5298 106.972 43.0355 106.476 44.148C106.178 44.856 106.029 45.6651 105.93 46.4742C103.946 41.3161 108.857 36.8154 113.422 35.2983C113.72 35.1971 114.017 35.096 114.315 35.0454C114.365 35.0454 114.365 35.0454 114.414 35.0454C114.464 35.0454 114.464 35.0454 114.514 34.9949C118.334 33.9835 123.196 33.9329 126.322 36.4108C130.638 39.799 131.283 46.9799 126.967 50.7726C125.131 52.3909 121.261 53.3517 118.78 52.9471C118.78 52.846 118.83 52.7449 118.83 52.6437C118.88 50.0141 114.166 50.3681 111.09 50.8738ZM113.224 34.4386C110.693 33.7306 107.716 33.0226 106.476 30.6964C104.839 27.5611 106.972 23.8189 109.105 21.4927C112.777 17.4471 118.681 14.6152 124.139 15.8795C127.761 16.6886 131.68 19.1665 133.119 22.8075C135.501 28.6736 129.845 33.1238 124.883 34.388C121.36 32.8709 116.845 33.2249 113.224 34.4386ZM38.5032 12.1879C40.0413 10.064 42.3236 8.74914 44.8043 8.19287C47.3843 7.63661 49.9147 8.09173 52.4947 7.78831C56.8608 7.28262 59.8873 3.23703 64.055 1.92222C68.9669 0.303985 74.2757 0.759113 79.3364 1.41652C82.0653 1.77051 84.8437 1.97279 87.2252 3.38874C89.4579 4.75413 91.0456 6.9792 92.4348 9.1537C93.4767 10.7214 94.4194 12.0867 95.9079 13.3004C98.0909 15.1209 99.5794 16.5875 100.224 19.4699C100.721 21.7961 100.969 24.1224 101.663 26.398C101.961 27.46 102.358 28.5219 102.755 29.5333C103.747 32.0112 102.656 34.2869 100.472 35.3994C95.8582 37.6751 90.599 37.9785 85.5383 38.0291C79.8326 38.0796 74.0772 38.0291 68.3715 37.8773C65.2458 37.8268 62.1696 37.6245 59.0935 37.2199C57.0593 36.9671 50.7085 36.5625 50.0635 34.1352C50.0635 34.034 50.0139 33.9835 49.9643 33.9329C49.1209 28.8759 43.812 25.9934 38.9001 26.7014C35.9729 22.3524 35.2286 16.638 38.5032 12.1879ZM133.02 52.846C128.753 57.4479 123.543 61.0383 117.887 63.6174C105.682 69.2306 91.7402 70.6466 78.493 70.0397C70.8523 69.6857 63.3108 68.4215 55.8685 66.7527C48.6247 65.0839 42.2244 62.4037 36.7171 57.2456C30.7633 51.7335 26.6452 44.0469 26.4964 35.7534C26.3972 28.3702 29.7214 21.4422 35.4767 17.0932C34.0875 20.633 32.7479 25.0832 34.6333 28.4714C34.1867 28.8253 33.7402 29.1793 33.3433 29.6345C30.4656 32.7192 29.3244 36.9165 31.0114 40.9115C32.351 44.0469 35.5263 46.4236 38.9498 45.9685C38.7017 47.9407 39.1978 50.0647 40.7359 52.0875C44.0601 56.4365 51.0062 56.7904 54.4793 52.5932C54.5289 52.6437 54.5785 52.6437 54.6777 52.5932C57.4066 51.1266 58.895 48.1936 58.6966 45.21C60.2346 44.8054 61.7231 44.6031 63.2115 44.502C63.2611 44.5526 63.3604 44.5526 63.4596 44.502C65.7915 44.4008 68.1234 44.5526 70.4553 44.8054C70.5049 44.8054 70.5546 44.8054 70.5546 44.8054C72.0926 44.9571 73.6803 45.1088 75.268 45.1594C79.2868 45.3617 83.4049 45.4628 87.4733 45.2605C86.7291 45.564 86.2329 46.6259 85.9848 47.3845C84.9925 50.3681 84.546 52.9471 82.3133 55.3239C80.3287 55.3239 78.2945 55.2734 76.2603 55.1722C77.6991 54.5654 79.1876 53.0483 80.2791 52.138C81.5195 51.0761 83.8514 49.2556 83.8514 47.435C83.8514 45.9179 82.1149 45.3111 81.073 46.2719C80.1303 47.081 79.783 48.3959 79.2372 49.5084C78.1457 51.6829 76.7564 53.4528 75.0695 55.1722C73.5315 55.0711 71.9438 54.9194 70.4057 54.7171C72.5888 53.908 74.5734 52.492 75.913 50.5198C76.6076 49.4578 78.1953 47.081 77.0541 45.8168C75.8138 44.4008 74.3253 46.1202 73.7299 47.2328C73.2338 48.2442 72.9361 49.3061 72.4399 50.3175C71.5469 52.138 70.108 53.3011 68.57 54.5148C67.4784 54.3125 66.3869 54.1102 65.345 53.8574C66.7342 53.0989 68.0738 51.5818 69.0661 50.5704C69.86 49.7612 72.043 47.6879 71.0011 46.3225C69.8103 44.8054 67.7265 46.1708 67.0815 47.435C66.2877 49.0027 66.0892 52.7449 64.2534 53.5034C63.0627 53.2 61.9215 52.7954 60.7804 52.3403C61.9215 51.6323 62.9635 50.5198 63.9061 49.559C64.6504 48.8004 66.3869 47.1316 65.4442 46.0191C63.1619 43.1872 61.0781 50.9244 59.9866 52.0875C59.54 51.8852 59.0935 51.6829 58.6469 51.4806C58.4981 51.3795 58.3493 51.6323 58.4981 51.7335C58.8454 51.9863 59.2423 52.1886 59.5896 52.3909C59.6392 52.4414 59.6889 52.5426 59.6889 52.5932C60.185 55.8802 58.3493 59.0661 60.7308 61.898C61.6735 63.0611 63.7077 63.7691 64.5015 61.9991C65.1961 60.3809 63.9061 58.1053 63.2115 56.7399C62.6658 55.7285 61.9712 54.262 61.0781 53.1494C62.12 53.6045 63.2611 54.0091 64.3527 54.3125C64.4023 54.3631 64.5015 54.4137 64.5511 54.4642C66.5854 56.8916 63.7573 66.8033 69.9096 63.8702C73.4818 62.1508 69.3142 56.841 66.238 54.7171C67.2304 54.9194 68.2227 55.0711 69.215 55.2228C71.4476 56.6893 71.0507 60.0775 72.4895 62.1508C73.333 63.3645 75.1191 65.539 76.8061 64.6793C78.6914 63.7185 77.5503 60.9877 76.7564 59.7235C75.6649 57.8018 73.4818 56.133 71.2492 55.4756C72.5392 55.6273 73.8292 55.7285 75.1191 55.8296C75.1191 55.8802 75.1688 55.8802 75.2184 55.9308C75.4168 56.0319 75.5657 56.133 75.7641 56.2342C78.2449 58.257 78.493 61.2406 79.6341 64.1231C80.2295 65.5896 81.4203 67.3595 83.1072 66.0953C84.7445 64.8816 84.0002 62.4037 83.1072 60.9372C81.8668 58.8638 79.386 56.8916 76.9549 55.9813C78.741 56.0825 80.4776 56.133 82.2637 56.1836C84.6949 58.4087 85.6872 66.2976 89.8052 65.5896C92.286 65.1345 91.2937 62.7071 90.3014 61.2912C88.9121 59.3189 86.6298 57.1444 84.1987 56.2342C84.4468 56.2342 84.6949 56.2342 84.8933 56.2342C85.4391 56.2342 86.0345 56.2342 86.6298 56.2342C88.7633 57.3973 90.2517 58.9144 91.8394 60.7855C92.6829 61.7463 93.6256 62.96 94.8659 63.4657C96.2056 63.9714 98.0413 62.96 97.4459 61.3923C96.7513 59.6224 94.0225 58.5098 92.4348 57.7513C91.641 57.3973 90.3014 56.5882 89.1106 56.2342C90.1525 56.1836 91.1944 56.133 92.2363 56.0825C94.3202 57.1444 96.0567 58.4593 97.694 60.1281C98.5871 61.0383 99.5794 62.2014 100.82 62.6565C102.358 63.2634 103.648 61.9486 103.251 60.3303C102.804 58.5098 100.472 57.549 98.984 56.9422C98.0413 56.5376 96.8505 56.0319 95.6598 55.7791C96.8505 55.6273 98.0909 55.4756 99.2817 55.2734C101.911 57.1444 106.178 63.9208 109.006 61.0889C110.296 59.8246 108.361 58.0547 107.419 57.2961C105.88 56.0825 103.797 55.2734 101.762 54.7677C102.556 54.5654 103.35 54.3631 104.144 54.1608C105.88 55.0711 115.506 61.9991 115.754 58.4087C115.853 56.7904 112.231 55.4756 111.239 55.0205C110.147 54.5148 108.212 53.5034 106.625 53.3011C107.369 52.9977 108.113 52.6943 108.808 52.3909C108.808 52.3909 108.808 52.3909 108.808 52.4414C109.651 53.908 116.151 55.5262 118.135 54.1102C118.135 54.1102 118.185 54.1102 118.185 54.1608C121.212 54.9194 126.123 53.5034 128.158 51.0761C131.928 46.4742 131.829 39.6979 126.868 35.9557C126.62 35.7534 126.372 35.6017 126.123 35.45C130.986 34.1857 135.699 29.4322 134.409 24.0718C133.268 19.2171 127.959 15.9301 123.395 15.2726C120.765 14.8681 117.987 15.3738 115.407 16.4357C116.746 14.0084 115.952 11.3788 114.315 9.10313C126.421 11.6316 138.577 20.4308 140.809 33.5283C142.149 40.4564 137.733 47.7385 133.02 52.846ZM77.4511 53.6045C78.493 52.3909 79.2868 50.8232 79.9318 49.4578C80.3287 48.5981 80.8745 46.9293 81.8172 46.5248C82.5118 46.2719 83.256 46.6765 83.3056 47.3845C83.3056 47.789 83.0079 48.2442 82.8095 48.5981C81.8668 50.1658 80.2791 51.43 78.8899 52.5932C78.3937 52.9471 77.8976 53.3011 77.4511 53.6045ZM69.2646 54.5148C70.6538 53.6551 71.8942 52.3909 72.7376 50.9749C73.5315 49.6095 73.7795 47.8902 74.8215 46.6765C75.4168 45.9685 76.6572 45.6651 76.8557 47.0305C76.9053 47.4856 76.558 48.1936 76.3595 48.5981C76.0618 49.205 75.7145 49.8118 75.3176 50.4187C73.8292 52.5426 71.7949 53.4528 69.6119 54.5654C69.463 54.5654 69.3638 54.5148 69.2646 54.5148ZM65.5434 55.0205C66.7838 55.9813 67.9746 56.9927 69.0165 58.2064C69.7111 59.0661 70.6042 60.1786 70.753 61.3417C71.0011 62.96 69.1157 63.8702 67.7265 63.5162C64.8488 62.8083 66.8334 57.6501 65.5434 55.0205ZM66.1388 52.2897C66.9823 49.9635 67.1311 45.9685 69.7111 46.3731C72.043 46.7271 68.818 49.8118 68.173 50.5198C67.528 51.1772 66.8334 51.7335 66.1388 52.2897ZM60.4827 53.554C61.7727 55.4756 63.2611 57.2961 63.9061 59.6224C64.1046 60.2292 64.3527 61.19 63.9558 61.7969C62.7154 63.6174 60.6812 60.6843 60.3339 59.5212C59.6889 57.549 60.6315 55.5768 60.4827 53.554ZM61.3758 50.9244C61.6239 50.4187 61.8719 49.8624 62.0704 49.3567C62.2688 48.9016 64.1046 44.7043 64.9977 46.4236C65.5434 47.4856 63.0131 49.5084 62.3681 50.1152C62.12 50.3681 61.7231 50.6209 61.3758 50.9244ZM70.9019 55.8802C72.8369 57.0433 74.9703 57.549 76.3099 59.6729C77.0541 60.836 77.7487 62.252 76.9549 63.4657C76.2603 64.5276 75.5161 64.2242 74.623 63.4657C74.3253 63.2128 74.0276 62.9094 73.7795 62.606C72.5392 61.0889 72.2415 59.4706 71.6957 57.5996C71.4972 56.9927 71.2492 56.3859 70.9019 55.8802ZM77.8976 57.0939C79.4853 57.903 81.0233 58.7627 82.2637 60.2292C83.0079 61.1395 83.8018 62.5048 83.7026 63.7691C83.6529 64.9827 81.8172 66.1964 80.9737 65.0839C80.676 64.6793 80.4776 64.1231 80.3287 63.6679C79.6341 61.6451 79.2372 58.9144 77.8976 57.0939ZM83.901 56.7399C84.8437 57.195 85.7864 57.549 86.6795 58.1558C87.8206 58.9144 88.8129 59.8246 89.6564 60.8866C90.4502 61.898 92.3356 64.7299 89.6564 64.9322C88.6144 65.0333 87.8702 64.1231 87.3741 63.3645C86.2825 61.7969 85.6872 59.9763 84.8437 58.3075C84.546 57.8018 84.2483 57.195 83.901 56.7399ZM89.6564 57.0939C90.0037 57.195 90.351 57.2961 90.599 57.3973C92.3852 58.1053 94.2706 58.9144 95.8086 60.1281C96.404 60.5832 97.2475 61.2406 96.9498 62.0497C96.1559 64.1231 93.5263 61.2406 92.8813 60.5326C91.889 59.3189 90.8967 58.0547 89.6564 57.0939ZM94.0721 55.9813C96.7513 56.7904 99.8275 57.0433 101.961 59.0155C102.755 59.7741 103.747 62.5048 100.919 61.4934C100.076 61.19 99.2817 60.1281 98.6367 59.4706C97.2475 58.1558 95.8086 56.7904 94.0721 55.9813Z" fill="#010001"/>
</g>
<path opacity="0.2" d="M180.847 35.0284C183.301 31.5932 182.452 27.632 180.406 24.2897C180.029 23.5469 179.525 22.8661 178.959 22.2162C178.644 21.8448 178.204 21.8139 177.795 21.9067C177.448 21.5354 177.039 21.1949 176.567 20.9164C176.41 20.7307 176.19 20.576 175.875 20.5141C175.749 20.4831 175.623 20.4831 175.497 20.4831C175.12 20.3903 174.742 20.2975 174.302 20.2665C173.987 20.2356 173.735 20.3284 173.515 20.4831C173.358 20.5141 173.2 20.5141 173.043 20.545C172.414 20.6379 172.13 21.2259 172.13 21.7829C172.036 21.5354 171.91 21.2878 171.69 21.1021C171.879 20.3594 171.344 19.369 170.463 19.4619C167.221 19.8023 164.515 21.3497 162.627 23.9492C161.683 25.249 163.917 26.456 164.861 25.1562C164.893 25.1252 164.924 25.0633 164.956 25.0324C164.893 25.2181 164.83 25.4038 164.767 25.5894C164.358 26.8892 166.057 27.4772 166.938 26.7654L167.693 26.1465C167.379 27.2915 168.921 28.2509 169.833 27.3225C169.833 27.3225 169.833 27.3225 169.865 27.2915C169.865 27.4772 169.896 27.6629 169.959 27.8486C170.053 28.189 170.274 28.4366 170.525 28.5913C170.966 29.7364 171.281 30.9433 171.501 32.1503C171.721 33.512 171.438 35.1522 171.879 36.4519C172.351 37.8136 173.2 37.9684 174.113 37.6279C174.365 38.0303 174.837 38.2778 175.434 38.0303C175.529 37.9993 175.655 37.9374 175.749 37.9065C176.095 38.1231 176.536 38.154 176.976 37.8755C177.008 37.8755 177.039 37.8446 177.039 37.8136C177.323 37.9684 177.637 38.0303 177.952 37.9065C179.211 37.4423 180.029 36.4519 180.564 35.3069L180.595 35.2759C180.721 35.2141 180.784 35.1212 180.847 35.0284ZM173.546 23.8255C173.483 23.8564 173.421 23.9183 173.389 23.9492C173.389 23.8255 173.421 23.7326 173.421 23.6088C173.452 23.7017 173.515 23.7636 173.546 23.8255Z" fill="#979391"/>
<path opacity="0.2" d="M167.63 36.8542C167.599 36.9161 167.567 36.978 167.536 37.0399C167.284 37.6279 166.875 38.0921 166.434 38.5253C165.742 39.3609 164.955 40.0727 163.886 40.5369C162.847 41.3106 161.683 41.8677 160.33 42.0224C157.655 42.3938 154.256 41.8986 151.928 40.475C151.11 39.9799 150.386 40.506 150.166 41.2178C150.606 41.9605 151.298 42.6413 151.865 43.2912C154.603 44.5601 158.064 44.9005 160.928 44.4672C164.358 43.9721 166.875 41.6201 168.92 38.9895C169.739 37.9373 168.606 36.5447 167.63 36.8542Z" fill="#979391"/>
<path opacity="0.2" d="M176.788 37.1947C175.686 37.3185 173.924 37.3804 173.137 36.452C172.319 35.4616 172.665 33.6048 172.539 32.3979C172.413 31.3766 172.099 30.3863 171.595 29.4269C170.997 28.6532 170.274 27.9724 169.487 27.4463C167.442 26.0536 164.924 25.4966 162.596 26.1155C162.281 26.2084 161.966 26.3322 161.651 26.4869C161.651 26.7035 161.62 26.8892 161.62 27.1059C161.935 26.9511 162.249 26.7964 162.596 26.7345C162.753 26.7035 162.91 26.7345 163.005 26.7964C165.302 26.3631 167.567 26.6726 169.015 28.9317C170.683 31.5004 169.676 33.6976 168.48 36.0497C168.48 36.1425 168.511 36.2044 168.511 36.2972C168.543 36.452 168.574 36.6377 168.637 36.7924C168.637 36.7924 168.637 36.8233 168.606 36.8233C168.134 38.1231 167.819 39.2682 166.875 40.3513C166.088 41.2179 165.176 41.8987 164.169 42.4558C162.092 43.6627 159.732 44.2817 157.309 44.3126C155.673 44.3436 154.005 44.096 152.431 43.6008C152.62 43.7865 152.809 43.9722 152.998 44.1888C153.029 44.2198 153.029 44.2507 153.061 44.2507C153.124 44.2507 153.155 44.2507 153.218 44.2507C153.312 44.2198 153.438 44.2507 153.533 44.2817C154.54 44.7459 155.547 45.2101 156.554 45.6743C156.617 45.5815 156.68 45.5196 156.805 45.4886C157.624 45.241 158.379 45.5196 159.166 45.7671C160.361 45.5196 161.589 45.3958 162.753 45.0863H162.784C163.571 44.5911 164.389 44.1888 165.27 43.8484C165.459 43.7556 165.648 43.6318 165.805 43.508C165.9 43.4151 166.026 43.2913 166.12 43.1985C166.592 42.7033 167.032 42.2082 167.567 41.7749C168.228 40.6299 168.763 39.4229 169.046 38.1541C169.172 37.6589 169.802 37.7518 169.959 38.1231C171.029 38.4945 172.067 38.7421 173.074 38.8659C173.137 38.773 173.2 38.7111 173.358 38.6802C173.798 38.6183 174.176 38.5873 174.616 38.6802C174.711 38.7111 174.805 38.7421 174.837 38.804C175.214 38.773 175.592 38.7111 175.969 38.6802C176.85 38.4635 177.763 38.0922 178.676 37.5042C179.085 37.2566 179.431 36.9781 179.777 36.6686C180.092 36.2044 180.406 35.7402 180.69 35.276C179.651 36.3282 178.298 37.009 176.788 37.1947Z" fill="#211915"/>
<path d="M184.812 22.6804C182.861 21.9067 180.721 21.4735 178.581 21.5044V21.4735C178.329 20.9783 177.637 20.7307 177.165 20.5141C176.724 20.3284 176.284 20.1427 175.812 20.0808C176.032 19.7714 176.284 19.4619 176.536 19.1834C177.291 18.2859 178.392 17.4813 178.864 16.3981C178.959 16.2124 178.77 15.9958 178.55 16.0886C177.039 16.8623 175.12 18.0693 173.892 19.5857C174.459 17.5122 174.585 15.2221 174.616 13.1796C174.616 12.9629 174.364 12.8701 174.207 13.0248C173.326 13.8295 173.357 15.5625 173.137 16.6147C172.885 17.9145 172.602 19.2143 172.445 20.5141C172.193 17.8217 171.343 15.4387 169.518 13.2724C169.424 13.1486 169.172 13.2724 169.235 13.4272C170.242 15.9958 171.123 18.5644 171.595 21.2568C171.595 21.2878 171.595 21.2878 171.627 21.2878C171.281 21.133 170.903 20.9474 170.557 20.7926C170.399 20.7307 170.242 20.9474 170.399 21.0402C171.218 21.5044 172.036 21.9067 172.854 22.3709C173.515 22.7423 174.144 23.2994 174.805 23.6707C174.836 23.7017 174.868 23.7326 174.931 23.7326C174.994 23.7636 175.057 23.7945 175.12 23.8255C175.214 23.8564 175.308 23.7945 175.277 23.6707C176.819 23.3303 178.329 23.2065 179.871 23.1446C179.871 23.1446 179.871 23.1756 179.903 23.1756C182.326 26.3013 183.175 31.0671 181.036 34.5642C178.581 38.5564 173.735 39.4229 169.676 37.4423C170.242 35.6164 170.525 33.6977 170.211 31.9337C170.211 31.8718 170.179 31.8408 170.148 31.8099C170.085 30.6648 169.739 29.5507 169.015 28.5914C167.819 26.9821 165.868 26.0846 163.823 26.1775C163.13 26.2084 162.501 26.3941 161.935 26.6726C161.903 24.3206 163.004 22.3709 165.05 21.133C166.812 20.0499 168.826 19.957 170.808 19.6476C170.871 19.6476 170.871 19.5547 170.808 19.5547C166.497 18.9048 160.55 21.9067 161.431 26.8274C161.431 26.8583 161.463 26.8893 161.463 26.9202C160.204 27.5701 159.071 28.4676 157.623 28.777C155.263 29.2722 152.683 28.3438 150.386 29.2722C148.718 29.953 147.805 31.6551 147.491 33.3263C147.145 35.0284 147.396 36.5758 148.089 37.9065C148.498 39.1135 149.284 40.1657 150.071 41.1869C151.078 42.4867 152.117 43.8175 153.564 44.653C156.239 46.2004 159.826 46.448 162.69 45.3958C165.239 44.4673 167.284 42.6415 168.448 40.2276C168.795 39.5158 169.109 38.773 169.392 37.9684C173.169 40.3513 178.361 38.8659 180.878 35.3998C182.168 33.6048 182.766 31.4695 182.546 29.2722C182.357 27.1678 181.854 24.661 180.154 23.2065C181.633 23.1756 183.144 23.2375 184.686 23.2375C185.063 23.2065 185.095 22.8042 184.812 22.6804ZM151.519 29.4579C153.564 29.0556 155.704 29.6436 157.749 29.1484C159.952 28.6223 161.4 26.7345 163.76 26.6107C166.844 26.425 169.581 28.8389 169.676 31.9027C169.77 34.5642 168.323 36.6686 166.718 38.6492C166.686 38.6802 166.686 38.7111 166.686 38.7421C162.879 41.713 158.033 42.92 153.312 41.4345C150.858 40.6608 148.718 38.9897 148.089 36.421C147.428 33.7286 148.435 30.0768 151.519 29.4579ZM162.564 44.8387C159.763 45.86 156.176 45.6124 153.627 44.065C151.991 43.0747 150.575 41.4345 149.442 39.7324C150.48 40.7537 151.833 41.5273 153.375 41.9916C157.875 43.2913 163.508 42.3939 166.781 38.9278C166.812 38.9278 166.844 38.9278 166.875 38.8968C167.945 37.9993 168.826 36.8233 169.361 35.5236C168.669 39.5467 166.844 43.2604 162.564 44.8387ZM177.039 20.9164C177.385 21.1021 177.731 21.3806 178.109 21.5354C176.756 21.5973 175.403 21.8448 174.113 22.309C174.648 21.6591 175.12 20.9783 175.623 20.2975C176.095 20.5141 176.567 20.6688 177.039 20.9164ZM173.389 17.636C173.578 16.7385 173.641 15.0674 174.081 14.0461C173.924 16.6147 173.357 18.9977 172.791 21.5354C172.76 21.6591 172.728 21.752 172.697 21.8758C172.602 21.8448 172.539 21.7829 172.445 21.752C172.476 21.721 172.476 21.6901 172.476 21.6591C172.476 21.6282 172.476 21.6282 172.476 21.5973C172.854 20.2665 173.106 18.9358 173.389 17.636ZM169.959 14.4175C170.746 15.5006 171.438 16.8004 171.627 18.0383C171.815 19.2143 171.941 20.3903 172.13 21.5663C171.973 21.4735 171.784 21.4116 171.627 21.3187C171.69 21.3187 171.753 21.3187 171.753 21.2568C171.564 18.8739 170.777 16.6147 169.959 14.4175ZM172.917 21.9686L172.948 21.9377C173.043 21.752 173.137 21.5663 173.232 21.4116C174.333 19.4619 176.064 17.9455 178.046 16.8623C177.417 17.7598 176.41 18.5335 175.749 19.3381C174.994 20.2665 174.113 21.2568 173.609 22.34C173.515 22.2781 173.389 22.2162 173.294 22.1543C173.2 22.0924 173.074 22.0305 172.917 21.9686ZM178.99 22.6185C177.637 22.6185 176.19 22.6804 175.025 23.3613C174.805 23.0827 174.522 22.8351 174.207 22.6495C177.228 21.9996 180.123 21.8448 183.05 22.6495C181.665 22.6185 180.312 22.6185 178.99 22.6185Z" fill="black"/>
<path d="M154.099 40.5369C155.955 41.0321 159.732 41.3416 161.116 39.5466C161.777 40.3512 163.13 40.1346 164.043 39.7942C165.71 39.1752 167.221 37.5969 167.567 35.8948C167.976 33.9142 167.441 31.3146 165.679 30.1077C163.445 28.5912 161.053 30.7266 158.725 29.8291C158.725 29.8291 158.693 29.8291 158.662 29.7982H158.63C158.504 29.7363 158.41 29.8601 158.41 29.9529C158.41 29.9839 158.41 30.0458 158.441 30.0767C158.882 30.6338 159.448 31.1289 160.204 31.1599C160.55 31.1908 162.941 30.8195 162.501 31.5931V31.6241C162.312 31.9336 162.155 32.3049 162.532 32.5835C162.941 32.9239 163.508 32.6763 163.948 32.5216C164.294 32.3978 164.955 32.243 164.829 32.8001C164.766 33.0477 164.609 33.2952 164.546 33.5428C164.42 34.0689 164.609 34.8117 165.176 34.9664C165.207 34.9664 165.27 34.9664 165.301 34.9664C165.427 34.9664 165.522 34.9664 165.648 34.9664C165.648 34.9664 165.742 34.9664 165.71 34.9664V34.9973C165.71 35.0592 165.742 35.0902 165.742 35.1521C165.742 35.3997 165.773 35.5234 165.553 35.6472C165.396 35.771 165.207 35.8329 165.05 35.9258C164.766 36.0805 164.515 36.2662 164.42 36.5757C164.263 36.8232 164.294 37.1018 164.231 37.3803C164.137 37.7517 164.043 38.123 163.602 38.2468C163.35 38.3087 163.036 38.2468 162.753 38.2159C162.123 38.1849 161.588 38.4325 161.305 38.9277C161.242 38.8348 161.085 38.8039 160.959 38.9277C160.424 38.4016 159.952 38.3087 159.228 38.6182C158.693 38.8348 158.19 39.1752 157.686 38.711C157.403 38.4325 157.277 37.9373 156.837 37.8445C156.837 37.8445 156.837 37.8445 156.805 37.8445C156.805 37.8445 156.805 37.8445 156.774 37.8445C156.742 37.8445 156.742 37.8445 156.711 37.8445C156.333 37.8445 156.05 37.9683 155.704 38.0611C155.452 38.123 155.169 38.2468 154.917 38.2778C154.13 38.3397 154.288 37.1018 154.004 36.5447C154.004 36.5138 153.973 36.4519 153.941 36.4209C153.69 36.2043 153.344 36.1114 153.06 35.9258C152.651 35.6472 152.903 35.2759 153.123 34.9664L153.155 34.9354C153.344 34.5641 153.564 34.2237 153.469 33.7904C153.344 33.2333 153.155 32.862 153.879 32.6453C153.941 32.6144 153.973 32.5835 154.004 32.5216C154.162 32.4906 154.288 32.4287 154.445 32.3668H154.476C156.302 31.2218 154.854 30.1696 153.155 30.4481C150.763 30.8195 149.63 33.6047 149.851 35.7401C150.197 37.9992 151.865 39.918 154.099 40.5369ZM163.287 38.6801C163.602 38.6801 163.885 38.6491 164.137 38.4634C164.546 38.154 164.798 37.3493 164.704 36.8232C164.704 36.8232 164.735 36.7923 164.735 36.7613C164.861 36.39 165.364 36.2662 165.679 36.1114C166.088 35.8948 166.214 35.6472 166.214 35.214C166.214 34.9664 166.151 34.6569 165.836 34.595C165.648 34.5331 165.49 34.595 165.301 34.595C164.766 34.4403 164.955 33.6666 165.113 33.3262C165.207 33.1096 165.333 32.8929 165.301 32.6763C165.238 31.9026 164.389 32.0264 163.854 32.1811C163.602 32.274 163.225 32.4597 162.941 32.3978C162.627 32.3359 162.753 32.0883 162.847 31.9026L162.878 31.8717C163.225 31.098 162.501 30.8195 161.777 30.7576C161.368 30.7266 160.959 30.8195 160.55 30.8504C160.109 30.8813 159.763 30.7266 159.448 30.51C159.92 30.6338 160.424 30.6028 160.959 30.5409C161.84 30.4171 162.753 29.9839 163.665 30.0458C165.144 30.1386 166.151 31.0361 166.686 32.3359C167.473 34.2856 167.284 36.5447 165.805 38.0921C164.924 39.0205 162.564 40.475 161.399 39.2371C161.934 38.5253 162.501 38.6491 163.287 38.6801ZM150.543 33.8523C150.763 33.0477 151.141 32.274 151.77 31.686C152.305 31.1599 152.966 30.8813 153.753 30.8195C155.106 31.2218 155.326 31.655 154.414 32.0573C154.256 32.1502 154.099 32.243 153.941 32.3359H153.91C153.407 32.4597 152.997 32.7072 153.06 33.2952C153.092 33.5119 153.155 33.6976 153.218 33.9142C153.281 34.2237 153.092 34.5022 152.935 34.7807C152.683 35.1211 152.337 35.6782 152.714 36.0805C152.997 36.39 153.469 36.4519 153.784 36.7304C154.162 37.3803 153.753 38.2468 154.634 38.6182C154.886 38.711 155.106 38.6801 155.358 38.5872C155.578 38.5253 155.767 38.5253 155.955 38.4634C156.27 38.4016 156.49 38.2468 156.805 38.2778C157.246 38.4016 157.309 39.0514 157.655 39.2681C157.875 39.3919 158.316 39.3609 158.536 39.33C159.448 39.1443 159.92 38.4325 160.77 39.2681C159.606 40.475 157.371 40.3822 155.83 40.2584C154.162 40.1346 152.683 39.6704 151.581 38.3397C150.512 37.1018 150.134 35.4306 150.543 33.8523Z" fill="black"/>
<path d="M154.603 33.7905C154.76 33.7595 154.98 33.7286 155.043 33.5429C155.075 33.45 154.98 33.3881 154.886 33.4191C154.886 33.3881 154.886 33.3262 154.823 33.2953C154.634 33.2024 154.414 33.1096 154.225 33.2334C154.099 33.3262 154.005 33.5119 154.068 33.6357C154.162 33.8524 154.445 33.8215 154.603 33.7905ZM154.508 33.5119C154.603 33.481 154.666 33.5119 154.76 33.5119C154.697 33.5429 154.634 33.5429 154.571 33.5429C154.54 33.5429 154.508 33.5429 154.445 33.5429C154.477 33.5429 154.508 33.5119 154.508 33.5119Z" fill="black"/>
<path d="M154.13 35.4926C154.256 35.6783 154.539 35.6474 154.728 35.6164C154.949 35.5855 155.106 35.4926 155.232 35.3379C155.263 35.276 155.263 35.2141 155.232 35.1522C155.232 35.1522 155.232 35.1522 155.232 35.1213C155.232 35.0903 155.2 35.0903 155.169 35.0594C155.169 35.0284 155.137 35.0284 155.106 34.9975C154.854 34.9356 154.634 34.8737 154.382 34.9975C154.162 35.0903 153.973 35.307 154.13 35.4926Z" fill="black"/>
<path d="M155.169 37.3185C155.326 37.5351 155.61 37.5041 155.798 37.3494C156.019 37.1947 156.239 36.8852 156.239 36.6376C156.239 36.5757 156.207 36.5448 156.176 36.5138C156.176 36.5138 156.176 36.5138 156.207 36.5138C156.302 36.4519 156.207 36.3281 156.113 36.3281C155.735 36.2972 154.823 36.8542 155.169 37.3185ZM155.515 37.0399C155.61 36.9161 155.735 36.8233 155.861 36.7305C155.798 36.8233 155.767 36.9161 155.704 37.009C155.672 37.0709 155.61 37.1328 155.547 37.1637C155.452 37.1637 155.484 37.1018 155.515 37.0399Z" fill="black"/>
<path d="M158.127 38.4325C158.441 38.4944 158.567 38.154 158.63 37.9064C158.693 37.6589 158.819 37.2875 158.504 37.1947C158.473 37.1947 158.441 37.1947 158.41 37.2256C158.41 37.2256 158.41 37.2566 158.378 37.2566C158.127 37.3494 157.938 37.5351 157.875 37.7827C157.781 38.0612 157.812 38.3706 158.127 38.4325ZM158.253 37.9064C158.253 37.8755 158.284 37.8755 158.284 37.8446C158.284 37.8446 158.253 37.8755 158.253 37.9064Z" fill="black"/>
<path d="M160.896 31.9646C160.77 31.9337 160.707 31.8718 160.613 31.8099C160.518 31.7789 160.392 31.8718 160.455 31.9646C160.613 32.3669 161.274 32.336 161.557 32.1194C161.714 31.9956 161.777 31.748 161.525 31.6551C161.274 31.5623 160.927 31.6861 160.676 31.717C160.613 31.717 160.613 31.8099 160.676 31.8408C160.833 31.8718 160.99 31.9027 161.179 31.9337C161.179 31.9337 161.211 31.9337 161.242 31.9337C161.085 31.9646 160.99 31.9956 160.896 31.9646Z" fill="black"/>
<path d="M163.602 33.0788C163.288 33.1407 163.004 33.2645 162.753 33.4502C162.627 33.4811 162.501 33.6668 162.627 33.7597C162.816 33.9144 163.162 33.8525 163.382 33.7906C163.602 33.7287 163.949 33.6049 163.98 33.3573C164.043 33.1407 163.791 33.0479 163.602 33.0788Z" fill="black"/>
<path d="M163.161 35.3688C163.382 35.4926 163.633 35.5854 163.885 35.6164C164.074 35.6473 164.357 35.7092 164.483 35.4926C164.703 34.9974 163.791 34.9045 163.508 34.9664C163.445 34.9664 163.445 35.0593 163.476 35.1212C163.445 35.0902 163.413 35.0902 163.382 35.0593C163.13 34.9355 162.973 35.245 163.161 35.3688Z" fill="black"/>
<path d="M162.06 37.0709C161.966 37.009 161.871 36.7304 161.714 36.7923C161.525 36.8852 161.683 37.1637 161.777 37.2566C161.997 37.4423 162.815 37.8756 162.91 37.3804C163.036 36.8852 162.218 36.6376 161.871 36.5138C161.809 36.4519 161.714 36.6376 161.809 36.6995C161.934 36.7923 162.06 36.8852 162.186 36.978C162.312 37.0399 162.438 37.1018 162.532 37.1947C162.564 37.2256 162.564 37.2566 162.595 37.2875C162.564 37.2875 162.532 37.2875 162.501 37.2566C162.343 37.2256 162.186 37.1637 162.06 37.0709Z" fill="black"/>
<path opacity="0.2" d="M68.0397 88.4925C67.4939 89.0658 66.6717 89.3994 65.9445 88.9374C64.0928 87.8039 62.2843 86.5052 60.5967 85.1763C60.4369 85.139 60.2771 85.1016 60.0639 85.0518C59.1481 84.6626 58.2856 84.2859 57.3554 83.9517C56.9061 84.3724 56.3546 84.5356 55.6764 84.3187C49.2038 82.047 42.9199 79.7026 37.6384 75.2561C36.9961 75.9822 36.4647 76.5005 36.315 76.6407C35.6525 77.0116 34.8058 77.2226 34.1031 76.8832C33.2017 76.4389 33.4077 75.4357 32.8159 74.8886C31.6036 73.9044 33.2497 71.7191 34.5441 72.6056C35.1647 73.0427 36.6338 69.5894 37.2834 67.7553C36.2956 67.6413 36.0552 66.1834 37.1727 65.802C38.3722 65.3229 40.2975 64.6631 41.3444 65.1997C41.3976 65.2121 41.3977 65.2122 41.4509 65.2246C41.4509 65.2246 41.4509 65.2246 41.5042 65.237C41.5575 65.2495 41.5575 65.2495 41.5964 65.317C43.6425 66.788 45.978 67.801 47.9953 69.3821C49.4064 70.4711 50.7887 71.6702 52.171 72.8693C53.7851 73.8306 55.3316 74.8344 56.8636 75.8933C57.0091 75.9857 57.1401 76.1331 57.2178 76.2681C57.6153 76.4778 58.0271 76.6324 58.4245 76.8421C58.4202 77.0747 58.5901 77.2896 58.8276 77.462C61.1689 78.8851 63.1531 80.809 65.4656 82.3422L65.5188 82.3547C65.5577 82.4222 65.5577 82.4222 65.5966 82.4897C67.5908 84.591 70.0544 86.6269 72.5368 88.3751C72.626 89.3305 71.592 90.257 70.5841 89.7879C69.6582 89.2211 68.849 88.8568 68.0397 88.4925Z" fill="#979391"/>
<path opacity="0.2" d="M71.4064 92.0888C70.9932 91.9322 70.6189 91.844 70.2057 91.6874C70.1667 91.6191 70.1133 91.6065 70.0598 91.5939C68.2163 90.3903 66.1459 89.843 64.0364 89.2272C62.2333 88.7429 60.5559 87.9925 58.7816 87.3967C56.0972 85.9357 53.2148 85.0195 50.2168 84.549C47.7664 83.4981 45.1903 82.7132 42.8078 81.6191C39.9053 80.3432 37.085 78.9685 34.2359 77.7053C34.1044 77.556 34.0409 77.3636 33.9629 77.2269C35.6954 76.4527 37.3152 75.2379 38.6577 73.7803C39.3338 74.2354 39.942 74.7337 40.6037 75.2446C42.0875 76.3041 43.6536 77.2648 45.3166 78.071C49.1192 80.0322 53.1055 81.5045 57.0917 82.9767C61.2383 84.4868 65.4138 85.8854 69.6428 87.2966C70.5371 87.5667 71.4315 87.8367 72.3937 88.0636C72.4862 88.1446 72.5786 88.2255 72.6855 88.2507C73.9222 89.6069 75.2123 90.9756 76.6137 92.134C76.6729 92.5619 76.6396 92.9089 76.378 93.2612C74.7208 92.8704 73.0636 92.4796 71.4064 92.0888Z" fill="#211915"/>
<path d="M36.1463 77.6614C36.1609 77.6072 36.2138 77.6192 36.1991 77.6734C36.1845 77.7277 36.1317 77.7157 36.1463 77.6614Z" fill="#010001"/>
<path d="M73.5218 92.9868C69.0435 91.6049 64.6483 90.1234 60.2297 88.5178C52.0915 85.6447 43.2264 82.9613 35.7418 78.6947C33.1941 78.5266 31.2251 75.3453 32.0861 72.7529C22.7279 70.0159 13.7347 65.7005 5.41355 60.7675C5.07161 60.5705 5.32713 60.0354 5.71386 60.0647C10.1057 60.7145 14.3332 61.9796 18.4331 63.5122C20.1261 64.1374 21.8723 64.7747 23.6185 65.4121C17.8055 62.0626 12.3393 58.2583 7.52851 53.4765C7.25461 53.2357 7.56324 52.7128 7.88193 52.7858C14.9246 54.6957 21.2871 58.9427 27.4372 63.141C22.6597 59.079 18.3784 54.0029 14.7792 48.905C14.6264 48.6326 14.9285 48.3456 15.1791 48.4624C19.289 50.5908 22.7733 53.585 26.1448 56.7908C29.2955 59.7679 32.8246 62.5943 35.7795 65.8827C37.2348 64.0199 41.4138 62.7217 42.893 64.7818C48.6761 68.2431 53.9035 72.9424 59.144 77.1698C64.9473 81.8229 70.6526 86.6316 76.1921 91.6397C76.3132 91.6081 76.5107 91.7127 76.534 91.8367C77.1418 93.994 74.6753 93.3104 73.5218 92.9868ZM16.132 49.749C18.8613 53.4606 21.8394 56.873 25.1047 60.0545C28.5144 63.3284 32.3156 65.9797 36.0423 68.9107C36.278 69.0834 35.961 69.4262 35.7635 69.3216C35.1709 69.0078 34.5933 68.6381 34.0687 68.2806C34.0007 68.3243 33.9476 68.3122 33.9094 68.2441C26.0131 63.4084 18.2096 57.1694 9.31286 54.1819C16.8925 61.2599 26.1065 65.8039 35.1928 70.6154C35.5878 70.8246 35.2493 71.4593 34.8543 71.2502C32.796 70.3039 30.7527 69.3017 28.7243 68.2435C21.6949 65.8618 15.0786 62.5658 7.6742 61.1666C16.2293 65.8564 25.1361 69.4397 34.3599 72.6801C35.1 72.0187 35.7572 71.457 36.2384 70.4988C36.7494 69.4288 36.7907 68.4292 36.8619 67.3178C29.4187 62.0516 24.0349 54.3488 16.132 49.749ZM75.8984 92.1066C70.4204 87.2906 64.8213 82.5063 59.1773 77.8897C53.8837 73.6501 48.069 69.8847 42.9413 65.4457C42.9794 65.5138 43.0176 65.5819 43.0558 65.65C43.094 65.7181 43.011 65.8178 42.9728 65.7497C42.8434 65.6013 42.6989 65.5089 42.6226 65.3727C42.5844 65.3046 42.6524 65.2608 42.7055 65.273C42.7055 65.273 42.7055 65.273 42.6524 65.2608C41.6051 64.9616 40.7237 64.4629 39.5569 64.6112C38.2158 64.7788 37.1803 65.4913 36.0385 66.1795C36.2975 66.4762 36.5564 66.7729 36.8154 67.0697C36.8602 66.9019 36.8369 66.7778 36.8817 66.61C36.9265 66.4422 37.1157 66.3669 37.1771 66.559C37.7384 68.4682 36.7664 71.6881 34.9143 72.9258C35.2712 73.0669 35.107 73.6822 34.7501 73.5411C34.0065 73.3708 33.2247 73.1324 32.496 72.9061C32.5693 74.11 32.6956 75.326 33.3896 76.3159C33.6718 76.7367 34.037 77.0578 34.4702 77.3351C35.2569 76.9217 35.9904 76.4962 36.6774 75.8226C37.3495 75.2049 37.922 74.327 38.6174 73.8334C38.7534 73.7458 38.8829 73.8942 38.8381 74.062C38.3952 75.0883 37.436 75.937 36.6278 76.6422C36.1216 77.0604 35.5773 77.4106 34.9417 77.6805C35.3749 77.9578 35.8762 78.1913 36.3775 78.4248C36.3775 78.4248 36.4306 78.437 36.4156 78.4929C36.8787 78.6583 37.3568 78.7678 37.873 78.9454C38.1601 78.7144 38.4854 78.5515 38.7575 78.3764C39.1658 78.1138 39.506 77.895 39.9375 77.7564C40.1267 77.681 40.2944 77.8975 40.1965 78.0531C39.8347 78.5638 39.2755 78.9699 38.7461 79.2641C39.4598 79.5463 40.2416 79.7847 40.9553 80.0669C41.576 79.853 42.1287 79.6828 42.673 79.3326C43.0132 79.1138 43.3153 78.8268 43.5642 78.5277C43.7982 78.2845 43.9259 78.017 44.2512 77.8541C44.3873 77.7666 44.5317 77.859 44.54 78.039C44.5584 78.8148 43.576 79.5394 42.9636 79.9334C42.6234 80.1522 42.2301 80.3589 41.8666 80.4537C42.4741 80.7116 43.0965 80.9135 43.7041 81.1713C43.719 81.1154 43.7339 81.0595 43.802 81.0157C44.3314 80.7215 44.8674 80.1913 45.4582 80.0893C45.6325 80.0698 45.7089 80.206 45.6641 80.3738C45.4086 80.9089 44.8111 81.2468 44.2585 81.417C45.2759 81.8282 46.3466 82.2514 47.3491 82.7185C47.9018 82.5483 48.4163 82.31 48.8926 82.0036C49.3689 81.6972 49.6924 81.1184 50.2069 80.8802C50.3281 80.8486 50.4725 80.941 50.4957 81.065C50.4909 81.7168 49.6976 82.3661 49.2213 82.6725C48.9491 82.8475 48.6239 83.0105 48.3135 83.1174C49.2248 83.5042 50.1892 83.9032 51.1004 84.29C51.3045 84.1587 51.5087 84.0273 51.7128 83.896C51.9999 83.665 52.2339 83.4218 52.5442 83.3149C52.6654 83.2833 52.7567 83.3635 52.765 83.5435C52.6838 84.0591 52.2606 84.3776 51.7461 84.6159C52.7636 85.027 53.7811 85.4382 54.7604 85.7812C55.1155 85.5064 55.562 85.3119 55.9553 85.1052C56.3636 84.8426 56.7784 84.3441 57.2099 84.2055C57.3311 84.1739 57.4755 84.2663 57.4307 84.4341C57.3345 85.0056 56.6691 85.3874 56.2459 85.7059C55.9886 85.8251 55.7165 86.0002 55.4592 86.1193C56.4916 86.4745 57.5622 86.8978 58.6478 87.2651C58.8901 87.2019 59.1473 87.0828 59.3365 87.0074C59.6618 86.8445 59.9638 86.5575 60.236 86.3825C60.3721 86.2949 60.5165 86.3873 60.4717 86.5552C60.3523 87.0026 59.9673 87.3893 59.5209 87.5838C60.394 87.9025 61.267 88.2212 62.1019 88.4718C63.0031 88.2627 63.7283 87.6572 64.4004 87.0395C64.5365 86.952 64.6959 86.9885 64.6511 87.1563C64.374 87.9832 63.7169 88.5449 62.975 88.7905C63.6506 89.0045 64.3112 89.2746 64.9336 89.4765C65.9661 89.8317 67.0516 90.199 68.084 90.5542C68.2881 90.4229 68.4392 90.2794 68.6582 90.0922C68.8773 89.9049 69.1345 89.7858 69.3917 89.6666C69.5129 89.635 69.6042 89.7153 69.5743 89.8272C69.4698 90.2187 69.1529 90.5616 68.8127 90.7805C69.2227 90.9337 69.6476 91.031 70.0576 91.1843C70.5804 91.126 75.3408 92.9286 75.8984 92.1066Z" fill="#010001"/>
<defs>
<clipPath id="clip0">
<rect x="26" width="116" height="71" fill="white"/>
</clipPath>
</defs>
</svg>
