<svg width="49" height="28" viewBox="0 0 49 28" fill="none" xmlns="http://www.w3.org/2000/svg">
<g clip-path="url(#clip0)">
<path d="M41.9476 0.948242C41.7805 0.948242 41.6691 0.948242 41.502 0.948242C41.7805 0.948242 41.9476 1.00402 42.0033 1.11557H42.059C42.0033 1.0598 41.9476 1.00402 41.9476 0.948242Z" fill="black"/>
<path d="M39.8867 0.892466C40.4438 0.892466 40.9452 0.892466 41.5022 0.892466C41.0566 0.836688 40.3881 0.892466 39.8867 0.892466Z" fill="black"/>
<path d="M22.9515 1.00405C22.6173 1.00405 22.2273 1.05983 21.8931 1.05983C22.2273 1.05983 22.6173 1.05983 22.9515 1.05983C26.294 1.05983 29.6921 0.892499 33.0345 0.892499C35.0957 0.892499 37.1012 0.948276 39.1624 0.948276C39.2738 0.948276 39.5523 0.892499 39.9423 0.892499C34.2601 0.836722 28.5222 0.557837 22.9515 1.00405Z" fill="black"/>
<path d="M14.4839 1.00403C16.935 1.17136 19.4418 1.22714 21.8373 1.11558C19.3861 1.05981 16.935 1.05981 14.4839 1.00403Z" fill="black"/>
<path d="M2.95264 14.7252C3.00834 15.1714 3.23117 15.6176 3.34259 16.0638C3.23117 15.6176 3.06405 15.1714 2.95264 14.7252C2.95264 14.6694 2.95264 14.6694 2.95264 14.7252Z" fill="black"/>
<path d="M5.73779 11.8248C5.73779 11.9921 5.7935 12.1595 5.7935 12.3826C5.7935 12.1595 5.7935 11.9921 5.73779 11.8248C5.7935 11.769 5.73779 11.769 5.73779 11.8248Z" fill="black"/>
<path d="M5.01366 15.7292C4.84654 16.2312 4.62371 16.7332 4.40088 17.1794C4.62371 16.7332 4.95795 16.2312 5.01366 15.7292Z" fill="black"/>
<path d="M5.01364 15.5619C5.01364 15.6176 5.01364 15.6734 5.01364 15.7292C5.01364 15.6734 5.01364 15.6176 5.01364 15.5619C5.06935 15.5061 4.95793 15.5061 5.01364 15.5619Z" fill="black"/>
<path d="M7.46483 27.6097C7.18629 26.3268 6.5178 19.8567 5.90502 13.5539C5.84931 13.1635 5.84931 12.773 5.79361 12.3826C5.79361 12.4384 5.79361 12.4941 5.79361 12.4941C5.23653 7.13955 4.73517 2.17541 4.45663 1.11565C4.45663 1.00409 4.40092 0.948318 4.40092 0.892541C4.67946 0.780987 4.95799 0.72521 5.29224 0.669434C5.0137 0.72521 4.67946 0.780987 4.34521 0.892541C4.34521 0.892541 4.34521 0.892541 4.28951 0.892541C4.28951 1.00409 4.28951 1.05987 4.34521 1.17143L4.06668 1.28298C4.06668 1.45031 4.06668 1.61764 4.06668 1.72919C4.17809 1.56186 4.2338 1.39453 4.40092 1.2272C4.62375 2.95629 4.90229 4.62959 5.12512 6.35868C4.67946 8.4782 4.56804 10.5977 4.12238 12.6615C3.84385 13.8886 3.62102 15.1714 3.4539 16.3985C3.39819 16.287 3.39819 16.1754 3.34248 16.1196C3.39819 16.2312 3.39819 16.3427 3.4539 16.4543C3.39819 17.0678 3.28677 17.6814 3.23107 18.2949C3.28677 17.7372 3.39819 17.1794 3.5096 16.6216C3.67673 17.3467 3.73243 18.1276 3.89955 18.9085C3.89955 19.8009 3.56531 20.6933 3.17536 21.53C3.56531 20.7491 3.89955 19.8567 3.89955 18.9643C3.89955 19.0758 3.95526 19.2431 3.95526 19.3547H4.01097C3.95526 19.1874 3.95526 18.9643 3.89955 18.7969C3.95526 18.2392 4.12238 17.7372 4.34521 17.2352C4.34521 17.2909 4.28951 17.2909 4.28951 17.3467C4.06668 17.7929 3.89955 18.2392 3.84385 18.7411C3.73243 18.1276 3.67673 17.5698 3.5096 16.9563C3.5096 16.8447 3.4539 16.789 3.4539 16.6774C4.01097 13.3866 4.84658 10.2073 5.06941 6.80489C5.12512 7.30688 5.18082 7.80888 5.23653 8.31087C5.45936 10.3746 5.45936 12.4384 5.62648 14.5021V18.2392C5.62648 18.2949 5.68219 18.2949 5.68219 18.2392V15.0599C5.68219 15.2272 5.7379 15.4503 5.7379 15.6176C6.01644 17.8487 6.40639 20.024 6.62922 22.2551C6.68492 22.9802 6.74063 23.7053 6.79634 24.4304C6.5178 24.3188 6.01644 24.3746 5.7379 24.3746C4.79087 24.2631 3.89955 24.4304 2.95253 24.4304C2.89682 24.4304 2.89682 24.4862 2.89682 24.4862C2.67399 24.4862 2.45116 24.5977 2.28404 24.6535C1.44843 24.9882 0.891357 24.8208 0.222868 25.4344C0.557113 22.8129 1.39272 20.3029 1.78267 17.6814C2.06121 15.8965 1.9498 14.1674 2.17263 12.3826C2.33975 10.6535 2.61829 8.98019 2.89682 7.30688C2.84111 7.41844 2.84111 7.58577 2.78541 7.69732C2.39546 9.59374 2.22833 11.2113 2.0055 13.1077C1.78267 15.1156 1.9498 17.0678 1.44843 19.0758C0.891357 21.1953 0.557113 23.3706 0.167161 25.4902C0.167161 25.4902 0.167161 25.4902 0.111454 25.5459C0.0557463 25.6017 0.111454 25.6575 0.167161 25.6575C0.779942 25.8806 1.61555 25.6575 2.22833 25.6575H3.73243C3.84385 25.6575 4.12238 25.6017 4.34521 25.6017C4.17809 25.6575 4.01097 25.769 3.84385 25.769C3.67673 25.8248 3.56531 25.769 3.4539 25.8248C3.23107 25.8806 3.06394 25.9364 2.84111 25.9364C2.78541 25.9364 2.78541 26.0479 2.84111 26.0479C3.11965 26.0479 3.4539 25.9921 3.73243 25.9364C3.84385 25.9364 4.01097 25.8806 4.12238 25.8248C4.28951 25.769 4.40092 25.6575 4.56804 25.6017C4.62375 25.6017 4.62375 25.6017 4.67946 25.6575C5.34795 26.2153 6.29497 26.6615 6.90775 27.275C6.79634 27.275 6.68492 27.275 6.62922 27.3308C6.62922 27.3308 6.62922 27.3866 6.62922 27.3308C6.74063 27.275 6.85205 27.275 6.90775 27.2192C7.07487 27.3866 7.18629 27.5539 7.2977 27.7212C7.2977 27.777 7.35341 27.7212 7.35341 27.7212L7.2977 27.6654C7.40912 27.6654 7.46483 27.6097 7.46483 27.6097ZM4.51234 25.4902C4.01097 25.6017 3.4539 25.5459 2.95253 25.5459C2.50687 25.5459 2.11692 25.5459 1.67126 25.6017C1.72697 25.6017 1.72697 25.5459 1.78267 25.5459C1.9498 25.4344 2.22833 25.3228 2.33975 25.1555C2.39546 25.0997 2.33975 25.0439 2.28404 25.0997C2.11692 25.2113 2.0055 25.3228 1.83838 25.3786C1.72697 25.4344 1.61555 25.6017 1.50414 25.6017C1.33702 25.6017 1.16989 25.6575 0.947064 25.6575C1.16989 25.4902 1.50414 25.3786 1.67126 25.1555C1.67126 25.0997 1.67126 25.0439 1.61555 25.0997C1.33702 25.2113 1.05848 25.4344 0.835649 25.6017C0.835649 25.6017 0.835649 25.6017 0.835649 25.6575C0.668527 25.6575 0.501405 25.6575 0.389991 25.6575C1.50414 24.4862 3.39819 24.5419 4.51234 25.4902ZM7.07487 27.275C7.13058 27.275 7.13058 27.2192 7.07487 27.275C7.07487 27.2192 7.07487 27.2192 7.07487 27.275C6.23926 26.2153 4.62375 25.5459 3.62102 24.6535C3.62102 24.5977 3.5096 24.5419 3.4539 24.5419C4.06668 24.5419 4.67946 24.4862 5.34795 24.4862C5.79361 24.4862 6.40639 24.4862 6.90775 24.5419C6.96346 25.6017 7.07487 26.6615 7.35341 27.6654C7.242 27.4981 7.18629 27.3866 7.07487 27.275Z" fill="black"/>
<path d="M5.29224 0.669415C5.96073 0.613638 6.62921 0.669415 7.2977 0.669415C8.07761 0.669415 8.91322 0.613638 9.69312 0.613638C8.24473 0.557861 6.57351 0.502084 5.29224 0.669415Z" fill="black"/>
<path d="M9.69312 0.669344C10.3616 0.725121 11.0301 0.780898 11.5315 0.836674C12.5342 0.948228 13.4812 1.00401 14.484 1.00401C13.4812 0.948228 12.4785 0.836674 11.5315 0.725121C10.9744 0.669344 10.3059 0.613567 9.69312 0.669344Z" fill="black"/>
<path d="M3.50971 4.12754C3.34259 5.1873 3.11976 6.24707 2.95264 7.30683C3.3983 5.57774 3.95537 3.56977 4.06678 1.78491C3.73254 2.51001 3.62112 3.514 3.50971 4.12754Z" fill="black"/>
<path d="M48.0754 24.5419C48.1311 24.765 48.0754 24.7092 48.0754 24.5419V24.5419Z" fill="black"/>
<path d="M47.9083 24.6534C47.8526 24.4303 47.7969 24.263 47.7412 24.0399C47.8526 23.9841 47.964 24.3187 48.0754 24.5419C48.0197 24.3745 47.9083 23.9841 47.7412 23.3148C47.4626 22.1992 47.1284 21.0837 46.8498 19.9682C46.2371 17.9044 45.7357 15.8407 45.1229 13.7769C45.0672 13.4423 44.9558 13.1076 44.9001 12.7729C44.6215 11.4343 44.2316 10.0956 43.8974 8.757C43.7859 8.31078 43.6745 7.80879 43.6188 7.36257C43.4517 6.5817 43.2289 5.8566 42.9503 5.1315C42.7275 3.84863 42.6718 2.56576 42.2261 1.28289V1.22712C42.2261 1.17134 42.2261 1.17134 42.1704 1.11556C42.1704 1.05979 42.059 1.05979 42.1147 1.11556C42.1147 1.11556 42.059 1.11556 42.0033 1.11556C42.0033 1.17134 42.0033 1.17134 42.059 1.22712V1.17134C42.059 1.11556 42.1147 1.28289 42.1147 1.28289V1.33867C42.1147 1.33867 42.1147 1.39445 42.1704 1.39445C42.3932 2.34265 42.5047 3.29086 42.6718 4.29485C42.449 3.62552 42.2818 2.90042 42.1147 2.2311C42.1147 2.17532 42.059 2.2311 42.059 2.2311C42.5047 5.80082 43.7859 9.25899 44.4544 12.7729C44.9001 15.004 45.7914 17.1235 46.1814 19.3546C46.5156 21.0837 46.9055 23.0359 47.5183 24.7092C47.4069 24.7092 47.2955 24.7092 47.1284 24.7092C45.9585 24.4861 44.6772 24.5976 43.4517 24.765C42.059 24.8207 40.6663 24.9323 39.2179 25.0438C38.3823 25.0996 37.491 25.1554 36.6554 25.267C33.9257 25.4901 31.2518 25.7689 28.5221 25.8805C25.0683 25.9921 21.3916 26.2709 18.0491 26.8287C15.8208 27.2191 13.6482 27.6654 11.3642 27.4423C10.083 27.3307 8.57887 27.2749 7.3533 27.7211C7.2976 27.7769 7.2976 27.8885 7.3533 27.8885C7.3533 27.9442 7.3533 28 7.40901 27.9442C9.02453 27.7769 10.6957 27.9442 12.3113 27.8885C13.9825 28.0558 15.7094 27.6654 17.3249 27.3307C17.7149 27.2749 18.1605 27.1634 18.6062 27.1076C18.7733 27.1076 18.8847 27.0518 19.0519 27.0518C20.0546 26.9403 21.0573 26.8845 22.1158 26.8287C24.2883 26.7172 26.4609 26.7172 28.5221 26.5498C30.1376 26.3825 47.4626 25.0996 47.4626 25.0996C47.4626 25.4343 47.9083 25.4343 47.964 25.1554C48.0197 25.0996 48.0197 25.0438 48.0197 24.9881C48.0197 24.9323 48.0197 24.9323 48.0197 24.8765C48.0197 24.7092 47.964 24.6534 47.9083 24.6534ZM7.74326 27.7211C8.69028 27.498 9.74872 27.5538 10.7515 27.6654C9.74872 27.6096 8.74599 27.5538 7.74326 27.7211Z" fill="black"/>
<path d="M5.51528 0.502046C5.51528 0.390492 5.62669 0.0558305 5.84952 0.167384C6.01664 0.223161 6.12806 0.557822 6.18376 0.669376C6.18376 0.725153 6.62942 1.50603 6.35089 1.56181C6.29518 1.56181 6.29518 1.67336 6.35089 1.67336C6.85225 1.61758 6.29518 0.669376 6.18376 0.446269C6.12806 0.334715 5.90523 -0.1115 5.6824 5.35715e-05C5.51528 0.0558305 5.45957 0.278938 5.51528 0.502046Z" fill="black"/>
<path d="M6.51792 0.502046C6.51792 0.390492 6.62934 0.0558305 6.85217 0.167384C7.01929 0.223161 7.1307 0.557822 7.18641 0.669376C7.18641 0.725153 7.63207 1.50603 7.35353 1.56181C7.24212 1.56181 7.24212 1.67336 7.29783 1.67336C7.79919 1.61758 7.24212 0.669376 7.1307 0.446269C7.075 0.334715 6.85217 -0.1115 6.62934 5.35715e-05C6.51792 0.0558305 6.46222 0.278938 6.51792 0.502046C6.46222 0.502046 6.51792 0.502046 6.51792 0.502046Z" fill="black"/>
<path d="M7.46484 0.502046C7.46484 0.390492 7.57626 0.0558305 7.79909 0.167384C7.96621 0.223161 8.07762 0.557822 8.13333 0.669376C8.13333 0.725153 8.57899 1.50603 8.30045 1.56181C8.24475 1.56181 8.24475 1.67336 8.30045 1.67336C8.80182 1.61758 8.24475 0.669376 8.13333 0.446269C8.07762 0.334715 7.8548 -0.1115 7.63197 5.35715e-05C7.52055 0.0558305 7.46484 0.278938 7.46484 0.502046Z" fill="black"/>
<path d="M8.46763 0.502046C8.46763 0.390492 8.57904 0.0558305 8.80187 0.167384C8.969 0.223161 9.08041 0.557822 9.13612 0.669376C9.13612 0.725153 9.58178 1.50603 9.30324 1.56181C9.24753 1.56181 9.24753 1.67336 9.30324 1.67336C9.80461 1.61758 9.24753 0.669376 9.13612 0.446269C9.08041 0.334715 8.85758 -0.1115 8.63475 5.35715e-05C8.46763 0.0558305 8.41192 0.278938 8.46763 0.502046C8.41192 0.502046 8.46763 0.502046 8.46763 0.502046Z" fill="black"/>
<path d="M9.41479 0.502046C9.41479 0.390492 9.52621 0.0558305 9.74904 0.167384C9.91616 0.223161 10.0276 0.502046 10.0276 0.669376C10.0276 0.725153 10.4732 1.50603 10.1947 1.56181C10.139 1.56181 10.139 1.67336 10.1947 1.67336C10.6961 1.61758 10.139 0.669376 10.0276 0.446269C9.97187 0.334715 9.74904 -0.1115 9.52621 5.35715e-05C9.4705 0.0558305 9.41479 0.278938 9.41479 0.502046Z" fill="black"/>
<path d="M10.4173 0.502046C10.4173 0.390492 10.5288 0.0558305 10.7516 0.167384C10.9187 0.223161 11.0301 0.557822 11.0858 0.669376C11.0858 0.725153 11.5315 1.50603 11.2529 1.56181C11.1972 1.56181 11.1972 1.67336 11.2529 1.67336C11.7543 1.61758 11.1972 0.669376 11.0858 0.446269C11.0301 0.334715 10.8073 -0.1115 10.5845 5.35715e-05C10.4173 0.0558305 10.3616 0.278938 10.4173 0.502046C10.3616 0.502046 10.4173 0.502046 10.4173 0.502046Z" fill="black"/>
<path d="M11.4202 0.502046C11.4202 0.390492 11.5316 0.0558305 11.7544 0.167384C11.9216 0.223161 12.033 0.557822 12.0887 0.669376C12.0887 0.725153 12.5343 1.50603 12.2558 1.56181C12.2001 1.56181 12.2001 1.67336 12.2558 1.67336C12.7572 1.61758 12.2001 0.669376 12.0887 0.446269C12.033 0.334715 11.8101 -0.1115 11.5873 5.35715e-05C11.4202 0.0558305 11.3645 0.278938 11.4202 0.502046C11.3645 0.502046 11.3645 0.502046 11.4202 0.502046Z" fill="black"/>
<path d="M12.3672 0.502046C12.3672 0.390492 12.4786 0.0558305 12.7014 0.167384C12.8686 0.223161 12.98 0.557822 13.0357 0.669376C13.0357 0.725153 13.4813 1.50603 13.2028 1.56181C13.1471 1.56181 13.1471 1.67336 13.2028 1.67336C13.7042 1.61758 13.1471 0.669376 13.0357 0.446269C12.98 0.334715 12.7571 -0.1115 12.5343 5.35715e-05C12.3672 0.0558305 12.3672 0.278938 12.3672 0.502046Z" fill="black"/>
<path d="M13.37 0.502046C13.37 0.390492 13.4814 0.0558305 13.7042 0.167384C13.8713 0.223161 13.9828 0.557822 14.0385 0.669376C14.0385 0.725153 14.4841 1.50603 14.2056 1.56181C14.1499 1.56181 14.1499 1.67336 14.2056 1.67336C14.707 1.61758 14.1499 0.669376 14.0385 0.446269C13.9828 0.334715 13.7599 -0.1115 13.5371 5.35715e-05C13.37 0.0558305 13.3143 0.278938 13.37 0.502046C13.3143 0.502046 13.37 0.502046 13.37 0.502046Z" fill="black"/>
<path d="M14.3169 0.502046C14.3169 0.390492 14.4283 0.0558305 14.6511 0.167384C14.8183 0.223161 14.9297 0.557822 14.9854 0.669376C14.9854 0.725153 15.431 1.50603 15.1525 1.56181C15.0968 1.56181 15.0968 1.67336 15.1525 1.67336C15.6539 1.61758 15.0968 0.669376 14.9854 0.446269C14.9297 0.334715 14.7068 -0.1115 14.484 5.35715e-05C14.3726 0.0558305 14.3169 0.278938 14.3169 0.502046Z" fill="black"/>
<path d="M15.3197 0.502046C15.3197 0.390492 15.4311 0.0558305 15.6539 0.167384C15.821 0.223161 15.9325 0.557822 15.9882 0.669376C15.9882 0.725153 16.4338 1.50603 16.1553 1.56181C16.0996 1.56181 16.0996 1.67336 16.1553 1.67336C16.6567 1.61758 16.0996 0.669376 15.9882 0.446269C15.9325 0.334715 15.7096 -0.1115 15.4868 5.35715e-05C15.3197 0.0558305 15.264 0.278938 15.3197 0.502046C15.264 0.502046 15.3197 0.502046 15.3197 0.502046Z" fill="black"/>
<path d="M16.2666 0.502046C16.2666 0.390492 16.378 0.0558305 16.6008 0.167384C16.768 0.223161 16.8794 0.557822 16.9351 0.669376C16.9351 0.725153 17.3808 1.50603 17.1022 1.56181C17.0465 1.56181 17.0465 1.67336 17.1022 1.67336C17.6036 1.61758 17.0465 0.669376 16.9351 0.446269C16.8794 0.334715 16.6566 -0.1115 16.4337 5.35715e-05C16.3223 0.0558305 16.2666 0.278938 16.2666 0.502046Z" fill="black"/>
<path d="M17.2695 0.502046C17.2695 0.390492 17.3809 0.0558305 17.6038 0.167384C17.7709 0.223161 17.8823 0.557822 17.938 0.669376C17.938 0.725153 18.3837 1.50603 18.1051 1.56181C18.0494 1.56181 18.0494 1.67336 18.1051 1.67336C18.6065 1.61758 18.0494 0.669376 17.938 0.446269C17.8823 0.334715 17.6595 -0.1115 17.4367 5.35715e-05C17.2695 0.0558305 17.2695 0.278938 17.2695 0.502046Z" fill="black"/>
<path d="M18.2721 0.502046C18.2721 0.390492 18.3835 0.0558305 18.6063 0.167384C18.7734 0.223161 18.8849 0.557822 18.9406 0.669376C18.9406 0.725153 19.3862 1.50603 19.1077 1.56181C19.052 1.56181 19.052 1.67336 19.1077 1.67336C19.609 1.61758 19.052 0.669376 18.9406 0.446269C18.8849 0.334715 18.662 -0.1115 18.4392 5.35715e-05C18.2721 0.0558305 18.2164 0.278938 18.2721 0.502046C18.2164 0.502046 18.2721 0.502046 18.2721 0.502046Z" fill="black"/>
<path d="M19.219 0.502046C19.219 0.390492 19.3304 0.0558305 19.5532 0.167384C19.7204 0.223161 19.8318 0.557822 19.8875 0.669376C19.8875 0.725153 20.3331 1.50603 20.0546 1.56181C19.9989 1.56181 19.9989 1.67336 20.0546 1.67336C20.556 1.61758 19.9989 0.669376 19.8875 0.446269C19.8318 0.334715 19.6089 -0.1115 19.3861 5.35715e-05C19.2747 0.0558305 19.219 0.278938 19.219 0.502046Z" fill="black"/>
<path d="M20.2218 0.502046C20.2218 0.390492 20.3332 0.0558305 20.556 0.167384C20.7231 0.223161 20.8346 0.557822 20.8903 0.669376C20.8903 0.725153 21.3359 1.50603 21.0574 1.56181C21.0017 1.56181 21.0017 1.67336 21.0574 1.67336C21.5588 1.61758 21.0017 0.669376 20.8903 0.446269C20.8346 0.334715 20.6117 -0.1115 20.3889 5.35715e-05C20.2218 0.0558305 20.1661 0.278938 20.2218 0.502046C20.1661 0.502046 20.2218 0.502046 20.2218 0.502046Z" fill="black"/>
<path d="M21.1689 0.502046C21.1689 0.390492 21.2804 0.0558305 21.5032 0.167384C21.6703 0.223161 21.7817 0.557822 21.8374 0.669376C21.8374 0.725153 22.2831 1.50603 22.0046 1.56181C21.9488 1.56181 21.9488 1.67336 22.0046 1.67336C22.5059 1.61758 21.9488 0.669376 21.8374 0.446269C21.7817 0.334715 21.5589 -0.1115 21.3361 5.35715e-05C21.2247 0.0558305 21.1689 0.278938 21.1689 0.502046Z" fill="black"/>
<path d="M22.1718 0.502046C22.1718 0.390492 22.2832 0.0558305 22.506 0.167384C22.6731 0.223161 22.7846 0.557822 22.8403 0.669376C22.8403 0.725153 23.2859 1.50603 23.0074 1.56181C22.9517 1.56181 22.9517 1.67336 23.0074 1.67336C23.5087 1.61758 22.9517 0.669376 22.8403 0.446269C22.7846 0.334715 22.5617 -0.1115 22.3389 5.35715e-05C22.1718 0.0558305 22.1161 0.278938 22.1718 0.502046Z" fill="black"/>
<path d="M23.1744 0.502046C23.1744 0.390492 23.2858 0.0558305 23.5087 0.167384C23.6758 0.223161 23.7872 0.557822 23.8429 0.669376C23.8429 0.725153 24.2886 1.50603 24.01 1.56181C23.9543 1.56181 23.9543 1.67336 24.01 1.67336C24.5114 1.61758 23.9543 0.669376 23.8429 0.446269C23.7872 0.334715 23.5644 -0.1115 23.3415 5.35715e-05C23.1744 0.0558305 23.1187 0.278938 23.1744 0.502046C23.1187 0.502046 23.1744 0.502046 23.1744 0.502046Z" fill="black"/>
<path d="M24.1213 0.502046C24.1213 0.390492 24.2328 0.0558305 24.4556 0.167384C24.6227 0.223161 24.7341 0.557822 24.7898 0.669376C24.7898 0.725153 25.2355 1.50603 24.9569 1.56181C24.9012 1.56181 24.9012 1.67336 24.9569 1.67336C25.4583 1.61758 24.9012 0.669376 24.7898 0.446269C24.7341 0.334715 24.5113 -0.1115 24.2885 5.35715e-05C24.177 0.0558305 24.1213 0.278938 24.1213 0.502046Z" fill="black"/>
<path d="M25.1241 0.502046C25.1241 0.390492 25.2355 0.0558305 25.4584 0.167384C25.6255 0.223161 25.7369 0.557822 25.7926 0.669376C25.7926 0.725153 26.2383 1.50603 25.9597 1.56181C25.904 1.56181 25.904 1.67336 25.9597 1.67336C26.4611 1.61758 25.904 0.669376 25.7926 0.446269C25.7369 0.334715 25.5141 -0.1115 25.2912 5.35715e-05C25.1241 0.0558305 25.0684 0.278938 25.1241 0.502046C25.0684 0.502046 25.1241 0.502046 25.1241 0.502046Z" fill="black"/>
<path d="M26.071 0.502046C26.071 0.390492 26.1825 0.0558305 26.4053 0.167384C26.5724 0.223161 26.6838 0.557822 26.7395 0.669376C26.7395 0.725153 27.1852 1.50603 26.9067 1.56181C26.8509 1.56181 26.8509 1.67336 26.9067 1.67336C27.408 1.61758 26.8509 0.669376 26.7395 0.446269C26.6838 0.334715 26.461 -0.1115 26.2382 5.35715e-05C26.1268 0.0558305 26.071 0.278938 26.071 0.502046Z" fill="black"/>
<path d="M27.0738 0.502046C27.0738 0.390492 27.1852 0.0558305 27.4081 0.167384C27.5752 0.223161 27.6866 0.557822 27.7423 0.669376C27.7423 0.725153 28.188 1.50603 27.9094 1.56181C27.8537 1.56181 27.8537 1.67336 27.9094 1.67336C28.4108 1.61758 27.8537 0.669376 27.7423 0.446269C27.6866 0.334715 27.4638 -0.1115 27.241 5.35715e-05C27.0738 0.0558305 27.0181 0.278938 27.0738 0.502046C27.0181 0.502046 27.0738 0.502046 27.0738 0.502046Z" fill="black"/>
<path d="M28.0764 0.502046C28.0764 0.390492 28.1879 0.0558305 28.4107 0.167384C28.5778 0.223161 28.6892 0.557822 28.7449 0.669376C28.7449 0.725153 29.1906 1.50603 28.9121 1.56181C28.8564 1.56181 28.8564 1.67336 28.9121 1.67336C29.4134 1.61758 28.8564 0.669376 28.7449 0.446269C28.6892 0.334715 28.4664 -0.1115 28.2436 5.35715e-05C28.0764 0.0558305 28.0207 0.278938 28.0764 0.502046C28.0207 0.502046 28.0207 0.502046 28.0764 0.502046Z" fill="black"/>
<path d="M29.0237 0.502046C29.0237 0.390492 29.1351 0.0558305 29.3579 0.167384C29.5251 0.223161 29.6365 0.557822 29.6922 0.669376C29.6922 0.725153 30.1378 1.50603 29.8593 1.56181C29.8036 1.56181 29.8036 1.67336 29.8593 1.67336C30.3607 1.61758 29.8036 0.669376 29.6922 0.446269C29.6365 0.334715 29.4136 -0.1115 29.1908 5.35715e-05C29.0237 0.0558305 29.0237 0.278938 29.0237 0.502046Z" fill="black"/>
<path d="M30.0265 0.502046C30.0265 0.390492 30.1379 0.0558305 30.3607 0.167384C30.5278 0.223161 30.6392 0.557822 30.695 0.669376C30.695 0.725153 31.1406 1.50603 30.8621 1.56181C30.8064 1.56181 30.8064 1.67336 30.8621 1.67336C31.3634 1.61758 30.8064 0.669376 30.695 0.446269C30.6392 0.334715 30.4164 -0.1115 30.1936 5.35715e-05C30.0265 0.0558305 29.9708 0.278938 30.0265 0.502046C29.9708 0.502046 30.0265 0.502046 30.0265 0.502046Z" fill="black"/>
<path d="M30.9734 0.502046C30.9734 0.390492 31.0848 0.0558305 31.3076 0.167384C31.4748 0.223161 31.5862 0.557822 31.6419 0.669376C31.6419 0.725153 32.0875 1.50603 31.809 1.56181C31.7533 1.56181 31.7533 1.67336 31.809 1.67336C32.3104 1.61758 31.7533 0.669376 31.6976 0.446269C31.6419 0.334715 31.419 -0.1115 31.1962 5.35715e-05C31.0291 0.0558305 30.9734 0.278938 30.9734 0.502046Z" fill="black"/>
<path d="M31.9759 0.502046C31.9759 0.390492 32.0873 0.0558305 32.3102 0.167384C32.4773 0.223161 32.5887 0.557822 32.6444 0.669376C32.6444 0.725153 33.0901 1.50603 32.8115 1.56181C32.7558 1.56181 32.7558 1.67336 32.8115 1.67336C33.3129 1.61758 32.7558 0.669376 32.6444 0.446269C32.5887 0.334715 32.3659 -0.1115 32.1431 5.35715e-05C31.9759 0.0558305 31.9202 0.278938 31.9759 0.502046C31.9202 0.502046 31.9759 0.502046 31.9759 0.502046Z" fill="black"/>
<path d="M32.9231 0.502046C32.9231 0.390492 33.0345 0.0558305 33.2573 0.167384C33.4245 0.223161 33.5359 0.557822 33.5916 0.669376C33.5916 0.725153 34.0372 1.50603 33.7587 1.56181C33.703 1.56181 33.703 1.67336 33.7587 1.67336C34.2601 1.61758 33.703 0.669376 33.5916 0.446269C33.5359 0.334715 33.313 -0.1115 33.0902 5.35715e-05C32.9788 0.0558305 32.9231 0.278938 32.9231 0.502046Z" fill="black"/>
<path d="M33.9258 0.502046C33.9258 0.390492 34.0372 0.0558305 34.26 0.167384C34.4271 0.223161 34.5386 0.557822 34.5943 0.669376C34.5943 0.725153 35.0399 1.50603 34.7614 1.56181C34.7057 1.56181 34.7057 1.67336 34.7614 1.67336C35.2628 1.61758 34.7057 0.669376 34.5943 0.446269C34.5386 0.334715 34.3157 -0.1115 34.0929 5.35715e-05C33.9258 0.0558305 33.9258 0.278938 33.9258 0.502046Z" fill="black"/>
<path d="M34.9286 0.502046C34.9286 0.390492 35.04 0.0558305 35.2628 0.167384C35.4299 0.223161 35.5413 0.557822 35.5971 0.669376C35.5971 0.725153 36.0427 1.50603 35.7642 1.56181C35.6528 1.56181 35.6528 1.67336 35.7085 1.67336C36.2098 1.61758 35.6528 0.669376 35.5413 0.446269C35.4856 0.334715 35.2628 -0.1115 35.04 5.35715e-05C34.9286 0.0558305 34.8729 0.278938 34.9286 0.502046C34.8729 0.502046 34.9286 0.502046 34.9286 0.502046Z" fill="black"/>
<path d="M35.8757 0.502046C35.8757 0.390492 35.9871 0.0558305 36.21 0.167384C36.3771 0.223161 36.4885 0.557822 36.5442 0.669376C36.5442 0.725153 36.9899 1.50603 36.7113 1.56181C36.6556 1.56181 36.6556 1.67336 36.7113 1.67336C37.2127 1.61758 36.6556 0.669376 36.5442 0.446269C36.4885 0.334715 36.2657 -0.1115 36.0429 5.35715e-05C35.9314 0.0558305 35.8757 0.278938 35.8757 0.502046Z" fill="black"/>
<path d="M36.8783 0.502046C36.8783 0.390492 36.9897 0.0558305 37.2125 0.167384C37.3796 0.223161 37.4911 0.557822 37.5468 0.669376C37.5468 0.725153 37.9924 1.50603 37.7139 1.56181C37.6582 1.56181 37.6582 1.67336 37.7139 1.67336C38.2153 1.61758 37.6582 0.669376 37.5468 0.446269C37.4911 0.334715 37.2682 -0.1115 37.0454 5.35715e-05C36.8783 0.0558305 36.8226 0.278938 36.8783 0.502046C36.8226 0.502046 36.8783 0.502046 36.8783 0.502046Z" fill="black"/>
<path d="M37.8254 0.502046C37.8254 0.390492 37.9369 0.0558305 38.1597 0.167384C38.3268 0.223161 38.4382 0.557822 38.4939 0.669376C38.4939 0.725153 38.9396 1.50603 38.6611 1.56181C38.6053 1.56181 38.6053 1.67336 38.6611 1.67336C39.1624 1.61758 38.6053 0.669376 38.4939 0.446269C38.4382 0.334715 38.2154 -0.1115 37.9926 5.35715e-05C37.8811 0.0558305 37.8254 0.278938 37.8254 0.502046Z" fill="black"/>
<path d="M38.828 0.502046C38.828 0.390492 38.9394 0.0558305 39.1623 0.167384C39.3294 0.223161 39.4408 0.557822 39.4965 0.669376C39.4965 0.725153 39.9422 1.50603 39.6636 1.56181C39.6079 1.56181 39.6079 1.67336 39.6636 1.67336C40.165 1.61758 39.6079 0.669376 39.4965 0.446269C39.4408 0.334715 39.218 -0.1115 38.9951 5.35715e-05C38.828 0.0558305 38.7723 0.278938 38.828 0.502046Z" fill="black"/>
<path d="M39.8309 0.502046C39.8309 0.390492 39.9423 0.0558305 40.1652 0.167384C40.3323 0.223161 40.4437 0.557822 40.4994 0.669376C40.4994 0.725153 40.9451 1.50603 40.6665 1.56181C40.6108 1.56181 40.6108 1.67336 40.6665 1.67336C41.1679 1.61758 40.6108 0.669376 40.4994 0.446269C40.4437 0.334715 40.2209 -0.1115 39.998 5.35715e-05C39.8309 0.0558305 39.7752 0.278938 39.8309 0.502046C39.7752 0.502046 39.8309 0.502046 39.8309 0.502046Z" fill="black"/>
<path d="M40.7778 0.502046C40.7778 0.390492 40.8893 0.0558305 41.1121 0.167384C41.2792 0.223161 41.3906 0.557822 41.4463 0.669376C41.4463 0.725153 41.892 1.50603 41.6134 1.56181C41.5577 1.56181 41.5577 1.67336 41.6134 1.67336C42.1148 1.61758 41.5577 0.669376 41.4463 0.446269C41.3906 0.334715 41.1678 -0.1115 40.945 5.35715e-05C40.8335 0.0558305 40.7778 0.278938 40.7778 0.502046Z" fill="black"/>
<path d="M10.9745 5.96815C10.9745 5.91237 10.863 5.96815 10.863 5.96815C12.3114 12.3267 12.4228 18.7968 14.2612 25.0996C14.2612 25.1554 14.3726 25.0996 14.3726 25.0996C12.6457 18.7411 12.5343 12.2709 10.9745 5.96815Z" fill="black"/>
<path d="M21.6145 24.9323C25.8483 24.6534 30.1377 24.1514 34.3715 23.7052C31.5861 23.9283 28.8008 24.1514 26.0711 24.4303C24.6784 24.5976 23.1743 24.765 21.6145 24.9323Z" fill="black"/>
<path d="M14.4282 25.0997C14.4282 25.0997 14.4282 25.1555 14.4282 25.0997C16.7679 25.3228 19.2191 25.1555 21.6145 24.9324C19.2191 25.0997 16.8236 25.1555 14.4282 25.0997Z" fill="black"/>
<path d="M42.6162 23.1475C42.5605 23.1475 42.5048 23.1475 42.5048 23.1475C41.8363 20.1913 40.1093 17.514 39.3851 14.6136C38.6052 11.3786 38.5495 8.25506 37.0454 5.13155H37.1011C37.2126 5.13155 37.2126 4.96422 37.1011 4.96422C37.0454 4.96422 36.9897 4.96422 36.9897 4.96422C36.9897 4.96422 36.9897 4.96422 36.9897 4.90845C35.8756 4.96422 34.8728 5.02 33.8144 5.02C33.8144 4.96422 33.703 4.96422 33.703 5.02C29.4692 5.13155 25.2355 5.13155 21.0017 5.35466C18.4392 5.46622 15.8766 5.63355 13.3141 5.80088C12.4785 5.85665 11.6429 5.68932 10.9187 5.96821C10.863 6.02398 10.863 6.07976 10.9744 6.07976H11.0301C11.1415 6.07976 11.1415 5.96821 11.0301 5.96821C12.2556 5.96821 13.4812 5.91243 14.7068 5.91243C14.7068 6.13554 14.7625 6.35865 14.8182 6.58175C13.6483 6.63753 12.4785 6.74908 11.3086 6.80486C11.1972 6.80486 11.1972 6.86064 11.1972 6.91642C11.1972 6.97219 11.2529 7.02797 11.3643 7.02797C13.8712 7.02797 16.3223 6.86064 18.8291 6.69331C18.8848 6.74908 18.9962 6.74908 18.9962 6.69331C20.0547 6.63753 21.1688 6.52598 22.2273 6.4702C22.2273 6.52598 22.283 6.52598 22.3387 6.58175C22.4501 6.63753 22.5615 6.52598 22.4501 6.4702C23.7314 6.41442 25.0683 6.35865 26.3496 6.30287C26.3496 6.30287 26.3496 6.30287 26.3496 6.35865C26.4053 6.41442 26.461 6.41442 26.5167 6.35865L26.5724 6.30287C26.7396 6.30287 26.9067 6.30287 27.0181 6.30287C27.9651 6.30287 28.9679 6.30287 29.9706 6.35865C29.9706 6.41442 30.0263 6.41442 30.082 6.4702C30.1377 6.52598 30.2491 6.4702 30.1934 6.41442C30.1934 6.41442 30.1934 6.41442 30.1934 6.35865C31.8089 6.41442 33.4245 6.41442 35.04 6.30287C35.0957 6.35865 35.2071 6.41442 35.2628 6.4702C35.4299 6.52598 35.597 6.41442 35.7085 6.24709C36.1541 6.19132 36.6555 6.13554 37.1011 6.02399C37.881 8.81283 38.3824 11.6017 39.1066 14.3905C39.8865 17.4025 41.3906 20.2471 42.2819 23.259C39.6637 23.3706 37.0454 23.5937 34.3715 23.8726C37.0454 23.7053 39.6637 23.5379 42.3376 23.4264C42.3376 23.4264 42.3376 23.4264 42.3376 23.4822C42.3376 23.5379 42.449 23.5379 42.449 23.4822C42.5048 23.4822 42.5048 23.4822 42.5605 23.4822C42.7276 23.3148 42.7276 23.1475 42.6162 23.1475ZM14.9853 6.52598C14.9853 6.4702 14.9296 6.41442 14.9296 6.35865V6.30287C14.8182 6.19132 14.7625 6.02399 14.7625 5.85665C16.0438 5.80088 17.3807 5.80088 18.662 5.7451C18.662 5.91243 18.662 6.07976 18.7177 6.30287C17.4364 6.35865 16.2109 6.4702 14.9853 6.52598ZM18.9405 6.30287C18.9405 6.13554 18.8848 5.96821 18.8291 5.7451C19.8876 5.68932 20.8903 5.68932 21.9487 5.63355C22.0601 5.80088 22.1159 5.96821 22.1159 6.13554C21.0574 6.19132 19.999 6.24709 18.9405 6.30287ZM26.2382 6.02399C26.1268 6.02399 26.0711 6.02399 25.9597 6.02399C25.0126 6.02399 24.1213 6.07976 23.1743 6.13554C23.3971 5.91243 23.6757 5.96821 23.9542 5.96821C23.9542 5.96821 24.0099 5.96821 24.0099 5.91243C24.0656 5.80088 24.3442 6.02399 24.3999 6.02399C24.567 6.02399 24.7898 5.85665 24.9012 5.7451C24.9012 5.7451 24.9012 5.68932 24.8455 5.68932C24.6784 5.80088 24.2884 6.07976 24.177 5.80088C24.177 5.80088 24.177 5.7451 24.1213 5.7451C23.9542 5.7451 23.8428 5.85665 23.6757 5.80088C23.4528 5.80088 23.3414 5.80088 23.23 5.85665V5.80088C23.1186 5.80088 23.0629 5.91243 23.0629 6.02399C23.0629 6.02399 23.0629 6.07976 23.1186 6.07976C22.8958 6.07976 22.6172 6.07976 22.3944 6.07976C22.3944 6.02398 22.3944 6.02398 22.3944 5.96821C22.3387 5.85665 22.283 5.68932 22.2273 5.57777C23.5642 5.52199 24.9569 5.46622 26.2939 5.41044C26.2939 5.52199 26.2939 5.63355 26.2939 5.80088C26.2382 5.91243 26.2382 5.96821 26.2382 6.02399ZM29.9149 6.07976C28.745 6.07976 27.6309 6.02399 26.5167 6.02399C26.5167 5.96821 26.5167 5.91243 26.5167 5.85665C26.5167 5.7451 26.461 5.63355 26.4053 5.46622C27.5752 5.41044 28.6893 5.35466 29.8592 5.35466C29.8592 5.52199 29.9149 5.7451 29.9149 5.91243C29.9149 5.96821 29.9149 6.02398 29.9149 6.07976ZM30.1377 6.07976C30.1377 5.96821 30.1377 5.85665 30.1377 5.7451C30.1377 5.63355 30.082 5.46622 30.0263 5.35466C31.2519 5.29889 32.4217 5.24311 33.6473 5.24311C33.6473 5.52199 33.6473 5.80088 33.8144 6.07976C32.6446 6.13554 31.419 6.07976 30.1377 6.07976ZM37.0454 5.68932C36.6555 5.7451 36.3212 5.80088 35.9313 5.85665C35.987 5.80088 35.987 5.7451 35.987 5.68932C35.987 5.63355 35.9313 5.63355 35.9313 5.63355C35.8199 5.68932 35.7085 5.80088 35.597 5.91243C35.4856 5.91243 35.3742 5.91243 35.2071 5.96821C35.2071 5.85665 35.2071 5.7451 35.2628 5.68932C35.2628 5.52199 35.2628 5.29889 35.0957 5.24311C34.8728 5.18733 34.7057 5.29889 34.5386 5.41044C34.4272 5.46622 34.5386 5.68932 34.65 5.57777C34.7614 5.52199 35.0957 5.29889 35.04 5.63355C35.04 5.7451 34.9843 5.85665 34.9843 5.96821C34.7057 5.96821 34.3715 6.02399 34.0929 6.02399C34.0929 5.91243 34.0372 5.85665 34.0372 5.7451C34.0372 5.57777 33.9815 5.41044 33.9258 5.18733C34.9286 5.13155 35.987 5.13155 36.9897 5.07578C37.0454 5.24311 37.1011 5.46622 37.1568 5.68932C37.1011 5.68932 37.0454 5.68932 37.0454 5.68932Z" fill="black"/>
<path d="M36.4328 6.63754C36.4328 6.58176 36.2657 6.58176 36.2657 6.63754C36.2657 6.91642 36.0428 7.13953 35.7643 7.30686C35.7086 7.30686 35.7643 7.36264 35.82 7.36264C36.0428 7.25108 36.2099 7.13953 36.3214 7.02797C36.3214 7.19531 36.3214 7.41841 36.3214 7.58574C36.3214 7.6973 36.5442 7.64152 36.4885 7.58574C36.4328 7.25108 36.4328 6.9722 36.4328 6.63754Z" fill="black"/>
<path d="M14.6511 11.9364C14.484 11.9364 13.6484 11.9364 14.0383 11.7133C14.1497 11.6575 14.3169 11.6017 14.3726 11.4902C14.5397 11.2671 14.7068 11.0439 14.484 10.7651C14.2054 10.4862 13.537 10.9324 13.9826 11.0439C14.0383 11.0439 14.094 10.9882 14.0383 10.9882C13.9826 10.8766 14.0383 10.8208 14.2612 10.8766C14.3169 10.9324 14.3169 10.9882 14.3169 11.0997C14.3169 11.2113 14.1497 11.3786 14.0383 11.4902C13.8712 11.6017 13.7041 11.7133 13.5927 11.8806C13.4255 12.271 14.4283 12.1037 14.6511 12.1037C14.7625 12.0479 14.7625 11.9364 14.6511 11.9364Z" fill="black"/>
<path d="M18.7736 10.8766C18.6622 10.8208 18.495 10.7651 18.3836 10.8208C18.5507 10.6535 18.7179 10.4304 18.4393 10.3746C18.2165 10.2631 17.8823 10.3746 17.7708 10.5419C18.1608 10.1515 18.3279 10.5419 18.2165 10.7093C18.1608 10.8208 18.0494 10.8766 17.9937 10.9882C17.938 11.0439 18.0494 11.0997 18.1051 11.0439C18.6065 10.7651 18.8293 11.2113 18.495 11.4344C18.3279 11.5459 17.8266 11.7133 17.6037 11.5459C17.6594 11.4902 17.548 11.3786 17.4366 11.4902C17.4366 11.4902 17.3809 11.4902 17.3809 11.5459C17.3252 11.5459 17.3252 11.6017 17.3809 11.6575C17.7151 12.0479 18.5507 11.6017 18.7736 11.3228C18.9407 11.1555 18.9407 10.9882 18.7736 10.8766Z" fill="black"/>
<path d="M22.6174 10.542C22.506 10.6535 22.3946 10.8208 22.3389 10.9882C22.0604 11.0997 21.8932 11.0439 21.8932 10.8208C21.8932 10.6535 21.8375 10.4862 21.7818 10.3188C21.7261 10.5977 21.3919 10.9882 21.7818 11.2113C21.949 11.3228 22.1161 11.2671 22.2832 11.1555C22.2832 11.2671 22.2275 11.4344 22.2832 11.4902C22.2832 11.5459 22.3946 11.5459 22.4503 11.4902C22.6731 11.2671 22.4503 10.9324 22.6174 10.542C22.6731 10.542 22.6731 10.542 22.6174 10.542Z" fill="black"/>
<path d="M26.1268 10.4861C26.0154 10.4861 25.904 10.4861 25.7926 10.4861C25.5698 10.5419 25.5141 10.5977 25.5141 10.3746C25.5141 10.3188 25.5141 10.263 25.5141 10.263C25.5141 10.263 25.5698 10.263 25.5141 10.2072C25.4026 10.1515 25.904 10.1515 25.904 10.1515C26.0711 10.1515 26.2383 10.1515 26.4054 10.1515C26.5168 10.1515 26.5168 10.0399 26.4054 10.0399C26.1825 10.0399 25.6812 10.0399 25.5141 10.1515V10.0957H25.4584C25.4584 10.263 25.3469 10.4304 25.4026 10.5977L25.4584 10.6535C25.5141 10.6535 25.5698 10.6535 25.6812 10.6535C25.904 10.5977 26.3497 10.6535 26.1268 10.8766C25.9597 11.0439 25.5141 11.0439 25.2912 10.9881H25.2355C25.1798 10.9881 25.1798 11.0439 25.1798 11.0439C25.1241 11.0997 25.1798 11.1555 25.2355 11.1555C25.6255 11.267 26.4611 11.2112 26.4611 10.8208C26.4611 10.7092 26.3497 10.4861 26.1268 10.4861Z" fill="black"/>
<path d="M30.305 10.765C30.1379 10.6535 29.7479 10.6535 29.4694 10.7092V10.6535C29.5808 10.3746 29.5808 10.1515 30.1379 10.0957C30.1379 10.0957 30.1379 10.0957 30.1379 10.0399C29.4694 10.0399 29.1909 10.4304 29.0794 10.8208C28.968 11.2112 29.358 11.3786 29.8593 11.267C30.305 11.267 30.5835 10.9881 30.305 10.765ZM29.9708 11.1555C29.8593 11.1555 29.7479 11.2112 29.6365 11.1555C29.5251 11.1555 29.4694 11.0997 29.4694 10.9881C29.4694 10.9881 29.4694 10.9881 29.5251 10.9881C29.6365 10.8766 29.9151 10.8208 30.1379 10.8766C30.5835 10.8766 29.9708 11.0997 29.9708 11.1555Z" fill="black"/>
<path d="M34.2601 10.3745C34.1487 10.3745 34.0373 10.3745 33.9258 10.3745C33.9258 10.3187 33.9258 10.3187 33.9815 10.263C34.0373 10.1514 34.1487 9.92831 34.0373 9.81675C33.9258 9.7052 33.7587 9.7052 33.5916 9.7052C33.2573 9.76098 32.9788 9.81675 32.6446 9.87253C32.5889 9.87253 32.5889 9.92831 32.6446 9.98408C32.8117 9.98408 33.0345 10.0399 33.2016 9.98408C33.4245 9.92831 33.7587 9.87253 33.6473 10.0956C33.5916 10.2072 33.5359 10.3187 33.4802 10.4303C33.2573 10.4303 33.0902 10.4861 32.8674 10.4861C32.8117 10.4861 32.8117 10.5419 32.8674 10.5419C33.0345 10.5419 33.2573 10.5419 33.4245 10.5419C33.3688 10.7092 33.3131 10.8765 33.4245 11.0438C33.4245 11.0996 33.5359 11.0996 33.5359 11.0438C33.6473 10.8765 33.703 10.7092 33.7587 10.4861C33.8701 10.4861 34.0373 10.4861 34.1487 10.4303C34.3715 10.4303 34.3158 10.3745 34.2601 10.3745Z" fill="black"/>
<path d="M36.767 9.98409C36.8784 9.87254 37.2126 9.70521 36.9898 9.92832C36.8784 10.0399 36.767 10.1514 36.6555 10.2072C36.6555 10.1514 36.5998 10.0956 36.5998 10.0399C36.5998 9.98409 36.4884 9.98409 36.4884 10.0399C36.4327 10.1514 36.4884 10.2072 36.5441 10.3188C36.377 10.4303 36.0428 10.6534 36.0985 10.8207C36.2099 11.0439 36.7113 10.9881 36.9341 10.8207C37.0455 10.765 37.0455 10.7092 36.9898 10.5976C36.9898 10.5419 36.8784 10.4861 36.8227 10.4303C36.8227 10.4303 36.8227 10.3745 36.767 10.3745C36.9341 10.2072 37.1569 10.0956 37.2683 9.92832C37.6026 9.4821 36.377 9.53788 36.767 9.98409Z" fill="black"/>
<path d="M14.874 14.0559C15.0969 14.0559 15.264 14.0559 15.4868 14.0559C15.4868 14.0559 15.5425 14.0559 15.4868 14.0559C14.9297 13.9443 14.0941 13.9443 14.2613 14.5021C14.317 14.6694 14.5955 14.6694 14.7626 14.6136C14.874 14.6136 14.9855 14.5578 15.0412 14.5021C14.9855 14.6136 14.9297 14.7252 14.8183 14.7809C14.7069 14.8925 14.5955 14.8925 14.4284 14.9483C14.3727 14.9483 13.927 14.9483 14.2055 14.8925C14.2613 14.8925 14.2613 14.8367 14.2055 14.8367C13.5928 14.7809 13.7042 15.2272 14.2613 15.1714C15.0412 15.1156 15.264 14.6136 15.264 14.1674C15.264 14.1116 15.0969 14.1116 15.0969 14.1674C15.0412 14.3905 14.874 14.5021 14.5398 14.5021C14.4841 14.4463 14.4841 14.3905 14.4284 14.3347C14.4841 14.1674 14.6512 14.0559 14.874 14.0559Z" fill="black"/>
<path d="M18.4949 13.5538C18.4949 13.498 18.3835 13.498 18.3278 13.5538C18.2721 13.8327 17.9378 14.2231 18.105 14.502C18.105 14.5578 18.2164 14.5578 18.2721 14.502C18.4392 14.2231 18.4949 13.8327 18.4949 13.5538Z" fill="black"/>
<path d="M19.7761 13.6654C19.4418 13.3865 19.1076 13.6654 18.9961 13.8885C18.829 14.0559 18.7176 14.3348 18.829 14.5021C18.9961 14.7252 19.6089 14.6136 19.7203 14.3905C19.9432 14.1674 20.0546 13.8885 19.7761 13.6654ZM19.6646 14.1116C19.6089 14.279 19.0519 14.6136 19.1076 14.2232C19.1076 14.1116 19.1633 14.0001 19.219 13.9443C19.2747 13.8885 19.3304 13.8328 19.3861 13.777C19.4975 13.7212 19.6089 13.777 19.6646 13.8328C19.7203 13.8885 19.6646 14.0559 19.6646 14.1116Z" fill="black"/>
<path d="M22.3944 13.2749H22.3386C22.1715 13.5538 22.0044 13.9442 22.1715 14.2231C22.2272 14.2789 22.2829 14.2789 22.3386 14.2231C22.5058 14 22.5058 13.5538 22.3944 13.2749Z" fill="black"/>
<path d="M23.1186 13.4423C22.9515 13.7212 22.8401 14.0558 22.8401 14.3347C22.8401 14.3905 22.9515 14.3905 23.0072 14.3905C23.2857 14.1116 23.1743 13.7769 23.2857 13.4981C23.2857 13.3865 23.1743 13.3865 23.1186 13.4423Z" fill="black"/>
<path d="M26.2939 13.1077C26.2939 13.1077 26.2382 13.1077 26.2939 13.1077C26.0711 13.3865 25.6811 13.8885 25.9039 14.1674C25.9596 14.2232 26.0711 14.2232 26.1268 14.1674C26.2382 14.0001 26.2382 13.777 26.3496 13.6097C26.3496 13.4423 26.3496 13.275 26.2939 13.1077Z" fill="black"/>
<path d="M27.6309 13.9443C27.4638 14.0001 26.5724 14.1116 26.851 13.777C27.0181 13.5538 27.3524 13.4423 27.4638 13.2192C27.6866 12.8845 27.3524 12.773 27.0181 12.9961C27.0181 12.9961 27.0181 13.0519 27.0181 12.9961C27.4081 12.9403 27.5195 12.9961 27.3524 13.1634C27.2966 13.275 27.1852 13.3307 27.0738 13.3865C26.9624 13.4423 26.7953 13.5538 26.7396 13.6096C26.5724 13.777 26.4053 13.8885 26.6282 14.0558C26.7953 14.2232 27.798 14.1674 27.798 13.8885C27.7423 13.9443 27.6866 13.9443 27.6309 13.9443Z" fill="black"/>
<path d="M30.1377 12.8846C29.9705 13.1635 29.692 13.5539 29.8034 13.8328C29.8034 13.8886 29.9705 13.8886 30.0262 13.8328C30.1934 13.4982 30.1934 13.2193 30.2491 12.8846C30.1934 12.8288 30.1377 12.8288 30.1377 12.8846Z" fill="black"/>
<path d="M31.3634 13.1077C31.3077 13.0519 31.1963 13.1077 31.0849 13.1077C31.1963 12.9962 31.3077 12.8846 31.252 12.7731C31.1963 12.6057 30.9178 12.6615 30.7506 12.7173C30.6949 12.7173 30.7506 12.8288 30.8063 12.7731L31.0849 12.9962C30.9735 13.0519 30.9178 13.1077 30.8063 13.1635C30.7506 13.2193 30.6949 13.275 30.6392 13.3308C30.5835 13.3866 30.6392 13.4982 30.7506 13.4424C30.9735 13.3308 31.1406 13.3308 31.3077 13.5539C31.252 13.6097 31.1963 13.6097 31.1406 13.6655C30.9178 13.777 30.6949 13.777 30.4164 13.777C30.1936 13.777 30.1936 14.0559 30.4164 14.0001C30.9178 13.9444 31.4191 13.777 31.5862 13.4424C31.642 13.275 31.4748 13.1077 31.3634 13.1077Z" fill="black"/>
<path d="M33.8145 12.6057C33.8145 12.5499 33.8145 12.5499 33.8145 12.6057C33.6474 12.8846 33.2017 13.4981 33.5359 13.777C33.5917 13.8328 33.6474 13.777 33.7031 13.777C33.8702 13.6654 33.8702 13.4981 33.8702 13.3308C33.8702 12.9961 33.9816 12.8288 33.8145 12.6057Z" fill="black"/>
<path d="M35.2071 12.9402C35.2628 12.8844 35.2628 12.7729 35.2628 12.7171C35.2628 12.6613 35.1514 12.6056 35.0399 12.6613C34.8728 12.7171 34.7614 12.8844 34.65 13.0518C34.5943 13.0518 34.4829 13.0518 34.4272 12.996C34.3715 12.8844 34.4272 12.7729 34.3715 12.6613C34.3715 12.6056 34.26 12.6056 34.26 12.6613C34.2043 12.9402 34.1486 13.2191 34.5943 13.2191C34.5386 13.4422 34.5943 13.6653 34.7614 13.7769C34.8171 13.7769 34.8171 13.7769 34.8728 13.7769C34.9285 13.7769 34.9285 13.7769 34.9842 13.7769C35.0956 13.7769 35.1514 13.7211 35.1514 13.6653C35.2628 13.4422 35.1514 13.2191 35.2071 12.9402Z" fill="black"/>
<path d="M37.0455 12.4384C36.8227 12.6057 36.767 12.8288 36.7113 13.0519C36.6556 13.1635 36.7113 13.275 36.7113 13.3866C36.7113 13.4981 36.6556 13.6097 36.5999 13.777C36.5999 13.8328 36.7113 13.8886 36.767 13.777C36.8227 13.5539 36.8784 13.4423 36.8784 13.2192C36.8784 13.1077 36.9341 12.9961 36.9341 12.8846C36.9341 12.8846 37.1012 12.3826 37.1012 12.4941C37.0455 12.4941 37.0455 12.4941 37.0455 12.4384Z" fill="black"/>
<path d="M38.2712 12.4384C37.7698 12.5499 37.4355 12.6615 37.2684 13.0519C37.157 13.3308 37.3798 13.5539 37.7698 13.4981C37.9369 13.4981 38.3826 13.275 38.104 13.1635C37.9369 13.1077 37.4355 12.9961 37.4355 13.2192V13.1635C37.4355 12.8846 37.8255 12.4384 38.2712 12.4941C38.3826 12.4941 38.3826 12.4384 38.2712 12.4384Z" fill="black"/>
<path d="M14.7068 16.9004C14.5953 17.0677 14.5954 17.2908 14.5396 17.4582C14.4282 17.6813 14.3168 17.9044 14.4282 18.1275C14.4282 18.1833 14.5396 18.1833 14.5954 18.1275C14.7068 17.9044 14.6511 17.6813 14.7068 17.5139C14.7625 17.2908 14.6511 17.0677 14.7068 16.9004C14.7625 16.9004 14.7068 16.9004 14.7068 16.9004Z" fill="black"/>
<path d="M16.3223 17.3466C16.2109 17.3466 16.0995 17.4024 16.0438 17.4024C16.0995 17.1793 16.1552 17.012 15.9881 16.8446C15.7653 16.6215 15.3196 16.7331 14.9854 16.8446C14.9854 16.8446 14.9854 16.8446 14.9854 16.9004C14.9854 16.9004 14.9854 16.9004 14.9854 16.9562H15.0411C15.0411 16.9004 15.0968 16.9562 15.1525 16.9562C15.2082 16.9562 15.3196 16.9562 15.3753 16.9004C15.9324 16.7889 15.7653 17.1235 15.7095 17.2908C15.6538 17.3466 15.6538 17.4024 15.5981 17.514C15.431 17.514 15.2639 17.5697 15.0968 17.5697V17.6255C15.2639 17.6255 15.431 17.6255 15.5981 17.6255C15.5424 17.7371 15.5424 17.8486 15.6538 17.9044C15.7095 17.9602 15.7653 17.9602 15.821 17.9044C15.8767 17.8486 15.9881 17.6813 16.0438 17.5697C16.2109 17.5697 16.3223 17.514 16.4337 17.4582C16.4337 17.4024 16.4337 17.3466 16.3223 17.3466Z" fill="black"/>
<path d="M19.052 16.7331C19.052 16.6773 18.9963 16.6773 18.9406 16.7331C18.8849 17.0678 18.6063 17.4582 18.7734 17.7929C18.8291 17.8487 18.8849 17.8487 18.9406 17.7929C19.1634 17.4582 19.1077 17.012 19.052 16.7331Z" fill="black"/>
<path d="M20.3332 16.9005C20.5004 16.4543 19.9433 16.4543 19.6647 16.789C19.609 16.8447 19.7205 16.8447 19.7762 16.8447C19.999 16.6216 20.3332 16.789 20.0547 16.9563C19.999 17.0121 19.9433 17.0121 19.9433 17.0678C19.8876 17.0121 19.8319 16.9563 19.7762 16.9005C19.7762 16.8447 19.6647 16.8447 19.6647 16.9005C19.609 17.0121 19.6647 17.0678 19.7762 17.1794C19.7205 17.2352 19.609 17.291 19.5533 17.3467C19.3862 17.5141 19.3305 17.7372 19.609 17.8487C19.8319 17.9045 20.0547 17.7929 20.1661 17.6814C20.2218 17.6256 20.2218 17.5141 20.1661 17.4583C20.1104 17.4025 20.0547 17.3467 19.999 17.291C19.999 17.291 20.0547 17.291 20.0547 17.2352C20.1661 17.0678 20.2775 16.9563 20.3332 16.9005Z" fill="black"/>
<path d="M22.7285 16.3984C22.7842 16.4542 22.6728 16.7888 22.6171 16.9004C22.5614 17.1235 22.45 17.3466 22.5057 17.5139C22.5057 17.5697 22.6171 17.5697 22.6171 17.5139C22.8956 17.2908 22.8399 17.012 22.8399 16.7331C22.8956 16.6215 22.9513 16.3426 22.7285 16.3984Z" fill="black"/>
<path d="M24.1771 16.3984C24.1771 16.3427 24.1214 16.3427 24.1771 16.3984C24.1214 16.3427 24.1214 16.3427 24.1771 16.3984C23.7315 16.1753 23.3972 16.3427 23.2858 16.6215C23.1187 16.9004 23.62 17.0677 23.8986 16.8446C23.9543 16.7889 23.8986 16.7889 23.8429 16.7889C23.3972 16.6215 23.5086 16.4542 24.1214 16.3984H24.0657C24.0657 16.6773 24.1214 17.0677 23.62 17.2351C23.4529 17.2909 23.2858 17.2351 23.1744 17.2909C23.063 17.2909 23.063 17.4582 23.1744 17.4582C23.5643 17.4582 23.8986 17.4024 24.1771 17.1793C24.3442 16.9562 24.2328 16.5658 24.1771 16.3984Z" fill="black"/>
<path d="M26.9624 17.012C26.7395 17.012 26.1268 17.1794 26.2939 16.9005C26.461 16.6774 26.6281 16.5658 26.6838 16.3427C26.7395 16.1196 26.461 15.9523 26.1825 16.1196C26.1825 16.1196 26.1825 16.1754 26.1825 16.1196C26.2939 16.1754 26.4053 16.2312 26.5167 16.3427C26.5167 16.4543 26.461 16.5101 26.3496 16.5658C26.2382 16.6774 26.1268 16.7332 26.0153 16.8447C25.9596 16.9563 25.7925 17.0678 25.9039 17.1236C26.1268 17.3467 26.6281 17.1794 26.9067 17.0678C27.0738 17.0678 27.0181 17.012 26.9624 17.012Z" fill="black"/>
<path d="M26.9067 16.3985C26.9067 16.4543 27.0182 16.4543 27.0182 16.4543C27.1296 16.3427 27.2967 16.2869 27.4638 16.3427C27.6309 16.3427 27.6866 16.3985 27.7981 16.5101C27.7981 16.5658 27.7981 16.6216 27.7423 16.6774C27.2967 16.6774 27.1296 16.6216 27.2967 16.3985C27.2967 16.3427 27.241 16.3427 27.241 16.3985C27.0739 16.6216 27.0182 16.7889 27.3524 16.9563C27.6309 17.0678 27.9095 16.7889 27.9652 16.6216C28.0209 16.1754 26.9624 15.9523 26.9067 16.3985Z" fill="black"/>
<path d="M31.5304 15.8965C31.419 16.0638 31.3076 16.2869 31.2519 16.51C31.029 16.5658 30.8062 16.5658 30.5277 16.6216C30.3048 16.6773 30.1934 16.6773 30.3048 16.51C30.3605 16.3984 30.472 16.3427 30.5277 16.2869H30.5834C30.6391 16.2311 30.6948 16.1753 30.7505 16.1196C30.7505 16.1196 30.7505 16.1196 30.7505 16.0638C30.8062 15.9522 30.7505 15.8407 30.5834 15.7849C30.3605 15.6733 30.082 15.8407 30.0263 16.008C30.0263 16.008 30.0263 16.0638 30.082 16.0638H30.1377C30.1934 16.0638 30.1934 16.0638 30.1934 16.008C30.3048 15.9522 30.4163 15.9522 30.5277 16.0638C30.5277 16.1196 30.472 16.1753 30.472 16.1753C30.1377 16.3984 29.5806 16.7331 30.082 16.8447C30.3605 16.9004 30.6391 16.8447 30.9176 16.7889C31.029 16.7889 31.1405 16.7331 31.2519 16.7331C31.2519 16.7889 31.3633 16.8447 31.4747 16.7889C31.6975 16.5658 31.5861 16.2311 31.6418 15.9522C31.6975 15.8965 31.5861 15.8965 31.5304 15.8965Z" fill="black"/>
<path d="M34.5944 16.4542C34.4829 16.4542 34.3715 16.4542 34.2044 16.51C34.093 16.51 33.9816 16.5657 33.8702 16.5657C33.703 16.5657 33.9259 16.51 33.9816 16.51C34.2601 16.2869 34.4829 16.1195 34.5386 15.8406C34.5944 15.7291 34.4829 15.4502 34.2044 15.4502C33.8144 15.506 33.8144 15.6175 33.8144 15.8406C33.8144 15.8964 33.9816 15.8964 33.9816 15.8406C33.9259 15.7291 34.0373 15.7291 34.2044 15.7849C34.2044 15.8406 34.1487 15.8964 34.093 15.9522C33.9816 16.0637 33.8702 16.1753 33.703 16.2869C33.5916 16.3984 33.3131 16.5657 33.4245 16.6773C33.5916 16.9004 34.3715 16.7331 34.5386 16.6215C34.7615 16.5657 34.7615 16.4542 34.5944 16.4542Z" fill="black"/>
<path d="M35.7642 16.1753C35.7085 16.1753 35.2629 16.1753 35.2629 16.1196C35.3186 16.008 35.4857 15.8964 35.5414 15.7849C35.5971 15.6733 35.6528 15.4502 35.4857 15.3945C35.3186 15.3387 34.9286 15.3945 34.9843 15.5618H35.0401C35.1515 15.5618 35.2072 15.5618 35.3186 15.5618C35.3186 15.6176 35.3186 15.6176 35.2629 15.6733C35.2072 15.7849 35.0401 15.8964 34.9286 16.008C34.8729 16.0638 34.8172 16.2311 34.8729 16.2869C34.9843 16.5658 35.4857 16.4542 35.6528 16.2869C35.82 16.2311 35.82 16.1753 35.7642 16.1753Z" fill="black"/>
<path d="M38.0483 16.1754C37.9368 16.1754 37.5469 16.2311 37.6583 16.0638C37.714 15.9523 37.8254 15.8407 37.8811 15.7292C37.9368 15.6176 37.9925 15.4503 37.8811 15.3387C37.714 15.1156 37.2126 15.1714 37.2126 15.4503C37.2684 15.1156 37.714 15.3387 37.714 15.506C37.714 15.6176 37.6583 15.6734 37.6026 15.7849C37.5469 15.8965 37.3241 16.008 37.3241 16.1754C37.3241 16.3985 37.7697 16.3985 37.9925 16.3427C38.1597 16.2869 38.1597 16.2311 38.0483 16.1754Z" fill="black"/>
<path d="M38.9394 15.506C38.9951 15.4503 39.0508 15.3387 38.9951 15.2272C38.9394 15.0598 38.6609 15.0598 38.5494 15.1714C38.4937 15.1714 38.5494 15.2272 38.6052 15.2272C38.8837 15.3945 38.8837 15.5618 38.6052 15.6176C38.4937 15.6734 38.6052 15.7849 38.7166 15.7291C38.9394 15.6734 39.1622 15.8965 38.8837 15.9523C38.7723 15.9523 38.7166 16.008 38.6052 16.0638C38.4937 16.1754 38.6051 16.3427 38.828 16.2869C39.0508 16.2311 39.5522 16.008 39.4965 15.7849C39.3293 15.5618 39.1065 15.506 38.9394 15.506Z" fill="black"/>
<path d="M16.0996 20.9722C16.0439 20.9722 15.4868 21.028 15.5425 20.9164C15.5982 20.8049 15.7654 20.7491 15.8211 20.6375C16.0439 20.4144 16.1553 20.2471 16.0996 20.024C16.0439 19.8009 15.4868 19.8567 15.4868 20.0798H15.5425C15.5425 20.0798 15.5982 20.0798 15.5425 20.0798C15.5982 19.9682 15.7097 19.9124 15.8768 20.024C15.8768 20.1355 15.8768 20.2471 15.7654 20.3029C15.7097 20.4144 15.5425 20.526 15.4311 20.5818C15.3197 20.6375 15.0969 20.8049 15.1526 20.9164C15.264 21.1953 15.9325 21.1953 16.0996 20.9722C16.2667 20.9722 16.1553 20.9722 16.0996 20.9722Z" fill="black"/>
<path d="M17.1581 20.1913C17.1581 20.1913 17.1024 20.1913 17.1581 20.1913C17.1024 20.1913 17.1024 20.1355 17.1581 20.1913C17.1581 20.1355 17.1581 20.1355 17.1024 20.1355C17.1024 20.1355 17.1024 20.1355 17.0467 20.1355C16.991 20.1355 16.9353 20.1355 16.9353 20.1355C16.8795 20.1913 16.7681 20.3586 16.6567 20.5817C16.5453 20.5817 16.5453 20.2471 16.5453 20.1913C16.5453 20.1913 16.5453 20.1913 16.4896 20.1913C16.3225 20.3028 16.1553 20.6933 16.4339 20.749C16.4896 20.749 16.5453 20.749 16.5453 20.749C16.4896 20.9722 16.5453 21.1953 16.8795 21.1953C17.1581 21.1953 17.0467 20.8606 17.0467 20.749C17.0467 20.6375 17.0467 20.5259 17.0467 20.3586C17.1581 20.3028 17.1581 20.2471 17.1581 20.1913Z" fill="black"/>
<path d="M21.5588 19.5777C21.6702 19.5219 21.6702 19.4662 21.5588 19.4662C21.2245 19.4104 20.6118 19.4662 20.3889 19.6893C20.3889 19.6893 20.3889 19.745 20.4446 19.745C20.4446 19.745 20.5561 19.745 20.6118 19.745C20.5003 19.8566 20.5561 20.1355 20.7789 20.1355C20.8346 20.1355 21.1131 20.1355 21.1131 20.1913C21.1688 20.4144 20.8346 20.4701 20.6675 20.5259C20.5561 20.5817 20.5561 20.5817 20.5561 20.5817C20.5003 20.5817 20.5003 20.5817 20.4446 20.5817C20.3889 20.5817 20.3889 20.6375 20.3889 20.6375C20.3332 20.6375 20.2775 20.6375 20.2218 20.6375C19.8319 20.6933 20.2218 20.4144 20.2775 20.4144C20.4446 20.247 20.5003 20.0797 20.3889 19.9124C20.1661 19.6335 19.5533 19.5219 19.609 19.9682C19.609 20.0239 19.7204 20.0239 19.7204 19.9682C19.8319 19.9124 19.9433 19.9124 20.1104 19.8566C20.2218 19.9682 20.2218 20.1355 20.1104 20.247C20.0547 20.3028 19.9433 20.3586 19.8876 20.4144C19.7762 20.4701 19.6647 20.5817 19.7204 20.6933C19.8319 20.9164 20.3332 20.8048 20.5561 20.749C21.0017 20.749 21.4474 20.5259 21.5588 20.247C21.5588 20.1355 21.5588 20.0239 21.4474 19.9682C21.2803 19.8566 20.7232 19.9682 20.8903 19.745V19.6893C20.946 19.6893 20.946 19.6893 21.0017 19.6893C21.1131 19.6335 21.336 19.6335 21.5588 19.5777Z" fill="black"/>
<path d="M23.5086 20.3028C23.6757 20.1912 23.9543 20.0239 24.0657 19.9681C24.2885 19.8008 24.3999 19.5777 24.1771 19.4103C23.8986 19.1314 23.2301 19.2988 23.2858 19.6334H23.3415C23.3415 19.4103 23.7871 19.2988 24.01 19.4661C24.2328 19.6334 23.7871 19.8566 23.62 19.9681C23.4529 20.0797 23.1187 20.1912 23.1187 20.3585C23.1187 20.4143 23.1744 20.4701 23.2301 20.4701C23.5086 20.4701 23.7871 20.4701 24.0657 20.3585C24.1214 20.3585 24.1214 20.3028 24.0657 20.3028C23.8429 20.247 23.6757 20.3028 23.5086 20.3028Z" fill="black"/>
<path d="M25.1796 19.745C25.1239 19.6893 24.9568 19.6893 24.8454 19.745V19.6893C24.9011 19.5219 24.9011 19.3546 25.1796 19.2988C25.2354 19.2988 25.2354 19.243 25.1796 19.243C24.7897 19.243 24.5669 19.5219 24.5669 19.8008C24.4554 19.8566 24.3997 19.9124 24.4554 20.0239C24.4554 20.0239 24.5112 20.0797 24.5669 20.0797C24.5669 20.0797 24.5669 20.0797 24.6226 20.0797C24.6783 20.247 24.9011 20.3586 25.1796 20.247C25.4025 20.0797 25.5696 19.8566 25.1796 19.745Z" fill="black"/>
<path d="M27.6308 20.1355C27.5194 20.1355 27.1295 20.0797 27.0737 20.1913C27.1295 20.0797 27.2409 20.0239 27.3523 19.9124C27.5194 19.7451 27.7422 19.4662 27.6308 19.2988C27.5751 19.1315 27.4637 19.02 27.1852 18.9642C27.018 18.9084 26.8509 19.02 26.8509 19.1315C26.8509 19.1873 26.9066 19.1873 26.9066 19.1315C27.1852 19.02 27.3523 19.0757 27.408 19.2988C27.408 19.4104 27.3523 19.5219 27.2966 19.6335C27.2409 19.7451 27.1295 19.8008 27.018 19.8566C26.9066 19.9124 26.7395 20.0797 26.7395 20.1913C26.7395 20.4702 27.5194 20.3586 27.7422 20.247C27.7422 20.1913 27.7422 20.0797 27.6308 20.1355Z" fill="black"/>
<path d="M29.1906 19.6335C29.1349 19.6335 29.0792 19.6335 29.0235 19.6335C29.0235 19.5219 29.0235 19.4661 29.0235 19.4103C28.9678 19.2988 28.9121 19.1872 28.8007 19.0757C28.5778 18.9641 28.355 19.0757 28.1322 19.1315C28.0765 19.1315 28.0765 19.1872 28.1322 19.1872C28.8007 19.1315 28.8007 19.4103 28.6893 19.6892C28.4664 19.6892 28.2436 19.6892 28.0765 19.745C27.9651 19.745 27.9651 19.9123 28.0765 19.9123C28.2436 19.9123 28.4664 19.9123 28.6336 19.9123C28.5778 20.0797 28.4664 20.247 28.5221 20.3586C28.5221 20.4143 28.6336 20.4143 28.6893 20.4143C28.9121 20.3028 29.0235 20.1354 29.0792 19.9123C29.1906 19.9123 29.2463 19.8566 29.3577 19.8566C29.2463 19.745 29.2463 19.6335 29.1906 19.6335Z" fill="black"/>
<path d="M31.642 19.6893C31.4749 19.6335 31.4749 19.6335 31.3078 19.6335C31.0292 19.6335 31.2521 19.4662 31.3635 19.4104C31.5306 19.2989 31.642 19.1873 31.642 19.02C31.6977 18.7969 31.3635 18.7411 31.1406 18.8527C31.1963 18.9642 31.2521 19.0758 31.3078 19.1873C31.2521 19.2431 31.1963 19.2989 31.1406 19.2989C31.0849 19.3546 31.0292 19.4104 30.9735 19.4662C30.9178 19.522 30.8064 19.6335 30.8064 19.6893C30.8064 19.9682 31.3635 19.9124 31.5863 19.8009C31.7534 19.8009 31.7534 19.7451 31.642 19.6893Z" fill="black"/>
<path d="M33.0347 18.5181C32.7561 18.4065 32.4219 18.5738 32.2548 18.7412C32.2548 18.7412 32.2548 18.7412 32.2548 18.7969C32.1991 18.7969 32.1434 18.7969 32.1434 18.8527C32.0876 18.9643 32.1434 18.9643 32.1991 19.0758C32.1991 19.0758 32.2548 19.1316 32.3105 19.1316C32.1991 19.1874 32.0876 19.2989 31.9762 19.3547C31.8091 19.4663 31.8091 19.6894 32.1434 19.7451C32.3105 19.8009 32.7561 19.6894 32.8118 19.522C32.8675 19.4105 32.8118 19.2989 32.7004 19.1874C32.7004 19.1874 32.7004 19.1874 32.6447 19.1316C32.7561 19.0758 32.9233 18.9643 33.0347 18.8527C33.1461 18.7969 33.3132 18.6296 33.0347 18.5181Z" fill="black"/>
<path d="M35.43 19.1873C35.5972 19.0757 35.7086 18.9084 35.7643 18.7411C35.8757 18.4064 35.2072 18.5179 34.9844 18.6295C34.9844 18.6295 34.9844 18.6853 34.9844 18.6295C35.0958 18.5737 35.2072 18.5179 35.3743 18.5179C35.5415 18.6295 35.5972 18.7411 35.4858 18.8526C35.43 18.9084 35.3186 19.0199 35.2072 19.0757C35.0401 19.1873 34.873 19.2988 34.8173 19.4104C34.7616 19.5219 34.8173 19.5777 34.9287 19.6335C35.2072 19.745 35.4857 19.6893 35.7086 19.5219C35.7643 19.4661 35.7086 19.4104 35.5972 19.4104C35.4858 19.4104 34.9287 19.5219 35.1515 19.2988C35.2072 19.2988 35.3186 19.243 35.43 19.1873Z" fill="black"/>
<path d="M36.7112 18.6853C36.7669 18.5737 36.7669 18.5737 36.7112 18.518C36.7112 18.518 36.7112 18.4622 36.6555 18.4622C36.4326 18.4622 36.2655 18.4064 36.1541 18.518C36.0427 18.6295 35.9313 18.7411 35.9313 18.8526C35.8756 19.1315 36.1541 19.1315 36.4883 19.0757C36.5441 19.0757 36.5441 19.02 36.4883 19.02C35.987 18.9642 36.2655 18.5737 36.6555 18.518C36.5998 18.6295 36.5998 18.7411 36.5998 18.7968C36.5998 19.02 36.544 19.2431 36.2655 19.3546C36.0984 19.4104 35.987 19.4104 35.8199 19.4662C35.7641 19.522 35.7641 19.5777 35.8199 19.5777C36.0984 19.6893 36.4883 19.5219 36.6555 19.3546C36.7669 19.2431 36.8226 19.0757 36.8226 18.9642C36.7669 18.9084 36.7112 18.7968 36.7112 18.6853Z" fill="black"/>
<path d="M38.9952 18.6853C38.9952 18.6295 39.0509 18.6295 39.0509 18.5737C39.1066 18.518 39.1066 18.4622 39.1066 18.4064C39.1066 18.2949 38.9952 18.2391 38.8281 18.1833C38.5496 18.1275 38.271 18.3506 38.3268 18.518C38.3268 18.5737 38.4939 18.5737 38.4939 18.518C38.6053 18.4064 38.661 18.3506 38.7724 18.4622C38.7724 18.518 38.661 18.6295 38.661 18.6853C38.6053 18.7411 38.6053 18.7968 38.661 18.8526C38.7167 18.9084 38.7724 18.9642 38.8838 18.9642C39.1066 18.9642 39.0509 19.02 38.7724 19.2431C38.661 19.2431 38.6053 19.2431 38.4939 19.2431C38.4382 19.2431 38.3825 19.2431 38.3268 19.1873C38.1039 19.1873 38.0482 19.4104 38.2153 19.4662C38.5496 19.5777 39.1624 19.4662 39.3852 19.2431C39.4966 18.9642 39.3295 18.6853 38.9952 18.6853Z" fill="black"/>
<path d="M39.8866 18.0717C39.4966 17.9602 39.2738 18.2948 39.3295 18.5179C39.3295 18.5737 39.3852 18.5737 39.4966 18.5737C39.4966 18.5737 39.4966 18.5737 39.5523 18.5737C39.4966 18.7968 39.5523 19.1315 39.9423 19.1315C40.3322 19.1873 40.4437 18.9084 40.4437 18.6853C40.388 18.4064 40.2765 18.1833 39.8866 18.0717ZM40.0537 18.9084C39.7195 18.9084 39.6081 18.8526 39.6081 18.6295C39.6081 18.5737 39.6081 18.5179 39.6081 18.4622C39.7752 18.2948 39.998 18.2948 40.1094 18.5179C40.1651 18.6295 40.1094 18.7968 40.0537 18.9084Z" fill="black"/>
<path d="M16.8237 23.5379C16.7123 23.4263 16.5452 23.3705 16.3781 23.4263C16.4895 23.259 16.6009 23.0359 16.3781 22.9801C16.0995 22.8685 15.9324 23.1474 15.9324 23.3147H15.9881C16.0438 22.9801 16.3224 23.259 16.211 23.3705C16.1553 23.4263 16.0995 23.4821 16.0438 23.5936C15.9881 23.6494 16.0995 23.761 16.211 23.7052C16.6566 23.5936 16.768 23.8167 16.4895 24.0398C16.3781 24.1514 16.0995 24.2072 15.8767 24.1514C15.8767 24.0956 15.8767 24.0956 15.821 24.0398C15.7096 23.9841 15.5982 23.9841 15.4868 24.0398C15.3196 24.0398 15.2639 24.2072 15.3753 24.263C15.7653 24.6534 16.5452 24.4303 16.8237 24.0956C16.9352 23.8725 16.9909 23.6494 16.8237 23.5379Z" fill="black"/>
<path d="M17.6036 23.4263C17.6036 23.3705 17.4365 22.9801 17.4922 22.9243C17.4922 22.9243 17.4922 22.8685 17.4365 22.8685C17.2694 22.9243 17.2694 23.1474 17.2694 23.259C17.2694 23.5936 17.1023 23.9283 17.3251 24.2072C17.3808 24.263 17.4922 24.263 17.4922 24.2072C17.6593 23.9283 17.6593 23.7052 17.6036 23.4263Z" fill="black"/>
<path d="M24.3999 13.2191C24.3442 12.9402 24.3999 12.6614 24.1214 12.4383C24.01 12.3267 23.7314 12.3825 23.62 12.3825C23.1744 12.4383 22.7287 12.3825 22.283 12.4383C21.9488 12.4383 21.2246 12.3825 21.0018 12.5498C20.8904 12.5498 20.7789 12.6056 20.8346 12.7171C20.7789 13.2191 20.7789 13.7211 20.7789 14.2789C20.7789 14.4462 20.6118 15.1155 21.1132 15.1155C21.2803 15.1155 21.3917 15.1155 21.5588 15.1155C21.6145 15.1713 21.6703 15.1713 21.726 15.1713C22.1716 15.1713 22.6173 15.1155 23.1186 15.1155C23.5643 15.0598 24.01 15.1155 24.4556 15.004C24.6227 14.9482 24.6227 14.8924 24.6227 14.7809L24.6785 14.7251C24.6785 14.2231 24.5113 13.6653 24.3999 13.2191ZM21.336 13.8327C21.336 13.498 21.2803 13.2191 21.2246 12.8845C21.4474 12.9402 21.7817 12.8845 22.0045 12.8845C22.5616 12.8287 23.0629 12.8287 23.62 12.8287C23.7871 13.3307 23.6757 13.9442 23.7314 14.4462C23.7314 14.502 23.7314 14.5578 23.7314 14.6136C23.5643 14.6136 23.4529 14.6693 23.2858 14.6693C22.7287 14.7251 22.1159 14.7251 21.5588 14.7251C21.2803 14.7251 21.3917 14.9482 21.336 14.6693C21.3917 14.3347 21.336 14.1116 21.336 13.8327Z" fill="black"/>
<path d="M22.3386 3.73706C22.2272 3.79284 22.1715 3.79284 22.0601 3.79284C22.1715 3.84861 22.2829 3.79284 22.3386 3.73706Z" fill="black"/>
<path d="M23.0628 3.90445C22.84 4.016 22.3386 4.12756 22.3386 3.7929C22.3386 3.73712 22.3386 3.73712 22.3386 3.68134C22.3943 3.62556 22.5057 3.56979 22.5057 3.40246V3.34668C22.3943 3.34668 22.3386 3.45823 22.2829 3.68134V3.73712C22.2272 4.07178 22.3943 4.46222 23.0628 4.016C23.1742 3.96023 23.1185 3.90445 23.0628 3.90445Z" fill="black"/>
<path d="M21.7259 3.56973C21.5588 3.73706 21.6145 3.62551 21.5031 3.79284C21.2245 4.23906 20.6674 4.29483 20.2218 4.18328C20.2775 4.01595 20.3332 3.84862 20.3889 3.62551C20.3889 3.45818 20.4446 3.29085 20.4446 3.12352C20.5003 2.78886 20.8346 2.95619 20.7789 3.23507C20.7789 3.23507 20.8346 3.29085 20.8346 3.23507C20.8903 3.01196 21.1688 2.6773 21.0017 2.39842C20.946 2.34264 20.6674 2.28687 20.6117 2.28687C20.0547 2.73308 20.3889 3.51396 20.1104 4.07173C19.8875 4.01595 19.6647 4.01595 19.4419 4.07173C19.2748 4.23906 18.9405 4.46216 19.219 4.68527C19.4976 4.90838 20.0547 4.68527 20.2218 4.35061C20.3889 4.40639 20.556 4.40639 20.7231 4.40639C21.1131 4.46216 21.3359 4.23906 21.5588 3.96017C21.7259 3.79284 21.893 3.79284 22.1158 3.79284C22.0044 3.79284 21.893 3.68129 21.7259 3.56973C21.7816 3.56973 21.7816 3.56973 21.7259 3.56973ZM19.609 4.57372C19.609 4.46216 19.609 4.35061 19.609 4.23906C19.7204 4.23906 19.8318 4.23906 19.8875 4.23906C19.9432 4.23906 19.9432 4.23906 19.999 4.23906C19.9432 4.40639 19.7761 4.51794 19.609 4.57372Z" fill="black"/>
<path d="M27.4082 3.73715C26.7954 3.73715 26.1826 3.90449 25.6256 3.96026C25.6256 3.90449 25.6813 3.84871 25.6256 3.79293C25.6256 3.51405 25.2356 3.79293 25.2356 4.01604V4.07182C25.1242 4.07182 25.0128 4.07182 24.9014 4.07182C24.5671 4.07182 24.5114 3.79293 24.2886 3.79293C24.01 3.79293 23.5087 4.23915 23.3973 3.56982H23.3416C23.3416 4.40648 24.01 3.79293 24.4557 4.07182C24.6785 4.18337 25.1242 4.29492 25.4027 4.18337C25.9041 4.23915 27.2411 3.90449 27.3525 3.84871C27.4639 3.79293 27.4639 3.73715 27.4082 3.73715Z" fill="black"/>
<path d="M2.34002 25.8248C2.28431 25.8248 2.17289 25.8248 2.11719 25.8248C2.17289 25.8806 2.2286 25.8248 2.34002 25.8248Z" fill="black"/>
<path d="M3.11979 25.7133C2.95267 25.7133 2.84125 25.769 2.67413 25.769C2.56272 25.769 2.4513 25.8248 2.28418 25.8806C2.33989 25.8806 2.4513 25.8806 2.50701 25.8806C2.72984 25.769 2.89696 25.769 3.11979 25.7133C3.1755 25.7133 3.11979 25.7133 3.11979 25.7133Z" fill="black"/>
<path d="M1.94998 25.8806C2.00569 25.8806 2.0614 25.8806 2.11711 25.8248C2.0614 25.8248 2.00569 25.8248 1.94998 25.8806C1.89428 25.8248 1.89428 25.8806 1.94998 25.8806Z" fill="black"/>
<path d="M6.62921 27.1634C6.29497 26.996 6.07214 26.6614 5.7379 26.5498C6.01643 26.7171 6.23926 26.9402 6.46209 27.1076C6.29497 27.1076 6.18355 27.1634 6.01643 27.2191C5.96073 27.2191 5.90502 27.2191 5.90502 27.2191C5.84931 27.2191 5.84931 27.2191 5.90502 27.2749C5.68219 27.3307 5.45936 27.4422 5.29224 27.5538C5.29224 27.5538 5.29224 27.6096 5.29224 27.5538C5.7379 27.3865 6.18355 27.3307 6.57351 27.2191C6.57351 27.1634 6.62921 27.1634 6.62921 27.1634C6.62921 27.1634 6.68492 27.1634 6.62921 27.1634Z" fill="black"/>
<path d="M1.28138 25.8805C1.22567 25.8247 1.16997 25.8247 1.11426 25.7689C1.16997 25.8247 1.22567 25.8805 1.28138 25.8805Z" fill="black"/>
<path d="M1.00272 25.769C1.05843 25.769 1.11413 25.769 1.11413 25.769C1.05843 25.769 1.05843 25.769 1.00272 25.769C0.947011 25.7133 0.947011 25.8248 1.00272 25.769Z" fill="black"/>
<path d="M3.50955 26.773C3.06389 26.6057 2.61823 26.3826 2.22828 26.2153C1.94974 26.1037 1.67121 25.9922 1.39267 25.9364C1.39267 25.9364 1.33696 25.9364 1.33696 25.8806C1.33696 25.8806 1.39267 25.8806 1.39267 25.9364C1.33696 25.9364 1.33696 25.9364 1.28125 25.9364C1.00272 25.9364 0.668473 25.9364 0.334229 25.9922C0.612765 25.9364 0.94701 25.9922 1.28125 25.9364C1.33696 25.9364 1.39267 25.9364 1.44838 25.9922C1.50408 26.0479 1.55979 26.1037 1.6155 26.1037C1.78262 26.2153 1.94974 26.3268 2.17257 26.3268C2.22828 26.3268 2.22828 26.2711 2.17257 26.2711C1.94974 26.1595 1.72691 26.1037 1.50408 25.9922C1.83833 26.1037 2.22828 26.2711 2.50682 26.3826C2.78535 26.5499 3.1196 26.6615 3.50955 26.773C3.50955 26.8288 3.50955 26.773 3.50955 26.773Z" fill="black"/>
<path d="M2.45142 25.6017C2.50712 25.5459 2.61854 25.4901 2.67425 25.4343C2.61854 25.4901 2.50712 25.5459 2.45142 25.6017Z" fill="black"/>
<path d="M3.39828 25.3785C3.28686 25.3785 3.17545 25.3785 3.00832 25.4343C2.89691 25.4343 2.8412 25.4343 2.72979 25.4343C2.8412 25.3785 2.95262 25.3227 3.00832 25.267C2.56267 25.267 2.0613 25.267 1.61564 25.267C2.0613 25.267 2.50696 25.3227 2.95262 25.267C2.89691 25.3227 2.8412 25.3785 2.72979 25.4343C2.0613 25.4343 1.44852 25.4901 0.780029 25.4901C1.44852 25.4901 2.11701 25.4901 2.72979 25.4901C2.72979 25.4901 2.72979 25.5459 2.7855 25.5459C2.8412 25.5459 2.8412 25.4901 2.89691 25.4901C2.95262 25.4901 3.00832 25.4901 3.00832 25.4901C3.00832 25.4901 3.00832 25.4901 3.00832 25.4343C3.17545 25.4343 3.28686 25.4343 3.39828 25.3785C3.39828 25.4343 3.39828 25.3785 3.39828 25.3785Z" fill="black"/>
<path d="M6.57361 27.3307C6.35078 27.2192 6.18366 27.1634 5.96083 27.0519C5.90512 27.0519 5.90512 27.0519 5.84941 26.9961C5.90512 26.9961 5.90512 26.9961 5.96083 26.9961C6.01653 26.9961 6.01653 26.9403 5.96083 26.9403C5.90512 26.9403 5.84941 26.9403 5.7937 26.9961C5.738 26.9961 5.68229 26.9403 5.62658 26.9403C5.738 26.8845 5.84941 26.8287 6.01653 26.8287C6.07224 26.8287 6.01653 26.773 6.01653 26.773C5.84941 26.773 5.68229 26.8288 5.51517 26.8845C5.45946 26.8288 5.40375 26.8287 5.34805 26.773C5.51517 26.773 5.68229 26.7172 5.7937 26.7172C5.84941 26.7172 5.84941 26.6614 5.7937 26.6614H5.738C5.51517 26.5499 5.29234 26.4383 5.06951 26.3268C5.12522 26.3268 5.12522 26.3268 5.18092 26.3268C5.23663 26.3268 5.23663 26.271 5.18092 26.271C5.0138 26.2152 4.95809 26.2152 4.90239 26.2152C4.79097 26.1594 4.67956 26.1036 4.56814 26.1036C4.62385 26.1036 4.73527 26.1037 4.79097 26.0479C4.95809 26.1037 5.12522 26.1594 5.29234 26.2152C5.40375 26.271 5.45946 26.3268 5.57088 26.3825C5.57088 26.3825 5.62658 26.3825 5.57088 26.3268C5.51517 26.271 5.45946 26.271 5.40375 26.2152C5.45946 26.2152 5.45946 26.1594 5.40375 26.1594C5.18092 26.1037 4.95809 25.9921 4.73526 25.8805C4.62385 25.8248 4.51244 25.769 4.40102 25.7132C4.17819 25.6017 4.01107 25.5459 3.78824 25.4343C3.78824 25.4343 3.73253 25.4343 3.78824 25.4343C4.06678 25.6017 4.34531 25.769 4.67956 25.9363C4.56814 25.9363 4.51244 25.9363 4.40102 25.9921C4.28961 25.9363 4.12248 25.8805 4.01107 25.8805C4.06678 25.8805 4.06678 25.8805 4.12248 25.8248C4.17819 25.8248 4.12248 25.769 4.12248 25.769C4.06678 25.769 3.95536 25.8248 3.89965 25.8248C3.84395 25.769 3.73253 25.769 3.67682 25.7132C3.67682 25.7132 3.62112 25.7132 3.67682 25.769C3.73253 25.769 3.78824 25.8248 3.84395 25.8248C3.73253 25.8805 3.56541 25.9363 3.454 25.9363C3.17546 25.8248 2.95263 25.7132 2.67409 25.6017C2.89692 25.7132 3.11975 25.8248 3.34258 25.9363C3.23117 25.9921 3.17546 25.9921 3.06404 25.9921C2.7298 25.8805 2.33985 25.7132 2.0056 25.6017C2.17273 25.6017 2.39556 25.5459 2.56268 25.5459C2.61838 25.5459 2.61838 25.4901 2.56268 25.4901C2.50697 25.4901 2.39555 25.4901 2.33985 25.4901C2.39555 25.4901 2.39556 25.4343 2.45126 25.4343C2.39556 25.6017 2.33985 25.6574 2.28414 25.6574C2.0056 25.7132 1.72707 25.769 1.39282 25.769C1.39282 25.769 1.39282 25.769 1.44853 25.769C1.83848 25.9921 2.17273 26.1594 2.56268 26.3268C2.61838 26.3268 2.67409 26.271 2.61838 26.271C2.28414 26.0479 1.89419 25.9363 1.50424 25.769C1.67136 25.769 1.83848 25.769 2.0056 25.769V25.8248C2.28414 25.8248 2.67409 26.0479 2.95263 26.2152C2.84121 26.2152 2.7298 26.271 2.61838 26.3268C2.78551 26.271 2.89692 26.2152 3.00834 26.2152C3.06404 26.271 3.11975 26.271 3.17546 26.3268C3.23117 26.3825 3.34258 26.3825 3.454 26.4383C3.39829 26.4383 3.39829 26.4383 3.34258 26.4941C3.34258 26.4941 3.34258 26.5499 3.34258 26.4941C3.39829 26.4941 3.454 26.4941 3.5097 26.4383C3.73253 26.5499 4.01107 26.6056 4.2339 26.6614C4.28961 26.6614 4.34531 26.7172 4.34531 26.7172H4.28961H4.34531C4.56814 26.8288 4.79097 26.8845 5.0138 26.9403C4.84668 26.9961 4.67956 27.0519 4.51244 27.1076C4.17819 26.8845 3.78824 26.773 3.34258 26.5499C3.73253 26.773 4.06678 26.9403 4.51244 27.1076C4.40102 27.1634 4.2339 27.2192 4.12248 27.2192C4.28961 27.2192 4.45673 27.1634 4.62385 27.1076C4.79097 27.1634 4.95809 27.2192 5.18092 27.275C5.23663 27.275 5.23663 27.2192 5.18092 27.2192C5.06951 27.1634 4.90239 27.1076 4.79097 27.0519C4.90239 26.9961 5.0138 26.9961 5.12522 26.9403C5.18092 26.9403 5.29234 26.8845 5.34805 26.8845C5.34805 26.8845 5.34805 26.8845 5.40375 26.8845C5.45946 26.8845 5.51517 26.8845 5.57088 26.8287C5.62658 26.8287 5.68229 26.8845 5.68229 26.8845C5.62658 26.8845 5.62658 26.9403 5.68229 26.9403C5.738 26.9403 5.738 26.9403 5.7937 26.9403C6.07224 27.1076 6.29507 27.275 6.57361 27.3307C6.62932 27.3865 6.62932 27.3307 6.57361 27.3307ZM3.56541 26.0479C3.67682 25.9921 3.84395 25.9921 3.95536 25.9363C4.06678 25.9921 4.17819 26.0479 4.28961 26.1036C4.2339 26.1036 4.17819 26.1594 4.12248 26.1594C4.06678 26.1594 4.01107 26.2152 3.89965 26.2152C3.78824 26.1594 3.67682 26.1037 3.56541 26.0479ZM4.34531 26.3825C4.28961 26.3825 4.28961 26.3825 4.2339 26.3268C4.12248 26.271 4.01107 26.2152 3.95536 26.2152C4.06678 26.1594 4.2339 26.1594 4.40102 26.1036C4.51244 26.1594 4.62385 26.2152 4.73526 26.271C4.62385 26.3268 4.51244 26.3268 4.34531 26.3825ZM4.40102 26.3825C4.51244 26.3268 4.67956 26.3268 4.79097 26.271C4.90239 26.3268 5.0138 26.3825 5.12522 26.4383C5.0138 26.4383 4.84668 26.4941 4.73526 26.4941C4.62385 26.4941 4.51244 26.4383 4.40102 26.3825ZM5.0138 26.6056C5.06951 26.6614 5.18092 26.6614 5.23663 26.7172C5.18092 26.7172 5.18092 26.7172 5.12522 26.7172C5.0138 26.6614 4.90239 26.6056 4.79097 26.5499C4.95809 26.4941 5.06951 26.4941 5.23663 26.4941C5.34805 26.5499 5.45946 26.6056 5.57088 26.6614C5.45946 26.6614 5.34805 26.7172 5.23663 26.7172C5.18092 26.6614 5.06951 26.6056 5.0138 26.6056C5.0138 26.4941 4.95809 26.5499 5.0138 26.6056Z" fill="black"/>
<path d="M1.33716 25.9922C1.33716 25.9922 1.33716 26.048 1.33716 25.9922C1.39287 26.048 1.39287 25.9922 1.33716 25.9922Z" fill="black"/>
<path d="M5.73791 25.3228C5.51508 25.1554 5.34796 24.9881 5.12513 24.8208H5.18084C5.34796 24.8208 5.51508 24.765 5.6822 24.765V24.7092C5.51508 24.765 5.34796 24.8208 5.12513 24.8208C5.06942 24.765 5.06942 24.765 5.01372 24.7092L5.06942 24.765C5.06942 24.765 5.06942 24.765 5.01372 24.765H4.95801C5.01372 24.765 5.06942 24.765 5.06942 24.765C5.23655 24.9323 5.40367 25.0997 5.57079 25.267C5.79362 25.4901 6.01645 25.6574 6.23928 25.8805C6.23928 25.8805 6.29499 25.8805 6.29499 25.8248C6.18357 25.6574 5.96074 25.4901 5.73791 25.3228Z" fill="black"/>
<path d="M4.90243 25.0439C4.84672 24.9882 4.84672 24.9882 4.79102 24.9324C4.84672 24.9882 4.90243 25.0439 4.90243 25.0439C5.06955 25.1555 5.18097 25.3786 5.29238 25.5459C5.29238 25.5459 5.34809 25.5459 5.29238 25.5459C5.18097 25.3786 5.06955 25.2113 4.90243 25.0439Z" fill="black"/>
<path d="M4.56815 24.765C4.62386 24.765 4.62386 24.765 4.67956 24.8208C4.62386 24.765 4.56815 24.765 4.56815 24.765C4.51244 24.7092 4.51244 24.765 4.56815 24.765Z" fill="black"/>
<path d="M4.73519 24.8766C4.73519 24.8208 4.7909 24.8208 4.7909 24.8208C4.7909 24.8208 4.7909 24.8208 4.73519 24.8766C4.67949 24.8208 4.62378 24.8208 4.62378 24.765C4.67949 24.8208 4.67949 24.8208 4.73519 24.8766C4.67949 24.8766 4.73519 24.9323 4.73519 24.8766C4.7909 24.9323 4.7909 24.9323 4.73519 24.8766C4.7909 24.9323 4.7909 24.9323 4.73519 24.8766Z" fill="black"/>
<path d="M5.0138 24.765C4.95809 24.765 4.84668 24.765 4.84668 24.8208C4.90239 24.8208 4.95809 24.8208 5.0138 24.765Z" fill="black"/>
<path d="M6.01646 24.9324C5.90505 24.9881 5.73792 24.9881 5.5708 25.0439C5.73792 25.0439 5.90505 25.0439 6.01646 24.9324C6.07217 24.9881 6.07217 24.9324 6.01646 24.9324Z" fill="black"/>
<path d="M5.12503 25.0997C5.18074 25.0997 5.23645 25.0997 5.29215 25.0439C5.23645 25.0439 5.18074 25.0439 5.12503 25.0997C5.06933 25.0439 5.06933 25.0997 5.12503 25.0997Z" fill="black"/>
<path d="M4.28953 1.56177C4.28953 1.56177 4.23382 1.56177 4.28953 1.56177C4.62377 2.11954 4.17811 4.40639 4.1224 5.01993C3.89958 6.97213 3.56533 9.03587 3.06396 10.8765C3.62104 8.98009 3.95528 6.97213 4.17811 5.01993C4.34523 4.01595 4.62377 2.62153 4.28953 1.56177Z" fill="black"/>
<path d="M5.57091 12.1035C5.18096 13.219 4.67959 14.3346 4.28964 15.3943C4.12252 14.3904 3.89969 13.4422 3.56545 12.4939C3.67686 11.7688 3.78827 11.0995 3.84398 10.3744C4.12252 11.3226 4.40106 12.2151 4.62389 13.1633H4.67959C4.56818 12.1035 4.23393 11.1553 3.89969 10.1513C3.9554 9.59355 4.06681 9.03578 4.12252 8.47801C4.40106 9.53777 4.67959 10.7091 5.01384 11.7688C5.01384 11.8246 5.06954 11.7688 5.06954 11.7688C4.84672 10.8764 4.84672 9.87244 4.45676 8.98001C4.34535 8.7569 4.23393 8.47801 4.12252 8.25491C4.12252 8.14335 4.12252 8.0318 4.17823 7.97602C4.17823 8.08758 4.12252 8.14335 4.12252 8.25491C3.84398 7.58558 3.50974 6.86048 3.45403 6.19116C3.50974 6.97204 3.89969 7.69714 4.12252 8.47801C4.0111 8.98001 3.89969 9.53777 3.78828 10.0398C3.62115 9.53777 3.45403 9.09156 3.34262 8.58957C3.45403 9.14734 3.62115 9.7051 3.78828 10.2071C3.67686 10.9322 3.56545 11.6015 3.50974 12.3266C3.39832 12.0477 3.34262 11.8246 3.2312 11.5457C3.34262 11.8246 3.39832 12.1035 3.50974 12.3824C3.45403 12.8286 3.45403 13.219 3.39832 13.6653C3.45403 13.2748 3.50974 12.9402 3.56545 12.5497C3.84398 13.4979 4.06681 14.4461 4.23393 15.4501C3.9554 16.231 3.67686 16.9561 3.39832 17.737C3.67686 17.0119 3.9554 16.2868 4.28964 15.5617C4.34535 15.729 4.34535 15.9521 4.40106 16.1194C4.34535 15.8963 4.34535 15.6732 4.28964 15.4501C4.7353 14.3904 5.18096 13.2748 5.57091 12.1035Z" fill="black"/>
<path d="M5.73792 11.4342C5.68222 11.6573 5.62651 11.8804 5.5708 12.1035C5.62651 11.8804 5.68222 11.6573 5.73792 11.4342C5.79363 11.4342 5.73792 11.3784 5.73792 11.4342Z" fill="black"/>
<path d="M4.28956 16.2867C3.8439 17.235 3.34253 18.2389 2.95258 19.2429C3.1197 18.7409 3.23112 18.2389 3.39824 17.7369C3.17541 18.3505 2.95258 18.964 2.78546 19.5776C2.56263 20.1911 2.45122 20.8047 2.39551 21.4182H2.45122C2.50692 19.7449 3.56536 17.8485 4.28956 16.2867Z" fill="black"/>
<path d="M3.39815 14.1673C3.39815 13.9999 3.39815 13.8326 3.39815 13.6653C3.34244 13.8326 3.34244 13.9999 3.39815 14.1673C3.28674 14.2231 3.39815 14.2231 3.39815 14.1673Z" fill="black"/>
<path d="M4.84673 7.80872C4.73531 7.41828 4.56819 6.97207 4.40107 6.58163C4.51248 6.02386 4.56819 5.52187 4.56819 5.01988C4.6796 5.96808 4.73531 6.97207 5.01385 7.92027H5.06956C4.84673 6.86051 4.79102 5.74497 4.6239 4.68521C4.6239 4.62944 4.56819 4.51788 4.56819 4.46211V4.40633C4.56819 4.46211 4.6239 4.46211 4.6239 4.40633V4.35055C4.6239 4.29478 4.6239 4.239 4.6239 4.18322H4.56819C4.56819 4.239 4.56819 4.35055 4.56819 4.40633C4.45678 3.79278 4.17824 3.23502 4.06682 2.67725C4.12253 3.40235 4.40107 4.12745 4.51248 4.90832C4.45678 5.41031 4.40107 5.91231 4.34536 6.47007C4.12253 5.91231 3.8997 5.29876 3.84399 4.74099C3.8997 5.41031 4.12253 6.02386 4.34536 6.63741C4.28965 7.08362 4.23395 7.58561 4.17824 8.03183C4.23395 7.58561 4.34536 7.19517 4.40107 6.74896C4.45678 6.91629 4.51248 7.08362 4.56819 7.30673C4.90243 8.31071 5.06956 9.3147 5.23668 10.3745H5.29239C5.23668 9.42625 5.06956 8.64537 4.84673 7.80872Z" fill="black"/>
<path d="M5.90512 17.0121C5.738 17.2909 5.57088 17.514 5.40375 17.8487V14.8368C5.40375 14.781 5.34805 14.781 5.34805 14.8368V17.9603C5.18092 18.2949 5.0138 18.6854 4.84668 19.0758C5.0138 18.7411 5.18092 18.4065 5.34805 18.0718V19.6893C5.34805 19.7451 5.40375 19.7451 5.40375 19.6893V18.016C5.57088 17.6256 5.738 17.2909 5.90512 17.0121Z" fill="black"/>
<path d="M4.67948 19.6336C4.73518 19.4105 4.8466 19.2431 4.90231 19.02C4.79089 19.1874 4.67948 19.4105 4.67948 19.6336C4.62377 19.6336 4.62377 19.6336 4.67948 19.6336Z" fill="black"/>
<path d="M6.12782 16.6216C6.07211 16.7331 6.0164 16.8447 5.96069 16.9563C6.0164 16.9005 6.07211 16.7889 6.12782 16.6216C6.18352 16.6216 6.12782 16.6216 6.12782 16.6216Z" fill="black"/>
<path d="M3.5096 21.4741C3.23106 22.0319 2.7854 22.7012 2.7854 23.3148C2.84111 22.7012 3.23106 22.0319 3.5096 21.4741C3.5653 21.4741 3.5096 21.4741 3.5096 21.4741Z" fill="black"/>
<path d="M5.62671 19.4662C5.68242 19.4104 5.73813 19.3547 5.79383 19.2431C5.84954 19.1873 5.79383 19.1873 5.73813 19.1873C5.68242 19.2989 5.62671 19.4104 5.62671 19.4662C5.23676 18.518 5.06964 17.5698 4.67969 16.6216C5.01393 17.4582 5.23676 18.3507 5.5153 19.1873C5.5153 19.2989 5.571 19.4104 5.62671 19.4662C5.571 19.4662 5.571 19.4662 5.62671 19.4662C5.571 19.4662 5.571 19.4662 5.62671 19.4662C5.84954 20.1355 6.12808 20.7491 6.12808 21.4742C6.12808 20.7491 5.90525 20.1355 5.62671 19.4662Z" fill="black"/>
<path d="M3.89966 22.9802C3.95537 22.5897 4.01107 22.1993 4.17819 21.8646C4.01107 22.1993 3.89966 22.5339 3.89966 22.9802Z" fill="black"/>
<path d="M5.45949 19.7451C5.5152 19.6893 5.57091 19.5778 5.62661 19.522C5.5152 19.5778 5.45949 19.6335 5.45949 19.7451C5.18096 19.1873 4.84671 18.6853 4.67959 18.1276C4.84671 18.6853 5.12525 19.1873 5.45949 19.7451C4.90242 20.3586 4.45676 21.0837 4.17822 21.8646C4.45676 21.0837 4.95813 20.4702 5.45949 19.7451C5.79374 20.4144 6.12798 21.0837 6.12798 21.8646H6.18369C6.12798 21.0837 5.79374 20.4144 5.45949 19.7451Z" fill="black"/>
<path d="M3.50977 18.1276C3.62118 18.3507 3.73259 18.5738 3.84401 18.8527C3.73259 18.6296 3.62118 18.3507 3.50977 18.1276C3.56547 18.0718 3.50977 18.1276 3.50977 18.1276Z" fill="black"/>
<path d="M7.52058 27.777C7.52058 27.7212 7.46487 27.6654 7.46487 27.6096C7.40916 27.4981 7.29775 27.4981 7.24204 27.5539C7.74341 25.8806 6.62926 22.534 6.57355 20.8606C6.51785 18.6296 6.07219 16.3985 6.07219 14.1674C6.07219 9.81682 5.4037 5.18734 4.6795 0.892523C4.84663 0.669415 5.57082 0.836746 5.79365 0.836746C5.96077 0.836746 5.96077 0.557861 5.79365 0.557861C5.62653 0.557861 4.51238 0.557861 4.51238 0.892523C4.6795 3.34671 4.84663 5.85666 5.12516 8.36662C5.34799 10.3746 5.12516 12.6057 5.62653 14.5579C6.23931 16.9563 6.01648 19.5778 6.07219 22.1435C5.90507 21.9762 5.79365 21.7531 5.68224 21.5857L5.73794 21.53C5.68224 21.4742 5.62653 21.4742 5.62653 21.4184C5.4037 20.9164 5.29228 20.3587 5.12516 19.8567C4.90233 19.1873 4.6238 18.4622 4.28955 17.7929C4.6795 18.6296 5.06946 19.5778 5.29228 20.4702C5.4037 20.8049 5.45941 21.0838 5.57082 21.3626C5.4037 21.3069 5.29228 21.4742 5.01375 21.4742C5.01375 21.53 4.95804 21.5857 4.95804 21.6415C4.6238 20.6933 4.23384 19.8009 3.84389 18.8527C4.17814 19.8009 4.56809 20.7491 4.95804 21.6415C4.6795 22.1435 4.34526 22.6455 4.28955 23.2591C3.8996 22.1435 3.56536 21.0838 3.1754 19.9682C3.56536 21.0838 3.8996 22.1993 4.28955 23.3148H4.34526C4.34526 22.7013 4.6795 22.1993 4.95804 21.6415C5.06945 21.8646 5.12516 22.032 5.23658 22.2551C5.01375 22.5897 4.84663 22.9802 4.6795 23.3148C4.6795 23.3148 4.6795 23.3706 4.73521 23.3148C4.90233 22.9802 5.06946 22.5897 5.29228 22.2551C5.45941 22.7013 5.62653 23.2033 5.84936 23.6495H5.90507C5.73794 23.2033 5.51511 22.7013 5.34799 22.2551C5.45941 22.0877 5.57082 21.9204 5.68224 21.7531C5.73794 21.8089 5.79365 21.8646 5.84936 21.9204C6.12789 22.1993 6.01648 22.5897 5.90507 22.9244C5.90507 22.9244 5.90507 22.9802 5.90507 22.9244C6.01648 22.7013 6.12789 22.3666 6.01648 22.0877C5.96077 21.9204 5.84936 21.8089 5.68224 21.6973C5.73794 21.6415 5.79365 21.5857 5.84936 21.4742C5.96077 21.6973 6.07219 21.9204 6.23931 22.0877C6.23931 22.7013 6.29502 23.3148 6.35072 23.9284C5.23658 23.8726 4.12243 23.8726 3.00828 23.9841C3.00828 23.9841 3.00828 23.9841 2.95258 23.9841C2.11697 23.8168 0.612866 24.8208 0.222915 25.1555C-0.11133 25.4343 8.50754e-05 25.769 0.222915 25.6575C0.891403 25.4343 1.50418 25.1555 2.17267 24.9881C2.33979 24.9324 2.50692 24.8766 2.67404 24.8208C2.72975 24.8208 3.39823 25.4901 3.50965 25.6017C4.40097 26.5499 5.96077 26.9961 6.85209 27.8885C6.96351 28.0001 7.07492 28.0001 7.13063 27.9443C7.29775 28.1116 7.57629 27.9443 7.52058 27.777ZM5.45941 21.8089C5.34799 21.9762 5.23658 22.1435 5.18087 22.2551C5.12516 22.032 5.01375 21.8089 4.95804 21.6415C4.95804 21.5857 5.01375 21.53 5.01375 21.4742C5.18087 21.5857 5.34799 21.6973 5.45941 21.8089C5.51511 21.8089 5.45941 21.8089 5.45941 21.8089ZM5.62653 21.6415C5.57082 21.6415 5.51511 21.6973 5.51511 21.7531C5.34799 21.6415 5.18087 21.53 5.06946 21.4742C5.18087 21.4742 5.23658 21.4184 5.34799 21.3626C5.45941 21.3069 5.57082 21.3069 5.62653 21.3626C5.62653 21.4184 5.68224 21.4184 5.68224 21.4742C5.68224 21.5857 5.62653 21.5857 5.62653 21.6415ZM5.4037 26.1594C4.6238 25.6575 3.8996 25.0997 3.28682 24.4304C4.23384 24.4861 5.23658 24.4861 6.23931 24.4861C6.35072 25.4901 6.57355 26.4383 6.9078 27.3308C6.62926 26.9961 5.62653 26.3268 5.4037 26.1594Z" fill="black"/>
<path d="M13.6485 6.1355C13.4257 6.19127 13.3142 6.30283 13.1471 6.47016C13.0357 6.58171 12.98 6.47016 12.9243 6.35861C12.8129 6.24705 12.8686 6.30283 12.7015 6.24705C12.5343 6.1355 12.3115 6.19128 12.1444 6.30283C11.9773 6.35861 11.7544 6.80482 11.6987 6.35861C11.6987 6.58171 11.6987 6.69327 11.9216 6.63749C12.033 6.63749 12.0887 6.35861 12.2001 6.30283C12.3672 6.24705 12.7015 6.24705 12.8129 6.41438C12.8686 6.47016 12.9243 6.52594 12.98 6.58171C13.2028 6.63749 13.4257 6.24705 13.6485 6.19128C13.7042 6.19128 13.7042 6.1355 13.6485 6.1355Z" fill="black"/>
<path d="M16.9909 6.1355C16.8238 6.1355 16.4896 6.24705 16.3781 6.07972C16.3781 6.07972 16.3224 6.02394 16.3224 6.07972C16.1553 6.24705 15.8768 6.19128 15.6539 6.19128C15.5982 6.19128 15.5425 6.19128 15.5425 6.19128C15.5425 6.1355 15.5425 6.1355 15.5982 6.1355C15.5425 6.1355 15.5425 6.1355 15.4868 6.1355C15.4868 6.19128 15.4868 6.19128 15.4868 6.24705V6.30283C15.6539 6.30283 15.8211 6.35861 15.9882 6.35861C16.0439 6.35861 16.3224 6.30283 16.3224 6.24705C16.4338 6.41438 16.8238 6.35861 16.9909 6.30283C17.0466 6.19128 17.0466 6.1355 16.9909 6.1355Z" fill="black"/>
<path d="M20.8902 5.80094C20.6674 5.74516 20.5003 5.80094 20.2775 5.85671C20.2218 5.85671 19.9432 6.1356 19.8875 6.02404C19.8875 6.02404 19.8875 5.96827 19.8318 5.96827C19.6647 5.96827 19.609 5.91249 19.4976 6.07982C19.4976 6.1356 19.5533 6.19137 19.5533 6.1356C19.6647 5.96827 19.8318 6.19137 19.9989 6.19137C20.0546 6.19137 20.0546 6.19137 20.0546 6.1356C20.166 5.85671 20.6117 5.96827 20.8345 5.91249C20.946 5.91249 20.946 5.85671 20.8902 5.80094Z" fill="black"/>
<path d="M28.9122 5.85663C28.8564 5.91241 28.4665 5.6893 28.3551 5.6893C28.0765 5.74508 27.8537 5.6893 27.5752 5.6893C27.4081 5.63353 27.1295 5.63353 27.1852 5.91241C27.1852 5.96819 27.2409 5.91241 27.2409 5.91241C27.1852 5.63353 27.9651 5.85663 28.188 5.85663C28.3551 5.85663 28.5222 5.80086 28.6336 5.91241C28.6893 5.96819 28.745 6.02396 28.8007 6.02396C28.9122 6.07974 28.9679 6.02396 29.0236 5.91241C29.0236 5.85663 28.9679 5.80086 28.9122 5.85663Z" fill="black"/>
<path d="M31.4192 6.02396C31.2521 5.91241 31.3635 5.80086 31.2521 5.6893C31.1406 5.57775 30.9735 5.57775 30.8621 5.52197H30.8064C30.8064 5.74508 30.9735 5.91241 31.1406 5.74508C31.1964 5.80086 31.1964 5.85663 31.2521 5.91241C31.2521 6.02397 31.3078 6.07974 31.4192 6.13552C31.4192 6.07974 31.4192 6.02396 31.4192 6.02396Z" fill="black"/>
<path d="M32.8675 5.85667C32.5332 5.85667 32.199 5.80089 31.8647 5.74512C32.199 5.80089 32.5332 5.85667 32.8675 5.85667C32.8675 5.91245 32.8675 5.85667 32.8675 5.85667Z" fill="black"/>
<path d="M20.3296 12.1198C21.1303 12.5817 21.8923 13.1121 22.6388 13.6567C23.1813 14.0524 23.6574 14.4929 24.0885 15.0063C24.3997 15.3769 24.6527 15.7963 24.9942 16.1378" stroke="#FF6B00" stroke-linecap="round" stroke-linejoin="round"/>
<path d="M24.4861 12.4431C23.939 12.9168 23.4421 13.4451 22.8992 13.9249C22.3939 14.3714 21.8649 14.8003 21.3405 15.2244C21.1628 15.3681 20.9896 15.5195 20.8042 15.6529C20.7585 15.6858 20.6773 15.7426 20.6528 15.7915" stroke="#FF6B00" stroke-linecap="round" stroke-linejoin="round"/>
</g>
<defs>
<clipPath id="clip0">
<rect width="48.0755" height="28" fill="white"/>
</clipPath>
</defs>
</svg>
