<svg width="61" height="46" viewBox="0 0 61 46" fill="none" xmlns="http://www.w3.org/2000/svg">
<rect width="61" height="46" rx="1" fill="white"/>
<rect x="2.5" y="2.5" width="56" height="41" stroke="#949B9E"/>
<path d="M10.208 33.933H10.6057V35.3893L12.1535 33.933H12.6723L10.8133 35.6667L12.8106 37.7992H12.2918L10.5971 35.9961V37.7992H10.208V33.933Z" fill="#949B9E"/>
<path d="M16.5547 33.933H16.9438V37.8078H16.5547V33.933Z" fill="#949B9E"/>
<path d="M20.6704 34.3057V33.9243H22.7888V34.3057H21.9242V37.7992H21.5264V34.3057H20.6704Z" fill="#949B9E"/>
<path d="M30.1732 34.6525L29.8706 34.8865C29.7063 34.6698 29.4987 34.5051 29.2653 34.3837C29.0318 34.271 28.7724 34.2104 28.4871 34.2104C28.1758 34.2104 27.8905 34.2884 27.6311 34.4357C27.3717 34.5831 27.1642 34.7825 27.0172 35.0339C26.8702 35.2853 26.801 35.5627 26.801 35.8747C26.801 36.3428 26.9653 36.7416 27.2852 37.0537C27.6052 37.3657 28.0115 37.5304 28.5044 37.5304C29.0491 37.5304 29.4987 37.3224 29.8619 36.889L30.1645 37.123C29.9743 37.3657 29.7322 37.5564 29.4469 37.6951C29.1615 37.8338 28.833 37.8945 28.4785 37.8945C27.804 37.8945 27.2679 37.6691 26.8788 37.2184C26.5503 36.8369 26.386 36.3775 26.386 35.8401C26.386 35.2766 26.5849 34.7998 26.9826 34.4097C27.3803 34.0196 27.8732 33.8289 28.4698 33.8289C28.833 33.8289 29.1529 33.8983 29.4469 34.0456C29.7495 34.193 29.983 34.3924 30.1732 34.6525Z" fill="#949B9E"/>
<path d="M34.1677 33.933H34.5568V35.554H36.5196V33.933H36.9087V37.8078H36.5196V35.9354H34.5568V37.8078H34.1677V33.933Z" fill="#949B9E"/>
<path d="M41.0762 33.933H43.2897V34.3144H41.4653V35.528H43.281V35.9094H41.4653V37.4351H43.281V37.8165H41.0848V33.933H41.0762Z" fill="#949B9E"/>
<path d="M47.1895 37.7992V33.9243H47.2759L49.8439 36.889V33.9243H50.2244V37.7992H50.1379L47.5872 34.8692V37.7992H47.1895Z" fill="#949B9E"/>
<path d="M19.9524 10.1116L19.1483 10.8744C18.569 10.3023 17.9378 9.87751 17.2547 9.58278C16.563 9.28805 15.8972 9.14068 15.2487 9.14068C14.4359 9.14068 13.6664 9.34006 12.9314 9.73882C12.1964 10.1376 11.6258 10.6837 11.228 11.3685C10.8216 12.0533 10.6228 12.7728 10.6228 13.5357C10.6228 14.3158 10.8303 15.0613 11.2453 15.7635C11.6604 16.4657 12.2397 17.0205 12.9746 17.4192C13.7096 17.818 14.5224 18.026 15.3957 18.026C16.4592 18.026 17.3584 17.7226 18.102 17.1245C18.837 16.5263 19.278 15.7375 19.4077 14.784H16.096V13.7784H20.5577C20.549 15.3821 20.0735 16.6564 19.131 17.6013C18.1885 18.5461 16.9348 19.0142 15.3524 19.0142C13.4416 19.0142 11.9198 18.3641 10.8043 17.0551C9.95699 16.0409 9.52466 14.8793 9.52466 13.5617C9.52466 12.5735 9.76676 11.6633 10.2596 10.8137C10.7525 9.9642 11.4355 9.30539 12.2916 8.82861C13.1476 8.35184 14.1246 8.10912 15.2055 8.10912C16.0788 8.10912 16.9088 8.26515 17.687 8.58589C18.4566 8.90663 19.2175 9.40941 19.9524 10.1116Z" fill="#76C040"/>
<path d="M22.5894 8.36917H24.6559C25.8059 8.36917 26.5841 8.41252 26.9905 8.50787C27.6044 8.64657 28.1059 8.94997 28.4863 9.41808C28.8754 9.88618 29.0656 10.4496 29.0656 11.1345C29.0656 11.6979 28.9359 12.2007 28.6679 12.6255C28.3998 13.0502 28.028 13.3796 27.5352 13.5964C27.0423 13.8131 26.3593 13.9258 25.4946 13.9344L29.2213 18.7542H27.9416L24.2149 13.9344H23.6269V18.7542H22.5894V8.36917ZM23.6269 9.3834V12.9115L25.4081 12.9289C26.0999 12.9289 26.61 12.8595 26.9386 12.7295C27.2671 12.5995 27.5265 12.3914 27.7168 12.0967C27.8983 11.8106 27.9935 11.4812 27.9935 11.1258C27.9935 10.7791 27.8983 10.4583 27.7081 10.1722C27.5179 9.88618 27.2758 9.68681 26.9645 9.56544C26.6619 9.44408 26.1517 9.3834 25.4427 9.3834H23.6269Z" fill="#76C040"/>
<path d="M35.5157 8.36917L40.3404 18.7542H39.225L37.5995 15.3387H33.1379L31.5209 18.7542H30.3623L35.2649 8.36917H35.5157ZM35.386 10.5797L33.6134 14.3419H37.1499L35.386 10.5797Z" fill="#76C040"/>
<path d="M41.9578 18.7542V8.36917H42.1826L49.0739 16.327V8.36917H50.0942V18.7542H49.8607L43.0213 10.8917V18.7542H41.9578Z" fill="#76C040"/>
<path d="M26.7308 18.0954C28.2958 18.0954 29.6101 18.6242 30.665 19.6731C31.7199 20.722 32.2473 22.0136 32.2473 23.5479C32.2473 25.0649 31.7199 26.3566 30.665 27.4141C29.6188 28.4717 28.3304 29.0005 26.8173 29.0005C25.2782 29.0005 23.9812 28.4717 22.9263 27.4228C21.8714 26.3652 21.344 25.0909 21.344 23.5999C21.344 22.6031 21.5861 21.6755 22.0703 20.826C22.5545 19.9765 23.2117 19.309 24.0417 18.8235C24.8631 18.3381 25.7624 18.0954 26.7308 18.0954ZM26.7827 19.1096C26.0131 19.1096 25.2868 19.309 24.6038 19.7077C23.9207 20.1065 23.3846 20.6439 22.9955 21.3288C22.6064 22.0049 22.4162 22.7591 22.4162 23.5999C22.4162 24.8309 22.8399 25.8798 23.6959 26.7293C24.5519 27.5788 25.5808 28.0036 26.7827 28.0036C27.5868 28.0036 28.3304 27.8042 29.0135 27.4141C29.6966 27.0241 30.2327 26.4866 30.6131 25.8104C30.9936 25.1343 31.1838 24.3801 31.1838 23.5479C31.1838 22.7244 30.9936 21.9789 30.6131 21.3114C30.2327 20.6439 29.6879 20.1152 28.9962 19.7077C28.2958 19.309 27.5609 19.1096 26.7827 19.1096Z" fill="#76C040"/>
<path d="M34.3311 18.3554H35.3686V27.7348H39.3547V28.7404H34.3397V18.3554H34.3311Z" fill="#76C040"/>
<path d="M45.2259 18.3554L50.0507 28.7404H48.9352L47.3097 25.325H42.8481L41.2312 28.7404H40.0725L44.9665 18.3554H45.2259ZM45.0962 20.5659L43.315 24.3194H46.8514L45.0962 20.5659Z" fill="#76C040"/>
<path d="M22.7793 19.8984C22.7188 19.9851 21.6899 21.4848 20.2545 23.0191C20.2027 23.0798 20.1421 23.1405 20.0816 23.2012C19.8568 23.1145 19.338 22.9238 18.6636 22.7331C17.747 22.473 16.5538 22.213 15.3865 22.213C14.738 22.213 14.0982 22.291 13.5275 22.5077C12.2478 22.9845 11.2967 23.7733 10.6569 24.4321C10.017 25.0996 9.69708 25.6371 9.68843 25.6544L9.56738 25.8625L9.76625 26.0012C9.78355 26.0098 10.1553 26.2699 10.8471 26.5213C11.5388 26.7727 12.5418 27.024 13.8215 27.024C14.3316 27.024 14.885 26.9807 15.4816 26.8854C16.4155 26.7293 17.3493 26.2265 18.2399 25.5677C19.5715 24.5795 20.8166 23.2359 21.7245 22.1436C22.6323 21.0427 23.2117 20.1932 23.2203 20.1932L22.7793 19.8984ZM17.8767 25.1863C17.038 25.8018 16.1734 26.2525 15.3865 26.3739C14.8245 26.4693 14.2971 26.5039 13.8128 26.5039C12.6023 26.5039 11.6599 26.2699 11.02 26.0272C10.7001 25.9058 10.458 25.7931 10.2937 25.7064C10.285 25.7064 10.285 25.6977 10.2764 25.6977C10.4234 25.4897 10.6741 25.1516 11.0373 24.7789C11.6339 24.1547 12.5332 23.4352 13.7004 22.9931C14.1933 22.8111 14.7726 22.7331 15.3779 22.7331C16.3722 22.7331 17.4358 22.9411 18.2831 23.1665C18.188 23.2532 18.067 23.3486 17.92 23.4612C17.5914 23.7213 17.1591 24.0334 16.7527 24.2501C16.329 24.4755 15.7843 24.7095 15.3606 24.8742C15.1444 24.9609 14.9542 25.0303 14.8245 25.0736C14.7553 25.0996 14.7034 25.117 14.6689 25.1256C14.6516 25.1343 14.6343 25.1343 14.6256 25.143C14.617 25.143 14.6083 25.1516 14.6083 25.1516C14.47 25.195 14.4008 25.3423 14.444 25.481C14.4873 25.6197 14.6343 25.6891 14.7726 25.6457C14.7726 25.6457 15.1012 25.533 15.5422 25.3597C15.9831 25.1863 16.5365 24.9522 16.9948 24.7095C17.4617 24.4581 17.92 24.1201 18.2745 23.8427C18.6203 23.5653 18.8538 23.3486 18.8624 23.3486L18.8711 23.3399C19.1564 23.4266 19.3985 23.5133 19.5801 23.5739C19.6147 23.5826 19.6406 23.5999 19.6666 23.6086C19.1218 24.1721 18.5079 24.7269 17.8767 25.1863Z" fill="#76C040"/>
</svg>
