<svg width="237" height="236" viewBox="0 0 237 236" fill="none" xmlns="http://www.w3.org/2000/svg">
<path d="M131.592 12.0308L23.2786 70.0987C10.9058 76.7319 6.23539 92.1973 12.8685 104.57L70.9365 212.884C77.5696 225.257 93.035 229.927 105.408 223.294L213.722 165.226C226.094 158.593 230.765 143.127 224.132 130.755L166.064 22.4409C159.431 10.0681 143.965 5.39767 131.592 12.0308ZM140.294 157.596C118.02 169.537 90.1867 161.131 78.2456 138.858C66.3046 116.584 74.7101 88.7505 96.9837 76.8095C119.257 64.8684 147.091 73.274 159.032 95.5476C170.973 117.821 162.568 145.655 140.294 157.596ZM146.677 61.7245C139.253 65.7046 129.975 62.9026 125.995 55.4784C122.014 48.0543 124.816 38.7758 132.241 34.7956C139.665 30.8155 148.943 33.6175 152.923 41.0417C156.904 48.4658 154.101 57.7443 146.677 61.7245Z" fill="white"/>
<path d="M137.053 43.7716C134.576 45.0994 133.643 48.1892 134.971 50.6659C136.299 53.1425 139.388 54.0756 141.865 52.7479C144.342 51.4201 145.275 48.3303 143.947 45.8536C142.619 43.377 139.529 42.4438 137.053 43.7716Z" fill="white"/>
<path d="M101.796 85.7855C84.4745 95.0717 77.9357 116.724 87.2218 134.045C96.508 151.367 118.16 157.906 135.482 148.619C152.803 139.333 159.342 117.681 150.056 100.36C140.77 83.0382 119.117 76.4993 101.796 85.7855Z" fill="white"/>
</svg>
