<svg width="166" height="236" viewBox="0 0 166 236" fill="none" xmlns="http://www.w3.org/2000/svg">
<path d="M60.7544 12.0308L-47.5593 70.0987C-59.9321 76.7319 -64.6025 92.1973 -57.9694 104.57L0.0985785 212.884C6.73173 225.257 22.1972 229.927 34.5699 223.294L142.884 165.226C155.256 158.593 159.927 143.127 153.294 130.755L95.2258 22.4409C88.5926 10.0681 73.1272 5.39767 60.7544 12.0308ZM69.4561 157.596C47.1826 169.537 19.3488 161.131 7.40773 138.858C-4.53331 116.584 3.87225 88.7505 26.1458 76.8095C48.4194 64.8684 76.2532 73.274 88.1942 95.5476C100.135 117.821 91.7297 145.655 69.4561 157.596ZM75.8395 61.7245C68.4153 65.7046 59.1368 62.9026 55.1567 55.4784C51.1765 48.0543 53.9785 38.7758 61.4027 34.7956C68.8268 30.8155 78.1053 33.6175 82.0855 41.0417C86.0656 48.4658 83.2636 57.7443 75.8395 61.7245Z" fill="white"/>
<path d="M66.2149 43.7716C63.7383 45.0994 62.8052 48.1892 64.1329 50.6659C65.4607 53.1425 68.5505 54.0756 71.0272 52.7479C73.5039 51.4201 74.437 48.3303 73.1092 45.8536C71.7815 43.377 68.6916 42.4438 66.2149 43.7716Z" fill="white"/>
<path d="M30.958 85.7855C13.6366 95.0717 7.09777 116.724 16.3839 134.045C25.6701 151.367 47.3224 157.906 64.6438 148.619C81.9652 139.333 88.504 117.681 79.2179 100.36C69.9317 83.0382 48.2794 76.4993 30.958 85.7855Z" fill="white"/>
</svg>
