<svg width="191" height="157" viewBox="0 0 191 157" fill="none" xmlns="http://www.w3.org/2000/svg">
<path d="M141 155.8C141 155.8 152.1 155.4 165.9 155.4C179.6 155.4 190.8 155.8 190.8 155.8C190.8 155.8 179.7 156.2 165.9 156.2C152.1 156.2 141 155.8 141 155.8Z" fill="#342E31"/>
<path d="M0 155.8C0 155.8 11.1 155.4 24.9 155.4C38.6 155.4 49.8 155.8 49.8 155.8C49.8 155.8 38.7 156.2 24.9 156.2C11.1 156.2 0 155.8 0 155.8Z" fill="#342E31"/>
<path d="M155.5 149.5C155.5 149.5 161.7 149.1 169.5 149.1C177.2 149.1 183.5 149.5 183.5 149.5C183.5 149.5 177.3 149.9 169.5 149.9C161.7 149.8 155.5 149.5 155.5 149.5Z" fill="#342E31"/>
<path d="M21.5 149.5C21.5 149.5 27.7 149.1 35.5 149.1C43.2 149.1 49.5 149.5 49.5 149.5C49.5 149.5 43.3 149.9 35.5 149.9C27.7 149.8 21.5 149.5 21.5 149.5Z" fill="#342E31"/>
<path d="M166.2 147.5C166.2 147.5 169.4 147.1 173.4 147.1C177.4 147.1 180.6 147.5 180.6 147.5C180.6 147.5 177.4 147.9 173.4 147.9C169.5 147.8 166.2 147.5 166.2 147.5Z" fill="#342E31"/>
<path d="M32.2 147.5C32.2 147.5 35.4 147.1 39.4 147.1C43.4 147.1 46.5999 147.5 46.5999 147.5C46.5999 147.5 43.4 147.9 39.4 147.9C35.5 147.8 32.2 147.5 32.2 147.5Z" fill="#342E31"/>
<path d="M171.3 145.1C171.3 145.1 172.7 144.7 174.3 144.7C176 144.7 177.3 145.1 177.3 145.1C177.3 145.1 175.9 145.5 174.3 145.5C172.6 145.5 171.3 145.1 171.3 145.1Z" fill="#342E31"/>
<path d="M37.3 145.1C37.3 145.1 38.7 144.7 40.3 144.7C42 144.7 43.3 145.1 43.3 145.1C43.3 145.1 41.9 145.5 40.3 145.5C38.6 145.5 37.3 145.1 37.3 145.1Z" fill="#342E31"/>
<path d="M158.5 142.1C158.5 142.1 162.2 141.7 166.7 141.7C171.2 141.7 174.9 142.1 174.9 142.1C174.9 142.1 171.2 142.5 166.7 142.5C162.2 142.5 158.5 142.1 158.5 142.1Z" fill="#342E31"/>
<path d="M28.5 142.1C28.5 142.1 32.2 141.7 36.7 141.7C41.2 141.7 44.9 142.1 44.9 142.1C44.9 142.1 41.2 142.5 36.7 142.5C32.2 142.5 28.5 142.1 28.5 142.1Z" fill="#342E31"/>
<path d="M163.5 139.7C163.5 139.7 165.8 139.3 168.7 139.3C171.6 139.3 173.9 139.7 173.9 139.7C173.9 139.7 171.6 140.1 168.7 140.1C165.9 140.1 163.5 139.7 163.5 139.7Z" fill="#342E31"/>
<path d="M29.5 139.7C29.5 139.7 31.8 139.3 34.7 139.3C37.6 139.3 39.9 139.7 39.9 139.7C39.9 139.7 37.6 140.1 34.7 140.1C31.9 140.1 29.5 139.7 29.5 139.7Z" fill="#342E31"/>
<g clip-path="url(#clip0)">
<rect x="42" y="2" width="116" height="152" rx="2" fill="#F6F6F6"/>
<path d="M168.537 153.751C179.653 150.463 178.252 138.532 175.356 129.794C173.488 124.157 171.433 118.427 168.724 113.165C166.015 107.998 162.186 104.804 157.049 102.173C156.581 101.986 156.114 102.361 156.395 102.831C159.664 109.314 157.889 116.548 159.103 123.406C159.664 126.412 160.972 129.137 161.906 132.049C162.373 133.646 162.746 135.337 162.746 136.934C162.653 139.283 161.532 140.88 160.878 143.041C159.851 146.423 160.411 150.369 163.493 152.53C166.669 154.785 170.873 153.845 173.301 151.121C173.768 150.651 173.021 149.899 172.554 150.369C169.658 153.657 164.801 153.563 162.466 149.711C160.504 146.517 161.625 143.887 162.84 140.692C164.334 136.653 163.4 133.082 161.999 129.231C160.037 123.876 159.757 118.99 159.57 113.353C159.477 109.407 159.01 105.743 157.235 102.173C157.049 102.361 156.768 102.643 156.581 102.831C161.252 105.18 165.081 108.186 167.603 112.884C169.845 117.017 171.526 121.527 173.114 125.942C176.57 135.431 180.306 147.926 168.351 152.812C167.884 153.187 168.07 153.939 168.537 153.751Z" fill="#342E31"/>
<path d="M62.7091 118.427C52.1543 113.635 45.4291 123.594 41.9731 132.143C39.7313 137.592 37.583 143.323 36.1819 149.148C34.8743 154.785 35.7149 159.858 37.9566 165.119C38.1434 165.589 38.7973 165.495 38.8907 165.025C40.6654 157.885 46.6433 153.657 50.1927 147.645C51.6872 145.014 52.4345 142.008 53.7421 139.283C54.396 137.78 55.2366 136.183 56.3575 135.055C57.9454 133.364 59.9069 132.895 61.6816 131.673C64.6706 129.7 66.8189 126.412 65.8848 122.748C64.9508 118.99 61.2146 116.923 57.5718 117.393C56.9179 117.487 57.0113 118.521 57.6652 118.427C61.9618 117.863 65.6046 121.151 64.9508 125.567C64.3903 129.325 61.775 130.452 58.8794 132.143C55.1432 134.21 53.5553 137.498 52.0608 141.35C50.0993 146.705 47.1104 150.651 43.561 154.973C41.1324 157.979 39.0775 161.079 38.1435 164.931C38.4237 164.931 38.7973 164.837 39.0775 164.837C37.116 159.952 36.0885 155.254 37.2094 149.993C38.1435 145.39 39.9182 140.88 41.506 136.465C45.0554 127.07 50.2861 115.044 62.5222 119.272C62.8025 119.366 63.1761 118.614 62.7091 118.427Z" fill="#342E31"/>
<path d="M62.6157 118.802C65.231 115.983 69.2475 111.944 69.0607 107.622C68.9673 105.461 67.286 102.831 64.8574 103.488C64.9508 103.676 65.1376 103.864 65.231 104.052C68.0332 100.388 70.0881 106.777 70.0881 108.937C70.0881 110.628 69.8079 112.226 69.1541 113.729C68.1266 116.171 66.3519 118.52 64.5772 120.493C64.297 120.869 64.8574 121.339 65.1376 120.963C68.5002 116.735 71.4892 112.601 70.742 106.87C70.3683 104.146 67.1926 100.388 64.764 103.582C64.5772 103.864 64.764 104.24 65.1376 104.146C67.8464 103.394 68.5002 107.622 68.3134 109.125C68.1266 110.347 67.3794 111.756 66.7255 112.789C65.5113 114.95 63.9234 116.641 62.1487 118.332C61.8684 118.614 62.3355 119.084 62.6157 118.802Z" fill="#342E31"/>
<path d="M44.682 132.894C47.7643 127.351 51.1269 121.902 57.7587 120.681C58.1323 120.587 58.1323 120.117 57.7587 120.117C50.8467 120.587 47.2039 127.163 44.3083 132.706C44.1215 132.988 44.5886 133.176 44.682 132.894Z" fill="#342E31"/>
<path d="M48.7915 142.852C48.1377 146.422 46.4564 148.865 44.2147 151.684C44.0279 151.871 44.3081 152.247 44.4949 152.059C47.2037 149.899 48.6981 146.329 49.0718 142.946C49.0718 142.758 48.7915 142.665 48.7915 142.852Z" fill="#342E31"/>
<path d="M66.632 114.668C65.698 116.171 64.5771 117.675 63.3629 118.896C63.1761 119.084 63.4563 119.366 63.6431 119.178C64.764 117.768 65.8848 116.359 66.9123 114.95C67.0057 114.668 66.7255 114.48 66.632 114.668Z" fill="#342E31"/>
<path d="M67.566 115.044C66.5385 116.735 65.4177 118.332 64.2968 119.929C64.2034 120.117 64.3902 120.399 64.577 120.211C65.7913 118.614 66.9122 117.017 67.8462 115.232C68.033 114.95 67.7528 114.856 67.566 115.044Z" fill="#342E31"/>
<path d="M68.9671 110.816C68.8737 111.098 68.7803 111.286 68.7803 111.568C68.7803 111.662 68.8737 111.662 68.8737 111.568C69.0605 111.38 69.0605 111.192 69.1539 110.91C69.3407 110.722 69.0605 110.628 68.9671 110.816Z" fill="#342E31"/>
<path d="M68.8737 111.38C67.7528 114.48 65.9781 117.111 63.7364 119.553C63.5496 119.741 63.8298 119.929 64.0166 119.741C66.4452 117.487 68.0331 114.574 69.1539 111.474C69.1539 111.38 68.9671 111.192 68.8737 111.38Z" fill="#342E31"/>
<path d="M55.5168 122.56C56.3575 121.715 57.6651 121.245 58.786 121.245C58.8794 121.245 58.8794 121.057 58.786 121.057C57.3849 120.869 56.1707 121.245 55.1432 122.184C54.9564 122.466 55.33 122.748 55.5168 122.56Z" fill="#342E31"/>
<path d="M62.1487 126.036C61.9618 126.318 61.6816 126.6 61.4948 126.788C61.2146 127.07 60.9344 127.258 60.7476 127.54C60.6542 127.633 60.7476 127.915 60.9344 127.821C61.4948 127.54 62.0553 126.788 62.4289 126.224C62.4289 126.13 62.2421 125.848 62.1487 126.036Z" fill="#342E31"/>
<path d="M43.8413 150.087C43.6545 150.462 43.3743 150.744 43.1875 151.12C43.0007 151.402 42.8139 151.684 42.7205 151.966C42.7205 152.06 42.8139 152.154 42.9073 152.06C43.1875 151.872 43.2809 151.59 43.4677 151.308C43.6545 150.932 43.8413 150.65 44.1215 150.275C44.2149 150.087 43.9347 149.899 43.8413 150.087Z" fill="#342E31"/>
<path d="M46.7368 134.867C46.1764 135.807 45.3357 137.122 45.3357 138.343C45.3357 138.437 45.5225 138.531 45.6159 138.437C45.8961 137.873 45.9895 137.31 46.1764 136.746C46.3632 136.182 46.6434 135.619 47.017 135.149C47.017 134.773 46.8302 134.679 46.7368 134.867Z" fill="#342E31"/>
<path d="M46.1764 137.686C46.0829 138.156 45.8027 138.625 45.8027 139.095C45.8027 139.283 45.9895 139.283 46.0829 139.189C46.3632 138.813 46.3632 138.249 46.4566 137.78C46.55 137.498 46.2698 137.404 46.1764 137.686Z" fill="#342E31"/>
<path d="M54.3025 129.23C54.3025 129.606 54.3025 129.982 54.5827 130.264C54.6761 130.358 54.7695 130.264 54.7695 130.17C54.6761 129.888 54.5827 129.606 54.5827 129.23C54.6761 129.042 54.3959 128.948 54.3025 129.23Z" fill="#342E31"/>
<path d="M53.8354 130.639C54.2091 130.921 54.5827 131.391 55.0497 131.579C55.1431 131.579 55.2365 131.485 55.1431 131.391C54.8629 130.921 54.3959 130.639 54.0223 130.358C53.8354 130.17 53.6486 130.452 53.8354 130.639Z" fill="#342E31"/>
<path d="M156.768 153.188C160.318 148.49 155.087 142.29 153.032 138.062C150.323 132.331 148.268 126.506 146.027 120.588C144.159 115.796 142.01 110.817 138.181 107.341C133.977 103.583 128.186 101.704 122.675 101.986C117.725 102.174 113.055 103.677 109.785 107.529C106.236 111.757 105.862 116.83 106.143 122.279C106.516 128.197 108.758 133.083 112.961 137.31C117.071 141.538 122.302 144.92 127.439 147.739C130.615 149.43 133.884 150.933 137.06 152.718C139.862 154.315 142.477 156.664 145.466 157.791C150.697 159.858 155.367 156.288 157.702 151.685C157.983 151.121 157.142 150.557 156.768 151.121C155.554 153.376 153.779 155.536 151.444 156.664C148.455 158.261 145.466 156.758 142.851 155.067C138.648 152.342 134.538 149.994 130.054 147.645C121.554 143.323 110.439 136.841 107.917 126.788C106.61 121.527 106.236 113.729 109.599 109.22C110.533 107.999 111.56 106.589 112.681 105.744C114.642 104.241 117.912 103.489 120.434 103.113C126.318 102.174 132.95 103.865 137.433 107.905C140.983 111.099 143.038 115.608 144.719 119.93C146.587 124.534 148.082 129.137 150.043 133.74C151.164 136.371 152.472 139.095 153.873 141.632C155.647 144.92 158.823 149.054 156.114 152.718C155.834 153.282 156.488 153.564 156.768 153.188Z" fill="#342E31"/>
<path d="M138.835 135.526C140.609 128.385 139.208 120.118 133.791 114.951C129.12 110.441 121.928 111.099 117.631 115.984C112.961 121.339 115.577 128.479 119.967 133.177C124.17 137.592 133.324 138.626 138.554 135.901C139.115 135.619 138.648 134.774 138.087 135.056C133.417 137.404 125.291 136.465 121.368 132.989C116.604 128.855 113.989 121.151 118.939 116.172C121.087 114.011 123.89 112.978 126.879 112.884C130.241 112.79 132.857 115.045 134.818 117.581C138.835 122.749 139.488 129.231 138.087 135.432C138.087 135.807 138.741 135.995 138.835 135.526Z" fill="#342E31"/>
<path d="M154.994 154.503C155.274 154.315 155.554 154.221 155.834 153.939C156.114 153.657 156.301 153.375 156.395 153.094C156.488 152.812 156.395 152.53 156.021 152.53C155.367 152.436 154.9 153 154.527 153.469C154.059 154.033 153.779 154.597 153.499 155.254C153.312 155.818 154.153 156.006 154.34 155.536C154.527 155.067 154.713 154.691 154.994 154.315C155.18 154.033 155.554 153.375 156.021 153.375C155.928 153.188 155.741 153 155.647 152.906C155.461 153.375 155.274 154.033 154.807 154.409C154.807 154.409 154.9 154.597 154.994 154.503Z" fill="#342E31"/>
<path d="M137.714 133.834C138.928 126.694 135.192 116.923 127.439 115.326C127.065 115.232 126.972 115.796 127.252 115.89C130.708 117.299 133.417 119.084 135.098 122.56C136.686 125.848 137.901 130.076 137.153 133.74C137.153 134.022 137.714 134.21 137.714 133.834Z" fill="#342E31"/>
<path d="M150.51 155.254C145.84 156.57 139.862 151.121 136.126 148.678C132.109 146.047 128 143.229 123.703 141.068C123.423 140.88 123.142 141.35 123.423 141.538C128.56 144.544 133.417 147.739 138.461 150.933C141.824 153.094 146.307 156.758 150.604 155.536C150.697 155.442 150.697 155.16 150.51 155.254Z" fill="#342E31"/>
<path d="M138.087 111.85C134.351 108.186 129.868 106.119 124.637 106.307C120.34 106.401 115.763 108.374 113.802 112.414C113.615 112.789 114.082 113.071 114.362 112.696C117.165 108.656 121.274 106.871 126.131 107.059C130.895 107.34 134.164 109.407 137.807 112.226C137.994 112.414 138.274 112.038 138.087 111.85Z" fill="#342E31"/>
<path d="M139.862 115.796C139.302 115.045 138.648 114.387 137.994 113.917C137.34 113.448 136.593 112.79 135.752 112.79C135.565 112.79 135.472 113.072 135.565 113.166C136.032 113.73 136.873 114.011 137.434 114.387C138.181 114.951 138.741 115.515 139.395 116.172C139.675 116.36 140.049 116.078 139.862 115.796Z" fill="#342E31"/>
<path d="M155.741 153.375C157.702 152.342 158.076 148.866 157.422 146.987C157.329 146.611 156.768 146.799 156.862 147.175C157.049 148.396 157.142 149.617 156.768 150.839C156.488 151.684 155.834 152.342 155.461 153.187C155.367 153.375 155.648 153.469 155.741 153.375Z" fill="#342E31"/>
<path d="M151.724 143.793C149.669 140.035 147.988 136.183 146.213 132.331C146.12 132.049 145.653 132.237 145.746 132.519C147.148 136.559 149.296 140.316 151.538 143.98C151.631 143.98 151.818 143.887 151.724 143.793Z" fill="#342E31"/>
<path d="M126.785 144.732C123.89 142.947 121.181 140.786 118.285 138.907C118.285 138.907 118.192 138.907 118.192 139.001C120.714 141.35 123.703 143.135 126.692 144.826C126.785 144.826 126.785 144.732 126.785 144.732Z" fill="#342E31"/>
<path d="M136.78 132.331C136.78 131.767 136.78 131.204 136.593 130.734C136.593 130.64 136.406 130.64 136.406 130.734C136.313 131.204 136.499 131.861 136.593 132.331C136.593 132.519 136.78 132.519 136.78 132.331Z" fill="#342E31"/>
<path d="M118.192 125.755C118.005 125.473 117.912 125.097 117.725 124.815C117.632 124.534 117.632 124.158 117.538 123.876C117.538 123.782 117.351 123.782 117.351 123.876C117.258 124.534 117.632 125.285 117.912 125.849C118.099 126.037 118.285 125.943 118.192 125.755Z" fill="#342E31"/>
<path d="M118.379 124.064C118.285 123.782 118.285 123.5 118.192 123.312C118.192 123.218 118.005 123.312 118.005 123.406C118.005 123.688 118.099 123.97 118.099 124.252C118.099 124.252 118.379 124.158 118.379 124.064Z" fill="#342E31"/>
<path d="M113.989 132.707C113.241 131.862 112.961 130.922 112.494 129.889C112.401 129.795 112.214 129.795 112.214 129.889C112.307 131.016 112.961 132.144 113.708 132.895C113.895 133.083 114.175 132.895 113.989 132.707Z" fill="#342E31"/>
<path d="M111.934 130.358C111.84 130.17 111.84 129.889 111.747 129.701C111.653 129.607 111.56 129.607 111.56 129.795C111.56 129.982 111.653 130.264 111.653 130.452C111.747 130.64 112.027 130.546 111.934 130.358Z" fill="#342E31"/>
<path d="M151.724 145.014C151.538 144.732 151.257 144.356 150.977 144.074C150.884 143.98 150.79 144.074 150.79 144.168C150.977 144.544 151.257 144.826 151.444 145.108C151.631 145.296 151.818 145.202 151.724 145.014Z" fill="#342E31"/>
<path d="M141.45 116.548C141.356 116.266 141.17 115.89 141.076 115.608C140.983 115.326 140.796 115.044 140.516 114.857C140.422 114.763 140.329 114.857 140.329 114.95C140.422 115.232 140.609 115.42 140.702 115.702C140.889 115.984 140.983 116.266 141.076 116.642C141.17 116.829 141.45 116.736 141.45 116.548Z" fill="#342E31"/>
<path d="M113.802 110.629C113.335 111.193 112.868 111.944 112.868 112.696C112.868 112.79 113.054 112.79 113.054 112.696C113.148 112.32 113.241 111.944 113.428 111.663C113.615 111.381 113.708 111.099 113.989 110.817C114.082 110.629 113.895 110.535 113.802 110.629Z" fill="#342E31"/>
<path d="M112.494 111.85C112.307 112.226 112.027 112.789 112.121 113.259C112.121 113.353 112.307 113.353 112.307 113.259C112.401 113.071 112.401 112.883 112.494 112.695C112.588 112.507 112.588 112.226 112.774 112.038C112.774 111.85 112.588 111.756 112.494 111.85Z" fill="#342E31"/>
<path d="M144.906 146.329C144.532 145.954 144.065 145.672 143.692 145.296C143.411 145.014 143.038 144.638 142.664 144.544C142.571 144.544 142.477 144.638 142.571 144.732C142.757 145.108 143.225 145.39 143.505 145.578C143.878 145.86 144.345 146.235 144.719 146.517C144.906 146.705 145.093 146.423 144.906 146.329Z" fill="#342E31"/>
<path d="M142.664 145.578C142.291 145.296 141.917 144.92 141.45 144.733C141.263 144.639 141.263 144.92 141.357 145.014C141.637 145.39 142.104 145.672 142.477 145.954C142.664 146.048 142.944 145.672 142.664 145.578Z" fill="#342E31"/>
<path d="M129.4 130.264C128.653 128.573 128.373 126.882 128.093 125.003C128.093 124.815 127.813 124.909 127.813 125.003C127.719 126.882 128.28 128.761 129.12 130.358C129.307 130.546 129.494 130.452 129.4 130.264Z" fill="#342E31"/>
<path d="M127.065 126.976C127.159 126.413 127.346 125.473 127.065 124.909C127.065 124.815 126.879 124.815 126.785 124.909C126.505 125.473 126.785 126.319 126.785 126.976C126.879 127.164 127.065 127.164 127.065 126.976Z" fill="#342E31"/>
<path d="M165.362 177.52C162.373 174.701 158.543 172.541 155.087 170.286C151.351 167.843 147.521 165.495 143.598 163.334C136.686 159.576 128.56 157.227 123.516 150.745C123.142 150.181 122.208 150.745 122.675 151.308C126.972 157.133 133.884 159.388 140.049 162.488C144.252 164.555 148.175 166.998 152.191 169.534C156.395 172.165 160.598 175.923 165.175 177.708C165.362 177.896 165.455 177.614 165.362 177.52Z" fill="#342E31"/>
<path d="M164.895 177.426C145.373 187.197 128.186 169.629 123.516 151.591C123.329 151.027 122.395 151.215 122.488 151.779C126.131 170.568 146.213 189.076 165.455 178.366C166.015 177.896 165.455 177.145 164.895 177.426Z" fill="#342E31"/>
<path d="M122.956 151.873C123.143 151.215 122.583 150.745 122.209 150.275C122.116 150.182 121.555 149.806 121.462 149.712C121.369 149.43 122.022 148.678 122.116 148.397C121.836 148.397 121.649 148.397 121.369 148.303C121.836 149.43 122.209 150.557 122.583 151.685C122.77 152.154 123.517 151.873 123.33 151.403C122.863 150.276 122.396 149.148 122.116 148.021C122.022 147.739 121.649 147.645 121.462 147.927C121.088 148.397 120.341 149.336 120.808 149.9C121.088 150.276 121.555 150.369 121.836 150.839C122.116 151.215 122.116 151.685 122.489 151.967C122.676 152.154 122.863 152.061 122.956 151.873Z" fill="#342E31"/>
<path d="M121.555 149.618C121.555 149.712 121.648 149.806 121.648 149.9C121.461 150.464 122.489 150.558 122.489 149.994C122.489 149.712 122.489 149.43 122.395 149.148C122.115 149.242 121.928 149.336 121.648 149.43C121.741 149.618 121.741 149.806 121.835 149.994C122.022 150.276 122.489 150.088 122.489 149.806C122.489 149.618 122.395 149.43 122.395 149.242C122.302 148.867 121.648 148.867 121.648 149.242C121.648 149.524 121.648 149.806 121.648 150.088C121.835 149.994 122.022 149.806 122.208 149.712C122.115 149.618 122.022 149.618 122.022 149.524C121.835 149.148 121.368 149.43 121.555 149.618Z" fill="#342E31"/>
<path d="M123.516 151.402C123.516 150.839 123.236 150.369 123.049 149.899C122.862 149.429 122.769 148.866 122.395 148.584C122.208 148.49 121.928 148.49 121.928 148.772C121.835 149.241 122.208 149.805 122.395 150.275C122.582 150.745 122.769 151.214 123.142 151.59C123.236 151.778 123.516 151.59 123.516 151.402Z" fill="#342E31"/>
<path d="M123.236 152.624C123.049 152.06 122.956 151.496 122.582 151.027C122.208 150.463 121.835 149.993 121.368 149.524C120.994 149.148 120.34 149.524 120.714 149.993C121.087 150.463 121.461 150.839 121.741 151.309C122.115 151.778 122.582 152.248 122.769 152.812C122.956 153 123.329 152.906 123.236 152.624Z" fill="#342E31"/>
<path d="M124.73 152.342C123.796 151.027 122.675 149.524 122.302 147.926C122.208 147.457 121.368 147.833 121.741 148.208C122.302 148.866 122.582 149.712 123.049 150.369C123.516 151.121 123.983 151.778 124.544 152.436C124.637 152.624 124.917 152.436 124.73 152.342Z" fill="#342E31"/>
<path d="M121.835 149.617C121.928 149.523 122.021 149.336 121.835 149.242C121.741 149.148 121.554 149.148 121.554 149.242C121.554 149.242 121.554 149.242 121.461 149.336C121.274 149.524 121.648 149.899 121.835 149.617Z" fill="#342E31"/>
<path d="M120.901 149.806C121.181 149.618 121.274 149.242 121.368 148.96C121.555 148.678 121.835 148.396 121.835 148.021C121.835 147.927 121.741 147.739 121.648 147.833C121.368 147.927 121.181 148.302 120.994 148.584C120.807 148.866 120.527 149.242 120.527 149.618C120.527 149.806 120.714 149.994 120.901 149.806Z" fill="#342E31"/>
<path d="M91.7581 103.677C88.7691 106.495 86.434 110.253 83.912 113.541C81.2967 117.111 78.6813 120.775 76.2528 124.627C72.0495 131.297 69.2474 139.377 62.5222 143.98C61.9617 144.356 62.5222 145.296 63.0826 144.92C69.0606 140.88 71.7693 134.21 75.3187 128.197C77.6539 124.157 80.3626 120.305 83.0714 116.454C85.9669 112.414 89.89 108.468 92.0383 103.958C92.1317 103.771 91.9449 103.583 91.7581 103.677Z" fill="#342E31"/>
<path d="M91.6648 104.146C100.165 124.345 81.6704 140.504 63.4564 144.074C62.8959 144.168 62.9893 145.202 63.5498 145.108C82.4176 142.571 102.033 123.688 92.5988 103.583C92.2252 103.019 91.3846 103.583 91.6648 104.146Z" fill="#342E31"/>
<path d="M63.7365 144.732C63.1761 144.544 62.5223 145.014 62.1486 145.389C62.0552 145.483 61.5882 146.047 61.4948 146.047C61.2146 146.141 60.4673 145.389 60.2805 145.295C60.2805 145.483 60.1871 145.765 60.1871 145.953C61.308 145.577 62.5223 145.295 63.6431 144.92C64.1102 144.732 63.9233 143.98 63.4563 144.168C62.3354 144.544 61.2146 145.014 60.0003 145.202C59.7201 145.295 59.6267 145.671 59.8135 145.859C60.2805 146.235 61.1212 147.08 61.775 146.705C62.1486 146.423 62.3355 146.047 62.7091 145.765C63.0827 145.577 63.5497 145.483 63.9233 145.202C63.9233 145.014 63.9233 144.732 63.7365 144.732Z" fill="#342E31"/>
<path d="M61.4015 145.953C61.4949 145.953 61.5884 145.859 61.6818 145.859C62.2422 146.047 62.429 145.107 61.7752 145.107C61.495 145.107 61.2147 145.107 60.9345 145.107C61.0279 145.389 61.0279 145.577 61.1213 145.859C61.3081 145.859 61.495 145.765 61.6818 145.671C62.0554 145.483 61.8686 145.013 61.495 145.013C61.3081 145.013 61.1213 145.013 60.9345 145.107C60.5609 145.201 60.5609 145.765 60.9345 145.859C61.2147 145.859 61.495 145.859 61.7752 145.859C61.6818 145.671 61.5884 145.483 61.4015 145.201C61.3081 145.295 61.3081 145.295 61.2147 145.389C60.9345 145.671 61.1213 146.047 61.4015 145.953Z" fill="#342E31"/>
<path d="M63.2695 144.075C62.7091 144.075 62.2421 144.263 61.775 144.45C61.308 144.638 60.7476 144.732 60.4674 145.014C60.374 145.202 60.374 145.484 60.5608 145.484C61.0278 145.578 61.5882 145.296 62.0552 145.108C62.5223 144.92 62.9893 144.732 63.4563 144.45C63.6431 144.357 63.4563 144.075 63.2695 144.075Z" fill="#342E31"/>
<path d="M64.4838 144.451C63.9233 144.638 63.3629 144.732 62.8025 145.014C62.242 145.296 61.775 145.672 61.2146 146.142C60.841 146.423 61.2146 147.175 61.5882 146.893C62.0552 146.611 62.5222 146.236 62.9893 145.954C63.4563 145.672 64.0167 145.202 64.4838 145.014C64.8574 144.732 64.764 144.357 64.4838 144.451Z" fill="#342E31"/>
<path d="M64.2036 142.853C62.8959 143.699 61.2146 144.732 59.6267 145.014C59.1597 145.108 59.4399 145.954 59.9069 145.672C60.5608 145.202 61.4014 144.92 62.1487 144.451C62.8959 144.075 63.6431 143.605 64.297 143.135C64.5772 143.041 64.3904 142.759 64.2036 142.853Z" fill="#342E31"/>
<path d="M61.4014 145.671C61.308 145.577 61.1212 145.483 61.0278 145.577C60.9344 145.671 60.9344 145.765 61.0278 145.859C61.0278 145.859 61.0278 145.859 61.1212 145.953C61.308 146.235 61.6816 145.859 61.4014 145.671Z" fill="#342E31"/>
<path d="M61.5883 146.611C61.4015 146.329 61.0279 146.235 60.7476 146.047C60.4674 145.859 60.1872 145.578 59.8136 145.484C59.7202 145.484 59.5334 145.578 59.6268 145.672C59.7202 146.047 60.0938 146.141 60.374 146.329C60.6542 146.517 61.0279 146.893 61.4015 146.799C61.5883 146.893 61.6817 146.799 61.5883 146.611Z" fill="#342E31"/>
<path d="M92.0385 115.42C91.5714 124.345 83.1649 133.74 75.5991 137.592C75.2255 137.78 75.5991 138.437 75.9727 138.156C84.0056 133.928 91.7582 124.721 92.5989 115.42C92.6923 115.044 92.1319 115.044 92.0385 115.42Z" fill="#342E31"/>
<path d="M91.5713 112.977C91.5713 113.635 91.4779 114.292 91.2911 114.95C91.1977 115.42 90.9175 115.983 90.9175 116.547C90.9175 116.641 91.1043 116.735 91.1977 116.641C92.0384 115.89 91.9449 114.011 91.8515 112.977C91.8515 112.789 91.5713 112.789 91.5713 112.977Z" fill="#342E31"/>
<path d="M75.8793 135.901C75.5991 136.089 75.2255 136.277 75.1321 136.653C75.1321 136.747 75.2255 136.841 75.3189 136.841C75.6925 136.747 75.8793 136.371 76.1596 136.183C76.253 135.995 76.0661 135.713 75.8793 135.901Z" fill="#342E31"/>
<path d="M71.4892 138.156C71.5826 138.156 71.676 138.062 71.7694 137.968C71.8628 137.874 71.7694 137.686 71.676 137.78C71.5826 137.78 71.4892 137.874 71.3958 137.874C71.209 137.968 71.3024 138.25 71.4892 138.156Z" fill="#342E31"/>
<path d="M72.7969 136.465C73.7309 134.398 75.0386 132.425 75.8792 130.264C75.9726 130.171 75.6924 130.077 75.6924 130.171C74.4782 132.049 73.6375 134.21 72.5167 136.277C72.3299 136.465 72.7035 136.653 72.7969 136.465Z" fill="#342E31"/>
<path d="M77.4672 127.54C77.7474 127.07 78.0277 126.694 78.2145 126.224C78.2145 126.13 78.1211 126.037 78.0277 126.13C77.7474 126.506 77.4672 126.976 77.187 127.446C77.0936 127.54 77.3738 127.634 77.4672 127.54Z" fill="#342E31"/>
<path d="M80.643 122.655C80.7364 122.467 80.8298 122.185 81.0166 121.997C81.11 121.903 80.9232 121.809 80.8298 121.903C80.7364 122.091 80.5496 122.279 80.4562 122.561C80.2693 122.655 80.5496 122.843 80.643 122.655Z" fill="#342E31"/>
<path d="M89.9836 109.877C89.4232 110.816 88.7693 111.662 88.1155 112.601C87.4616 113.447 86.7144 114.293 86.2474 115.232C86.154 115.326 86.3408 115.514 86.4342 115.42C87.1814 114.856 87.7419 113.917 88.3023 113.165C89.0495 112.132 89.61 111.098 90.1704 110.065C90.3572 109.877 90.077 109.783 89.9836 109.877Z" fill="#342E31"/>
<path d="M88.6758 116.36C87.9285 117.393 86.9011 118.521 86.6208 119.742C86.6208 119.93 86.8077 120.024 86.9011 119.93C87.3681 119.46 87.6483 118.896 87.9285 118.333C88.3022 117.769 88.6758 117.111 89.0494 116.548C89.2362 116.36 88.8626 116.172 88.6758 116.36Z" fill="#342E31"/>
<path d="M84.7527 122.654C84.5659 122.936 84.3791 123.124 84.2857 123.406C84.1923 123.5 84.3791 123.594 84.4725 123.5C84.6593 123.218 84.8461 123.03 85.033 122.748C85.1264 122.654 84.8461 122.466 84.7527 122.654Z" fill="#342E31"/>
<path d="M86.7143 126.225C86.0605 127.258 85.3132 128.197 84.4726 129.043C83.7253 129.795 82.7913 130.452 82.1375 131.298C81.9506 131.486 82.1375 131.861 82.4177 131.674C83.4451 131.11 84.2858 130.076 84.9396 129.231C85.6869 128.291 86.4341 127.352 86.9946 126.412C87.2748 126.225 86.9011 126.037 86.7143 126.225Z" fill="#342E31"/>
<path d="M72.7033 139.565C71.6759 139.847 70.4616 140.316 69.621 141.068C69.5276 141.162 69.621 141.256 69.7144 141.256C70.7418 141.162 71.9561 140.504 72.7967 139.941C73.0769 139.847 72.9835 139.471 72.7033 139.565Z" fill="#342E31"/>
<path d="M101.566 157.791V157.885C101.379 158.919 100.351 160.891 98.7635 161.925C97.8295 162.489 96.8954 162.677 95.868 162.489C94.8405 162.207 93.9064 159.482 93.9064 159.482C93.7196 159.013 93.7196 158.543 93.813 157.979C93.6262 158.073 93.5328 158.167 93.346 158.261C92.9724 158.543 92.5054 158.825 92.0383 159.013C91.0109 159.482 89.7032 159.388 89.1428 158.355C88.6757 157.509 89.0494 156.664 89.3296 155.912C89.423 155.63 89.6098 155.349 89.6098 155.067C88.6757 155.349 87.6483 155.349 86.6208 155.255C86.2472 155.161 85.7802 155.067 85.4066 154.785C84.9395 154.503 84.6593 153.939 84.6593 153.282C84.5659 152.53 84.9395 151.685 85.5 151.121C86.2472 150.463 87.1813 150.087 88.1153 149.9C87.5549 149.336 87.1813 148.772 86.9945 148.115C86.6208 147.081 87.3681 145.954 88.2087 145.578C88.956 145.202 89.89 145.296 91.0109 145.672C91.3845 145.86 91.7581 145.954 92.1318 146.142C92.3186 146.236 92.5054 146.33 92.6922 146.423C92.7856 145.954 93.0658 145.484 93.9064 144.826C94.3735 144.545 94.8405 144.451 95.3075 144.545C95.7746 144.638 96.4284 145.108 96.9888 146.236C97.0822 146.423 96.9888 146.611 96.802 146.705C96.6152 146.799 96.4284 146.705 96.335 146.517C96.0548 145.766 95.5877 145.296 95.2141 145.202C94.9339 145.108 94.7471 145.202 94.4669 145.39C93.9065 145.766 93.346 146.33 93.6262 146.705C93.7196 146.799 93.7196 146.987 93.6262 147.175C93.5328 147.269 93.346 147.363 93.1592 147.269C92.6922 147.081 92.3186 146.893 91.8515 146.705C91.4779 146.517 91.1043 146.33 90.7307 146.236C90.0768 146.048 89.2362 145.86 88.4889 146.142C87.9285 146.423 87.3681 147.175 87.6483 147.739C87.9285 148.396 88.3955 149.054 89.1428 149.712C89.2362 149.806 89.3296 149.993 89.2362 150.087C89.2362 150.181 89.0494 150.369 88.956 150.369C88.0219 150.557 86.8076 150.745 85.967 151.497C85.5934 151.872 85.3132 152.53 85.4066 153C85.4066 153.282 85.5 153.657 85.8736 153.845C86.1538 154.033 86.5274 154.127 86.8076 154.127C87.8351 154.315 88.956 154.221 89.9834 153.845C90.0768 153.845 90.2636 153.845 90.357 153.845C90.4504 153.939 90.5439 154.033 90.5439 154.127C90.5439 154.691 90.357 155.349 90.0768 155.818C89.7966 156.476 89.6098 157.04 89.7966 157.603C90.1702 158.167 91.1043 158.261 91.7581 157.885C92.1317 157.697 92.5054 157.415 92.879 157.134C93.2526 156.852 93.6262 156.57 93.9999 156.382C94.0933 156.288 94.2801 156.288 94.3735 156.382C94.4669 156.476 94.5603 156.57 94.5603 156.758C94.4669 157.415 94.3735 158.073 94.5603 158.637C94.8405 159.576 95.6811 161.079 95.9614 161.079C96.802 161.267 97.5493 161.079 98.2965 160.61C99.6042 159.764 100.538 157.979 100.725 157.04C100.725 156.852 101.005 156.664 101.192 156.758C101.379 157.509 101.566 157.697 101.566 157.791Z" fill="#342E31"/>
<path d="M107.077 138.626C107.45 141.632 106.236 144.826 103.901 146.799C103.714 146.893 103.527 146.893 103.34 146.799C103.247 146.611 103.247 146.423 103.34 146.235C105.489 144.356 106.61 141.256 106.143 138.438C106.049 137.686 105.676 136.465 104.648 135.995C103.807 135.619 102.78 135.995 101.846 136.465C101.753 136.559 101.566 136.465 101.472 136.465C101.379 136.371 101.285 136.277 101.285 136.089C101.472 135.149 101.566 134.116 101.472 133.177C101.285 132.143 100.725 131.016 99.6976 130.734C99.2306 130.64 98.6701 130.828 98.2965 131.204C98.1097 131.392 97.9229 131.767 98.0163 132.143C98.1097 132.331 98.0163 132.519 97.8295 132.613C97.6427 132.707 97.4559 132.613 97.3625 132.425C96.8954 131.579 95.9614 131.016 95.1207 130.922C94.1867 130.828 93.2526 131.392 92.879 132.237C92.5988 132.989 92.879 133.928 93.4394 134.398C93.5329 134.398 93.6263 134.492 93.7197 134.586C93.9065 134.68 93.9065 134.962 93.8131 135.056C93.7197 135.243 93.5328 135.243 93.346 135.243C93.2526 135.243 93.1592 135.149 93.0658 135.149C92.7856 135.056 92.5988 135.149 92.412 135.149C92.0384 135.337 91.6648 135.713 91.6648 136.089C91.5713 136.841 91.945 137.592 92.7856 138.25C93.1592 138.532 93.5329 138.813 93.9065 139.001C94.3735 139.283 94.8405 139.565 95.2141 139.941C95.3075 140.035 95.401 140.223 95.3076 140.411C95.2141 140.599 95.0273 140.692 94.9339 140.599C93.8131 140.411 92.6922 140.411 91.5713 140.599C91.1977 140.692 90.6373 140.786 90.4505 141.162C90.3571 141.35 90.2637 141.538 90.3571 141.82C90.4505 142.29 90.8241 142.853 91.3845 143.135C92.1318 143.605 92.879 143.887 93.7197 144.075C94.2801 144.262 94.8405 144.45 95.401 144.638C96.802 145.296 97.3625 146.141 97.1757 147.926C97.1757 148.114 96.9889 148.302 96.802 148.302C96.6152 148.302 96.4284 148.114 96.4284 147.926C96.6152 146.517 96.2416 145.954 95.1207 145.484C94.6537 145.296 94.0933 145.108 93.5329 144.92C92.6922 144.638 91.7581 144.356 91.0109 143.887C90.3571 143.417 89.7966 142.759 89.7032 142.008C89.6098 141.538 89.7032 141.068 89.9835 140.786C90.3571 140.223 91.1043 140.035 91.5713 139.941C92.3186 139.847 93.0658 139.753 93.7197 139.753C93.7197 139.753 93.6263 139.753 93.6263 139.659C93.2526 139.377 92.7856 139.095 92.412 138.813C91.3845 137.968 90.9175 136.935 91.0109 135.901C91.1043 135.243 91.5713 134.586 92.2252 134.304C92.3186 134.304 92.3186 134.21 92.412 134.21C91.945 133.552 91.8516 132.613 92.2252 131.861C92.6922 130.734 93.9065 129.982 95.2141 130.076C96.0548 130.17 96.802 130.546 97.4559 131.11C97.5493 130.922 97.6427 130.734 97.8295 130.546C98.3899 129.888 99.2306 129.607 99.9778 129.794C101.379 130.17 102.126 131.673 102.313 132.801C102.406 133.646 102.406 134.492 102.22 135.243C103.154 134.868 104.088 134.68 105.022 135.056C106.423 135.619 106.796 137.216 106.983 138.062C107.077 138.344 107.077 138.532 107.077 138.626Z" fill="#342E31"/>
<path d="M116.044 144.826C116.137 145.859 115.577 146.799 114.923 147.363C114.549 147.644 114.176 147.832 113.802 148.02C114.269 148.114 114.829 148.302 115.297 148.584C115.764 148.866 116.324 149.336 116.511 149.993C116.604 150.369 116.511 150.651 116.324 150.933C116.044 151.402 115.577 151.496 115.11 151.59C114.549 151.684 113.989 151.778 113.428 151.872C113.615 152.06 113.802 152.154 113.895 152.436C114.176 152.906 114.269 153.469 114.176 153.939C114.082 154.315 113.802 154.691 113.428 154.785C112.868 155.066 112.308 154.879 111.841 154.691C109.879 154.127 104.368 154.691 103.341 156.476C103.247 156.664 102.967 156.757 102.78 156.57C102.593 156.476 102.5 156.194 102.687 156.006C103.994 153.657 110.159 153.281 112.027 153.845C112.401 153.939 112.868 154.127 113.148 153.939C113.335 153.845 113.428 153.657 113.428 153.563C113.522 153.281 113.428 152.906 113.335 152.718C112.961 152.248 112.308 151.966 111.747 151.684C111.56 151.59 111.467 151.402 111.56 151.215C111.56 151.027 111.747 150.933 111.934 150.933C112.961 151.027 113.989 150.933 114.923 150.745C115.203 150.651 115.483 150.557 115.67 150.369C115.764 150.275 115.764 150.181 115.764 149.993C115.67 149.711 115.297 149.336 114.923 149.054C113.989 148.584 113.055 148.302 112.027 148.396C111.841 148.396 111.654 148.302 111.654 148.114C111.654 147.926 111.747 147.738 111.934 147.644C112.775 147.457 113.802 147.175 114.456 146.611C115.11 146.141 115.577 145.202 115.203 144.45C114.923 143.699 114.082 143.417 113.335 143.417C112.588 143.417 111.841 143.793 111 144.45C110.72 144.638 110.439 144.92 110.159 145.108C109.692 145.484 109.319 145.859 108.758 146.141C108.571 146.235 108.385 146.235 108.291 146.047C108.198 145.953 108.198 145.672 108.291 145.578C108.385 145.39 108.385 145.202 108.385 145.014C108.291 144.732 108.104 144.45 107.824 144.356C107.17 144.074 106.423 144.45 106.049 144.732C105.302 145.202 104.648 145.953 104.181 146.705C104.088 146.893 103.901 146.987 103.714 146.893C103.527 146.799 103.434 146.517 103.527 146.423C103.994 145.484 104.742 144.638 105.676 144.168C106.516 143.699 107.357 143.511 108.104 143.793C108.571 143.981 108.945 144.45 109.132 144.92V145.014C109.319 144.826 109.505 144.732 109.692 144.544C109.972 144.262 110.253 144.074 110.533 143.887C111.467 143.135 112.401 142.759 113.242 142.759C114.456 142.665 115.483 143.323 115.857 144.262C115.95 144.45 116.044 144.638 116.044 144.826Z" fill="#342E31"/>
<path d="M98.8571 153.187C95.9615 153.093 93.066 153.187 90.1704 153.187C89.8902 153.187 89.9836 153.657 90.2638 153.657C93.1594 153.657 96.0549 153.751 98.9505 153.751C99.1373 153.751 99.1373 153.187 98.8571 153.187Z" fill="#342E31"/>
<path d="M100.071 147.926C99.0438 143.605 97.4559 139.095 97.0823 134.68C97.0823 134.398 96.6152 134.492 96.6152 134.774C96.7086 139.001 97.9229 144.168 99.6042 148.114C99.6976 148.208 100.071 148.208 100.071 147.926Z" fill="#342E31"/>
<path d="M102.873 151.778C103.994 151.309 105.115 150.839 106.329 150.557C107.45 150.181 108.665 150.087 109.879 149.618C109.972 149.524 109.972 149.336 109.879 149.336C107.544 149.242 104.835 150.275 102.873 151.403C102.5 151.591 102.687 151.872 102.873 151.778Z" fill="#342E31"/>
<path d="M101.566 142.102C100.725 143.323 99.9779 144.639 99.1373 145.86C98.9505 146.236 99.4175 146.518 99.6043 146.142C100.352 144.826 101.099 143.605 101.846 142.29C101.939 142.102 101.659 141.914 101.566 142.102Z" fill="#342E31"/>
<path d="M94.2803 142.383C94.8407 142.665 95.4946 142.759 96.055 142.853C96.8022 142.947 97.5495 143.228 98.2967 143.604C98.6703 143.698 98.8571 143.228 98.4835 143.041C97.9231 142.853 97.2693 142.571 96.7088 142.477C95.9616 142.289 95.2143 142.289 94.3737 142.101C94.1869 142.101 94.0935 142.383 94.2803 142.383Z" fill="#342E31"/>
<path d="M99.2307 134.491C98.6702 136.089 97.6428 137.592 97.3625 139.283C97.3625 139.565 97.7362 139.659 97.8296 139.377C98.39 137.78 99.1373 136.276 99.6043 134.585C99.6977 134.397 99.3241 134.21 99.2307 134.491Z" fill="#342E31"/>
<path d="M95.2143 136.465C95.8682 137.028 96.4286 137.592 96.989 138.156C97.2693 138.438 97.8297 138.062 97.5495 137.78C96.8956 137.122 96.1484 136.559 95.4012 136.183C95.2144 135.995 95.0275 136.371 95.2143 136.465Z" fill="#342E31"/>
<path d="M96.8021 159.106C97.0823 157.133 98.1098 155.442 98.9504 153.751C99.1372 153.469 98.6702 153.187 98.4834 153.469C97.3625 155.066 96.5219 157.039 96.4285 159.012C96.4285 159.294 96.8021 159.294 96.8021 159.106Z" fill="#342E31"/>
<path d="M94.467 149.336C94.9341 151.027 96.1484 152.154 97.1758 153.47C97.3626 153.752 97.7363 153.47 97.5494 153.188C96.6154 151.873 95.5879 150.557 94.8407 149.148C94.7473 148.96 94.467 149.148 94.467 149.336Z" fill="#342E31"/>
<path d="M92.5988 156.194C93.0658 155.066 94.1867 154.409 95.0273 153.563C95.2141 153.375 94.9339 153 94.7471 153.187C93.8131 154.033 92.6922 154.785 92.3186 156.006C92.2252 156.194 92.5054 156.382 92.5988 156.194Z" fill="#342E31"/>
<path d="M93.3472 153.282C93.3472 153.187 93.1592 153.187 93.1592 153.282C93.1592 153.472 93.3472 153.472 93.3472 153.282Z" fill="#342E31"/>
<path d="M93.3463 153.187C92.9727 152.905 92.6924 152.717 92.3188 152.342C92.0386 152.06 91.665 151.684 91.2914 151.496C91.198 151.402 91.0112 151.496 91.1046 151.684C91.4782 152.436 92.3188 153.093 93.0661 153.563C93.3463 153.657 93.6265 153.375 93.3463 153.187Z" fill="#342E31"/>
<path d="M110.439 152.154C108.011 151.496 105.582 151.12 103.06 151.308C102.78 151.308 102.873 151.778 103.154 151.684C104.555 151.684 105.956 151.684 107.264 151.966C108.291 152.154 109.412 152.529 110.439 152.529C110.72 152.623 110.626 152.248 110.439 152.154Z" fill="#342E31"/>
<path d="M110.346 146.329C109.038 147.644 107.731 148.96 106.33 150.087C106.143 150.181 106.33 150.463 106.516 150.369C108.104 149.242 109.412 148.114 110.533 146.611C110.72 146.423 110.533 146.141 110.346 146.329Z" fill="#342E31"/>
<path d="M105.956 147.926C105.676 148.49 105.489 149.148 105.115 149.711C104.835 150.275 104.275 150.651 103.994 151.12C103.994 151.214 104.088 151.308 104.088 151.214C105.302 150.557 105.862 149.241 106.329 148.02C106.423 147.832 106.049 147.644 105.956 147.926Z" fill="#342E31"/>
<path d="M92.9725 142.571C92.6923 142.383 92.3187 142.101 91.9451 142.101C91.8516 142.101 91.8516 142.195 91.9451 142.195C92.2253 142.383 92.5989 142.477 92.8791 142.665C92.9725 142.759 93.0659 142.571 92.9725 142.571Z" fill="#342E31"/>
<path d="M96.5219 132.988C96.2416 132.801 95.6812 132.425 95.3076 132.707C95.2142 132.707 95.2142 132.895 95.3076 132.895C95.4944 132.988 95.5878 132.988 95.7746 132.988C95.9614 132.988 96.2416 133.176 96.4285 133.27C96.4285 133.364 96.6153 133.082 96.5219 132.988Z" fill="#342E31"/>
<path d="M96.055 132.143C95.6813 132.049 95.3077 131.955 94.9341 131.861C94.8407 131.861 94.7473 132.049 94.8407 132.049C95.2143 132.143 95.5879 132.237 95.9616 132.331C96.1484 132.425 96.1484 132.237 96.055 132.143Z" fill="#342E31"/>
<path d="M103.808 143.135C103.994 142.759 104.275 142.195 104.181 141.726C104.181 141.632 103.994 141.632 103.994 141.726C103.901 141.914 103.901 142.195 103.808 142.383C103.714 142.571 103.621 142.853 103.527 143.041C103.527 143.135 103.714 143.229 103.808 143.135Z" fill="#342E31"/>
<path d="M104.742 142.759C104.835 142.384 105.115 141.82 105.022 141.444C105.022 141.256 104.835 141.256 104.742 141.444C104.555 141.82 104.461 142.29 104.461 142.759C104.461 142.853 104.648 142.947 104.742 142.759Z" fill="#342E31"/>
<path d="M103.154 154.596C103.714 154.221 104.368 153.845 104.928 153.375C105.022 153.281 104.928 153.093 104.835 153.187C104.181 153.469 103.621 154.033 103.06 154.409C102.874 154.503 102.967 154.69 103.154 154.596Z" fill="#342E31"/>
<path d="M103.247 153.845C103.527 153.751 103.807 153.563 104.088 153.375C104.181 153.281 104.088 153.187 103.994 153.187C103.714 153.281 103.434 153.375 103.154 153.563C102.967 153.657 103.06 153.939 103.247 153.845Z" fill="#342E31"/>
<path d="M100.351 152.248C99.9779 151.872 99.6042 151.402 99.1372 151.121C99.0438 151.027 98.9504 151.215 99.0438 151.308C99.4174 151.684 99.8845 152.06 100.258 152.436C100.258 152.53 100.445 152.342 100.351 152.248Z" fill="#342E31"/>
<path d="M91.6648 148.96C91.1043 148.678 90.4505 148.302 89.7967 148.114C89.7032 148.114 89.6098 148.208 89.7032 148.302C90.2637 148.678 90.9175 148.866 91.5714 149.147C91.7582 149.241 91.8516 148.96 91.6648 148.96Z" fill="#342E31"/>
<path d="M90.7307 149.242C90.4505 149.054 90.0769 148.96 89.7967 148.772C89.7032 148.772 89.6098 148.866 89.7032 148.866C89.9835 149.054 90.3571 149.148 90.6373 149.336C90.7307 149.524 90.8241 149.336 90.7307 149.242Z" fill="#342E31"/>
<path d="M99.7912 154.879C99.978 154.597 100.258 154.409 100.352 154.127C100.445 154.033 100.258 153.939 100.165 153.939C99.8846 154.127 99.6977 154.409 99.5109 154.691C99.4175 154.879 99.6043 155.067 99.7912 154.879Z" fill="#342E31"/>
<path d="M99.6978 150.745C99.6043 150.745 99.5109 150.651 99.4175 150.651C99.3241 150.651 99.2307 150.651 99.2307 150.745C99.2307 151.027 99.4175 151.121 99.6044 151.121C99.8846 151.121 99.978 150.745 99.6978 150.745Z" fill="#342E31"/>
<path d="M103.341 151.496C103.808 150.933 104.181 150.369 104.555 149.711C104.928 149.242 105.302 148.678 105.489 148.114C105.489 148.02 105.302 147.926 105.209 147.926C104.742 148.302 104.461 148.96 104.181 149.429C103.808 149.993 103.434 150.557 103.06 151.121C102.874 151.402 103.154 151.684 103.341 151.496Z" fill="#342E31"/>
<path d="M100.165 141.068C100.725 140.599 101.099 140.035 101.659 139.565C102.22 139.001 102.874 138.532 103.341 137.968C103.434 137.874 103.341 137.592 103.154 137.686C102.5 137.968 102.033 138.626 101.472 139.095C100.912 139.659 100.352 140.223 99.8845 140.88C99.7911 141.068 100.071 141.162 100.165 141.068Z" fill="#342E31"/>
<path d="M56.7313 107.246C56.8247 107.246 56.9181 107.34 56.9181 107.34C57.1049 107.528 57.0115 107.716 56.9181 107.904C48.9786 115.232 43.0007 118.238 33.1931 119.835C33.0063 119.835 32.8195 119.741 32.7261 119.554C32.7261 119.366 32.8195 119.178 33.0063 119.084C42.7205 117.581 48.4182 114.668 56.2642 107.34C56.451 107.246 56.5444 107.246 56.7313 107.246Z" fill="#342E31"/>
<path d="M55.2367 105.368C55.3302 105.368 55.3302 105.368 55.4236 105.462C55.6104 105.556 55.6104 105.838 55.4236 106.026C50.3797 111.757 39.5447 117.393 32.6327 117.769C32.4458 117.769 32.259 117.581 32.259 117.393C32.259 117.206 32.4458 117.018 32.6327 117.018C39.3578 116.642 49.9126 111.193 54.8631 105.556C54.9565 105.368 55.1433 105.274 55.2367 105.368Z" fill="#342E31"/>
<path d="M55.8905 106.777C49.1653 112.508 42.3467 116.266 33.7534 118.145C33.5666 118.145 33.66 118.521 33.8468 118.521C41.9731 117.299 50.473 113.072 56.0773 106.965C56.0773 106.871 55.9839 106.683 55.8905 106.777Z" fill="#342E31"/>
<path d="M77.0937 163.334C75.0387 149.523 60.7477 156.194 53.3687 161.549C49.8193 164.085 43.2809 167.937 42.7205 172.917C42.5337 174.138 42.6271 175.171 43.6545 176.017C46.4567 178.647 50.9402 175.829 52.1544 181.466C52.3412 182.217 53.4621 182.03 53.3687 181.278C53.0885 178.835 51.7808 176.862 49.4457 176.017C48.9786 175.829 48.2314 175.829 47.7644 175.641C46.6435 175.171 44.5886 173.574 44.4952 172.071C44.4018 170.004 48.138 167.468 49.6325 166.246C53.4621 163.146 57.4785 160.046 62.0554 158.073C64.4839 157.039 67.2861 156.006 70.0883 156.288C73.9179 156.757 75.4124 160.421 76.5332 163.616C76.4398 164.085 77.0937 163.804 77.0937 163.334Z" fill="#342E31"/>
<path d="M79.7089 159.576C80.8297 154.221 75.8793 149.524 70.6486 149.43C63.4564 149.336 57.0114 154.315 51.5005 158.261C46.7368 161.643 40.7589 166.434 39.8248 172.729C39.5446 174.89 39.8248 177.145 41.6929 178.554C42.4402 179.211 43.2808 179.399 44.2149 179.587C46.4566 180.151 46.4566 179.681 48.6983 181.466C50.5664 182.969 52.0609 184.472 50.0994 187.009C49.7258 187.479 50.473 187.949 50.8466 187.573C52.5279 185.6 52.2477 181.748 50.2862 180.057C49.1653 179.023 48.0445 179.211 46.7368 178.742C39.3578 176.299 40.2918 171.883 43.9346 166.904C47.3906 162.207 52.4345 159.012 57.1982 155.912C60.1872 153.939 63.1761 151.966 66.6321 151.121C72.0496 149.712 80.0825 152.436 78.7748 159.482C78.6814 160.046 79.5221 160.14 79.7089 159.576Z" fill="#342E31"/>
<path d="M73.0772 152.53C72.0497 152.154 70.6486 151.591 69.5278 151.873C69.4344 151.873 69.341 152.06 69.5278 152.154C69.9948 152.342 70.5552 152.342 71.0223 152.436C71.6761 152.53 72.2365 152.718 72.8904 153C73.1706 153 73.3574 152.624 73.0772 152.53Z" fill="#342E31"/>
<path d="M69.7145 152.812C68.9672 152.718 68.1266 152.624 67.3793 152.718C67.1925 152.718 67.2859 152.906 67.3793 152.999C68.1266 153.093 68.8738 153.093 69.621 153.187C69.8079 153.187 69.9013 152.812 69.7145 152.812Z" fill="#342E31"/>
<path d="M74.4782 154.973C74.9452 154.691 74.198 153.751 73.731 154.127C73.731 154.127 73.731 154.221 73.731 154.315C73.9178 154.409 74.0112 154.409 74.1046 154.503C74.198 154.597 74.198 154.785 74.2914 154.879C74.3848 155.066 74.3848 155.066 74.4782 154.973Z" fill="#342E31"/>
<path d="M81.4792 43.7859L80.0682 45.1319C79.0517 44.1224 77.9441 43.3729 76.7455 42.8528C75.5318 42.3327 74.3635 42.0727 73.2256 42.0727C71.7994 42.0727 70.4491 42.4245 69.1595 43.1281C67.8698 43.8318 66.8685 44.7954 66.1705 46.0038C65.4575 47.2122 65.1085 48.4818 65.1085 49.8279C65.1085 51.2045 65.4726 52.52 66.2009 53.759C66.9292 54.998 67.9457 55.9769 69.2353 56.6806C70.5249 57.3842 71.9511 57.7513 73.4835 57.7513C75.3497 57.7513 76.9276 57.2159 78.2324 56.1605C79.522 55.1051 80.2958 53.7131 80.5234 52.0305H74.7125V50.2562H82.5413C82.5261 53.086 81.6916 55.3345 80.0379 57.0018C78.3841 58.6691 76.1842 59.4951 73.4077 59.4951C70.0546 59.4951 67.3843 58.3479 65.4271 56.0381C63.9402 54.2485 63.1816 52.1988 63.1816 49.8738C63.1816 48.13 63.6065 46.5239 64.4713 45.0249C65.3361 43.5258 66.5347 42.3633 68.0367 41.522C69.5388 40.6807 71.2532 40.2524 73.1497 40.2524C74.6821 40.2524 76.1386 40.5278 77.5041 41.0937C78.8544 41.6597 80.1896 42.5469 81.4792 43.7859Z" fill="#403736"/>
<path d="M86.1067 40.7112H89.7328C91.7507 40.7112 93.1162 40.7877 93.8293 40.9559C94.9065 41.2007 95.7865 41.736 96.4541 42.562C97.1368 43.388 97.4706 44.3823 97.4706 45.5907C97.4706 46.5849 97.243 47.4721 96.7727 48.2216C96.3024 48.9711 95.65 49.5524 94.7851 49.9348C93.9203 50.3172 92.7217 50.5161 91.2045 50.5313L97.7437 59.036H95.4982L88.959 50.5313H87.9273V59.036H86.1067V40.7112ZM87.9273 42.5008V48.7264L91.0528 48.757C92.2666 48.757 93.1617 48.6346 93.7383 48.4052C94.3148 48.1757 94.77 47.8086 95.1038 47.2886C95.4224 46.7838 95.5893 46.2025 95.5893 45.5754C95.5893 44.9635 95.4224 44.3976 95.0886 43.8928C94.7548 43.388 94.33 43.0362 93.7838 42.8221C93.2528 42.6079 92.3576 42.5008 91.1135 42.5008H87.9273Z" fill="#403736"/>
<path d="M108.789 40.7112L117.255 59.036H115.298L112.446 53.0093H104.617L101.78 59.036H99.7466L108.349 40.7112H108.789ZM108.562 44.6117L105.451 51.2503H111.657L108.562 44.6117Z" fill="#403736"/>
<path d="M120.092 59.036V40.7112H120.487L132.579 54.7531V40.7112H134.369V59.036H133.96L121.958 45.1624V59.036H120.092Z" fill="#403736"/>
<path d="M93.3741 57.8738C96.1203 57.8738 98.4264 58.8068 100.277 60.6577C102.128 62.5085 103.054 64.7877 103.054 67.4951C103.054 70.1719 102.128 72.4511 100.277 74.3172C98.4416 76.1833 96.181 77.1164 93.5258 77.1164C90.8252 77.1164 88.5494 76.1833 86.6984 74.3325C84.8474 72.4664 83.9219 70.2178 83.9219 67.5869C83.9219 65.8278 84.3467 64.1911 85.1963 62.6921C86.046 61.1931 87.1991 60.0152 88.6556 59.1587C90.0969 58.3021 91.6748 57.8738 93.3741 57.8738ZM93.4651 59.6634C92.1148 59.6634 90.8404 60.0153 89.6418 60.7189C88.4432 61.4225 87.5025 62.3709 86.8198 63.5793C86.137 64.7724 85.8032 66.1031 85.8032 67.5869C85.8032 69.7589 86.5467 71.6098 88.0487 73.1088C89.5507 74.6078 91.3562 75.3574 93.4651 75.3574C94.8762 75.3574 96.181 75.0055 97.3796 74.3172C98.5782 73.6289 99.5188 72.6805 100.186 71.4874C100.854 70.2943 101.188 68.9635 101.188 67.4951C101.188 66.042 100.854 64.7265 100.186 63.5487C99.5188 62.3709 98.563 61.4378 97.3492 60.7189C96.1203 60.0153 94.8306 59.6634 93.4651 59.6634Z" fill="#403736"/>
<path d="M106.71 58.3325H108.531V74.883H115.525V76.6574H106.726V58.3325H106.71Z" fill="#403736"/>
<path d="M125.827 58.3325L134.293 76.6574H132.336L129.484 70.6307H121.655L118.818 76.6574H116.785L125.372 58.3325H125.827ZM125.6 62.2331L122.474 68.8563H128.68L125.6 62.2331Z" fill="#403736"/>
<path d="M86.4406 61.0554C86.3344 61.2084 84.5289 63.8546 82.0103 66.5621C81.9193 66.6691 81.8131 66.7762 81.7069 66.8833C81.3124 66.7303 80.4021 66.3938 79.2186 66.0573C77.6104 65.5984 75.5166 65.1395 73.4684 65.1395C72.3305 65.1395 71.2078 65.2772 70.2064 65.6596C67.9609 66.5009 66.292 67.8928 65.1693 69.0553C64.0465 70.2331 63.4852 71.1815 63.47 71.2121L63.2576 71.5792L63.6065 71.824C63.6369 71.8392 64.2893 72.2981 65.503 72.7417C66.7168 73.1853 68.4768 73.6289 70.7223 73.6289C71.6174 73.6289 72.5884 73.5524 73.6353 73.3842C75.2739 73.1088 76.9125 72.2217 78.4752 71.0591C80.8117 69.3154 82.9965 66.9445 84.5896 65.0171C86.1827 63.0745 87.1992 61.5755 87.2144 61.5755L86.4406 61.0554ZM77.838 70.3861C76.3663 71.4721 74.8491 72.2675 73.4684 72.4817C72.4822 72.6499 71.5567 72.7111 70.7071 72.7111C68.583 72.7111 66.9292 72.2981 65.8065 71.8698C65.2451 71.6557 64.8203 71.4568 64.532 71.3039C64.5169 71.3039 64.5169 71.2886 64.5017 71.2886C64.7596 70.9215 65.1996 70.3249 65.8368 69.6672C66.8837 68.5659 68.4616 67.2963 70.5098 66.5162C71.3747 66.1949 72.3912 66.0573 73.4532 66.0573C75.198 66.0573 77.0642 66.4244 78.5511 66.8221C78.3842 66.9751 78.1718 67.1433 77.9138 67.3422C77.3373 67.8011 76.5787 68.3517 75.8656 68.7341C75.1222 69.1318 74.1663 69.5448 73.4229 69.8354C73.0436 69.9884 72.7098 70.1108 72.4822 70.1873C72.3608 70.2331 72.2698 70.2637 72.2091 70.279C72.1788 70.2943 72.1484 70.2943 72.1333 70.3096C72.1181 70.3096 72.1029 70.3249 72.1029 70.3249C71.8602 70.4014 71.7388 70.6614 71.8146 70.9062C71.8905 71.1509 72.1484 71.2733 72.3912 71.1968C72.3912 71.1968 72.9677 70.998 73.7415 70.692C74.5153 70.3861 75.4863 69.9731 76.2904 69.5448C77.1097 69.1012 77.9138 68.5047 78.5359 68.0152C79.1428 67.5257 79.5524 67.1433 79.5676 67.1433L79.5828 67.128C80.0835 67.281 80.5083 67.4339 80.8269 67.541C80.8876 67.5563 80.9331 67.5869 80.9786 67.6022C80.0228 68.5965 78.9455 69.5754 77.838 70.3861Z" fill="#403736"/>
<path d="M110.447 2.48738C137.207 -8.45996 161.373 -22.4753 189.848 -29.0107C222.823 -36.5786 256.968 -39.8381 290.795 -39.8381C318.02 -39.8381 344.209 -30.7099 366.587 -15.0115C374.247 -9.63798 381.44 -3.6908 388.461 2.48738C393.171 6.63256 395.209 12.3965 398.851 17.2521" stroke="black" stroke-linecap="round" stroke-linejoin="round"/>
</g>
<rect x="42" y="2" width="116" height="152" rx="2" stroke="#342E31" stroke-width="3"/>
<defs>
<clipPath id="clip0">
<rect x="42" y="2" width="116" height="152" rx="2" fill="white"/>
</clipPath>
</defs>
</svg>
