<svg width="170" height="161" viewBox="0 0 170 161" fill="none" xmlns="http://www.w3.org/2000/svg">
<g clip-path="url(#clip0)">
<path d="M147.5 71.6997C146.9 72.6997 146.1 73.6997 145.2 74.5997C147.3 76.6997 148.4 78.7997 148.4 80.8997C148.4 90.4997 125.3 100.8 91 100.8C56.6 100.8 33.6 90.4997 33.6 80.8997C33.5 71.2997 56.6 60.9997 91 60.9997C113.7 60.9997 131.5 65.4997 141 71.2997C141.6 70.1997 142.2 69.0997 142.4 67.8997C131.6 61.3997 112.8 57.1997 91 57.1997C56.7001 57.1997 29.8 67.5997 29.8 80.7997C29.8 94.0997 56.7001 104.4 91 104.4C125.3 104.4 152.2 93.9997 152.2 80.7997C152.1 77.5997 150.5 74.4997 147.5 71.6997Z" fill="#342E31"/>
<path d="M132.1 82.9998C132.2 82.8998 132.3 82.7998 132.5 82.6998C130.3 81.7998 127.5 80.8998 124.3 79.9998C115.1 77.5998 101.9 75.4998 87.4 75.8998C72.7999 76.1998 59.6999 78.6998 50.7999 81.9998C46.2999 83.5998 42.8999 85.3998 40.5999 86.7998C38.3999 88.2998 37.2 89.1998 37.2 89.1998C37.2 89.1998 38.4 88.3998 40.7 86.9998C43 85.6998 46.5 84.0998 51 82.6998C60 79.6998 73 77.6998 87.4 77.3998C101.8 76.8998 114.9 78.5998 124.1 80.5998C127.2 81.4998 129.9 82.2998 132.1 82.9998Z" fill="#342E31"/>
<path d="M131 83.8997C131.2 83.7997 131.3 83.6997 131.5 83.5997C129.5 82.7997 127.1 81.9997 124.2 81.1997C115 78.7997 101.9 76.6997 87.3001 77.0997C72.8001 77.3997 59.6001 79.8997 50.7001 83.1997C46.2001 84.7997 42.8001 86.5997 40.5001 87.9997C38.3001 89.4997 37.1001 90.3997 37.1001 90.3997C37.1001 90.3997 38.3001 89.5997 40.6001 88.1997C42.9001 86.8997 46.4001 85.2997 50.9001 83.8997C59.9001 80.9997 72.9001 78.9997 87.3001 78.5997C101.7 78.0997 114.7 79.7997 124 81.7997C126.7 82.6997 129 83.2997 131 83.8997Z" fill="#342E31"/>
<path d="M129.5 84.9997C129.7 84.8997 129.9 84.6997 130 84.5997C128.3 83.9997 126.3 83.3997 124.1 82.6997C114.9 80.2997 101.8 78.1997 87.2 78.5997C72.7 78.8997 59.5 81.3997 50.6 84.6997C46.1 86.2997 42.7 88.0997 40.4 89.4997C38.2 90.9997 37 91.8997 37 91.8997C37 91.8997 38.2 91.0997 40.5 89.6997C43 88.5997 46.5 86.9997 51 85.5997C60 82.6997 73 80.6997 87.4 80.2997C101.8 79.7997 114.8 81.4997 124.1 83.4997C126.1 83.9997 127.9 84.4997 129.5 84.9997Z" fill="#342E31"/>
<path d="M127.9 86.0998C128.1 85.9998 128.4 85.7998 128.6 85.5998C127.4 85.1998 126.1 84.7998 124.6 84.3998C115.7 81.8998 102.9 79.8998 88.7001 80.1998C74.5001 80.3998 61.7001 82.5998 52.9001 85.6998C48.5001 87.1998 45.1001 88.7998 42.8001 89.9998C40.6001 91.2998 39.4001 92.0998 39.4001 92.0998C39.4001 92.0998 40.7001 91.3998 43.0001 90.1998C45.3001 89.0998 48.8001 87.6998 53.2001 86.4998C62.0001 83.8998 74.7001 82.0998 88.7001 81.8998C102.7 81.5998 115.4 83.1998 124.4 85.2998C125.6 85.4998 126.8 85.7998 127.9 86.0998Z" fill="#342E31"/>
<path d="M126.1 87.1999C126.4 86.9999 126.7 86.7999 126.9 86.6999C126.2 86.4999 125.5 86.2999 124.8 86.0999C116.1 83.5999 103.5 81.6999 89.7001 81.7999C75.8001 81.9999 63.3001 83.9999 54.6001 86.7999C50.3001 88.0999 46.9001 89.5999 44.6001 90.6999C42.4001 91.8999 41.1001 92.5999 41.1001 92.5999C41.1001 92.5999 42.4001 91.9999 44.7001 90.9999C47.0001 89.9999 50.5001 88.7999 54.8001 87.5999C63.5001 85.1999 75.9001 83.5999 89.6001 83.4999C103.3 83.3999 115.8 84.8999 124.5 86.9999C125.2 86.9999 125.7 87.0999 126.1 87.1999Z" fill="#342E31"/>
<path d="M159.5 117C158.8 118 158.1 119 157.3 119.9C156.8 121.1 156.1 122.2 155.1 123.2C155 123.3 155 123.3 154.9 123.4C149.6 142.5 122.9 157 90.8999 157C59.3999 157 33.1 143 27.2 124.4C26.9 124.2 26.7 124 26.4 123.8C25.3 122.7 24.6 121.5 24.1 120.2C23.4 119.7 22.8 119.1 22.2 118.5C23.7 142 53.8999 160.9 90.8999 160.9C128.7 160.9 159.4 141.2 159.6 116.9C159.6 116.8 159.6 116.9 159.5 117Z" fill="#342E31"/>
<path d="M31.7 99.2999C31.7 99.2999 31.9999 99.5999 32.5999 100.2C33.1999 100.8 34.1 101.7 35.4 102.7C37.9 104.7 41.9 107.2 47.2999 109.4C57.9 113.9 73.8999 116.7 91.5 116.6C109.1 116.5 124.9 113.3 135.6 108.9C141 106.8 145 104.4 147.6 102.4C148.3 101.9 148.8 101.4 149.2 101C149.7 100.6 150 100.2 150.3 99.8999C150.8 99.1999 151.1 98.8999 151.1 98.8999C151.1 98.8999 150.9 99.2999 150.4 99.9999C150.2 100.4 149.9 100.8 149.4 101.3C149 101.8 148.5 102.4 147.9 102.9C145.5 105.2 141.6 108 136.3 110.5C125.7 115.7 109.6 119.9 91.5 119.9C73.5 120 57.1999 116.3 46.5999 111C41.2999 108.4 37.3999 105.5 35.0999 103.2C33.9999 102 33.0999 101.1 32.5999 100.4C31.8999 99.6999 31.7 99.2999 31.7 99.2999Z" fill="#342E31"/>
<path d="M29.5 83.1997C29.5 83.1997 29.5 83.5997 29.6 84.4997C29.8 85.2997 30 86.4997 30.8 87.8997C32.3 90.6997 35.7 93.9997 40.6 96.5997C50.5 102 66.1 105.5 83.3 106.4C91.9 106.8 100.1 106.4 107.6 105.8C115 105 121.7 103.8 127.1 102.3C129.8 101.6 132.2 100.7 134.4 99.9997C136.5 99.0997 138.2 98.3997 139.7 97.6997C142.5 96.1997 144 95.2997 144 95.2997C144 95.2997 142.5 96.1997 139.8 97.8997C138.4 98.5997 136.6 99.3997 134.6 100.4C132.5 101.2 130.1 102.2 127.4 103C121.9 104.7 115.3 106.1 107.8 107.1C100.3 107.9 92 108.4 83.3 108C65.9 107.2 50.2 103.2 40.3 97.2997C35.3 94.3997 32 90.8997 30.7 87.9997C30 86.5997 29.8 85.2997 29.7 84.4997C29.5 83.5997 29.5 83.1997 29.5 83.1997Z" fill="#342E31"/>
<path d="M155 105.2C155 105.2 155.1 104.7 154.9 104C154.7 103.2 154.3 102.2 153.6 101C152.9 99.7998 151.9 98.3998 150.9 96.7998C150.4 95.8998 149.9 94.9998 149.8 93.7998C149.7 92.5998 149.9 91.4998 150.1 90.3998C150.3 89.2998 150.5 88.2998 150.6 87.2998C150.7 86.2998 151 85.3998 151 84.3998C151 83.4998 151.1 82.5998 151.1 81.7998C151.1 80.9998 151 80.2998 150.8 79.5998C150.4 78.2998 150.1 77.0998 150 76.2998C149.9 75.4998 150.1 74.9998 150 74.9998C150 74.9998 150 75.4998 150.2 76.1998C150.4 76.9998 150.9 77.9998 151.5 79.2998C152.8 82.0998 152.4 86.2998 151.6 90.5998C151.4 91.6998 151.3 92.5998 151.3 93.4998C151.4 94.2998 151.7 95.1998 152.1 95.9998C152.9 97.6998 153.7 99.1998 154.3 100.5C154.9 101.8 155.1 103 155.2 103.8C155.2 104.8 155 105.2 155 105.2Z" fill="#342E31"/>
<path d="M157.8 110.9C157.8 110.9 158.9 109.1 160.7 106.1C161.6 104.6 162.6 102.9 163.5 100.8C164.4 98.7998 165.4 96.4998 165.5 94.0998C165.7 91.5998 164.2 89.7998 162.3 88.8998C160.4 87.8998 158.4 87.6998 156.7 87.6998C155 87.6998 153.6 87.8998 152.7 88.0998C151.8 88.2998 151.3 88.4998 151.3 88.4998C151.3 88.4998 151.8 88.1998 152.7 87.8998C153.6 87.4998 155 87.0998 156.7 86.8998C158.4 86.6998 160.7 86.5998 162.9 87.6998C164 88.1998 165.2 88.8998 166 90.0998C166.4 90.6998 166.7 91.3998 166.9 91.9998C167 92.6998 167.2 93.3998 167.1 94.0998C167 96.9998 165.8 99.3998 164.7 101.4C163.6 103.4 162.4 105.1 161.3 106.5C159.3 109.4 157.8 110.9 157.8 110.9Z" fill="#342E31"/>
<path d="M148.3 120.8C148.3 120.8 148.5 121.4 148.9 122.5C149.1 123 149.4 123.7 149.8 124.3C150.2 124.9 150.9 125.6 151.7 125.6C152.1 125.6 152.6 125.3 152.9 125.1C153.3 124.8 153.6 124.4 154 123.9C154.7 123 155.3 121.8 156.1 120.7C157.7 118.4 159.4 116 161.3 113.5C162.2 112.2 163.2 111 164.1 109.8C165 108.6 165.9 107.5 166.5 106.3C167.9 104 168.7 101.7 168.8 99.6998C168.9 97.6998 168.2 96.1998 167.5 95.1998C167.2 94.6998 166.9 94.3998 166.7 94.1998C166.5 93.9998 166.4 93.7998 166.4 93.7998C166.4 93.7998 166.9 94.1998 167.7 94.9998C168.5 95.8998 169.5 97.3998 169.6 99.5998C169.8 101.8 169 104.4 167.7 106.8C167.1 108.1 166.2 109.3 165.4 110.5C164.5 111.7 163.6 113 162.7 114.3C160.8 116.9 159 119.3 157.3 121.4C156.4 122.5 155.8 123.5 154.9 124.5C154.5 125 154 125.4 153.5 125.8C152.9 126.1 152.4 126.4 151.7 126.4C150.4 126.3 149.7 125.3 149.3 124.6C148.9 123.8 148.7 123.1 148.6 122.6C148.3 121.4 148.3 120.8 148.3 120.8Z" fill="#342E31"/>
<path d="M151.8 89.6999C151.8 89.6999 151.9 89.5999 152.2 89.5999C152.4 89.4999 152.8 89.3999 153.3 89.1999C154.3 88.8999 155.7 88.5999 157.6 88.9999C158.5 89.1999 159.6 89.5999 160.3 90.5999C161.1 91.4999 161.4 92.8999 161.3 94.1999C161 96.7999 159.9 99.1999 158.6 101.7C157.8 102.8 157.1 104 156.3 105C155.9 105.5 155.5 106 155 106.5C154.5 107 154 107.4 153.4 107.7C151.2 109 149 109.2 147.7 110.2C146.2 111 145.8 112.5 145.7 113.4C145.5 114.4 145.4 114.9 145.4 114.9C145.4 114.9 145.5 114.4 145.5 113.4C145.5 112.9 145.5 112.3 145.8 111.5C146 110.8 146.6 110 147.3 109.5C148.8 108.2 151 107.7 152.8 106.5C153.3 106.2 153.6 105.8 154 105.4C154.4 104.9 154.7 104.4 155.1 104C155.9 103.1 156.5 101.9 157.3 100.8C158.6 98.4999 159.7 96.1999 160.1 94.0999C160.2 92.9999 160.1 92.0999 159.6 91.2999C159.1 90.5999 158.3 90.0999 157.5 89.7999C155.9 89.2999 154.4 89.3999 153.5 89.4999C153 89.5999 152.6 89.5999 152.4 89.6999C151.9 89.6999 151.8 89.6999 151.8 89.6999Z" fill="#342E31"/>
<path d="M111.7 121.6C111.7 121.6 109.7 122 106.4 122.5C103.1 123.1 98.5 123.4 93.5 123.6C88.4 123.5 83.8 123.3 80.6 122.9C77.3 122.5 75.3 122.2 75.3 122.2C75.3 122.2 77.4 122.1 80.7 122.1C84 122.2 88.6 121.9 93.6 122C98.6 121.8 103.2 121.9 106.5 121.7C109.6 121.5 111.7 121.6 111.7 121.6Z" fill="#342E31"/>
<path d="M106 125.4C106 125.4 104.5 125.8 101.9 126.3C99.4001 126.8 95.9001 127.4 91.9001 127.5C88.0001 127.6 84.4001 127.4 81.8001 126.7C80.5001 126.5 79.5001 126 78.9001 125.8C78.2001 125.5 77.9001 125.4 77.9001 125.4C77.9001 125.4 78.3001 125.5 79.0001 125.6C79.7001 125.7 80.7001 126 82.0001 126C84.5001 126.3 88.0001 126.1 91.9001 126C95.8001 125.8 99.3001 125.7 101.9 125.6C104.4 125.4 106 125.4 106 125.4Z" fill="#342E31"/>
<path d="M99.3 129.8C99.3 129.8 96.6 130.6 93.3 130.6C90 130.6 87.3 129.8 87.3 129.8C87.3 129.8 90 129 93.3 129C96.6 128.9 99.3 129.8 99.3 129.8Z" fill="#342E31"/>
<path d="M96.5 133C96.5 133 95.6 133.8 94.6 133.8C93.5 133.8 92.7 133 92.7 133C92.7 133 93.6 132.2 94.6 132.2C95.7 132.2 96.5 133 96.5 133Z" fill="#342E31"/>
<path d="M121.3 148.2C121.3 148.2 120.6 148.6 119.2 149.2C118.5 149.5 117.7 149.9 116.8 150.4C115.8 150.8 114.7 151.2 113.4 151.6C108.3 153.3 100.9 154.5 92.6999 154.5C84.4999 154.5 77.2 153.7 71.9 152.8C69.3 152.2 67.2 151.7 65.8 151.1C64.4 150.5 63.7 150.2 63.7 150.2C63.7 150.2 64.5 150.4 65.9 150.8C67.3 151.3 69.4 151.6 72 152C77.3 152.6 84.5999 152.9 92.6999 152.9C100.8 152.9 108 152.1 113.2 150.8C114.5 150.5 115.6 150.2 116.7 149.9C117.7 149.5 118.5 149.2 119.2 148.9C120.6 148.5 121.3 148.2 121.3 148.2Z" fill="#342E31"/>
<path d="M118.4 144.7C118.4 144.7 117.7 145 116.5 145.6C115.9 145.9 115.2 146.3 114.3 146.7C113.4 147 112.4 147.4 111.2 147.8C106.6 149.3 100 150.5 92.6 150.5C85.2 150.5 78.6 149.8 73.9 148.9C71.5 148.4 69.6 147.9 68.4 147.3C67.2 146.8 66.5 146.5 66.5 146.5C66.5 146.5 67.2 146.7 68.5 147.1C69.8 147.5 71.7 147.8 74 148.1C78.7 148.6 85.3 148.9 92.5 148.9C99.7 148.9 106.3 148.2 110.9 147.1C112.1 146.8 113.1 146.5 114 146.3C114.9 146 115.6 145.7 116.3 145.5C117.7 145 118.4 144.7 118.4 144.7Z" fill="#342E31"/>
<path d="M114.8 142.6C114.8 142.6 114.2 142.9 113.2 143.4C112.7 143.7 112.1 144 111.3 144.4C110.5 144.7 109.6 145 108.7 145.4C104.8 146.8 99 147.8 92.7 147.8C86.4 147.8 80.7 147.2 76.6 146.4C74.6 145.9 72.9 145.5 71.9 145C70.8 144.5 70.3 144.3 70.3 144.3C70.3 144.3 70.9 144.5 72 144.8C73.1 145.2 74.7 145.4 76.7 145.6C80.8 146 86.4 146.2 92.6 146.2C98.8 146.2 104.4 145.6 108.4 144.7C109.4 144.5 110.3 144.2 111.1 144C111.9 143.7 112.5 143.5 113.1 143.3C114.2 142.8 114.8 142.6 114.8 142.6Z" fill="#342E31"/>
<path d="M123.9 105.3C123.9 105.3 125.5 104.7 128.2 103.7C130.8 102.7 134.5 101.3 138.3 99.3998C142.1 97.3998 145.4 95.3998 147.7 93.6998C148.8 92.8998 149.7 92.0998 150.2 91.4998C150.7 90.8998 150.9 90.4998 150.9 90.4998C150.9 90.4998 150.7 90.8998 150.3 91.5998C149.8 92.2998 149.1 93.0998 148 93.9998C145.8 95.7998 142.6 98.0998 138.7 100.1C134.8 102.1 131 103.3 128.3 104.1C125.6 104.8 123.9 105.3 123.9 105.3Z" fill="#342E31"/>
<path d="M134.8 103.5C134.8 103.5 135.7 103 137.3 102.2C138.8 101.4 141 100.3 143.2 99.0998C145.5 97.7998 147.4 96.4998 148.7 95.3998C149.4 94.8998 149.8 94.2998 150.2 93.9998C150.5 93.6998 150.7 93.4998 150.7 93.4998C150.7 93.4998 150.5 93.6998 150.3 94.0998C150 94.4998 149.6 95.0998 149 95.6998C147.8 96.9998 145.9 98.4998 143.6 99.7998C141.3 101.1 139 102 137.4 102.6C135.8 103.1 134.8 103.5 134.8 103.5Z" fill="#342E31"/>
<path d="M141.5 102.7C141.5 102.7 142 102.3 142.9 101.6C143.8 101 145 100.1 146.3 99.0999C147.6 98.0999 148.8 97.1999 149.5 96.3999C150.2 95.5999 150.6 95.0999 150.6 95.0999C150.6 95.0999 150.5 95.2999 150.4 95.4999C150.3 95.7999 150.1 96.1999 149.8 96.6999C149.2 97.5999 148.1 98.7999 146.8 99.7999C145.4 100.8 144.1 101.5 143.1 101.9C142.1 102.4 141.5 102.7 141.5 102.7Z" fill="#342E31"/>
<path d="M144.5 102.6C144.5 102.6 144.9 102.2 145.5 101.7C146.1 101.2 147 100.5 148 99.6997C149 98.8997 149.9 98.2997 150.4 97.6997C150.7 97.3997 150.9 97.0997 151 96.9997C151.2 96.7997 151.2 96.6997 151.2 96.6997C151.2 96.6997 151.2 96.7997 151.1 96.9997C151 97.1997 150.9 97.5997 150.7 97.8997C150.3 98.5997 149.5 99.4997 148.4 100.3C147.4 101.1 146.3 101.6 145.6 102C145 102.4 144.5 102.6 144.5 102.6Z" fill="#342E31"/>
<path d="M107.1 108.6C107.1 108.6 110.3 107.7 114.4 107C117.3 106.4 119.9 106.2 119.8 106.3C120.7 106.2 121.1 106 121.4 105.9C121.7 105.8 121.7 105.8 121.7 105.8C121.7 105.8 121.6 105.8 121.4 106C121.2 106.1 120.7 106.4 119.8 106.5C120 106.6 117.5 107.3 114.5 107.8C110.4 108.5 107.1 108.6 107.1 108.6Z" fill="#342E31"/>
<path d="M133.4 104.3C133.4 104.3 132.9 104.6 132.1 105.1C131.3 105.6 130.1 106.2 128.7 106.7C125.9 107.6 123.6 107.9 123.6 107.9C123.6 107.9 125.7 106.8 128.5 106C129.8 105.5 131.1 105.2 132 104.8C132.8 104.5 133.4 104.3 133.4 104.3Z" fill="#342E31"/>
<path d="M122 108.6C122 108.6 121.6 109.1 121 109.2C120.4 109.3 119.9 109 119.9 109C119.9 109 120.3 108.5 120.9 108.4C121.4 108.3 122 108.6 122 108.6Z" fill="#342E31"/>
<path d="M118.3 109.3C118.3 109.3 118.1 109.8 117.6 109.9C117.2 110 116.8 109.7 116.8 109.7C116.8 109.7 117 109.2 117.5 109.1C117.9 108.9 118.3 109.3 118.3 109.3Z" fill="#342E31"/>
<path d="M137.9 104.7C137.9 104.7 138.4 104.1 139.1 103.9C139.7 103.6 140.5 103.7 140.5 103.7C140.5 103.7 140.1 104.3 139.3 104.7C138.7 105 137.9 104.7 137.9 104.7Z" fill="#342E31"/>
<path d="M133.8 106.6C133.8 106.6 134.2 106.1 134.8 106C135.3 105.8 136 105.9 136 105.9C136 105.9 135.7 106.5 135.1 106.8C134.4 106.9 133.8 106.6 133.8 106.6Z" fill="#342E31"/>
<path d="M129.3 108.2C129.3 108.2 129.7 107.7 130.4 107.5C131 107.3 131.7 107.4 131.7 107.4C131.7 107.4 131.4 108 130.7 108.3C129.9 108.5 129.3 108.2 129.3 108.2Z" fill="#342E31"/>
<path d="M78.6 64.5999C78.6 64.5999 76.4001 64.8999 72.8001 65.2999C69.2001 65.7999 64.3001 66.3999 58.9001 67.4999C53.5001 68.5999 48.8 70.0999 45.5 71.4999C43.8 72.1999 42.5 72.7999 41.6 73.1999C40.7 73.6999 40.3 73.9999 40.3 73.9999C40.3 73.9999 40.7 73.6999 41.6 73.0999C42.5 72.5999 43.8001 71.8999 45.4001 71.0999C48.7001 69.5999 53.4 67.7999 58.8 66.6999C64.2 65.5999 69.2001 65.1999 72.8001 64.8999C76.4001 64.6999 78.6 64.5999 78.6 64.5999Z" fill="#342E31"/>
<path d="M67.8001 67.0999C67.8001 67.0999 66.4 67.4999 64 68.0999C61.6 68.6999 58.4 69.3999 54.8 70.2999C51.2 71.1999 48 72.1999 45.8 73.1999C44.7 73.5999 43.8001 74.1999 43.2001 74.4999C42.6001 74.7999 42.3 74.9999 42.3 74.9999C42.3 74.9999 42.6001 74.7999 43.2001 74.3999C43.8001 74.0999 44.6001 73.3999 45.7001 72.8999C47.9001 71.6999 51.0001 70.4999 54.7001 69.5999C58.3001 68.6999 61.6 68.1999 64 67.7999C66.3 67.2999 67.8001 67.0999 67.8001 67.0999Z" fill="#342E31"/>
<path d="M56.3 71.2998C56.3 71.2998 53.8 72.1998 50.8 72.8998C49.3 73.3998 47.9001 73.5998 46.9001 73.9998C45.9001 74.2998 45.3 74.4998 45.3 74.4998C45.3 74.4998 45.8001 74.0998 46.7001 73.5998C47.6001 72.9998 49 72.5998 50.5 72.0998C53.7 71.4998 56.3 71.2998 56.3 71.2998Z" fill="#342E31"/>
<path d="M51.6 73.7998C51.6 73.7998 50.8 74.3998 49.8 74.5998C48.7 74.8998 47.8 74.6998 47.8 74.6998C47.8 74.6998 48.6 74.0998 49.6 73.7998C50.6 73.5998 51.6 73.7998 51.6 73.7998Z" fill="#342E31"/>
<path d="M50.8001 75.4997C50.8001 75.4997 50.3001 75.9997 49.8001 76.0997C49.1001 76.1997 48.6001 75.8997 48.6001 75.8997C48.6001 75.8997 48.7001 75.7997 48.9001 75.5997C49.1001 75.4997 49.3001 75.2997 49.6001 75.1997C50.3001 75.1997 50.8001 75.4997 50.8001 75.4997Z" fill="#342E31"/>
<path d="M79.7001 74.6997C79.7001 74.6997 77.7001 74.9997 74.4001 75.5997C71.1001 76.0997 66.6001 76.8997 61.6001 77.8997C59.1001 78.3997 56.8001 79.0997 54.7001 79.5997C52.6001 80.1997 50.7001 80.8997 49.2001 81.3997C46.0001 82.3997 44.1001 83.0997 44.1001 83.0997C44.1001 83.0997 46.0001 82.2997 49.1001 80.9997C50.7001 80.3997 52.5001 79.5997 54.6001 78.8997C56.7001 78.2997 59.1001 77.5997 61.6001 77.0997C66.6001 75.9997 71.2001 75.4997 74.5001 75.1997C77.6001 74.8997 79.7001 74.6997 79.7001 74.6997Z" fill="#342E31"/>
<path d="M132 79.6999C132 79.6999 128.3 79.0999 123.9 77.7999C119.4 76.9999 115.8 75.8999 115.8 75.8999C115.8 75.8999 119.5 76.1999 124.1 76.9999C128.5 78.2999 132 79.6999 132 79.6999Z" fill="#342E31"/>
<path d="M126.9 76.6998C126.9 76.6998 125.5 76.7998 123.9 76.3998C122.3 76.0998 121.1 75.3998 121.1 75.3998C121.1 75.3998 122.5 75.2998 124.1 75.5998C125.7 75.9998 126.9 76.6998 126.9 76.6998Z" fill="#342E31"/>
<path d="M126.6 74.6998C126.6 74.6998 125.6 74.8998 124.6 74.6998C123.5 74.5998 122.7 74.0998 122.7 74.0998C122.7 74.0998 123.6 73.7998 124.8 73.8998C125.8 74.0998 126.6 74.6998 126.6 74.6998Z" fill="#342E31"/>
<path d="M126.8 72.8997C126.8 72.8997 126.1 73.1997 125.3 73.0997C124.5 72.9997 123.9 72.4997 123.9 72.4997C123.9 72.4997 124.6 72.1997 125.4 72.2997C126.2 72.3997 126.8 72.8997 126.8 72.8997Z" fill="#342E31"/>
<path d="M125.2 70.9998C125.2 70.9998 124.8 71.2998 124.5 71.2998C124.1 71.2998 123.8 70.8998 123.8 70.8998C123.8 70.8998 124.1 70.4998 124.5 70.4998C125 70.5998 125.2 70.9998 125.2 70.9998Z" fill="#342E31"/>
<path d="M158.7 90.9999C158.7 90.9999 158.3 90.7999 157.6 90.4999C156.9 90.2999 155.9 89.9999 154.8 89.8999C152.6 89.5999 150.7 89.9999 150.7 89.9999C150.7 89.9999 150.8 89.8999 151 89.7999C151.2 89.6999 151.5 89.4999 151.8 89.3999C152.5 89.0999 153.6 88.8999 154.8 88.9999C156 89.0999 157 89.5999 157.7 89.9999C158.4 90.6999 158.7 90.9999 158.7 90.9999Z" fill="#342E31"/>
<path d="M158.7 91.7997C158.7 91.7997 158.3 91.5997 157.6 91.2997C156.9 91.0997 155.9 90.7997 154.8 90.6997C152.6 90.3997 150.7 90.7997 150.7 90.7997C150.7 90.7997 150.8 90.6997 151 90.5997C151.2 90.4997 151.5 90.2997 151.8 90.1997C152.5 89.8997 153.6 89.6997 154.8 89.7997C156 89.8997 157 90.3997 157.7 90.7997C158.4 91.3997 158.7 91.7997 158.7 91.7997Z" fill="#342E31"/>
<path d="M158.7 92.4999C158.7 92.4999 158.3 92.2999 157.6 91.9999C156.9 91.7999 155.9 91.4999 154.8 91.3999C152.6 91.0999 150.7 91.4999 150.7 91.4999C150.7 91.4999 150.8 91.3999 151 91.2999C151.2 91.1999 151.5 90.9999 151.8 90.8999C152.5 90.5999 153.6 90.3999 154.8 90.4999C156 90.5999 157 91.0999 157.7 91.4999C158.4 92.1999 158.7 92.4999 158.7 92.4999Z" fill="#342E31"/>
<path d="M158.7 93.2997C158.7 93.2997 158.3 93.0997 157.6 92.7997C156.9 92.5997 155.9 92.2997 154.8 92.1997C152.6 91.8997 150.7 92.2997 150.7 92.2997C150.7 92.2997 150.8 92.1997 151 92.0997C151.2 91.9997 151.5 91.7997 151.8 91.6997C152.5 91.3997 153.6 91.1997 154.8 91.2997C156 91.3997 157 91.8997 157.7 92.2997C158.4 92.8997 158.7 93.2997 158.7 93.2997Z" fill="#342E31"/>
<path d="M158.7 94.0997C158.7 94.0997 158.3 93.8997 157.6 93.5997C156.9 93.3997 155.9 93.0997 154.8 92.9997C152.6 92.6997 150.7 93.0997 150.7 93.0997C150.7 93.0997 150.8 92.9997 151 92.8997C151.2 92.7997 151.5 92.5997 151.8 92.4997C152.5 92.1997 153.6 91.9997 154.8 92.0997C156 92.1997 157 92.6997 157.7 93.0997C158.4 93.6997 158.7 94.0997 158.7 94.0997Z" fill="#342E31"/>
<path d="M158.7 94.7997C158.7 94.7997 158.3 94.5997 157.6 94.2997C156.9 94.0997 155.9 93.7997 154.8 93.6997C152.6 93.3997 150.7 93.7997 150.7 93.7997C150.7 93.7997 150.8 93.6997 151 93.5997C151.2 93.4997 151.5 93.2997 151.8 93.1997C152.5 92.8997 153.6 92.6997 154.8 92.7997C156 92.8997 157 93.3997 157.7 93.7997C158.4 94.4997 158.7 94.7997 158.7 94.7997Z" fill="#342E31"/>
<path d="M158.7 95.5997C158.7 95.5997 158.3 95.3997 157.6 95.0997C156.9 94.8997 155.9 94.5997 154.8 94.4997C152.6 94.1997 150.7 94.5997 150.7 94.5997C150.7 94.5997 150.8 94.4997 151 94.3997C151.2 94.2997 151.5 94.0997 151.8 93.9997C152.5 93.6997 153.6 93.4997 154.8 93.5997C156 93.6997 157 94.1997 157.7 94.5997C158.4 95.1997 158.7 95.5997 158.7 95.5997Z" fill="#342E31"/>
<path d="M158.7 96.2997C158.7 96.2997 158.3 96.0997 157.6 95.7997C156.9 95.5997 155.9 95.2997 154.8 95.1997C152.6 94.8997 150.7 95.2997 150.7 95.2997C150.7 95.2997 150.8 95.1997 151 95.0997C151.2 94.9997 151.5 94.7997 151.8 94.6997C152.5 94.3997 153.6 94.1997 154.8 94.2997C156 94.3997 157 94.8997 157.7 95.2997C158.4 95.9997 158.7 96.2997 158.7 96.2997Z" fill="#342E31"/>
<path d="M158.7 97.0997C158.7 97.0997 158.3 96.8997 157.6 96.5997C156.9 96.3997 155.9 96.0997 154.8 95.9997C152.6 95.6997 150.7 96.0997 150.7 96.0997C150.7 96.0997 150.8 95.9997 151 95.8997C151.2 95.7997 151.5 95.5997 151.8 95.4997C152.5 95.1997 153.6 94.9997 154.8 95.0997C156 95.1997 157 95.6997 157.7 96.0997C158.4 96.6997 158.7 97.0997 158.7 97.0997Z" fill="#342E31"/>
<path d="M158.7 97.8999C158.7 97.8999 158.3 97.6999 157.6 97.3999C156.9 97.1999 156 96.8999 155 96.7999C153 96.4999 151.2 96.8999 151.2 96.8999C151.2 96.8999 151.6 96.5999 152.3 96.3999C153 96.0999 154 95.8999 155.1 95.9999C156.2 96.0999 157.2 96.5999 157.8 96.9999C158.4 97.4999 158.7 97.8999 158.7 97.8999Z" fill="#342E31"/>
<path d="M158.7 98.5998C158.7 98.5998 158.3 98.3998 157.7 98.1998C157.1 97.9998 156.3 97.6998 155.3 97.5998C154.4 97.4998 153.5 97.4998 152.8 97.4998C152.1 97.4998 151.7 97.4998 151.7 97.4998C151.7 97.4998 152.1 97.2998 152.7 97.0998C153.3 96.8998 154.3 96.6998 155.4 96.7998C156.5 96.8998 157.4 97.3998 157.9 97.7998C158.4 98.2998 158.7 98.5998 158.7 98.5998Z" fill="#342E31"/>
<path d="M158.7 99.3997C158.7 99.3997 158.3 99.2997 157.8 98.9997C157.2 98.7997 156.5 98.4997 155.6 98.3997C154.7 98.2997 153.9 98.2997 153.3 98.1997C152.7 98.1997 152.3 98.1997 152.3 98.1997C152.3 98.1997 152.7 97.9997 153.3 97.7997C153.9 97.5997 154.8 97.3997 155.8 97.4997C157.8 97.7997 158.7 99.4997 158.7 99.3997Z" fill="#342E31"/>
<path d="M158.7 100.1C158.7 100.1 158.3 99.9998 157.8 99.6998C157.3 99.4998 156.5 99.2998 155.7 99.0998C154 98.7998 152.5 98.5998 152.5 98.5998C152.5 98.5998 152.8 98.3998 153.4 98.2998C154 98.1998 154.9 98.0998 155.8 98.2998C156.7 98.4998 157.5 98.8998 158 99.2998C158.5 99.7998 158.7 100.1 158.7 100.1Z" fill="#342E31"/>
<path d="M155.2 89.2998L154.7 98.6998H152.5C152.5 98.6998 149.7 92.2998 150.6 89.7998L155.2 89.2998Z" fill="#342E31"/>
<path d="M160.6 98.1998C160.6 98.1998 160.7 97.5998 160.9 96.7998C161.1 95.8998 161.4 94.6998 161.4 93.3998C161.4 92.0998 161.1 90.8998 160.7 90.1998C160.2 89.4998 159.8 88.9998 159.8 88.9998C159.8 88.9998 159.9 89.0998 160.1 89.1998C160.3 89.3998 160.7 89.4998 161 89.8998C161.7 90.5998 162.3 91.8998 162.2 93.3998C162.1 94.8998 161.7 96.0998 161.3 96.8998C160.9 97.6998 160.6 98.1998 160.6 98.1998Z" fill="#342E31"/>
<path d="M161.8 97.4998C161.8 97.4998 161.9 97.0998 162.1 96.4998C162.3 95.8998 162.4 94.9998 162.6 94.0998C162.7 93.0998 162.7 92.2998 162.7 91.5998C162.6 90.9998 162.6 90.4998 162.6 90.4998C162.6 90.4998 162.8 90.7998 163.1 91.4998C163.4 92.0998 163.6 93.0998 163.4 94.1998C163.2 95.2998 162.8 96.0998 162.5 96.6998C162.1 97.1998 161.8 97.4998 161.8 97.4998Z" fill="#342E31"/>
<path d="M163.7 96.1998C163.7 96.1998 163.7 95.1998 163.8 94.1998C164 93.1998 164 92.2998 164 92.2998C164 92.2998 164.2 92.3998 164.4 92.7998C164.6 93.1998 164.7 93.6998 164.6 94.2998C164.4 95.3998 163.7 96.1998 163.7 96.1998Z" fill="#342E31"/>
<path d="M160.8 101.8C160.8 101.8 160.7 102.1 160.4 102.6C160.1 103.1 159.9 103.9 159.3 104.7C158.2 106.4 156.2 108.4 153.4 109.8C152 110.5 150.6 110.8 149.6 111.5C148.5 112.1 148.1 113.2 148 114.1C148 115.1 148 115.9 148 116.4C147.9 116.9 147.9 117.3 147.9 117.3C147.9 117.3 147.9 117 147.9 116.4C147.9 115.9 147.7 115.1 147.6 114.1C147.5 113.1 148 111.7 149.2 110.9C150.3 110 151.8 109.7 153.1 109.1C155.7 107.8 157.8 106 159 104.5C159.6 103.8 160 103 160.3 102.6C160.6 102 160.8 101.8 160.8 101.8Z" fill="#342E31"/>
<path d="M161.1 108.9C161.1 108.9 162.4 106.6 164.2 103.9C165 102.5 165.9 101.3 166.3 100.4C166.8 99.4999 167.2 98.8999 167.2 98.8999C167.2 98.8999 167 99.4999 166.7 100.6C166.4 101.7 165.7 103 164.9 104.4C163.1 107.1 161.1 108.9 161.1 108.9Z" fill="#342E31"/>
<path d="M163.9 107.5C163.9 107.5 164.3 106.2 165.2 104.8C165.9 103.4 166.9 102.4 166.9 102.4C166.9 102.4 166.7 103.8 165.9 105.3C164.9 106.7 163.9 107.5 163.9 107.5Z" fill="#342E31"/>
<path d="M155.4 104.8C155.4 104.8 155.3 104.3 155.2 103.6C155 102.9 154.7 102 154.2 101C153.8 99.9997 153.2 99.1997 152.9 98.3997C152.6 97.6997 152.7 97.1997 152.7 97.1997C152.7 97.1997 152.9 97.5997 153.3 98.1997C153.7 98.7997 154.4 99.4997 154.9 100.6C155.4 101.6 155.5 102.8 155.5 103.5C155.6 104.4 155.4 104.8 155.4 104.8Z" fill="#342E31"/>
<path d="M155.7 103.5C155.7 103.5 155.7 103.1 155.7 102.6C155.6 102.1 155.3 101.5 154.9 100.8C154.5 100.1 154.1 99.3998 153.9 98.8998C153.7 98.3998 153.6 97.9998 153.6 97.9998C153.6 97.9998 153.9 98.2998 154.3 98.5998C154.7 98.9998 155.2 99.5998 155.7 100.3C156.1 101.1 156.3 101.9 156.2 102.6C155.9 103.2 155.7 103.5 155.7 103.5Z" fill="#342E31"/>
<path d="M155.3 104C155.3 104 155.3 103.8 155.3 103.5C155.3 103.2 155.2 102.9 155 102.4C154.8 102 154.7 101.5 154.8 101.1C154.8 100.7 154.9 100.5 154.9 100.5C154.9 100.5 155 100.7 155.2 101C155.4 101.3 155.6 101.6 155.8 102.1C156 102.6 155.9 103.2 155.7 103.5C155.5 103.8 155.3 104 155.3 104Z" fill="#342E31"/>
<path d="M140.3 82.2998C140.3 82.2998 140.8 82.3998 141.5 82.6998C142.2 82.9998 143.2 83.3998 144.1 84.2998C145 85.0998 145.6 86.1998 145.5 87.0998C145.4 87.8998 145.1 88.2998 145.2 88.2998C145.2 88.2998 145.3 87.7998 145.1 87.0998C145 86.3998 144.4 85.5998 143.6 84.8998C142.8 84.0998 141.9 83.4998 141.3 83.0998C140.7 82.5998 140.3 82.2998 140.3 82.2998Z" fill="#342E31"/>
<path d="M140.9 81.0999C140.9 81.0999 141.4 81.1999 142.1 81.4999C142.8 81.6999 143.9 82.0999 144.9 82.8999C145.9 83.5999 146.7 84.5999 146.8 85.4999C146.9 86.3999 146.6 86.7999 146.6 86.7999C146.6 86.7999 146.7 86.2999 146.4 85.5999C146.1 84.8999 145.4 84.1999 144.4 83.5999C143.5 82.8999 142.5 82.3999 141.9 81.8999C141.3 81.3999 140.9 81.0999 140.9 81.0999Z" fill="#342E31"/>
<path d="M146.2 82.6997C146.2 82.6997 147.1 82.6997 147.7 83.4997C148.4 84.2997 148.1 85.2997 148.1 85.1997C148.1 85.1997 147.6 84.5997 147.1 83.9997C146.6 83.4997 146.2 82.6997 146.2 82.6997Z" fill="#342E31"/>
<path d="M147.8 81.8999C147.8 81.8999 148.5 81.8999 148.9 82.4999C149.2 83.0999 148.9 83.6999 148.9 83.6999C148.9 83.6999 148.4 83.2999 148.2 82.8999C147.9 82.4999 147.9 81.8999 147.8 81.8999Z" fill="#342E31"/>
<path d="M139.4 110.3C139.4 110.3 140.2 109.7 141.6 108.7C143 107.8 144.7 106.3 146.7 104.9C148.5 103.2 150.3 101.8 151.4 100.5C152.5 99.2999 153.3 98.5999 153.3 98.5999C153.3 98.5999 152.7 99.3999 151.8 100.8C150.9 102.2 149.2 103.8 147.3 105.5C145.2 107 143.4 108.3 141.9 109C140.3 109.8 139.4 110.3 139.4 110.3Z" fill="#342E31"/>
<path d="M147.4 106.3C147.4 106.3 148.8 104.7 150.6 103.1C151.4 102.2 152.3 101.5 152.9 100.9C153.5 100.3 153.9 99.9998 153.9 99.9998C153.9 99.9998 153.7 100.5 153.3 101.2C152.9 102 152.2 102.8 151.3 103.8C149.2 105.4 147.4 106.3 147.4 106.3Z" fill="#342E31"/>
<path d="M150.5 105.6C150.5 105.6 151.3 104.4 152.4 103.1C152.9 102.4 153.4 101.9 153.7 101.4C154 101 154.3 100.7 154.3 100.7C154.3 100.7 154.2 101.1 154.1 101.6C154 102.2 153.5 102.9 153 103.6C152.4 104.3 151.8 104.8 151.3 105.1C150.8 105.4 150.5 105.6 150.5 105.6Z" fill="#342E31"/>
<path d="M152.7 105.3C152.7 105.3 153 104.4 153.7 103.7C154.3 103 154.9 102.4 154.9 102.4C154.9 102.3 155.1 103.4 154.3 104.3C153.5 105 152.7 105.3 152.7 105.3Z" fill="#342E31"/>
<path d="M138.1 140.1C138.1 140.1 137.4 140.7 136.4 141.6C135.4 142.6 133.6 143.5 131.7 144.5C129.7 145.3 127.8 146 126.5 146.3C125.1 146.6 124.3 146.9 124.3 146.9C124.3 146.9 125.1 146.5 126.4 146C127.7 145.5 129.5 144.6 131.4 143.8C133.3 142.8 135.1 142.1 136.2 141.3C137.4 140.5 138.1 140.1 138.1 140.1Z" fill="#342E31"/>
<path d="M141.4 137.1C141.4 137.1 141.4 137.3 141.3 137.5C141.3 137.8 141.1 138.1 140.8 138.4C140.2 139 139.4 138.7 139.4 138.8C139.4 138.8 139.8 138.2 140.2 137.8C140.8 137.3 141.4 137.1 141.4 137.1Z" fill="#342E31"/>
<path d="M144.7 133.8C144.7 133.8 144.6 134.5 144 135C143.5 135.5 142.8 135.7 142.8 135.7C142.8 135.7 142.9 135 143.5 134.5C144 133.9 144.7 133.8 144.7 133.8Z" fill="#342E31"/>
<path d="M146.9 130.8C146.9 130.8 146.9 131.4 146.5 131.8C146.2 132.2 145.6 132.4 145.6 132.4C145.6 132.4 145.5 131.8 145.9 131.3C146.3 130.8 146.9 130.8 146.9 130.8Z" fill="#342E31"/>
<path d="M135.2 139.2C135.2 139.2 133 140.8 130 142.3C127 143.7 124.4 144.4 124.4 144.4C124.4 144.4 126.6 142.9 129.7 141.5C132.6 140.1 135.2 139.2 135.2 139.2Z" fill="#342E31"/>
<path d="M139 136.6C139 136.6 138.7 137.3 138 137.7C137.2 138 136.5 137.9 136.5 137.9C136.5 137.9 136.9 137.3 137.6 137C138.2 136.6 139 136.6 139 136.6Z" fill="#342E31"/>
<path d="M142.3 133.3C142.3 133.3 142.3 134 141.8 134.5C141.3 134.9 140.6 134.9 140.6 134.9C140.6 134.9 140.8 134.2 141.2 133.9C141.6 133.5 142.3 133.3 142.3 133.3Z" fill="#342E31"/>
<path d="M25.9 105.2C25.9 105.2 25.7 104.8 25.7 104C25.7 103.2 26 102 26.6 100.7C27.2 99.3998 27.9999 97.8998 28.7999 96.1998C29.1999 95.3998 29.5 94.4998 29.6 93.6998C29.6 92.7998 29.4999 91.7998 29.2999 90.7998C28.4999 86.4998 28.2999 82.2998 29.2999 79.4998C29.7999 78.0998 30.3999 77.0998 30.7999 76.3998C31.1999 75.6998 31.4 75.2998 31.4 75.2998C31.4 75.2998 31.3 75.6998 31 76.4998C30.7 77.1998 30.3 78.2998 30.1 79.6998C29.5 82.3998 30.0999 86.1998 30.9 90.4998C31.0999 91.5998 31.2 92.6998 31.2 93.8998C31 95.0998 30.5 95.9998 30.1 96.8998C29.1 98.5998 28.1 99.8998 27.4 101.1C26.7 102.3 26.2 103.3 26.1 104.1C25.9 104.7 26 105.2 25.9 105.2Z" fill="#342E31"/>
<path d="M23.1001 110.9C23.1001 110.9 21.6001 109.3 19.5001 106.6C18.4001 105.2 17.2001 103.5 16.1001 101.5C15.0001 99.4998 13.9001 97.0998 13.7001 94.1998C13.6001 93.4998 13.8001 92.7998 13.9001 92.0998C14.1001 91.3998 14.4001 90.6998 14.8001 90.1998C15.6001 88.9998 16.8001 88.2998 17.9001 87.7998C20.1001 86.7998 22.4001 86.7998 24.1001 86.9998C25.8001 87.1998 27.2001 87.5998 28.1001 87.9998C29.0001 88.3998 29.5001 88.5998 29.5001 88.5998C29.5001 88.5998 29.0001 88.3998 28.1001 88.1998C27.2001 87.9998 25.8001 87.7998 24.1001 87.7998C22.4001 87.7998 20.4001 87.9998 18.5001 88.9998C16.6001 89.8998 15.1001 91.6998 15.3001 94.1998C15.4001 96.5998 16.3001 98.8998 17.3001 100.9C18.2001 102.9 19.3001 104.7 20.1001 106.2C22.0001 109.1 23.1001 110.9 23.1001 110.9Z" fill="#342E31"/>
<path d="M32.7001 120.8C32.7001 120.8 32.6001 121.4 32.4001 122.6C32.3001 123.2 32.1 123.9 31.7001 124.6C31.3001 125.3 30.6 126.3 29.3 126.4C28.7 126.4 28.1 126.2 27.5 125.8C27 125.4 26.5 125 26.1 124.5C25.3 123.5 24.6 122.5 23.7001 121.4C22.0001 119.2 20.2 116.8 18.3 114.3C17.4 113 16.5001 111.8 15.6 110.5C14.7 109.3 13.9001 108.1 13.3001 106.8C12.0001 104.3 11.3 101.7 11.4 99.5998C11.5 97.3998 12.5001 95.7998 13.3001 94.9998C14.1 94.0998 14.6001 93.7998 14.6001 93.7998C14.6001 93.7998 14.5001 93.8998 14.3001 94.1998C14.1 94.3998 13.8 94.7998 13.5 95.1998C12.9 96.0998 12.1 97.6998 12.2 99.6998C12.3 101.7 13.1 104 14.5 106.3C15.2 107.5 16 108.6 16.9 109.8C17.8 111 18.7001 112.2 19.7001 113.5C21.6 116 23.3 118.5 24.9 120.7C25.7 121.8 26.4 123 27 123.9C27.3 124.4 27.7001 124.8 28.1 125.1C28.5 125.4 28.9 125.6 29.3 125.6C30.1 125.7 30.8001 125 31.2001 124.3C31.6 123.6 31.9 123 32.1 122.5C32.5 121.4 32.7001 120.8 32.7001 120.8Z" fill="#342E31"/>
<path d="M29.2002 89.6999C29.2002 89.6999 29.1002 89.6999 28.8002 89.5999C28.5002 89.4999 28.2002 89.4999 27.7002 89.3999C26.7002 89.2999 25.3002 89.1999 23.7002 89.6999C22.9002 89.9999 22.1002 90.3999 21.6002 91.1999C21.1002 91.8999 20.9002 92.8999 21.1002 93.9999C21.4002 96.0999 22.6002 98.4999 23.9002 100.7C24.7002 101.8 25.3002 103 26.1002 103.9C26.5002 104.4 26.9002 104.9 27.2002 105.3C27.6002 105.7 28.0002 106.1 28.4002 106.4C30.2002 107.6 32.4002 108.1 33.9002 109.4C34.6002 110 35.2002 110.7 35.4002 111.4C35.7002 112.1 35.7002 112.8 35.7002 113.3C35.7002 114.3 35.8002 114.8 35.8002 114.8C35.8002 114.8 35.6002 114.3 35.5002 113.3C35.4002 112.3 35.0002 110.9 33.5002 110.1C32.1002 109.1 30.0002 108.9 27.8002 107.6C27.2002 107.3 26.7002 106.8 26.2002 106.4C25.8002 105.9 25.4002 105.4 24.9002 104.9C24.0002 103.9 23.4002 102.7 22.6002 101.6C21.3002 99.0999 20.1002 96.6999 19.9002 94.0999C19.8002 92.7999 20.1002 91.4999 20.9002 90.4999C21.7002 89.5999 22.7002 89.0999 23.6002 88.8999C25.5002 88.4999 27.0002 88.8999 27.9002 89.0999C28.4002 89.1999 28.7002 89.3999 29.0002 89.4999C29.1002 89.5999 29.2002 89.6999 29.2002 89.6999Z" fill="#342E31"/>
<path d="M57 105.3C57 105.3 55.3 104.8 52.6 104.1C49.9 103.3 46.1 102.1 42.2 100.1C38.3 98.0998 35.1 95.8998 32.9 93.9998C31.8 93.0998 31 92.1998 30.6 91.5998C30.1 90.8998 30 90.4998 30 90.4998C30 90.4998 30.2 90.8998 30.7 91.4998C31.2 92.0998 32.1 92.8998 33.2 93.6998C35.5 95.2998 38.8 97.3998 42.6 99.3998C46.4 101.3 50.1 102.7 52.7 103.7C55.4 104.7 57 105.3 57 105.3Z" fill="#342E31"/>
<path d="M46.2001 103.5C46.2001 103.5 45.2 103.1 43.6 102.5C42 101.9 39.8001 101 37.4001 99.6999C35.1001 98.3999 33.2 96.8999 32 95.5999C31.4 94.9999 31.0001 94.3999 30.7001 93.9999C30.4001 93.5999 30.3 93.3999 30.3 93.3999C30.3 93.3999 30.5 93.5999 30.8 93.8999C31.2 94.1999 31.6 94.7999 32.3 95.2999C33.6 96.3999 35.5 97.6999 37.8 98.9999C40.1 100.2 42.2001 101.3 43.7001 102.1C45.2001 103 46.2001 103.5 46.2001 103.5Z" fill="#342E31"/>
<path d="M39.4001 102.7C39.4001 102.7 38.8 102.4 37.8 102C36.8 101.5 35.5 100.8 34.1 99.8997C32.7 98.8997 31.7 97.6997 31.1 96.7997C30.8 96.3997 30.6 95.8997 30.5 95.5997C30.4 95.2997 30.3 95.1997 30.3 95.1997C30.3 95.1997 30.7 95.7997 31.4 96.4997C32.1 97.2997 33.3 98.1997 34.6 99.1997C35.9 100.2 37.2 101 38 101.7C38.9 102.3 39.4001 102.7 39.4001 102.7Z" fill="#342E31"/>
<path d="M36.4001 102.6C36.4001 102.6 35.9001 102.4 35.2001 102C34.4001 101.6 33.4001 101.1 32.4001 100.3C31.4001 99.4997 30.6001 98.5997 30.1001 97.8997C29.9001 97.5997 29.8001 97.1997 29.7001 96.9997C29.6001 96.7997 29.6001 96.6997 29.6001 96.6997C29.6001 96.6997 29.7001 96.7997 29.8001 96.9997C30.0001 97.1997 30.1001 97.4997 30.4001 97.6997C31.0001 98.2997 31.8001 98.9997 32.8001 99.6997C33.8001 100.4 34.7001 101.1 35.3001 101.7C36.1001 102.3 36.4001 102.6 36.4001 102.6Z" fill="#342E31"/>
<path d="M47.5 104.3C47.5 104.3 48.1 104.5 49 104.8C49.9 105.2 51.1 105.5 52.5 106C55.2 106.9 57.4 107.9 57.4 107.9C57.4 107.9 55 107.6 52.3 106.7C50.9 106.2 49.7 105.7 48.9 105.1C48 104.7 47.5 104.3 47.5 104.3Z" fill="#342E31"/>
<path d="M43 104.7C43 104.7 42.3 104.9 41.5 104.7C40.7 104.4 40.3 103.7 40.3 103.7C40.3 103.7 41.1001 103.6 41.7001 103.9C42.5001 104.2 43 104.7 43 104.7Z" fill="#342E31"/>
<path d="M47.1001 106.6C47.1001 106.6 46.5001 106.9 45.8001 106.7C45.1001 106.4 44.9001 105.8 44.9001 105.8C44.9001 105.8 45.6001 105.7 46.1001 105.9C46.7001 106.1 47.1001 106.6 47.1001 106.6Z" fill="#342E31"/>
<path d="M51.6 108.2C51.6 108.2 51 108.4 50.3 108.2C49.6 107.9 49.3 107.3 49.3 107.3C49.3 107.3 50 107.2 50.6 107.4C51.2 107.7 51.6 108.2 51.6 108.2Z" fill="#342E31"/>
<path d="M22.2 90.9997C22.2 90.9997 22.5 90.5997 23.1 90.0997C23.8 89.6997 24.8 89.1997 26 89.0997C27.2 88.9997 28.3 89.1997 29 89.4997C29.4 89.5997 29.6999 89.7997 29.7999 89.8997C29.9999 89.9997 30.1 90.0997 30.1 90.0997C30.1 90.0997 28.2 89.7997 26 89.9997C24.9 90.0997 23.9 90.3997 23.2 90.5997C22.7 90.7997 22.2 90.9997 22.2 90.9997Z" fill="#342E31"/>
<path d="M22.2 91.7998C22.2 91.7998 22.5 91.3998 23.1 90.8998C23.8 90.4998 24.8 89.9998 26 89.8998C27.2 89.7998 28.3 89.9998 29 90.2998C29.4 90.3998 29.6999 90.5998 29.7999 90.6998C29.9999 90.7998 30.1 90.8998 30.1 90.8998C30.1 90.8998 28.2 90.5998 26 90.7998C24.9 90.8998 23.9 91.1998 23.2 91.3998C22.7 91.5998 22.2 91.7998 22.2 91.7998Z" fill="#342E31"/>
<path d="M22.2 92.4997C22.2 92.4997 22.5 92.0997 23.1 91.5997C23.8 91.1997 24.8 90.6997 26 90.5997C27.2 90.4997 28.3 90.6997 29 90.9997C29.4 91.0997 29.6999 91.2997 29.7999 91.3997C29.9999 91.4997 30.1 91.5997 30.1 91.5997C30.1 91.5997 28.2 91.2997 26 91.4997C24.9 91.5997 23.9 91.8997 23.2 92.0997C22.7 92.3997 22.2 92.4997 22.2 92.4997Z" fill="#342E31"/>
<path d="M22.2 93.2998C22.2 93.2998 22.5 92.8998 23.1 92.3998C23.8 91.9998 24.8 91.4998 26 91.3998C27.2 91.2998 28.3 91.4998 29 91.7998C29.4 91.8998 29.6999 92.0998 29.7999 92.1998C29.9999 92.2998 30.1 92.3998 30.1 92.3998C30.1 92.3998 28.2 92.0998 26 92.2998C24.9 92.3998 23.9 92.6998 23.2 92.8998C22.7 93.0998 22.2 93.2998 22.2 93.2998Z" fill="#342E31"/>
<path d="M22.2 94.0998C22.2 94.0998 22.5 93.6998 23.1 93.1998C23.8 92.7998 24.8 92.2998 26 92.1998C27.2 92.0998 28.3 92.2998 29 92.5998C29.4 92.6998 29.6999 92.8998 29.7999 92.9998C29.9999 93.0998 30.1 93.1998 30.1 93.1998C30.1 93.1998 28.2 92.8998 26 93.0998C24.9 93.1998 23.9 93.4998 23.2 93.6998C22.7 93.8998 22.2 94.0998 22.2 94.0998Z" fill="#342E31"/>
<path d="M22.2 94.7998C22.2 94.7998 22.5 94.3998 23.1 93.8998C23.8 93.4998 24.8 92.9998 26 92.8998C27.2 92.7998 28.3 92.9998 29 93.2998C29.4 93.3998 29.6999 93.5998 29.7999 93.6998C29.9999 93.7998 30.1 93.8998 30.1 93.8998C30.1 93.8998 28.2 93.5998 26 93.7998C24.9 93.8998 23.9 94.1998 23.2 94.3998C22.7 94.5998 22.2 94.7998 22.2 94.7998Z" fill="#342E31"/>
<path d="M22.2 95.5998C22.2 95.5998 22.5 95.1998 23.1 94.6998C23.8 94.2998 24.8 93.7998 26 93.6998C27.2 93.5998 28.3 93.7998 29 94.0998C29.4 94.1998 29.6999 94.3998 29.7999 94.4998C29.9999 94.5998 30.1 94.6998 30.1 94.6998C30.1 94.6998 28.2 94.3998 26 94.5998C24.9 94.6998 23.9 94.9998 23.2 95.1998C22.7 95.3998 22.2 95.5998 22.2 95.5998Z" fill="#342E31"/>
<path d="M22.2 96.2998C22.2 96.2998 22.5 95.8998 23.1 95.3998C23.8 94.9998 24.8 94.4998 26 94.3998C27.2 94.2998 28.3 94.4998 29 94.7998C29.4 94.8998 29.6999 95.0998 29.7999 95.1998C29.9999 95.2998 30.1 95.3998 30.1 95.3998C30.1 95.3998 28.2 95.0998 26 95.2998C24.9 95.3998 23.9 95.6998 23.2 95.8998C22.7 96.0998 22.2 96.2998 22.2 96.2998Z" fill="#342E31"/>
<path d="M22.2 97.0998C22.2 97.0998 22.5 96.6998 23.1 96.1998C23.8 95.7998 24.8 95.2998 26 95.1998C27.2 95.0998 28.3 95.2998 29 95.5998C29.4 95.6998 29.6999 95.8998 29.7999 95.9998C29.9999 96.0998 30.1 96.1998 30.1 96.1998C30.1 96.1998 28.2 95.8998 26 96.0998C24.9 96.1998 23.9 96.4998 23.2 96.6998C22.7 96.8998 22.2 97.0998 22.2 97.0998Z" fill="#342E31"/>
<path d="M22.2 97.8997C22.2 97.8997 22.5 97.5997 23.1 97.0997C23.7 96.6997 24.5999 96.1997 25.7999 96.0997C26.8999 95.9997 28 96.1997 28.6 96.4997C29.3 96.7997 29.7 96.9997 29.7 96.9997C29.7 96.9997 27.9 96.6997 25.9 96.8997C24.9 96.9997 23.9999 97.2997 23.2999 97.4997C22.5999 97.6997 22.2 97.8997 22.2 97.8997Z" fill="#342E31"/>
<path d="M22.2 98.5998C22.2 98.5998 22.5 98.2998 23 97.7998C23.5 97.3998 24.4 96.8998 25.5 96.7998C26.6 96.6998 27.5 96.8998 28.2 97.0998C28.8 97.2998 29.2 97.4998 29.2 97.4998C29.2 97.4998 28.8 97.4998 28.1 97.4998C27.4 97.4998 26.6 97.4998 25.6 97.5998C24.6 97.6998 23.8 97.9998 23.2 98.1998C22.6 98.4998 22.2 98.5998 22.2 98.5998Z" fill="#342E31"/>
<path d="M22.2 99.3998C22.2 99.4998 23.1 97.8998 25.2 97.5998C26.2 97.4998 27.1 97.6998 27.7 97.8998C28.3 98.0998 28.7 98.2998 28.7 98.2998C28.7 98.2998 28.3 98.2998 27.7 98.2998C27.1 98.2998 26.3 98.2998 25.4 98.4998C24.4999 98.5998 23.8 98.8998 23.2 99.0998C22.6 99.1998 22.2 99.3998 22.2 99.3998Z" fill="#342E31"/>
<path d="M22.2 100.1C22.2 100.1 22.4 99.7999 22.9 99.3999C23.4 98.9999 24.1 98.5999 25.1 98.3999C26 98.1999 26.9 98.2999 27.5 98.3999C28.1 98.4999 28.4 98.6999 28.4 98.6999C28.4 98.6999 26.9 98.8999 25.2 99.1999C24.4 99.3999 23.6 99.5999 23.1 99.7999C22.6 99.9999 22.2 100.1 22.2 100.1Z" fill="#342E31"/>
<path d="M25.7 89.2998L26.2 98.6998H28.4C28.4 98.6998 31.1999 92.2998 30.2999 89.7998L25.7 89.2998Z" fill="#342E31"/>
<path d="M20.2999 98.1998C20.2999 98.1998 20 97.6998 19.6 96.8998C19.2 96.0998 18.7 94.7998 18.7 93.3998C18.7 91.8998 19.3 90.5998 19.9 89.8998C20.1999 89.5998 20.5999 89.3998 20.7999 89.1998C20.9999 89.0998 21.1 88.9998 21.1 88.9998C21.1 88.9998 20.7 89.3998 20.2 90.1998C19.8 90.9998 19.4 92.0998 19.5 93.3998C19.6 94.6998 19.8 95.8998 20 96.7998C20.2 97.5998 20.2999 98.1998 20.2999 98.1998Z" fill="#342E31"/>
<path d="M19.1 97.4999C19.1 97.4999 18.8 97.1999 18.4 96.5999C18 95.9999 17.6 95.1999 17.5 94.0999C17.4 92.9999 17.6 92.0999 17.8 91.3999C18.1 90.7999 18.3 90.3999 18.3 90.3999C18.3 90.3999 18.2 90.7999 18.2 91.4999C18.2 92.0999 18.2 92.9999 18.3 93.9999C18.4 94.8999 18.6 95.7999 18.8 96.3999C19 97.0999 19.1 97.4999 19.1 97.4999Z" fill="#342E31"/>
<path d="M17.3001 96.1998C17.3001 96.1998 16.5001 95.4998 16.4001 94.2998C16.3001 93.6998 16.4001 93.0998 16.6001 92.7998C16.8001 92.3998 17.0001 92.2998 17.0001 92.2998C17.0001 92.2998 17.0001 93.1998 17.2001 94.1998C17.3001 95.1998 17.3001 96.1998 17.3001 96.1998Z" fill="#342E31"/>
<path d="M20.1001 101.8C20.1001 101.8 20.3001 102.1 20.6001 102.5C20.9001 102.9 21.3001 103.7 21.9001 104.4C23.1001 105.9 25.2001 107.7 27.8001 109C29.1001 109.6 30.5001 110 31.7001 110.8C32.9001 111.6 33.4001 113 33.3001 114C33.2001 115 33.1001 115.8 33.0001 116.3C33.0001 116.8 33.0001 117.2 33.0001 117.2C33.0001 117.2 33.0001 116.9 32.9001 116.3C32.9001 115.8 32.9001 115 32.9001 114C32.9001 113 32.4001 112 31.3001 111.4C30.3001 110.7 28.9001 110.4 27.5001 109.7C24.7001 108.3 22.7001 106.3 21.6001 104.6C21.0001 103.8 20.8001 103 20.5001 102.5C20.3001 102 20.1001 101.8 20.1001 101.8Z" fill="#342E31"/>
<path d="M19.8 108.9C19.8 108.9 17.9 107.1 16 104.3C15.2 102.9 14.5 101.5 14.2 100.5C13.9 99.4998 13.7 98.7998 13.7 98.7998C13.7 98.7998 14.1 99.3998 14.6 100.3C15.1 101.3 15.9 102.4 16.7 103.8C18.5 106.6 19.8 108.9 19.8 108.9Z" fill="#342E31"/>
<path d="M17.1001 107.5C17.1001 107.5 16.0001 106.6 15.1001 105.3C14.3001 103.8 14.1001 102.4 14.1001 102.4C14.1001 102.4 15.1001 103.4 15.8001 104.8C16.7001 106.2 17.1001 107.5 17.1001 107.5Z" fill="#342E31"/>
<path d="M25.5 104.8C25.5 104.8 25.4 104.4 25.3 103.6C25.3 102.8 25.4 101.7 25.9 100.7C26.4 99.5998 27.1 98.8998 27.5 98.2998C27.9 97.6998 28.1 97.2998 28.1 97.2998C28.1 97.2998 28.1 97.7998 27.9 98.4998C27.6 99.1998 27.1 100.1 26.6 101.1C26.1 102.1 25.8 103 25.6 103.7C25.6 104.3 25.5 104.8 25.5 104.8Z" fill="#342E31"/>
<path d="M25.3 103.5C25.3 103.5 25.1 103.2 24.9 102.6C24.8 102 25 101.1 25.4 100.3C25.9 99.4998 26.4 98.9998 26.8 98.5998C27.2 98.1998 27.5 97.9998 27.5 97.9998C27.5 97.9998 27.4 98.2998 27.2 98.8998C27 99.3998 26.6 100.1 26.2 100.8C25.8 101.5 25.5 102.1 25.4 102.6C25.2 103.1 25.3 103.5 25.3 103.5Z" fill="#342E31"/>
<path d="M25.6 104C25.6 104 25.4 103.9 25.2 103.6C25 103.3 24.9 102.7 25.1 102.2C25.3 101.7 25.5 101.4 25.7 101.1C25.9 100.8 26 100.6 26 100.6C26 100.6 26.1 100.8 26.1 101.2C26.1 101.6 26 102.1 25.9 102.5C25.7 102.9 25.7 103.3 25.6 103.6C25.6 103.7 25.6 104 25.6 104Z" fill="#342E31"/>
<path d="M41.6 110.3C41.6 110.3 40.7001 109.8 39.2001 109.1C37.7001 108.4 35.8 107 33.8 105.6C31.9 103.9 30.2 102.3 29.3 100.9C28.4 99.4997 27.8 98.6997 27.8 98.6997C27.8 98.6997 28.5 99.3997 29.6 100.6C30.6 101.9 32.4 103.3 34.3 105C36.3 106.5 38.1001 107.9 39.4001 108.8C40.7001 109.7 41.6 110.3 41.6 110.3Z" fill="#342E31"/>
<path d="M33.6 106.3C33.6 106.3 31.7 105.4 29.9 103.7C29 102.8 28.3 101.9 27.9 101.1C27.5 100.4 27.3 99.8999 27.3 99.8999C27.3 99.8999 27.7 100.3 28.3 100.8C28.8 101.4 29.7 102.1 30.6 103C32.2 104.7 33.6 106.3 33.6 106.3Z" fill="#342E31"/>
<path d="M30.4001 105.6C30.4001 105.6 30.1001 105.4 29.6001 105.1C29.1001 104.8 28.5001 104.3 27.9001 103.6C27.4001 102.9 27.0001 102.2 26.8001 101.6C26.6001 101 26.6001 100.7 26.6001 100.7C26.6001 100.7 26.9001 101 27.2001 101.4C27.5001 101.9 28.1001 102.4 28.5001 103.1C29.6001 104.4 30.4001 105.6 30.4001 105.6Z" fill="#342E31"/>
<path d="M28.3001 105.3C28.3001 105.3 27.4001 105 26.7001 104.2C25.9001 103.3 26.1001 102.3 26.1001 102.3C26.1001 102.3 26.7001 103 27.3001 103.6C28.0001 104.4 28.3001 105.3 28.3001 105.3Z" fill="#342E31"/>
<path d="M42.8 140.1C42.8 140.1 43.6 140.5 44.8 141.3C45.9 142.1 47.8 142.8 49.6 143.8C51.6 144.6 53.3 145.5 54.6 146C55.9 146.6 56.7001 146.9 56.7001 146.9C56.7001 146.9 55.8 146.7 54.5 146.3C53.1 146 51.3 145.3 49.3 144.5C47.4 143.5 45.6 142.6 44.6 141.6C43.5 140.6 42.8 140.1 42.8 140.1Z" fill="#342E31"/>
<path d="M39.5 137.1C39.5 137.1 40.1 137.4 40.6 137.8C41 138.2 41.4 138.7 41.4 138.8C41.4 138.8 40.7 139 40 138.4C39.7 138.1 39.6 137.8 39.5 137.5C39.5 137.2 39.5 137.1 39.5 137.1Z" fill="#342E31"/>
<path d="M36.2 133.8C36.2 133.8 36.9 133.9 37.4 134.5C37.9 135 38.0999 135.7 38.0999 135.7C38.0999 135.7 37.4 135.6 36.9 135C36.4 134.5 36.2 133.8 36.2 133.8Z" fill="#342E31"/>
<path d="M34.1001 130.8C34.1001 130.8 34.7001 130.9 35.1001 131.3C35.5001 131.8 35.4001 132.4 35.4001 132.4C35.4001 132.4 34.8001 132.2 34.5001 131.8C34.1001 131.4 34.1001 130.8 34.1001 130.8Z" fill="#342E31"/>
<path d="M45.8 139.2C45.8 139.2 48.4 140.1 51.3 141.5C54.3 142.9 56.6 144.4 56.6 144.4C56.6 144.4 54 143.6 51 142.3C48 140.8 45.8 139.2 45.8 139.2Z" fill="#342E31"/>
<path d="M42 136.6C42 136.6 42.8 136.6 43.4 137C44.1 137.3 44.5 137.9 44.5 137.9C44.5 137.9 43.8 138 43 137.7C42.3 137.3 42 136.6 42 136.6Z" fill="#342E31"/>
<path d="M38.6001 133.3C38.6001 133.3 39.3001 133.4 39.7001 133.9C40.2001 134.3 40.3001 134.9 40.3001 134.9C40.3001 134.9 39.6001 134.9 39.1001 134.5C38.7001 134 38.6001 133.3 38.6001 133.3Z" fill="#342E31"/>
<path d="M49.8001 156.7C49.8001 156.7 48.9001 156.8 48.1001 156.3C47.4001 156 46.9001 155.1 46.9001 155.1C46.9001 155.1 47.8001 154.8 48.7001 155.3C49.5001 155.8 49.8001 156.7 49.8001 156.7Z" fill="#342E31"/>
<path d="M52.5 157.8C52.5 157.8 51.9 158.3 51.5 158.1C51 157.9 51 157.2 51 157.2C51 157.2 51.6 156.8 52 156.9C52.4 157.1 52.5 157.8 52.5 157.8Z" fill="#342E31"/>
<path d="M111.7 101.3L109.6 100.7C109.7 100.4 111.4 93.9998 118.4 90.5998C128.9 85.4998 136.4 77.7998 142.1 66.4998C143.2 64.2998 144.2 62.0998 145.3 59.9998C151.1 47.8998 156 37.4998 162.9 40.1998C164.6 40.8998 165.8 42.0998 166.1 43.7998C167.6 50.4998 156.3 62.8998 154 65.2998C150.8 68.6998 137.9 85.7998 134.1 93.9998L133.9 94.2998C133 96.1998 132.1 97.9998 131 98.7998L129.7 96.9998C130.4 96.4998 131.4 94.3998 131.8 93.3998L132 92.9998C135.9 84.5998 149 67.1998 152.3 63.6998C158.7 56.8998 164.8 48.1998 163.8 44.0998C163.6 43.0998 163 42.4998 161.9 42.0998C156.9 40.1998 152.1 50.1998 147 60.7998C146 62.9998 144.9 65.1998 143.8 67.3998C137.9 79.1998 130.1 87.1998 119.1 92.4998C113.3 95.4998 111.7 101.2 111.7 101.3Z" fill="#342E31"/>
<path d="M130.5 96.3997C130.5 96.4997 129.8 95.4997 128.3 94.6997C127.5 94.2997 126.5 93.9997 125.4 93.9997C124.3 93.9997 123.1 94.2997 121.8 94.6997C119.4 95.6997 117.4 97.0997 116 98.2997C114.7 99.4997 114 100.3 114 100.3C114 100.3 114.5 99.2997 115.7 97.9997C116.9 96.6997 118.8 94.9997 121.5 93.8997C122.8 93.3997 124.2 93.1997 125.4 93.1997C126.6 93.2997 127.7 93.6997 128.5 94.1997C130 95.2997 130.4 96.3997 130.5 96.3997Z" fill="#342E31"/>
<path d="M143.8 69.9998C143.8 69.9998 143.2 71.2998 142 73.3998C140.8 75.4998 139.1 78.2998 136.7 80.9998C134.4 83.7998 131.7 85.8998 129.9 87.2998C127.9 88.6998 126.7 89.3998 126.7 89.3998C126.7 89.3998 127.8 88.4998 129.7 86.9998C131.4 85.3998 133.9 83.1998 136.2 80.4998C138.5 77.7998 140.5 75.0998 141.8 73.1998C143 71.1998 143.8 69.9998 143.8 69.9998Z" fill="#342E31"/>
<path d="M145.9 66.1997C145.9 66.1997 145.9 66.8997 145.5 67.4997C145.1 68.0997 144.4 68.3997 144.4 68.3997C144.4 68.3997 144.4 67.6997 144.8 67.0997C145.2 66.4997 145.9 66.1997 145.9 66.1997Z" fill="#342E31"/>
<path d="M147.4 63.2998C147.4 63.2998 147.7 63.7998 147.5 64.2998C147.1 64.6998 146.6 64.5998 146.6 64.5998C146.6 64.5998 146.6 63.9998 146.8 63.7998C146.9 63.4998 147.4 63.2998 147.4 63.2998Z" fill="#342E31"/>
<path d="M148.8 60.8998C148.8 60.8998 149 61.3998 148.8 61.5998C148.7 61.8998 148.2 61.9998 148.2 61.9998C148.2 61.9998 147.9 61.5998 148.1 61.1998C148.3 60.7998 148.8 60.8998 148.8 60.8998Z" fill="#342E31"/>
<path d="M152.7 53.5998C152.7 53.5998 153.1 52.7998 153.6 51.4998C154.1 50.1998 154.9 48.2998 156.1 46.4998C157.3 44.6998 159 43.0998 160.6 43.1998C162.1 43.2998 162.8 44.0998 162.8 43.9998C162.8 44.0998 162 43.3998 160.6 43.5998C159.2 43.7998 157.9 45.1998 156.7 46.9998C155.5 48.7998 154.6 50.4998 153.9 51.7998C153.3 52.8998 152.7 53.5998 152.7 53.5998Z" fill="#342E31"/>
<path d="M132.5 87.3999C132.5 87.3999 134.5 84.3999 137.2 81.0999C138.5 79.3999 139.8 77.8999 140.6 76.6999C141.5 75.5999 142.1 74.8999 142.1 74.8999C142.1 74.8999 141.7 75.6999 141 76.8999C140.3 78.1999 139.2 79.7999 137.9 81.4999C135.1 84.9999 132.5 87.3999 132.5 87.3999Z" fill="#342E31"/>
<path d="M127.5 92.7999C127.5 92.7999 127 92.7999 126.3 92.7999C125.5 92.7999 124.5 92.8999 123.5 93.0999C122.4 93.2999 121.4 93.5999 120.7 93.6999C120 93.8999 119.6 94.1999 119.6 94.1999C119.6 94.1999 119.8 93.6999 120.5 93.2999C121.2 92.8999 122.2 92.4999 123.3 92.2999C124.5 92.0999 125.6 92.1999 126.3 92.3999C127 92.5999 127.5 92.7999 127.5 92.7999Z" fill="#342E31"/>
<path d="M119.9 89.9999C119.9 89.9999 115.7 89.5999 109 88.4999C105.6 87.8999 101.7 87.9999 97.2001 88.5999C96.6001 88.6999 96.0001 88.6999 95.5001 88.7999C94.9001 88.7999 94.3001 88.7999 93.7001 88.7999C93.1001 88.7999 92.4001 88.5999 91.8001 88.3999C91.2001 88.1999 90.6001 87.9999 90.1001 87.7999C89.6001 87.6999 89.0001 87.4999 88.4001 87.3999C87.8001 87.3999 87.2001 87.2999 86.6001 87.2999C86.0001 87.1999 85.4001 87.1999 84.8001 87.2999C84.2001 87.2999 83.6001 87.3999 83.0001 87.4999C80.6001 87.8999 78.3001 88.9999 75.7001 89.5999C73.1001 90.0999 70.7001 89.8999 68.4001 89.5999C66.1001 89.2999 64.1001 88.9999 62.1001 88.9999C60.1001 88.9999 58.3001 89.2999 56.6001 89.5999C53.3001 90.1999 50.7001 91.1999 49.1001 92.1999C48.3001 92.6999 47.8001 93.1999 47.5001 93.5999C47.2001 93.9999 47.1001 94.2999 47.1001 94.2999C47.1001 94.3999 47.4001 93.1999 49.0001 91.9999C50.5001 90.7999 53.1001 89.5999 56.5001 88.7999C58.2001 88.3999 60.0001 87.9999 62.1001 87.8999C64.2001 87.7999 66.4001 87.9999 68.6001 88.1999C70.8001 88.3999 73.1001 88.4999 75.4001 87.9999C77.7001 87.4999 80.0001 86.2999 82.7001 85.7999C83.4001 85.6999 84.0001 85.5999 84.7001 85.5999C85.4001 85.4999 86.0001 85.4999 86.7001 85.5999C87.4001 85.6999 88.0001 85.6999 88.7001 85.7999C89.3001 85.9999 90.0001 86.1999 90.6001 86.2999C91.8001 86.7999 92.8001 87.1999 93.8001 87.2999C94.4001 87.2999 94.9001 87.2999 95.5001 87.2999C96.1001 87.2999 96.6001 87.1999 97.2001 87.1999C101.6 86.6999 105.9 86.7999 109.2 87.5999C115.8 89.0999 119.9 89.9999 119.9 89.9999Z" fill="#342E31"/>
<path d="M94.3001 93.9999C94.3001 93.9999 93.3001 94.0999 91.4001 94.3999C90.5001 94.4999 89.4 94.6999 88 94.7999C86.7001 94.8999 85.2001 95.0999 83.4001 94.5999C83.0001 94.4999 82.4001 93.9999 82.3001 93.3999C82.3001 93.0999 82.3001 92.7999 82.4001 92.5999C82.5001 92.3999 82.6001 92.0999 82.8001 91.8999C83.5001 90.9999 84.5 90.5999 85.5 90.3999C87.5 89.8999 89.7001 89.8999 91.9001 90.1999C94.1001 90.4999 96.4001 90.8999 98.8001 92.1999C99.4001 92.5999 99.9001 92.9999 100.3 93.4999C100.7 93.9999 101.2 94.6999 101.2 95.6999C101.1 96.7999 100.3 97.3999 99.6 97.6999C98.9 97.9999 98.3 98.1999 97.6 98.3999C95 98.8999 92.5 98.8999 90 98.7999C88.8 98.6999 87.6 98.5999 86.5 98.4999C85.4 98.3999 84.3 98.3999 83.2 98.3999C78.9 98.3999 74.9 98.5999 71.5 98.0999C68.2 97.6999 65.5001 96.3999 64.4001 94.6999C64.2001 94.2999 64 93.8999 63.8 93.5999C63.7 93.2999 63.6 92.9999 63.5 92.6999C63.4 92.1999 63.3 91.9999 63.3 91.9999C63.3 91.9999 63.4 92.1999 63.6 92.6999C63.7 92.8999 63.8001 93.1999 63.9001 93.4999C64.1001 93.7999 64.3 94.0999 64.6 94.4999C65.7 95.9999 68.3 96.9999 71.5 97.1999C74.8 97.3999 78.7 97.0999 83.1 96.8999C84.2 96.8999 85.3 96.8999 86.5 96.8999C87.7001 96.9999 88.8 97.0999 90 97.1999C92.3 97.2999 94.8 97.1999 97.1 96.6999C98.2 96.4999 99.5 95.8999 99.4001 95.4999C99.4001 94.9999 98.5 93.8999 97.7 93.3999C95.8 92.2999 93.5 91.7999 91.5 91.4999C89.4 91.1999 87.3 91.0999 85.5 91.3999C84.6 91.5999 83.8001 91.8999 83.3001 92.3999C83.1001 92.4999 83.1 92.6999 83 92.7999C82.9 92.9999 82.9001 93.0999 82.9001 93.1999C82.9001 93.3999 83.1001 93.5999 83.4001 93.7999C84.8001 94.2999 86.4 94.2999 87.6 94.2999C88.9 94.2999 90 94.1999 91 94.0999C93.3 93.9999 94.3001 93.9999 94.3001 93.9999Z" fill="#342E31"/>
<path d="M99.5 99.4998C99.5 99.4998 100 99.1998 100.7 98.5998C101.4 97.9998 102.3 96.9998 102.9 95.7998C103.2 95.1998 103.4 94.5998 103.4 94.0998C103.4 93.5998 103.1 93.1998 102.8 92.7998C102.1 92.1998 101.5 92.0998 101.5 91.9998C101.5 91.9998 102.1 91.9998 103 92.3998C103.4 92.6998 103.9 93.1998 104 93.8998C104.1 94.5998 103.9 95.3998 103.5 96.0998C102.8 97.4998 101.7 98.3998 100.8 98.7998C100.1 99.3998 99.5 99.4998 99.5 99.4998Z" fill="#342E31"/>
<path d="M104 97.6999C104 97.6999 104.2 97.4999 104.6 97.1999C104.9 96.7999 105.4 96.3999 105.7 95.7999C106 95.1999 106.2 94.5999 106.2 94.1999C106.2 93.6999 106.2 93.3999 106.2 93.3999C106.2 93.3999 106.4 93.5999 106.6 94.0999C106.8 94.5999 106.8 95.3999 106.4 96.1999C105.5 97.6999 103.9 97.5999 104 97.6999Z" fill="#342E31"/>
<path d="M145.8 28.3C145.8 28.3 130.3 4.19999 78.5001 24C26.8001 43.7 25.5001 66.8 31.9001 75.2C38.2001 83.6 62.7001 91.6 102.2 75.1C141.8 58.7 146.9 35.1 145.8 28.3Z" fill="#F6F6F6"/>
<path d="M74.3001 85.8999C51.0001 89.9999 33.0001 85.2999 28.5001 73.9999C22.3001 58.1999 43.3001 35.5999 76.3001 22.4999C84.4001 19.2999 92.6001 16.8999 100.6 15.4999C124 11.3999 142 15.9999 146.5 27.3999C152.7 43.1999 131.7 65.7999 98.7001 78.8999C90.5001 82.0999 82.3001 84.4999 74.3001 85.8999ZM101.4 19.1999C93.6001 20.5999 85.7001 22.8999 77.8001 25.9999C47.7001 37.7999 26.7001 59.1999 32.0001 72.5999C35.8001 82.1999 52.2001 85.9999 73.7001 82.1999C81.5001 80.7999 89.4001 78.4999 97.3001 75.3999C127.4 63.4999 148.3 42.0999 143 28.6999C139.2 19.0999 122.9 15.3999 101.4 19.1999Z" fill="#342E31"/>
<path d="M34.5 71.5998C34.5 71.5998 34.7 71.9998 35.1 72.7998C35.6 73.4998 36.3 74.5998 37.6 75.6998C40.1 77.8998 44.7 79.7998 50.6 80.4998C62.5 81.8998 79.1 78.9998 96.1 72.3998C113 65.6998 127.1 56.3998 134.8 47.2998C138.7 42.7998 140.7 38.1998 141 34.8998C141.2 33.1998 141 31.8998 140.8 31.0998C140.6 30.2998 140.4 29.7998 140.4 29.7998C140.4 29.7998 140.6 30.1998 140.8 31.0998C141 31.9998 141.3 33.2998 141.2 34.9998C141 38.3998 139.1 43.1998 135.3 47.8998C127.8 57.4998 113.7 67.2998 96.5 73.9998C79.4 80.7998 62.3 83.2998 50.3 81.3998C44.3 80.4998 39.6 78.3998 37.2 75.9998C36 74.7998 35.3 73.6998 34.8 72.8998C34.7 72.0998 34.5 71.5998 34.5 71.5998Z" fill="#342E31"/>
<path d="M46 56.5999C46 56.5999 46.2 56.9 46.5 57.4C46.8 58 47.4 58.6999 48.2 59.5999C50 61.1999 53.3 62.7 57.5 63.2C66 64.4 78.1 62.3999 90.3 57.5999C102.5 52.6999 112.7 46 118.1 39.2999C120.8 35.9999 122.3 32.6999 122.4 30.2999C122.4 29.0999 122.4 28.2 122.2 27.6C122.1 27 122 26.7 122 26.7C122 26.7 122.1 27 122.3 27.6C122.6 28.2 122.6 29.1 122.7 30.4C122.7 32.9 121.4 36.4 118.8 39.9C113.6 47 103.4 54.3 91 59.2C78.4 64 66 65.7 57.4 64C53.1 63.2 49.7 61.5999 48 59.7999C47.2 58.8999 46.6 58.1 46.4 57.5C46.1 56.9 46 56.5999 46 56.5999Z" fill="#342E31"/>
<path d="M45 60.1C45 60.1 45.2 60.4 45.5 61C45.8 61.6 46.4 62.4 47.3 63.3C49.2 65 52.6 66.5 57.1 67.1C66.1 68.4 78.8 66.2 91.7 61.2C104.5 56.1 115.3 49 121 41.9C123.9 38.4 125.4 34.9 125.6 32.4C125.6 31.1 125.6 30.1 125.4 29.5C125.2 28.8 125.2 28.5 125.2 28.5C125.2 28.5 125.3 28.8 125.5 29.5C125.8 30.1 125.8 31.1 125.9 32.4C125.9 35 124.5 38.7 121.7 42.4C116.2 49.9 105.5 57.5 92.4 62.7C79.3 67.8 66.3 69.6 57.1 67.9C52.5 67.1 49 65.3 47.2 63.5C46.4 62.5 45.7 61.7 45.5 61.1C45.1 60.4 45 60.1 45 60.1Z" fill="#342E31"/>
<path d="M41.4001 63.5999C41.4001 63.5999 41.6001 63.8999 42.0001 64.5999C42.3001 65.2999 43.0001 66.0999 44.0001 67.0999C46.1001 68.9999 49.9001 70.6999 54.9001 71.3999C64.9001 72.7999 79.0001 70.4999 93.2001 64.8999C107.4 59.1999 119.3 51.2999 125.6 43.4999C128.8 39.5999 130.4 35.7999 130.6 32.8999C130.6 31.4999 130.6 30.3999 130.3 29.6999C130.1 28.9999 130 28.5999 130 28.5999C130 28.5999 130.1 28.9999 130.3 29.6999C130.6 30.3999 130.7 31.4999 130.8 32.8999C130.8 35.7999 129.2 39.8999 126.2 43.8999C120.1 52.1999 108.2 60.5999 93.7001 66.3999C79.2001 72.0999 64.8001 74.0999 54.6001 72.1999C49.6001 71.2999 45.7001 69.3999 43.7001 67.2999C42.8001 66.1999 42.1001 65.2999 41.8001 64.5999C41.5001 63.9999 41.4001 63.5999 41.4001 63.5999Z" fill="#342E31"/>
<path d="M79.6002 47.3C74.0002 48.3 69.6002 47.2 68.4002 44.3C67.7002 42.5 68.4002 40.2 70.5002 37.9L71.3002 38.6C69.5002 40.6 68.9002 42.4 69.4002 43.8C70.7002 47 77.9002 47.3 85.1002 44.4C92.3002 41.5 97.4002 36.4 96.1002 33.2C95.5002 31.7 93.7002 30.8 90.9002 30.6L91.0002 29.5C94.2002 29.7 96.4002 30.9 97.2002 32.8C98.7002 36.7 93.6002 42.2 85.5002 45.4C83.5002 46.4 81.4002 47 79.6002 47.3Z" fill="#342E31"/>
<path d="M78.1 38.9999C73.1 39.8999 69.2 38.5999 68.1 35.7999C66.6 32.0999 70.7 27.1999 77.2 24.5999C78.6 23.9999 80.1 23.5999 81.5 23.3999C86.5 22.4999 90.4 23.7999 91.5 26.5999C92.2 28.4999 91.6 30.6999 89.7 32.8999C88 34.8999 85.4 36.5999 82.3 37.7999C81 38.2999 79.6 38.7999 78.1 38.9999ZM81.9 25.5999C80.6 25.7999 79.3 26.1999 78 26.6999C72.3 28.9999 69.3 32.8999 70.1 35.0999C70.8 36.7999 73.9 37.5999 77.7 36.8999C79 36.6999 80.3 36.2999 81.6 35.7999C84.3 34.6999 86.6 33.1999 88.1 31.4999C89.4 29.9999 89.9 28.4999 89.5 27.3999C88.8 25.5999 85.7 24.8999 81.9 25.5999Z" fill="#342E31"/>
<path d="M80.9 25.0999C80.9 25.0999 79.6 25.8999 77.3 26.8999C76.2 27.4999 74.9 28.0999 73.7 28.9999C73.4 29.2999 73.2 29.4999 72.9 29.7999C72.7 30.0999 72.5 30.3999 72.3 30.6999C71.9 31.3999 71.7 32.1999 72 32.3999C72.2 32.7999 73.1 33.0999 73.8 33.0999C74.6 33.1999 75.4 33.1999 76.2 33.0999C77.8 32.9999 79.2 32.5999 80.3 32.2999C82.7 31.6999 84.1 30.9999 84.1 30.9999C84.1 30.9999 82.9 31.9999 80.6 32.9999C79.5 33.4999 78.1 34.0999 76.4 34.3999C75.6 34.5999 74.7 34.6999 73.7 34.5999C73.2 34.5999 72.7 34.4999 72.2 34.2999C71.7 34.0999 71.1 33.7999 70.7 33.1999C70.2 32.5999 70.3 31.7999 70.4 31.1999C70.5 30.5999 70.8 30.1999 71 29.6999C71.3 29.2999 71.6 28.8999 71.9 28.4999C72.3 28.1999 72.6 27.8999 73 27.5999C74.5 26.5999 75.9 26.1999 77.1 25.7999C79.4 25.4999 80.9 25.0999 80.9 25.0999Z" fill="#342E31"/>
<path d="M74.1001 43.7C74.1001 43.7 74.2001 43.2999 74.4001 42.7999C74.5001 42.1999 74.6001 41.5 74.5001 40.7C74.4001 39.9 74.2001 39.1999 73.8001 38.7999C73.4001 38.3999 73.1001 38.2 73.1001 38.2C73.1001 38.2 73.5001 38.2 74.1001 38.5C74.7001 38.8 75.2001 39.6999 75.4001 40.5999C75.5001 41.5999 75.2001 42.5 74.9001 43C74.4001 43.4 74.1001 43.7 74.1001 43.7Z" fill="#342E31"/>
<path d="M92.8 35.6999C92.8 35.6999 92.5 35.7999 91.9 35.6999C91.3 35.5999 90.6 35.2999 89.9 34.7999C89.2 34.1999 88.8 33.2999 89 32.6999C89.2 32.0999 89.6 31.8999 89.5 31.8999C89.5 31.8999 89.3 32.1999 89.4 32.6999C89.4 33.1999 89.9 33.6999 90.4 34.1999C91 34.6999 91.6 35.0999 92 35.3999C92.4 35.5999 92.8 35.6999 92.8 35.6999Z" fill="#342E31"/>
<path d="M49.7001 46.2998C49.7001 46.2998 49.3001 46.6998 48.8001 47.3998C48.3001 48.0998 47.6001 49.0998 47.0001 50.2998C46.4001 51.4998 46.0001 52.5998 45.7001 53.4998C45.5001 54.3998 45.3001 54.8998 45.3001 54.8998C45.3001 54.8998 45.2001 54.2998 45.3001 53.3998C45.3001 52.4998 45.6001 51.1998 46.2001 49.8998C46.9001 48.5998 47.8001 47.6998 48.5001 47.0998C49.2001 46.5998 49.7001 46.2998 49.7001 46.2998Z" fill="#342E31"/>
<path d="M52.1001 44C52.1001 44 52.0001 44.7 51.6001 45.2C51.1001 45.7 50.4001 45.7 50.4001 45.7C50.4001 45.7 50.5001 45 51.0001 44.6C51.4001 44.1 52.1001 44 52.1001 44Z" fill="#342E31"/>
<path d="M54.0001 42.2998C54.0001 42.2998 54.1001 42.7998 53.7001 42.9998C53.3001 43.1998 52.9001 42.8998 52.9001 42.8998C52.9001 42.8998 53.0001 42.3998 53.3001 42.2998C53.4001 42.1998 53.9001 42.2998 54.0001 42.2998Z" fill="#342E31"/>
<path d="M72 48.3998C72 48.3998 71.5 48.3998 70.7 48.2998C69.9 48.0998 68.8 47.8998 67.8 46.9998C66.8 46.0998 66.5 44.7998 66.6 43.9998C66.8 43.1998 67.1 42.7998 67.1 42.7998C67.1 42.7998 67.1 43.2998 67 43.9998C67.1 44.7998 67.5 45.5998 68.3 46.3998C69.1 47.0998 70.1 47.5998 70.8 47.8998C71.5 48.1998 72 48.3998 72 48.3998Z" fill="#342E31"/>
<path d="M67.8001 48.6999C67.9001 48.6999 66.9001 48.7999 66.4001 47.9999C65.9001 47.1999 66.2001 46.3999 66.2001 46.3999C66.2001 46.3999 66.3001 46.4999 66.5001 46.6999C66.6001 46.8999 66.9001 47.0999 67.1001 47.3999C67.4001 48.0999 67.8001 48.6999 67.8001 48.6999Z" fill="#342E31"/>
<path d="M66.0001 49.5999C66.1001 49.5999 65.6001 50.0999 65.0001 49.5999C64.6001 49.0999 65.1001 48.5999 65.0001 48.5999C65.0001 48.5999 65.4001 48.8999 65.6001 48.9999C65.7001 49.1999 66.0001 49.5999 66.0001 49.5999Z" fill="#342E31"/>
<path d="M75.1 48.9C75.1 48.9 74.9 49.4 74.4 49.6C73.8 49.7 73.5 49.2 73.5 49.2C73.5 49.2 73.9 48.9 74.3 48.8C74.6 48.7 75.1 48.9 75.1 48.9Z" fill="#342E31"/>
<path d="M77.1002 48.6999C77.1002 48.6999 77.0002 49.0999 76.7002 49.1999C76.6002 49.1999 76.2002 48.8999 76.2002 48.8999C76.2002 48.8999 76.3002 48.4999 76.6002 48.3999C76.8002 48.3999 77.1002 48.6999 77.1002 48.6999Z" fill="#342E31"/>
<path d="M79.8 48.1999C79.8 48.1999 79.7 48.6999 79.3 48.7999C78.8 48.8999 78.5 48.4999 78.6 48.4999C78.6 48.4999 78.9 47.9999 79.1 47.9999C79.4 47.8999 79.8 48.1999 79.8 48.1999Z" fill="#342E31"/>
<path d="M110.2 44.2C110.2 44.2 111 43.5 112.3 42.4C113.6 41.3 115.3 39.6 117 37.6C118.6 35.6 119.9 33.6 120.6 32.1C121 31.3 121.1 30.6 121.3 30.2C121.5 29.7 121.5 29.5 121.5 29.5C121.5 29.5 121.5 29.8 121.4 30.2C121.3 30.7 121.3 31.4 121 32.2C120.5 33.9 119.3 36.1 117.6 38.1C115.8 40.1 114 41.7 112.6 42.7C111.1 43.7 110.2 44.2 110.2 44.2Z" fill="#342E31"/>
<path d="M114.5 38.3998C114.5 38.3998 114.7 37.9998 115.2 37.3998C115.7 36.7998 116.4 35.9998 117.1 35.1998C117.9 34.3998 118.5 33.5998 118.9 32.8998C119.3 32.2998 119.5 31.7998 119.5 31.7998C119.5 31.7998 119.5 32.2998 119.3 33.0998C119.1 33.8998 118.6 34.8998 117.8 35.6998C117 36.5998 116.2 37.1998 115.6 37.6998C114.9 38.0998 114.5 38.3998 114.5 38.3998Z" fill="#342E31"/>
<path d="M114.4 36.0999C114.4 36.0999 114.8 35.0999 115.6 34.2999C115.9 33.8999 116.3 33.5 116.5 33.2C116.8 32.9 117 32.7 117 32.7C117 32.7 117.1 33.7999 116.2 34.7999C115.4 35.7999 114.4 36.0999 114.4 36.0999Z" fill="#342E31"/>
<path d="M113.8 35.1998C113.8 35.1998 113.7 34.5998 114 34.0998C114.2 33.5998 114.8 33.2998 114.8 33.2998C114.8 33.2998 115 33.8998 114.8 34.4998C114.4 34.9998 113.8 35.1998 113.8 35.1998Z" fill="#342E31"/>
<path d="M108.2 21.9999C108.2 21.9999 107.1 22.1998 105.5 22.3998C103.8 22.5998 101.5 23.0998 98.9002 23.3998C96.4002 23.9998 94.1002 24.2998 92.4002 24.7998C90.7002 25.1998 89.7002 25.3998 89.7002 25.3998C89.7002 25.3998 90.7002 24.9998 92.3002 24.3998C93.9002 23.7998 96.2002 23.1999 98.8002 22.5999C101.4 22.1999 103.8 21.8999 105.5 21.9999C107.2 21.9999 108.2 21.9999 108.2 21.9999Z" fill="#342E31"/>
<path d="M96.9002 25.2999C96.9002 25.2999 95.5002 25.9999 93.6002 26.2999C91.8002 26.7999 90.2002 26.7999 90.2002 26.7999C90.2002 26.7999 91.6002 25.9999 93.4002 25.4999C95.3002 25.1999 96.9002 25.2999 96.9002 25.2999Z" fill="#342E31"/>
<path d="M82.5001 42.0999C82.5001 42.0999 82.4001 42.1999 82.3001 42.2999C82.1001 42.3999 81.9001 42.6999 81.6001 42.8999C80.9001 43.2999 79.9001 43.6999 78.7001 43.7999C76.2001 43.9999 74.5001 42.6999 74.6001 42.5999C74.6001 42.6999 76.4001 43.1999 78.6001 42.9999C80.7001 42.8999 82.5001 42.0999 82.5001 42.0999Z" fill="#342E31"/>
<path d="M81.0001 41.0999C81.0001 41.0999 80.7001 41.2999 80.2001 41.5999C79.7001 41.8999 78.9001 42.1999 78.0001 42.2999C77.1001 42.3999 76.3001 42.2999 75.7001 41.9999C75.2001 41.7999 74.9001 41.4999 74.9001 41.4999C74.9001 41.4999 75.3001 41.4999 75.8001 41.5999C76.4001 41.5999 77.1001 41.4999 77.9001 41.3999C79.5001 41.2999 81.0001 41.0999 81.0001 41.0999Z" fill="#342E31"/>
<path d="M78.1001 40.5998C78.1001 40.5998 77.5001 41.0998 76.5001 41.1998C75.6001 41.1998 74.9001 40.7998 74.9001 40.7998C74.9001 40.7998 75.6001 40.3998 76.5001 40.3998C77.3001 40.2998 78.1001 40.5998 78.1001 40.5998Z" fill="#342E31"/>
<path d="M85.4002 40.8999C85.4002 40.8999 85.3002 41.3999 85.0002 41.5999C84.6002 41.7999 84.2002 41.4999 84.2002 41.4999C84.2002 41.4999 84.4002 40.9999 84.7002 40.8999C85.0002 40.6999 85.4002 40.8999 85.4002 40.8999Z" fill="#342E31"/>
<path d="M87.1002 39.7999C87.1002 39.7999 87.2002 40.2999 86.9002 40.3999C86.6002 40.5999 86.2002 40.2999 86.2002 40.2999C86.2002 40.2999 86.2002 39.7999 86.4002 39.6999C86.6002 39.5999 87.1002 39.7999 87.1002 39.7999Z" fill="#342E31"/>
<path d="M84.3 39.7C84.3 39.7 84.3 40.1 84.1 40.3C83.9 40.4 83.5 40.2 83.5 40.2C83.5 40.2 83.5 39.7 83.7 39.6C83.9 39.4 84.3 39.7 84.3 39.7Z" fill="#342E31"/>
<path d="M86.5 38.5999C86.5 38.5999 86.6 38.9999 86.4 39.1999C86.2 39.2999 85.8 39.0999 85.8 39.0999C85.8 39.0999 85.8 38.5999 85.9 38.4999C86.1 38.3999 86.5 38.5999 86.5 38.5999Z" fill="#342E31"/>
<path d="M109 61.5C109 61.5 107.7 62.2 105.6 63.4C103.5 64.6 100.5 66 97.1001 67.5C93.7001 68.8 90.5001 70 88.2001 70.5C85.9001 71.1 84.4001 71.5 84.4001 71.5C84.4001 71.5 85.8001 71 88.0001 70.1C90.3001 69.3 93.3001 68 96.7001 66.7C103.5 63.9 109 61.5 109 61.5Z" fill="#342E31"/>
<path d="M101.2 67.2C101.2 67.2 99.0002 68.5 96.1002 69.6C93.2002 70.7 90.7002 71.3 90.7002 71.3C90.7002 71.3 92.9002 70 95.8002 68.9C98.7002 67.8 101.2 67.2 101.2 67.2Z" fill="#342E31"/>
<path d="M113.7 58.5C113.7 58.5 113.3 59.3 112.5 59.8C112.1 60.1 111.7 60.2 111.5 60.3C111.2 60.4 111 60.5 111 60.5C111 60.5 111.1 60.3 111.2 60C111.4 59.7 111.7 59.4 112.1 59.1C112.8 58.6 113.7 58.5 113.7 58.5Z" fill="#342E31"/>
<path d="M117.3 55.8998C117.3 55.8998 117.1 56.4998 116.4 56.8998C115.7 57.1998 115.1 56.9998 115.1 56.9998C115.1 56.9998 115.5 56.3998 116.1 56.0998C116.6 55.7998 117.3 55.8998 117.3 55.8998Z" fill="#342E31"/>
<path d="M120.3 52.8999C120.3 52.8999 120.3 53.5999 119.6 53.9999C118.9 54.3999 118.3 53.9999 118.3 53.9999C118.3 53.9999 118.7 53.5999 119.2 53.2999C119.7 52.9999 120.3 52.8999 120.3 52.8999Z" fill="#342E31"/>
<path d="M75.8002 35.7999C75.8002 35.7999 74.5002 36.5 72.8002 36.4C71.9002 36.3 71.1002 36 70.7002 35.5C70.3002 35.1 70.2002 34.7 70.2002 34.7C70.2002 34.7 70.5002 34.8999 71.0002 35.0999C71.5002 35.2999 72.2002 35.4 72.9002 35.5C74.5002 35.7 75.8002 35.7999 75.8002 35.7999Z" fill="#342E31"/>
<path d="M79.4 35C79.4 35 79 35.5 78.2 35.8C77.4 36 76.8 35.8 76.8 35.8C76.8 35.8 77.3 35.2 78 35C78.7 34.8 79.4 35 79.4 35Z" fill="#342E31"/>
<path d="M22.8001 34.5C22.8001 34.5 23.0001 34.6 23.3001 34.7C23.5001 34.8 23.7001 34.8 23.9001 34.9C24.1001 35.1 24.4001 35.2 24.6001 35.4C25.1001 35.9 25.5001 36.6999 25.5001 37.7999C25.4001 38.7999 24.9001 39.9 24.0001 40.7999C23.1001 41.6999 21.7001 42.5 20.1001 42.2C18.5001 41.9 17.1001 40.5999 16.3001 39.0999C15.5001 37.5999 15.2001 35.5 16.1001 33.7C16.9001 31.9 18.5001 30.5999 20.3001 29.7999C21.2001 29.3999 22.2001 29.2 23.2001 29.2C24.2001 29.2 25.1001 29.4 26.0001 29.6C27.8001 30.1 29.4001 31.1 30.5001 32.4C32.7001 35 33.2001 38.1 33.3001 40.5C33.4001 42.9 33.0001 44.9 32.8001 46.2C32.5001 47.5 32.3001 48.2 32.3001 48.2C32.3001 48.2 32.4001 47.5 32.6001 46.2C32.7001 44.9 32.8001 42.9999 32.6001 40.5999C32.3001 38.2999 31.7001 35.5 29.6001 33.4C28.6001 32.4 27.3001 31.6 25.7001 31.2C24.9001 31.1 24.1001 30.9 23.3001 30.9C22.5001 30.9 21.7001 31.1 21.0001 31.4C19.5001 31.9999 18.2001 33.1 17.6001 34.5C16.9001 35.8 17.0001 37.2999 17.6001 38.5999C18.2001 39.8999 19.2001 40.9 20.3001 41.2C21.5001 41.5 22.6001 40.9999 23.5001 40.2999C24.3001 39.5999 24.9001 38.6999 25.0001 37.7999C25.2001 36.8999 24.8001 36.2 24.5001 35.7C24.3001 35.5 24.0001 35.2999 23.9001 35.0999C23.7001 34.9999 23.5001 34.8999 23.3001 34.7999C23.0001 34.4999 22.8001 34.5 22.8001 34.5Z" fill="#342E31"/>
<path d="M67.2999 8.89989C67.2999 8.89989 67.6999 8.79989 68.4999 8.69989C69.1999 8.69989 70.4999 8.59989 71.5999 9.79989C72.0999 10.3999 72.3999 11.2999 72.1999 12.1999C71.9999 13.0999 71.2999 13.9999 70.1999 14.3999C67.9999 15.0999 65.4999 14.1999 63.3999 12.4999C62.3999 11.5999 61.5999 10.0999 61.5999 8.59989C61.5999 7.09989 62.0999 5.49989 62.9999 4.19989C63.8999 2.89989 65.1999 1.69989 66.7999 0.899887C67.1999 0.699887 67.5999 0.599887 67.9999 0.399887L69.2999 0.199887C70.1999 -0.100113 71.0999 -0.000113279 71.9999 -0.000113279C75.5999 0.399887 79.1999 2.59989 81.0999 6.19989C81.9999 7.99989 82.4999 10.0999 81.9999 12.1999C81.7999 13.2999 81.2999 14.1999 80.6999 15.1999C79.9999 15.9999 79.2999 16.8999 78.3999 17.3999C76.6999 18.6999 74.6999 19.2999 72.8999 19.9999C70.9999 20.4999 69.0999 20.9999 67.0999 20.9999C63.1999 21.2999 59.5999 20.2999 56.2999 19.6999C52.9999 18.9999 49.7999 19.1999 47.0999 20.2999C44.3999 21.3999 42.4999 23.5999 41.2999 25.7999C38.7999 30.2999 38.2999 34.5999 38.0999 37.3999C37.9999 38.7999 38.0999 39.9999 38.0999 40.6999C38.1999 41.4999 38.1999 41.8999 38.1999 41.8999C38.1999 41.8999 38.0999 41.4999 38.0999 40.6999C37.9999 39.8999 37.8999 38.7999 37.8999 37.3999C37.8999 34.4999 38.1999 30.1999 40.5999 25.3999C41.7999 23.0999 43.6999 20.5999 46.6999 19.2999C49.5999 17.9999 53.1999 17.6999 56.5999 18.2999C59.9999 18.8999 63.4999 19.6999 67.0999 19.3999C68.8999 19.2999 70.6999 18.8999 72.4999 18.3999C74.2999 17.7999 76.0999 17.1999 77.4999 16.0999C78.2999 15.5999 78.7999 14.8999 79.3999 14.2999C79.7999 13.4999 80.2999 12.7999 80.3999 11.8999C80.7999 10.1999 80.3999 8.49989 79.6999 6.89989C78.0999 3.79989 74.9999 1.79989 71.7999 1.39989C70.9999 1.39989 70.1999 1.19989 69.3999 1.39989L68.1999 1.59989C67.9999 1.69989 67.5999 1.79989 67.2999 1.99989C65.8999 2.59989 64.7999 3.59989 63.8999 4.79989C63.0999 5.99989 62.5999 7.29989 62.5999 8.59989C62.5999 9.89989 63.0999 11.0999 63.9999 11.9999C65.7999 13.5999 68.1999 14.5999 69.9999 13.9999C70.8999 13.6999 71.5999 12.9999 71.7999 12.1999C71.9999 11.3999 71.7999 10.5999 71.3999 10.0999C70.4999 8.99989 69.1999 8.99989 68.4999 8.89989C67.6999 8.79989 67.2999 8.89989 67.2999 8.89989Z" fill="#342E31"/>
<path d="M140.3 59.4999C140.3 59.4999 140.1 59.5999 139.9 59.6999C139.6 59.7999 139.1 59.9999 138.5 59.4999C138 59.0999 137.8 58.1999 137.8 57.3999C137.8 56.4999 138 55.4999 138.8 54.4999C139.2 53.9999 139.8 53.5999 140.5 53.5999C141.2 53.4999 141.9 53.8999 142.5 54.1999C143.8 54.8999 144.6 56.5999 144.4 58.1999C144.1 61.4999 141.5 64.1999 138.4 65.6999C135.4 67.0999 132.8 68.4999 130.8 70.3999C128.9 72.1999 127.7 74.5999 127.2 76.4999C126.7 78.4999 126.9 80.2999 126.9 81.4999C126.9 82.6999 126.9 83.3999 126.9 83.3999C126.9 83.3999 126.8 82.6999 126.7 81.5999C126.6 80.3999 126.1 78.6999 126.5 76.4999C126.8 74.2999 127.9 71.7999 129.9 69.5999C131.9 67.3999 134.8 65.7999 137.7 64.3999C140.4 63.0999 142.6 60.6999 143 58.1999C143.2 56.9999 142.7 55.8999 141.9 55.1999C141 54.4999 140 54.3999 139.4 55.1999C138.1 56.5999 138 58.6999 138.7 59.4999C139.1 59.8999 139.6 59.8999 139.9 59.7999C140.2 59.4999 140.3 59.4999 140.3 59.4999Z" fill="#342E31"/>
<path d="M0 149.8C0 149.8 11.1 149.4 24.9 149.4C38.6 149.4 49.8 149.8 49.8 149.8C49.8 149.8 38.7 150.2 24.9 150.2C11.1 150.2 0 149.8 0 149.8Z" fill="#342E31"/>
<path d="M14.5 146.5C14.5 146.5 20.7 146.1 28.5 146.1C36.2 146.1 42.5 146.5 42.5 146.5C42.5 146.5 36.3 146.9 28.5 146.9C20.7 146.8 14.5 146.5 14.5 146.5Z" fill="#342E31"/>
<path d="M25.2 144.5C25.2 144.5 28.4 144.1 32.4 144.1C36.4 144.1 39.5999 144.5 39.5999 144.5C39.5999 144.5 36.4 144.9 32.4 144.9C28.5 144.8 25.2 144.5 25.2 144.5Z" fill="#342E31"/>
<path d="M30.3 142.1C30.3 142.1 31.7 141.7 33.3 141.7C35 141.7 36.3 142.1 36.3 142.1C36.3 142.1 34.9 142.5 33.3 142.5C31.6 142.5 30.3 142.1 30.3 142.1Z" fill="#342E31"/>
<path d="M17.5 139.1C17.5 139.1 21.2 138.7 25.7 138.7C30.2 138.7 33.9 139.1 33.9 139.1C33.9 139.1 30.2 139.5 25.7 139.5C21.2 139.5 17.5 139.1 17.5 139.1Z" fill="#342E31"/>
<path d="M22.5 136.7C22.5 136.7 24.8 136.3 27.7 136.3C30.6 136.3 32.9 136.7 32.9 136.7C32.9 136.7 30.6 137.1 27.7 137.1C24.9 137.1 22.5 136.7 22.5 136.7Z" fill="#342E31"/>
<path d="M169.8 150.5C169.8 150.5 161 150.9 150.1 150.9C139.2 150.9 130.4 150.5 130.4 150.5C130.4 150.5 139.2 150.1 150.1 150.1C161 150.1 169.8 150.5 169.8 150.5Z" fill="#342E31"/>
<path d="M148.3 147.1C148.3 147.1 145.7 147.5 142.6 147.5C139.4 147.5 136.9 147.1 136.9 147.1C136.9 147.1 139.5 146.7 142.6 146.7C145.8 146.8 148.3 147.1 148.3 147.1Z" fill="#342E31"/>
<path d="M149.7 144.5C149.7 144.5 148.1 144.9 146.2 144.9C144.2 144.9 142.7 144.5 142.7 144.5C142.7 144.5 144.3 144.1 146.2 144.1C148.1 144.1 149.7 144.5 149.7 144.5Z" fill="#342E31"/>
<path d="M147.6 140.1C147.6 140.1 147.5 140.8 146.9 141.3C146.6 141.5 146.3 141.7 146 141.7C145.7 141.8 145.6 141.7 145.6 141.7C145.6 141.7 145.7 141.5 145.8 141.3C145.9 141.1 146.1 140.8 146.4 140.6C147 140.2 147.6 140.1 147.6 140.1Z" fill="#342E31"/>
<path d="M161.8 141.1C161.8 141.1 158.2 141.5 153.7 141.5C149.2 141.5 145.6 141.1 145.6 141.1C145.6 141.1 149.2 140.7 153.7 140.7C158.1 140.7 161.8 141.1 161.8 141.1Z" fill="#342E31"/>
<path d="M154.4 138.7C154.4 138.7 153.2 139.1 151.7 139.1C150.2 139.1 149 138.7 149 138.7C149 138.7 150.2 138.3 151.7 138.3C153.2 138.3 154.4 138.7 154.4 138.7Z" fill="#342E31"/>
<path d="M163.4 134.9C163.4 134.9 160.7 135.3 157.5 135.3C154.2 135.3 151.6 134.9 151.6 134.9C151.6 134.9 154.3 134.5 157.5 134.5C160.7 134.5 163.4 134.9 163.4 134.9Z" fill="#342E31"/>
<path d="M153.5 131.6C153.5 131.6 153.4 131.6 153.3 131.5H153.2H153.8L153.9 131.4C153.9 131.5 153.5 131.6 153.5 131.6C153.5 131.6 153.1 131.5 153.1 131.4C153.1 131.4 153.1 131.5 153.2 131.5H153.8H153.7C153.6 131.6 153.5 131.6 153.5 131.6Z" fill="#342E31"/>
<path d="M161.4 131.3C161.4 131.3 159.7 131.8 157.6 132C155.5 132 153.8 131.7 153.8 131.7C153.8 131.7 155.5 131.3 157.6 131.3C159.6 131 161.4 131.3 161.4 131.3Z" fill="#342E31"/>
<path d="M167.965 67.5618C189.975 36.6533 217.436 8.25196 255.022 -2.21513C284.91 -10.5384 314.235 -10.1145 344.649 -5.7696C355.733 -4.18617 366.906 -3.61585 377.678 -0.301184C387.924 2.85144 395.959 9.41534 402.997 17.3618C407.37 22.299 411.807 28.4868 416.996 32.564C418.818 33.9951 419.949 35.6487 419.949 38.0324" stroke="black" stroke-linecap="round" stroke-linejoin="round"/>
</g>
<defs>
<clipPath id="clip0">
<rect width="169.8" height="160.7" fill="white"/>
</clipPath>
</defs>
</svg>
