<svg width="120" height="156" viewBox="0 0 120 156" fill="none" xmlns="http://www.w3.org/2000/svg">
<g clip-path="url(#clip0)">
<rect x="2" y="2" width="116" height="152" rx="2" fill="#F6F6F6"/>
<path d="M128.537 153.751C139.653 150.463 138.252 138.532 135.356 129.794C133.488 124.157 131.433 118.427 128.724 113.165C126.015 107.998 122.186 104.804 117.049 102.173C116.581 101.986 116.114 102.361 116.395 102.831C119.664 109.314 117.889 116.548 119.103 123.406C119.664 126.412 120.972 129.137 121.906 132.049C122.373 133.646 122.746 135.337 122.746 136.934C122.653 139.283 121.532 140.88 120.878 143.041C119.851 146.423 120.411 150.369 123.493 152.53C126.669 154.785 130.873 153.845 133.301 151.121C133.768 150.651 133.021 149.899 132.554 150.369C129.658 153.657 124.801 153.563 122.466 149.711C120.504 146.517 121.625 143.887 122.84 140.692C124.334 136.653 123.4 133.082 121.999 129.231C120.037 123.876 119.757 118.99 119.57 113.353C119.477 109.407 119.01 105.743 117.235 102.173C117.049 102.361 116.768 102.643 116.581 102.831C121.252 105.18 125.081 108.186 127.603 112.884C129.845 117.017 131.526 121.527 133.114 125.942C136.57 135.431 140.306 147.926 128.351 152.812C127.884 153.187 128.07 153.939 128.537 153.751Z" fill="#342E31"/>
<path d="M22.7091 118.427C12.1543 113.635 5.42907 123.594 1.97307 132.143C-0.26866 137.592 -2.41699 143.323 -3.81807 149.148C-5.12574 154.785 -4.28509 159.858 -2.04336 165.119C-1.85655 165.589 -1.20272 165.495 -1.10931 165.025C0.665391 157.885 6.64333 153.657 10.1927 147.645C11.6872 145.014 12.4345 142.008 13.7421 139.283C14.396 137.78 15.2366 136.183 16.3575 135.055C17.9454 133.364 19.9069 132.895 21.6816 131.673C24.6706 129.7 26.8189 126.412 25.8848 122.748C24.9508 118.99 21.2146 116.923 17.5718 117.393C16.9179 117.487 17.0113 118.521 17.6652 118.427C21.9618 117.863 25.6046 121.151 24.9508 125.567C24.3903 129.325 21.775 130.452 18.8794 132.143C15.1432 134.21 13.5553 137.498 12.0608 141.35C10.0993 146.705 7.11036 150.651 3.56096 154.973C1.13242 157.979 -0.922495 161.079 -1.85655 164.931C-1.57633 164.931 -1.20271 164.837 -0.922495 164.837C-2.88401 159.952 -3.91147 155.254 -2.7906 149.993C-1.85655 145.39 -0.0818486 140.88 1.50604 136.465C5.05544 127.07 10.2861 115.044 22.5222 119.272C22.8025 119.366 23.1761 118.614 22.7091 118.427Z" fill="#342E31"/>
<path d="M22.6157 118.802C25.231 115.983 29.2475 111.944 29.0607 107.622C28.9673 105.461 27.286 102.831 24.8574 103.488C24.9508 103.676 25.1376 103.864 25.231 104.052C28.0332 100.388 30.0881 106.777 30.0881 108.937C30.0881 110.628 29.8079 112.226 29.1541 113.729C28.1266 116.171 26.3519 118.52 24.5772 120.493C24.297 120.869 24.8574 121.339 25.1376 120.963C28.5002 116.735 31.4892 112.601 30.742 106.87C30.3683 104.146 27.1926 100.388 24.764 103.582C24.5772 103.864 24.764 104.24 25.1376 104.146C27.8464 103.394 28.5002 107.622 28.3134 109.125C28.1266 110.347 27.3794 111.756 26.7255 112.789C25.5113 114.95 23.9234 116.641 22.1487 118.332C21.8684 118.614 22.3355 119.084 22.6157 118.802Z" fill="#342E31"/>
<path d="M4.68196 132.894C7.76434 127.351 11.1269 121.902 17.7587 120.681C18.1323 120.587 18.1323 120.117 17.7587 120.117C10.8467 120.587 7.2039 127.163 4.30833 132.706C4.12152 132.988 4.58855 133.176 4.68196 132.894Z" fill="#342E31"/>
<path d="M8.79154 142.852C8.13771 146.422 6.45641 148.865 4.21468 151.684C4.02787 151.871 4.30808 152.247 4.4949 152.059C7.20365 149.899 8.69814 146.329 9.07176 142.946C9.07176 142.758 8.79154 142.665 8.79154 142.852Z" fill="#342E31"/>
<path d="M26.632 114.668C25.698 116.171 24.5771 117.675 23.3629 118.896C23.1761 119.084 23.4563 119.366 23.6431 119.178C24.764 117.768 25.8848 116.359 26.9123 114.95C27.0057 114.668 26.7255 114.48 26.632 114.668Z" fill="#342E31"/>
<path d="M27.566 115.044C26.5385 116.735 25.4177 118.332 24.2968 119.929C24.2034 120.117 24.3902 120.399 24.577 120.211C25.7913 118.614 26.9122 117.017 27.8462 115.232C28.033 114.95 27.7528 114.856 27.566 115.044Z" fill="#342E31"/>
<path d="M28.9671 110.816C28.8737 111.098 28.7803 111.286 28.7803 111.568C28.7803 111.662 28.8737 111.662 28.8737 111.568C29.0605 111.38 29.0605 111.192 29.1539 110.91C29.3407 110.722 29.0605 110.628 28.9671 110.816Z" fill="#342E31"/>
<path d="M28.8737 111.38C27.7528 114.48 25.9781 117.111 23.7364 119.553C23.5496 119.741 23.8298 119.929 24.0166 119.741C26.4452 117.487 28.0331 114.574 29.1539 111.474C29.1539 111.38 28.9671 111.192 28.8737 111.38Z" fill="#342E31"/>
<path d="M15.5168 122.56C16.3575 121.715 17.6651 121.245 18.786 121.245C18.8794 121.245 18.8794 121.057 18.786 121.057C17.3849 120.869 16.1707 121.245 15.1432 122.184C14.9564 122.466 15.33 122.748 15.5168 122.56Z" fill="#342E31"/>
<path d="M22.1487 126.036C21.9618 126.318 21.6816 126.6 21.4948 126.788C21.2146 127.07 20.9344 127.258 20.7476 127.54C20.6542 127.633 20.7476 127.915 20.9344 127.821C21.4948 127.54 22.0553 126.788 22.4289 126.224C22.4289 126.13 22.2421 125.848 22.1487 126.036Z" fill="#342E31"/>
<path d="M3.84132 150.087C3.65451 150.462 3.37429 150.744 3.18748 151.12C3.00067 151.402 2.81386 151.684 2.72046 151.966C2.72046 152.06 2.81387 152.154 2.90727 152.06C3.18749 151.872 3.28089 151.59 3.4677 151.308C3.65451 150.932 3.84131 150.65 4.12152 150.275C4.21493 150.087 3.93472 149.899 3.84132 150.087Z" fill="#342E31"/>
<path d="M6.73679 134.867C6.17635 135.807 5.33569 137.122 5.33569 138.343C5.33569 138.437 5.52251 138.531 5.61592 138.437C5.89614 137.873 5.98954 137.31 6.17635 136.746C6.36317 136.182 6.64339 135.619 7.01701 135.149C7.01701 134.773 6.8302 134.679 6.73679 134.867Z" fill="#342E31"/>
<path d="M6.17635 137.686C6.08295 138.156 5.80273 138.625 5.80273 139.095C5.80273 139.283 5.98954 139.283 6.08295 139.189C6.36316 138.813 6.36315 138.249 6.45656 137.78C6.54996 137.498 6.26975 137.404 6.17635 137.686Z" fill="#342E31"/>
<path d="M14.3025 129.23C14.3025 129.606 14.3025 129.982 14.5827 130.264C14.6761 130.358 14.7695 130.264 14.7695 130.17C14.6761 129.888 14.5827 129.606 14.5827 129.23C14.6761 129.042 14.3959 128.948 14.3025 129.23Z" fill="#342E31"/>
<path d="M13.8354 130.639C14.2091 130.921 14.5827 131.391 15.0497 131.579C15.1431 131.579 15.2365 131.485 15.1431 131.391C14.8629 130.921 14.3959 130.639 14.0223 130.358C13.8354 130.17 13.6486 130.452 13.8354 130.639Z" fill="#342E31"/>
<path d="M116.768 153.188C120.318 148.49 115.087 142.29 113.032 138.062C110.323 132.331 108.268 126.506 106.027 120.588C104.159 115.796 102.01 110.817 98.1806 107.341C93.9774 103.583 88.1863 101.704 82.6753 101.986C77.7249 102.174 73.0546 103.677 69.7854 107.529C66.236 111.757 65.8624 116.83 66.1426 122.279C66.5162 128.197 68.7579 133.083 72.9612 137.31C77.071 141.538 82.3017 144.92 87.439 147.739C90.6148 149.43 93.884 150.933 97.0598 152.718C99.8619 154.315 102.477 156.664 105.466 157.791C110.697 159.858 115.367 156.288 117.702 151.685C117.983 151.121 117.142 150.557 116.768 151.121C115.554 153.376 113.779 155.536 111.444 156.664C108.455 158.261 105.466 156.758 102.851 155.067C98.6476 152.342 94.5378 149.994 90.0544 147.645C81.5545 143.323 70.4392 136.841 67.9173 126.788C66.6096 121.527 66.236 113.729 69.5986 109.22C70.5326 107.999 71.5601 106.589 72.681 105.744C74.6425 104.241 77.9117 103.489 80.4336 103.113C86.3181 102.174 92.9499 103.865 97.4334 107.905C100.983 111.099 103.038 115.608 104.719 119.93C106.587 124.534 108.082 129.137 110.043 133.74C111.164 136.371 112.472 139.095 113.873 141.632C115.647 144.92 118.823 149.054 116.114 152.718C115.834 153.282 116.488 153.564 116.768 153.188Z" fill="#342E31"/>
<path d="M98.8345 135.526C100.609 128.385 99.2081 120.118 93.7906 114.951C89.1203 110.441 81.9281 111.099 77.6315 115.984C72.9612 121.339 75.5766 128.479 79.9666 133.177C84.1699 137.592 93.3236 138.626 98.5543 135.901C99.1147 135.619 98.6477 134.774 98.0873 135.056C93.417 137.404 85.2907 136.465 81.3677 132.989C76.604 128.855 73.9887 121.151 78.9392 116.172C81.0875 114.011 83.8897 112.978 86.8786 112.884C90.2412 112.79 92.8566 115.045 94.8181 117.581C98.8345 122.749 99.4883 129.231 98.0873 135.432C98.0873 135.807 98.7411 135.995 98.8345 135.526Z" fill="#342E31"/>
<path d="M114.994 154.503C115.274 154.315 115.554 154.221 115.834 153.939C116.114 153.657 116.301 153.375 116.395 153.094C116.488 152.812 116.395 152.53 116.021 152.53C115.367 152.436 114.9 153 114.527 153.469C114.059 154.033 113.779 154.597 113.499 155.254C113.312 155.818 114.153 156.006 114.34 155.536C114.527 155.067 114.713 154.691 114.994 154.315C115.18 154.033 115.554 153.375 116.021 153.375C115.928 153.188 115.741 153 115.647 152.906C115.461 153.375 115.274 154.033 114.807 154.409C114.807 154.409 114.9 154.597 114.994 154.503Z" fill="#342E31"/>
<path d="M97.7137 133.834C98.928 126.694 95.1917 116.923 87.4391 115.326C87.0655 115.232 86.9721 115.796 87.2523 115.89C90.7083 117.299 93.4171 119.084 95.0983 122.56C96.6862 125.848 97.9005 130.076 97.1533 133.74C97.1533 134.022 97.7137 134.21 97.7137 133.834Z" fill="#342E31"/>
<path d="M110.51 155.254C105.84 156.57 99.862 151.121 96.1258 148.678C92.1094 146.047 87.9996 143.229 83.7029 141.068C83.4227 140.88 83.1425 141.35 83.4227 141.538C88.56 144.544 93.4171 147.739 98.4609 150.933C101.824 153.094 106.307 156.758 110.604 155.536C110.697 155.442 110.697 155.16 110.51 155.254Z" fill="#342E31"/>
<path d="M98.0873 111.85C94.3511 108.186 89.8676 106.119 84.6369 106.307C80.3403 106.401 75.7634 108.374 73.8019 112.414C73.6151 112.789 74.0821 113.071 74.3624 112.696C77.1645 108.656 81.2744 106.871 86.1314 107.059C90.8951 107.34 94.1643 109.407 97.8071 112.226C97.9939 112.414 98.2741 112.038 98.0873 111.85Z" fill="#342E31"/>
<path d="M99.8621 115.796C99.3017 115.045 98.6478 114.387 97.994 113.917C97.3402 113.448 96.5929 112.79 95.7523 112.79C95.5654 112.79 95.472 113.072 95.5655 113.166C96.0325 113.73 96.8731 114.011 97.4336 114.387C98.1808 114.951 98.7412 115.515 99.3951 116.172C99.6753 116.36 100.049 116.078 99.8621 115.796Z" fill="#342E31"/>
<path d="M115.741 153.375C117.702 152.342 118.076 148.866 117.422 146.987C117.329 146.611 116.768 146.799 116.862 147.175C117.049 148.396 117.142 149.617 116.768 150.839C116.488 151.684 115.834 152.342 115.461 153.187C115.367 153.375 115.648 153.469 115.741 153.375Z" fill="#342E31"/>
<path d="M111.724 143.793C109.669 140.035 107.988 136.183 106.213 132.331C106.12 132.049 105.653 132.237 105.746 132.519C107.148 136.559 109.296 140.316 111.538 143.98C111.631 143.98 111.818 143.887 111.724 143.793Z" fill="#342E31"/>
<path d="M86.7852 144.732C83.8896 142.947 81.1809 140.786 78.2853 138.907C78.2853 138.907 78.1919 138.907 78.1919 139.001C80.7138 141.35 83.7028 143.135 86.6918 144.826C86.7852 144.826 86.7852 144.732 86.7852 144.732Z" fill="#342E31"/>
<path d="M96.7797 132.331C96.7797 131.767 96.7797 131.204 96.5929 130.734C96.5929 130.64 96.4061 130.64 96.4061 130.734C96.3127 131.204 96.4995 131.861 96.5929 132.331C96.5929 132.519 96.7797 132.519 96.7797 132.331Z" fill="#342E31"/>
<path d="M78.192 125.755C78.0051 125.473 77.9117 125.097 77.7249 124.815C77.6315 124.534 77.6315 124.158 77.5381 123.876C77.5381 123.782 77.3513 123.782 77.3513 123.876C77.2579 124.534 77.6315 125.285 77.9117 125.849C78.0985 126.037 78.2854 125.943 78.192 125.755Z" fill="#342E31"/>
<path d="M78.3788 124.064C78.2854 123.782 78.2854 123.5 78.192 123.312C78.192 123.218 78.0051 123.312 78.0051 123.406C78.0051 123.688 78.0985 123.97 78.0985 124.252C78.0985 124.252 78.3788 124.158 78.3788 124.064Z" fill="#342E31"/>
<path d="M73.9885 132.707C73.2413 131.862 72.9611 130.922 72.4941 129.889C72.4007 129.795 72.2139 129.795 72.2139 129.889C72.3073 131.016 72.9611 132.144 73.7083 132.895C73.8951 133.083 74.1754 132.895 73.9885 132.707Z" fill="#342E31"/>
<path d="M71.9337 130.358C71.8403 130.17 71.8403 129.889 71.7469 129.701C71.6535 129.607 71.5601 129.607 71.5601 129.795C71.5601 129.982 71.6535 130.264 71.6535 130.452C71.7469 130.64 72.0271 130.546 71.9337 130.358Z" fill="#342E31"/>
<path d="M111.724 145.014C111.538 144.732 111.257 144.356 110.977 144.074C110.884 143.98 110.79 144.074 110.79 144.168C110.977 144.544 111.257 144.826 111.444 145.108C111.631 145.296 111.818 145.202 111.724 145.014Z" fill="#342E31"/>
<path d="M101.45 116.548C101.356 116.266 101.17 115.89 101.076 115.608C100.983 115.326 100.796 115.044 100.516 114.857C100.422 114.763 100.329 114.857 100.329 114.95C100.422 115.232 100.609 115.42 100.702 115.702C100.889 115.984 100.983 116.266 101.076 116.642C101.17 116.829 101.45 116.736 101.45 116.548Z" fill="#342E31"/>
<path d="M73.8017 110.629C73.3347 111.193 72.8677 111.944 72.8677 112.696C72.8677 112.79 73.0545 112.79 73.0545 112.696C73.1479 112.32 73.2413 111.944 73.4281 111.663C73.6149 111.381 73.7083 111.099 73.9885 110.817C74.0819 110.629 73.8951 110.535 73.8017 110.629Z" fill="#342E31"/>
<path d="M72.4942 111.85C72.3074 112.226 72.0272 112.789 72.1206 113.259C72.1206 113.353 72.3074 113.353 72.3074 113.259C72.4008 113.071 72.4008 112.883 72.4942 112.695C72.5876 112.507 72.5876 112.226 72.7744 112.038C72.7744 111.85 72.5876 111.756 72.4942 111.85Z" fill="#342E31"/>
<path d="M104.906 146.329C104.532 145.954 104.065 145.672 103.692 145.296C103.411 145.014 103.038 144.638 102.664 144.544C102.571 144.544 102.477 144.638 102.571 144.732C102.757 145.108 103.225 145.39 103.505 145.578C103.878 145.86 104.345 146.235 104.719 146.517C104.906 146.705 105.093 146.423 104.906 146.329Z" fill="#342E31"/>
<path d="M102.664 145.578C102.291 145.296 101.917 144.92 101.45 144.733C101.263 144.639 101.263 144.92 101.357 145.014C101.637 145.39 102.104 145.672 102.477 145.954C102.664 146.048 102.944 145.672 102.664 145.578Z" fill="#342E31"/>
<path d="M89.4004 130.264C88.6532 128.573 88.373 126.882 88.0928 125.003C88.0928 124.815 87.8126 124.909 87.8126 125.003C87.7192 126.882 88.2796 128.761 89.1202 130.358C89.307 130.546 89.4939 130.452 89.4004 130.264Z" fill="#342E31"/>
<path d="M87.0654 126.976C87.1588 126.413 87.3456 125.473 87.0654 124.909C87.0654 124.815 86.8786 124.815 86.7852 124.909C86.505 125.473 86.7852 126.319 86.7852 126.976C86.8786 127.164 87.0654 127.164 87.0654 126.976Z" fill="#342E31"/>
<path d="M125.362 177.52C122.373 174.701 118.543 172.541 115.087 170.286C111.351 167.843 107.521 165.495 103.598 163.334C96.6861 159.576 88.5598 157.227 83.516 150.745C83.1423 150.181 82.2083 150.745 82.6753 151.308C86.972 157.133 93.884 159.388 100.049 162.488C104.252 164.555 108.175 166.998 112.191 169.534C116.395 172.165 120.598 175.923 125.175 177.708C125.362 177.896 125.455 177.614 125.362 177.52Z" fill="#342E31"/>
<path d="M124.895 177.426C105.373 187.197 88.1862 169.629 83.5159 151.591C83.3291 151.027 82.3951 151.215 82.4885 151.779C86.1313 170.568 106.213 189.076 125.455 178.366C126.015 177.896 125.455 177.145 124.895 177.426Z" fill="#342E31"/>
<path d="M82.9564 151.873C83.1432 151.215 82.5828 150.745 82.2092 150.275C82.1158 150.182 81.5553 149.806 81.4619 149.712C81.3685 149.43 82.0224 148.678 82.1158 148.397C81.8355 148.397 81.6487 148.397 81.3685 148.303C81.8355 149.43 82.2092 150.557 82.5828 151.685C82.7696 152.154 83.5168 151.873 83.33 151.403C82.863 150.276 82.396 149.148 82.1158 148.021C82.0224 147.739 81.6487 147.645 81.4619 147.927C81.0883 148.397 80.3411 149.336 80.8081 149.9C81.0883 150.276 81.5553 150.369 81.8355 150.839C82.1158 151.215 82.1158 151.685 82.4894 151.967C82.6762 152.154 82.863 152.061 82.9564 151.873Z" fill="#342E31"/>
<path d="M81.5545 149.618C81.5545 149.712 81.6479 149.806 81.6479 149.9C81.4611 150.464 82.4886 150.558 82.4886 149.994C82.4886 149.712 82.4886 149.43 82.3952 149.148C82.1149 149.242 81.9281 149.336 81.6479 149.43C81.7413 149.618 81.7413 149.806 81.8347 149.994C82.0215 150.276 82.4886 150.088 82.4886 149.806C82.4886 149.618 82.3952 149.43 82.3952 149.242C82.3018 148.867 81.6479 148.867 81.6479 149.242C81.6479 149.524 81.6479 149.806 81.6479 150.088C81.8347 149.994 82.0215 149.806 82.2084 149.712C82.1149 149.618 82.0215 149.618 82.0215 149.524C81.8347 149.148 81.3677 149.43 81.5545 149.618Z" fill="#342E31"/>
<path d="M83.5159 151.402C83.5159 150.839 83.2357 150.369 83.0489 149.899C82.8621 149.429 82.7687 148.866 82.3951 148.584C82.2083 148.49 81.9281 148.49 81.9281 148.772C81.8347 149.241 82.2083 149.805 82.3951 150.275C82.5819 150.745 82.7687 151.214 83.1423 151.59C83.2357 151.778 83.5159 151.59 83.5159 151.402Z" fill="#342E31"/>
<path d="M83.2358 152.624C83.049 152.06 82.9556 151.496 82.582 151.027C82.2084 150.463 81.8347 149.993 81.3677 149.524C80.9941 149.148 80.3402 149.524 80.7139 149.993C81.0875 150.463 81.4611 150.839 81.7413 151.309C82.115 151.778 82.582 152.248 82.7688 152.812C82.9556 153 83.3292 152.906 83.2358 152.624Z" fill="#342E31"/>
<path d="M84.7304 152.342C83.7963 151.027 82.6755 149.524 82.3018 147.926C82.2084 147.457 81.3678 147.833 81.7414 148.208C82.3018 148.866 82.5821 149.712 83.0491 150.369C83.5161 151.121 83.9832 151.778 84.5436 152.436C84.637 152.624 84.9172 152.436 84.7304 152.342Z" fill="#342E31"/>
<path d="M81.8347 149.617C81.9281 149.523 82.0215 149.336 81.8347 149.242C81.7413 149.148 81.5545 149.148 81.5545 149.242C81.5545 149.242 81.5545 149.242 81.4611 149.336C81.2743 149.524 81.6479 149.899 81.8347 149.617Z" fill="#342E31"/>
<path d="M80.9007 149.806C81.1809 149.618 81.2743 149.242 81.3677 148.96C81.5546 148.678 81.8348 148.396 81.8348 148.021C81.8348 147.927 81.7414 147.739 81.648 147.833C81.3678 147.927 81.1809 148.302 80.9941 148.584C80.8073 148.866 80.5271 149.242 80.5271 149.618C80.5271 149.806 80.7139 149.994 80.9007 149.806Z" fill="#342E31"/>
<path d="M51.7581 103.677C48.7691 106.495 46.434 110.253 43.912 113.541C41.2967 117.111 38.6813 120.775 36.2528 124.627C32.0495 131.297 29.2474 139.377 22.5222 143.98C21.9617 144.356 22.5222 145.296 23.0826 144.92C29.0606 140.88 31.7693 134.21 35.3187 128.197C37.6539 124.157 40.3626 120.305 43.0714 116.454C45.9669 112.414 49.89 108.468 52.0383 103.958C52.1317 103.771 51.9449 103.583 51.7581 103.677Z" fill="#342E31"/>
<path d="M51.6648 104.146C60.1647 124.345 41.6704 140.504 23.4564 144.074C22.8959 144.168 22.9893 145.202 23.5498 145.108C42.4176 142.571 62.0328 123.688 52.5988 103.583C52.2252 103.019 51.3846 103.583 51.6648 104.146Z" fill="#342E31"/>
<path d="M23.7365 144.732C23.1761 144.544 22.5223 145.014 22.1486 145.389C22.0552 145.483 21.5882 146.047 21.4948 146.047C21.2146 146.141 20.4673 145.389 20.2805 145.295C20.2805 145.483 20.1871 145.765 20.1871 145.953C21.308 145.577 22.5223 145.295 23.6431 144.92C24.1102 144.732 23.9233 143.98 23.4563 144.168C22.3354 144.544 21.2146 145.014 20.0003 145.202C19.7201 145.295 19.6267 145.671 19.8135 145.859C20.2805 146.235 21.1212 147.08 21.775 146.705C22.1486 146.423 22.3355 146.047 22.7091 145.765C23.0827 145.577 23.5497 145.483 23.9233 145.202C23.9233 145.014 23.9233 144.732 23.7365 144.732Z" fill="#342E31"/>
<path d="M21.4015 145.953C21.4949 145.953 21.5884 145.859 21.6818 145.859C22.2422 146.047 22.429 145.107 21.7752 145.107C21.495 145.107 21.2147 145.107 20.9345 145.107C21.0279 145.389 21.0279 145.577 21.1213 145.859C21.3081 145.859 21.495 145.765 21.6818 145.671C22.0554 145.483 21.8686 145.013 21.495 145.013C21.3081 145.013 21.1213 145.013 20.9345 145.107C20.5609 145.201 20.5609 145.765 20.9345 145.859C21.2147 145.859 21.495 145.859 21.7752 145.859C21.6818 145.671 21.5884 145.483 21.4015 145.201C21.3081 145.295 21.3081 145.295 21.2147 145.389C20.9345 145.671 21.1213 146.047 21.4015 145.953Z" fill="#342E31"/>
<path d="M23.2695 144.075C22.7091 144.075 22.2421 144.263 21.775 144.45C21.308 144.638 20.7476 144.732 20.4674 145.014C20.374 145.202 20.374 145.484 20.5608 145.484C21.0278 145.578 21.5882 145.296 22.0552 145.108C22.5223 144.92 22.9893 144.732 23.4563 144.45C23.6431 144.357 23.4563 144.075 23.2695 144.075Z" fill="#342E31"/>
<path d="M24.4838 144.451C23.9233 144.638 23.3629 144.732 22.8025 145.014C22.242 145.296 21.775 145.672 21.2146 146.142C20.841 146.423 21.2146 147.175 21.5882 146.893C22.0552 146.611 22.5222 146.236 22.9893 145.954C23.4563 145.672 24.0167 145.202 24.4838 145.014C24.8574 144.732 24.764 144.357 24.4838 144.451Z" fill="#342E31"/>
<path d="M24.2036 142.853C22.8959 143.699 21.2146 144.732 19.6267 145.014C19.1597 145.108 19.4399 145.954 19.9069 145.672C20.5608 145.202 21.4014 144.92 22.1487 144.451C22.8959 144.075 23.6431 143.605 24.297 143.135C24.5772 143.041 24.3904 142.759 24.2036 142.853Z" fill="#342E31"/>
<path d="M21.4014 145.671C21.308 145.577 21.1212 145.483 21.0278 145.577C20.9344 145.671 20.9344 145.765 21.0278 145.859C21.0278 145.859 21.0278 145.859 21.1212 145.953C21.308 146.235 21.6816 145.859 21.4014 145.671Z" fill="#342E31"/>
<path d="M21.5883 146.611C21.4015 146.329 21.0279 146.235 20.7476 146.047C20.4674 145.859 20.1872 145.578 19.8136 145.484C19.7202 145.484 19.5334 145.578 19.6268 145.672C19.7202 146.047 20.0938 146.141 20.374 146.329C20.6542 146.517 21.0279 146.893 21.4015 146.799C21.5883 146.893 21.6817 146.799 21.5883 146.611Z" fill="#342E31"/>
<path d="M52.0385 115.42C51.5714 124.345 43.1649 133.74 35.5991 137.592C35.2255 137.78 35.5991 138.437 35.9727 138.156C44.0056 133.928 51.7582 124.721 52.5989 115.42C52.6923 115.044 52.1319 115.044 52.0385 115.42Z" fill="#342E31"/>
<path d="M51.5713 112.977C51.5713 113.635 51.4779 114.292 51.2911 114.95C51.1977 115.42 50.9175 115.983 50.9175 116.547C50.9175 116.641 51.1043 116.735 51.1977 116.641C52.0384 115.89 51.9449 114.011 51.8515 112.977C51.8515 112.789 51.5713 112.789 51.5713 112.977Z" fill="#342E31"/>
<path d="M35.8793 135.901C35.5991 136.089 35.2255 136.277 35.1321 136.653C35.1321 136.747 35.2255 136.841 35.3189 136.841C35.6925 136.747 35.8793 136.371 36.1596 136.183C36.253 135.995 36.0661 135.713 35.8793 135.901Z" fill="#342E31"/>
<path d="M31.4892 138.156C31.5826 138.156 31.676 138.062 31.7694 137.968C31.8628 137.874 31.7694 137.686 31.676 137.78C31.5826 137.78 31.4892 137.874 31.3958 137.874C31.209 137.968 31.3024 138.25 31.4892 138.156Z" fill="#342E31"/>
<path d="M32.7969 136.465C33.7309 134.398 35.0386 132.425 35.8792 130.264C35.9726 130.171 35.6924 130.077 35.6924 130.171C34.4782 132.049 33.6375 134.21 32.5167 136.277C32.3299 136.465 32.7035 136.653 32.7969 136.465Z" fill="#342E31"/>
<path d="M37.4672 127.54C37.7474 127.07 38.0277 126.694 38.2145 126.224C38.2145 126.13 38.1211 126.037 38.0277 126.13C37.7474 126.506 37.4672 126.976 37.187 127.446C37.0936 127.54 37.3738 127.634 37.4672 127.54Z" fill="#342E31"/>
<path d="M40.643 122.655C40.7364 122.467 40.8298 122.185 41.0166 121.997C41.11 121.903 40.9232 121.809 40.8298 121.903C40.7364 122.091 40.5496 122.279 40.4562 122.561C40.2693 122.655 40.5496 122.843 40.643 122.655Z" fill="#342E31"/>
<path d="M49.9836 109.877C49.4232 110.816 48.7693 111.662 48.1155 112.601C47.4616 113.447 46.7144 114.293 46.2474 115.232C46.154 115.326 46.3408 115.514 46.4342 115.42C47.1814 114.856 47.7419 113.917 48.3023 113.165C49.0495 112.132 49.61 111.098 50.1704 110.065C50.3572 109.877 50.077 109.783 49.9836 109.877Z" fill="#342E31"/>
<path d="M48.6758 116.36C47.9285 117.393 46.9011 118.521 46.6208 119.742C46.6208 119.93 46.8077 120.024 46.9011 119.93C47.3681 119.46 47.6483 118.896 47.9285 118.333C48.3022 117.769 48.6758 117.111 49.0494 116.548C49.2362 116.36 48.8626 116.172 48.6758 116.36Z" fill="#342E31"/>
<path d="M44.7527 122.654C44.5659 122.936 44.3791 123.124 44.2857 123.406C44.1923 123.5 44.3791 123.594 44.4725 123.5C44.6593 123.218 44.8461 123.03 45.033 122.748C45.1264 122.654 44.8461 122.466 44.7527 122.654Z" fill="#342E31"/>
<path d="M46.7143 126.225C46.0605 127.258 45.3132 128.197 44.4726 129.043C43.7253 129.795 42.7913 130.452 42.1375 131.298C41.9506 131.486 42.1375 131.861 42.4177 131.674C43.4451 131.11 44.2858 130.076 44.9396 129.231C45.6869 128.291 46.4341 127.352 46.9946 126.412C47.2748 126.225 46.9011 126.037 46.7143 126.225Z" fill="#342E31"/>
<path d="M32.7033 139.565C31.6759 139.847 30.4616 140.316 29.621 141.068C29.5276 141.162 29.621 141.256 29.7144 141.256C30.7418 141.162 31.9561 140.504 32.7967 139.941C33.0769 139.847 32.9835 139.471 32.7033 139.565Z" fill="#342E31"/>
<path d="M61.5657 157.791V157.885C61.3789 158.919 60.3514 160.891 58.7635 161.925C57.8295 162.489 56.8954 162.677 55.868 162.489C54.8405 162.207 53.9064 159.482 53.9064 159.482C53.7196 159.013 53.7196 158.543 53.813 157.979C53.6262 158.073 53.5328 158.167 53.346 158.261C52.9724 158.543 52.5054 158.825 52.0383 159.013C51.0109 159.482 49.7032 159.388 49.1428 158.355C48.6757 157.509 49.0494 156.664 49.3296 155.912C49.423 155.63 49.6098 155.349 49.6098 155.067C48.6757 155.349 47.6483 155.349 46.6208 155.255C46.2472 155.161 45.7802 155.067 45.4066 154.785C44.9395 154.503 44.6593 153.939 44.6593 153.282C44.5659 152.53 44.9395 151.685 45.5 151.121C46.2472 150.463 47.1813 150.087 48.1153 149.9C47.5549 149.336 47.1813 148.772 46.9945 148.115C46.6208 147.081 47.3681 145.954 48.2087 145.578C48.956 145.202 49.89 145.296 51.0109 145.672C51.3845 145.86 51.7581 145.954 52.1318 146.142C52.3186 146.236 52.5054 146.33 52.6922 146.423C52.7856 145.954 53.0658 145.484 53.9064 144.826C54.3735 144.545 54.8405 144.451 55.3075 144.545C55.7746 144.638 56.4284 145.108 56.9888 146.236C57.0822 146.423 56.9888 146.611 56.802 146.705C56.6152 146.799 56.4284 146.705 56.335 146.517C56.0548 145.766 55.5877 145.296 55.2141 145.202C54.9339 145.108 54.7471 145.202 54.4669 145.39C53.9065 145.766 53.346 146.33 53.6262 146.705C53.7196 146.799 53.7196 146.987 53.6262 147.175C53.5328 147.269 53.346 147.363 53.1592 147.269C52.6922 147.081 52.3186 146.893 51.8515 146.705C51.4779 146.517 51.1043 146.33 50.7307 146.236C50.0768 146.048 49.2362 145.86 48.4889 146.142C47.9285 146.423 47.3681 147.175 47.6483 147.739C47.9285 148.396 48.3955 149.054 49.1428 149.712C49.2362 149.806 49.3296 149.993 49.2362 150.087C49.2362 150.181 49.0494 150.369 48.956 150.369C48.0219 150.557 46.8076 150.745 45.967 151.497C45.5934 151.872 45.3132 152.53 45.4066 153C45.4066 153.282 45.5 153.657 45.8736 153.845C46.1538 154.033 46.5274 154.127 46.8076 154.127C47.8351 154.315 48.956 154.221 49.9834 153.845C50.0768 153.845 50.2636 153.845 50.357 153.845C50.4504 153.939 50.5439 154.033 50.5439 154.127C50.5439 154.691 50.357 155.349 50.0768 155.818C49.7966 156.476 49.6098 157.04 49.7966 157.603C50.1702 158.167 51.1043 158.261 51.7581 157.885C52.1317 157.697 52.5054 157.415 52.879 157.134C53.2526 156.852 53.6262 156.57 53.9999 156.382C54.0933 156.288 54.2801 156.288 54.3735 156.382C54.4669 156.476 54.5603 156.57 54.5603 156.758C54.4669 157.415 54.3735 158.073 54.5603 158.637C54.8405 159.576 55.6811 161.079 55.9614 161.079C56.802 161.267 57.5493 161.079 58.2965 160.61C59.6042 159.764 60.5382 157.979 60.725 157.04C60.725 156.852 61.0053 156.664 61.1921 156.758C61.3789 157.509 61.5657 157.697 61.5657 157.791Z" fill="#342E31"/>
<path d="M67.0766 138.626C67.4502 141.632 66.236 144.826 63.9008 146.799C63.714 146.893 63.5272 146.893 63.3404 146.799C63.247 146.611 63.247 146.423 63.3404 146.235C65.4887 144.356 66.6096 141.256 66.1426 138.438C66.0492 137.686 65.6755 136.465 64.6481 135.995C63.8074 135.619 62.78 135.995 61.8459 136.465C61.7525 136.559 61.5657 136.465 61.4723 136.465C61.3789 136.371 61.2855 136.277 61.2855 136.089C61.4723 135.149 61.5657 134.116 61.4723 133.177C61.2855 132.143 60.7251 131.016 59.6976 130.734C59.2306 130.64 58.6701 130.828 58.2965 131.204C58.1097 131.392 57.9229 131.767 58.0163 132.143C58.1097 132.331 58.0163 132.519 57.8295 132.613C57.6427 132.707 57.4559 132.613 57.3625 132.425C56.8954 131.579 55.9614 131.016 55.1207 130.922C54.1867 130.828 53.2526 131.392 52.879 132.237C52.5988 132.989 52.879 133.928 53.4394 134.398C53.5329 134.398 53.6263 134.492 53.7197 134.586C53.9065 134.68 53.9065 134.962 53.8131 135.056C53.7197 135.243 53.5328 135.243 53.346 135.243C53.2526 135.243 53.1592 135.149 53.0658 135.149C52.7856 135.056 52.5988 135.149 52.412 135.149C52.0384 135.337 51.6648 135.713 51.6648 136.089C51.5713 136.841 51.945 137.592 52.7856 138.25C53.1592 138.532 53.5329 138.813 53.9065 139.001C54.3735 139.283 54.8405 139.565 55.2141 139.941C55.3075 140.035 55.401 140.223 55.3076 140.411C55.2141 140.599 55.0273 140.692 54.9339 140.599C53.8131 140.411 52.6922 140.411 51.5713 140.599C51.1977 140.692 50.6373 140.786 50.4505 141.162C50.3571 141.35 50.2637 141.538 50.3571 141.82C50.4505 142.29 50.8241 142.853 51.3845 143.135C52.1318 143.605 52.879 143.887 53.7197 144.075C54.2801 144.262 54.8405 144.45 55.401 144.638C56.802 145.296 57.3625 146.141 57.1757 147.926C57.1757 148.114 56.9889 148.302 56.802 148.302C56.6152 148.302 56.4284 148.114 56.4284 147.926C56.6152 146.517 56.2416 145.954 55.1207 145.484C54.6537 145.296 54.0933 145.108 53.5329 144.92C52.6922 144.638 51.7581 144.356 51.0109 143.887C50.3571 143.417 49.7966 142.759 49.7032 142.008C49.6098 141.538 49.7032 141.068 49.9835 140.786C50.3571 140.223 51.1043 140.035 51.5713 139.941C52.3186 139.847 53.0658 139.753 53.7197 139.753C53.7197 139.753 53.6263 139.753 53.6263 139.659C53.2526 139.377 52.7856 139.095 52.412 138.813C51.3845 137.968 50.9175 136.935 51.0109 135.901C51.1043 135.243 51.5713 134.586 52.2252 134.304C52.3186 134.304 52.3186 134.21 52.412 134.21C51.945 133.552 51.8516 132.613 52.2252 131.861C52.6922 130.734 53.9065 129.982 55.2141 130.076C56.0548 130.17 56.802 130.546 57.4559 131.11C57.5493 130.922 57.6427 130.734 57.8295 130.546C58.3899 129.888 59.2306 129.607 59.9778 129.794C61.3789 130.17 62.1261 131.673 62.3129 132.801C62.4063 133.646 62.4063 134.492 62.2195 135.243C63.1536 134.868 64.0876 134.68 65.0217 135.056C66.4228 135.619 66.7964 137.216 66.9832 138.062C67.0766 138.344 67.0766 138.532 67.0766 138.626Z" fill="#342E31"/>
<path d="M76.0438 144.826C76.1372 145.859 75.5767 146.799 74.9229 147.363C74.5493 147.644 74.1757 147.832 73.802 148.02C74.2691 148.114 74.8295 148.302 75.2965 148.584C75.7635 148.866 76.324 149.336 76.5108 149.993C76.6042 150.369 76.5108 150.651 76.324 150.933C76.0438 151.402 75.5767 151.496 75.1097 151.59C74.5493 151.684 73.9888 151.778 73.4284 151.872C73.6152 152.06 73.802 152.154 73.8954 152.436C74.1756 152.906 74.2691 153.469 74.1757 153.939C74.0822 154.315 73.802 154.691 73.4284 154.785C72.868 155.066 72.3075 154.879 71.8405 154.691C69.879 154.127 64.3681 154.691 63.3406 156.476C63.2472 156.664 62.967 156.757 62.7802 156.57C62.5934 156.476 62.5 156.194 62.6868 156.006C63.9945 153.657 70.1592 153.281 72.0273 153.845C72.4009 153.939 72.868 154.127 73.1482 153.939C73.335 153.845 73.4284 153.657 73.4284 153.563C73.5218 153.281 73.4284 152.906 73.335 152.718C72.9614 152.248 72.3076 151.966 71.7471 151.684C71.5603 151.59 71.4669 151.402 71.5603 151.215C71.5603 151.027 71.7471 150.933 71.9339 150.933C72.9614 151.027 73.9888 150.933 74.9229 150.745C75.2031 150.651 75.4833 150.557 75.6701 150.369C75.7635 150.275 75.7635 150.181 75.7635 149.993C75.6701 149.711 75.2965 149.336 74.9229 149.054C73.9888 148.584 73.0548 148.302 72.0273 148.396C71.8405 148.396 71.6537 148.302 71.6537 148.114C71.6537 147.926 71.7471 147.738 71.9339 147.644C72.7746 147.457 73.802 147.175 74.4559 146.611C75.1097 146.141 75.5767 145.202 75.2031 144.45C74.9229 143.699 74.0823 143.417 73.335 143.417C72.5878 143.417 71.8405 143.793 70.9999 144.45C70.7197 144.638 70.4394 144.92 70.1592 145.108C69.6922 145.484 69.3186 145.859 68.7581 146.141C68.5713 146.235 68.3845 146.235 68.2911 146.047C68.1977 145.953 68.1977 145.672 68.2911 145.578C68.3845 145.39 68.3845 145.202 68.3845 145.014C68.2911 144.732 68.1043 144.45 67.8241 144.356C67.1702 144.074 66.423 144.45 66.0494 144.732C65.3021 145.202 64.6483 145.953 64.1813 146.705C64.0879 146.893 63.9011 146.987 63.7143 146.893C63.5274 146.799 63.434 146.517 63.5274 146.423C63.9945 145.484 64.7417 144.638 65.6758 144.168C66.5164 143.699 67.3571 143.511 68.1043 143.793C68.5713 143.981 68.945 144.45 69.1318 144.92V145.014C69.3186 144.826 69.5054 144.732 69.6922 144.544C69.9724 144.262 70.2526 144.074 70.5328 143.887C71.4669 143.135 72.4009 142.759 73.2416 142.759C74.4559 142.665 75.4833 143.323 75.857 144.262C75.9504 144.45 76.0438 144.638 76.0438 144.826Z" fill="#342E31"/>
<path d="M58.8571 153.187C55.9615 153.093 53.066 153.187 50.1704 153.187C49.8902 153.187 49.9836 153.657 50.2638 153.657C53.1594 153.657 56.0549 153.751 58.9505 153.751C59.1373 153.751 59.1373 153.187 58.8571 153.187Z" fill="#342E31"/>
<path d="M60.0712 147.926C59.0438 143.605 57.4559 139.095 57.0823 134.68C57.0823 134.398 56.6152 134.492 56.6152 134.774C56.7086 139.001 57.9229 144.168 59.6042 148.114C59.6976 148.208 60.0712 148.208 60.0712 147.926Z" fill="#342E31"/>
<path d="M62.8734 151.778C63.9943 151.309 65.1151 150.839 66.3294 150.557C67.4503 150.181 68.6645 150.087 69.8788 149.618C69.9722 149.524 69.9722 149.336 69.8788 149.336C67.5437 149.242 64.8349 150.275 62.8734 151.403C62.4998 151.591 62.6866 151.872 62.8734 151.778Z" fill="#342E31"/>
<path d="M61.5658 142.102C60.7252 143.323 59.9779 144.639 59.1373 145.86C58.9505 146.236 59.4175 146.518 59.6043 146.142C60.3515 144.826 61.0988 143.605 61.846 142.29C61.9394 142.102 61.6592 141.914 61.5658 142.102Z" fill="#342E31"/>
<path d="M54.2803 142.383C54.8407 142.665 55.4946 142.759 56.055 142.853C56.8022 142.947 57.5495 143.228 58.2967 143.604C58.6703 143.698 58.8571 143.228 58.4835 143.041C57.9231 142.853 57.2693 142.571 56.7088 142.477C55.9616 142.289 55.2143 142.289 54.3737 142.101C54.1869 142.101 54.0935 142.383 54.2803 142.383Z" fill="#342E31"/>
<path d="M59.2307 134.491C58.6702 136.089 57.6428 137.592 57.3625 139.283C57.3625 139.565 57.7362 139.659 57.8296 139.377C58.39 137.78 59.1373 136.276 59.6043 134.585C59.6977 134.397 59.3241 134.21 59.2307 134.491Z" fill="#342E31"/>
<path d="M55.2143 136.465C55.8682 137.028 56.4286 137.592 56.989 138.156C57.2693 138.438 57.8297 138.062 57.5495 137.78C56.8956 137.122 56.1484 136.559 55.4012 136.183C55.2144 135.995 55.0275 136.371 55.2143 136.465Z" fill="#342E31"/>
<path d="M56.8021 159.106C57.0823 157.133 58.1098 155.442 58.9504 153.751C59.1372 153.469 58.6702 153.187 58.4834 153.469C57.3625 155.066 56.5219 157.039 56.4285 159.012C56.4285 159.294 56.8021 159.294 56.8021 159.106Z" fill="#342E31"/>
<path d="M54.467 149.336C54.9341 151.027 56.1484 152.154 57.1758 153.47C57.3626 153.752 57.7363 153.47 57.5494 153.188C56.6154 151.873 55.5879 150.557 54.8407 149.148C54.7473 148.96 54.467 149.148 54.467 149.336Z" fill="#342E31"/>
<path d="M52.5988 156.194C53.0658 155.066 54.1867 154.409 55.0273 153.563C55.2141 153.375 54.9339 153 54.7471 153.187C53.8131 154.033 52.6922 154.785 52.3186 156.006C52.2252 156.194 52.5054 156.382 52.5988 156.194Z" fill="#342E31"/>
<path d="M53.3472 153.282C53.3472 153.187 53.1592 153.187 53.1592 153.282C53.1592 153.472 53.3472 153.472 53.3472 153.282Z" fill="#342E31"/>
<path d="M53.3463 153.187C52.9727 152.905 52.6924 152.717 52.3188 152.342C52.0386 152.06 51.665 151.684 51.2914 151.496C51.198 151.402 51.0112 151.496 51.1046 151.684C51.4782 152.436 52.3188 153.093 53.0661 153.563C53.3463 153.657 53.6265 153.375 53.3463 153.187Z" fill="#342E31"/>
<path d="M70.4393 152.154C68.0108 151.496 65.5823 151.12 63.0603 151.308C62.7801 151.308 62.8735 151.778 63.1537 151.684C64.5548 151.684 65.9559 151.684 67.2636 151.966C68.291 152.154 69.4119 152.529 70.4393 152.529C70.7196 152.623 70.6262 152.248 70.4393 152.154Z" fill="#342E31"/>
<path d="M70.346 146.329C69.0383 147.644 67.7306 148.96 66.3296 150.087C66.1428 150.181 66.3296 150.463 66.5164 150.369C68.1043 149.242 69.4119 148.114 70.5328 146.611C70.7196 146.423 70.5328 146.141 70.346 146.329Z" fill="#342E31"/>
<path d="M65.9559 147.926C65.6757 148.49 65.4889 149.148 65.1152 149.711C64.835 150.275 64.2746 150.651 63.9944 151.12C63.9944 151.214 64.0878 151.308 64.0878 151.214C65.302 150.557 65.8625 149.241 66.3295 148.02C66.4229 147.832 66.0493 147.644 65.9559 147.926Z" fill="#342E31"/>
<path d="M52.9725 142.571C52.6923 142.383 52.3187 142.101 51.9451 142.101C51.8516 142.101 51.8516 142.195 51.9451 142.195C52.2253 142.383 52.5989 142.477 52.8791 142.665C52.9725 142.759 53.0659 142.571 52.9725 142.571Z" fill="#342E31"/>
<path d="M56.5219 132.988C56.2416 132.801 55.6812 132.425 55.3076 132.707C55.2142 132.707 55.2142 132.895 55.3076 132.895C55.4944 132.988 55.5878 132.988 55.7746 132.988C55.9614 132.988 56.2416 133.176 56.4285 133.27C56.4285 133.364 56.6153 133.082 56.5219 132.988Z" fill="#342E31"/>
<path d="M56.055 132.143C55.6813 132.049 55.3077 131.955 54.9341 131.861C54.8407 131.861 54.7473 132.049 54.8407 132.049C55.2143 132.143 55.5879 132.237 55.9616 132.331C56.1484 132.425 56.1484 132.237 56.055 132.143Z" fill="#342E31"/>
<path d="M63.8076 143.135C63.9944 142.759 64.2746 142.195 64.1812 141.726C64.1812 141.632 63.9944 141.632 63.9944 141.726C63.901 141.914 63.901 142.195 63.8076 142.383C63.7142 142.571 63.6208 142.853 63.5273 143.041C63.5273 143.135 63.7142 143.229 63.8076 143.135Z" fill="#342E31"/>
<path d="M64.7416 142.759C64.8351 142.384 65.1153 141.82 65.0219 141.444C65.0219 141.256 64.8351 141.256 64.7416 141.444C64.5548 141.82 64.4614 142.29 64.4614 142.759C64.4614 142.853 64.6482 142.947 64.7416 142.759Z" fill="#342E31"/>
<path d="M63.1537 154.596C63.7141 154.221 64.368 153.845 64.9284 153.375C65.0218 153.281 64.9284 153.093 64.835 153.187C64.1812 153.469 63.6207 154.033 63.0603 154.409C62.8735 154.503 62.9669 154.69 63.1537 154.596Z" fill="#342E31"/>
<path d="M63.247 153.845C63.5272 153.751 63.8074 153.563 64.0876 153.375C64.181 153.281 64.0876 153.187 63.9942 153.187C63.714 153.281 63.4338 153.375 63.1536 153.563C62.9668 153.657 63.0602 153.939 63.247 153.845Z" fill="#342E31"/>
<path d="M60.3515 152.248C59.9779 151.872 59.6042 151.402 59.1372 151.121C59.0438 151.027 58.9504 151.215 59.0438 151.308C59.4174 151.684 59.8845 152.06 60.2581 152.436C60.2581 152.53 60.4449 152.342 60.3515 152.248Z" fill="#342E31"/>
<path d="M51.6648 148.96C51.1043 148.678 50.4505 148.302 49.7967 148.114C49.7032 148.114 49.6098 148.208 49.7032 148.302C50.2637 148.678 50.9175 148.866 51.5714 149.147C51.7582 149.241 51.8516 148.96 51.6648 148.96Z" fill="#342E31"/>
<path d="M50.7307 149.242C50.4505 149.054 50.0769 148.96 49.7967 148.772C49.7032 148.772 49.6098 148.866 49.7032 148.866C49.9835 149.054 50.3571 149.148 50.6373 149.336C50.7307 149.524 50.8241 149.336 50.7307 149.242Z" fill="#342E31"/>
<path d="M59.7912 154.879C59.978 154.597 60.2582 154.409 60.3516 154.127C60.445 154.033 60.2582 153.939 60.1648 153.939C59.8846 154.127 59.6977 154.409 59.5109 154.691C59.4175 154.879 59.6043 155.067 59.7912 154.879Z" fill="#342E31"/>
<path d="M59.6978 150.745C59.6043 150.745 59.5109 150.651 59.4175 150.651C59.3241 150.651 59.2307 150.651 59.2307 150.745C59.2307 151.027 59.4175 151.121 59.6044 151.121C59.8846 151.121 59.978 150.745 59.6978 150.745Z" fill="#342E31"/>
<path d="M63.3406 151.496C63.8076 150.933 64.1812 150.369 64.5549 149.711C64.9285 149.242 65.3021 148.678 65.4889 148.114C65.4889 148.02 65.3021 147.926 65.2087 147.926C64.7417 148.302 64.4615 148.96 64.1812 149.429C63.8076 149.993 63.434 150.557 63.0604 151.121C62.8736 151.402 63.1538 151.684 63.3406 151.496Z" fill="#342E31"/>
<path d="M60.1647 141.068C60.7252 140.599 61.0988 140.035 61.6592 139.565C62.2197 139.001 62.8735 138.532 63.3405 137.968C63.4339 137.874 63.3405 137.592 63.1537 137.686C62.4999 137.968 62.0329 138.626 61.4724 139.095C60.912 139.659 60.3515 140.223 59.8845 140.88C59.7911 141.068 60.0713 141.162 60.1647 141.068Z" fill="#342E31"/>
<path d="M16.7313 107.246C16.8247 107.246 16.9181 107.34 16.9181 107.34C17.1049 107.528 17.0115 107.716 16.9181 107.904C8.9786 115.232 3.00067 118.238 -6.8069 119.835C-6.99371 119.835 -7.18052 119.741 -7.27393 119.554C-7.27393 119.366 -7.18052 119.178 -6.99371 119.084C2.72045 117.581 8.41817 114.668 16.2642 107.34C16.451 107.246 16.5444 107.246 16.7313 107.246Z" fill="#342E31"/>
<path d="M15.2367 105.368C15.3302 105.368 15.3302 105.368 15.4236 105.462C15.6104 105.556 15.6104 105.838 15.4236 106.026C10.3797 111.757 -0.455348 117.393 -7.36734 117.769C-7.55415 117.769 -7.74097 117.581 -7.74097 117.393C-7.74097 117.206 -7.55415 117.018 -7.36734 117.018C-0.642159 116.642 9.91264 111.193 14.8631 105.556C14.9565 105.368 15.1433 105.274 15.2367 105.368Z" fill="#342E31"/>
<path d="M15.8905 106.777C9.16532 112.508 2.34673 116.266 -6.24656 118.145C-6.43337 118.145 -6.33997 118.521 -6.15316 118.521C1.9731 117.299 10.473 113.072 16.0773 106.965C16.0773 106.871 15.9839 106.683 15.8905 106.777Z" fill="#342E31"/>
<path d="M37.0937 163.334C35.0387 149.523 20.7477 156.194 13.3687 161.549C9.81929 164.085 3.28091 167.937 2.72048 172.917C2.53366 174.138 2.62707 175.171 3.65453 176.017C6.45669 178.647 10.9402 175.829 12.1544 181.466C12.3412 182.217 13.4621 182.03 13.3687 181.278C13.0885 178.835 11.7808 176.862 9.44567 176.017C8.97864 175.829 8.23139 175.829 7.76437 175.641C6.6435 175.171 4.58858 173.574 4.49518 172.071C4.40177 170.004 8.13799 167.468 9.63247 166.246C13.4621 163.146 17.4785 160.046 22.0554 158.073C24.4839 157.039 27.2861 156.006 30.0883 156.288C33.9179 156.757 35.4124 160.421 36.5332 163.616C36.4398 164.085 37.0937 163.804 37.0937 163.334Z" fill="#342E31"/>
<path d="M39.7089 159.576C40.8297 154.221 35.8793 149.524 30.6486 149.43C23.4564 149.336 17.0114 154.315 11.5005 158.261C6.7368 161.643 0.758862 166.434 -0.175191 172.729C-0.455407 174.89 -0.175191 177.145 1.69292 178.554C2.44016 179.211 3.28081 179.399 4.21486 179.587C6.45659 180.151 6.45659 179.681 8.69831 181.466C10.5664 182.969 12.0609 184.472 10.0994 187.009C9.72577 187.479 10.473 187.949 10.8466 187.573C12.5279 185.6 12.2477 181.748 10.2862 180.057C9.16534 179.023 8.04448 179.211 6.7368 178.742C-0.642216 176.299 0.291837 171.883 3.93464 166.904C7.39064 162.207 12.4345 159.012 17.1982 155.912C20.1872 153.939 23.1761 151.966 26.6321 151.121C32.0496 149.712 40.0825 152.436 38.7748 159.482C38.6814 160.046 39.5221 160.14 39.7089 159.576Z" fill="#342E31"/>
<path d="M33.0772 152.53C32.0497 152.154 30.6486 151.591 29.5278 151.873C29.4344 151.873 29.341 152.06 29.5278 152.154C29.9948 152.342 30.5552 152.342 31.0223 152.436C31.6761 152.53 32.2365 152.718 32.8904 153C33.1706 153 33.3574 152.624 33.0772 152.53Z" fill="#342E31"/>
<path d="M29.7145 152.812C28.9672 152.718 28.1266 152.624 27.3793 152.718C27.1925 152.718 27.2859 152.906 27.3793 152.999C28.1266 153.093 28.8738 153.093 29.621 153.187C29.8079 153.187 29.9013 152.812 29.7145 152.812Z" fill="#342E31"/>
<path d="M34.4782 154.973C34.9452 154.691 34.198 153.751 33.731 154.127C33.731 154.127 33.731 154.221 33.731 154.315C33.9178 154.409 34.0112 154.409 34.1046 154.503C34.198 154.597 34.198 154.785 34.2914 154.879C34.3848 155.066 34.3848 155.066 34.4782 154.973Z" fill="#342E31"/>
<path d="M41.4792 43.7859L40.0682 45.1319C39.0517 44.1224 37.9441 43.3729 36.7455 42.8528C35.5318 42.3327 34.3635 42.0727 33.2256 42.0727C31.7994 42.0727 30.4491 42.4245 29.1595 43.1281C27.8698 43.8318 26.8685 44.7954 26.1705 46.0038C25.4575 47.2122 25.1085 48.4818 25.1085 49.8279C25.1085 51.2045 25.4726 52.52 26.2009 53.759C26.9292 54.998 27.9457 55.9769 29.2353 56.6806C30.5249 57.3842 31.9511 57.7513 33.4835 57.7513C35.3497 57.7513 36.9276 57.2159 38.2324 56.1605C39.522 55.1051 40.2958 53.7131 40.5234 52.0305H34.7125V50.2562H42.5413C42.5261 53.086 41.6916 55.3345 40.0379 57.0018C38.3841 58.6691 36.1842 59.4951 33.4077 59.4951C30.0546 59.4951 27.3843 58.3479 25.4271 56.0381C23.9402 54.2485 23.1816 52.1988 23.1816 49.8738C23.1816 48.13 23.6065 46.5239 24.4713 45.0249C25.3361 43.5258 26.5347 42.3633 28.0367 41.522C29.5388 40.6807 31.2532 40.2524 33.1497 40.2524C34.6821 40.2524 36.1386 40.5278 37.5041 41.0937C38.8544 41.6597 40.1896 42.5469 41.4792 43.7859Z" fill="#403736"/>
<path d="M46.1067 40.7112H49.7328C51.7507 40.7112 53.1162 40.7877 53.8293 40.9559C54.9065 41.2007 55.7865 41.736 56.4541 42.562C57.1368 43.388 57.4706 44.3823 57.4706 45.5907C57.4706 46.5849 57.243 47.4721 56.7727 48.2216C56.3024 48.9711 55.65 49.5524 54.7851 49.9348C53.9203 50.3172 52.7217 50.5161 51.2045 50.5313L57.7437 59.036H55.4982L48.959 50.5313H47.9273V59.036H46.1067V40.7112ZM47.9273 42.5008V48.7264L51.0528 48.757C52.2666 48.757 53.1617 48.6346 53.7383 48.4052C54.3148 48.1757 54.77 47.8086 55.1038 47.2886C55.4224 46.7838 55.5893 46.2025 55.5893 45.5754C55.5893 44.9635 55.4224 44.3976 55.0886 43.8928C54.7548 43.388 54.33 43.0362 53.7838 42.8221C53.2528 42.6079 52.3576 42.5008 51.1135 42.5008H47.9273Z" fill="#403736"/>
<path d="M68.7892 40.7112L77.2552 59.036H75.298L72.4456 53.0093H64.6168L61.7796 59.036H59.7466L68.3492 40.7112H68.7892ZM68.5616 44.6117L65.4513 51.2503H71.6567L68.5616 44.6117Z" fill="#403736"/>
<path d="M80.0923 59.036V40.7112H80.4868L92.5789 54.7531V40.7112H94.3693V59.036H93.9596L81.9585 45.1624V59.036H80.0923Z" fill="#403736"/>
<path d="M53.3741 57.8738C56.1203 57.8738 58.4264 58.8068 60.2774 60.6577C62.1284 62.5085 63.0539 64.7877 63.0539 67.4951C63.0539 70.1719 62.1284 72.4511 60.2774 74.3172C58.4416 76.1833 56.181 77.1164 53.5258 77.1164C50.8252 77.1164 48.5494 76.1833 46.6984 74.3325C44.8474 72.4664 43.9219 70.2178 43.9219 67.5869C43.9219 65.8278 44.3467 64.1911 45.1963 62.6921C46.046 61.1931 47.1991 60.0152 48.6556 59.1587C50.0969 58.3021 51.6748 57.8738 53.3741 57.8738ZM53.4651 59.6634C52.1148 59.6634 50.8404 60.0153 49.6418 60.7189C48.4432 61.4225 47.5025 62.3709 46.8198 63.5793C46.137 64.7724 45.8032 66.1031 45.8032 67.5869C45.8032 69.7589 46.5467 71.6098 48.0487 73.1088C49.5507 74.6078 51.3562 75.3574 53.4651 75.3574C54.8762 75.3574 56.181 75.0055 57.3796 74.3172C58.5782 73.6289 59.5188 72.6805 60.1864 71.4874C60.854 70.2943 61.1878 68.9635 61.1878 67.4951C61.1878 66.042 60.854 64.7265 60.1864 63.5487C59.5188 62.3709 58.563 61.4378 57.3492 60.7189C56.1203 60.0153 54.8306 59.6634 53.4651 59.6634Z" fill="#403736"/>
<path d="M66.7104 58.3325H68.5311V74.883H75.5255V76.6574H66.7256V58.3325H66.7104Z" fill="#403736"/>
<path d="M85.8273 58.3325L94.2933 76.6574H92.3361L89.4838 70.6307H81.6549L78.8177 76.6574H76.7847L85.3721 58.3325H85.8273ZM85.5997 62.2331L82.4742 68.8563H88.6796L85.5997 62.2331Z" fill="#403736"/>
<path d="M46.4406 61.0554C46.3344 61.2084 44.5289 63.8546 42.0103 66.5621C41.9193 66.6691 41.8131 66.7762 41.7069 66.8833C41.3124 66.7303 40.4021 66.3938 39.2186 66.0573C37.6104 65.5984 35.5166 65.1395 33.4684 65.1395C32.3305 65.1395 31.2078 65.2772 30.2064 65.6596C27.9609 66.5009 26.292 67.8928 25.1693 69.0553C24.0465 70.2331 23.4852 71.1815 23.47 71.2121L23.2576 71.5792L23.6065 71.824C23.6369 71.8392 24.2893 72.2981 25.503 72.7417C26.7168 73.1853 28.4768 73.6289 30.7223 73.6289C31.6174 73.6289 32.5884 73.5524 33.6353 73.3842C35.2739 73.1088 36.9125 72.2217 38.4752 71.0591C40.8117 69.3154 42.9965 66.9445 44.5896 65.0171C46.1827 63.0745 47.1992 61.5755 47.2144 61.5755L46.4406 61.0554ZM37.838 70.3861C36.3663 71.4721 34.8491 72.2675 33.4684 72.4817C32.4822 72.6499 31.5567 72.7111 30.7071 72.7111C28.583 72.7111 26.9292 72.2981 25.8065 71.8698C25.2451 71.6557 24.8203 71.4568 24.532 71.3039C24.5169 71.3039 24.5169 71.2886 24.5017 71.2886C24.7596 70.9215 25.1996 70.3249 25.8368 69.6672C26.8837 68.5659 28.4616 67.2963 30.5098 66.5162C31.3747 66.1949 32.3912 66.0573 33.4532 66.0573C35.198 66.0573 37.0642 66.4244 38.5511 66.8221C38.3842 66.9751 38.1718 67.1433 37.9138 67.3422C37.3373 67.8011 36.5787 68.3517 35.8656 68.7341C35.1222 69.1318 34.1663 69.5448 33.4229 69.8354C33.0436 69.9884 32.7098 70.1108 32.4822 70.1873C32.3608 70.2331 32.2698 70.2637 32.2091 70.279C32.1788 70.2943 32.1484 70.2943 32.1333 70.3096C32.1181 70.3096 32.1029 70.3249 32.1029 70.3249C31.8602 70.4014 31.7388 70.6614 31.8146 70.9062C31.8905 71.1509 32.1484 71.2733 32.3912 71.1968C32.3912 71.1968 32.9677 70.998 33.7415 70.692C34.5153 70.3861 35.4863 69.9731 36.2904 69.5448C37.1097 69.1012 37.9138 68.5047 38.5359 68.0152C39.1428 67.5257 39.5524 67.1433 39.5676 67.1433L39.5828 67.128C40.0835 67.281 40.5083 67.4339 40.8269 67.541C40.8876 67.5563 40.9331 67.5869 40.9786 67.6022C40.0228 68.5965 38.9455 69.5754 37.838 70.3861Z" fill="#403736"/>
<path d="M70.4468 2.48738C97.2069 -8.45996 121.373 -22.4753 149.848 -29.0107C182.823 -36.5786 216.968 -39.8381 250.795 -39.8381C278.02 -39.8381 304.209 -30.7099 326.587 -15.0115C334.247 -9.63798 341.44 -3.6908 348.461 2.48738C353.171 6.63256 355.209 12.3965 358.851 17.2521" stroke="black" stroke-linecap="round" stroke-linejoin="round"/>
</g>
<rect x="2" y="2" width="116" height="152" rx="2" stroke="#342E31" stroke-width="3"/>
<defs>
<clipPath id="clip0">
<rect x="2" y="2" width="116" height="152" rx="2" fill="white"/>
</clipPath>
</defs>
</svg>
