<svg width="31" height="31" viewBox="0 0 31 31" fill="none" xmlns="http://www.w3.org/2000/svg">
<path d="M22.415 17.3257C22.3339 16.8301 22.1067 16.352 21.7247 15.97C21.1741 15.4195 20.4314 15.1923 19.7136 15.2659L23.5972 11.3823C24.5684 10.4111 24.5684 8.82192 23.5972 7.85195C22.626 6.88073 21.0368 6.88073 20.0669 7.85195L11.6679 16.2509L11.6692 15.0013C11.6692 13.6243 11.1112 12.3772 10.2086 11.4747C9.55573 10.8218 8.72183 10.3524 7.78931 10.1402C7.72564 10.1227 7.65699 10.1165 7.58583 10.1165C7.08399 10.1152 6.67703 10.5222 6.67703 11.0253L6.67578 22.9146C6.67578 22.9158 6.67578 22.9195 6.67578 22.9233V23.1193L6.68452 23.1118C6.73071 25.1141 7.51218 27.104 9.04141 28.632C12.1985 31.7891 17.3142 31.7891 20.4713 28.632L23.375 25.7283C24.0241 25.0792 24.2363 24.1592 24.0166 23.3278L22.415 17.3257ZM22.4924 24.8445L19.5887 27.7482C16.9235 30.4134 12.5892 30.4134 9.92524 27.7482C8.68313 26.5061 7.97532 24.8482 7.93287 23.0818L7.92538 11.4734C8.44969 11.6582 8.92781 11.9603 9.32478 12.3585C10.0314 13.0651 10.4208 14.0026 10.4196 15.0025V17.3095C10.4196 17.5242 10.5457 17.7202 10.7417 17.8075C11.1986 18.0123 11.7491 17.9336 12.1248 17.5579L20.9494 8.73328C21.4363 8.24643 22.229 8.24643 22.7146 8.73328C23.2015 9.22014 23.2015 10.0128 22.7146 10.4985L17.5926 15.6204C17.4066 15.8064 17.3567 16.0911 17.4703 16.3295C17.5839 16.5679 17.8348 16.709 18.097 16.6828L19.8409 16.5068C20.0644 16.4843 20.49 16.4993 20.8433 16.8526C21.0705 17.0798 21.1542 17.3469 21.1841 17.5292L22.8045 23.6486C22.9206 24.0868 22.8032 24.5337 22.4924 24.8445Z" fill="#76C040"/>
<path d="M14.1421 0L13.2595 0.882585L15.519 3.1421H9.16992V4.39045H15.519L13.2645 6.64622L14.1471 7.52881L17.9084 3.76628L14.1421 0Z" fill="#76C040"/>
</svg>
