<svg width="38" height="34" viewBox="0 0 38 34" fill="none" xmlns="http://www.w3.org/2000/svg">
<g clip-path="url(#clip0)">
<path d="M37.478 0.0947776H37.4543C37.3357 4.10166e-06 37.1696 -0.0473827 37.0036 0.0710842C36.885 0.142164 36.7901 0.236938 36.6715 0.308018C34.3469 0.947739 32.0935 1.82439 29.9587 2.91429C29.8875 2.8669 29.8163 2.81952 29.6977 2.81952C22.5342 2.84321 15.3706 3.10384 8.20709 3.26969C7.25828 3.29338 6.04854 3.17492 5.24204 3.79095C4.24579 4.59652 4.34067 6.34983 4.22207 7.48711C3.91371 10.7568 3.84254 14.1686 4.38811 17.4146C4.10347 17.4857 3.84254 17.5568 3.5579 17.6279C3.48674 17.6042 3.41558 17.6042 3.34442 17.6753L3.3207 17.699C2.3956 17.9596 1.49423 18.2439 0.592856 18.5519C0.450534 18.5993 0.379373 18.7178 0.355652 18.8362C0.0947284 18.7415 -0.189916 19.0732 0.0472877 19.3338C0.355652 19.6892 0.664017 20.0209 0.972381 20.3763C0.972381 20.4237 1.01982 20.4711 1.06726 20.4948C2.22956 21.7742 3.39186 23.03 4.53043 24.3331C4.53043 24.3331 4.53043 24.3568 4.50671 24.3568C4.17463 26.584 4.26951 28.8822 4.50671 31.1094C4.67276 32.6732 5.09972 33.7868 6.83131 33.9289C9.1559 34.0948 11.5991 33.7868 13.9474 33.7157C16.5329 33.6209 19.1185 33.5261 21.704 33.4551C24.2183 33.3603 26.709 33.3129 29.2233 33.2181C30.86 33.147 32.3781 32.9101 33.4455 31.5596C34.3706 30.3749 34.679 28.8348 34.8213 27.3659C35.0348 25.1861 34.9874 22.9589 35.0348 20.7554C35.1771 15.1875 35.2957 9.61952 34.8688 4.05157C34.8213 3.53032 34.0148 3.53032 34.0623 4.05157C34.3944 8.2453 34.3944 12.4627 34.3232 16.6565C34.2758 18.6941 34.2283 20.708 34.1809 22.7457C34.1334 24.5463 34.2046 26.4181 33.8962 28.1951C33.6353 29.7115 33.066 31.37 31.5242 32.0098C30.5279 32.4362 29.3656 32.3889 28.2982 32.4125C27.1122 32.4599 25.9499 32.5073 24.7639 32.5547C20.4468 32.7206 16.1534 32.8627 11.8363 33.0286C10.6503 33.076 9.48799 33.1233 8.30197 33.147C6.92619 33.1944 5.55041 33.3129 5.31321 31.5596C5.00484 29.3561 5.076 27.1052 5.00484 24.8781C5.69273 25.6836 6.38062 26.5129 7.04479 27.3659C7.32944 27.7213 7.59036 28.1004 7.85128 28.4794C7.80384 28.6216 7.92245 28.7401 8.04105 28.7401C8.44429 29.285 8.87126 29.83 9.36939 30.2091C9.44055 30.2565 9.51171 30.2801 9.58287 30.2801C9.60659 30.3038 9.63031 30.3512 9.65403 30.3749C9.77263 30.5408 10.0573 30.446 10.0098 30.2328C9.93868 29.9484 13.4018 29.0007 13.7339 28.9296C15.0386 28.5979 16.3432 28.361 17.6715 28.2188C18.1459 28.1714 18.2171 27.5791 17.8613 27.4132C18.4543 26.3234 18.8812 25.115 19.4031 24.0014C19.9961 22.722 20.6366 21.4425 21.3244 20.1868C22.6765 17.77 24.1709 15.4007 25.7839 13.1498C27.468 10.8279 29.2945 8.6007 31.2633 6.51568C33.0897 4.57283 35.106 2.8906 37.051 1.0899C37.2645 1.04251 37.478 0.971433 37.6915 0.924046C38.2371 0.781886 37.9999 -0.0473827 37.478 0.0947776ZM4.9574 8.41115C5.076 6.96586 4.86252 4.3122 6.73643 4.09896C8.23081 3.93311 9.77263 4.00419 11.267 3.98049C17.0548 3.86203 22.8663 3.81464 28.654 3.62509C26.4718 4.83345 24.3844 6.25506 22.4867 7.8899C21.111 9.05088 19.8063 10.3303 18.5729 11.6808C18.478 11.6808 18.4068 11.7045 18.3357 11.823C18.312 11.8941 18.2645 11.9652 18.2408 12.0599C15.8688 14.761 13.8525 17.8411 12.5716 21.1345H12.5479C12.287 20.9213 12.0023 20.4948 11.8126 20.2815C11.4568 19.8788 11.0773 19.476 10.7214 19.0495C10.0098 18.2202 9.29823 17.3909 8.56289 16.5854C8.39685 16.4195 8.15965 16.5143 8.08849 16.7038C7.06851 16.7038 6.02482 17.0119 5.02856 17.2488C4.90996 14.3108 4.7202 11.3965 4.9574 8.41115ZM0.8775 19.2627C1.1147 19.1916 1.35191 19.1206 1.58911 19.0495C1.58911 19.0495 1.58911 19.0732 1.56539 19.0732C1.47051 19.2627 1.37563 19.4523 1.28075 19.6418C1.16214 19.4997 1.01982 19.3812 0.8775 19.2627ZM1.54167 19.8788C1.66027 19.6655 1.75515 19.4523 1.89748 19.2627C1.99236 19.1206 2.08724 19.0021 2.18212 18.8836C2.32444 18.8362 2.44304 18.8125 2.58537 18.7652C2.32444 19.2627 2.13468 19.8077 2.01608 20.3526C1.85003 20.1868 1.70771 20.0209 1.54167 19.8788ZM2.32444 20.6606C2.46676 20.2342 2.60909 19.8314 2.82257 19.4523C2.96489 19.1443 3.17837 18.8599 3.36814 18.5519C3.58162 18.5045 3.77138 18.4571 3.98487 18.3861C3.48674 19.239 3.13093 20.2578 2.84629 21.1819C2.65653 20.9923 2.49048 20.8265 2.32444 20.6606ZM3.13093 21.4899C3.39186 20.8502 3.62906 20.2105 3.93743 19.5944C4.15091 19.1443 4.41183 18.6941 4.62532 18.2202C4.64904 18.2202 4.67276 18.2202 4.67276 18.1965C4.8388 18.1491 5.00484 18.1254 5.1946 18.0781C4.43555 19.2864 3.91371 20.6369 3.6765 22.0348C3.46302 21.869 3.29698 21.6794 3.13093 21.4899ZM4.48299 22.9826C4.29323 22.7693 4.12719 22.5798 3.93743 22.3902C4.31695 20.8028 4.93368 19.3812 5.83505 18.007C5.83505 18.007 5.83505 18.007 5.83505 17.9833C6.0011 17.9596 6.16714 17.9359 6.33318 17.8885C5.59785 19.4997 5.05228 21.3004 4.48299 22.9826ZM4.7202 23.2432C5.47925 21.4662 6.40434 19.6418 6.94991 17.7937C7.25828 17.7227 7.59036 17.6516 7.875 17.5805C7.44804 18.4571 7.16339 19.4286 6.80759 20.3289C6.33318 21.5373 5.81133 22.722 5.31321 23.9066C5.09972 23.6934 4.90996 23.4565 4.7202 23.2432ZM5.74017 24.4279C5.69273 24.3568 5.62157 24.3094 5.57413 24.2383C6.64155 22.1296 7.94617 19.7366 8.44429 17.4383C8.58661 17.6516 8.75266 17.8411 8.89498 18.0544C7.89873 20.2815 6.90247 22.5087 6.02482 24.7833C5.92993 24.6648 5.83505 24.5463 5.74017 24.4279ZM6.85503 25.7784C6.66527 25.5415 6.4755 25.3045 6.28574 25.0676C7.35316 22.9352 8.32569 20.7317 9.29823 18.5282C9.41683 18.6941 9.55915 18.8599 9.70147 19.0258C8.77638 21.3004 7.85128 23.5512 6.85503 25.7784ZM7.13967 26.1101C8.30197 24.0014 9.29823 21.7742 10.081 19.4997C10.2233 19.6655 10.3656 19.8314 10.508 19.9972C9.9624 21.1819 9.55915 22.4376 9.0373 23.6223C8.58661 24.6648 8.08849 25.6599 7.59036 26.6551C7.42432 26.4892 7.282 26.2997 7.13967 26.1101ZM8.20709 27.4606C8.08849 27.3185 7.96989 27.1526 7.85128 27.0105C9.08474 25.0202 10.2708 22.6983 10.8875 20.4474C11.0535 20.6132 11.1959 20.8028 11.3619 20.9686C10.7214 22.1533 10.3419 23.5038 9.79635 24.7359C9.36939 25.731 8.87126 26.6788 8.34941 27.6265C8.30197 27.5791 8.25453 27.508 8.20709 27.4606ZM9.20334 28.6927C9.0373 28.4558 8.84754 28.2188 8.65778 28.0056C9.27451 26.9631 9.84379 25.9206 10.3656 24.8307C10.8875 23.7645 11.4805 22.5798 11.7651 21.4188C11.8126 21.4662 11.8363 21.5136 11.8837 21.561C12.0023 21.7031 12.1209 21.8216 12.2395 21.9164C11.267 24.1673 10.2233 26.4181 9.20334 28.6927ZM10.0573 29.4272C9.9624 29.4983 9.86751 29.5693 9.79635 29.6404C9.70147 29.4509 9.60659 29.2613 9.48799 29.0955C10.7926 26.8209 11.9075 24.3805 12.8563 21.9401C12.9274 21.8927 12.9749 21.8216 12.9986 21.7268C12.9986 21.7031 12.9986 21.7031 12.9986 21.6794C14.0897 19.5707 15.252 17.5568 16.5804 15.6613C15.7027 17.5331 14.7776 19.4049 13.8288 21.253C12.5005 23.8592 10.7214 26.5129 10.0573 29.4272ZM10.5317 29.1666C11.6228 26.3707 13.2121 23.8355 14.5641 21.1582C15.845 18.6467 17.0548 16.1115 18.1696 13.5289C18.7626 12.7707 19.4031 12.0362 20.0673 11.3254C17.292 17.0592 14.4693 22.793 11.9075 28.6216C11.3856 28.7875 10.9112 28.977 10.5317 29.1666ZM13.7102 28.124C13.2832 28.2188 12.8563 28.3373 12.453 28.4558C15.5604 22.3902 18.4306 16.2063 21.3482 10.046C21.7277 9.6906 22.1072 9.3352 22.4867 8.9798C20.8975 11.9178 19.5929 15.0216 18.2171 18.0307C16.6753 21.3951 15.0148 24.7122 13.7102 28.124ZM14.1609 28.0293C17.6478 21.4662 19.9724 14.3345 23.7439 7.91359C24.1472 7.58189 24.5504 7.27387 24.9537 6.96586C21.5854 13.8606 18.2645 20.8028 15.1572 27.816C14.8488 27.8871 14.493 27.9582 14.1609 28.0293ZM17.2445 27.3185C17.1259 27.3185 17.0311 27.3896 16.9836 27.4843C16.9362 27.4843 16.8887 27.508 16.8176 27.508C17.0548 27.1052 17.3157 26.7024 17.5529 26.276C17.4343 26.6314 17.3157 26.9631 17.2445 27.3185ZM16.4143 27.5791C16.1771 27.6265 15.9162 27.6739 15.6553 27.7213C19.2371 20.6843 22.6053 13.4815 25.9025 6.30244C26.3057 6.01812 26.709 5.7575 27.1122 5.49687C23.7676 12.984 19.9487 20.2105 16.4143 27.5791ZM25.4992 12.1073C25.4281 12.2021 25.3569 12.2969 25.262 12.4153C24.5741 13.3631 23.91 14.3345 23.2695 15.3059C24.8825 11.8941 26.4243 8.45854 27.9187 5.023C27.9187 4.99931 27.9424 4.97561 27.9424 4.95192C28.5829 4.57283 29.2233 4.21743 29.8875 3.86203C28.4643 6.65784 26.9224 9.35889 25.4992 12.1073ZM27.3257 9.78537C28.5117 7.74774 29.6028 5.61534 30.6703 3.53032C30.9549 3.38816 31.2396 3.246 31.5479 3.12753C30.6465 4.45436 29.9349 6.01812 29.2708 7.48711C28.6066 8.22161 27.9424 8.9798 27.3257 9.78537ZM30.6703 5.92335C30.5991 5.99443 30.5517 6.06551 30.4805 6.13659C31.0498 5.16516 31.5954 4.17004 32.0698 3.15122C32.1172 3.05645 32.0935 2.96168 32.046 2.8906C32.473 2.70105 32.9 2.5115 33.3507 2.34565C32.8763 3.08014 32.4019 3.83833 31.9512 4.59652C31.5005 5.04669 31.0735 5.47318 30.6703 5.92335ZM33.4693 3.05645C33.659 2.77213 33.8488 2.48781 34.0386 2.20349C34.0623 2.1561 34.086 2.10872 34.086 2.06133C34.3469 1.96655 34.6316 1.87178 34.8925 1.77701C34.3944 2.1798 33.9437 2.62997 33.4693 3.05645Z" fill="white" stroke="white" stroke-width="0.5"/>
</g>
<defs>
<clipPath id="clip0">
<rect width="38" height="34" fill="white"/>
</clipPath>
</defs>
</svg>
